G04 #@! TF.GenerationSoftware,KiCad,Pcbnew,8.0.8*
G04 #@! TF.CreationDate,2025-02-19T13:23:11-05:00*
G04 #@! TF.ProjectId,plot_gerbers,706c6f74-5f67-4657-9262-6572732e6b69,rev?*
G04 #@! TF.SameCoordinates,Original*
G04 #@! TF.FileFunction,Copper,L1,Top*
G04 #@! TF.FilePolarity,Positive*
%FSLAX46Y46*%
G04 Gerber Fmt 4.6, Leading zero omitted, Abs format (unit mm)*
G04 Created by KiCad (PCBNEW 8.0.8) date 2025-02-19 13:23:11*
%MOMM*%
%LPD*%
G01*
G04 APERTURE LIST*
G04 #@! TA.AperFunction,ComponentPad*
%ADD10R,1.700000X1.700000*%
G04 #@! TD*
G04 #@! TA.AperFunction,ComponentPad*
%ADD11O,1.700000X1.700000*%
G04 #@! TD*
G04 APERTURE END LIST*
D10*
X119190000Y-93890000D03*
D11*
X121730000Y-93890000D03*
X119190000Y-96430000D03*
X121730000Y-96430000D03*
X119190000Y-98970000D03*
X121730000Y-98970000D03*
X119190000Y-101510000D03*
X121730000Y-101510000D03*
X119190000Y-104050000D03*
X121730000Y-104050000D03*
X119190000Y-106590000D03*
X121730000Y-106590000D03*
X119190000Y-109130000D03*
X121730000Y-109130000D03*
X119190000Y-111670000D03*
X121730000Y-111670000D03*
X119190000Y-114210000D03*
X121730000Y-114210000D03*
G04 #@! TA.AperFunction,NonConductor*
G36*
X115968039Y-83710185D02*
G01*
X116013794Y-83762989D01*
X116025000Y-83814500D01*
X116025000Y-83830000D01*
X117985000Y-83830000D01*
X117985000Y-83814500D01*
X118004685Y-83747461D01*
X118057489Y-83701706D01*
X118109000Y-83690500D01*
X142701000Y-83690500D01*
X142768039Y-83710185D01*
X142813794Y-83762989D01*
X142825000Y-83814500D01*
X142825000Y-83830000D01*
X144785000Y-83830000D01*
X144785000Y-83814500D01*
X144804685Y-83747461D01*
X144857489Y-83701706D01*
X144909000Y-83690500D01*
X151911000Y-83690500D01*
X151978039Y-83710185D01*
X152023794Y-83762989D01*
X152035000Y-83814500D01*
X152035000Y-83830000D01*
X153995000Y-83830000D01*
X153995000Y-83814500D01*
X154014685Y-83747461D01*
X154067489Y-83701706D01*
X154119000Y-83690500D01*
X178711000Y-83690500D01*
X178778039Y-83710185D01*
X178823794Y-83762989D01*
X178835000Y-83814500D01*
X178835000Y-83830000D01*
X180795000Y-83830000D01*
X180795000Y-83814500D01*
X180814685Y-83747461D01*
X180867489Y-83701706D01*
X180919000Y-83690500D01*
X181885500Y-83690500D01*
X181952539Y-83710185D01*
X181998294Y-83762989D01*
X182009500Y-83814500D01*
X182009500Y-124265500D01*
X181989815Y-124332539D01*
X181937011Y-124378294D01*
X181885500Y-124389500D01*
X180919000Y-124389500D01*
X180851961Y-124369815D01*
X180806206Y-124317011D01*
X180795000Y-124265500D01*
X180795000Y-124250000D01*
X178835000Y-124250000D01*
X178835000Y-124265500D01*
X178815315Y-124332539D01*
X178762511Y-124378294D01*
X178711000Y-124389500D01*
X154119000Y-124389500D01*
X154051961Y-124369815D01*
X154006206Y-124317011D01*
X153995000Y-124265500D01*
X153995000Y-124250000D01*
X152035000Y-124250000D01*
X152035000Y-124265500D01*
X152015315Y-124332539D01*
X151962511Y-124378294D01*
X151911000Y-124389500D01*
X144909000Y-124389500D01*
X144841961Y-124369815D01*
X144796206Y-124317011D01*
X144785000Y-124265500D01*
X144785000Y-124250000D01*
X142825000Y-124250000D01*
X142825000Y-124265500D01*
X142805315Y-124332539D01*
X142752511Y-124378294D01*
X142701000Y-124389500D01*
X118109000Y-124389500D01*
X118041961Y-124369815D01*
X117996206Y-124317011D01*
X117985000Y-124265500D01*
X117985000Y-124250000D01*
X116025000Y-124250000D01*
X116025000Y-124265500D01*
X116005315Y-124332539D01*
X115952511Y-124378294D01*
X115901000Y-124389500D01*
X114934500Y-124389500D01*
X114867461Y-124369815D01*
X114821706Y-124317011D01*
X114810500Y-124265500D01*
X114810500Y-114210000D01*
X118134417Y-114210000D01*
X118154699Y-114415932D01*
X118154700Y-114415934D01*
X118214768Y-114613954D01*
X118312315Y-114796450D01*
X118312317Y-114796452D01*
X118443589Y-114956410D01*
X118540209Y-115035702D01*
X118603550Y-115087685D01*
X118786046Y-115185232D01*
X118984066Y-115245300D01*
X118984065Y-115245300D01*
X119002529Y-115247118D01*
X119190000Y-115265583D01*
X119395934Y-115245300D01*
X119593954Y-115185232D01*
X119776450Y-115087685D01*
X119936410Y-114956410D01*
X120067685Y-114796450D01*
X120165232Y-114613954D01*
X120225300Y-114415934D01*
X120245583Y-114210000D01*
X120674417Y-114210000D01*
X120694699Y-114415932D01*
X120694700Y-114415934D01*
X120754768Y-114613954D01*
X120852315Y-114796450D01*
X120852317Y-114796452D01*
X120983589Y-114956410D01*
X121080209Y-115035702D01*
X121143550Y-115087685D01*
X121326046Y-115185232D01*
X121524066Y-115245300D01*
X121524065Y-115245300D01*
X121542529Y-115247118D01*
X121730000Y-115265583D01*
X121935934Y-115245300D01*
X122133954Y-115185232D01*
X122316450Y-115087685D01*
X122476410Y-114956410D01*
X122607685Y-114796450D01*
X122705232Y-114613954D01*
X122765300Y-114415934D01*
X122785583Y-114210000D01*
X122765300Y-114004066D01*
X122705232Y-113806046D01*
X122607685Y-113623550D01*
X122555702Y-113560209D01*
X122476410Y-113463589D01*
X122316452Y-113332317D01*
X122316453Y-113332317D01*
X122316450Y-113332315D01*
X122133954Y-113234768D01*
X121935934Y-113174700D01*
X121935932Y-113174699D01*
X121935934Y-113174699D01*
X121730000Y-113154417D01*
X121524067Y-113174699D01*
X121326043Y-113234769D01*
X121215898Y-113293643D01*
X121143550Y-113332315D01*
X121143548Y-113332316D01*
X121143547Y-113332317D01*
X120983589Y-113463589D01*
X120852317Y-113623547D01*
X120754769Y-113806043D01*
X120694699Y-114004067D01*
X120674417Y-114210000D01*
X120245583Y-114210000D01*
X120225300Y-114004066D01*
X120165232Y-113806046D01*
X120067685Y-113623550D01*
X120015702Y-113560209D01*
X119936410Y-113463589D01*
X119776452Y-113332317D01*
X119776453Y-113332317D01*
X119776450Y-113332315D01*
X119593954Y-113234768D01*
X119395934Y-113174700D01*
X119395932Y-113174699D01*
X119395934Y-113174699D01*
X119190000Y-113154417D01*
X118984067Y-113174699D01*
X118786043Y-113234769D01*
X118675898Y-113293643D01*
X118603550Y-113332315D01*
X118603548Y-113332316D01*
X118603547Y-113332317D01*
X118443589Y-113463589D01*
X118312317Y-113623547D01*
X118214769Y-113806043D01*
X118154699Y-114004067D01*
X118134417Y-114210000D01*
X114810500Y-114210000D01*
X114810500Y-111670000D01*
X118134417Y-111670000D01*
X118154699Y-111875932D01*
X118154700Y-111875934D01*
X118214768Y-112073954D01*
X118312315Y-112256450D01*
X118312317Y-112256452D01*
X118443589Y-112416410D01*
X118540209Y-112495702D01*
X118603550Y-112547685D01*
X118786046Y-112645232D01*
X118984066Y-112705300D01*
X118984065Y-112705300D01*
X119002529Y-112707118D01*
X119190000Y-112725583D01*
X119395934Y-112705300D01*
X119593954Y-112645232D01*
X119776450Y-112547685D01*
X119936410Y-112416410D01*
X120067685Y-112256450D01*
X120165232Y-112073954D01*
X120225300Y-111875934D01*
X120245583Y-111670000D01*
X120674417Y-111670000D01*
X120694699Y-111875932D01*
X120694700Y-111875934D01*
X120754768Y-112073954D01*
X120852315Y-112256450D01*
X120852317Y-112256452D01*
X120983589Y-112416410D01*
X121080209Y-112495702D01*
X121143550Y-112547685D01*
X121326046Y-112645232D01*
X121524066Y-112705300D01*
X121524065Y-112705300D01*
X121542529Y-112707118D01*
X121730000Y-112725583D01*
X121935934Y-112705300D01*
X122133954Y-112645232D01*
X122316450Y-112547685D01*
X122476410Y-112416410D01*
X122607685Y-112256450D01*
X122705232Y-112073954D01*
X122765300Y-111875934D01*
X122785583Y-111670000D01*
X122765300Y-111464066D01*
X122705232Y-111266046D01*
X122607685Y-111083550D01*
X122555702Y-111020209D01*
X122476410Y-110923589D01*
X122316452Y-110792317D01*
X122316453Y-110792317D01*
X122316450Y-110792315D01*
X122133954Y-110694768D01*
X121935934Y-110634700D01*
X121935932Y-110634699D01*
X121935934Y-110634699D01*
X121730000Y-110614417D01*
X121524067Y-110634699D01*
X121326043Y-110694769D01*
X121215898Y-110753643D01*
X121143550Y-110792315D01*
X121143548Y-110792316D01*
X121143547Y-110792317D01*
X120983589Y-110923589D01*
X120852317Y-111083547D01*
X120754769Y-111266043D01*
X120694699Y-111464067D01*
X120674417Y-111670000D01*
X120245583Y-111670000D01*
X120225300Y-111464066D01*
X120165232Y-111266046D01*
X120067685Y-111083550D01*
X120015702Y-111020209D01*
X119936410Y-110923589D01*
X119776452Y-110792317D01*
X119776453Y-110792317D01*
X119776450Y-110792315D01*
X119593954Y-110694768D01*
X119395934Y-110634700D01*
X119395932Y-110634699D01*
X119395934Y-110634699D01*
X119190000Y-110614417D01*
X118984067Y-110634699D01*
X118786043Y-110694769D01*
X118675898Y-110753643D01*
X118603550Y-110792315D01*
X118603548Y-110792316D01*
X118603547Y-110792317D01*
X118443589Y-110923589D01*
X118312317Y-111083547D01*
X118214769Y-111266043D01*
X118154699Y-111464067D01*
X118134417Y-111670000D01*
X114810500Y-111670000D01*
X114810500Y-109130000D01*
X118134417Y-109130000D01*
X118154699Y-109335932D01*
X118154700Y-109335934D01*
X118214768Y-109533954D01*
X118312315Y-109716450D01*
X118312317Y-109716452D01*
X118443589Y-109876410D01*
X118540209Y-109955702D01*
X118603550Y-110007685D01*
X118786046Y-110105232D01*
X118984066Y-110165300D01*
X118984065Y-110165300D01*
X119002529Y-110167118D01*
X119190000Y-110185583D01*
X119395934Y-110165300D01*
X119593954Y-110105232D01*
X119776450Y-110007685D01*
X119936410Y-109876410D01*
X120067685Y-109716450D01*
X120165232Y-109533954D01*
X120225300Y-109335934D01*
X120245583Y-109130000D01*
X120674417Y-109130000D01*
X120694699Y-109335932D01*
X120694700Y-109335934D01*
X120754768Y-109533954D01*
X120852315Y-109716450D01*
X120852317Y-109716452D01*
X120983589Y-109876410D01*
X121080209Y-109955702D01*
X121143550Y-110007685D01*
X121326046Y-110105232D01*
X121524066Y-110165300D01*
X121524065Y-110165300D01*
X121542529Y-110167118D01*
X121730000Y-110185583D01*
X121935934Y-110165300D01*
X122133954Y-110105232D01*
X122316450Y-110007685D01*
X122476410Y-109876410D01*
X122607685Y-109716450D01*
X122705232Y-109533954D01*
X122765300Y-109335934D01*
X122785583Y-109130000D01*
X122765300Y-108924066D01*
X122705232Y-108726046D01*
X122607685Y-108543550D01*
X122555702Y-108480209D01*
X122476410Y-108383589D01*
X122316452Y-108252317D01*
X122316453Y-108252317D01*
X122316450Y-108252315D01*
X122133954Y-108154768D01*
X121935934Y-108094700D01*
X121935932Y-108094699D01*
X121935934Y-108094699D01*
X121730000Y-108074417D01*
X121524067Y-108094699D01*
X121326043Y-108154769D01*
X121215898Y-108213643D01*
X121143550Y-108252315D01*
X121143548Y-108252316D01*
X121143547Y-108252317D01*
X120983589Y-108383589D01*
X120852317Y-108543547D01*
X120754769Y-108726043D01*
X120694699Y-108924067D01*
X120674417Y-109130000D01*
X120245583Y-109130000D01*
X120225300Y-108924066D01*
X120165232Y-108726046D01*
X120067685Y-108543550D01*
X120015702Y-108480209D01*
X119936410Y-108383589D01*
X119776452Y-108252317D01*
X119776453Y-108252317D01*
X119776450Y-108252315D01*
X119593954Y-108154768D01*
X119395934Y-108094700D01*
X119395932Y-108094699D01*
X119395934Y-108094699D01*
X119190000Y-108074417D01*
X118984067Y-108094699D01*
X118786043Y-108154769D01*
X118675898Y-108213643D01*
X118603550Y-108252315D01*
X118603548Y-108252316D01*
X118603547Y-108252317D01*
X118443589Y-108383589D01*
X118312317Y-108543547D01*
X118214769Y-108726043D01*
X118154699Y-108924067D01*
X118134417Y-109130000D01*
X114810500Y-109130000D01*
X114810500Y-106590000D01*
X118134417Y-106590000D01*
X118154699Y-106795932D01*
X118154700Y-106795934D01*
X118214768Y-106993954D01*
X118312315Y-107176450D01*
X118312317Y-107176452D01*
X118443589Y-107336410D01*
X118540209Y-107415702D01*
X118603550Y-107467685D01*
X118786046Y-107565232D01*
X118984066Y-107625300D01*
X118984065Y-107625300D01*
X119002529Y-107627118D01*
X119190000Y-107645583D01*
X119395934Y-107625300D01*
X119593954Y-107565232D01*
X119776450Y-107467685D01*
X119936410Y-107336410D01*
X120067685Y-107176450D01*
X120165232Y-106993954D01*
X120225300Y-106795934D01*
X120245583Y-106590000D01*
X120674417Y-106590000D01*
X120694699Y-106795932D01*
X120694700Y-106795934D01*
X120754768Y-106993954D01*
X120852315Y-107176450D01*
X120852317Y-107176452D01*
X120983589Y-107336410D01*
X121080209Y-107415702D01*
X121143550Y-107467685D01*
X121326046Y-107565232D01*
X121524066Y-107625300D01*
X121524065Y-107625300D01*
X121542529Y-107627118D01*
X121730000Y-107645583D01*
X121935934Y-107625300D01*
X122133954Y-107565232D01*
X122316450Y-107467685D01*
X122476410Y-107336410D01*
X122607685Y-107176450D01*
X122705232Y-106993954D01*
X122765300Y-106795934D01*
X122785583Y-106590000D01*
X122765300Y-106384066D01*
X122705232Y-106186046D01*
X122607685Y-106003550D01*
X122555702Y-105940209D01*
X122476410Y-105843589D01*
X122316452Y-105712317D01*
X122316453Y-105712317D01*
X122316450Y-105712315D01*
X122133954Y-105614768D01*
X121935934Y-105554700D01*
X121935932Y-105554699D01*
X121935934Y-105554699D01*
X121730000Y-105534417D01*
X121524067Y-105554699D01*
X121326043Y-105614769D01*
X121215898Y-105673643D01*
X121143550Y-105712315D01*
X121143548Y-105712316D01*
X121143547Y-105712317D01*
X120983589Y-105843589D01*
X120852317Y-106003547D01*
X120754769Y-106186043D01*
X120694699Y-106384067D01*
X120674417Y-106590000D01*
X120245583Y-106590000D01*
X120225300Y-106384066D01*
X120165232Y-106186046D01*
X120067685Y-106003550D01*
X120015702Y-105940209D01*
X119936410Y-105843589D01*
X119776452Y-105712317D01*
X119776453Y-105712317D01*
X119776450Y-105712315D01*
X119593954Y-105614768D01*
X119395934Y-105554700D01*
X119395932Y-105554699D01*
X119395934Y-105554699D01*
X119190000Y-105534417D01*
X118984067Y-105554699D01*
X118786043Y-105614769D01*
X118675898Y-105673643D01*
X118603550Y-105712315D01*
X118603548Y-105712316D01*
X118603547Y-105712317D01*
X118443589Y-105843589D01*
X118312317Y-106003547D01*
X118214769Y-106186043D01*
X118154699Y-106384067D01*
X118134417Y-106590000D01*
X114810500Y-106590000D01*
X114810500Y-104050000D01*
X118134417Y-104050000D01*
X118154699Y-104255932D01*
X118154700Y-104255934D01*
X118214768Y-104453954D01*
X118312315Y-104636450D01*
X118312317Y-104636452D01*
X118443589Y-104796410D01*
X118540209Y-104875702D01*
X118603550Y-104927685D01*
X118786046Y-105025232D01*
X118984066Y-105085300D01*
X118984065Y-105085300D01*
X119002529Y-105087118D01*
X119190000Y-105105583D01*
X119395934Y-105085300D01*
X119593954Y-105025232D01*
X119776450Y-104927685D01*
X119936410Y-104796410D01*
X120067685Y-104636450D01*
X120165232Y-104453954D01*
X120225300Y-104255934D01*
X120245583Y-104050000D01*
X120674417Y-104050000D01*
X120694699Y-104255932D01*
X120694700Y-104255934D01*
X120754768Y-104453954D01*
X120852315Y-104636450D01*
X120852317Y-104636452D01*
X120983589Y-104796410D01*
X121080209Y-104875702D01*
X121143550Y-104927685D01*
X121326046Y-105025232D01*
X121524066Y-105085300D01*
X121524065Y-105085300D01*
X121542529Y-105087118D01*
X121730000Y-105105583D01*
X121935934Y-105085300D01*
X122133954Y-105025232D01*
X122316450Y-104927685D01*
X122476410Y-104796410D01*
X122607685Y-104636450D01*
X122705232Y-104453954D01*
X122765300Y-104255934D01*
X122785583Y-104050000D01*
X122765300Y-103844066D01*
X122705232Y-103646046D01*
X122607685Y-103463550D01*
X122555702Y-103400209D01*
X122476410Y-103303589D01*
X122316452Y-103172317D01*
X122316453Y-103172317D01*
X122316450Y-103172315D01*
X122133954Y-103074768D01*
X121935934Y-103014700D01*
X121935932Y-103014699D01*
X121935934Y-103014699D01*
X121730000Y-102994417D01*
X121524067Y-103014699D01*
X121326043Y-103074769D01*
X121215898Y-103133643D01*
X121143550Y-103172315D01*
X121143548Y-103172316D01*
X121143547Y-103172317D01*
X120983589Y-103303589D01*
X120852317Y-103463547D01*
X120754769Y-103646043D01*
X120694699Y-103844067D01*
X120674417Y-104050000D01*
X120245583Y-104050000D01*
X120225300Y-103844066D01*
X120165232Y-103646046D01*
X120067685Y-103463550D01*
X120015702Y-103400209D01*
X119936410Y-103303589D01*
X119776452Y-103172317D01*
X119776453Y-103172317D01*
X119776450Y-103172315D01*
X119593954Y-103074768D01*
X119395934Y-103014700D01*
X119395932Y-103014699D01*
X119395934Y-103014699D01*
X119190000Y-102994417D01*
X118984067Y-103014699D01*
X118786043Y-103074769D01*
X118675898Y-103133643D01*
X118603550Y-103172315D01*
X118603548Y-103172316D01*
X118603547Y-103172317D01*
X118443589Y-103303589D01*
X118312317Y-103463547D01*
X118214769Y-103646043D01*
X118154699Y-103844067D01*
X118134417Y-104050000D01*
X114810500Y-104050000D01*
X114810500Y-101510000D01*
X118134417Y-101510000D01*
X118154699Y-101715932D01*
X118154700Y-101715934D01*
X118214768Y-101913954D01*
X118312315Y-102096450D01*
X118312317Y-102096452D01*
X118443589Y-102256410D01*
X118540209Y-102335702D01*
X118603550Y-102387685D01*
X118786046Y-102485232D01*
X118984066Y-102545300D01*
X118984065Y-102545300D01*
X119002529Y-102547118D01*
X119190000Y-102565583D01*
X119395934Y-102545300D01*
X119593954Y-102485232D01*
X119776450Y-102387685D01*
X119936410Y-102256410D01*
X120067685Y-102096450D01*
X120165232Y-101913954D01*
X120225300Y-101715934D01*
X120245583Y-101510000D01*
X120674417Y-101510000D01*
X120694699Y-101715932D01*
X120694700Y-101715934D01*
X120754768Y-101913954D01*
X120852315Y-102096450D01*
X120852317Y-102096452D01*
X120983589Y-102256410D01*
X121080209Y-102335702D01*
X121143550Y-102387685D01*
X121326046Y-102485232D01*
X121524066Y-102545300D01*
X121524065Y-102545300D01*
X121542529Y-102547118D01*
X121730000Y-102565583D01*
X121935934Y-102545300D01*
X122133954Y-102485232D01*
X122316450Y-102387685D01*
X122476410Y-102256410D01*
X122607685Y-102096450D01*
X122705232Y-101913954D01*
X122765300Y-101715934D01*
X122785583Y-101510000D01*
X122765300Y-101304066D01*
X122705232Y-101106046D01*
X122607685Y-100923550D01*
X122555702Y-100860209D01*
X122476410Y-100763589D01*
X122316452Y-100632317D01*
X122316453Y-100632317D01*
X122316450Y-100632315D01*
X122133954Y-100534768D01*
X121935934Y-100474700D01*
X121935932Y-100474699D01*
X121935934Y-100474699D01*
X121730000Y-100454417D01*
X121524067Y-100474699D01*
X121326043Y-100534769D01*
X121215898Y-100593643D01*
X121143550Y-100632315D01*
X121143548Y-100632316D01*
X121143547Y-100632317D01*
X120983589Y-100763589D01*
X120852317Y-100923547D01*
X120754769Y-101106043D01*
X120694699Y-101304067D01*
X120674417Y-101510000D01*
X120245583Y-101510000D01*
X120225300Y-101304066D01*
X120165232Y-101106046D01*
X120067685Y-100923550D01*
X120015702Y-100860209D01*
X119936410Y-100763589D01*
X119776452Y-100632317D01*
X119776453Y-100632317D01*
X119776450Y-100632315D01*
X119593954Y-100534768D01*
X119395934Y-100474700D01*
X119395932Y-100474699D01*
X119395934Y-100474699D01*
X119190000Y-100454417D01*
X118984067Y-100474699D01*
X118786043Y-100534769D01*
X118675898Y-100593643D01*
X118603550Y-100632315D01*
X118603548Y-100632316D01*
X118603547Y-100632317D01*
X118443589Y-100763589D01*
X118312317Y-100923547D01*
X118214769Y-101106043D01*
X118154699Y-101304067D01*
X118134417Y-101510000D01*
X114810500Y-101510000D01*
X114810500Y-98970000D01*
X118134417Y-98970000D01*
X118154699Y-99175932D01*
X118154700Y-99175934D01*
X118214768Y-99373954D01*
X118312315Y-99556450D01*
X118312317Y-99556452D01*
X118443589Y-99716410D01*
X118540209Y-99795702D01*
X118603550Y-99847685D01*
X118786046Y-99945232D01*
X118984066Y-100005300D01*
X118984065Y-100005300D01*
X119002529Y-100007118D01*
X119190000Y-100025583D01*
X119395934Y-100005300D01*
X119593954Y-99945232D01*
X119776450Y-99847685D01*
X119936410Y-99716410D01*
X120067685Y-99556450D01*
X120165232Y-99373954D01*
X120225300Y-99175934D01*
X120245583Y-98970000D01*
X120674417Y-98970000D01*
X120694699Y-99175932D01*
X120694700Y-99175934D01*
X120754768Y-99373954D01*
X120852315Y-99556450D01*
X120852317Y-99556452D01*
X120983589Y-99716410D01*
X121080209Y-99795702D01*
X121143550Y-99847685D01*
X121326046Y-99945232D01*
X121524066Y-100005300D01*
X121524065Y-100005300D01*
X121542529Y-100007118D01*
X121730000Y-100025583D01*
X121935934Y-100005300D01*
X122133954Y-99945232D01*
X122316450Y-99847685D01*
X122476410Y-99716410D01*
X122607685Y-99556450D01*
X122705232Y-99373954D01*
X122765300Y-99175934D01*
X122785583Y-98970000D01*
X122765300Y-98764066D01*
X122705232Y-98566046D01*
X122607685Y-98383550D01*
X122555702Y-98320209D01*
X122476410Y-98223589D01*
X122316452Y-98092317D01*
X122316453Y-98092317D01*
X122316450Y-98092315D01*
X122133954Y-97994768D01*
X121935934Y-97934700D01*
X121935932Y-97934699D01*
X121935934Y-97934699D01*
X121730000Y-97914417D01*
X121524067Y-97934699D01*
X121326043Y-97994769D01*
X121215898Y-98053643D01*
X121143550Y-98092315D01*
X121143548Y-98092316D01*
X121143547Y-98092317D01*
X120983589Y-98223589D01*
X120852317Y-98383547D01*
X120754769Y-98566043D01*
X120694699Y-98764067D01*
X120674417Y-98970000D01*
X120245583Y-98970000D01*
X120225300Y-98764066D01*
X120165232Y-98566046D01*
X120067685Y-98383550D01*
X120015702Y-98320209D01*
X119936410Y-98223589D01*
X119776452Y-98092317D01*
X119776453Y-98092317D01*
X119776450Y-98092315D01*
X119593954Y-97994768D01*
X119395934Y-97934700D01*
X119395932Y-97934699D01*
X119395934Y-97934699D01*
X119190000Y-97914417D01*
X118984067Y-97934699D01*
X118786043Y-97994769D01*
X118675898Y-98053643D01*
X118603550Y-98092315D01*
X118603548Y-98092316D01*
X118603547Y-98092317D01*
X118443589Y-98223589D01*
X118312317Y-98383547D01*
X118214769Y-98566043D01*
X118154699Y-98764067D01*
X118134417Y-98970000D01*
X114810500Y-98970000D01*
X114810500Y-96430000D01*
X118134417Y-96430000D01*
X118154699Y-96635932D01*
X118154700Y-96635934D01*
X118214768Y-96833954D01*
X118312315Y-97016450D01*
X118312317Y-97016452D01*
X118443589Y-97176410D01*
X118540209Y-97255702D01*
X118603550Y-97307685D01*
X118786046Y-97405232D01*
X118984066Y-97465300D01*
X118984065Y-97465300D01*
X119002529Y-97467118D01*
X119190000Y-97485583D01*
X119395934Y-97465300D01*
X119593954Y-97405232D01*
X119776450Y-97307685D01*
X119936410Y-97176410D01*
X120067685Y-97016450D01*
X120165232Y-96833954D01*
X120225300Y-96635934D01*
X120245583Y-96430000D01*
X120674417Y-96430000D01*
X120694699Y-96635932D01*
X120694700Y-96635934D01*
X120754768Y-96833954D01*
X120852315Y-97016450D01*
X120852317Y-97016452D01*
X120983589Y-97176410D01*
X121080209Y-97255702D01*
X121143550Y-97307685D01*
X121326046Y-97405232D01*
X121524066Y-97465300D01*
X121524065Y-97465300D01*
X121542529Y-97467118D01*
X121730000Y-97485583D01*
X121935934Y-97465300D01*
X122133954Y-97405232D01*
X122316450Y-97307685D01*
X122476410Y-97176410D01*
X122607685Y-97016450D01*
X122705232Y-96833954D01*
X122765300Y-96635934D01*
X122785583Y-96430000D01*
X122765300Y-96224066D01*
X122705232Y-96026046D01*
X122607685Y-95843550D01*
X122555702Y-95780209D01*
X122476410Y-95683589D01*
X122316452Y-95552317D01*
X122316453Y-95552317D01*
X122316450Y-95552315D01*
X122133954Y-95454768D01*
X121935934Y-95394700D01*
X121935932Y-95394699D01*
X121935934Y-95394699D01*
X121730000Y-95374417D01*
X121524067Y-95394699D01*
X121326043Y-95454769D01*
X121215898Y-95513643D01*
X121143550Y-95552315D01*
X121143548Y-95552316D01*
X121143547Y-95552317D01*
X120983589Y-95683589D01*
X120852317Y-95843547D01*
X120754769Y-96026043D01*
X120694699Y-96224067D01*
X120674417Y-96430000D01*
X120245583Y-96430000D01*
X120225300Y-96224066D01*
X120165232Y-96026046D01*
X120067685Y-95843550D01*
X120015702Y-95780209D01*
X119936410Y-95683589D01*
X119776452Y-95552317D01*
X119776453Y-95552317D01*
X119776450Y-95552315D01*
X119593954Y-95454768D01*
X119395934Y-95394700D01*
X119395932Y-95394699D01*
X119395934Y-95394699D01*
X119190000Y-95374417D01*
X118984067Y-95394699D01*
X118786043Y-95454769D01*
X118675898Y-95513643D01*
X118603550Y-95552315D01*
X118603548Y-95552316D01*
X118603547Y-95552317D01*
X118443589Y-95683589D01*
X118312317Y-95843547D01*
X118214769Y-96026043D01*
X118154699Y-96224067D01*
X118134417Y-96430000D01*
X114810500Y-96430000D01*
X114810500Y-93020247D01*
X118139500Y-93020247D01*
X118139500Y-94759752D01*
X118151131Y-94818229D01*
X118151132Y-94818230D01*
X118195447Y-94884552D01*
X118261769Y-94928867D01*
X118261770Y-94928868D01*
X118320247Y-94940499D01*
X118320250Y-94940500D01*
X118320252Y-94940500D01*
X120059750Y-94940500D01*
X120059751Y-94940499D01*
X120074568Y-94937552D01*
X120118229Y-94928868D01*
X120118229Y-94928867D01*
X120118231Y-94928867D01*
X120184552Y-94884552D01*
X120228867Y-94818231D01*
X120228867Y-94818229D01*
X120228868Y-94818229D01*
X120240499Y-94759752D01*
X120240500Y-94759750D01*
X120240500Y-93890000D01*
X120674417Y-93890000D01*
X120694699Y-94095932D01*
X120694700Y-94095934D01*
X120754768Y-94293954D01*
X120852315Y-94476450D01*
X120852317Y-94476452D01*
X120983589Y-94636410D01*
X121080209Y-94715702D01*
X121143550Y-94767685D01*
X121326046Y-94865232D01*
X121524066Y-94925300D01*
X121524065Y-94925300D01*
X121542529Y-94927118D01*
X121730000Y-94945583D01*
X121935934Y-94925300D01*
X122133954Y-94865232D01*
X122316450Y-94767685D01*
X122476410Y-94636410D01*
X122607685Y-94476450D01*
X122705232Y-94293954D01*
X122765300Y-94095934D01*
X122785583Y-93890000D01*
X122765300Y-93684066D01*
X122705232Y-93486046D01*
X122607685Y-93303550D01*
X122555702Y-93240209D01*
X122476410Y-93143589D01*
X122326121Y-93020252D01*
X122316450Y-93012315D01*
X122133954Y-92914768D01*
X121935934Y-92854700D01*
X121935932Y-92854699D01*
X121935934Y-92854699D01*
X121730000Y-92834417D01*
X121524067Y-92854699D01*
X121326043Y-92914769D01*
X121238114Y-92961769D01*
X121143550Y-93012315D01*
X121143548Y-93012316D01*
X121143547Y-93012317D01*
X120983589Y-93143589D01*
X120852317Y-93303547D01*
X120754769Y-93486043D01*
X120694699Y-93684067D01*
X120674417Y-93890000D01*
X120240500Y-93890000D01*
X120240500Y-93020249D01*
X120240499Y-93020247D01*
X120228868Y-92961770D01*
X120228867Y-92961769D01*
X120184552Y-92895447D01*
X120118230Y-92851132D01*
X120118229Y-92851131D01*
X120059752Y-92839500D01*
X120059748Y-92839500D01*
X118320252Y-92839500D01*
X118320247Y-92839500D01*
X118261770Y-92851131D01*
X118261769Y-92851132D01*
X118195447Y-92895447D01*
X118151132Y-92961769D01*
X118151131Y-92961770D01*
X118139500Y-93020247D01*
X114810500Y-93020247D01*
X114810500Y-83814500D01*
X114830185Y-83747461D01*
X114882989Y-83701706D01*
X114934500Y-83690500D01*
X115901000Y-83690500D01*
X115968039Y-83710185D01*
G37*
G04 #@! TD.AperFunction*
M02*
