G04 #@! TF.GenerationSoftware,KiCad,Pcbnew,8.0.8*
G04 #@! TF.CreationDate,2025-02-19T13:23:11-05:00*
G04 #@! TF.ProjectId,plot_gerbers,706c6f74-5f67-4657-9262-6572732e6b69,rev?*
G04 #@! TF.SameCoordinates,Original*
G04 #@! TF.FileFunction,Legend,Top*
G04 #@! TF.FilePolarity,Positive*
%FSLAX46Y46*%
G04 Gerber Fmt 4.6, Leading zero omitted, Abs format (unit mm)*
G04 Created by KiCad (PCBNEW 8.0.8) date 2025-02-19 13:23:11*
%MOMM*%
%LPD*%
G01*
G04 APERTURE LIST*
%ADD10C,0.200000*%
%ADD11C,0.150000*%
%ADD12C,0.100000*%
%ADD13C,0.000000*%
%ADD14C,0.120000*%
%ADD15R,1.700000X1.700000*%
%ADD16O,1.700000X1.700000*%
G04 APERTURE END LIST*
D10*
X118400476Y-117494950D02*
X119067142Y-119494950D01*
X119067142Y-119494950D02*
X119733809Y-117494950D01*
X121924286Y-119494950D02*
X121924286Y-118161616D01*
X121924286Y-117494950D02*
X121829048Y-117590188D01*
X121829048Y-117590188D02*
X121924286Y-117685426D01*
X121924286Y-117685426D02*
X122019524Y-117590188D01*
X122019524Y-117590188D02*
X121924286Y-117494950D01*
X121924286Y-117494950D02*
X121924286Y-117685426D01*
X122876667Y-118161616D02*
X122876667Y-119494950D01*
X122876667Y-118352092D02*
X122971905Y-118256854D01*
X122971905Y-118256854D02*
X123162381Y-118161616D01*
X123162381Y-118161616D02*
X123448096Y-118161616D01*
X123448096Y-118161616D02*
X123638572Y-118256854D01*
X123638572Y-118256854D02*
X123733810Y-118447331D01*
X123733810Y-118447331D02*
X123733810Y-119494950D01*
X116638571Y-121952933D02*
X118162381Y-121952933D01*
X117400476Y-122714838D02*
X117400476Y-121191028D01*
X122067142Y-120619600D02*
X120352857Y-123191028D01*
X124257619Y-121952933D02*
X125781429Y-121952933D01*
X164926190Y-119184950D02*
X164926190Y-117184950D01*
X166069047Y-119184950D02*
X165211904Y-118042092D01*
X166069047Y-117184950D02*
X164926190Y-118327807D01*
X161830952Y-122404838D02*
X161830952Y-120404838D01*
X165735714Y-120309600D02*
X164021429Y-122881028D01*
X168307143Y-120404838D02*
X168688096Y-120404838D01*
X168688096Y-120404838D02*
X168878572Y-120500076D01*
X168878572Y-120500076D02*
X169069048Y-120690552D01*
X169069048Y-120690552D02*
X169164286Y-121071504D01*
X169164286Y-121071504D02*
X169164286Y-121738171D01*
X169164286Y-121738171D02*
X169069048Y-122119123D01*
X169069048Y-122119123D02*
X168878572Y-122309600D01*
X168878572Y-122309600D02*
X168688096Y-122404838D01*
X168688096Y-122404838D02*
X168307143Y-122404838D01*
X168307143Y-122404838D02*
X168116667Y-122309600D01*
X168116667Y-122309600D02*
X167926191Y-122119123D01*
X167926191Y-122119123D02*
X167830953Y-121738171D01*
X167830953Y-121738171D02*
X167830953Y-121071504D01*
X167830953Y-121071504D02*
X167926191Y-120690552D01*
X167926191Y-120690552D02*
X168116667Y-120500076D01*
X168116667Y-120500076D02*
X168307143Y-120404838D01*
X139177142Y-119094950D02*
X139177142Y-117094950D01*
X141653333Y-119094950D02*
X141653333Y-117761616D01*
X141653333Y-117094950D02*
X141558095Y-117190188D01*
X141558095Y-117190188D02*
X141653333Y-117285426D01*
X141653333Y-117285426D02*
X141748571Y-117190188D01*
X141748571Y-117190188D02*
X141653333Y-117094950D01*
X141653333Y-117094950D02*
X141653333Y-117285426D01*
X142605714Y-117761616D02*
X142605714Y-119094950D01*
X142605714Y-117952092D02*
X142700952Y-117856854D01*
X142700952Y-117856854D02*
X142891428Y-117761616D01*
X142891428Y-117761616D02*
X143177143Y-117761616D01*
X143177143Y-117761616D02*
X143367619Y-117856854D01*
X143367619Y-117856854D02*
X143462857Y-118047331D01*
X143462857Y-118047331D02*
X143462857Y-119094950D01*
X136748571Y-121552933D02*
X138272381Y-121552933D01*
X137510476Y-122314838D02*
X137510476Y-120791028D01*
X142177142Y-120219600D02*
X140462857Y-122791028D01*
X144367619Y-121552933D02*
X145891429Y-121552933D01*
D11*
X169653220Y-86913264D02*
X169653220Y-87913264D01*
X169653220Y-86960883D02*
X169748458Y-86913264D01*
X169748458Y-86913264D02*
X169938934Y-86913264D01*
X169938934Y-86913264D02*
X170034172Y-86960883D01*
X170034172Y-86960883D02*
X170081791Y-87008502D01*
X170081791Y-87008502D02*
X170129410Y-87103740D01*
X170129410Y-87103740D02*
X170129410Y-87389454D01*
X170129410Y-87389454D02*
X170081791Y-87484692D01*
X170081791Y-87484692D02*
X170034172Y-87532312D01*
X170034172Y-87532312D02*
X169938934Y-87579931D01*
X169938934Y-87579931D02*
X169748458Y-87579931D01*
X169748458Y-87579931D02*
X169653220Y-87532312D01*
X170986553Y-87532312D02*
X170891315Y-87579931D01*
X170891315Y-87579931D02*
X170700839Y-87579931D01*
X170700839Y-87579931D02*
X170605601Y-87532312D01*
X170605601Y-87532312D02*
X170557982Y-87484692D01*
X170557982Y-87484692D02*
X170510363Y-87389454D01*
X170510363Y-87389454D02*
X170510363Y-87103740D01*
X170510363Y-87103740D02*
X170557982Y-87008502D01*
X170557982Y-87008502D02*
X170605601Y-86960883D01*
X170605601Y-86960883D02*
X170700839Y-86913264D01*
X170700839Y-86913264D02*
X170891315Y-86913264D01*
X170891315Y-86913264D02*
X170986553Y-86960883D01*
X171415125Y-87579931D02*
X171415125Y-86579931D01*
X171415125Y-86960883D02*
X171510363Y-86913264D01*
X171510363Y-86913264D02*
X171700839Y-86913264D01*
X171700839Y-86913264D02*
X171796077Y-86960883D01*
X171796077Y-86960883D02*
X171843696Y-87008502D01*
X171843696Y-87008502D02*
X171891315Y-87103740D01*
X171891315Y-87103740D02*
X171891315Y-87389454D01*
X171891315Y-87389454D02*
X171843696Y-87484692D01*
X171843696Y-87484692D02*
X171796077Y-87532312D01*
X171796077Y-87532312D02*
X171700839Y-87579931D01*
X171700839Y-87579931D02*
X171510363Y-87579931D01*
X171510363Y-87579931D02*
X171415125Y-87532312D01*
X172367506Y-87579931D02*
X172557982Y-87579931D01*
X172557982Y-87579931D02*
X172653220Y-87532312D01*
X172653220Y-87532312D02*
X172700839Y-87484692D01*
X172700839Y-87484692D02*
X172796077Y-87341835D01*
X172796077Y-87341835D02*
X172843696Y-87151359D01*
X172843696Y-87151359D02*
X172843696Y-86770407D01*
X172843696Y-86770407D02*
X172796077Y-86675169D01*
X172796077Y-86675169D02*
X172748458Y-86627550D01*
X172748458Y-86627550D02*
X172653220Y-86579931D01*
X172653220Y-86579931D02*
X172462744Y-86579931D01*
X172462744Y-86579931D02*
X172367506Y-86627550D01*
X172367506Y-86627550D02*
X172319887Y-86675169D01*
X172319887Y-86675169D02*
X172272268Y-86770407D01*
X172272268Y-86770407D02*
X172272268Y-87008502D01*
X172272268Y-87008502D02*
X172319887Y-87103740D01*
X172319887Y-87103740D02*
X172367506Y-87151359D01*
X172367506Y-87151359D02*
X172462744Y-87198978D01*
X172462744Y-87198978D02*
X172653220Y-87198978D01*
X172653220Y-87198978D02*
X172748458Y-87151359D01*
X172748458Y-87151359D02*
X172796077Y-87103740D01*
X172796077Y-87103740D02*
X172843696Y-87008502D01*
X174367506Y-87056121D02*
X174510363Y-87103740D01*
X174510363Y-87103740D02*
X174557982Y-87151359D01*
X174557982Y-87151359D02*
X174605601Y-87246597D01*
X174605601Y-87246597D02*
X174605601Y-87389454D01*
X174605601Y-87389454D02*
X174557982Y-87484692D01*
X174557982Y-87484692D02*
X174510363Y-87532312D01*
X174510363Y-87532312D02*
X174415125Y-87579931D01*
X174415125Y-87579931D02*
X174034173Y-87579931D01*
X174034173Y-87579931D02*
X174034173Y-86579931D01*
X174034173Y-86579931D02*
X174367506Y-86579931D01*
X174367506Y-86579931D02*
X174462744Y-86627550D01*
X174462744Y-86627550D02*
X174510363Y-86675169D01*
X174510363Y-86675169D02*
X174557982Y-86770407D01*
X174557982Y-86770407D02*
X174557982Y-86865645D01*
X174557982Y-86865645D02*
X174510363Y-86960883D01*
X174510363Y-86960883D02*
X174462744Y-87008502D01*
X174462744Y-87008502D02*
X174367506Y-87056121D01*
X174367506Y-87056121D02*
X174034173Y-87056121D01*
X175605601Y-87484692D02*
X175557982Y-87532312D01*
X175557982Y-87532312D02*
X175415125Y-87579931D01*
X175415125Y-87579931D02*
X175319887Y-87579931D01*
X175319887Y-87579931D02*
X175177030Y-87532312D01*
X175177030Y-87532312D02*
X175081792Y-87437073D01*
X175081792Y-87437073D02*
X175034173Y-87341835D01*
X175034173Y-87341835D02*
X174986554Y-87151359D01*
X174986554Y-87151359D02*
X174986554Y-87008502D01*
X174986554Y-87008502D02*
X175034173Y-86818026D01*
X175034173Y-86818026D02*
X175081792Y-86722788D01*
X175081792Y-86722788D02*
X175177030Y-86627550D01*
X175177030Y-86627550D02*
X175319887Y-86579931D01*
X175319887Y-86579931D02*
X175415125Y-86579931D01*
X175415125Y-86579931D02*
X175557982Y-86627550D01*
X175557982Y-86627550D02*
X175605601Y-86675169D01*
X176700840Y-86579931D02*
X177367506Y-86579931D01*
X177367506Y-86579931D02*
X176938935Y-87579931D01*
X178272268Y-87579931D02*
X177700840Y-87579931D01*
X177986554Y-87579931D02*
X177986554Y-86579931D01*
X177986554Y-86579931D02*
X177891316Y-86722788D01*
X177891316Y-86722788D02*
X177796078Y-86818026D01*
X177796078Y-86818026D02*
X177700840Y-86865645D01*
X178748459Y-87532312D02*
X178748459Y-87579931D01*
X178748459Y-87579931D02*
X178700840Y-87675169D01*
X178700840Y-87675169D02*
X178653221Y-87722788D01*
X179605601Y-86579931D02*
X179415125Y-86579931D01*
X179415125Y-86579931D02*
X179319887Y-86627550D01*
X179319887Y-86627550D02*
X179272268Y-86675169D01*
X179272268Y-86675169D02*
X179177030Y-86818026D01*
X179177030Y-86818026D02*
X179129411Y-87008502D01*
X179129411Y-87008502D02*
X179129411Y-87389454D01*
X179129411Y-87389454D02*
X179177030Y-87484692D01*
X179177030Y-87484692D02*
X179224649Y-87532312D01*
X179224649Y-87532312D02*
X179319887Y-87579931D01*
X179319887Y-87579931D02*
X179510363Y-87579931D01*
X179510363Y-87579931D02*
X179605601Y-87532312D01*
X179605601Y-87532312D02*
X179653220Y-87484692D01*
X179653220Y-87484692D02*
X179700839Y-87389454D01*
X179700839Y-87389454D02*
X179700839Y-87151359D01*
X179700839Y-87151359D02*
X179653220Y-87056121D01*
X179653220Y-87056121D02*
X179605601Y-87008502D01*
X179605601Y-87008502D02*
X179510363Y-86960883D01*
X179510363Y-86960883D02*
X179319887Y-86960883D01*
X179319887Y-86960883D02*
X179224649Y-87008502D01*
X179224649Y-87008502D02*
X179177030Y-87056121D01*
X179177030Y-87056121D02*
X179129411Y-87151359D01*
X167700838Y-88189875D02*
X168319885Y-88189875D01*
X168319885Y-88189875D02*
X167986552Y-88570827D01*
X167986552Y-88570827D02*
X168129409Y-88570827D01*
X168129409Y-88570827D02*
X168224647Y-88618446D01*
X168224647Y-88618446D02*
X168272266Y-88666065D01*
X168272266Y-88666065D02*
X168319885Y-88761303D01*
X168319885Y-88761303D02*
X168319885Y-88999398D01*
X168319885Y-88999398D02*
X168272266Y-89094636D01*
X168272266Y-89094636D02*
X168224647Y-89142256D01*
X168224647Y-89142256D02*
X168129409Y-89189875D01*
X168129409Y-89189875D02*
X167843695Y-89189875D01*
X167843695Y-89189875D02*
X167748457Y-89142256D01*
X167748457Y-89142256D02*
X167700838Y-89094636D01*
X168938933Y-88189875D02*
X169034171Y-88189875D01*
X169034171Y-88189875D02*
X169129409Y-88237494D01*
X169129409Y-88237494D02*
X169177028Y-88285113D01*
X169177028Y-88285113D02*
X169224647Y-88380351D01*
X169224647Y-88380351D02*
X169272266Y-88570827D01*
X169272266Y-88570827D02*
X169272266Y-88808922D01*
X169272266Y-88808922D02*
X169224647Y-88999398D01*
X169224647Y-88999398D02*
X169177028Y-89094636D01*
X169177028Y-89094636D02*
X169129409Y-89142256D01*
X169129409Y-89142256D02*
X169034171Y-89189875D01*
X169034171Y-89189875D02*
X168938933Y-89189875D01*
X168938933Y-89189875D02*
X168843695Y-89142256D01*
X168843695Y-89142256D02*
X168796076Y-89094636D01*
X168796076Y-89094636D02*
X168748457Y-88999398D01*
X168748457Y-88999398D02*
X168700838Y-88808922D01*
X168700838Y-88808922D02*
X168700838Y-88570827D01*
X168700838Y-88570827D02*
X168748457Y-88380351D01*
X168748457Y-88380351D02*
X168796076Y-88285113D01*
X168796076Y-88285113D02*
X168843695Y-88237494D01*
X168843695Y-88237494D02*
X168938933Y-88189875D01*
X169748457Y-89142256D02*
X169748457Y-89189875D01*
X169748457Y-89189875D02*
X169700838Y-89285113D01*
X169700838Y-89285113D02*
X169653219Y-89332732D01*
X170605599Y-88523208D02*
X170605599Y-89189875D01*
X170367504Y-88142256D02*
X170129409Y-88856541D01*
X170129409Y-88856541D02*
X170748456Y-88856541D01*
X171605599Y-88189875D02*
X171129409Y-88189875D01*
X171129409Y-88189875D02*
X171081790Y-88666065D01*
X171081790Y-88666065D02*
X171129409Y-88618446D01*
X171129409Y-88618446D02*
X171224647Y-88570827D01*
X171224647Y-88570827D02*
X171462742Y-88570827D01*
X171462742Y-88570827D02*
X171557980Y-88618446D01*
X171557980Y-88618446D02*
X171605599Y-88666065D01*
X171605599Y-88666065D02*
X171653218Y-88761303D01*
X171653218Y-88761303D02*
X171653218Y-88999398D01*
X171653218Y-88999398D02*
X171605599Y-89094636D01*
X171605599Y-89094636D02*
X171557980Y-89142256D01*
X171557980Y-89142256D02*
X171462742Y-89189875D01*
X171462742Y-89189875D02*
X171224647Y-89189875D01*
X171224647Y-89189875D02*
X171129409Y-89142256D01*
X171129409Y-89142256D02*
X171081790Y-89094636D01*
X173272266Y-89142256D02*
X173177028Y-89189875D01*
X173177028Y-89189875D02*
X172986552Y-89189875D01*
X172986552Y-89189875D02*
X172891314Y-89142256D01*
X172891314Y-89142256D02*
X172843695Y-89094636D01*
X172843695Y-89094636D02*
X172796076Y-88999398D01*
X172796076Y-88999398D02*
X172796076Y-88713684D01*
X172796076Y-88713684D02*
X172843695Y-88618446D01*
X172843695Y-88618446D02*
X172891314Y-88570827D01*
X172891314Y-88570827D02*
X172986552Y-88523208D01*
X172986552Y-88523208D02*
X173177028Y-88523208D01*
X173177028Y-88523208D02*
X173272266Y-88570827D01*
X173843695Y-89189875D02*
X173748457Y-89142256D01*
X173748457Y-89142256D02*
X173700838Y-89047017D01*
X173700838Y-89047017D02*
X173700838Y-88189875D01*
X174605600Y-89142256D02*
X174510362Y-89189875D01*
X174510362Y-89189875D02*
X174319886Y-89189875D01*
X174319886Y-89189875D02*
X174224648Y-89142256D01*
X174224648Y-89142256D02*
X174177029Y-89047017D01*
X174177029Y-89047017D02*
X174177029Y-88666065D01*
X174177029Y-88666065D02*
X174224648Y-88570827D01*
X174224648Y-88570827D02*
X174319886Y-88523208D01*
X174319886Y-88523208D02*
X174510362Y-88523208D01*
X174510362Y-88523208D02*
X174605600Y-88570827D01*
X174605600Y-88570827D02*
X174653219Y-88666065D01*
X174653219Y-88666065D02*
X174653219Y-88761303D01*
X174653219Y-88761303D02*
X174177029Y-88856541D01*
X175510362Y-89189875D02*
X175510362Y-88666065D01*
X175510362Y-88666065D02*
X175462743Y-88570827D01*
X175462743Y-88570827D02*
X175367505Y-88523208D01*
X175367505Y-88523208D02*
X175177029Y-88523208D01*
X175177029Y-88523208D02*
X175081791Y-88570827D01*
X175510362Y-89142256D02*
X175415124Y-89189875D01*
X175415124Y-89189875D02*
X175177029Y-89189875D01*
X175177029Y-89189875D02*
X175081791Y-89142256D01*
X175081791Y-89142256D02*
X175034172Y-89047017D01*
X175034172Y-89047017D02*
X175034172Y-88951779D01*
X175034172Y-88951779D02*
X175081791Y-88856541D01*
X175081791Y-88856541D02*
X175177029Y-88808922D01*
X175177029Y-88808922D02*
X175415124Y-88808922D01*
X175415124Y-88808922D02*
X175510362Y-88761303D01*
X175986553Y-89189875D02*
X175986553Y-88523208D01*
X175986553Y-88713684D02*
X176034172Y-88618446D01*
X176034172Y-88618446D02*
X176081791Y-88570827D01*
X176081791Y-88570827D02*
X176177029Y-88523208D01*
X176177029Y-88523208D02*
X176272267Y-88523208D01*
X177034172Y-89189875D02*
X177034172Y-88666065D01*
X177034172Y-88666065D02*
X176986553Y-88570827D01*
X176986553Y-88570827D02*
X176891315Y-88523208D01*
X176891315Y-88523208D02*
X176700839Y-88523208D01*
X176700839Y-88523208D02*
X176605601Y-88570827D01*
X177034172Y-89142256D02*
X176938934Y-89189875D01*
X176938934Y-89189875D02*
X176700839Y-89189875D01*
X176700839Y-89189875D02*
X176605601Y-89142256D01*
X176605601Y-89142256D02*
X176557982Y-89047017D01*
X176557982Y-89047017D02*
X176557982Y-88951779D01*
X176557982Y-88951779D02*
X176605601Y-88856541D01*
X176605601Y-88856541D02*
X176700839Y-88808922D01*
X176700839Y-88808922D02*
X176938934Y-88808922D01*
X176938934Y-88808922D02*
X177034172Y-88761303D01*
X177510363Y-88523208D02*
X177510363Y-89189875D01*
X177510363Y-88618446D02*
X177557982Y-88570827D01*
X177557982Y-88570827D02*
X177653220Y-88523208D01*
X177653220Y-88523208D02*
X177796077Y-88523208D01*
X177796077Y-88523208D02*
X177891315Y-88570827D01*
X177891315Y-88570827D02*
X177938934Y-88666065D01*
X177938934Y-88666065D02*
X177938934Y-89189875D01*
X178843696Y-89142256D02*
X178748458Y-89189875D01*
X178748458Y-89189875D02*
X178557982Y-89189875D01*
X178557982Y-89189875D02*
X178462744Y-89142256D01*
X178462744Y-89142256D02*
X178415125Y-89094636D01*
X178415125Y-89094636D02*
X178367506Y-88999398D01*
X178367506Y-88999398D02*
X178367506Y-88713684D01*
X178367506Y-88713684D02*
X178415125Y-88618446D01*
X178415125Y-88618446D02*
X178462744Y-88570827D01*
X178462744Y-88570827D02*
X178557982Y-88523208D01*
X178557982Y-88523208D02*
X178748458Y-88523208D01*
X178748458Y-88523208D02*
X178843696Y-88570827D01*
X179653220Y-89142256D02*
X179557982Y-89189875D01*
X179557982Y-89189875D02*
X179367506Y-89189875D01*
X179367506Y-89189875D02*
X179272268Y-89142256D01*
X179272268Y-89142256D02*
X179224649Y-89047017D01*
X179224649Y-89047017D02*
X179224649Y-88666065D01*
X179224649Y-88666065D02*
X179272268Y-88570827D01*
X179272268Y-88570827D02*
X179367506Y-88523208D01*
X179367506Y-88523208D02*
X179557982Y-88523208D01*
X179557982Y-88523208D02*
X179653220Y-88570827D01*
X179653220Y-88570827D02*
X179700839Y-88666065D01*
X179700839Y-88666065D02*
X179700839Y-88761303D01*
X179700839Y-88761303D02*
X179224649Y-88856541D01*
X170986552Y-90799819D02*
X170986552Y-90133152D01*
X170986552Y-90323628D02*
X171034171Y-90228390D01*
X171034171Y-90228390D02*
X171081790Y-90180771D01*
X171081790Y-90180771D02*
X171177028Y-90133152D01*
X171177028Y-90133152D02*
X171272266Y-90133152D01*
X171986552Y-90752200D02*
X171891314Y-90799819D01*
X171891314Y-90799819D02*
X171700838Y-90799819D01*
X171700838Y-90799819D02*
X171605600Y-90752200D01*
X171605600Y-90752200D02*
X171557981Y-90656961D01*
X171557981Y-90656961D02*
X171557981Y-90276009D01*
X171557981Y-90276009D02*
X171605600Y-90180771D01*
X171605600Y-90180771D02*
X171700838Y-90133152D01*
X171700838Y-90133152D02*
X171891314Y-90133152D01*
X171891314Y-90133152D02*
X171986552Y-90180771D01*
X171986552Y-90180771D02*
X172034171Y-90276009D01*
X172034171Y-90276009D02*
X172034171Y-90371247D01*
X172034171Y-90371247D02*
X171557981Y-90466485D01*
X172367505Y-90133152D02*
X172605600Y-90799819D01*
X172605600Y-90799819D02*
X172843695Y-90133152D01*
X173415124Y-89799819D02*
X173510362Y-89799819D01*
X173510362Y-89799819D02*
X173605600Y-89847438D01*
X173605600Y-89847438D02*
X173653219Y-89895057D01*
X173653219Y-89895057D02*
X173700838Y-89990295D01*
X173700838Y-89990295D02*
X173748457Y-90180771D01*
X173748457Y-90180771D02*
X173748457Y-90418866D01*
X173748457Y-90418866D02*
X173700838Y-90609342D01*
X173700838Y-90609342D02*
X173653219Y-90704580D01*
X173653219Y-90704580D02*
X173605600Y-90752200D01*
X173605600Y-90752200D02*
X173510362Y-90799819D01*
X173510362Y-90799819D02*
X173415124Y-90799819D01*
X173415124Y-90799819D02*
X173319886Y-90752200D01*
X173319886Y-90752200D02*
X173272267Y-90704580D01*
X173272267Y-90704580D02*
X173224648Y-90609342D01*
X173224648Y-90609342D02*
X173177029Y-90418866D01*
X173177029Y-90418866D02*
X173177029Y-90180771D01*
X173177029Y-90180771D02*
X173224648Y-89990295D01*
X173224648Y-89990295D02*
X173272267Y-89895057D01*
X173272267Y-89895057D02*
X173319886Y-89847438D01*
X173319886Y-89847438D02*
X173415124Y-89799819D01*
X174700838Y-90799819D02*
X174129410Y-90799819D01*
X174415124Y-90799819D02*
X174415124Y-89799819D01*
X174415124Y-89799819D02*
X174319886Y-89942676D01*
X174319886Y-89942676D02*
X174224648Y-90037914D01*
X174224648Y-90037914D02*
X174129410Y-90085533D01*
X174891315Y-90895057D02*
X175653219Y-90895057D01*
X175748458Y-90133152D02*
X176129410Y-90133152D01*
X175891315Y-90799819D02*
X175891315Y-89942676D01*
X175891315Y-89942676D02*
X175938934Y-89847438D01*
X175938934Y-89847438D02*
X176034172Y-89799819D01*
X176034172Y-89799819D02*
X176129410Y-89799819D01*
X176843696Y-90752200D02*
X176748458Y-90799819D01*
X176748458Y-90799819D02*
X176557982Y-90799819D01*
X176557982Y-90799819D02*
X176462744Y-90752200D01*
X176462744Y-90752200D02*
X176415125Y-90656961D01*
X176415125Y-90656961D02*
X176415125Y-90276009D01*
X176415125Y-90276009D02*
X176462744Y-90180771D01*
X176462744Y-90180771D02*
X176557982Y-90133152D01*
X176557982Y-90133152D02*
X176748458Y-90133152D01*
X176748458Y-90133152D02*
X176843696Y-90180771D01*
X176843696Y-90180771D02*
X176891315Y-90276009D01*
X176891315Y-90276009D02*
X176891315Y-90371247D01*
X176891315Y-90371247D02*
X176415125Y-90466485D01*
X177319887Y-90799819D02*
X177319887Y-89799819D01*
X177319887Y-90180771D02*
X177415125Y-90133152D01*
X177415125Y-90133152D02*
X177605601Y-90133152D01*
X177605601Y-90133152D02*
X177700839Y-90180771D01*
X177700839Y-90180771D02*
X177748458Y-90228390D01*
X177748458Y-90228390D02*
X177796077Y-90323628D01*
X177796077Y-90323628D02*
X177796077Y-90609342D01*
X177796077Y-90609342D02*
X177748458Y-90704580D01*
X177748458Y-90704580D02*
X177700839Y-90752200D01*
X177700839Y-90752200D02*
X177605601Y-90799819D01*
X177605601Y-90799819D02*
X177415125Y-90799819D01*
X177415125Y-90799819D02*
X177319887Y-90752200D01*
X178177030Y-89895057D02*
X178224649Y-89847438D01*
X178224649Y-89847438D02*
X178319887Y-89799819D01*
X178319887Y-89799819D02*
X178557982Y-89799819D01*
X178557982Y-89799819D02*
X178653220Y-89847438D01*
X178653220Y-89847438D02*
X178700839Y-89895057D01*
X178700839Y-89895057D02*
X178748458Y-89990295D01*
X178748458Y-89990295D02*
X178748458Y-90085533D01*
X178748458Y-90085533D02*
X178700839Y-90228390D01*
X178700839Y-90228390D02*
X178129411Y-90799819D01*
X178129411Y-90799819D02*
X178748458Y-90799819D01*
X179653220Y-89799819D02*
X179177030Y-89799819D01*
X179177030Y-89799819D02*
X179129411Y-90276009D01*
X179129411Y-90276009D02*
X179177030Y-90228390D01*
X179177030Y-90228390D02*
X179272268Y-90180771D01*
X179272268Y-90180771D02*
X179510363Y-90180771D01*
X179510363Y-90180771D02*
X179605601Y-90228390D01*
X179605601Y-90228390D02*
X179653220Y-90276009D01*
X179653220Y-90276009D02*
X179700839Y-90371247D01*
X179700839Y-90371247D02*
X179700839Y-90609342D01*
X179700839Y-90609342D02*
X179653220Y-90704580D01*
X179653220Y-90704580D02*
X179605601Y-90752200D01*
X179605601Y-90752200D02*
X179510363Y-90799819D01*
X179510363Y-90799819D02*
X179272268Y-90799819D01*
X179272268Y-90799819D02*
X179177030Y-90752200D01*
X179177030Y-90752200D02*
X179129411Y-90704580D01*
D12*
X173144286Y-121694800D02*
X173287143Y-121742419D01*
X173287143Y-121742419D02*
X173525238Y-121742419D01*
X173525238Y-121742419D02*
X173620476Y-121694800D01*
X173620476Y-121694800D02*
X173668095Y-121647180D01*
X173668095Y-121647180D02*
X173715714Y-121551942D01*
X173715714Y-121551942D02*
X173715714Y-121456704D01*
X173715714Y-121456704D02*
X173668095Y-121361466D01*
X173668095Y-121361466D02*
X173620476Y-121313847D01*
X173620476Y-121313847D02*
X173525238Y-121266228D01*
X173525238Y-121266228D02*
X173334762Y-121218609D01*
X173334762Y-121218609D02*
X173239524Y-121170990D01*
X173239524Y-121170990D02*
X173191905Y-121123371D01*
X173191905Y-121123371D02*
X173144286Y-121028133D01*
X173144286Y-121028133D02*
X173144286Y-120932895D01*
X173144286Y-120932895D02*
X173191905Y-120837657D01*
X173191905Y-120837657D02*
X173239524Y-120790038D01*
X173239524Y-120790038D02*
X173334762Y-120742419D01*
X173334762Y-120742419D02*
X173572857Y-120742419D01*
X173572857Y-120742419D02*
X173715714Y-120790038D01*
X174001429Y-120742419D02*
X174572857Y-120742419D01*
X174287143Y-121742419D02*
X174287143Y-120742419D01*
X174906191Y-121361466D02*
X175668096Y-121361466D01*
X176620476Y-121742419D02*
X176144286Y-121742419D01*
X176144286Y-121742419D02*
X176144286Y-120742419D01*
X176953810Y-121742419D02*
X176953810Y-121075752D01*
X176953810Y-120742419D02*
X176906191Y-120790038D01*
X176906191Y-120790038D02*
X176953810Y-120837657D01*
X176953810Y-120837657D02*
X177001429Y-120790038D01*
X177001429Y-120790038D02*
X176953810Y-120742419D01*
X176953810Y-120742419D02*
X176953810Y-120837657D01*
X177430000Y-121075752D02*
X177430000Y-121742419D01*
X177430000Y-121170990D02*
X177477619Y-121123371D01*
X177477619Y-121123371D02*
X177572857Y-121075752D01*
X177572857Y-121075752D02*
X177715714Y-121075752D01*
X177715714Y-121075752D02*
X177810952Y-121123371D01*
X177810952Y-121123371D02*
X177858571Y-121218609D01*
X177858571Y-121218609D02*
X177858571Y-121742419D01*
X178334762Y-121742419D02*
X178334762Y-120742419D01*
X178430000Y-121361466D02*
X178715714Y-121742419D01*
X178715714Y-121075752D02*
X178334762Y-121456704D01*
X116703884Y-86432419D02*
X116703884Y-85432419D01*
X116703884Y-85432419D02*
X116941979Y-85432419D01*
X116941979Y-85432419D02*
X117084836Y-85480038D01*
X117084836Y-85480038D02*
X117180074Y-85575276D01*
X117180074Y-85575276D02*
X117227693Y-85670514D01*
X117227693Y-85670514D02*
X117275312Y-85860990D01*
X117275312Y-85860990D02*
X117275312Y-86003847D01*
X117275312Y-86003847D02*
X117227693Y-86194323D01*
X117227693Y-86194323D02*
X117180074Y-86289561D01*
X117180074Y-86289561D02*
X117084836Y-86384800D01*
X117084836Y-86384800D02*
X116941979Y-86432419D01*
X116941979Y-86432419D02*
X116703884Y-86432419D01*
X118227693Y-85480038D02*
X118132455Y-85432419D01*
X118132455Y-85432419D02*
X117989598Y-85432419D01*
X117989598Y-85432419D02*
X117846741Y-85480038D01*
X117846741Y-85480038D02*
X117751503Y-85575276D01*
X117751503Y-85575276D02*
X117703884Y-85670514D01*
X117703884Y-85670514D02*
X117656265Y-85860990D01*
X117656265Y-85860990D02*
X117656265Y-86003847D01*
X117656265Y-86003847D02*
X117703884Y-86194323D01*
X117703884Y-86194323D02*
X117751503Y-86289561D01*
X117751503Y-86289561D02*
X117846741Y-86384800D01*
X117846741Y-86384800D02*
X117989598Y-86432419D01*
X117989598Y-86432419D02*
X118084836Y-86432419D01*
X118084836Y-86432419D02*
X118227693Y-86384800D01*
X118227693Y-86384800D02*
X118275312Y-86337180D01*
X118275312Y-86337180D02*
X118275312Y-86003847D01*
X118275312Y-86003847D02*
X118084836Y-86003847D01*
X118703884Y-86432419D02*
X118703884Y-85432419D01*
X118703884Y-85432419D02*
X119275312Y-86432419D01*
X119275312Y-86432419D02*
X119275312Y-85432419D01*
X119751503Y-86432419D02*
X119751503Y-85432419D01*
X119751503Y-85432419D02*
X119989598Y-85432419D01*
X119989598Y-85432419D02*
X120132455Y-85480038D01*
X120132455Y-85480038D02*
X120227693Y-85575276D01*
X120227693Y-85575276D02*
X120275312Y-85670514D01*
X120275312Y-85670514D02*
X120322931Y-85860990D01*
X120322931Y-85860990D02*
X120322931Y-86003847D01*
X120322931Y-86003847D02*
X120275312Y-86194323D01*
X120275312Y-86194323D02*
X120227693Y-86289561D01*
X120227693Y-86289561D02*
X120132455Y-86384800D01*
X120132455Y-86384800D02*
X119989598Y-86432419D01*
X119989598Y-86432419D02*
X119751503Y-86432419D01*
X123703885Y-85432419D02*
X124322932Y-85432419D01*
X124322932Y-85432419D02*
X123989599Y-85813371D01*
X123989599Y-85813371D02*
X124132456Y-85813371D01*
X124132456Y-85813371D02*
X124227694Y-85860990D01*
X124227694Y-85860990D02*
X124275313Y-85908609D01*
X124275313Y-85908609D02*
X124322932Y-86003847D01*
X124322932Y-86003847D02*
X124322932Y-86241942D01*
X124322932Y-86241942D02*
X124275313Y-86337180D01*
X124275313Y-86337180D02*
X124227694Y-86384800D01*
X124227694Y-86384800D02*
X124132456Y-86432419D01*
X124132456Y-86432419D02*
X123846742Y-86432419D01*
X123846742Y-86432419D02*
X123751504Y-86384800D01*
X123751504Y-86384800D02*
X123703885Y-86337180D01*
X124656266Y-85765752D02*
X124894361Y-86432419D01*
X124894361Y-86432419D02*
X125132456Y-85765752D01*
X125418171Y-85432419D02*
X126037218Y-85432419D01*
X126037218Y-85432419D02*
X125703885Y-85813371D01*
X125703885Y-85813371D02*
X125846742Y-85813371D01*
X125846742Y-85813371D02*
X125941980Y-85860990D01*
X125941980Y-85860990D02*
X125989599Y-85908609D01*
X125989599Y-85908609D02*
X126037218Y-86003847D01*
X126037218Y-86003847D02*
X126037218Y-86241942D01*
X126037218Y-86241942D02*
X125989599Y-86337180D01*
X125989599Y-86337180D02*
X125941980Y-86384800D01*
X125941980Y-86384800D02*
X125846742Y-86432419D01*
X125846742Y-86432419D02*
X125561028Y-86432419D01*
X125561028Y-86432419D02*
X125465790Y-86384800D01*
X125465790Y-86384800D02*
X125418171Y-86337180D01*
X129465791Y-86146704D02*
X129941981Y-86146704D01*
X129370553Y-86432419D02*
X129703886Y-85432419D01*
X129703886Y-85432419D02*
X130037219Y-86432419D01*
X130561029Y-85432419D02*
X130656267Y-85432419D01*
X130656267Y-85432419D02*
X130751505Y-85480038D01*
X130751505Y-85480038D02*
X130799124Y-85527657D01*
X130799124Y-85527657D02*
X130846743Y-85622895D01*
X130846743Y-85622895D02*
X130894362Y-85813371D01*
X130894362Y-85813371D02*
X130894362Y-86051466D01*
X130894362Y-86051466D02*
X130846743Y-86241942D01*
X130846743Y-86241942D02*
X130799124Y-86337180D01*
X130799124Y-86337180D02*
X130751505Y-86384800D01*
X130751505Y-86384800D02*
X130656267Y-86432419D01*
X130656267Y-86432419D02*
X130561029Y-86432419D01*
X130561029Y-86432419D02*
X130465791Y-86384800D01*
X130465791Y-86384800D02*
X130418172Y-86337180D01*
X130418172Y-86337180D02*
X130370553Y-86241942D01*
X130370553Y-86241942D02*
X130322934Y-86051466D01*
X130322934Y-86051466D02*
X130322934Y-85813371D01*
X130322934Y-85813371D02*
X130370553Y-85622895D01*
X130370553Y-85622895D02*
X130418172Y-85527657D01*
X130418172Y-85527657D02*
X130465791Y-85480038D01*
X130465791Y-85480038D02*
X130561029Y-85432419D01*
X134322935Y-86146704D02*
X134799125Y-86146704D01*
X134227697Y-86432419D02*
X134561030Y-85432419D01*
X134561030Y-85432419D02*
X134894363Y-86432419D01*
X135751506Y-86432419D02*
X135180078Y-86432419D01*
X135465792Y-86432419D02*
X135465792Y-85432419D01*
X135465792Y-85432419D02*
X135370554Y-85575276D01*
X135370554Y-85575276D02*
X135275316Y-85670514D01*
X135275316Y-85670514D02*
X135180078Y-85718133D01*
X139180079Y-86146704D02*
X139656269Y-86146704D01*
X139084841Y-86432419D02*
X139418174Y-85432419D01*
X139418174Y-85432419D02*
X139751507Y-86432419D01*
X140037222Y-85527657D02*
X140084841Y-85480038D01*
X140084841Y-85480038D02*
X140180079Y-85432419D01*
X140180079Y-85432419D02*
X140418174Y-85432419D01*
X140418174Y-85432419D02*
X140513412Y-85480038D01*
X140513412Y-85480038D02*
X140561031Y-85527657D01*
X140561031Y-85527657D02*
X140608650Y-85622895D01*
X140608650Y-85622895D02*
X140608650Y-85718133D01*
X140608650Y-85718133D02*
X140561031Y-85860990D01*
X140561031Y-85860990D02*
X139989603Y-86432419D01*
X139989603Y-86432419D02*
X140608650Y-86432419D01*
X144084842Y-86432419D02*
X144084842Y-85432419D01*
X144084842Y-85432419D02*
X144322937Y-85432419D01*
X144322937Y-85432419D02*
X144465794Y-85480038D01*
X144465794Y-85480038D02*
X144561032Y-85575276D01*
X144561032Y-85575276D02*
X144608651Y-85670514D01*
X144608651Y-85670514D02*
X144656270Y-85860990D01*
X144656270Y-85860990D02*
X144656270Y-86003847D01*
X144656270Y-86003847D02*
X144608651Y-86194323D01*
X144608651Y-86194323D02*
X144561032Y-86289561D01*
X144561032Y-86289561D02*
X144465794Y-86384800D01*
X144465794Y-86384800D02*
X144322937Y-86432419D01*
X144322937Y-86432419D02*
X144084842Y-86432419D01*
X145275318Y-85432419D02*
X145370556Y-85432419D01*
X145370556Y-85432419D02*
X145465794Y-85480038D01*
X145465794Y-85480038D02*
X145513413Y-85527657D01*
X145513413Y-85527657D02*
X145561032Y-85622895D01*
X145561032Y-85622895D02*
X145608651Y-85813371D01*
X145608651Y-85813371D02*
X145608651Y-86051466D01*
X145608651Y-86051466D02*
X145561032Y-86241942D01*
X145561032Y-86241942D02*
X145513413Y-86337180D01*
X145513413Y-86337180D02*
X145465794Y-86384800D01*
X145465794Y-86384800D02*
X145370556Y-86432419D01*
X145370556Y-86432419D02*
X145275318Y-86432419D01*
X145275318Y-86432419D02*
X145180080Y-86384800D01*
X145180080Y-86384800D02*
X145132461Y-86337180D01*
X145132461Y-86337180D02*
X145084842Y-86241942D01*
X145084842Y-86241942D02*
X145037223Y-86051466D01*
X145037223Y-86051466D02*
X145037223Y-85813371D01*
X145037223Y-85813371D02*
X145084842Y-85622895D01*
X145084842Y-85622895D02*
X145132461Y-85527657D01*
X145132461Y-85527657D02*
X145180080Y-85480038D01*
X145180080Y-85480038D02*
X145275318Y-85432419D01*
D13*
G36*
X155540785Y-106636877D02*
G01*
X155669565Y-106949187D01*
X155697513Y-107088857D01*
X155766851Y-107475727D01*
X155871854Y-108049304D01*
X155994425Y-108711030D01*
X156049916Y-109008225D01*
X156154161Y-109620829D01*
X156222372Y-110135071D01*
X156245868Y-110478253D01*
X156236297Y-110568511D01*
X156082608Y-110742476D01*
X155884623Y-110645369D01*
X155758135Y-110458342D01*
X155664304Y-110193488D01*
X155539952Y-109720212D01*
X155404381Y-109116067D01*
X155323699Y-108712636D01*
X155200072Y-108090652D01*
X155088032Y-107574937D01*
X155002727Y-107232746D01*
X154968199Y-107134249D01*
X154943829Y-106867517D01*
X155108377Y-106628102D01*
X155334380Y-106544571D01*
X155540785Y-106636877D01*
G37*
G36*
X147491512Y-106963706D02*
G01*
X147575897Y-107153880D01*
X147595614Y-107509962D01*
X147550551Y-108063963D01*
X147440593Y-108847894D01*
X147333413Y-109500932D01*
X147165452Y-110437106D01*
X147019572Y-111105865D01*
X146883369Y-111528025D01*
X146744439Y-111724402D01*
X146590377Y-111715811D01*
X146408778Y-111523067D01*
X146263021Y-111297082D01*
X145828648Y-110560329D01*
X145412870Y-109837674D01*
X145040957Y-109174913D01*
X144738184Y-108617839D01*
X144529820Y-108212247D01*
X144441140Y-108003932D01*
X144439714Y-107993169D01*
X144556467Y-107865005D01*
X144645772Y-107850857D01*
X144805905Y-107966942D01*
X145071081Y-108279575D01*
X145398783Y-108735323D01*
X145621241Y-109076720D01*
X145951278Y-109584314D01*
X146226702Y-109973956D01*
X146411719Y-110196925D01*
X146467470Y-110228635D01*
X146522167Y-110064273D01*
X146612458Y-109674107D01*
X146725286Y-109118510D01*
X146834571Y-108531057D01*
X146979267Y-107780295D01*
X147102724Y-107282956D01*
X147215915Y-107003972D01*
X147329813Y-106908272D01*
X147342571Y-106907428D01*
X147491512Y-106963706D01*
G37*
G36*
X162401692Y-107264605D02*
G01*
X162746699Y-107593232D01*
X163015508Y-107941661D01*
X163485585Y-108596232D01*
X164449221Y-108479554D01*
X165336106Y-108395950D01*
X166003418Y-108379550D01*
X166440457Y-108421230D01*
X166636526Y-108511866D01*
X166580928Y-108642333D01*
X166262963Y-108803507D01*
X165671933Y-108986263D01*
X165180042Y-109102861D01*
X164076369Y-109342617D01*
X164283010Y-109756839D01*
X164408824Y-110191910D01*
X164387264Y-110493654D01*
X164318898Y-110650759D01*
X164219614Y-110668495D01*
X164040593Y-110520387D01*
X163733016Y-110179960D01*
X163665403Y-110102177D01*
X163322575Y-109720627D01*
X163093640Y-109526061D01*
X162908802Y-109480686D01*
X162698266Y-109546708D01*
X162666193Y-109561127D01*
X162332552Y-109826943D01*
X162141933Y-110135073D01*
X161960240Y-110625523D01*
X161839389Y-110888223D01*
X161745390Y-110969781D01*
X161644252Y-110916804D01*
X161601661Y-110875889D01*
X161482358Y-110593555D01*
X161429468Y-110107461D01*
X161436337Y-109494786D01*
X161496311Y-108832710D01*
X161602735Y-108198411D01*
X161748955Y-107669069D01*
X161905572Y-107350937D01*
X162128365Y-107187592D01*
X162401692Y-107264605D01*
G37*
G36*
X142876481Y-107965503D02*
G01*
X143109345Y-108148729D01*
X143367515Y-108573338D01*
X143563219Y-109166601D01*
X143667837Y-109808864D01*
X143652750Y-110380475D01*
X143648645Y-110403438D01*
X143508059Y-110774246D01*
X143246042Y-111202603D01*
X142924231Y-111611103D01*
X142604258Y-111922343D01*
X142347759Y-112058920D01*
X142329564Y-112060000D01*
X142136026Y-111956956D01*
X141840405Y-111691978D01*
X141620739Y-111453303D01*
X141273006Y-110955751D01*
X141121583Y-110462976D01*
X141158588Y-109996337D01*
X141983278Y-109996337D01*
X141990833Y-110583086D01*
X142063767Y-111007714D01*
X142196458Y-111295332D01*
X142356426Y-111306729D01*
X142531847Y-111053328D01*
X142710898Y-110546547D01*
X142768408Y-110327113D01*
X142901378Y-109609791D01*
X142925225Y-109027082D01*
X142843630Y-108622112D01*
X142660279Y-108438008D01*
X142606490Y-108431428D01*
X142382352Y-108564457D01*
X142193877Y-108916580D01*
X142055906Y-109417354D01*
X141983278Y-109996337D01*
X141158588Y-109996337D01*
X141165374Y-109910761D01*
X141403282Y-109234887D01*
X141576570Y-108866857D01*
X141851320Y-108352032D01*
X142071640Y-108052134D01*
X142286280Y-107910760D01*
X142430572Y-107878798D01*
X142876481Y-107965503D01*
G37*
G36*
X135346500Y-108126591D02*
G01*
X135572464Y-108460427D01*
X135710343Y-108910601D01*
X135731143Y-109162211D01*
X135684447Y-109534599D01*
X135559741Y-110083184D01*
X135380099Y-110712044D01*
X135296481Y-110969159D01*
X135114700Y-111534443D01*
X134985986Y-111989044D01*
X134927610Y-112268832D01*
X134931436Y-112324674D01*
X135077587Y-112286347D01*
X135392960Y-112118629D01*
X135799293Y-111864288D01*
X136326112Y-111531937D01*
X136660810Y-111370210D01*
X136837973Y-111368423D01*
X136892182Y-111515896D01*
X136892286Y-111526699D01*
X136835641Y-111701120D01*
X136646389Y-111930598D01*
X136295554Y-112241101D01*
X135754162Y-112658595D01*
X135099032Y-113133733D01*
X134507236Y-113546040D01*
X134096375Y-113799601D01*
X133818066Y-113913651D01*
X133623924Y-113907425D01*
X133465562Y-113800159D01*
X133453223Y-113788023D01*
X133419380Y-113635373D01*
X133479394Y-113320569D01*
X133640477Y-112823228D01*
X133909839Y-112122963D01*
X134294690Y-111199390D01*
X134697625Y-110269967D01*
X134875008Y-109805828D01*
X134984436Y-109403794D01*
X135001800Y-109253967D01*
X134977070Y-109099184D01*
X134878770Y-109108854D01*
X134662775Y-109304653D01*
X134457514Y-109521370D01*
X134056739Y-109969532D01*
X133665903Y-110432669D01*
X133524530Y-110609942D01*
X133132203Y-111116571D01*
X133126749Y-110681143D01*
X133212892Y-110231260D01*
X133449343Y-109696962D01*
X133788639Y-109143467D01*
X134183315Y-108635996D01*
X134585906Y-108239768D01*
X134948947Y-108020003D01*
X135080906Y-107996000D01*
X135346500Y-108126591D01*
G37*
G36*
X139412302Y-107954358D02*
G01*
X139847473Y-108276664D01*
X139995968Y-108431846D01*
X140292762Y-108787524D01*
X140450109Y-109092223D01*
X140511534Y-109467683D01*
X140520857Y-109900041D01*
X140505920Y-110375512D01*
X140437035Y-110743226D01*
X140278097Y-111105617D01*
X139992997Y-111565116D01*
X139868681Y-111750195D01*
X139386400Y-112442903D01*
X138999003Y-112959436D01*
X138726110Y-113274861D01*
X138596944Y-113366285D01*
X138463170Y-113271716D01*
X138293638Y-113100857D01*
X138123715Y-112890499D01*
X138078944Y-112707347D01*
X138172896Y-112467549D01*
X138419140Y-112087253D01*
X138469589Y-112013579D01*
X138774227Y-111540199D01*
X139075249Y-111023924D01*
X139339346Y-110528811D01*
X139533211Y-110118912D01*
X139623533Y-109858283D01*
X139618900Y-109803376D01*
X139474452Y-109842538D01*
X139176628Y-110015929D01*
X138936849Y-110180727D01*
X138450681Y-110497527D01*
X138156030Y-110600990D01*
X138049944Y-110487483D01*
X138129473Y-110153373D01*
X138391664Y-109595027D01*
X138419006Y-109543266D01*
X138683052Y-109016402D01*
X138832454Y-108658768D01*
X138866811Y-108491562D01*
X138785723Y-108535985D01*
X138588789Y-108813234D01*
X138427802Y-109078015D01*
X138139847Y-109500764D01*
X137882552Y-109701155D01*
X137684453Y-109737714D01*
X137397203Y-109660916D01*
X137327714Y-109520000D01*
X137210707Y-109330105D01*
X137099358Y-109302285D01*
X136905778Y-109230740D01*
X136931032Y-109041847D01*
X137149126Y-108774223D01*
X137534064Y-108466485D01*
X137758647Y-108322897D01*
X138426157Y-107980312D01*
X138957953Y-107856520D01*
X139412302Y-107954358D01*
G37*
G36*
X158805192Y-106110758D02*
G01*
X158808857Y-106113191D01*
X158908117Y-106233160D01*
X158829727Y-106395776D01*
X158543631Y-106660260D01*
X158522062Y-106678282D01*
X158264923Y-106909089D01*
X158109680Y-107127662D01*
X158025184Y-107419243D01*
X157980286Y-107869077D01*
X157961279Y-108212987D01*
X157954153Y-108800131D01*
X157990988Y-109236969D01*
X158060340Y-109492383D01*
X158150765Y-109535256D01*
X158250821Y-109334470D01*
X158300421Y-109135202D01*
X158514902Y-108487197D01*
X158832520Y-108108638D01*
X159218603Y-107996000D01*
X159659401Y-108085719D01*
X159901954Y-108372112D01*
X159970000Y-108831613D01*
X159887919Y-109636836D01*
X159660707Y-110345713D01*
X159316913Y-110877213D01*
X159215409Y-110973454D01*
X158823032Y-111242098D01*
X158456771Y-111310247D01*
X158003066Y-111190227D01*
X157840571Y-111122702D01*
X157475743Y-110900320D01*
X157228701Y-110638939D01*
X157223714Y-110629925D01*
X157162739Y-110371132D01*
X157115952Y-109897812D01*
X157104545Y-109674591D01*
X158808857Y-109674591D01*
X158872766Y-109966347D01*
X159030681Y-109997901D01*
X159231891Y-109760690D01*
X159239179Y-109747256D01*
X159360123Y-109376032D01*
X159379464Y-108985971D01*
X159296656Y-108700774D01*
X159244014Y-108648975D01*
X159100171Y-108697477D01*
X158955577Y-108948288D01*
X158846552Y-109315807D01*
X158808857Y-109674591D01*
X157104545Y-109674591D01*
X157084658Y-109285440D01*
X157070165Y-108609490D01*
X157073780Y-107945434D01*
X157096809Y-107368747D01*
X157140561Y-106954902D01*
X157158624Y-106871143D01*
X157294713Y-106616745D01*
X157427355Y-106544571D01*
X157660821Y-106460836D01*
X157971642Y-106258958D01*
X157977605Y-106254285D01*
X158308875Y-106026939D01*
X158547205Y-105985468D01*
X158805192Y-106110758D01*
G37*
G36*
X156098339Y-89891975D02*
G01*
X156119400Y-90000825D01*
X155894401Y-90169132D01*
X155439644Y-90385968D01*
X154771432Y-90640405D01*
X154505615Y-90731172D01*
X153655778Y-91047414D01*
X153050297Y-91353380D01*
X152665878Y-91649951D01*
X152365312Y-91891012D01*
X151931680Y-92131050D01*
X151317476Y-92392407D01*
X150475197Y-92697428D01*
X150342071Y-92742950D01*
X149651574Y-92990735D01*
X149064417Y-93225893D01*
X148634035Y-93425197D01*
X148413863Y-93565419D01*
X148398135Y-93587964D01*
X148379786Y-93837704D01*
X148416542Y-94259948D01*
X148492417Y-94764740D01*
X148591428Y-95262123D01*
X148697589Y-95662142D01*
X148794916Y-95874839D01*
X148806146Y-95884078D01*
X148986354Y-95872034D01*
X149385120Y-95781159D01*
X149946165Y-95626063D01*
X150613212Y-95421358D01*
X150716192Y-95388166D01*
X151830803Y-95035429D01*
X152777097Y-94753803D01*
X153531428Y-94549511D01*
X154070146Y-94428780D01*
X154369603Y-94397835D01*
X154418739Y-94413501D01*
X154443842Y-94535527D01*
X154292778Y-94696338D01*
X153944988Y-94907025D01*
X153379910Y-95178682D01*
X152576985Y-95522404D01*
X151728113Y-95865243D01*
X150934300Y-96182765D01*
X150226108Y-96470738D01*
X149651145Y-96709428D01*
X149257021Y-96879102D01*
X149097771Y-96955539D01*
X149026086Y-97043797D01*
X148996466Y-97222132D01*
X149012583Y-97532232D01*
X149078110Y-98015787D01*
X149196720Y-98714483D01*
X149305192Y-99310085D01*
X149526834Y-100552237D01*
X149696457Y-101595504D01*
X149811450Y-102420439D01*
X149869206Y-103007597D01*
X149867116Y-103337533D01*
X149852279Y-103387714D01*
X149656321Y-103491423D01*
X149359300Y-103457611D01*
X149105427Y-103304016D01*
X149097592Y-103294890D01*
X148959631Y-102999767D01*
X148805942Y-102440816D01*
X148641794Y-101643732D01*
X148472454Y-100634214D01*
X148303189Y-99437958D01*
X148296528Y-99386842D01*
X148203758Y-98708145D01*
X148116846Y-98135472D01*
X148045663Y-97729981D01*
X148000737Y-97553841D01*
X147825885Y-97498779D01*
X147465960Y-97494015D01*
X147253188Y-97511743D01*
X146814127Y-97525003D01*
X146641496Y-97434070D01*
X146735567Y-97236356D01*
X147096613Y-96929272D01*
X147331700Y-96764514D01*
X147697711Y-96496182D01*
X147865125Y-96286062D01*
X147887484Y-96048522D01*
X147864874Y-95911800D01*
X147808597Y-95479080D01*
X147779223Y-94957811D01*
X147778000Y-94846156D01*
X147751446Y-94428022D01*
X147633229Y-94184446D01*
X147365517Y-94001678D01*
X147342571Y-93989714D01*
X147045853Y-93782213D01*
X146908313Y-93579461D01*
X146907143Y-93564146D01*
X146799144Y-93425123D01*
X146616857Y-93439659D01*
X146363234Y-93445235D01*
X146313782Y-93295343D01*
X146329736Y-93264000D01*
X147197429Y-93264000D01*
X147270000Y-93336571D01*
X147342571Y-93264000D01*
X147270000Y-93191428D01*
X147197429Y-93264000D01*
X146329736Y-93264000D01*
X146452220Y-93023369D01*
X146762265Y-92662698D01*
X147179626Y-92285706D01*
X147413976Y-91965119D01*
X147487714Y-91668849D01*
X147547334Y-91371658D01*
X147682151Y-91329453D01*
X147826101Y-91543624D01*
X147861922Y-91660977D01*
X147915421Y-91814017D01*
X148010079Y-91910607D01*
X148182211Y-91945129D01*
X148468129Y-91911963D01*
X148904148Y-91805489D01*
X149526582Y-91620090D01*
X150371745Y-91350146D01*
X150826000Y-91202335D01*
X152126868Y-90788144D01*
X153283779Y-90440214D01*
X154268681Y-90166132D01*
X155053521Y-89973480D01*
X155610245Y-89869844D01*
X155814915Y-89853509D01*
X156098339Y-89891975D01*
G37*
G36*
X162334327Y-93662305D02*
G01*
X162414861Y-93712223D01*
X162436787Y-93805922D01*
X162437429Y-93841184D01*
X162325511Y-94038960D01*
X161981413Y-94270714D01*
X161392617Y-94542081D01*
X160546607Y-94858691D01*
X159430864Y-95226178D01*
X159197821Y-95298970D01*
X158479484Y-95525246D01*
X157864119Y-95725663D01*
X157403164Y-95882962D01*
X157148055Y-95979883D01*
X157115247Y-95997800D01*
X157092632Y-96166414D01*
X157094224Y-96557492D01*
X157118733Y-97104335D01*
X157143886Y-97479235D01*
X157249205Y-98883990D01*
X157702460Y-98805817D01*
X158079096Y-98740345D01*
X158620627Y-98645602D01*
X159175313Y-98548169D01*
X159754516Y-98472027D01*
X160279863Y-98447101D01*
X160626566Y-98477032D01*
X160911084Y-98562994D01*
X160944043Y-98651369D01*
X160785309Y-98784929D01*
X160493028Y-98923918D01*
X160034566Y-99067167D01*
X159696913Y-99145165D01*
X159060336Y-99282953D01*
X158386552Y-99446996D01*
X158119429Y-99518404D01*
X157681624Y-99651050D01*
X157455216Y-99778650D01*
X157370831Y-99969881D01*
X157359026Y-100271197D01*
X157386378Y-100810206D01*
X157449981Y-101352029D01*
X157450588Y-101355714D01*
X157540553Y-101900000D01*
X158283562Y-101888910D01*
X158757723Y-101866564D01*
X159412541Y-101815839D01*
X160140791Y-101745614D01*
X160514286Y-101704177D01*
X162002000Y-101530534D01*
X162002000Y-101860410D01*
X162009988Y-102051469D01*
X162071183Y-102149163D01*
X162241431Y-102155329D01*
X162576576Y-102071804D01*
X163132465Y-101900425D01*
X163140652Y-101897858D01*
X163799411Y-101727575D01*
X164557943Y-101583583D01*
X165100081Y-101513215D01*
X165630692Y-101469397D01*
X165921077Y-101466498D01*
X166019422Y-101512509D01*
X165973914Y-101615421D01*
X165943920Y-101653145D01*
X165668706Y-101864891D01*
X165169581Y-102095910D01*
X164432019Y-102351026D01*
X163441495Y-102635056D01*
X162183485Y-102952824D01*
X161639143Y-103081823D01*
X160705966Y-103292980D01*
X159723281Y-103503654D01*
X158741614Y-103704184D01*
X157811487Y-103884913D01*
X156983425Y-104036179D01*
X156307950Y-104148325D01*
X155835587Y-104211690D01*
X155673863Y-104222285D01*
X155490193Y-104136565D01*
X155470571Y-104072587D01*
X155588206Y-103902686D01*
X155724571Y-103828389D01*
X156018640Y-103677653D01*
X156372939Y-103446268D01*
X156377714Y-103442792D01*
X156615700Y-103219417D01*
X156742363Y-102940756D01*
X156761177Y-102589415D01*
X158114291Y-102589415D01*
X158219816Y-102603157D01*
X158490115Y-102521798D01*
X158591143Y-102480571D01*
X158754728Y-102381580D01*
X158663714Y-102347852D01*
X158353871Y-102416389D01*
X158228286Y-102480571D01*
X158114291Y-102589415D01*
X156761177Y-102589415D01*
X156763430Y-102547347D01*
X156684634Y-101979729D01*
X156570968Y-101437292D01*
X156467473Y-100892170D01*
X156356396Y-100170322D01*
X156254194Y-99384313D01*
X156203559Y-98924571D01*
X156109314Y-98011560D01*
X156033217Y-97347954D01*
X155966276Y-96894144D01*
X155899500Y-96610521D01*
X155823895Y-96457476D01*
X155730470Y-96395401D01*
X155626909Y-96384571D01*
X155358517Y-96306226D01*
X155154554Y-96129958D01*
X155104749Y-95943921D01*
X155133164Y-95899502D01*
X155347775Y-95814613D01*
X155467467Y-95804000D01*
X155715938Y-95685045D01*
X156008917Y-95384020D01*
X156274286Y-94984681D01*
X156390542Y-94731957D01*
X156487940Y-94546789D01*
X156626157Y-94585330D01*
X156755026Y-94695671D01*
X157047127Y-94882826D01*
X157238254Y-94933143D01*
X157446970Y-94895129D01*
X157882656Y-94790013D01*
X158493379Y-94631184D01*
X159227203Y-94432028D01*
X159766825Y-94281302D01*
X160691417Y-94021512D01*
X161373729Y-93835770D01*
X161850495Y-93718025D01*
X162158449Y-93662221D01*
X162334327Y-93662305D01*
G37*
G36*
X142842590Y-91491540D02*
G01*
X142843143Y-91500627D01*
X142800254Y-91657827D01*
X142695305Y-91975360D01*
X142678368Y-92024213D01*
X142589326Y-92405768D01*
X142665799Y-92590942D01*
X142667410Y-92591951D01*
X142748090Y-92774250D01*
X142694196Y-93165381D01*
X142668981Y-93265793D01*
X142616722Y-93501922D01*
X142607589Y-93724140D01*
X142657862Y-93983238D01*
X142783819Y-94330005D01*
X143001740Y-94815232D01*
X143327906Y-95489708D01*
X143482534Y-95804000D01*
X143930602Y-96693154D01*
X144287683Y-97344772D01*
X144577794Y-97787852D01*
X144824953Y-98051391D01*
X145053177Y-98164385D01*
X145286483Y-98155833D01*
X145400515Y-98119681D01*
X145807838Y-98021774D01*
X146274091Y-97981142D01*
X146643420Y-98035915D01*
X146761336Y-98180117D01*
X146640926Y-98383571D01*
X146295279Y-98616103D01*
X145927861Y-98779428D01*
X145512090Y-98965408D01*
X145235645Y-99140787D01*
X145167042Y-99234847D01*
X145188990Y-99353545D01*
X145266440Y-99575538D01*
X145414479Y-99937033D01*
X145648197Y-100474234D01*
X145982681Y-101223346D01*
X146156771Y-101609714D01*
X146326611Y-101954437D01*
X146567974Y-102409332D01*
X146684675Y-102620203D01*
X146893657Y-103079604D01*
X146919759Y-103367290D01*
X146768444Y-103460236D01*
X146506669Y-103370135D01*
X146126552Y-103081669D01*
X145657526Y-102598262D01*
X145148783Y-101980304D01*
X144649515Y-101288186D01*
X144208913Y-100582299D01*
X144149429Y-100476252D01*
X143835825Y-99922207D01*
X143575581Y-99556081D01*
X143303579Y-99353011D01*
X142954705Y-99288137D01*
X142463844Y-99336597D01*
X141765882Y-99473528D01*
X141609429Y-99506454D01*
X140911140Y-99659551D01*
X140414292Y-99807748D01*
X140057797Y-100002114D01*
X139780563Y-100293722D01*
X139521501Y-100733643D01*
X139219521Y-101372950D01*
X139123428Y-101584773D01*
X138692443Y-102515742D01*
X138334516Y-103247411D01*
X138059841Y-103760264D01*
X137878615Y-104034785D01*
X137821378Y-104077142D01*
X137775257Y-103954096D01*
X137763143Y-103762644D01*
X137799784Y-103492656D01*
X137898420Y-103020179D01*
X138042120Y-102422075D01*
X138147417Y-102018156D01*
X138301131Y-101414525D01*
X138410629Y-100921729D01*
X138462970Y-100602233D01*
X138458772Y-100515248D01*
X138292484Y-100511259D01*
X137921228Y-100568218D01*
X137421000Y-100674093D01*
X137351905Y-100690476D01*
X136837903Y-100799638D01*
X136440011Y-100857678D01*
X136235714Y-100853712D01*
X136227730Y-100848397D01*
X136197466Y-100669285D01*
X136362773Y-100505951D01*
X136592794Y-100448571D01*
X136896977Y-100343213D01*
X137055942Y-100206461D01*
X137289357Y-100020547D01*
X137695962Y-99780625D01*
X138109117Y-99575676D01*
X138963091Y-99187000D01*
X139181572Y-98581329D01*
X140322914Y-98581329D01*
X140358201Y-98684835D01*
X140488453Y-98706643D01*
X140538008Y-98706857D01*
X140818300Y-98675904D01*
X141283419Y-98594497D01*
X141835897Y-98479813D01*
X141871062Y-98471941D01*
X142382486Y-98353077D01*
X142768791Y-98256024D01*
X142955851Y-98199535D01*
X142961874Y-98195972D01*
X142930350Y-98053235D01*
X142810178Y-97695643D01*
X142620647Y-97177812D01*
X142391225Y-96580316D01*
X141774415Y-95005714D01*
X141299301Y-96021714D01*
X141014380Y-96662440D01*
X140735804Y-97340302D01*
X140536896Y-97872285D01*
X140382508Y-98331891D01*
X140322914Y-98581329D01*
X139181572Y-98581329D01*
X139795775Y-96878643D01*
X140084519Y-96080849D01*
X140350221Y-95351635D01*
X140572492Y-94746582D01*
X140730945Y-94321269D01*
X140791933Y-94162848D01*
X140867078Y-93906975D01*
X140829442Y-93833956D01*
X140820733Y-93838644D01*
X140649641Y-93838877D01*
X140569522Y-93673271D01*
X140629932Y-93463302D01*
X140655662Y-93433995D01*
X140833501Y-93348774D01*
X140942193Y-93458911D01*
X141055628Y-93530579D01*
X141132565Y-93396902D01*
X141153385Y-93142329D01*
X141098471Y-92851309D01*
X141089159Y-92826253D01*
X140991314Y-92437535D01*
X140966487Y-92200593D01*
X140995723Y-91975149D01*
X141157874Y-91896104D01*
X141454044Y-91905786D01*
X141969586Y-91848704D01*
X142227473Y-91699192D01*
X142488868Y-91521694D01*
X142728728Y-91441247D01*
X142842590Y-91491540D01*
G37*
D14*
X117860000Y-92560000D02*
X119190000Y-92560000D01*
X117860000Y-93890000D02*
X117860000Y-92560000D01*
X117860000Y-95160000D02*
X117860000Y-115540000D01*
X117860000Y-95160000D02*
X120460000Y-95160000D01*
X117860000Y-115540000D02*
X123060000Y-115540000D01*
X120460000Y-92560000D02*
X123060000Y-92560000D01*
X120460000Y-95160000D02*
X120460000Y-92560000D01*
X123060000Y-92560000D02*
X123060000Y-115540000D01*
%LPC*%
D15*
X119190000Y-93890000D03*
D16*
X121730000Y-93890000D03*
X119190000Y-96430000D03*
X121730000Y-96430000D03*
X119190000Y-98970000D03*
X121730000Y-98970000D03*
X119190000Y-101510000D03*
X121730000Y-101510000D03*
X119190000Y-104050000D03*
X121730000Y-104050000D03*
X119190000Y-106590000D03*
X121730000Y-106590000D03*
X119190000Y-109130000D03*
X121730000Y-109130000D03*
X119190000Y-111670000D03*
X121730000Y-111670000D03*
X119190000Y-114210000D03*
X121730000Y-114210000D03*
%LPD*%
M02*
