%TF.GenerationSoftware,KiCad,Pcbnew,8.0.8*%
%TF.CreationDate,2025-02-19T13:23:49-05:00*%
%TF.ProjectId,plot_gerbers,706c6f74-5f67-4657-9262-6572732e6b69,rev?*%
%TF.SameCoordinates,Original*%
%TF.FileFunction,Drillmap*%
%TF.FilePolarity,Positive*%
%FSLAX45Y45*%
G04 Gerber Fmt 4.5, Leading zero omitted, Abs format (unit mm)*
G04 Created by KiCad (PCBNEW 8.0.8) date 2025-02-19 13:23:49*
%MOMM*%
%LPD*%
G01*
G04 APERTURE LIST*
%ADD10C,0.050000*%
%ADD11C,0.200000*%
G04 APERTURE END LIST*
D10*
X11431000Y-8319000D02*
X11431000Y-12489000D01*
X11431000Y-12489000D02*
X18251000Y-12489000D01*
X18251000Y-8319000D02*
X11431000Y-8319000D01*
X18251000Y-8319000D02*
X18251000Y-12489000D01*
D11*
X11689277Y-12802984D02*
X11689277Y-12602984D01*
X11689277Y-12602984D02*
X11736896Y-12602984D01*
X11736896Y-12602984D02*
X11765467Y-12612508D01*
X11765467Y-12612508D02*
X11784515Y-12631555D01*
X11784515Y-12631555D02*
X11794039Y-12650603D01*
X11794039Y-12650603D02*
X11803562Y-12688698D01*
X11803562Y-12688698D02*
X11803562Y-12717269D01*
X11803562Y-12717269D02*
X11794039Y-12755365D01*
X11794039Y-12755365D02*
X11784515Y-12774412D01*
X11784515Y-12774412D02*
X11765467Y-12793460D01*
X11765467Y-12793460D02*
X11736896Y-12802984D01*
X11736896Y-12802984D02*
X11689277Y-12802984D01*
X11889277Y-12802984D02*
X11889277Y-12669650D01*
X11889277Y-12707746D02*
X11898801Y-12688698D01*
X11898801Y-12688698D02*
X11908324Y-12679174D01*
X11908324Y-12679174D02*
X11927372Y-12669650D01*
X11927372Y-12669650D02*
X11946420Y-12669650D01*
X12013086Y-12802984D02*
X12013086Y-12669650D01*
X12013086Y-12602984D02*
X12003562Y-12612508D01*
X12003562Y-12612508D02*
X12013086Y-12622031D01*
X12013086Y-12622031D02*
X12022610Y-12612508D01*
X12022610Y-12612508D02*
X12013086Y-12602984D01*
X12013086Y-12602984D02*
X12013086Y-12622031D01*
X12136896Y-12802984D02*
X12117848Y-12793460D01*
X12117848Y-12793460D02*
X12108324Y-12774412D01*
X12108324Y-12774412D02*
X12108324Y-12602984D01*
X12241658Y-12802984D02*
X12222610Y-12793460D01*
X12222610Y-12793460D02*
X12213086Y-12774412D01*
X12213086Y-12774412D02*
X12213086Y-12602984D01*
X12470229Y-12802984D02*
X12470229Y-12602984D01*
X12470229Y-12602984D02*
X12536896Y-12745841D01*
X12536896Y-12745841D02*
X12603562Y-12602984D01*
X12603562Y-12602984D02*
X12603562Y-12802984D01*
X12784515Y-12802984D02*
X12784515Y-12698222D01*
X12784515Y-12698222D02*
X12774991Y-12679174D01*
X12774991Y-12679174D02*
X12755943Y-12669650D01*
X12755943Y-12669650D02*
X12717848Y-12669650D01*
X12717848Y-12669650D02*
X12698801Y-12679174D01*
X12784515Y-12793460D02*
X12765467Y-12802984D01*
X12765467Y-12802984D02*
X12717848Y-12802984D01*
X12717848Y-12802984D02*
X12698801Y-12793460D01*
X12698801Y-12793460D02*
X12689277Y-12774412D01*
X12689277Y-12774412D02*
X12689277Y-12755365D01*
X12689277Y-12755365D02*
X12698801Y-12736317D01*
X12698801Y-12736317D02*
X12717848Y-12726793D01*
X12717848Y-12726793D02*
X12765467Y-12726793D01*
X12765467Y-12726793D02*
X12784515Y-12717269D01*
X12879753Y-12669650D02*
X12879753Y-12869650D01*
X12879753Y-12679174D02*
X12898801Y-12669650D01*
X12898801Y-12669650D02*
X12936896Y-12669650D01*
X12936896Y-12669650D02*
X12955943Y-12679174D01*
X12955943Y-12679174D02*
X12965467Y-12688698D01*
X12965467Y-12688698D02*
X12974991Y-12707746D01*
X12974991Y-12707746D02*
X12974991Y-12764888D01*
X12974991Y-12764888D02*
X12965467Y-12783936D01*
X12965467Y-12783936D02*
X12955943Y-12793460D01*
X12955943Y-12793460D02*
X12936896Y-12802984D01*
X12936896Y-12802984D02*
X12898801Y-12802984D01*
X12898801Y-12802984D02*
X12879753Y-12793460D01*
X13060705Y-12783936D02*
X13070229Y-12793460D01*
X13070229Y-12793460D02*
X13060705Y-12802984D01*
X13060705Y-12802984D02*
X13051182Y-12793460D01*
X13051182Y-12793460D02*
X13060705Y-12783936D01*
X13060705Y-12783936D02*
X13060705Y-12802984D01*
X13060705Y-12679174D02*
X13070229Y-12688698D01*
X13070229Y-12688698D02*
X13060705Y-12698222D01*
X13060705Y-12698222D02*
X13051182Y-12688698D01*
X13051182Y-12688698D02*
X13060705Y-12679174D01*
X13060705Y-12679174D02*
X13060705Y-12698222D01*
M02*
