G04 #@! TF.GenerationSoftware,KiCad,Pcbnew,8.0.8*
G04 #@! TF.CreationDate,2025-02-19T13:23:11-05:00*
G04 #@! TF.ProjectId,plot_gerbers,706c6f74-5f67-4657-9262-6572732e6b69,rev?*
G04 #@! TF.SameCoordinates,Original*
G04 #@! TF.FileFunction,Legend,Bot*
G04 #@! TF.FilePolarity,Positive*
%FSLAX46Y46*%
G04 Gerber Fmt 4.6, Leading zero omitted, Abs format (unit mm)*
G04 Created by KiCad (PCBNEW 8.0.8) date 2025-02-19 13:23:11*
%MOMM*%
%LPD*%
G01*
G04 APERTURE LIST*
%ADD10C,0.300000*%
%ADD11C,0.100000*%
%ADD12R,1.700000X1.700000*%
%ADD13O,1.700000X1.700000*%
G04 APERTURE END LIST*
D10*
X178930828Y-111176917D02*
X180002257Y-111176917D01*
X180002257Y-111176917D02*
X180216542Y-111248346D01*
X180216542Y-111248346D02*
X180359400Y-111391203D01*
X180359400Y-111391203D02*
X180430828Y-111605489D01*
X180430828Y-111605489D02*
X180430828Y-111748346D01*
X180430828Y-109748346D02*
X180430828Y-110462632D01*
X180430828Y-110462632D02*
X178930828Y-110462632D01*
X180287971Y-108391203D02*
X180359400Y-108462631D01*
X180359400Y-108462631D02*
X180430828Y-108676917D01*
X180430828Y-108676917D02*
X180430828Y-108819774D01*
X180430828Y-108819774D02*
X180359400Y-109034060D01*
X180359400Y-109034060D02*
X180216542Y-109176917D01*
X180216542Y-109176917D02*
X180073685Y-109248346D01*
X180073685Y-109248346D02*
X179787971Y-109319774D01*
X179787971Y-109319774D02*
X179573685Y-109319774D01*
X179573685Y-109319774D02*
X179287971Y-109248346D01*
X179287971Y-109248346D02*
X179145114Y-109176917D01*
X179145114Y-109176917D02*
X179002257Y-109034060D01*
X179002257Y-109034060D02*
X178930828Y-108819774D01*
X178930828Y-108819774D02*
X178930828Y-108676917D01*
X178930828Y-108676917D02*
X179002257Y-108462631D01*
X179002257Y-108462631D02*
X179073685Y-108391203D01*
X178930828Y-107319774D02*
X180002257Y-107319774D01*
X180002257Y-107319774D02*
X180216542Y-107391203D01*
X180216542Y-107391203D02*
X180359400Y-107534060D01*
X180359400Y-107534060D02*
X180430828Y-107748346D01*
X180430828Y-107748346D02*
X180430828Y-107891203D01*
X180430828Y-105891203D02*
X180430828Y-106605489D01*
X180430828Y-106605489D02*
X178930828Y-106605489D01*
X180287971Y-104534060D02*
X180359400Y-104605488D01*
X180359400Y-104605488D02*
X180430828Y-104819774D01*
X180430828Y-104819774D02*
X180430828Y-104962631D01*
X180430828Y-104962631D02*
X180359400Y-105176917D01*
X180359400Y-105176917D02*
X180216542Y-105319774D01*
X180216542Y-105319774D02*
X180073685Y-105391203D01*
X180073685Y-105391203D02*
X179787971Y-105462631D01*
X179787971Y-105462631D02*
X179573685Y-105462631D01*
X179573685Y-105462631D02*
X179287971Y-105391203D01*
X179287971Y-105391203D02*
X179145114Y-105319774D01*
X179145114Y-105319774D02*
X179002257Y-105176917D01*
X179002257Y-105176917D02*
X178930828Y-104962631D01*
X178930828Y-104962631D02*
X178930828Y-104819774D01*
X178930828Y-104819774D02*
X179002257Y-104605488D01*
X179002257Y-104605488D02*
X179073685Y-104534060D01*
X178930828Y-103462631D02*
X180002257Y-103462631D01*
X180002257Y-103462631D02*
X180216542Y-103534060D01*
X180216542Y-103534060D02*
X180359400Y-103676917D01*
X180359400Y-103676917D02*
X180430828Y-103891203D01*
X180430828Y-103891203D02*
X180430828Y-104034060D01*
X180430828Y-102034060D02*
X180430828Y-102748346D01*
X180430828Y-102748346D02*
X178930828Y-102748346D01*
X180287971Y-100676917D02*
X180359400Y-100748345D01*
X180359400Y-100748345D02*
X180430828Y-100962631D01*
X180430828Y-100962631D02*
X180430828Y-101105488D01*
X180430828Y-101105488D02*
X180359400Y-101319774D01*
X180359400Y-101319774D02*
X180216542Y-101462631D01*
X180216542Y-101462631D02*
X180073685Y-101534060D01*
X180073685Y-101534060D02*
X179787971Y-101605488D01*
X179787971Y-101605488D02*
X179573685Y-101605488D01*
X179573685Y-101605488D02*
X179287971Y-101534060D01*
X179287971Y-101534060D02*
X179145114Y-101462631D01*
X179145114Y-101462631D02*
X179002257Y-101319774D01*
X179002257Y-101319774D02*
X178930828Y-101105488D01*
X178930828Y-101105488D02*
X178930828Y-100962631D01*
X178930828Y-100962631D02*
X179002257Y-100748345D01*
X179002257Y-100748345D02*
X179073685Y-100676917D01*
X178930828Y-99605488D02*
X180002257Y-99605488D01*
X180002257Y-99605488D02*
X180216542Y-99676917D01*
X180216542Y-99676917D02*
X180359400Y-99819774D01*
X180359400Y-99819774D02*
X180430828Y-100034060D01*
X180430828Y-100034060D02*
X180430828Y-100176917D01*
X180430828Y-98176917D02*
X180430828Y-98891203D01*
X180430828Y-98891203D02*
X178930828Y-98891203D01*
X180287971Y-96819774D02*
X180359400Y-96891202D01*
X180359400Y-96891202D02*
X180430828Y-97105488D01*
X180430828Y-97105488D02*
X180430828Y-97248345D01*
X180430828Y-97248345D02*
X180359400Y-97462631D01*
X180359400Y-97462631D02*
X180216542Y-97605488D01*
X180216542Y-97605488D02*
X180073685Y-97676917D01*
X180073685Y-97676917D02*
X179787971Y-97748345D01*
X179787971Y-97748345D02*
X179573685Y-97748345D01*
X179573685Y-97748345D02*
X179287971Y-97676917D01*
X179287971Y-97676917D02*
X179145114Y-97605488D01*
X179145114Y-97605488D02*
X179002257Y-97462631D01*
X179002257Y-97462631D02*
X178930828Y-97248345D01*
X178930828Y-97248345D02*
X178930828Y-97105488D01*
X178930828Y-97105488D02*
X179002257Y-96891202D01*
X179002257Y-96891202D02*
X179073685Y-96819774D01*
D11*
X151910000Y-104040000D02*
G75*
G02*
X144910000Y-104040000I-3500000J0D01*
G01*
X144910000Y-104040000D02*
G75*
G02*
X151910000Y-104040000I3500000J0D01*
G01*
%LPC*%
D12*
X119190000Y-93890000D03*
D13*
X121730000Y-93890000D03*
X119190000Y-96430000D03*
X121730000Y-96430000D03*
X119190000Y-98970000D03*
X121730000Y-98970000D03*
X119190000Y-101510000D03*
X121730000Y-101510000D03*
X119190000Y-104050000D03*
X121730000Y-104050000D03*
X119190000Y-106590000D03*
X121730000Y-106590000D03*
X119190000Y-109130000D03*
X121730000Y-109130000D03*
X119190000Y-111670000D03*
X121730000Y-111670000D03*
X119190000Y-114210000D03*
X121730000Y-114210000D03*
%LPD*%
M02*
