%TF.GenerationSoftware,KiCad,Pcbnew,8.0.8*%
%TF.CreationDate,2025-02-19T13:58:05-05:00*%
%TF.ProjectId,plot_gerbers,706c6f74-5f67-4657-9262-6572732e6b69,rev?*%
%TF.SameCoordinates,Original*%
%TF.FileFunction,Drillmap*%
%TF.FilePolarity,Positive*%
%FSLAX45Y45*%
G04 Gerber Fmt 4.5, Leading zero omitted, Abs format (unit mm)*
G04 Created by KiCad (PCBNEW 8.0.8) date 2025-02-19 13:58:05*
%MOMM*%
%LPD*%
G01*
G04 APERTURE LIST*
%ADD10C,0.050000*%
%ADD11C,0.200000*%
%ADD12C,0.100000*%
G04 APERTURE END LIST*
D10*
X11633000Y-11373000D02*
X11508000Y-11373000D01*
X18261000Y-8293000D02*
X18386000Y-8293000D01*
X18387000Y-11373000D02*
X18387000Y-11823000D01*
X11632000Y-11133000D02*
G75*
G02*
X11727000Y-11253000I-12500J-107500D01*
G01*
X11507000Y-8293000D02*
X11507000Y-7843000D01*
X18167000Y-11253000D02*
G75*
G02*
X18262000Y-11133000I107500J12500D01*
G01*
X11632000Y-8293000D02*
X11507000Y-8293000D01*
X11727000Y-8413000D02*
G75*
G02*
X11632000Y-8533000I-107500J-12500D01*
G01*
X11508000Y-11823000D02*
X11508000Y-11373000D01*
X11632000Y-8293000D02*
G75*
G02*
X11727000Y-8413000I-12500J-107500D01*
G01*
X11727000Y-11253000D02*
G75*
G02*
X11632000Y-11373000I-107500J-12500D01*
G01*
X18167000Y-8413000D02*
G75*
G02*
X18262000Y-8293000I107500J12500D01*
G01*
X18262000Y-11373000D02*
X18387000Y-11373000D01*
X18262000Y-11133000D02*
X18262000Y-8533000D01*
X11632000Y-8533000D02*
X11632000Y-11133000D01*
X11507000Y-7843000D02*
X18386000Y-7843000D01*
X11508000Y-11823000D02*
X18387000Y-11823000D01*
X18386000Y-7843000D02*
X18386000Y-8293000D01*
X18262000Y-11373000D02*
G75*
G02*
X18167000Y-11253000I12500J107500D01*
G01*
X18262000Y-8533000D02*
G75*
G02*
X18167000Y-8413000I12500J107500D01*
G01*
D11*
D12*
X12672000Y-11332000D02*
X12702000Y-11362000D01*
X12702000Y-11332000D02*
X12672000Y-11362000D01*
X12310000Y-11351000D02*
G75*
G02*
X12240000Y-11351000I-35000J0D01*
G01*
X12240000Y-11351000D02*
G75*
G02*
X12310000Y-11351000I35000J0D01*
G01*
X12025000Y-8768000D02*
X12025000Y-8868000D01*
X11975000Y-8818000D02*
X12075000Y-8818000D01*
X12025000Y-9022000D02*
X12025000Y-9122000D01*
X11975000Y-9072000D02*
X12075000Y-9072000D01*
X12025000Y-9276000D02*
X12025000Y-9376000D01*
X11975000Y-9326000D02*
X12075000Y-9326000D01*
X12025000Y-9530000D02*
X12025000Y-9630000D01*
X11975000Y-9580000D02*
X12075000Y-9580000D01*
X12025000Y-9784000D02*
X12025000Y-9884000D01*
X11975000Y-9834000D02*
X12075000Y-9834000D01*
X12025000Y-10038000D02*
X12025000Y-10138000D01*
X11975000Y-10088000D02*
X12075000Y-10088000D01*
X12025000Y-10292000D02*
X12025000Y-10392000D01*
X11975000Y-10342000D02*
X12075000Y-10342000D01*
X12025000Y-10546000D02*
X12025000Y-10646000D01*
X11975000Y-10596000D02*
X12075000Y-10596000D01*
X12025000Y-10800000D02*
X12025000Y-10900000D01*
X11975000Y-10850000D02*
X12075000Y-10850000D01*
X12279000Y-8768000D02*
X12279000Y-8868000D01*
X12229000Y-8818000D02*
X12329000Y-8818000D01*
X12279000Y-9022000D02*
X12279000Y-9122000D01*
X12229000Y-9072000D02*
X12329000Y-9072000D01*
X12279000Y-9276000D02*
X12279000Y-9376000D01*
X12229000Y-9326000D02*
X12329000Y-9326000D01*
X12279000Y-9530000D02*
X12279000Y-9630000D01*
X12229000Y-9580000D02*
X12329000Y-9580000D01*
X12279000Y-9784000D02*
X12279000Y-9884000D01*
X12229000Y-9834000D02*
X12329000Y-9834000D01*
X12279000Y-10038000D02*
X12279000Y-10138000D01*
X12229000Y-10088000D02*
X12329000Y-10088000D01*
X12279000Y-10292000D02*
X12279000Y-10392000D01*
X12229000Y-10342000D02*
X12329000Y-10342000D01*
X12279000Y-10546000D02*
X12279000Y-10646000D01*
X12229000Y-10596000D02*
X12329000Y-10596000D01*
X12279000Y-10800000D02*
X12279000Y-10900000D01*
X12229000Y-10850000D02*
X12329000Y-10850000D01*
X12924000Y-8259000D02*
X12924000Y-8359000D01*
X12874000Y-8309000D02*
X12974000Y-8309000D01*
X12924000Y-8513000D02*
X12924000Y-8613000D01*
X12874000Y-8563000D02*
X12974000Y-8563000D01*
X12924000Y-8767000D02*
X12924000Y-8867000D01*
X12874000Y-8817000D02*
X12974000Y-8817000D01*
X12924000Y-9021000D02*
X12924000Y-9121000D01*
X12874000Y-9071000D02*
X12974000Y-9071000D01*
X12924000Y-9275000D02*
X12924000Y-9375000D01*
X12874000Y-9325000D02*
X12974000Y-9325000D01*
X12924000Y-9529000D02*
X12924000Y-9629000D01*
X12874000Y-9579000D02*
X12974000Y-9579000D01*
X12924000Y-10037000D02*
X12924000Y-10137000D01*
X12874000Y-10087000D02*
X12974000Y-10087000D01*
X12924000Y-10291000D02*
X12924000Y-10391000D01*
X12874000Y-10341000D02*
X12974000Y-10341000D01*
X12924000Y-10545000D02*
X12924000Y-10645000D01*
X12874000Y-10595000D02*
X12974000Y-10595000D01*
X12924000Y-10799000D02*
X12924000Y-10899000D01*
X12874000Y-10849000D02*
X12974000Y-10849000D01*
X12924000Y-11053000D02*
X12924000Y-11153000D01*
X12874000Y-11103000D02*
X12974000Y-11103000D01*
X12924000Y-11307000D02*
X12924000Y-11407000D01*
X12874000Y-11357000D02*
X12974000Y-11357000D01*
X13178000Y-8259000D02*
X13178000Y-8359000D01*
X13128000Y-8309000D02*
X13228000Y-8309000D01*
X13178000Y-8513000D02*
X13178000Y-8613000D01*
X13128000Y-8563000D02*
X13228000Y-8563000D01*
X13178000Y-8767000D02*
X13178000Y-8867000D01*
X13128000Y-8817000D02*
X13228000Y-8817000D01*
X13178000Y-9021000D02*
X13178000Y-9121000D01*
X13128000Y-9071000D02*
X13228000Y-9071000D01*
X13178000Y-9275000D02*
X13178000Y-9375000D01*
X13128000Y-9325000D02*
X13228000Y-9325000D01*
X13178000Y-9529000D02*
X13178000Y-9629000D01*
X13128000Y-9579000D02*
X13228000Y-9579000D01*
X13178000Y-10037000D02*
X13178000Y-10137000D01*
X13128000Y-10087000D02*
X13228000Y-10087000D01*
X13178000Y-10291000D02*
X13178000Y-10391000D01*
X13128000Y-10341000D02*
X13228000Y-10341000D01*
X13178000Y-10545000D02*
X13178000Y-10645000D01*
X13128000Y-10595000D02*
X13228000Y-10595000D01*
X13178000Y-10799000D02*
X13178000Y-10899000D01*
X13128000Y-10849000D02*
X13228000Y-10849000D01*
X13178000Y-11053000D02*
X13178000Y-11153000D01*
X13128000Y-11103000D02*
X13228000Y-11103000D01*
X13178000Y-11307000D02*
X13178000Y-11407000D01*
X13128000Y-11357000D02*
X13228000Y-11357000D01*
X13432000Y-8259000D02*
X13432000Y-8359000D01*
X13382000Y-8309000D02*
X13482000Y-8309000D01*
X13432000Y-8513000D02*
X13432000Y-8613000D01*
X13382000Y-8563000D02*
X13482000Y-8563000D01*
X13432000Y-8767000D02*
X13432000Y-8867000D01*
X13382000Y-8817000D02*
X13482000Y-8817000D01*
X13432000Y-9021000D02*
X13432000Y-9121000D01*
X13382000Y-9071000D02*
X13482000Y-9071000D01*
X13432000Y-9275000D02*
X13432000Y-9375000D01*
X13382000Y-9325000D02*
X13482000Y-9325000D01*
X13432000Y-9529000D02*
X13432000Y-9629000D01*
X13382000Y-9579000D02*
X13482000Y-9579000D01*
X13432000Y-10037000D02*
X13432000Y-10137000D01*
X13382000Y-10087000D02*
X13482000Y-10087000D01*
X13432000Y-10291000D02*
X13432000Y-10391000D01*
X13382000Y-10341000D02*
X13482000Y-10341000D01*
X13432000Y-10545000D02*
X13432000Y-10645000D01*
X13382000Y-10595000D02*
X13482000Y-10595000D01*
X13432000Y-10799000D02*
X13432000Y-10899000D01*
X13382000Y-10849000D02*
X13482000Y-10849000D01*
X13432000Y-11053000D02*
X13432000Y-11153000D01*
X13382000Y-11103000D02*
X13482000Y-11103000D01*
X13432000Y-11307000D02*
X13432000Y-11407000D01*
X13382000Y-11357000D02*
X13482000Y-11357000D01*
X13686000Y-8259000D02*
X13686000Y-8359000D01*
X13636000Y-8309000D02*
X13736000Y-8309000D01*
X13686000Y-8513000D02*
X13686000Y-8613000D01*
X13636000Y-8563000D02*
X13736000Y-8563000D01*
X13686000Y-8767000D02*
X13686000Y-8867000D01*
X13636000Y-8817000D02*
X13736000Y-8817000D01*
X13686000Y-9021000D02*
X13686000Y-9121000D01*
X13636000Y-9071000D02*
X13736000Y-9071000D01*
X13686000Y-9275000D02*
X13686000Y-9375000D01*
X13636000Y-9325000D02*
X13736000Y-9325000D01*
X13686000Y-9529000D02*
X13686000Y-9629000D01*
X13636000Y-9579000D02*
X13736000Y-9579000D01*
X13686000Y-10037000D02*
X13686000Y-10137000D01*
X13636000Y-10087000D02*
X13736000Y-10087000D01*
X13686000Y-10291000D02*
X13686000Y-10391000D01*
X13636000Y-10341000D02*
X13736000Y-10341000D01*
X13686000Y-10545000D02*
X13686000Y-10645000D01*
X13636000Y-10595000D02*
X13736000Y-10595000D01*
X13686000Y-10799000D02*
X13686000Y-10899000D01*
X13636000Y-10849000D02*
X13736000Y-10849000D01*
X13686000Y-11053000D02*
X13686000Y-11153000D01*
X13636000Y-11103000D02*
X13736000Y-11103000D01*
X13686000Y-11307000D02*
X13686000Y-11407000D01*
X13636000Y-11357000D02*
X13736000Y-11357000D01*
X13940000Y-8259000D02*
X13940000Y-8359000D01*
X13890000Y-8309000D02*
X13990000Y-8309000D01*
X13940000Y-8513000D02*
X13940000Y-8613000D01*
X13890000Y-8563000D02*
X13990000Y-8563000D01*
X13940000Y-8767000D02*
X13940000Y-8867000D01*
X13890000Y-8817000D02*
X13990000Y-8817000D01*
X13940000Y-9021000D02*
X13940000Y-9121000D01*
X13890000Y-9071000D02*
X13990000Y-9071000D01*
X13940000Y-9275000D02*
X13940000Y-9375000D01*
X13890000Y-9325000D02*
X13990000Y-9325000D01*
X13940000Y-9529000D02*
X13940000Y-9629000D01*
X13890000Y-9579000D02*
X13990000Y-9579000D01*
X13940000Y-10037000D02*
X13940000Y-10137000D01*
X13890000Y-10087000D02*
X13990000Y-10087000D01*
X13940000Y-10291000D02*
X13940000Y-10391000D01*
X13890000Y-10341000D02*
X13990000Y-10341000D01*
X13940000Y-10545000D02*
X13940000Y-10645000D01*
X13890000Y-10595000D02*
X13990000Y-10595000D01*
X13940000Y-10799000D02*
X13940000Y-10899000D01*
X13890000Y-10849000D02*
X13990000Y-10849000D01*
X13940000Y-11053000D02*
X13940000Y-11153000D01*
X13890000Y-11103000D02*
X13990000Y-11103000D01*
X13940000Y-11307000D02*
X13940000Y-11407000D01*
X13890000Y-11357000D02*
X13990000Y-11357000D01*
X14194000Y-8259000D02*
X14194000Y-8359000D01*
X14144000Y-8309000D02*
X14244000Y-8309000D01*
X14194000Y-8513000D02*
X14194000Y-8613000D01*
X14144000Y-8563000D02*
X14244000Y-8563000D01*
X14194000Y-8767000D02*
X14194000Y-8867000D01*
X14144000Y-8817000D02*
X14244000Y-8817000D01*
X14194000Y-9021000D02*
X14194000Y-9121000D01*
X14144000Y-9071000D02*
X14244000Y-9071000D01*
X14194000Y-9275000D02*
X14194000Y-9375000D01*
X14144000Y-9325000D02*
X14244000Y-9325000D01*
X14194000Y-9529000D02*
X14194000Y-9629000D01*
X14144000Y-9579000D02*
X14244000Y-9579000D01*
X14194000Y-10037000D02*
X14194000Y-10137000D01*
X14144000Y-10087000D02*
X14244000Y-10087000D01*
X14194000Y-10291000D02*
X14194000Y-10391000D01*
X14144000Y-10341000D02*
X14244000Y-10341000D01*
X14194000Y-10545000D02*
X14194000Y-10645000D01*
X14144000Y-10595000D02*
X14244000Y-10595000D01*
X14194000Y-10799000D02*
X14194000Y-10899000D01*
X14144000Y-10849000D02*
X14244000Y-10849000D01*
X14194000Y-11053000D02*
X14194000Y-11153000D01*
X14144000Y-11103000D02*
X14244000Y-11103000D01*
X14194000Y-11307000D02*
X14194000Y-11407000D01*
X14144000Y-11357000D02*
X14244000Y-11357000D01*
X14448000Y-8259000D02*
X14448000Y-8359000D01*
X14398000Y-8309000D02*
X14498000Y-8309000D01*
X14448000Y-8513000D02*
X14448000Y-8613000D01*
X14398000Y-8563000D02*
X14498000Y-8563000D01*
X14448000Y-8767000D02*
X14448000Y-8867000D01*
X14398000Y-8817000D02*
X14498000Y-8817000D01*
X14448000Y-9021000D02*
X14448000Y-9121000D01*
X14398000Y-9071000D02*
X14498000Y-9071000D01*
X14448000Y-9275000D02*
X14448000Y-9375000D01*
X14398000Y-9325000D02*
X14498000Y-9325000D01*
X14448000Y-9529000D02*
X14448000Y-9629000D01*
X14398000Y-9579000D02*
X14498000Y-9579000D01*
X14448000Y-10037000D02*
X14448000Y-10137000D01*
X14398000Y-10087000D02*
X14498000Y-10087000D01*
X14448000Y-10291000D02*
X14448000Y-10391000D01*
X14398000Y-10341000D02*
X14498000Y-10341000D01*
X14448000Y-10545000D02*
X14448000Y-10645000D01*
X14398000Y-10595000D02*
X14498000Y-10595000D01*
X14448000Y-10799000D02*
X14448000Y-10899000D01*
X14398000Y-10849000D02*
X14498000Y-10849000D01*
X14448000Y-11053000D02*
X14448000Y-11153000D01*
X14398000Y-11103000D02*
X14498000Y-11103000D01*
X14448000Y-11307000D02*
X14448000Y-11407000D01*
X14398000Y-11357000D02*
X14498000Y-11357000D01*
X14702000Y-8259000D02*
X14702000Y-8359000D01*
X14652000Y-8309000D02*
X14752000Y-8309000D01*
X14702000Y-8513000D02*
X14702000Y-8613000D01*
X14652000Y-8563000D02*
X14752000Y-8563000D01*
X14702000Y-8767000D02*
X14702000Y-8867000D01*
X14652000Y-8817000D02*
X14752000Y-8817000D01*
X14702000Y-9021000D02*
X14702000Y-9121000D01*
X14652000Y-9071000D02*
X14752000Y-9071000D01*
X14702000Y-9275000D02*
X14702000Y-9375000D01*
X14652000Y-9325000D02*
X14752000Y-9325000D01*
X14702000Y-9529000D02*
X14702000Y-9629000D01*
X14652000Y-9579000D02*
X14752000Y-9579000D01*
X14702000Y-10037000D02*
X14702000Y-10137000D01*
X14652000Y-10087000D02*
X14752000Y-10087000D01*
X14702000Y-10291000D02*
X14702000Y-10391000D01*
X14652000Y-10341000D02*
X14752000Y-10341000D01*
X14702000Y-10545000D02*
X14702000Y-10645000D01*
X14652000Y-10595000D02*
X14752000Y-10595000D01*
X14702000Y-10799000D02*
X14702000Y-10899000D01*
X14652000Y-10849000D02*
X14752000Y-10849000D01*
X14702000Y-11053000D02*
X14702000Y-11153000D01*
X14652000Y-11103000D02*
X14752000Y-11103000D01*
X14702000Y-11307000D02*
X14702000Y-11407000D01*
X14652000Y-11357000D02*
X14752000Y-11357000D01*
X14956000Y-8259000D02*
X14956000Y-8359000D01*
X14906000Y-8309000D02*
X15006000Y-8309000D01*
X14956000Y-8513000D02*
X14956000Y-8613000D01*
X14906000Y-8563000D02*
X15006000Y-8563000D01*
X14956000Y-8767000D02*
X14956000Y-8867000D01*
X14906000Y-8817000D02*
X15006000Y-8817000D01*
X14956000Y-9021000D02*
X14956000Y-9121000D01*
X14906000Y-9071000D02*
X15006000Y-9071000D01*
X14956000Y-9275000D02*
X14956000Y-9375000D01*
X14906000Y-9325000D02*
X15006000Y-9325000D01*
X14956000Y-9529000D02*
X14956000Y-9629000D01*
X14906000Y-9579000D02*
X15006000Y-9579000D01*
X14956000Y-10037000D02*
X14956000Y-10137000D01*
X14906000Y-10087000D02*
X15006000Y-10087000D01*
X14956000Y-10291000D02*
X14956000Y-10391000D01*
X14906000Y-10341000D02*
X15006000Y-10341000D01*
X14956000Y-10545000D02*
X14956000Y-10645000D01*
X14906000Y-10595000D02*
X15006000Y-10595000D01*
X14956000Y-10799000D02*
X14956000Y-10899000D01*
X14906000Y-10849000D02*
X15006000Y-10849000D01*
X14956000Y-11053000D02*
X14956000Y-11153000D01*
X14906000Y-11103000D02*
X15006000Y-11103000D01*
X14956000Y-11307000D02*
X14956000Y-11407000D01*
X14906000Y-11357000D02*
X15006000Y-11357000D01*
X15210000Y-8259000D02*
X15210000Y-8359000D01*
X15160000Y-8309000D02*
X15260000Y-8309000D01*
X15210000Y-8513000D02*
X15210000Y-8613000D01*
X15160000Y-8563000D02*
X15260000Y-8563000D01*
X15210000Y-8767000D02*
X15210000Y-8867000D01*
X15160000Y-8817000D02*
X15260000Y-8817000D01*
X15210000Y-9021000D02*
X15210000Y-9121000D01*
X15160000Y-9071000D02*
X15260000Y-9071000D01*
X15210000Y-9275000D02*
X15210000Y-9375000D01*
X15160000Y-9325000D02*
X15260000Y-9325000D01*
X15210000Y-9529000D02*
X15210000Y-9629000D01*
X15160000Y-9579000D02*
X15260000Y-9579000D01*
X15210000Y-10037000D02*
X15210000Y-10137000D01*
X15160000Y-10087000D02*
X15260000Y-10087000D01*
X15210000Y-10291000D02*
X15210000Y-10391000D01*
X15160000Y-10341000D02*
X15260000Y-10341000D01*
X15210000Y-10545000D02*
X15210000Y-10645000D01*
X15160000Y-10595000D02*
X15260000Y-10595000D01*
X15210000Y-10799000D02*
X15210000Y-10899000D01*
X15160000Y-10849000D02*
X15260000Y-10849000D01*
X15210000Y-11053000D02*
X15210000Y-11153000D01*
X15160000Y-11103000D02*
X15260000Y-11103000D01*
X15210000Y-11307000D02*
X15210000Y-11407000D01*
X15160000Y-11357000D02*
X15260000Y-11357000D01*
X15464000Y-8259000D02*
X15464000Y-8359000D01*
X15414000Y-8309000D02*
X15514000Y-8309000D01*
X15464000Y-8513000D02*
X15464000Y-8613000D01*
X15414000Y-8563000D02*
X15514000Y-8563000D01*
X15464000Y-8767000D02*
X15464000Y-8867000D01*
X15414000Y-8817000D02*
X15514000Y-8817000D01*
X15464000Y-9021000D02*
X15464000Y-9121000D01*
X15414000Y-9071000D02*
X15514000Y-9071000D01*
X15464000Y-9275000D02*
X15464000Y-9375000D01*
X15414000Y-9325000D02*
X15514000Y-9325000D01*
X15464000Y-9529000D02*
X15464000Y-9629000D01*
X15414000Y-9579000D02*
X15514000Y-9579000D01*
X15464000Y-10037000D02*
X15464000Y-10137000D01*
X15414000Y-10087000D02*
X15514000Y-10087000D01*
X15464000Y-10291000D02*
X15464000Y-10391000D01*
X15414000Y-10341000D02*
X15514000Y-10341000D01*
X15464000Y-10545000D02*
X15464000Y-10645000D01*
X15414000Y-10595000D02*
X15514000Y-10595000D01*
X15464000Y-10799000D02*
X15464000Y-10899000D01*
X15414000Y-10849000D02*
X15514000Y-10849000D01*
X15464000Y-11053000D02*
X15464000Y-11153000D01*
X15414000Y-11103000D02*
X15514000Y-11103000D01*
X15464000Y-11307000D02*
X15464000Y-11407000D01*
X15414000Y-11357000D02*
X15514000Y-11357000D01*
X15718000Y-8259000D02*
X15718000Y-8359000D01*
X15668000Y-8309000D02*
X15768000Y-8309000D01*
X15718000Y-8513000D02*
X15718000Y-8613000D01*
X15668000Y-8563000D02*
X15768000Y-8563000D01*
X15718000Y-8767000D02*
X15718000Y-8867000D01*
X15668000Y-8817000D02*
X15768000Y-8817000D01*
X15718000Y-9021000D02*
X15718000Y-9121000D01*
X15668000Y-9071000D02*
X15768000Y-9071000D01*
X15718000Y-9275000D02*
X15718000Y-9375000D01*
X15668000Y-9325000D02*
X15768000Y-9325000D01*
X15718000Y-9529000D02*
X15718000Y-9629000D01*
X15668000Y-9579000D02*
X15768000Y-9579000D01*
X15718000Y-10037000D02*
X15718000Y-10137000D01*
X15668000Y-10087000D02*
X15768000Y-10087000D01*
X15718000Y-10291000D02*
X15718000Y-10391000D01*
X15668000Y-10341000D02*
X15768000Y-10341000D01*
X15718000Y-10545000D02*
X15718000Y-10645000D01*
X15668000Y-10595000D02*
X15768000Y-10595000D01*
X15718000Y-10799000D02*
X15718000Y-10899000D01*
X15668000Y-10849000D02*
X15768000Y-10849000D01*
X15718000Y-11053000D02*
X15718000Y-11153000D01*
X15668000Y-11103000D02*
X15768000Y-11103000D01*
X15718000Y-11307000D02*
X15718000Y-11407000D01*
X15668000Y-11357000D02*
X15768000Y-11357000D01*
X15972000Y-8259000D02*
X15972000Y-8359000D01*
X15922000Y-8309000D02*
X16022000Y-8309000D01*
X15972000Y-8513000D02*
X15972000Y-8613000D01*
X15922000Y-8563000D02*
X16022000Y-8563000D01*
X15972000Y-8767000D02*
X15972000Y-8867000D01*
X15922000Y-8817000D02*
X16022000Y-8817000D01*
X15972000Y-9021000D02*
X15972000Y-9121000D01*
X15922000Y-9071000D02*
X16022000Y-9071000D01*
X15972000Y-9275000D02*
X15972000Y-9375000D01*
X15922000Y-9325000D02*
X16022000Y-9325000D01*
X15972000Y-9529000D02*
X15972000Y-9629000D01*
X15922000Y-9579000D02*
X16022000Y-9579000D01*
X15972000Y-10037000D02*
X15972000Y-10137000D01*
X15922000Y-10087000D02*
X16022000Y-10087000D01*
X15972000Y-10291000D02*
X15972000Y-10391000D01*
X15922000Y-10341000D02*
X16022000Y-10341000D01*
X15972000Y-10545000D02*
X15972000Y-10645000D01*
X15922000Y-10595000D02*
X16022000Y-10595000D01*
X15972000Y-10799000D02*
X15972000Y-10899000D01*
X15922000Y-10849000D02*
X16022000Y-10849000D01*
X15972000Y-11053000D02*
X15972000Y-11153000D01*
X15922000Y-11103000D02*
X16022000Y-11103000D01*
X15972000Y-11307000D02*
X15972000Y-11407000D01*
X15922000Y-11357000D02*
X16022000Y-11357000D01*
X16226000Y-8259000D02*
X16226000Y-8359000D01*
X16176000Y-8309000D02*
X16276000Y-8309000D01*
X16226000Y-8513000D02*
X16226000Y-8613000D01*
X16176000Y-8563000D02*
X16276000Y-8563000D01*
X16226000Y-8767000D02*
X16226000Y-8867000D01*
X16176000Y-8817000D02*
X16276000Y-8817000D01*
X16226000Y-9021000D02*
X16226000Y-9121000D01*
X16176000Y-9071000D02*
X16276000Y-9071000D01*
X16226000Y-9275000D02*
X16226000Y-9375000D01*
X16176000Y-9325000D02*
X16276000Y-9325000D01*
X16226000Y-9529000D02*
X16226000Y-9629000D01*
X16176000Y-9579000D02*
X16276000Y-9579000D01*
X16226000Y-10037000D02*
X16226000Y-10137000D01*
X16176000Y-10087000D02*
X16276000Y-10087000D01*
X16226000Y-10291000D02*
X16226000Y-10391000D01*
X16176000Y-10341000D02*
X16276000Y-10341000D01*
X16226000Y-10545000D02*
X16226000Y-10645000D01*
X16176000Y-10595000D02*
X16276000Y-10595000D01*
X16226000Y-10799000D02*
X16226000Y-10899000D01*
X16176000Y-10849000D02*
X16276000Y-10849000D01*
X16226000Y-11053000D02*
X16226000Y-11153000D01*
X16176000Y-11103000D02*
X16276000Y-11103000D01*
X16226000Y-11307000D02*
X16226000Y-11407000D01*
X16176000Y-11357000D02*
X16276000Y-11357000D01*
X16480000Y-8259000D02*
X16480000Y-8359000D01*
X16430000Y-8309000D02*
X16530000Y-8309000D01*
X16480000Y-8513000D02*
X16480000Y-8613000D01*
X16430000Y-8563000D02*
X16530000Y-8563000D01*
X16480000Y-8767000D02*
X16480000Y-8867000D01*
X16430000Y-8817000D02*
X16530000Y-8817000D01*
X16480000Y-9021000D02*
X16480000Y-9121000D01*
X16430000Y-9071000D02*
X16530000Y-9071000D01*
X16480000Y-9275000D02*
X16480000Y-9375000D01*
X16430000Y-9325000D02*
X16530000Y-9325000D01*
X16480000Y-9529000D02*
X16480000Y-9629000D01*
X16430000Y-9579000D02*
X16530000Y-9579000D01*
X16480000Y-10037000D02*
X16480000Y-10137000D01*
X16430000Y-10087000D02*
X16530000Y-10087000D01*
X16480000Y-10291000D02*
X16480000Y-10391000D01*
X16430000Y-10341000D02*
X16530000Y-10341000D01*
X16480000Y-10545000D02*
X16480000Y-10645000D01*
X16430000Y-10595000D02*
X16530000Y-10595000D01*
X16480000Y-10799000D02*
X16480000Y-10899000D01*
X16430000Y-10849000D02*
X16530000Y-10849000D01*
X16480000Y-11053000D02*
X16480000Y-11153000D01*
X16430000Y-11103000D02*
X16530000Y-11103000D01*
X16480000Y-11307000D02*
X16480000Y-11407000D01*
X16430000Y-11357000D02*
X16530000Y-11357000D01*
X16734000Y-8259000D02*
X16734000Y-8359000D01*
X16684000Y-8309000D02*
X16784000Y-8309000D01*
X16734000Y-8513000D02*
X16734000Y-8613000D01*
X16684000Y-8563000D02*
X16784000Y-8563000D01*
X16734000Y-8767000D02*
X16734000Y-8867000D01*
X16684000Y-8817000D02*
X16784000Y-8817000D01*
X16734000Y-9021000D02*
X16734000Y-9121000D01*
X16684000Y-9071000D02*
X16784000Y-9071000D01*
X16734000Y-9275000D02*
X16734000Y-9375000D01*
X16684000Y-9325000D02*
X16784000Y-9325000D01*
X16734000Y-9529000D02*
X16734000Y-9629000D01*
X16684000Y-9579000D02*
X16784000Y-9579000D01*
X16734000Y-10037000D02*
X16734000Y-10137000D01*
X16684000Y-10087000D02*
X16784000Y-10087000D01*
X16734000Y-10291000D02*
X16734000Y-10391000D01*
X16684000Y-10341000D02*
X16784000Y-10341000D01*
X16734000Y-10545000D02*
X16734000Y-10645000D01*
X16684000Y-10595000D02*
X16784000Y-10595000D01*
X16734000Y-10799000D02*
X16734000Y-10899000D01*
X16684000Y-10849000D02*
X16784000Y-10849000D01*
X16734000Y-11053000D02*
X16734000Y-11153000D01*
X16684000Y-11103000D02*
X16784000Y-11103000D01*
X16734000Y-11307000D02*
X16734000Y-11407000D01*
X16684000Y-11357000D02*
X16784000Y-11357000D01*
X16988000Y-8259000D02*
X16988000Y-8359000D01*
X16938000Y-8309000D02*
X17038000Y-8309000D01*
X16988000Y-8513000D02*
X16988000Y-8613000D01*
X16938000Y-8563000D02*
X17038000Y-8563000D01*
X16988000Y-8767000D02*
X16988000Y-8867000D01*
X16938000Y-8817000D02*
X17038000Y-8817000D01*
X16988000Y-9021000D02*
X16988000Y-9121000D01*
X16938000Y-9071000D02*
X17038000Y-9071000D01*
X16988000Y-9275000D02*
X16988000Y-9375000D01*
X16938000Y-9325000D02*
X17038000Y-9325000D01*
X16988000Y-9529000D02*
X16988000Y-9629000D01*
X16938000Y-9579000D02*
X17038000Y-9579000D01*
X16988000Y-10037000D02*
X16988000Y-10137000D01*
X16938000Y-10087000D02*
X17038000Y-10087000D01*
X16988000Y-10291000D02*
X16988000Y-10391000D01*
X16938000Y-10341000D02*
X17038000Y-10341000D01*
X16988000Y-10545000D02*
X16988000Y-10645000D01*
X16938000Y-10595000D02*
X17038000Y-10595000D01*
X16988000Y-10799000D02*
X16988000Y-10899000D01*
X16938000Y-10849000D02*
X17038000Y-10849000D01*
X16988000Y-11053000D02*
X16988000Y-11153000D01*
X16938000Y-11103000D02*
X17038000Y-11103000D01*
X16988000Y-11307000D02*
X16988000Y-11407000D01*
X16938000Y-11357000D02*
X17038000Y-11357000D01*
X17242000Y-8259000D02*
X17242000Y-8359000D01*
X17192000Y-8309000D02*
X17292000Y-8309000D01*
X17242000Y-8513000D02*
X17242000Y-8613000D01*
X17192000Y-8563000D02*
X17292000Y-8563000D01*
X17242000Y-8767000D02*
X17242000Y-8867000D01*
X17192000Y-8817000D02*
X17292000Y-8817000D01*
X17242000Y-9021000D02*
X17242000Y-9121000D01*
X17192000Y-9071000D02*
X17292000Y-9071000D01*
X17242000Y-9275000D02*
X17242000Y-9375000D01*
X17192000Y-9325000D02*
X17292000Y-9325000D01*
X17242000Y-9529000D02*
X17242000Y-9629000D01*
X17192000Y-9579000D02*
X17292000Y-9579000D01*
X17242000Y-10037000D02*
X17242000Y-10137000D01*
X17192000Y-10087000D02*
X17292000Y-10087000D01*
X17242000Y-10291000D02*
X17242000Y-10391000D01*
X17192000Y-10341000D02*
X17292000Y-10341000D01*
X17242000Y-10545000D02*
X17242000Y-10645000D01*
X17192000Y-10595000D02*
X17292000Y-10595000D01*
X17242000Y-10799000D02*
X17242000Y-10899000D01*
X17192000Y-10849000D02*
X17292000Y-10849000D01*
X17242000Y-11053000D02*
X17242000Y-11153000D01*
X17192000Y-11103000D02*
X17292000Y-11103000D01*
X17242000Y-11307000D02*
X17242000Y-11407000D01*
X17192000Y-11357000D02*
X17292000Y-11357000D01*
X17496000Y-8259000D02*
X17496000Y-8359000D01*
X17446000Y-8309000D02*
X17546000Y-8309000D01*
X17496000Y-8513000D02*
X17496000Y-8613000D01*
X17446000Y-8563000D02*
X17546000Y-8563000D01*
X17496000Y-8767000D02*
X17496000Y-8867000D01*
X17446000Y-8817000D02*
X17546000Y-8817000D01*
X17496000Y-9021000D02*
X17496000Y-9121000D01*
X17446000Y-9071000D02*
X17546000Y-9071000D01*
X17496000Y-9275000D02*
X17496000Y-9375000D01*
X17446000Y-9325000D02*
X17546000Y-9325000D01*
X17496000Y-9529000D02*
X17496000Y-9629000D01*
X17446000Y-9579000D02*
X17546000Y-9579000D01*
X17496000Y-10037000D02*
X17496000Y-10137000D01*
X17446000Y-10087000D02*
X17546000Y-10087000D01*
X17496000Y-10291000D02*
X17496000Y-10391000D01*
X17446000Y-10341000D02*
X17546000Y-10341000D01*
X17496000Y-10545000D02*
X17496000Y-10645000D01*
X17446000Y-10595000D02*
X17546000Y-10595000D01*
X17496000Y-10799000D02*
X17496000Y-10899000D01*
X17446000Y-10849000D02*
X17546000Y-10849000D01*
X17496000Y-11053000D02*
X17496000Y-11153000D01*
X17446000Y-11103000D02*
X17546000Y-11103000D01*
X17496000Y-11307000D02*
X17496000Y-11407000D01*
X17446000Y-11357000D02*
X17546000Y-11357000D01*
X17750000Y-8259000D02*
X17750000Y-8359000D01*
X17700000Y-8309000D02*
X17800000Y-8309000D01*
X17750000Y-8513000D02*
X17750000Y-8613000D01*
X17700000Y-8563000D02*
X17800000Y-8563000D01*
X17750000Y-8767000D02*
X17750000Y-8867000D01*
X17700000Y-8817000D02*
X17800000Y-8817000D01*
X17750000Y-9021000D02*
X17750000Y-9121000D01*
X17700000Y-9071000D02*
X17800000Y-9071000D01*
X17750000Y-9275000D02*
X17750000Y-9375000D01*
X17700000Y-9325000D02*
X17800000Y-9325000D01*
X17750000Y-9529000D02*
X17750000Y-9629000D01*
X17700000Y-9579000D02*
X17800000Y-9579000D01*
X17750000Y-10037000D02*
X17750000Y-10137000D01*
X17700000Y-10087000D02*
X17800000Y-10087000D01*
X17750000Y-10291000D02*
X17750000Y-10391000D01*
X17700000Y-10341000D02*
X17800000Y-10341000D01*
X17750000Y-10545000D02*
X17750000Y-10645000D01*
X17700000Y-10595000D02*
X17800000Y-10595000D01*
X17750000Y-10799000D02*
X17750000Y-10899000D01*
X17700000Y-10849000D02*
X17800000Y-10849000D01*
X17750000Y-11053000D02*
X17750000Y-11153000D01*
X17700000Y-11103000D02*
X17800000Y-11103000D01*
X17750000Y-11307000D02*
X17750000Y-11407000D01*
X17700000Y-11357000D02*
X17800000Y-11357000D01*
D11*
X11765277Y-12136984D02*
X11765277Y-11936984D01*
X11765277Y-11936984D02*
X11812896Y-11936984D01*
X11812896Y-11936984D02*
X11841467Y-11946508D01*
X11841467Y-11946508D02*
X11860515Y-11965555D01*
X11860515Y-11965555D02*
X11870039Y-11984603D01*
X11870039Y-11984603D02*
X11879562Y-12022698D01*
X11879562Y-12022698D02*
X11879562Y-12051269D01*
X11879562Y-12051269D02*
X11870039Y-12089365D01*
X11870039Y-12089365D02*
X11860515Y-12108412D01*
X11860515Y-12108412D02*
X11841467Y-12127460D01*
X11841467Y-12127460D02*
X11812896Y-12136984D01*
X11812896Y-12136984D02*
X11765277Y-12136984D01*
X11965277Y-12136984D02*
X11965277Y-12003650D01*
X11965277Y-12041746D02*
X11974801Y-12022698D01*
X11974801Y-12022698D02*
X11984324Y-12013174D01*
X11984324Y-12013174D02*
X12003372Y-12003650D01*
X12003372Y-12003650D02*
X12022420Y-12003650D01*
X12089086Y-12136984D02*
X12089086Y-12003650D01*
X12089086Y-11936984D02*
X12079562Y-11946508D01*
X12079562Y-11946508D02*
X12089086Y-11956031D01*
X12089086Y-11956031D02*
X12098610Y-11946508D01*
X12098610Y-11946508D02*
X12089086Y-11936984D01*
X12089086Y-11936984D02*
X12089086Y-11956031D01*
X12212896Y-12136984D02*
X12193848Y-12127460D01*
X12193848Y-12127460D02*
X12184324Y-12108412D01*
X12184324Y-12108412D02*
X12184324Y-11936984D01*
X12317658Y-12136984D02*
X12298610Y-12127460D01*
X12298610Y-12127460D02*
X12289086Y-12108412D01*
X12289086Y-12108412D02*
X12289086Y-11936984D01*
X12546229Y-12136984D02*
X12546229Y-11936984D01*
X12546229Y-11936984D02*
X12612896Y-12079841D01*
X12612896Y-12079841D02*
X12679562Y-11936984D01*
X12679562Y-11936984D02*
X12679562Y-12136984D01*
X12860515Y-12136984D02*
X12860515Y-12032222D01*
X12860515Y-12032222D02*
X12850991Y-12013174D01*
X12850991Y-12013174D02*
X12831943Y-12003650D01*
X12831943Y-12003650D02*
X12793848Y-12003650D01*
X12793848Y-12003650D02*
X12774801Y-12013174D01*
X12860515Y-12127460D02*
X12841467Y-12136984D01*
X12841467Y-12136984D02*
X12793848Y-12136984D01*
X12793848Y-12136984D02*
X12774801Y-12127460D01*
X12774801Y-12127460D02*
X12765277Y-12108412D01*
X12765277Y-12108412D02*
X12765277Y-12089365D01*
X12765277Y-12089365D02*
X12774801Y-12070317D01*
X12774801Y-12070317D02*
X12793848Y-12060793D01*
X12793848Y-12060793D02*
X12841467Y-12060793D01*
X12841467Y-12060793D02*
X12860515Y-12051269D01*
X12955753Y-12003650D02*
X12955753Y-12203650D01*
X12955753Y-12013174D02*
X12974801Y-12003650D01*
X12974801Y-12003650D02*
X13012896Y-12003650D01*
X13012896Y-12003650D02*
X13031943Y-12013174D01*
X13031943Y-12013174D02*
X13041467Y-12022698D01*
X13041467Y-12022698D02*
X13050991Y-12041746D01*
X13050991Y-12041746D02*
X13050991Y-12098888D01*
X13050991Y-12098888D02*
X13041467Y-12117936D01*
X13041467Y-12117936D02*
X13031943Y-12127460D01*
X13031943Y-12127460D02*
X13012896Y-12136984D01*
X13012896Y-12136984D02*
X12974801Y-12136984D01*
X12974801Y-12136984D02*
X12955753Y-12127460D01*
X13136705Y-12117936D02*
X13146229Y-12127460D01*
X13146229Y-12127460D02*
X13136705Y-12136984D01*
X13136705Y-12136984D02*
X13127182Y-12127460D01*
X13127182Y-12127460D02*
X13136705Y-12117936D01*
X13136705Y-12117936D02*
X13136705Y-12136984D01*
X13136705Y-12013174D02*
X13146229Y-12022698D01*
X13146229Y-12022698D02*
X13136705Y-12032222D01*
X13136705Y-12032222D02*
X13127182Y-12022698D01*
X13127182Y-12022698D02*
X13136705Y-12013174D01*
X13136705Y-12013174D02*
X13136705Y-12032222D01*
D12*
X11474500Y-12450500D02*
X11504500Y-12480500D01*
X11504500Y-12450500D02*
X11474500Y-12480500D01*
D11*
X11803372Y-12356984D02*
X11822420Y-12356984D01*
X11822420Y-12356984D02*
X11841467Y-12366508D01*
X11841467Y-12366508D02*
X11850991Y-12376031D01*
X11850991Y-12376031D02*
X11860515Y-12395079D01*
X11860515Y-12395079D02*
X11870039Y-12433174D01*
X11870039Y-12433174D02*
X11870039Y-12480793D01*
X11870039Y-12480793D02*
X11860515Y-12518888D01*
X11860515Y-12518888D02*
X11850991Y-12537936D01*
X11850991Y-12537936D02*
X11841467Y-12547460D01*
X11841467Y-12547460D02*
X11822420Y-12556984D01*
X11822420Y-12556984D02*
X11803372Y-12556984D01*
X11803372Y-12556984D02*
X11784324Y-12547460D01*
X11784324Y-12547460D02*
X11774801Y-12537936D01*
X11774801Y-12537936D02*
X11765277Y-12518888D01*
X11765277Y-12518888D02*
X11755753Y-12480793D01*
X11755753Y-12480793D02*
X11755753Y-12433174D01*
X11755753Y-12433174D02*
X11765277Y-12395079D01*
X11765277Y-12395079D02*
X11774801Y-12376031D01*
X11774801Y-12376031D02*
X11784324Y-12366508D01*
X11784324Y-12366508D02*
X11803372Y-12356984D01*
X11955753Y-12537936D02*
X11965277Y-12547460D01*
X11965277Y-12547460D02*
X11955753Y-12556984D01*
X11955753Y-12556984D02*
X11946229Y-12547460D01*
X11946229Y-12547460D02*
X11955753Y-12537936D01*
X11955753Y-12537936D02*
X11955753Y-12556984D01*
X12031943Y-12356984D02*
X12155753Y-12356984D01*
X12155753Y-12356984D02*
X12089086Y-12433174D01*
X12089086Y-12433174D02*
X12117658Y-12433174D01*
X12117658Y-12433174D02*
X12136705Y-12442698D01*
X12136705Y-12442698D02*
X12146229Y-12452222D01*
X12146229Y-12452222D02*
X12155753Y-12471269D01*
X12155753Y-12471269D02*
X12155753Y-12518888D01*
X12155753Y-12518888D02*
X12146229Y-12537936D01*
X12146229Y-12537936D02*
X12136705Y-12547460D01*
X12136705Y-12547460D02*
X12117658Y-12556984D01*
X12117658Y-12556984D02*
X12060515Y-12556984D01*
X12060515Y-12556984D02*
X12041467Y-12547460D01*
X12041467Y-12547460D02*
X12031943Y-12537936D01*
X12279562Y-12356984D02*
X12298610Y-12356984D01*
X12298610Y-12356984D02*
X12317658Y-12366508D01*
X12317658Y-12366508D02*
X12327182Y-12376031D01*
X12327182Y-12376031D02*
X12336705Y-12395079D01*
X12336705Y-12395079D02*
X12346229Y-12433174D01*
X12346229Y-12433174D02*
X12346229Y-12480793D01*
X12346229Y-12480793D02*
X12336705Y-12518888D01*
X12336705Y-12518888D02*
X12327182Y-12537936D01*
X12327182Y-12537936D02*
X12317658Y-12547460D01*
X12317658Y-12547460D02*
X12298610Y-12556984D01*
X12298610Y-12556984D02*
X12279562Y-12556984D01*
X12279562Y-12556984D02*
X12260515Y-12547460D01*
X12260515Y-12547460D02*
X12250991Y-12537936D01*
X12250991Y-12537936D02*
X12241467Y-12518888D01*
X12241467Y-12518888D02*
X12231943Y-12480793D01*
X12231943Y-12480793D02*
X12231943Y-12433174D01*
X12231943Y-12433174D02*
X12241467Y-12395079D01*
X12241467Y-12395079D02*
X12250991Y-12376031D01*
X12250991Y-12376031D02*
X12260515Y-12366508D01*
X12260515Y-12366508D02*
X12279562Y-12356984D01*
X12470039Y-12356984D02*
X12489086Y-12356984D01*
X12489086Y-12356984D02*
X12508134Y-12366508D01*
X12508134Y-12366508D02*
X12517658Y-12376031D01*
X12517658Y-12376031D02*
X12527182Y-12395079D01*
X12527182Y-12395079D02*
X12536705Y-12433174D01*
X12536705Y-12433174D02*
X12536705Y-12480793D01*
X12536705Y-12480793D02*
X12527182Y-12518888D01*
X12527182Y-12518888D02*
X12517658Y-12537936D01*
X12517658Y-12537936D02*
X12508134Y-12547460D01*
X12508134Y-12547460D02*
X12489086Y-12556984D01*
X12489086Y-12556984D02*
X12470039Y-12556984D01*
X12470039Y-12556984D02*
X12450991Y-12547460D01*
X12450991Y-12547460D02*
X12441467Y-12537936D01*
X12441467Y-12537936D02*
X12431943Y-12518888D01*
X12431943Y-12518888D02*
X12422420Y-12480793D01*
X12422420Y-12480793D02*
X12422420Y-12433174D01*
X12422420Y-12433174D02*
X12431943Y-12395079D01*
X12431943Y-12395079D02*
X12441467Y-12376031D01*
X12441467Y-12376031D02*
X12450991Y-12366508D01*
X12450991Y-12366508D02*
X12470039Y-12356984D01*
X12622420Y-12556984D02*
X12622420Y-12423650D01*
X12622420Y-12442698D02*
X12631943Y-12433174D01*
X12631943Y-12433174D02*
X12650991Y-12423650D01*
X12650991Y-12423650D02*
X12679563Y-12423650D01*
X12679563Y-12423650D02*
X12698610Y-12433174D01*
X12698610Y-12433174D02*
X12708134Y-12452222D01*
X12708134Y-12452222D02*
X12708134Y-12556984D01*
X12708134Y-12452222D02*
X12717658Y-12433174D01*
X12717658Y-12433174D02*
X12736705Y-12423650D01*
X12736705Y-12423650D02*
X12765277Y-12423650D01*
X12765277Y-12423650D02*
X12784324Y-12433174D01*
X12784324Y-12433174D02*
X12793848Y-12452222D01*
X12793848Y-12452222D02*
X12793848Y-12556984D01*
X12889086Y-12556984D02*
X12889086Y-12423650D01*
X12889086Y-12442698D02*
X12898610Y-12433174D01*
X12898610Y-12433174D02*
X12917658Y-12423650D01*
X12917658Y-12423650D02*
X12946229Y-12423650D01*
X12946229Y-12423650D02*
X12965277Y-12433174D01*
X12965277Y-12433174D02*
X12974801Y-12452222D01*
X12974801Y-12452222D02*
X12974801Y-12556984D01*
X12974801Y-12452222D02*
X12984324Y-12433174D01*
X12984324Y-12433174D02*
X13003372Y-12423650D01*
X13003372Y-12423650D02*
X13031943Y-12423650D01*
X13031943Y-12423650D02*
X13050991Y-12433174D01*
X13050991Y-12433174D02*
X13060515Y-12452222D01*
X13060515Y-12452222D02*
X13060515Y-12556984D01*
X13450991Y-12347460D02*
X13279563Y-12604603D01*
X13708134Y-12356984D02*
X13727182Y-12356984D01*
X13727182Y-12356984D02*
X13746229Y-12366508D01*
X13746229Y-12366508D02*
X13755753Y-12376031D01*
X13755753Y-12376031D02*
X13765277Y-12395079D01*
X13765277Y-12395079D02*
X13774801Y-12433174D01*
X13774801Y-12433174D02*
X13774801Y-12480793D01*
X13774801Y-12480793D02*
X13765277Y-12518888D01*
X13765277Y-12518888D02*
X13755753Y-12537936D01*
X13755753Y-12537936D02*
X13746229Y-12547460D01*
X13746229Y-12547460D02*
X13727182Y-12556984D01*
X13727182Y-12556984D02*
X13708134Y-12556984D01*
X13708134Y-12556984D02*
X13689086Y-12547460D01*
X13689086Y-12547460D02*
X13679563Y-12537936D01*
X13679563Y-12537936D02*
X13670039Y-12518888D01*
X13670039Y-12518888D02*
X13660515Y-12480793D01*
X13660515Y-12480793D02*
X13660515Y-12433174D01*
X13660515Y-12433174D02*
X13670039Y-12395079D01*
X13670039Y-12395079D02*
X13679563Y-12376031D01*
X13679563Y-12376031D02*
X13689086Y-12366508D01*
X13689086Y-12366508D02*
X13708134Y-12356984D01*
X13860515Y-12537936D02*
X13870039Y-12547460D01*
X13870039Y-12547460D02*
X13860515Y-12556984D01*
X13860515Y-12556984D02*
X13850991Y-12547460D01*
X13850991Y-12547460D02*
X13860515Y-12537936D01*
X13860515Y-12537936D02*
X13860515Y-12556984D01*
X13993848Y-12356984D02*
X14012896Y-12356984D01*
X14012896Y-12356984D02*
X14031944Y-12366508D01*
X14031944Y-12366508D02*
X14041467Y-12376031D01*
X14041467Y-12376031D02*
X14050991Y-12395079D01*
X14050991Y-12395079D02*
X14060515Y-12433174D01*
X14060515Y-12433174D02*
X14060515Y-12480793D01*
X14060515Y-12480793D02*
X14050991Y-12518888D01*
X14050991Y-12518888D02*
X14041467Y-12537936D01*
X14041467Y-12537936D02*
X14031944Y-12547460D01*
X14031944Y-12547460D02*
X14012896Y-12556984D01*
X14012896Y-12556984D02*
X13993848Y-12556984D01*
X13993848Y-12556984D02*
X13974801Y-12547460D01*
X13974801Y-12547460D02*
X13965277Y-12537936D01*
X13965277Y-12537936D02*
X13955753Y-12518888D01*
X13955753Y-12518888D02*
X13946229Y-12480793D01*
X13946229Y-12480793D02*
X13946229Y-12433174D01*
X13946229Y-12433174D02*
X13955753Y-12395079D01*
X13955753Y-12395079D02*
X13965277Y-12376031D01*
X13965277Y-12376031D02*
X13974801Y-12366508D01*
X13974801Y-12366508D02*
X13993848Y-12356984D01*
X14250991Y-12556984D02*
X14136706Y-12556984D01*
X14193848Y-12556984D02*
X14193848Y-12356984D01*
X14193848Y-12356984D02*
X14174801Y-12385555D01*
X14174801Y-12385555D02*
X14155753Y-12404603D01*
X14155753Y-12404603D02*
X14136706Y-12414127D01*
X14441467Y-12556984D02*
X14327182Y-12556984D01*
X14384325Y-12556984D02*
X14384325Y-12356984D01*
X14384325Y-12356984D02*
X14365277Y-12385555D01*
X14365277Y-12385555D02*
X14346229Y-12404603D01*
X14346229Y-12404603D02*
X14327182Y-12414127D01*
X14555753Y-12442698D02*
X14536706Y-12433174D01*
X14536706Y-12433174D02*
X14527182Y-12423650D01*
X14527182Y-12423650D02*
X14517658Y-12404603D01*
X14517658Y-12404603D02*
X14517658Y-12395079D01*
X14517658Y-12395079D02*
X14527182Y-12376031D01*
X14527182Y-12376031D02*
X14536706Y-12366508D01*
X14536706Y-12366508D02*
X14555753Y-12356984D01*
X14555753Y-12356984D02*
X14593848Y-12356984D01*
X14593848Y-12356984D02*
X14612896Y-12366508D01*
X14612896Y-12366508D02*
X14622420Y-12376031D01*
X14622420Y-12376031D02*
X14631944Y-12395079D01*
X14631944Y-12395079D02*
X14631944Y-12404603D01*
X14631944Y-12404603D02*
X14622420Y-12423650D01*
X14622420Y-12423650D02*
X14612896Y-12433174D01*
X14612896Y-12433174D02*
X14593848Y-12442698D01*
X14593848Y-12442698D02*
X14555753Y-12442698D01*
X14555753Y-12442698D02*
X14536706Y-12452222D01*
X14536706Y-12452222D02*
X14527182Y-12461746D01*
X14527182Y-12461746D02*
X14517658Y-12480793D01*
X14517658Y-12480793D02*
X14517658Y-12518888D01*
X14517658Y-12518888D02*
X14527182Y-12537936D01*
X14527182Y-12537936D02*
X14536706Y-12547460D01*
X14536706Y-12547460D02*
X14555753Y-12556984D01*
X14555753Y-12556984D02*
X14593848Y-12556984D01*
X14593848Y-12556984D02*
X14612896Y-12547460D01*
X14612896Y-12547460D02*
X14622420Y-12537936D01*
X14622420Y-12537936D02*
X14631944Y-12518888D01*
X14631944Y-12518888D02*
X14631944Y-12480793D01*
X14631944Y-12480793D02*
X14622420Y-12461746D01*
X14622420Y-12461746D02*
X14612896Y-12452222D01*
X14612896Y-12452222D02*
X14593848Y-12442698D01*
X14708134Y-12356984D02*
X14708134Y-12395079D01*
X14784325Y-12356984D02*
X14784325Y-12395079D01*
X15079563Y-12633174D02*
X15070039Y-12623650D01*
X15070039Y-12623650D02*
X15050991Y-12595079D01*
X15050991Y-12595079D02*
X15041468Y-12576031D01*
X15041468Y-12576031D02*
X15031944Y-12547460D01*
X15031944Y-12547460D02*
X15022420Y-12499841D01*
X15022420Y-12499841D02*
X15022420Y-12461746D01*
X15022420Y-12461746D02*
X15031944Y-12414127D01*
X15031944Y-12414127D02*
X15041468Y-12385555D01*
X15041468Y-12385555D02*
X15050991Y-12366508D01*
X15050991Y-12366508D02*
X15070039Y-12337936D01*
X15070039Y-12337936D02*
X15079563Y-12328412D01*
X15260515Y-12556984D02*
X15146229Y-12556984D01*
X15203372Y-12556984D02*
X15203372Y-12356984D01*
X15203372Y-12356984D02*
X15184325Y-12385555D01*
X15184325Y-12385555D02*
X15165277Y-12404603D01*
X15165277Y-12404603D02*
X15146229Y-12414127D01*
X15498610Y-12556984D02*
X15498610Y-12356984D01*
X15584325Y-12556984D02*
X15584325Y-12452222D01*
X15584325Y-12452222D02*
X15574801Y-12433174D01*
X15574801Y-12433174D02*
X15555753Y-12423650D01*
X15555753Y-12423650D02*
X15527182Y-12423650D01*
X15527182Y-12423650D02*
X15508134Y-12433174D01*
X15508134Y-12433174D02*
X15498610Y-12442698D01*
X15708134Y-12556984D02*
X15689087Y-12547460D01*
X15689087Y-12547460D02*
X15679563Y-12537936D01*
X15679563Y-12537936D02*
X15670039Y-12518888D01*
X15670039Y-12518888D02*
X15670039Y-12461746D01*
X15670039Y-12461746D02*
X15679563Y-12442698D01*
X15679563Y-12442698D02*
X15689087Y-12433174D01*
X15689087Y-12433174D02*
X15708134Y-12423650D01*
X15708134Y-12423650D02*
X15736706Y-12423650D01*
X15736706Y-12423650D02*
X15755753Y-12433174D01*
X15755753Y-12433174D02*
X15765277Y-12442698D01*
X15765277Y-12442698D02*
X15774801Y-12461746D01*
X15774801Y-12461746D02*
X15774801Y-12518888D01*
X15774801Y-12518888D02*
X15765277Y-12537936D01*
X15765277Y-12537936D02*
X15755753Y-12547460D01*
X15755753Y-12547460D02*
X15736706Y-12556984D01*
X15736706Y-12556984D02*
X15708134Y-12556984D01*
X15889087Y-12556984D02*
X15870039Y-12547460D01*
X15870039Y-12547460D02*
X15860515Y-12528412D01*
X15860515Y-12528412D02*
X15860515Y-12356984D01*
X16041468Y-12547460D02*
X16022420Y-12556984D01*
X16022420Y-12556984D02*
X15984325Y-12556984D01*
X15984325Y-12556984D02*
X15965277Y-12547460D01*
X15965277Y-12547460D02*
X15955753Y-12528412D01*
X15955753Y-12528412D02*
X15955753Y-12452222D01*
X15955753Y-12452222D02*
X15965277Y-12433174D01*
X15965277Y-12433174D02*
X15984325Y-12423650D01*
X15984325Y-12423650D02*
X16022420Y-12423650D01*
X16022420Y-12423650D02*
X16041468Y-12433174D01*
X16041468Y-12433174D02*
X16050991Y-12452222D01*
X16050991Y-12452222D02*
X16050991Y-12471269D01*
X16050991Y-12471269D02*
X15955753Y-12490317D01*
X16117658Y-12633174D02*
X16127182Y-12623650D01*
X16127182Y-12623650D02*
X16146230Y-12595079D01*
X16146230Y-12595079D02*
X16155753Y-12576031D01*
X16155753Y-12576031D02*
X16165277Y-12547460D01*
X16165277Y-12547460D02*
X16174801Y-12499841D01*
X16174801Y-12499841D02*
X16174801Y-12461746D01*
X16174801Y-12461746D02*
X16165277Y-12414127D01*
X16165277Y-12414127D02*
X16155753Y-12385555D01*
X16155753Y-12385555D02*
X16146230Y-12366508D01*
X16146230Y-12366508D02*
X16127182Y-12337936D01*
X16127182Y-12337936D02*
X16117658Y-12328412D01*
D12*
X11504500Y-12729500D02*
G75*
G02*
X11434500Y-12729500I-35000J0D01*
G01*
X11434500Y-12729500D02*
G75*
G02*
X11504500Y-12729500I35000J0D01*
G01*
D11*
X11803372Y-12620984D02*
X11822420Y-12620984D01*
X11822420Y-12620984D02*
X11841467Y-12630508D01*
X11841467Y-12630508D02*
X11850991Y-12640031D01*
X11850991Y-12640031D02*
X11860515Y-12659079D01*
X11860515Y-12659079D02*
X11870039Y-12697174D01*
X11870039Y-12697174D02*
X11870039Y-12744793D01*
X11870039Y-12744793D02*
X11860515Y-12782888D01*
X11860515Y-12782888D02*
X11850991Y-12801936D01*
X11850991Y-12801936D02*
X11841467Y-12811460D01*
X11841467Y-12811460D02*
X11822420Y-12820984D01*
X11822420Y-12820984D02*
X11803372Y-12820984D01*
X11803372Y-12820984D02*
X11784324Y-12811460D01*
X11784324Y-12811460D02*
X11774801Y-12801936D01*
X11774801Y-12801936D02*
X11765277Y-12782888D01*
X11765277Y-12782888D02*
X11755753Y-12744793D01*
X11755753Y-12744793D02*
X11755753Y-12697174D01*
X11755753Y-12697174D02*
X11765277Y-12659079D01*
X11765277Y-12659079D02*
X11774801Y-12640031D01*
X11774801Y-12640031D02*
X11784324Y-12630508D01*
X11784324Y-12630508D02*
X11803372Y-12620984D01*
X11955753Y-12801936D02*
X11965277Y-12811460D01*
X11965277Y-12811460D02*
X11955753Y-12820984D01*
X11955753Y-12820984D02*
X11946229Y-12811460D01*
X11946229Y-12811460D02*
X11955753Y-12801936D01*
X11955753Y-12801936D02*
X11955753Y-12820984D01*
X12031943Y-12620984D02*
X12165277Y-12620984D01*
X12165277Y-12620984D02*
X12079562Y-12820984D01*
X12279562Y-12620984D02*
X12298610Y-12620984D01*
X12298610Y-12620984D02*
X12317658Y-12630508D01*
X12317658Y-12630508D02*
X12327182Y-12640031D01*
X12327182Y-12640031D02*
X12336705Y-12659079D01*
X12336705Y-12659079D02*
X12346229Y-12697174D01*
X12346229Y-12697174D02*
X12346229Y-12744793D01*
X12346229Y-12744793D02*
X12336705Y-12782888D01*
X12336705Y-12782888D02*
X12327182Y-12801936D01*
X12327182Y-12801936D02*
X12317658Y-12811460D01*
X12317658Y-12811460D02*
X12298610Y-12820984D01*
X12298610Y-12820984D02*
X12279562Y-12820984D01*
X12279562Y-12820984D02*
X12260515Y-12811460D01*
X12260515Y-12811460D02*
X12250991Y-12801936D01*
X12250991Y-12801936D02*
X12241467Y-12782888D01*
X12241467Y-12782888D02*
X12231943Y-12744793D01*
X12231943Y-12744793D02*
X12231943Y-12697174D01*
X12231943Y-12697174D02*
X12241467Y-12659079D01*
X12241467Y-12659079D02*
X12250991Y-12640031D01*
X12250991Y-12640031D02*
X12260515Y-12630508D01*
X12260515Y-12630508D02*
X12279562Y-12620984D01*
X12470039Y-12620984D02*
X12489086Y-12620984D01*
X12489086Y-12620984D02*
X12508134Y-12630508D01*
X12508134Y-12630508D02*
X12517658Y-12640031D01*
X12517658Y-12640031D02*
X12527182Y-12659079D01*
X12527182Y-12659079D02*
X12536705Y-12697174D01*
X12536705Y-12697174D02*
X12536705Y-12744793D01*
X12536705Y-12744793D02*
X12527182Y-12782888D01*
X12527182Y-12782888D02*
X12517658Y-12801936D01*
X12517658Y-12801936D02*
X12508134Y-12811460D01*
X12508134Y-12811460D02*
X12489086Y-12820984D01*
X12489086Y-12820984D02*
X12470039Y-12820984D01*
X12470039Y-12820984D02*
X12450991Y-12811460D01*
X12450991Y-12811460D02*
X12441467Y-12801936D01*
X12441467Y-12801936D02*
X12431943Y-12782888D01*
X12431943Y-12782888D02*
X12422420Y-12744793D01*
X12422420Y-12744793D02*
X12422420Y-12697174D01*
X12422420Y-12697174D02*
X12431943Y-12659079D01*
X12431943Y-12659079D02*
X12441467Y-12640031D01*
X12441467Y-12640031D02*
X12450991Y-12630508D01*
X12450991Y-12630508D02*
X12470039Y-12620984D01*
X12622420Y-12820984D02*
X12622420Y-12687650D01*
X12622420Y-12706698D02*
X12631943Y-12697174D01*
X12631943Y-12697174D02*
X12650991Y-12687650D01*
X12650991Y-12687650D02*
X12679563Y-12687650D01*
X12679563Y-12687650D02*
X12698610Y-12697174D01*
X12698610Y-12697174D02*
X12708134Y-12716222D01*
X12708134Y-12716222D02*
X12708134Y-12820984D01*
X12708134Y-12716222D02*
X12717658Y-12697174D01*
X12717658Y-12697174D02*
X12736705Y-12687650D01*
X12736705Y-12687650D02*
X12765277Y-12687650D01*
X12765277Y-12687650D02*
X12784324Y-12697174D01*
X12784324Y-12697174D02*
X12793848Y-12716222D01*
X12793848Y-12716222D02*
X12793848Y-12820984D01*
X12889086Y-12820984D02*
X12889086Y-12687650D01*
X12889086Y-12706698D02*
X12898610Y-12697174D01*
X12898610Y-12697174D02*
X12917658Y-12687650D01*
X12917658Y-12687650D02*
X12946229Y-12687650D01*
X12946229Y-12687650D02*
X12965277Y-12697174D01*
X12965277Y-12697174D02*
X12974801Y-12716222D01*
X12974801Y-12716222D02*
X12974801Y-12820984D01*
X12974801Y-12716222D02*
X12984324Y-12697174D01*
X12984324Y-12697174D02*
X13003372Y-12687650D01*
X13003372Y-12687650D02*
X13031943Y-12687650D01*
X13031943Y-12687650D02*
X13050991Y-12697174D01*
X13050991Y-12697174D02*
X13060515Y-12716222D01*
X13060515Y-12716222D02*
X13060515Y-12820984D01*
X13450991Y-12611460D02*
X13279563Y-12868603D01*
X13708134Y-12620984D02*
X13727182Y-12620984D01*
X13727182Y-12620984D02*
X13746229Y-12630508D01*
X13746229Y-12630508D02*
X13755753Y-12640031D01*
X13755753Y-12640031D02*
X13765277Y-12659079D01*
X13765277Y-12659079D02*
X13774801Y-12697174D01*
X13774801Y-12697174D02*
X13774801Y-12744793D01*
X13774801Y-12744793D02*
X13765277Y-12782888D01*
X13765277Y-12782888D02*
X13755753Y-12801936D01*
X13755753Y-12801936D02*
X13746229Y-12811460D01*
X13746229Y-12811460D02*
X13727182Y-12820984D01*
X13727182Y-12820984D02*
X13708134Y-12820984D01*
X13708134Y-12820984D02*
X13689086Y-12811460D01*
X13689086Y-12811460D02*
X13679563Y-12801936D01*
X13679563Y-12801936D02*
X13670039Y-12782888D01*
X13670039Y-12782888D02*
X13660515Y-12744793D01*
X13660515Y-12744793D02*
X13660515Y-12697174D01*
X13660515Y-12697174D02*
X13670039Y-12659079D01*
X13670039Y-12659079D02*
X13679563Y-12640031D01*
X13679563Y-12640031D02*
X13689086Y-12630508D01*
X13689086Y-12630508D02*
X13708134Y-12620984D01*
X13860515Y-12801936D02*
X13870039Y-12811460D01*
X13870039Y-12811460D02*
X13860515Y-12820984D01*
X13860515Y-12820984D02*
X13850991Y-12811460D01*
X13850991Y-12811460D02*
X13860515Y-12801936D01*
X13860515Y-12801936D02*
X13860515Y-12820984D01*
X13993848Y-12620984D02*
X14012896Y-12620984D01*
X14012896Y-12620984D02*
X14031944Y-12630508D01*
X14031944Y-12630508D02*
X14041467Y-12640031D01*
X14041467Y-12640031D02*
X14050991Y-12659079D01*
X14050991Y-12659079D02*
X14060515Y-12697174D01*
X14060515Y-12697174D02*
X14060515Y-12744793D01*
X14060515Y-12744793D02*
X14050991Y-12782888D01*
X14050991Y-12782888D02*
X14041467Y-12801936D01*
X14041467Y-12801936D02*
X14031944Y-12811460D01*
X14031944Y-12811460D02*
X14012896Y-12820984D01*
X14012896Y-12820984D02*
X13993848Y-12820984D01*
X13993848Y-12820984D02*
X13974801Y-12811460D01*
X13974801Y-12811460D02*
X13965277Y-12801936D01*
X13965277Y-12801936D02*
X13955753Y-12782888D01*
X13955753Y-12782888D02*
X13946229Y-12744793D01*
X13946229Y-12744793D02*
X13946229Y-12697174D01*
X13946229Y-12697174D02*
X13955753Y-12659079D01*
X13955753Y-12659079D02*
X13965277Y-12640031D01*
X13965277Y-12640031D02*
X13974801Y-12630508D01*
X13974801Y-12630508D02*
X13993848Y-12620984D01*
X14136706Y-12640031D02*
X14146229Y-12630508D01*
X14146229Y-12630508D02*
X14165277Y-12620984D01*
X14165277Y-12620984D02*
X14212896Y-12620984D01*
X14212896Y-12620984D02*
X14231944Y-12630508D01*
X14231944Y-12630508D02*
X14241467Y-12640031D01*
X14241467Y-12640031D02*
X14250991Y-12659079D01*
X14250991Y-12659079D02*
X14250991Y-12678127D01*
X14250991Y-12678127D02*
X14241467Y-12706698D01*
X14241467Y-12706698D02*
X14127182Y-12820984D01*
X14127182Y-12820984D02*
X14250991Y-12820984D01*
X14317658Y-12620984D02*
X14450991Y-12620984D01*
X14450991Y-12620984D02*
X14365277Y-12820984D01*
X14612896Y-12620984D02*
X14574801Y-12620984D01*
X14574801Y-12620984D02*
X14555753Y-12630508D01*
X14555753Y-12630508D02*
X14546229Y-12640031D01*
X14546229Y-12640031D02*
X14527182Y-12668603D01*
X14527182Y-12668603D02*
X14517658Y-12706698D01*
X14517658Y-12706698D02*
X14517658Y-12782888D01*
X14517658Y-12782888D02*
X14527182Y-12801936D01*
X14527182Y-12801936D02*
X14536706Y-12811460D01*
X14536706Y-12811460D02*
X14555753Y-12820984D01*
X14555753Y-12820984D02*
X14593848Y-12820984D01*
X14593848Y-12820984D02*
X14612896Y-12811460D01*
X14612896Y-12811460D02*
X14622420Y-12801936D01*
X14622420Y-12801936D02*
X14631944Y-12782888D01*
X14631944Y-12782888D02*
X14631944Y-12735269D01*
X14631944Y-12735269D02*
X14622420Y-12716222D01*
X14622420Y-12716222D02*
X14612896Y-12706698D01*
X14612896Y-12706698D02*
X14593848Y-12697174D01*
X14593848Y-12697174D02*
X14555753Y-12697174D01*
X14555753Y-12697174D02*
X14536706Y-12706698D01*
X14536706Y-12706698D02*
X14527182Y-12716222D01*
X14527182Y-12716222D02*
X14517658Y-12735269D01*
X14708134Y-12620984D02*
X14708134Y-12659079D01*
X14784325Y-12620984D02*
X14784325Y-12659079D01*
X15079563Y-12897174D02*
X15070039Y-12887650D01*
X15070039Y-12887650D02*
X15050991Y-12859079D01*
X15050991Y-12859079D02*
X15041468Y-12840031D01*
X15041468Y-12840031D02*
X15031944Y-12811460D01*
X15031944Y-12811460D02*
X15022420Y-12763841D01*
X15022420Y-12763841D02*
X15022420Y-12725746D01*
X15022420Y-12725746D02*
X15031944Y-12678127D01*
X15031944Y-12678127D02*
X15041468Y-12649555D01*
X15041468Y-12649555D02*
X15050991Y-12630508D01*
X15050991Y-12630508D02*
X15070039Y-12601936D01*
X15070039Y-12601936D02*
X15079563Y-12592412D01*
X15260515Y-12820984D02*
X15146229Y-12820984D01*
X15203372Y-12820984D02*
X15203372Y-12620984D01*
X15203372Y-12620984D02*
X15184325Y-12649555D01*
X15184325Y-12649555D02*
X15165277Y-12668603D01*
X15165277Y-12668603D02*
X15146229Y-12678127D01*
X15498610Y-12820984D02*
X15498610Y-12620984D01*
X15584325Y-12820984D02*
X15584325Y-12716222D01*
X15584325Y-12716222D02*
X15574801Y-12697174D01*
X15574801Y-12697174D02*
X15555753Y-12687650D01*
X15555753Y-12687650D02*
X15527182Y-12687650D01*
X15527182Y-12687650D02*
X15508134Y-12697174D01*
X15508134Y-12697174D02*
X15498610Y-12706698D01*
X15708134Y-12820984D02*
X15689087Y-12811460D01*
X15689087Y-12811460D02*
X15679563Y-12801936D01*
X15679563Y-12801936D02*
X15670039Y-12782888D01*
X15670039Y-12782888D02*
X15670039Y-12725746D01*
X15670039Y-12725746D02*
X15679563Y-12706698D01*
X15679563Y-12706698D02*
X15689087Y-12697174D01*
X15689087Y-12697174D02*
X15708134Y-12687650D01*
X15708134Y-12687650D02*
X15736706Y-12687650D01*
X15736706Y-12687650D02*
X15755753Y-12697174D01*
X15755753Y-12697174D02*
X15765277Y-12706698D01*
X15765277Y-12706698D02*
X15774801Y-12725746D01*
X15774801Y-12725746D02*
X15774801Y-12782888D01*
X15774801Y-12782888D02*
X15765277Y-12801936D01*
X15765277Y-12801936D02*
X15755753Y-12811460D01*
X15755753Y-12811460D02*
X15736706Y-12820984D01*
X15736706Y-12820984D02*
X15708134Y-12820984D01*
X15889087Y-12820984D02*
X15870039Y-12811460D01*
X15870039Y-12811460D02*
X15860515Y-12792412D01*
X15860515Y-12792412D02*
X15860515Y-12620984D01*
X16041468Y-12811460D02*
X16022420Y-12820984D01*
X16022420Y-12820984D02*
X15984325Y-12820984D01*
X15984325Y-12820984D02*
X15965277Y-12811460D01*
X15965277Y-12811460D02*
X15955753Y-12792412D01*
X15955753Y-12792412D02*
X15955753Y-12716222D01*
X15955753Y-12716222D02*
X15965277Y-12697174D01*
X15965277Y-12697174D02*
X15984325Y-12687650D01*
X15984325Y-12687650D02*
X16022420Y-12687650D01*
X16022420Y-12687650D02*
X16041468Y-12697174D01*
X16041468Y-12697174D02*
X16050991Y-12716222D01*
X16050991Y-12716222D02*
X16050991Y-12735269D01*
X16050991Y-12735269D02*
X15955753Y-12754317D01*
X16117658Y-12897174D02*
X16127182Y-12887650D01*
X16127182Y-12887650D02*
X16146230Y-12859079D01*
X16146230Y-12859079D02*
X16155753Y-12840031D01*
X16155753Y-12840031D02*
X16165277Y-12811460D01*
X16165277Y-12811460D02*
X16174801Y-12763841D01*
X16174801Y-12763841D02*
X16174801Y-12725746D01*
X16174801Y-12725746D02*
X16165277Y-12678127D01*
X16165277Y-12678127D02*
X16155753Y-12649555D01*
X16155753Y-12649555D02*
X16146230Y-12630508D01*
X16146230Y-12630508D02*
X16127182Y-12601936D01*
X16127182Y-12601936D02*
X16117658Y-12592412D01*
D12*
X11454500Y-12943500D02*
X11454500Y-13043500D01*
X11404500Y-12993500D02*
X11504500Y-12993500D01*
D11*
X11870039Y-13084984D02*
X11755753Y-13084984D01*
X11812896Y-13084984D02*
X11812896Y-12884984D01*
X11812896Y-12884984D02*
X11793848Y-12913555D01*
X11793848Y-12913555D02*
X11774801Y-12932603D01*
X11774801Y-12932603D02*
X11755753Y-12942127D01*
X11955753Y-13065936D02*
X11965277Y-13075460D01*
X11965277Y-13075460D02*
X11955753Y-13084984D01*
X11955753Y-13084984D02*
X11946229Y-13075460D01*
X11946229Y-13075460D02*
X11955753Y-13065936D01*
X11955753Y-13065936D02*
X11955753Y-13084984D01*
X12089086Y-12884984D02*
X12108134Y-12884984D01*
X12108134Y-12884984D02*
X12127182Y-12894508D01*
X12127182Y-12894508D02*
X12136705Y-12904031D01*
X12136705Y-12904031D02*
X12146229Y-12923079D01*
X12146229Y-12923079D02*
X12155753Y-12961174D01*
X12155753Y-12961174D02*
X12155753Y-13008793D01*
X12155753Y-13008793D02*
X12146229Y-13046888D01*
X12146229Y-13046888D02*
X12136705Y-13065936D01*
X12136705Y-13065936D02*
X12127182Y-13075460D01*
X12127182Y-13075460D02*
X12108134Y-13084984D01*
X12108134Y-13084984D02*
X12089086Y-13084984D01*
X12089086Y-13084984D02*
X12070039Y-13075460D01*
X12070039Y-13075460D02*
X12060515Y-13065936D01*
X12060515Y-13065936D02*
X12050991Y-13046888D01*
X12050991Y-13046888D02*
X12041467Y-13008793D01*
X12041467Y-13008793D02*
X12041467Y-12961174D01*
X12041467Y-12961174D02*
X12050991Y-12923079D01*
X12050991Y-12923079D02*
X12060515Y-12904031D01*
X12060515Y-12904031D02*
X12070039Y-12894508D01*
X12070039Y-12894508D02*
X12089086Y-12884984D01*
X12279562Y-12884984D02*
X12298610Y-12884984D01*
X12298610Y-12884984D02*
X12317658Y-12894508D01*
X12317658Y-12894508D02*
X12327182Y-12904031D01*
X12327182Y-12904031D02*
X12336705Y-12923079D01*
X12336705Y-12923079D02*
X12346229Y-12961174D01*
X12346229Y-12961174D02*
X12346229Y-13008793D01*
X12346229Y-13008793D02*
X12336705Y-13046888D01*
X12336705Y-13046888D02*
X12327182Y-13065936D01*
X12327182Y-13065936D02*
X12317658Y-13075460D01*
X12317658Y-13075460D02*
X12298610Y-13084984D01*
X12298610Y-13084984D02*
X12279562Y-13084984D01*
X12279562Y-13084984D02*
X12260515Y-13075460D01*
X12260515Y-13075460D02*
X12250991Y-13065936D01*
X12250991Y-13065936D02*
X12241467Y-13046888D01*
X12241467Y-13046888D02*
X12231943Y-13008793D01*
X12231943Y-13008793D02*
X12231943Y-12961174D01*
X12231943Y-12961174D02*
X12241467Y-12923079D01*
X12241467Y-12923079D02*
X12250991Y-12904031D01*
X12250991Y-12904031D02*
X12260515Y-12894508D01*
X12260515Y-12894508D02*
X12279562Y-12884984D01*
X12470039Y-12884984D02*
X12489086Y-12884984D01*
X12489086Y-12884984D02*
X12508134Y-12894508D01*
X12508134Y-12894508D02*
X12517658Y-12904031D01*
X12517658Y-12904031D02*
X12527182Y-12923079D01*
X12527182Y-12923079D02*
X12536705Y-12961174D01*
X12536705Y-12961174D02*
X12536705Y-13008793D01*
X12536705Y-13008793D02*
X12527182Y-13046888D01*
X12527182Y-13046888D02*
X12517658Y-13065936D01*
X12517658Y-13065936D02*
X12508134Y-13075460D01*
X12508134Y-13075460D02*
X12489086Y-13084984D01*
X12489086Y-13084984D02*
X12470039Y-13084984D01*
X12470039Y-13084984D02*
X12450991Y-13075460D01*
X12450991Y-13075460D02*
X12441467Y-13065936D01*
X12441467Y-13065936D02*
X12431943Y-13046888D01*
X12431943Y-13046888D02*
X12422420Y-13008793D01*
X12422420Y-13008793D02*
X12422420Y-12961174D01*
X12422420Y-12961174D02*
X12431943Y-12923079D01*
X12431943Y-12923079D02*
X12441467Y-12904031D01*
X12441467Y-12904031D02*
X12450991Y-12894508D01*
X12450991Y-12894508D02*
X12470039Y-12884984D01*
X12622420Y-13084984D02*
X12622420Y-12951650D01*
X12622420Y-12970698D02*
X12631943Y-12961174D01*
X12631943Y-12961174D02*
X12650991Y-12951650D01*
X12650991Y-12951650D02*
X12679563Y-12951650D01*
X12679563Y-12951650D02*
X12698610Y-12961174D01*
X12698610Y-12961174D02*
X12708134Y-12980222D01*
X12708134Y-12980222D02*
X12708134Y-13084984D01*
X12708134Y-12980222D02*
X12717658Y-12961174D01*
X12717658Y-12961174D02*
X12736705Y-12951650D01*
X12736705Y-12951650D02*
X12765277Y-12951650D01*
X12765277Y-12951650D02*
X12784324Y-12961174D01*
X12784324Y-12961174D02*
X12793848Y-12980222D01*
X12793848Y-12980222D02*
X12793848Y-13084984D01*
X12889086Y-13084984D02*
X12889086Y-12951650D01*
X12889086Y-12970698D02*
X12898610Y-12961174D01*
X12898610Y-12961174D02*
X12917658Y-12951650D01*
X12917658Y-12951650D02*
X12946229Y-12951650D01*
X12946229Y-12951650D02*
X12965277Y-12961174D01*
X12965277Y-12961174D02*
X12974801Y-12980222D01*
X12974801Y-12980222D02*
X12974801Y-13084984D01*
X12974801Y-12980222D02*
X12984324Y-12961174D01*
X12984324Y-12961174D02*
X13003372Y-12951650D01*
X13003372Y-12951650D02*
X13031943Y-12951650D01*
X13031943Y-12951650D02*
X13050991Y-12961174D01*
X13050991Y-12961174D02*
X13060515Y-12980222D01*
X13060515Y-12980222D02*
X13060515Y-13084984D01*
X13450991Y-12875460D02*
X13279563Y-13132603D01*
X13708134Y-12884984D02*
X13727182Y-12884984D01*
X13727182Y-12884984D02*
X13746229Y-12894508D01*
X13746229Y-12894508D02*
X13755753Y-12904031D01*
X13755753Y-12904031D02*
X13765277Y-12923079D01*
X13765277Y-12923079D02*
X13774801Y-12961174D01*
X13774801Y-12961174D02*
X13774801Y-13008793D01*
X13774801Y-13008793D02*
X13765277Y-13046888D01*
X13765277Y-13046888D02*
X13755753Y-13065936D01*
X13755753Y-13065936D02*
X13746229Y-13075460D01*
X13746229Y-13075460D02*
X13727182Y-13084984D01*
X13727182Y-13084984D02*
X13708134Y-13084984D01*
X13708134Y-13084984D02*
X13689086Y-13075460D01*
X13689086Y-13075460D02*
X13679563Y-13065936D01*
X13679563Y-13065936D02*
X13670039Y-13046888D01*
X13670039Y-13046888D02*
X13660515Y-13008793D01*
X13660515Y-13008793D02*
X13660515Y-12961174D01*
X13660515Y-12961174D02*
X13670039Y-12923079D01*
X13670039Y-12923079D02*
X13679563Y-12904031D01*
X13679563Y-12904031D02*
X13689086Y-12894508D01*
X13689086Y-12894508D02*
X13708134Y-12884984D01*
X13860515Y-13065936D02*
X13870039Y-13075460D01*
X13870039Y-13075460D02*
X13860515Y-13084984D01*
X13860515Y-13084984D02*
X13850991Y-13075460D01*
X13850991Y-13075460D02*
X13860515Y-13065936D01*
X13860515Y-13065936D02*
X13860515Y-13084984D01*
X13993848Y-12884984D02*
X14012896Y-12884984D01*
X14012896Y-12884984D02*
X14031944Y-12894508D01*
X14031944Y-12894508D02*
X14041467Y-12904031D01*
X14041467Y-12904031D02*
X14050991Y-12923079D01*
X14050991Y-12923079D02*
X14060515Y-12961174D01*
X14060515Y-12961174D02*
X14060515Y-13008793D01*
X14060515Y-13008793D02*
X14050991Y-13046888D01*
X14050991Y-13046888D02*
X14041467Y-13065936D01*
X14041467Y-13065936D02*
X14031944Y-13075460D01*
X14031944Y-13075460D02*
X14012896Y-13084984D01*
X14012896Y-13084984D02*
X13993848Y-13084984D01*
X13993848Y-13084984D02*
X13974801Y-13075460D01*
X13974801Y-13075460D02*
X13965277Y-13065936D01*
X13965277Y-13065936D02*
X13955753Y-13046888D01*
X13955753Y-13046888D02*
X13946229Y-13008793D01*
X13946229Y-13008793D02*
X13946229Y-12961174D01*
X13946229Y-12961174D02*
X13955753Y-12923079D01*
X13955753Y-12923079D02*
X13965277Y-12904031D01*
X13965277Y-12904031D02*
X13974801Y-12894508D01*
X13974801Y-12894508D02*
X13993848Y-12884984D01*
X14127182Y-12884984D02*
X14250991Y-12884984D01*
X14250991Y-12884984D02*
X14184325Y-12961174D01*
X14184325Y-12961174D02*
X14212896Y-12961174D01*
X14212896Y-12961174D02*
X14231944Y-12970698D01*
X14231944Y-12970698D02*
X14241467Y-12980222D01*
X14241467Y-12980222D02*
X14250991Y-12999269D01*
X14250991Y-12999269D02*
X14250991Y-13046888D01*
X14250991Y-13046888D02*
X14241467Y-13065936D01*
X14241467Y-13065936D02*
X14231944Y-13075460D01*
X14231944Y-13075460D02*
X14212896Y-13084984D01*
X14212896Y-13084984D02*
X14155753Y-13084984D01*
X14155753Y-13084984D02*
X14136706Y-13075460D01*
X14136706Y-13075460D02*
X14127182Y-13065936D01*
X14346229Y-13084984D02*
X14384325Y-13084984D01*
X14384325Y-13084984D02*
X14403372Y-13075460D01*
X14403372Y-13075460D02*
X14412896Y-13065936D01*
X14412896Y-13065936D02*
X14431944Y-13037365D01*
X14431944Y-13037365D02*
X14441467Y-12999269D01*
X14441467Y-12999269D02*
X14441467Y-12923079D01*
X14441467Y-12923079D02*
X14431944Y-12904031D01*
X14431944Y-12904031D02*
X14422420Y-12894508D01*
X14422420Y-12894508D02*
X14403372Y-12884984D01*
X14403372Y-12884984D02*
X14365277Y-12884984D01*
X14365277Y-12884984D02*
X14346229Y-12894508D01*
X14346229Y-12894508D02*
X14336706Y-12904031D01*
X14336706Y-12904031D02*
X14327182Y-12923079D01*
X14327182Y-12923079D02*
X14327182Y-12970698D01*
X14327182Y-12970698D02*
X14336706Y-12989746D01*
X14336706Y-12989746D02*
X14346229Y-12999269D01*
X14346229Y-12999269D02*
X14365277Y-13008793D01*
X14365277Y-13008793D02*
X14403372Y-13008793D01*
X14403372Y-13008793D02*
X14422420Y-12999269D01*
X14422420Y-12999269D02*
X14431944Y-12989746D01*
X14431944Y-12989746D02*
X14441467Y-12970698D01*
X14612896Y-12951650D02*
X14612896Y-13084984D01*
X14565277Y-12875460D02*
X14517658Y-13018317D01*
X14517658Y-13018317D02*
X14641467Y-13018317D01*
X14708134Y-12884984D02*
X14708134Y-12923079D01*
X14784325Y-12884984D02*
X14784325Y-12923079D01*
X15079563Y-13161174D02*
X15070039Y-13151650D01*
X15070039Y-13151650D02*
X15050991Y-13123079D01*
X15050991Y-13123079D02*
X15041468Y-13104031D01*
X15041468Y-13104031D02*
X15031944Y-13075460D01*
X15031944Y-13075460D02*
X15022420Y-13027841D01*
X15022420Y-13027841D02*
X15022420Y-12989746D01*
X15022420Y-12989746D02*
X15031944Y-12942127D01*
X15031944Y-12942127D02*
X15041468Y-12913555D01*
X15041468Y-12913555D02*
X15050991Y-12894508D01*
X15050991Y-12894508D02*
X15070039Y-12865936D01*
X15070039Y-12865936D02*
X15079563Y-12856412D01*
X15146229Y-12904031D02*
X15155753Y-12894508D01*
X15155753Y-12894508D02*
X15174801Y-12884984D01*
X15174801Y-12884984D02*
X15222420Y-12884984D01*
X15222420Y-12884984D02*
X15241468Y-12894508D01*
X15241468Y-12894508D02*
X15250991Y-12904031D01*
X15250991Y-12904031D02*
X15260515Y-12923079D01*
X15260515Y-12923079D02*
X15260515Y-12942127D01*
X15260515Y-12942127D02*
X15250991Y-12970698D01*
X15250991Y-12970698D02*
X15136706Y-13084984D01*
X15136706Y-13084984D02*
X15260515Y-13084984D01*
X15441468Y-12884984D02*
X15346229Y-12884984D01*
X15346229Y-12884984D02*
X15336706Y-12980222D01*
X15336706Y-12980222D02*
X15346229Y-12970698D01*
X15346229Y-12970698D02*
X15365277Y-12961174D01*
X15365277Y-12961174D02*
X15412896Y-12961174D01*
X15412896Y-12961174D02*
X15431944Y-12970698D01*
X15431944Y-12970698D02*
X15441468Y-12980222D01*
X15441468Y-12980222D02*
X15450991Y-12999269D01*
X15450991Y-12999269D02*
X15450991Y-13046888D01*
X15450991Y-13046888D02*
X15441468Y-13065936D01*
X15441468Y-13065936D02*
X15431944Y-13075460D01*
X15431944Y-13075460D02*
X15412896Y-13084984D01*
X15412896Y-13084984D02*
X15365277Y-13084984D01*
X15365277Y-13084984D02*
X15346229Y-13075460D01*
X15346229Y-13075460D02*
X15336706Y-13065936D01*
X15565277Y-12970698D02*
X15546229Y-12961174D01*
X15546229Y-12961174D02*
X15536706Y-12951650D01*
X15536706Y-12951650D02*
X15527182Y-12932603D01*
X15527182Y-12932603D02*
X15527182Y-12923079D01*
X15527182Y-12923079D02*
X15536706Y-12904031D01*
X15536706Y-12904031D02*
X15546229Y-12894508D01*
X15546229Y-12894508D02*
X15565277Y-12884984D01*
X15565277Y-12884984D02*
X15603372Y-12884984D01*
X15603372Y-12884984D02*
X15622420Y-12894508D01*
X15622420Y-12894508D02*
X15631944Y-12904031D01*
X15631944Y-12904031D02*
X15641468Y-12923079D01*
X15641468Y-12923079D02*
X15641468Y-12932603D01*
X15641468Y-12932603D02*
X15631944Y-12951650D01*
X15631944Y-12951650D02*
X15622420Y-12961174D01*
X15622420Y-12961174D02*
X15603372Y-12970698D01*
X15603372Y-12970698D02*
X15565277Y-12970698D01*
X15565277Y-12970698D02*
X15546229Y-12980222D01*
X15546229Y-12980222D02*
X15536706Y-12989746D01*
X15536706Y-12989746D02*
X15527182Y-13008793D01*
X15527182Y-13008793D02*
X15527182Y-13046888D01*
X15527182Y-13046888D02*
X15536706Y-13065936D01*
X15536706Y-13065936D02*
X15546229Y-13075460D01*
X15546229Y-13075460D02*
X15565277Y-13084984D01*
X15565277Y-13084984D02*
X15603372Y-13084984D01*
X15603372Y-13084984D02*
X15622420Y-13075460D01*
X15622420Y-13075460D02*
X15631944Y-13065936D01*
X15631944Y-13065936D02*
X15641468Y-13046888D01*
X15641468Y-13046888D02*
X15641468Y-13008793D01*
X15641468Y-13008793D02*
X15631944Y-12989746D01*
X15631944Y-12989746D02*
X15622420Y-12980222D01*
X15622420Y-12980222D02*
X15603372Y-12970698D01*
X15879563Y-13084984D02*
X15879563Y-12884984D01*
X15965277Y-13084984D02*
X15965277Y-12980222D01*
X15965277Y-12980222D02*
X15955753Y-12961174D01*
X15955753Y-12961174D02*
X15936706Y-12951650D01*
X15936706Y-12951650D02*
X15908134Y-12951650D01*
X15908134Y-12951650D02*
X15889087Y-12961174D01*
X15889087Y-12961174D02*
X15879563Y-12970698D01*
X16089087Y-13084984D02*
X16070039Y-13075460D01*
X16070039Y-13075460D02*
X16060515Y-13065936D01*
X16060515Y-13065936D02*
X16050991Y-13046888D01*
X16050991Y-13046888D02*
X16050991Y-12989746D01*
X16050991Y-12989746D02*
X16060515Y-12970698D01*
X16060515Y-12970698D02*
X16070039Y-12961174D01*
X16070039Y-12961174D02*
X16089087Y-12951650D01*
X16089087Y-12951650D02*
X16117658Y-12951650D01*
X16117658Y-12951650D02*
X16136706Y-12961174D01*
X16136706Y-12961174D02*
X16146230Y-12970698D01*
X16146230Y-12970698D02*
X16155753Y-12989746D01*
X16155753Y-12989746D02*
X16155753Y-13046888D01*
X16155753Y-13046888D02*
X16146230Y-13065936D01*
X16146230Y-13065936D02*
X16136706Y-13075460D01*
X16136706Y-13075460D02*
X16117658Y-13084984D01*
X16117658Y-13084984D02*
X16089087Y-13084984D01*
X16270039Y-13084984D02*
X16250991Y-13075460D01*
X16250991Y-13075460D02*
X16241468Y-13056412D01*
X16241468Y-13056412D02*
X16241468Y-12884984D01*
X16422420Y-13075460D02*
X16403372Y-13084984D01*
X16403372Y-13084984D02*
X16365277Y-13084984D01*
X16365277Y-13084984D02*
X16346230Y-13075460D01*
X16346230Y-13075460D02*
X16336706Y-13056412D01*
X16336706Y-13056412D02*
X16336706Y-12980222D01*
X16336706Y-12980222D02*
X16346230Y-12961174D01*
X16346230Y-12961174D02*
X16365277Y-12951650D01*
X16365277Y-12951650D02*
X16403372Y-12951650D01*
X16403372Y-12951650D02*
X16422420Y-12961174D01*
X16422420Y-12961174D02*
X16431944Y-12980222D01*
X16431944Y-12980222D02*
X16431944Y-12999269D01*
X16431944Y-12999269D02*
X16336706Y-13018317D01*
X16508134Y-13075460D02*
X16527182Y-13084984D01*
X16527182Y-13084984D02*
X16565277Y-13084984D01*
X16565277Y-13084984D02*
X16584325Y-13075460D01*
X16584325Y-13075460D02*
X16593849Y-13056412D01*
X16593849Y-13056412D02*
X16593849Y-13046888D01*
X16593849Y-13046888D02*
X16584325Y-13027841D01*
X16584325Y-13027841D02*
X16565277Y-13018317D01*
X16565277Y-13018317D02*
X16536706Y-13018317D01*
X16536706Y-13018317D02*
X16517658Y-13008793D01*
X16517658Y-13008793D02*
X16508134Y-12989746D01*
X16508134Y-12989746D02*
X16508134Y-12980222D01*
X16508134Y-12980222D02*
X16517658Y-12961174D01*
X16517658Y-12961174D02*
X16536706Y-12951650D01*
X16536706Y-12951650D02*
X16565277Y-12951650D01*
X16565277Y-12951650D02*
X16584325Y-12961174D01*
X16660515Y-13161174D02*
X16670039Y-13151650D01*
X16670039Y-13151650D02*
X16689087Y-13123079D01*
X16689087Y-13123079D02*
X16698611Y-13104031D01*
X16698611Y-13104031D02*
X16708134Y-13075460D01*
X16708134Y-13075460D02*
X16717658Y-13027841D01*
X16717658Y-13027841D02*
X16717658Y-12989746D01*
X16717658Y-12989746D02*
X16708134Y-12942127D01*
X16708134Y-12942127D02*
X16698611Y-12913555D01*
X16698611Y-12913555D02*
X16689087Y-12894508D01*
X16689087Y-12894508D02*
X16670039Y-12865936D01*
X16670039Y-12865936D02*
X16660515Y-12856412D01*
M02*
