M48
; DRILL file {KiCad 8.0.8} date 2025-02-19T13:58:06-0500
; FORMAT={-:-/ absolute / metric / decimal}
; #@! TF.CreationDate,2025-02-19T13:58:06-05:00
; #@! TF.GenerationSoftware,Kicad,Pcbnew,8.0.8
; #@! TF.FileFunction,Plated,1,2,PTH
FMAT,2
METRIC
; #@! TA.AperFunction,Plated,PTH,ViaDrill
T1C0.300
; #@! TA.AperFunction,Plated,PTH,ComponentDrill
T2C0.700
; #@! TA.AperFunction,Plated,PTH,ComponentDrill
T3C1.000
%
G90
G05
T1
X126.87Y-113.47
T2
X122.75Y-113.51
T3
X120.25Y-88.18
X120.25Y-90.72
X120.25Y-93.26
X120.25Y-95.8
X120.25Y-98.34
X120.25Y-100.88
X120.25Y-103.42
X120.25Y-105.96
X120.25Y-108.5
X122.79Y-88.18
X122.79Y-90.72
X122.79Y-93.26
X122.79Y-95.8
X122.79Y-98.34
X122.79Y-100.88
X122.79Y-103.42
X122.79Y-105.96
X122.79Y-108.5
X129.24Y-83.09
X129.24Y-85.63
X129.24Y-88.17
X129.24Y-90.71
X129.24Y-93.25
X129.24Y-95.79
X129.24Y-100.87
X129.24Y-103.41
X129.24Y-105.95
X129.24Y-108.49
X129.24Y-111.03
X129.24Y-113.57
X131.78Y-83.09
X131.78Y-85.63
X131.78Y-88.17
X131.78Y-90.71
X131.78Y-93.25
X131.78Y-95.79
X131.78Y-100.87
X131.78Y-103.41
X131.78Y-105.95
X131.78Y-108.49
X131.78Y-111.03
X131.78Y-113.57
X134.32Y-83.09
X134.32Y-85.63
X134.32Y-88.17
X134.32Y-90.71
X134.32Y-93.25
X134.32Y-95.79
X134.32Y-100.87
X134.32Y-103.41
X134.32Y-105.95
X134.32Y-108.49
X134.32Y-111.03
X134.32Y-113.57
X136.86Y-83.09
X136.86Y-85.63
X136.86Y-88.17
X136.86Y-90.71
X136.86Y-93.25
X136.86Y-95.79
X136.86Y-100.87
X136.86Y-103.41
X136.86Y-105.95
X136.86Y-108.49
X136.86Y-111.03
X136.86Y-113.57
X139.4Y-83.09
X139.4Y-85.63
X139.4Y-88.17
X139.4Y-90.71
X139.4Y-93.25
X139.4Y-95.79
X139.4Y-100.87
X139.4Y-103.41
X139.4Y-105.95
X139.4Y-108.49
X139.4Y-111.03
X139.4Y-113.57
X141.94Y-83.09
X141.94Y-85.63
X141.94Y-88.17
X141.94Y-90.71
X141.94Y-93.25
X141.94Y-95.79
X141.94Y-100.87
X141.94Y-103.41
X141.94Y-105.95
X141.94Y-108.49
X141.94Y-111.03
X141.94Y-113.57
X144.48Y-83.09
X144.48Y-85.63
X144.48Y-88.17
X144.48Y-90.71
X144.48Y-93.25
X144.48Y-95.79
X144.48Y-100.87
X144.48Y-103.41
X144.48Y-105.95
X144.48Y-108.49
X144.48Y-111.03
X144.48Y-113.57
X147.02Y-83.09
X147.02Y-85.63
X147.02Y-88.17
X147.02Y-90.71
X147.02Y-93.25
X147.02Y-95.79
X147.02Y-100.87
X147.02Y-103.41
X147.02Y-105.95
X147.02Y-108.49
X147.02Y-111.03
X147.02Y-113.57
X149.56Y-83.09
X149.56Y-85.63
X149.56Y-88.17
X149.56Y-90.71
X149.56Y-93.25
X149.56Y-95.79
X149.56Y-100.87
X149.56Y-103.41
X149.56Y-105.95
X149.56Y-108.49
X149.56Y-111.03
X149.56Y-113.57
X152.1Y-83.09
X152.1Y-85.63
X152.1Y-88.17
X152.1Y-90.71
X152.1Y-93.25
X152.1Y-95.79
X152.1Y-100.87
X152.1Y-103.41
X152.1Y-105.95
X152.1Y-108.49
X152.1Y-111.03
X152.1Y-113.57
X154.64Y-83.09
X154.64Y-85.63
X154.64Y-88.17
X154.64Y-90.71
X154.64Y-93.25
X154.64Y-95.79
X154.64Y-100.87
X154.64Y-103.41
X154.64Y-105.95
X154.64Y-108.49
X154.64Y-111.03
X154.64Y-113.57
X157.18Y-83.09
X157.18Y-85.63
X157.18Y-88.17
X157.18Y-90.71
X157.18Y-93.25
X157.18Y-95.79
X157.18Y-100.87
X157.18Y-103.41
X157.18Y-105.95
X157.18Y-108.49
X157.18Y-111.03
X157.18Y-113.57
X159.72Y-83.09
X159.72Y-85.63
X159.72Y-88.17
X159.72Y-90.71
X159.72Y-93.25
X159.72Y-95.79
X159.72Y-100.87
X159.72Y-103.41
X159.72Y-105.95
X159.72Y-108.49
X159.72Y-111.03
X159.72Y-113.57
X162.26Y-83.09
X162.26Y-85.63
X162.26Y-88.17
X162.26Y-90.71
X162.26Y-93.25
X162.26Y-95.79
X162.26Y-100.87
X162.26Y-103.41
X162.26Y-105.95
X162.26Y-108.49
X162.26Y-111.03
X162.26Y-113.57
X164.8Y-83.09
X164.8Y-85.63
X164.8Y-88.17
X164.8Y-90.71
X164.8Y-93.25
X164.8Y-95.79
X164.8Y-100.87
X164.8Y-103.41
X164.8Y-105.95
X164.8Y-108.49
X164.8Y-111.03
X164.8Y-113.57
X167.34Y-83.09
X167.34Y-85.63
X167.34Y-88.17
X167.34Y-90.71
X167.34Y-93.25
X167.34Y-95.79
X167.34Y-100.87
X167.34Y-103.41
X167.34Y-105.95
X167.34Y-108.49
X167.34Y-111.03
X167.34Y-113.57
X169.88Y-83.09
X169.88Y-85.63
X169.88Y-88.17
X169.88Y-90.71
X169.88Y-93.25
X169.88Y-95.79
X169.88Y-100.87
X169.88Y-103.41
X169.88Y-105.95
X169.88Y-108.49
X169.88Y-111.03
X169.88Y-113.57
X172.42Y-83.09
X172.42Y-85.63
X172.42Y-88.17
X172.42Y-90.71
X172.42Y-93.25
X172.42Y-95.79
X172.42Y-100.87
X172.42Y-103.41
X172.42Y-105.95
X172.42Y-108.49
X172.42Y-111.03
X172.42Y-113.57
X174.96Y-83.09
X174.96Y-85.63
X174.96Y-88.17
X174.96Y-90.71
X174.96Y-93.25
X174.96Y-95.79
X174.96Y-100.87
X174.96Y-103.41
X174.96Y-105.95
X174.96Y-108.49
X174.96Y-111.03
X174.96Y-113.57
X177.5Y-83.09
X177.5Y-85.63
X177.5Y-88.17
X177.5Y-90.71
X177.5Y-93.25
X177.5Y-95.79
X177.5Y-100.87
X177.5Y-103.41
X177.5Y-105.95
X177.5Y-108.49
X177.5Y-111.03
X177.5Y-113.57
M30
