G04 #@! TF.GenerationSoftware,KiCad,Pcbnew,8.0.8*
G04 #@! TF.CreationDate,2025-02-19T13:58:02-05:00*
G04 #@! TF.ProjectId,plot_gerbers,706c6f74-5f67-4657-9262-6572732e6b69,rev?*
G04 #@! TF.SameCoordinates,Original*
G04 #@! TF.FileFunction,Legend,Top*
G04 #@! TF.FilePolarity,Positive*
%FSLAX46Y46*%
G04 Gerber Fmt 4.6, Leading zero omitted, Abs format (unit mm)*
G04 Created by KiCad (PCBNEW 8.0.8) date 2025-02-19 13:58:02*
%MOMM*%
%LPD*%
G01*
G04 APERTURE LIST*
%ADD10C,0.100000*%
%ADD11C,0.150000*%
%ADD12C,0.120000*%
%ADD13C,1.700000*%
%ADD14O,1.700000X1.700000*%
%ADD15R,1.700000X1.700000*%
%ADD16R,1.500000X1.500000*%
G04 APERTURE END LIST*
D10*
X118043884Y-80655808D02*
X118043884Y-81655808D01*
X118043884Y-80703427D02*
X118139122Y-80655808D01*
X118139122Y-80655808D02*
X118329598Y-80655808D01*
X118329598Y-80655808D02*
X118424836Y-80703427D01*
X118424836Y-80703427D02*
X118472455Y-80751046D01*
X118472455Y-80751046D02*
X118520074Y-80846284D01*
X118520074Y-80846284D02*
X118520074Y-81131998D01*
X118520074Y-81131998D02*
X118472455Y-81227236D01*
X118472455Y-81227236D02*
X118424836Y-81274856D01*
X118424836Y-81274856D02*
X118329598Y-81322475D01*
X118329598Y-81322475D02*
X118139122Y-81322475D01*
X118139122Y-81322475D02*
X118043884Y-81274856D01*
X119377217Y-81274856D02*
X119281979Y-81322475D01*
X119281979Y-81322475D02*
X119091503Y-81322475D01*
X119091503Y-81322475D02*
X118996265Y-81274856D01*
X118996265Y-81274856D02*
X118948646Y-81227236D01*
X118948646Y-81227236D02*
X118901027Y-81131998D01*
X118901027Y-81131998D02*
X118901027Y-80846284D01*
X118901027Y-80846284D02*
X118948646Y-80751046D01*
X118948646Y-80751046D02*
X118996265Y-80703427D01*
X118996265Y-80703427D02*
X119091503Y-80655808D01*
X119091503Y-80655808D02*
X119281979Y-80655808D01*
X119281979Y-80655808D02*
X119377217Y-80703427D01*
X119805789Y-81322475D02*
X119805789Y-80322475D01*
X119805789Y-80703427D02*
X119901027Y-80655808D01*
X119901027Y-80655808D02*
X120091503Y-80655808D01*
X120091503Y-80655808D02*
X120186741Y-80703427D01*
X120186741Y-80703427D02*
X120234360Y-80751046D01*
X120234360Y-80751046D02*
X120281979Y-80846284D01*
X120281979Y-80846284D02*
X120281979Y-81131998D01*
X120281979Y-81131998D02*
X120234360Y-81227236D01*
X120234360Y-81227236D02*
X120186741Y-81274856D01*
X120186741Y-81274856D02*
X120091503Y-81322475D01*
X120091503Y-81322475D02*
X119901027Y-81322475D01*
X119901027Y-81322475D02*
X119805789Y-81274856D01*
X120853408Y-80751046D02*
X120758170Y-80703427D01*
X120758170Y-80703427D02*
X120710551Y-80655808D01*
X120710551Y-80655808D02*
X120662932Y-80560570D01*
X120662932Y-80560570D02*
X120662932Y-80512951D01*
X120662932Y-80512951D02*
X120710551Y-80417713D01*
X120710551Y-80417713D02*
X120758170Y-80370094D01*
X120758170Y-80370094D02*
X120853408Y-80322475D01*
X120853408Y-80322475D02*
X121043884Y-80322475D01*
X121043884Y-80322475D02*
X121139122Y-80370094D01*
X121139122Y-80370094D02*
X121186741Y-80417713D01*
X121186741Y-80417713D02*
X121234360Y-80512951D01*
X121234360Y-80512951D02*
X121234360Y-80560570D01*
X121234360Y-80560570D02*
X121186741Y-80655808D01*
X121186741Y-80655808D02*
X121139122Y-80703427D01*
X121139122Y-80703427D02*
X121043884Y-80751046D01*
X121043884Y-80751046D02*
X120853408Y-80751046D01*
X120853408Y-80751046D02*
X120758170Y-80798665D01*
X120758170Y-80798665D02*
X120710551Y-80846284D01*
X120710551Y-80846284D02*
X120662932Y-80941522D01*
X120662932Y-80941522D02*
X120662932Y-81131998D01*
X120662932Y-81131998D02*
X120710551Y-81227236D01*
X120710551Y-81227236D02*
X120758170Y-81274856D01*
X120758170Y-81274856D02*
X120853408Y-81322475D01*
X120853408Y-81322475D02*
X121043884Y-81322475D01*
X121043884Y-81322475D02*
X121139122Y-81274856D01*
X121139122Y-81274856D02*
X121186741Y-81227236D01*
X121186741Y-81227236D02*
X121234360Y-81131998D01*
X121234360Y-81131998D02*
X121234360Y-80941522D01*
X121234360Y-80941522D02*
X121186741Y-80846284D01*
X121186741Y-80846284D02*
X121139122Y-80798665D01*
X121139122Y-80798665D02*
X121043884Y-80751046D01*
X122758170Y-80798665D02*
X122901027Y-80846284D01*
X122901027Y-80846284D02*
X122948646Y-80893903D01*
X122948646Y-80893903D02*
X122996265Y-80989141D01*
X122996265Y-80989141D02*
X122996265Y-81131998D01*
X122996265Y-81131998D02*
X122948646Y-81227236D01*
X122948646Y-81227236D02*
X122901027Y-81274856D01*
X122901027Y-81274856D02*
X122805789Y-81322475D01*
X122805789Y-81322475D02*
X122424837Y-81322475D01*
X122424837Y-81322475D02*
X122424837Y-80322475D01*
X122424837Y-80322475D02*
X122758170Y-80322475D01*
X122758170Y-80322475D02*
X122853408Y-80370094D01*
X122853408Y-80370094D02*
X122901027Y-80417713D01*
X122901027Y-80417713D02*
X122948646Y-80512951D01*
X122948646Y-80512951D02*
X122948646Y-80608189D01*
X122948646Y-80608189D02*
X122901027Y-80703427D01*
X122901027Y-80703427D02*
X122853408Y-80751046D01*
X122853408Y-80751046D02*
X122758170Y-80798665D01*
X122758170Y-80798665D02*
X122424837Y-80798665D01*
X123996265Y-81227236D02*
X123948646Y-81274856D01*
X123948646Y-81274856D02*
X123805789Y-81322475D01*
X123805789Y-81322475D02*
X123710551Y-81322475D01*
X123710551Y-81322475D02*
X123567694Y-81274856D01*
X123567694Y-81274856D02*
X123472456Y-81179617D01*
X123472456Y-81179617D02*
X123424837Y-81084379D01*
X123424837Y-81084379D02*
X123377218Y-80893903D01*
X123377218Y-80893903D02*
X123377218Y-80751046D01*
X123377218Y-80751046D02*
X123424837Y-80560570D01*
X123424837Y-80560570D02*
X123472456Y-80465332D01*
X123472456Y-80465332D02*
X123567694Y-80370094D01*
X123567694Y-80370094D02*
X123710551Y-80322475D01*
X123710551Y-80322475D02*
X123805789Y-80322475D01*
X123805789Y-80322475D02*
X123948646Y-80370094D01*
X123948646Y-80370094D02*
X123996265Y-80417713D01*
X125091504Y-80322475D02*
X125758170Y-80322475D01*
X125758170Y-80322475D02*
X125329599Y-81322475D01*
X126662932Y-81322475D02*
X126091504Y-81322475D01*
X126377218Y-81322475D02*
X126377218Y-80322475D01*
X126377218Y-80322475D02*
X126281980Y-80465332D01*
X126281980Y-80465332D02*
X126186742Y-80560570D01*
X126186742Y-80560570D02*
X126091504Y-80608189D01*
X127139123Y-81274856D02*
X127139123Y-81322475D01*
X127139123Y-81322475D02*
X127091504Y-81417713D01*
X127091504Y-81417713D02*
X127043885Y-81465332D01*
X127996265Y-80322475D02*
X127805789Y-80322475D01*
X127805789Y-80322475D02*
X127710551Y-80370094D01*
X127710551Y-80370094D02*
X127662932Y-80417713D01*
X127662932Y-80417713D02*
X127567694Y-80560570D01*
X127567694Y-80560570D02*
X127520075Y-80751046D01*
X127520075Y-80751046D02*
X127520075Y-81131998D01*
X127520075Y-81131998D02*
X127567694Y-81227236D01*
X127567694Y-81227236D02*
X127615313Y-81274856D01*
X127615313Y-81274856D02*
X127710551Y-81322475D01*
X127710551Y-81322475D02*
X127901027Y-81322475D01*
X127901027Y-81322475D02*
X127996265Y-81274856D01*
X127996265Y-81274856D02*
X128043884Y-81227236D01*
X128043884Y-81227236D02*
X128091503Y-81131998D01*
X128091503Y-81131998D02*
X128091503Y-80893903D01*
X128091503Y-80893903D02*
X128043884Y-80798665D01*
X128043884Y-80798665D02*
X127996265Y-80751046D01*
X127996265Y-80751046D02*
X127901027Y-80703427D01*
X127901027Y-80703427D02*
X127710551Y-80703427D01*
X127710551Y-80703427D02*
X127615313Y-80751046D01*
X127615313Y-80751046D02*
X127567694Y-80798665D01*
X127567694Y-80798665D02*
X127520075Y-80893903D01*
X133758169Y-80417713D02*
X133805788Y-80370094D01*
X133805788Y-80370094D02*
X133901026Y-80322475D01*
X133901026Y-80322475D02*
X134139121Y-80322475D01*
X134139121Y-80322475D02*
X134234359Y-80370094D01*
X134234359Y-80370094D02*
X134281978Y-80417713D01*
X134281978Y-80417713D02*
X134329597Y-80512951D01*
X134329597Y-80512951D02*
X134329597Y-80608189D01*
X134329597Y-80608189D02*
X134281978Y-80751046D01*
X134281978Y-80751046D02*
X133710550Y-81322475D01*
X133710550Y-81322475D02*
X134329597Y-81322475D01*
X134662931Y-80322475D02*
X135329597Y-80322475D01*
X135329597Y-80322475D02*
X134901026Y-81322475D01*
X135758169Y-81274856D02*
X135758169Y-81322475D01*
X135758169Y-81322475D02*
X135710550Y-81417713D01*
X135710550Y-81417713D02*
X135662931Y-81465332D01*
X136615311Y-80322475D02*
X136424835Y-80322475D01*
X136424835Y-80322475D02*
X136329597Y-80370094D01*
X136329597Y-80370094D02*
X136281978Y-80417713D01*
X136281978Y-80417713D02*
X136186740Y-80560570D01*
X136186740Y-80560570D02*
X136139121Y-80751046D01*
X136139121Y-80751046D02*
X136139121Y-81131998D01*
X136139121Y-81131998D02*
X136186740Y-81227236D01*
X136186740Y-81227236D02*
X136234359Y-81274856D01*
X136234359Y-81274856D02*
X136329597Y-81322475D01*
X136329597Y-81322475D02*
X136520073Y-81322475D01*
X136520073Y-81322475D02*
X136615311Y-81274856D01*
X136615311Y-81274856D02*
X136662930Y-81227236D01*
X136662930Y-81227236D02*
X136710549Y-81131998D01*
X136710549Y-81131998D02*
X136710549Y-80893903D01*
X136710549Y-80893903D02*
X136662930Y-80798665D01*
X136662930Y-80798665D02*
X136615311Y-80751046D01*
X136615311Y-80751046D02*
X136520073Y-80703427D01*
X136520073Y-80703427D02*
X136329597Y-80703427D01*
X136329597Y-80703427D02*
X136234359Y-80751046D01*
X136234359Y-80751046D02*
X136186740Y-80798665D01*
X136186740Y-80798665D02*
X136139121Y-80893903D01*
X137139121Y-81322475D02*
X137139121Y-80655808D01*
X137139121Y-80751046D02*
X137186740Y-80703427D01*
X137186740Y-80703427D02*
X137281978Y-80655808D01*
X137281978Y-80655808D02*
X137424835Y-80655808D01*
X137424835Y-80655808D02*
X137520073Y-80703427D01*
X137520073Y-80703427D02*
X137567692Y-80798665D01*
X137567692Y-80798665D02*
X137567692Y-81322475D01*
X137567692Y-80798665D02*
X137615311Y-80703427D01*
X137615311Y-80703427D02*
X137710549Y-80655808D01*
X137710549Y-80655808D02*
X137853406Y-80655808D01*
X137853406Y-80655808D02*
X137948645Y-80703427D01*
X137948645Y-80703427D02*
X137996264Y-80798665D01*
X137996264Y-80798665D02*
X137996264Y-81322475D01*
X138472454Y-81322475D02*
X138472454Y-80655808D01*
X138472454Y-80751046D02*
X138520073Y-80703427D01*
X138520073Y-80703427D02*
X138615311Y-80655808D01*
X138615311Y-80655808D02*
X138758168Y-80655808D01*
X138758168Y-80655808D02*
X138853406Y-80703427D01*
X138853406Y-80703427D02*
X138901025Y-80798665D01*
X138901025Y-80798665D02*
X138901025Y-81322475D01*
X138901025Y-80798665D02*
X138948644Y-80703427D01*
X138948644Y-80703427D02*
X139043882Y-80655808D01*
X139043882Y-80655808D02*
X139186739Y-80655808D01*
X139186739Y-80655808D02*
X139281978Y-80703427D01*
X139281978Y-80703427D02*
X139329597Y-80798665D01*
X139329597Y-80798665D02*
X139329597Y-81322475D01*
X140996263Y-81274856D02*
X140901025Y-81322475D01*
X140901025Y-81322475D02*
X140710549Y-81322475D01*
X140710549Y-81322475D02*
X140615311Y-81274856D01*
X140615311Y-81274856D02*
X140567692Y-81227236D01*
X140567692Y-81227236D02*
X140520073Y-81131998D01*
X140520073Y-81131998D02*
X140520073Y-80846284D01*
X140520073Y-80846284D02*
X140567692Y-80751046D01*
X140567692Y-80751046D02*
X140615311Y-80703427D01*
X140615311Y-80703427D02*
X140710549Y-80655808D01*
X140710549Y-80655808D02*
X140901025Y-80655808D01*
X140901025Y-80655808D02*
X140996263Y-80703427D01*
X141567692Y-81322475D02*
X141472454Y-81274856D01*
X141472454Y-81274856D02*
X141424835Y-81179617D01*
X141424835Y-81179617D02*
X141424835Y-80322475D01*
X142329597Y-81274856D02*
X142234359Y-81322475D01*
X142234359Y-81322475D02*
X142043883Y-81322475D01*
X142043883Y-81322475D02*
X141948645Y-81274856D01*
X141948645Y-81274856D02*
X141901026Y-81179617D01*
X141901026Y-81179617D02*
X141901026Y-80798665D01*
X141901026Y-80798665D02*
X141948645Y-80703427D01*
X141948645Y-80703427D02*
X142043883Y-80655808D01*
X142043883Y-80655808D02*
X142234359Y-80655808D01*
X142234359Y-80655808D02*
X142329597Y-80703427D01*
X142329597Y-80703427D02*
X142377216Y-80798665D01*
X142377216Y-80798665D02*
X142377216Y-80893903D01*
X142377216Y-80893903D02*
X141901026Y-80989141D01*
X143234359Y-81322475D02*
X143234359Y-80798665D01*
X143234359Y-80798665D02*
X143186740Y-80703427D01*
X143186740Y-80703427D02*
X143091502Y-80655808D01*
X143091502Y-80655808D02*
X142901026Y-80655808D01*
X142901026Y-80655808D02*
X142805788Y-80703427D01*
X143234359Y-81274856D02*
X143139121Y-81322475D01*
X143139121Y-81322475D02*
X142901026Y-81322475D01*
X142901026Y-81322475D02*
X142805788Y-81274856D01*
X142805788Y-81274856D02*
X142758169Y-81179617D01*
X142758169Y-81179617D02*
X142758169Y-81084379D01*
X142758169Y-81084379D02*
X142805788Y-80989141D01*
X142805788Y-80989141D02*
X142901026Y-80941522D01*
X142901026Y-80941522D02*
X143139121Y-80941522D01*
X143139121Y-80941522D02*
X143234359Y-80893903D01*
X143710550Y-81322475D02*
X143710550Y-80655808D01*
X143710550Y-80846284D02*
X143758169Y-80751046D01*
X143758169Y-80751046D02*
X143805788Y-80703427D01*
X143805788Y-80703427D02*
X143901026Y-80655808D01*
X143901026Y-80655808D02*
X143996264Y-80655808D01*
X144758169Y-81322475D02*
X144758169Y-80798665D01*
X144758169Y-80798665D02*
X144710550Y-80703427D01*
X144710550Y-80703427D02*
X144615312Y-80655808D01*
X144615312Y-80655808D02*
X144424836Y-80655808D01*
X144424836Y-80655808D02*
X144329598Y-80703427D01*
X144758169Y-81274856D02*
X144662931Y-81322475D01*
X144662931Y-81322475D02*
X144424836Y-81322475D01*
X144424836Y-81322475D02*
X144329598Y-81274856D01*
X144329598Y-81274856D02*
X144281979Y-81179617D01*
X144281979Y-81179617D02*
X144281979Y-81084379D01*
X144281979Y-81084379D02*
X144329598Y-80989141D01*
X144329598Y-80989141D02*
X144424836Y-80941522D01*
X144424836Y-80941522D02*
X144662931Y-80941522D01*
X144662931Y-80941522D02*
X144758169Y-80893903D01*
X145234360Y-80655808D02*
X145234360Y-81322475D01*
X145234360Y-80751046D02*
X145281979Y-80703427D01*
X145281979Y-80703427D02*
X145377217Y-80655808D01*
X145377217Y-80655808D02*
X145520074Y-80655808D01*
X145520074Y-80655808D02*
X145615312Y-80703427D01*
X145615312Y-80703427D02*
X145662931Y-80798665D01*
X145662931Y-80798665D02*
X145662931Y-81322475D01*
X146567693Y-81274856D02*
X146472455Y-81322475D01*
X146472455Y-81322475D02*
X146281979Y-81322475D01*
X146281979Y-81322475D02*
X146186741Y-81274856D01*
X146186741Y-81274856D02*
X146139122Y-81227236D01*
X146139122Y-81227236D02*
X146091503Y-81131998D01*
X146091503Y-81131998D02*
X146091503Y-80846284D01*
X146091503Y-80846284D02*
X146139122Y-80751046D01*
X146139122Y-80751046D02*
X146186741Y-80703427D01*
X146186741Y-80703427D02*
X146281979Y-80655808D01*
X146281979Y-80655808D02*
X146472455Y-80655808D01*
X146472455Y-80655808D02*
X146567693Y-80703427D01*
X147377217Y-81274856D02*
X147281979Y-81322475D01*
X147281979Y-81322475D02*
X147091503Y-81322475D01*
X147091503Y-81322475D02*
X146996265Y-81274856D01*
X146996265Y-81274856D02*
X146948646Y-81179617D01*
X146948646Y-81179617D02*
X146948646Y-80798665D01*
X146948646Y-80798665D02*
X146996265Y-80703427D01*
X146996265Y-80703427D02*
X147091503Y-80655808D01*
X147091503Y-80655808D02*
X147281979Y-80655808D01*
X147281979Y-80655808D02*
X147377217Y-80703427D01*
X147377217Y-80703427D02*
X147424836Y-80798665D01*
X147424836Y-80798665D02*
X147424836Y-80893903D01*
X147424836Y-80893903D02*
X146948646Y-80989141D01*
X118043884Y-82932419D02*
X118043884Y-82265752D01*
X118043884Y-82456228D02*
X118091503Y-82360990D01*
X118091503Y-82360990D02*
X118139122Y-82313371D01*
X118139122Y-82313371D02*
X118234360Y-82265752D01*
X118234360Y-82265752D02*
X118329598Y-82265752D01*
X119043884Y-82884800D02*
X118948646Y-82932419D01*
X118948646Y-82932419D02*
X118758170Y-82932419D01*
X118758170Y-82932419D02*
X118662932Y-82884800D01*
X118662932Y-82884800D02*
X118615313Y-82789561D01*
X118615313Y-82789561D02*
X118615313Y-82408609D01*
X118615313Y-82408609D02*
X118662932Y-82313371D01*
X118662932Y-82313371D02*
X118758170Y-82265752D01*
X118758170Y-82265752D02*
X118948646Y-82265752D01*
X118948646Y-82265752D02*
X119043884Y-82313371D01*
X119043884Y-82313371D02*
X119091503Y-82408609D01*
X119091503Y-82408609D02*
X119091503Y-82503847D01*
X119091503Y-82503847D02*
X118615313Y-82599085D01*
X119424837Y-82265752D02*
X119662932Y-82932419D01*
X119662932Y-82932419D02*
X119901027Y-82265752D01*
X120472456Y-81932419D02*
X120567694Y-81932419D01*
X120567694Y-81932419D02*
X120662932Y-81980038D01*
X120662932Y-81980038D02*
X120710551Y-82027657D01*
X120710551Y-82027657D02*
X120758170Y-82122895D01*
X120758170Y-82122895D02*
X120805789Y-82313371D01*
X120805789Y-82313371D02*
X120805789Y-82551466D01*
X120805789Y-82551466D02*
X120758170Y-82741942D01*
X120758170Y-82741942D02*
X120710551Y-82837180D01*
X120710551Y-82837180D02*
X120662932Y-82884800D01*
X120662932Y-82884800D02*
X120567694Y-82932419D01*
X120567694Y-82932419D02*
X120472456Y-82932419D01*
X120472456Y-82932419D02*
X120377218Y-82884800D01*
X120377218Y-82884800D02*
X120329599Y-82837180D01*
X120329599Y-82837180D02*
X120281980Y-82741942D01*
X120281980Y-82741942D02*
X120234361Y-82551466D01*
X120234361Y-82551466D02*
X120234361Y-82313371D01*
X120234361Y-82313371D02*
X120281980Y-82122895D01*
X120281980Y-82122895D02*
X120329599Y-82027657D01*
X120329599Y-82027657D02*
X120377218Y-81980038D01*
X120377218Y-81980038D02*
X120472456Y-81932419D01*
X121758170Y-82932419D02*
X121186742Y-82932419D01*
X121472456Y-82932419D02*
X121472456Y-81932419D01*
X121472456Y-81932419D02*
X121377218Y-82075276D01*
X121377218Y-82075276D02*
X121281980Y-82170514D01*
X121281980Y-82170514D02*
X121186742Y-82218133D01*
X121948647Y-83027657D02*
X122710551Y-83027657D01*
X122805790Y-82265752D02*
X123186742Y-82265752D01*
X122948647Y-82932419D02*
X122948647Y-82075276D01*
X122948647Y-82075276D02*
X122996266Y-81980038D01*
X122996266Y-81980038D02*
X123091504Y-81932419D01*
X123091504Y-81932419D02*
X123186742Y-81932419D01*
X123901028Y-82884800D02*
X123805790Y-82932419D01*
X123805790Y-82932419D02*
X123615314Y-82932419D01*
X123615314Y-82932419D02*
X123520076Y-82884800D01*
X123520076Y-82884800D02*
X123472457Y-82789561D01*
X123472457Y-82789561D02*
X123472457Y-82408609D01*
X123472457Y-82408609D02*
X123520076Y-82313371D01*
X123520076Y-82313371D02*
X123615314Y-82265752D01*
X123615314Y-82265752D02*
X123805790Y-82265752D01*
X123805790Y-82265752D02*
X123901028Y-82313371D01*
X123901028Y-82313371D02*
X123948647Y-82408609D01*
X123948647Y-82408609D02*
X123948647Y-82503847D01*
X123948647Y-82503847D02*
X123472457Y-82599085D01*
X124377219Y-82932419D02*
X124377219Y-81932419D01*
X124377219Y-82313371D02*
X124472457Y-82265752D01*
X124472457Y-82265752D02*
X124662933Y-82265752D01*
X124662933Y-82265752D02*
X124758171Y-82313371D01*
X124758171Y-82313371D02*
X124805790Y-82360990D01*
X124805790Y-82360990D02*
X124853409Y-82456228D01*
X124853409Y-82456228D02*
X124853409Y-82741942D01*
X124853409Y-82741942D02*
X124805790Y-82837180D01*
X124805790Y-82837180D02*
X124758171Y-82884800D01*
X124758171Y-82884800D02*
X124662933Y-82932419D01*
X124662933Y-82932419D02*
X124472457Y-82932419D01*
X124472457Y-82932419D02*
X124377219Y-82884800D01*
X125234362Y-82027657D02*
X125281981Y-81980038D01*
X125281981Y-81980038D02*
X125377219Y-81932419D01*
X125377219Y-81932419D02*
X125615314Y-81932419D01*
X125615314Y-81932419D02*
X125710552Y-81980038D01*
X125710552Y-81980038D02*
X125758171Y-82027657D01*
X125758171Y-82027657D02*
X125805790Y-82122895D01*
X125805790Y-82122895D02*
X125805790Y-82218133D01*
X125805790Y-82218133D02*
X125758171Y-82360990D01*
X125758171Y-82360990D02*
X125186743Y-82932419D01*
X125186743Y-82932419D02*
X125805790Y-82932419D01*
X126710552Y-81932419D02*
X126234362Y-81932419D01*
X126234362Y-81932419D02*
X126186743Y-82408609D01*
X126186743Y-82408609D02*
X126234362Y-82360990D01*
X126234362Y-82360990D02*
X126329600Y-82313371D01*
X126329600Y-82313371D02*
X126567695Y-82313371D01*
X126567695Y-82313371D02*
X126662933Y-82360990D01*
X126662933Y-82360990D02*
X126710552Y-82408609D01*
X126710552Y-82408609D02*
X126758171Y-82503847D01*
X126758171Y-82503847D02*
X126758171Y-82741942D01*
X126758171Y-82741942D02*
X126710552Y-82837180D01*
X126710552Y-82837180D02*
X126662933Y-82884800D01*
X126662933Y-82884800D02*
X126567695Y-82932419D01*
X126567695Y-82932419D02*
X126329600Y-82932419D01*
X126329600Y-82932419D02*
X126234362Y-82884800D01*
X126234362Y-82884800D02*
X126186743Y-82837180D01*
D11*
X122029523Y-115228152D02*
X122029523Y-116037676D01*
X122029523Y-116037676D02*
X121981904Y-116132914D01*
X121981904Y-116132914D02*
X121934285Y-116180533D01*
X121934285Y-116180533D02*
X121839047Y-116228152D01*
X121839047Y-116228152D02*
X121696190Y-116228152D01*
X121696190Y-116228152D02*
X121600952Y-116180533D01*
X122029523Y-115847200D02*
X121934285Y-115894819D01*
X121934285Y-115894819D02*
X121743809Y-115894819D01*
X121743809Y-115894819D02*
X121648571Y-115847200D01*
X121648571Y-115847200D02*
X121600952Y-115799580D01*
X121600952Y-115799580D02*
X121553333Y-115704342D01*
X121553333Y-115704342D02*
X121553333Y-115418628D01*
X121553333Y-115418628D02*
X121600952Y-115323390D01*
X121600952Y-115323390D02*
X121648571Y-115275771D01*
X121648571Y-115275771D02*
X121743809Y-115228152D01*
X121743809Y-115228152D02*
X121934285Y-115228152D01*
X121934285Y-115228152D02*
X122029523Y-115275771D01*
X122505714Y-115228152D02*
X122505714Y-115894819D01*
X122505714Y-115323390D02*
X122553333Y-115275771D01*
X122553333Y-115275771D02*
X122648571Y-115228152D01*
X122648571Y-115228152D02*
X122791428Y-115228152D01*
X122791428Y-115228152D02*
X122886666Y-115275771D01*
X122886666Y-115275771D02*
X122934285Y-115371009D01*
X122934285Y-115371009D02*
X122934285Y-115894819D01*
X123839047Y-115894819D02*
X123839047Y-114894819D01*
X123839047Y-115847200D02*
X123743809Y-115894819D01*
X123743809Y-115894819D02*
X123553333Y-115894819D01*
X123553333Y-115894819D02*
X123458095Y-115847200D01*
X123458095Y-115847200D02*
X123410476Y-115799580D01*
X123410476Y-115799580D02*
X123362857Y-115704342D01*
X123362857Y-115704342D02*
X123362857Y-115418628D01*
X123362857Y-115418628D02*
X123410476Y-115323390D01*
X123410476Y-115323390D02*
X123458095Y-115275771D01*
X123458095Y-115275771D02*
X123553333Y-115228152D01*
X123553333Y-115228152D02*
X123743809Y-115228152D01*
X123743809Y-115228152D02*
X123839047Y-115275771D01*
D12*
X180040000Y-98330000D02*
X126700000Y-98330000D01*
X118920000Y-86850000D02*
X120250000Y-86850000D01*
X118920000Y-88180000D02*
X118920000Y-86850000D01*
X118920000Y-89450000D02*
X118920000Y-109830000D01*
X118920000Y-89450000D02*
X121520000Y-89450000D01*
X118920000Y-109830000D02*
X124120000Y-109830000D01*
X121520000Y-86850000D02*
X124120000Y-86850000D01*
X121520000Y-89450000D02*
X121520000Y-86850000D01*
X124120000Y-86850000D02*
X124120000Y-109830000D01*
X121800000Y-112560000D02*
X123700000Y-112560000D01*
X121800000Y-114460000D02*
X121800000Y-112560000D01*
X123700000Y-112560000D02*
X123700000Y-114460000D01*
X123700000Y-114460000D02*
X121800000Y-114460000D01*
%LPC*%
D13*
X177500000Y-83090000D03*
X177500000Y-85630000D03*
X177500000Y-88170000D03*
X177500000Y-90710000D03*
X177500000Y-93250000D03*
X177500000Y-95790000D03*
D14*
X174960000Y-83090000D03*
X174960000Y-85630000D03*
X174960000Y-88170000D03*
X174960000Y-90710000D03*
X174960000Y-93250000D03*
X174960000Y-95790000D03*
X172420000Y-83090000D03*
X172420000Y-85630000D03*
X172420000Y-88170000D03*
X172420000Y-90710000D03*
X172420000Y-93250000D03*
X172420000Y-95790000D03*
X169880000Y-83090000D03*
X169880000Y-85630000D03*
X169880000Y-88170000D03*
X169880000Y-90710000D03*
X169880000Y-93250000D03*
X169880000Y-95790000D03*
X167340000Y-83090000D03*
X167340000Y-85630000D03*
X167340000Y-88170000D03*
X167340000Y-90710000D03*
X167340000Y-93250000D03*
X167340000Y-95790000D03*
X164800000Y-83090000D03*
X164800000Y-85630000D03*
X164800000Y-88170000D03*
X164800000Y-90710000D03*
X164800000Y-93250000D03*
X164800000Y-95790000D03*
X162260000Y-83090000D03*
X162260000Y-85630000D03*
X162260000Y-88170000D03*
X162260000Y-90710000D03*
X162260000Y-93250000D03*
X162260000Y-95790000D03*
X159720000Y-83090000D03*
X159720000Y-85630000D03*
X159720000Y-88170000D03*
X159720000Y-90710000D03*
X159720000Y-93250000D03*
X159720000Y-95790000D03*
X157180000Y-83090000D03*
X157180000Y-85630000D03*
X157180000Y-88170000D03*
X157180000Y-90710000D03*
X157180000Y-93250000D03*
X157180000Y-95790000D03*
X154640000Y-83090000D03*
X154640000Y-85630000D03*
X154640000Y-88170000D03*
X154640000Y-90710000D03*
X154640000Y-93250000D03*
X154640000Y-95790000D03*
X152100000Y-83090000D03*
X152100000Y-85630000D03*
X152100000Y-88170000D03*
X152100000Y-90710000D03*
X152100000Y-93250000D03*
X152100000Y-95790000D03*
X149560000Y-83090000D03*
X149560000Y-85630000D03*
X149560000Y-88170000D03*
X149560000Y-90710000D03*
X149560000Y-93250000D03*
X149560000Y-95790000D03*
X147020000Y-83090000D03*
X147020000Y-85630000D03*
X147020000Y-88170000D03*
X147020000Y-90710000D03*
X147020000Y-93250000D03*
X147020000Y-95790000D03*
X144480000Y-83090000D03*
X144480000Y-85630000D03*
X144480000Y-88170000D03*
X144480000Y-90710000D03*
X144480000Y-93250000D03*
X144480000Y-95790000D03*
X141940000Y-83090000D03*
X141940000Y-85630000D03*
X141940000Y-88170000D03*
X141940000Y-90710000D03*
X141940000Y-93250000D03*
X141940000Y-95790000D03*
X139400000Y-83090000D03*
X139400000Y-85630000D03*
X139400000Y-88170000D03*
X139400000Y-90710000D03*
X139400000Y-93250000D03*
X139400000Y-95790000D03*
X136860000Y-83090000D03*
X136860000Y-85630000D03*
X136860000Y-88170000D03*
X136860000Y-90710000D03*
X136860000Y-93250000D03*
X136860000Y-95790000D03*
X134320000Y-83090000D03*
X134320000Y-85630000D03*
X134320000Y-88170000D03*
X134320000Y-90710000D03*
X134320000Y-93250000D03*
X134320000Y-95790000D03*
X131780000Y-83090000D03*
X131780000Y-85630000D03*
X131780000Y-88170000D03*
X131780000Y-90710000D03*
X131780000Y-93250000D03*
X131780000Y-95790000D03*
X129240000Y-83090000D03*
X129240000Y-85630000D03*
X129240000Y-88170000D03*
X129240000Y-90710000D03*
X129240000Y-93250000D03*
X129240000Y-95790000D03*
D13*
X177500000Y-100870000D03*
X177500000Y-103410000D03*
X177500000Y-105950000D03*
X177500000Y-108490000D03*
X177500000Y-111030000D03*
X177500000Y-113570000D03*
D14*
X174960000Y-100870000D03*
X174960000Y-103410000D03*
X174960000Y-105950000D03*
X174960000Y-108490000D03*
X174960000Y-111030000D03*
X174960000Y-113570000D03*
X172420000Y-100870000D03*
X172420000Y-103410000D03*
X172420000Y-105950000D03*
X172420000Y-108490000D03*
X172420000Y-111030000D03*
X172420000Y-113570000D03*
X169880000Y-100870000D03*
X169880000Y-103410000D03*
X169880000Y-105950000D03*
X169880000Y-108490000D03*
X169880000Y-111030000D03*
X169880000Y-113570000D03*
X167340000Y-100870000D03*
X167340000Y-103410000D03*
X167340000Y-105950000D03*
X167340000Y-108490000D03*
X167340000Y-111030000D03*
X167340000Y-113570000D03*
X164800000Y-100870000D03*
X164800000Y-103410000D03*
X164800000Y-105950000D03*
X164800000Y-108490000D03*
X164800000Y-111030000D03*
X164800000Y-113570000D03*
X162260000Y-100870000D03*
X162260000Y-103410000D03*
X162260000Y-105950000D03*
X162260000Y-108490000D03*
X162260000Y-111030000D03*
X162260000Y-113570000D03*
X159720000Y-100870000D03*
X159720000Y-103410000D03*
X159720000Y-105950000D03*
X159720000Y-108490000D03*
X159720000Y-111030000D03*
X159720000Y-113570000D03*
X157180000Y-100870000D03*
X157180000Y-103410000D03*
X157180000Y-105950000D03*
X157180000Y-108490000D03*
X157180000Y-111030000D03*
X157180000Y-113570000D03*
X154640000Y-100870000D03*
X154640000Y-103410000D03*
X154640000Y-105950000D03*
X154640000Y-108490000D03*
X154640000Y-111030000D03*
X154640000Y-113570000D03*
X152100000Y-100870000D03*
X152100000Y-103410000D03*
X152100000Y-105950000D03*
X152100000Y-108490000D03*
X152100000Y-111030000D03*
X152100000Y-113570000D03*
X149560000Y-100870000D03*
X149560000Y-103410000D03*
X149560000Y-105950000D03*
X149560000Y-108490000D03*
X149560000Y-111030000D03*
X149560000Y-113570000D03*
X147020000Y-100870000D03*
X147020000Y-103410000D03*
X147020000Y-105950000D03*
X147020000Y-108490000D03*
X147020000Y-111030000D03*
X147020000Y-113570000D03*
X144480000Y-100870000D03*
X144480000Y-103410000D03*
X144480000Y-105950000D03*
X144480000Y-108490000D03*
X144480000Y-111030000D03*
X144480000Y-113570000D03*
X141940000Y-100870000D03*
X141940000Y-103410000D03*
X141940000Y-105950000D03*
X141940000Y-108490000D03*
X141940000Y-111030000D03*
X141940000Y-113570000D03*
X139400000Y-100870000D03*
X139400000Y-103410000D03*
X139400000Y-105950000D03*
X139400000Y-108490000D03*
X139400000Y-111030000D03*
X139400000Y-113570000D03*
X136860000Y-100870000D03*
X136860000Y-103410000D03*
X136860000Y-105950000D03*
X136860000Y-108490000D03*
X136860000Y-111030000D03*
X136860000Y-113570000D03*
X134320000Y-100870000D03*
X134320000Y-103410000D03*
X134320000Y-105950000D03*
X134320000Y-108490000D03*
X134320000Y-111030000D03*
X134320000Y-113570000D03*
X131780000Y-100870000D03*
X131780000Y-103410000D03*
X131780000Y-105950000D03*
X131780000Y-108490000D03*
X131780000Y-111030000D03*
X131780000Y-113570000D03*
X129240000Y-100870000D03*
X129240000Y-103410000D03*
X129240000Y-105950000D03*
X129240000Y-108490000D03*
X129240000Y-111030000D03*
X129240000Y-113570000D03*
D15*
X120250000Y-88180000D03*
D14*
X122790000Y-88180000D03*
X120250000Y-90720000D03*
X122790000Y-90720000D03*
X120250000Y-93260000D03*
X122790000Y-93260000D03*
X120250000Y-95800000D03*
X122790000Y-95800000D03*
X120250000Y-98340000D03*
X122790000Y-98340000D03*
X120250000Y-100880000D03*
X122790000Y-100880000D03*
X120250000Y-103420000D03*
X122790000Y-103420000D03*
X120250000Y-105960000D03*
X122790000Y-105960000D03*
X120250000Y-108500000D03*
X122790000Y-108500000D03*
D16*
X122750000Y-113510000D03*
%LPD*%
M02*
