G04 #@! TF.GenerationSoftware,KiCad,Pcbnew,8.0.8*
G04 #@! TF.CreationDate,2025-02-19T13:58:02-05:00*
G04 #@! TF.ProjectId,plot_gerbers,706c6f74-5f67-4657-9262-6572732e6b69,rev?*
G04 #@! TF.SameCoordinates,Original*
G04 #@! TF.FileFunction,Profile,NP*
%FSLAX46Y46*%
G04 Gerber Fmt 4.6, Leading zero omitted, Abs format (unit mm)*
G04 Created by KiCad (PCBNEW 8.0.8) date 2025-02-19 13:58:02*
%MOMM*%
%LPD*%
G01*
G04 APERTURE LIST*
G04 #@! TA.AperFunction,Profile*
%ADD10C,0.050000*%
G04 #@! TD*
G04 APERTURE END LIST*
D10*
X116330000Y-113730000D02*
X115080000Y-113730000D01*
X182610000Y-82930000D02*
X183860000Y-82930000D01*
X183870000Y-113730000D02*
X183870000Y-118230000D01*
X116320000Y-111330000D02*
G75*
G02*
X117270000Y-112530000I-125001J-1075001D01*
G01*
X115070000Y-82930000D02*
X115070000Y-78430000D01*
X181670000Y-112530000D02*
G75*
G02*
X182620000Y-111330000I1075001J124999D01*
G01*
X116320000Y-82930000D02*
X115070000Y-82930000D01*
X117270000Y-84130000D02*
G75*
G02*
X116320000Y-85330000I-1075001J-124999D01*
G01*
X115080000Y-118230000D02*
X115080000Y-113730000D01*
X116320000Y-82930000D02*
G75*
G02*
X117270000Y-84130000I-125001J-1075001D01*
G01*
X117270000Y-112530000D02*
G75*
G02*
X116320000Y-113730000I-1075001J-124999D01*
G01*
X181670000Y-84130000D02*
G75*
G02*
X182620000Y-82930000I1075001J124999D01*
G01*
X182620000Y-113730000D02*
X183870000Y-113730000D01*
X182620000Y-111330000D02*
X182620000Y-85330000D01*
X116320000Y-85330000D02*
X116320000Y-111330000D01*
X115070000Y-78430000D02*
X183860000Y-78430000D01*
X115080000Y-118230000D02*
X183870000Y-118230000D01*
X183860000Y-78430000D02*
X183860000Y-82930000D01*
X182620000Y-113730000D02*
G75*
G02*
X181670000Y-112530000I125001J1075001D01*
G01*
X182620000Y-85330000D02*
G75*
G02*
X181670000Y-84130000I125001J1075001D01*
G01*
M02*
