G04 #@! TF.GenerationSoftware,KiCad,Pcbnew,8.0.8*
G04 #@! TF.CreationDate,2025-02-19T13:58:02-05:00*
G04 #@! TF.ProjectId,plot_gerbers,706c6f74-5f67-4657-9262-6572732e6b69,rev?*
G04 #@! TF.SameCoordinates,Original*
G04 #@! TF.FileFunction,Soldermask,Top*
G04 #@! TF.FilePolarity,Negative*
%FSLAX46Y46*%
G04 Gerber Fmt 4.6, Leading zero omitted, Abs format (unit mm)*
G04 Created by KiCad (PCBNEW 8.0.8) date 2025-02-19 13:58:02*
%MOMM*%
%LPD*%
G01*
G04 APERTURE LIST*
%ADD10C,1.700000*%
%ADD11O,1.700000X1.700000*%
%ADD12R,1.700000X1.700000*%
%ADD13R,1.500000X1.500000*%
G04 APERTURE END LIST*
D10*
X177500000Y-83090000D03*
X177500000Y-85630000D03*
X177500000Y-88170000D03*
X177500000Y-90710000D03*
X177500000Y-93250000D03*
X177500000Y-95790000D03*
D11*
X174960000Y-83090000D03*
X174960000Y-85630000D03*
X174960000Y-88170000D03*
X174960000Y-90710000D03*
X174960000Y-93250000D03*
X174960000Y-95790000D03*
X172420000Y-83090000D03*
X172420000Y-85630000D03*
X172420000Y-88170000D03*
X172420000Y-90710000D03*
X172420000Y-93250000D03*
X172420000Y-95790000D03*
X169880000Y-83090000D03*
X169880000Y-85630000D03*
X169880000Y-88170000D03*
X169880000Y-90710000D03*
X169880000Y-93250000D03*
X169880000Y-95790000D03*
X167340000Y-83090000D03*
X167340000Y-85630000D03*
X167340000Y-88170000D03*
X167340000Y-90710000D03*
X167340000Y-93250000D03*
X167340000Y-95790000D03*
X164800000Y-83090000D03*
X164800000Y-85630000D03*
X164800000Y-88170000D03*
X164800000Y-90710000D03*
X164800000Y-93250000D03*
X164800000Y-95790000D03*
X162260000Y-83090000D03*
X162260000Y-85630000D03*
X162260000Y-88170000D03*
X162260000Y-90710000D03*
X162260000Y-93250000D03*
X162260000Y-95790000D03*
X159720000Y-83090000D03*
X159720000Y-85630000D03*
X159720000Y-88170000D03*
X159720000Y-90710000D03*
X159720000Y-93250000D03*
X159720000Y-95790000D03*
X157180000Y-83090000D03*
X157180000Y-85630000D03*
X157180000Y-88170000D03*
X157180000Y-90710000D03*
X157180000Y-93250000D03*
X157180000Y-95790000D03*
X154640000Y-83090000D03*
X154640000Y-85630000D03*
X154640000Y-88170000D03*
X154640000Y-90710000D03*
X154640000Y-93250000D03*
X154640000Y-95790000D03*
X152100000Y-83090000D03*
X152100000Y-85630000D03*
X152100000Y-88170000D03*
X152100000Y-90710000D03*
X152100000Y-93250000D03*
X152100000Y-95790000D03*
X149560000Y-83090000D03*
X149560000Y-85630000D03*
X149560000Y-88170000D03*
X149560000Y-90710000D03*
X149560000Y-93250000D03*
X149560000Y-95790000D03*
X147020000Y-83090000D03*
X147020000Y-85630000D03*
X147020000Y-88170000D03*
X147020000Y-90710000D03*
X147020000Y-93250000D03*
X147020000Y-95790000D03*
X144480000Y-83090000D03*
X144480000Y-85630000D03*
X144480000Y-88170000D03*
X144480000Y-90710000D03*
X144480000Y-93250000D03*
X144480000Y-95790000D03*
X141940000Y-83090000D03*
X141940000Y-85630000D03*
X141940000Y-88170000D03*
X141940000Y-90710000D03*
X141940000Y-93250000D03*
X141940000Y-95790000D03*
X139400000Y-83090000D03*
X139400000Y-85630000D03*
X139400000Y-88170000D03*
X139400000Y-90710000D03*
X139400000Y-93250000D03*
X139400000Y-95790000D03*
X136860000Y-83090000D03*
X136860000Y-85630000D03*
X136860000Y-88170000D03*
X136860000Y-90710000D03*
X136860000Y-93250000D03*
X136860000Y-95790000D03*
X134320000Y-83090000D03*
X134320000Y-85630000D03*
X134320000Y-88170000D03*
X134320000Y-90710000D03*
X134320000Y-93250000D03*
X134320000Y-95790000D03*
X131780000Y-83090000D03*
X131780000Y-85630000D03*
X131780000Y-88170000D03*
X131780000Y-90710000D03*
X131780000Y-93250000D03*
X131780000Y-95790000D03*
X129240000Y-83090000D03*
X129240000Y-85630000D03*
X129240000Y-88170000D03*
X129240000Y-90710000D03*
X129240000Y-93250000D03*
X129240000Y-95790000D03*
D10*
X177500000Y-100870000D03*
X177500000Y-103410000D03*
X177500000Y-105950000D03*
X177500000Y-108490000D03*
X177500000Y-111030000D03*
X177500000Y-113570000D03*
D11*
X174960000Y-100870000D03*
X174960000Y-103410000D03*
X174960000Y-105950000D03*
X174960000Y-108490000D03*
X174960000Y-111030000D03*
X174960000Y-113570000D03*
X172420000Y-100870000D03*
X172420000Y-103410000D03*
X172420000Y-105950000D03*
X172420000Y-108490000D03*
X172420000Y-111030000D03*
X172420000Y-113570000D03*
X169880000Y-100870000D03*
X169880000Y-103410000D03*
X169880000Y-105950000D03*
X169880000Y-108490000D03*
X169880000Y-111030000D03*
X169880000Y-113570000D03*
X167340000Y-100870000D03*
X167340000Y-103410000D03*
X167340000Y-105950000D03*
X167340000Y-108490000D03*
X167340000Y-111030000D03*
X167340000Y-113570000D03*
X164800000Y-100870000D03*
X164800000Y-103410000D03*
X164800000Y-105950000D03*
X164800000Y-108490000D03*
X164800000Y-111030000D03*
X164800000Y-113570000D03*
X162260000Y-100870000D03*
X162260000Y-103410000D03*
X162260000Y-105950000D03*
X162260000Y-108490000D03*
X162260000Y-111030000D03*
X162260000Y-113570000D03*
X159720000Y-100870000D03*
X159720000Y-103410000D03*
X159720000Y-105950000D03*
X159720000Y-108490000D03*
X159720000Y-111030000D03*
X159720000Y-113570000D03*
X157180000Y-100870000D03*
X157180000Y-103410000D03*
X157180000Y-105950000D03*
X157180000Y-108490000D03*
X157180000Y-111030000D03*
X157180000Y-113570000D03*
X154640000Y-100870000D03*
X154640000Y-103410000D03*
X154640000Y-105950000D03*
X154640000Y-108490000D03*
X154640000Y-111030000D03*
X154640000Y-113570000D03*
X152100000Y-100870000D03*
X152100000Y-103410000D03*
X152100000Y-105950000D03*
X152100000Y-108490000D03*
X152100000Y-111030000D03*
X152100000Y-113570000D03*
X149560000Y-100870000D03*
X149560000Y-103410000D03*
X149560000Y-105950000D03*
X149560000Y-108490000D03*
X149560000Y-111030000D03*
X149560000Y-113570000D03*
X147020000Y-100870000D03*
X147020000Y-103410000D03*
X147020000Y-105950000D03*
X147020000Y-108490000D03*
X147020000Y-111030000D03*
X147020000Y-113570000D03*
X144480000Y-100870000D03*
X144480000Y-103410000D03*
X144480000Y-105950000D03*
X144480000Y-108490000D03*
X144480000Y-111030000D03*
X144480000Y-113570000D03*
X141940000Y-100870000D03*
X141940000Y-103410000D03*
X141940000Y-105950000D03*
X141940000Y-108490000D03*
X141940000Y-111030000D03*
X141940000Y-113570000D03*
X139400000Y-100870000D03*
X139400000Y-103410000D03*
X139400000Y-105950000D03*
X139400000Y-108490000D03*
X139400000Y-111030000D03*
X139400000Y-113570000D03*
X136860000Y-100870000D03*
X136860000Y-103410000D03*
X136860000Y-105950000D03*
X136860000Y-108490000D03*
X136860000Y-111030000D03*
X136860000Y-113570000D03*
X134320000Y-100870000D03*
X134320000Y-103410000D03*
X134320000Y-105950000D03*
X134320000Y-108490000D03*
X134320000Y-111030000D03*
X134320000Y-113570000D03*
X131780000Y-100870000D03*
X131780000Y-103410000D03*
X131780000Y-105950000D03*
X131780000Y-108490000D03*
X131780000Y-111030000D03*
X131780000Y-113570000D03*
X129240000Y-100870000D03*
X129240000Y-103410000D03*
X129240000Y-105950000D03*
X129240000Y-108490000D03*
X129240000Y-111030000D03*
X129240000Y-113570000D03*
D12*
X120250000Y-88180000D03*
D11*
X122790000Y-88180000D03*
X120250000Y-90720000D03*
X122790000Y-90720000D03*
X120250000Y-93260000D03*
X122790000Y-93260000D03*
X120250000Y-95800000D03*
X122790000Y-95800000D03*
X120250000Y-98340000D03*
X122790000Y-98340000D03*
X120250000Y-100880000D03*
X122790000Y-100880000D03*
X120250000Y-103420000D03*
X122790000Y-103420000D03*
X120250000Y-105960000D03*
X122790000Y-105960000D03*
X120250000Y-108500000D03*
X122790000Y-108500000D03*
D13*
X122750000Y-113510000D03*
M02*
