G04 #@! TF.GenerationSoftware,KiCad,Pcbnew,8.0.8*
G04 #@! TF.CreationDate,2025-02-19T13:58:02-05:00*
G04 #@! TF.ProjectId,plot_gerbers,706c6f74-5f67-4657-9262-6572732e6b69,rev?*
G04 #@! TF.SameCoordinates,Original*
G04 #@! TF.FileFunction,Legend,Bot*
G04 #@! TF.FilePolarity,Positive*
%FSLAX46Y46*%
G04 Gerber Fmt 4.6, Leading zero omitted, Abs format (unit mm)*
G04 Created by KiCad (PCBNEW 8.0.8) date 2025-02-19 13:58:02*
%MOMM*%
%LPD*%
G01*
G04 APERTURE LIST*
%ADD10C,0.100000*%
%ADD11C,1.700000*%
%ADD12O,1.700000X1.700000*%
%ADD13R,1.700000X1.700000*%
%ADD14R,1.500000X1.500000*%
G04 APERTURE END LIST*
D10*
X168499598Y-97892419D02*
X168499598Y-98606704D01*
X168499598Y-98606704D02*
X168451979Y-98749561D01*
X168451979Y-98749561D02*
X168356741Y-98844800D01*
X168356741Y-98844800D02*
X168213884Y-98892419D01*
X168213884Y-98892419D02*
X168118646Y-98892419D01*
X169451979Y-98892419D02*
X168975789Y-98892419D01*
X168975789Y-98892419D02*
X168975789Y-97892419D01*
X170356741Y-98797180D02*
X170309122Y-98844800D01*
X170309122Y-98844800D02*
X170166265Y-98892419D01*
X170166265Y-98892419D02*
X170071027Y-98892419D01*
X170071027Y-98892419D02*
X169928170Y-98844800D01*
X169928170Y-98844800D02*
X169832932Y-98749561D01*
X169832932Y-98749561D02*
X169785313Y-98654323D01*
X169785313Y-98654323D02*
X169737694Y-98463847D01*
X169737694Y-98463847D02*
X169737694Y-98320990D01*
X169737694Y-98320990D02*
X169785313Y-98130514D01*
X169785313Y-98130514D02*
X169832932Y-98035276D01*
X169832932Y-98035276D02*
X169928170Y-97940038D01*
X169928170Y-97940038D02*
X170071027Y-97892419D01*
X170071027Y-97892419D02*
X170166265Y-97892419D01*
X170166265Y-97892419D02*
X170309122Y-97940038D01*
X170309122Y-97940038D02*
X170356741Y-97987657D01*
X171071027Y-97892419D02*
X171071027Y-98606704D01*
X171071027Y-98606704D02*
X171023408Y-98749561D01*
X171023408Y-98749561D02*
X170928170Y-98844800D01*
X170928170Y-98844800D02*
X170785313Y-98892419D01*
X170785313Y-98892419D02*
X170690075Y-98892419D01*
X172023408Y-98892419D02*
X171547218Y-98892419D01*
X171547218Y-98892419D02*
X171547218Y-97892419D01*
X172928170Y-98797180D02*
X172880551Y-98844800D01*
X172880551Y-98844800D02*
X172737694Y-98892419D01*
X172737694Y-98892419D02*
X172642456Y-98892419D01*
X172642456Y-98892419D02*
X172499599Y-98844800D01*
X172499599Y-98844800D02*
X172404361Y-98749561D01*
X172404361Y-98749561D02*
X172356742Y-98654323D01*
X172356742Y-98654323D02*
X172309123Y-98463847D01*
X172309123Y-98463847D02*
X172309123Y-98320990D01*
X172309123Y-98320990D02*
X172356742Y-98130514D01*
X172356742Y-98130514D02*
X172404361Y-98035276D01*
X172404361Y-98035276D02*
X172499599Y-97940038D01*
X172499599Y-97940038D02*
X172642456Y-97892419D01*
X172642456Y-97892419D02*
X172737694Y-97892419D01*
X172737694Y-97892419D02*
X172880551Y-97940038D01*
X172880551Y-97940038D02*
X172928170Y-97987657D01*
X173642456Y-97892419D02*
X173642456Y-98606704D01*
X173642456Y-98606704D02*
X173594837Y-98749561D01*
X173594837Y-98749561D02*
X173499599Y-98844800D01*
X173499599Y-98844800D02*
X173356742Y-98892419D01*
X173356742Y-98892419D02*
X173261504Y-98892419D01*
X174594837Y-98892419D02*
X174118647Y-98892419D01*
X174118647Y-98892419D02*
X174118647Y-97892419D01*
X175499599Y-98797180D02*
X175451980Y-98844800D01*
X175451980Y-98844800D02*
X175309123Y-98892419D01*
X175309123Y-98892419D02*
X175213885Y-98892419D01*
X175213885Y-98892419D02*
X175071028Y-98844800D01*
X175071028Y-98844800D02*
X174975790Y-98749561D01*
X174975790Y-98749561D02*
X174928171Y-98654323D01*
X174928171Y-98654323D02*
X174880552Y-98463847D01*
X174880552Y-98463847D02*
X174880552Y-98320990D01*
X174880552Y-98320990D02*
X174928171Y-98130514D01*
X174928171Y-98130514D02*
X174975790Y-98035276D01*
X174975790Y-98035276D02*
X175071028Y-97940038D01*
X175071028Y-97940038D02*
X175213885Y-97892419D01*
X175213885Y-97892419D02*
X175309123Y-97892419D01*
X175309123Y-97892419D02*
X175451980Y-97940038D01*
X175451980Y-97940038D02*
X175499599Y-97987657D01*
X176213885Y-97892419D02*
X176213885Y-98606704D01*
X176213885Y-98606704D02*
X176166266Y-98749561D01*
X176166266Y-98749561D02*
X176071028Y-98844800D01*
X176071028Y-98844800D02*
X175928171Y-98892419D01*
X175928171Y-98892419D02*
X175832933Y-98892419D01*
X177166266Y-98892419D02*
X176690076Y-98892419D01*
X176690076Y-98892419D02*
X176690076Y-97892419D01*
X178071028Y-98797180D02*
X178023409Y-98844800D01*
X178023409Y-98844800D02*
X177880552Y-98892419D01*
X177880552Y-98892419D02*
X177785314Y-98892419D01*
X177785314Y-98892419D02*
X177642457Y-98844800D01*
X177642457Y-98844800D02*
X177547219Y-98749561D01*
X177547219Y-98749561D02*
X177499600Y-98654323D01*
X177499600Y-98654323D02*
X177451981Y-98463847D01*
X177451981Y-98463847D02*
X177451981Y-98320990D01*
X177451981Y-98320990D02*
X177499600Y-98130514D01*
X177499600Y-98130514D02*
X177547219Y-98035276D01*
X177547219Y-98035276D02*
X177642457Y-97940038D01*
X177642457Y-97940038D02*
X177785314Y-97892419D01*
X177785314Y-97892419D02*
X177880552Y-97892419D01*
X177880552Y-97892419D02*
X178023409Y-97940038D01*
X178023409Y-97940038D02*
X178071028Y-97987657D01*
%LPC*%
D11*
X177500000Y-83090000D03*
X177500000Y-85630000D03*
X177500000Y-88170000D03*
X177500000Y-90710000D03*
X177500000Y-93250000D03*
X177500000Y-95790000D03*
D12*
X174960000Y-83090000D03*
X174960000Y-85630000D03*
X174960000Y-88170000D03*
X174960000Y-90710000D03*
X174960000Y-93250000D03*
X174960000Y-95790000D03*
X172420000Y-83090000D03*
X172420000Y-85630000D03*
X172420000Y-88170000D03*
X172420000Y-90710000D03*
X172420000Y-93250000D03*
X172420000Y-95790000D03*
X169880000Y-83090000D03*
X169880000Y-85630000D03*
X169880000Y-88170000D03*
X169880000Y-90710000D03*
X169880000Y-93250000D03*
X169880000Y-95790000D03*
X167340000Y-83090000D03*
X167340000Y-85630000D03*
X167340000Y-88170000D03*
X167340000Y-90710000D03*
X167340000Y-93250000D03*
X167340000Y-95790000D03*
X164800000Y-83090000D03*
X164800000Y-85630000D03*
X164800000Y-88170000D03*
X164800000Y-90710000D03*
X164800000Y-93250000D03*
X164800000Y-95790000D03*
X162260000Y-83090000D03*
X162260000Y-85630000D03*
X162260000Y-88170000D03*
X162260000Y-90710000D03*
X162260000Y-93250000D03*
X162260000Y-95790000D03*
X159720000Y-83090000D03*
X159720000Y-85630000D03*
X159720000Y-88170000D03*
X159720000Y-90710000D03*
X159720000Y-93250000D03*
X159720000Y-95790000D03*
X157180000Y-83090000D03*
X157180000Y-85630000D03*
X157180000Y-88170000D03*
X157180000Y-90710000D03*
X157180000Y-93250000D03*
X157180000Y-95790000D03*
X154640000Y-83090000D03*
X154640000Y-85630000D03*
X154640000Y-88170000D03*
X154640000Y-90710000D03*
X154640000Y-93250000D03*
X154640000Y-95790000D03*
X152100000Y-83090000D03*
X152100000Y-85630000D03*
X152100000Y-88170000D03*
X152100000Y-90710000D03*
X152100000Y-93250000D03*
X152100000Y-95790000D03*
X149560000Y-83090000D03*
X149560000Y-85630000D03*
X149560000Y-88170000D03*
X149560000Y-90710000D03*
X149560000Y-93250000D03*
X149560000Y-95790000D03*
X147020000Y-83090000D03*
X147020000Y-85630000D03*
X147020000Y-88170000D03*
X147020000Y-90710000D03*
X147020000Y-93250000D03*
X147020000Y-95790000D03*
X144480000Y-83090000D03*
X144480000Y-85630000D03*
X144480000Y-88170000D03*
X144480000Y-90710000D03*
X144480000Y-93250000D03*
X144480000Y-95790000D03*
X141940000Y-83090000D03*
X141940000Y-85630000D03*
X141940000Y-88170000D03*
X141940000Y-90710000D03*
X141940000Y-93250000D03*
X141940000Y-95790000D03*
X139400000Y-83090000D03*
X139400000Y-85630000D03*
X139400000Y-88170000D03*
X139400000Y-90710000D03*
X139400000Y-93250000D03*
X139400000Y-95790000D03*
X136860000Y-83090000D03*
X136860000Y-85630000D03*
X136860000Y-88170000D03*
X136860000Y-90710000D03*
X136860000Y-93250000D03*
X136860000Y-95790000D03*
X134320000Y-83090000D03*
X134320000Y-85630000D03*
X134320000Y-88170000D03*
X134320000Y-90710000D03*
X134320000Y-93250000D03*
X134320000Y-95790000D03*
X131780000Y-83090000D03*
X131780000Y-85630000D03*
X131780000Y-88170000D03*
X131780000Y-90710000D03*
X131780000Y-93250000D03*
X131780000Y-95790000D03*
X129240000Y-83090000D03*
X129240000Y-85630000D03*
X129240000Y-88170000D03*
X129240000Y-90710000D03*
X129240000Y-93250000D03*
X129240000Y-95790000D03*
D11*
X177500000Y-100870000D03*
X177500000Y-103410000D03*
X177500000Y-105950000D03*
X177500000Y-108490000D03*
X177500000Y-111030000D03*
X177500000Y-113570000D03*
D12*
X174960000Y-100870000D03*
X174960000Y-103410000D03*
X174960000Y-105950000D03*
X174960000Y-108490000D03*
X174960000Y-111030000D03*
X174960000Y-113570000D03*
X172420000Y-100870000D03*
X172420000Y-103410000D03*
X172420000Y-105950000D03*
X172420000Y-108490000D03*
X172420000Y-111030000D03*
X172420000Y-113570000D03*
X169880000Y-100870000D03*
X169880000Y-103410000D03*
X169880000Y-105950000D03*
X169880000Y-108490000D03*
X169880000Y-111030000D03*
X169880000Y-113570000D03*
X167340000Y-100870000D03*
X167340000Y-103410000D03*
X167340000Y-105950000D03*
X167340000Y-108490000D03*
X167340000Y-111030000D03*
X167340000Y-113570000D03*
X164800000Y-100870000D03*
X164800000Y-103410000D03*
X164800000Y-105950000D03*
X164800000Y-108490000D03*
X164800000Y-111030000D03*
X164800000Y-113570000D03*
X162260000Y-100870000D03*
X162260000Y-103410000D03*
X162260000Y-105950000D03*
X162260000Y-108490000D03*
X162260000Y-111030000D03*
X162260000Y-113570000D03*
X159720000Y-100870000D03*
X159720000Y-103410000D03*
X159720000Y-105950000D03*
X159720000Y-108490000D03*
X159720000Y-111030000D03*
X159720000Y-113570000D03*
X157180000Y-100870000D03*
X157180000Y-103410000D03*
X157180000Y-105950000D03*
X157180000Y-108490000D03*
X157180000Y-111030000D03*
X157180000Y-113570000D03*
X154640000Y-100870000D03*
X154640000Y-103410000D03*
X154640000Y-105950000D03*
X154640000Y-108490000D03*
X154640000Y-111030000D03*
X154640000Y-113570000D03*
X152100000Y-100870000D03*
X152100000Y-103410000D03*
X152100000Y-105950000D03*
X152100000Y-108490000D03*
X152100000Y-111030000D03*
X152100000Y-113570000D03*
X149560000Y-100870000D03*
X149560000Y-103410000D03*
X149560000Y-105950000D03*
X149560000Y-108490000D03*
X149560000Y-111030000D03*
X149560000Y-113570000D03*
X147020000Y-100870000D03*
X147020000Y-103410000D03*
X147020000Y-105950000D03*
X147020000Y-108490000D03*
X147020000Y-111030000D03*
X147020000Y-113570000D03*
X144480000Y-100870000D03*
X144480000Y-103410000D03*
X144480000Y-105950000D03*
X144480000Y-108490000D03*
X144480000Y-111030000D03*
X144480000Y-113570000D03*
X141940000Y-100870000D03*
X141940000Y-103410000D03*
X141940000Y-105950000D03*
X141940000Y-108490000D03*
X141940000Y-111030000D03*
X141940000Y-113570000D03*
X139400000Y-100870000D03*
X139400000Y-103410000D03*
X139400000Y-105950000D03*
X139400000Y-108490000D03*
X139400000Y-111030000D03*
X139400000Y-113570000D03*
X136860000Y-100870000D03*
X136860000Y-103410000D03*
X136860000Y-105950000D03*
X136860000Y-108490000D03*
X136860000Y-111030000D03*
X136860000Y-113570000D03*
X134320000Y-100870000D03*
X134320000Y-103410000D03*
X134320000Y-105950000D03*
X134320000Y-108490000D03*
X134320000Y-111030000D03*
X134320000Y-113570000D03*
X131780000Y-100870000D03*
X131780000Y-103410000D03*
X131780000Y-105950000D03*
X131780000Y-108490000D03*
X131780000Y-111030000D03*
X131780000Y-113570000D03*
X129240000Y-100870000D03*
X129240000Y-103410000D03*
X129240000Y-105950000D03*
X129240000Y-108490000D03*
X129240000Y-111030000D03*
X129240000Y-113570000D03*
D13*
X120250000Y-88180000D03*
D12*
X122790000Y-88180000D03*
X120250000Y-90720000D03*
X122790000Y-90720000D03*
X120250000Y-93260000D03*
X122790000Y-93260000D03*
X120250000Y-95800000D03*
X122790000Y-95800000D03*
X120250000Y-98340000D03*
X122790000Y-98340000D03*
X120250000Y-100880000D03*
X122790000Y-100880000D03*
X120250000Y-103420000D03*
X122790000Y-103420000D03*
X120250000Y-105960000D03*
X122790000Y-105960000D03*
X120250000Y-108500000D03*
X122790000Y-108500000D03*
D14*
X122750000Y-113510000D03*
%LPD*%
M02*
