G04 #@! TF.GenerationSoftware,KiCad,Pcbnew,8.0.8*
G04 #@! TF.CreationDate,2025-02-19T14:02:03-05:00*
G04 #@! TF.ProjectId,plot_gerbers,706c6f74-5f67-4657-9262-6572732e6b69,rev?*
G04 #@! TF.SameCoordinates,Original*
G04 #@! TF.FileFunction,Soldermask,Bot*
G04 #@! TF.FilePolarity,Negative*
%FSLAX46Y46*%
G04 Gerber Fmt 4.6, Leading zero omitted, Abs format (unit mm)*
G04 Created by KiCad (PCBNEW 8.0.8) date 2025-02-19 14:02:03*
%MOMM*%
%LPD*%
G01*
G04 APERTURE LIST*
%ADD10C,1.700000*%
%ADD11O,1.700000X1.700000*%
%ADD12R,1.700000X1.700000*%
%ADD13R,1.500000X1.500000*%
G04 APERTURE END LIST*
D10*
X124820000Y-127310000D03*
X124820000Y-124770000D03*
X124820000Y-122230000D03*
X124820000Y-119690000D03*
D11*
X127360000Y-127310000D03*
X127360000Y-124770000D03*
X127360000Y-122230000D03*
X127360000Y-119690000D03*
X129900000Y-127310000D03*
X129900000Y-124770000D03*
X129900000Y-122230000D03*
X129900000Y-119690000D03*
X132440000Y-127310000D03*
X132440000Y-124770000D03*
X132440000Y-122230000D03*
X132440000Y-119690000D03*
X134980000Y-127310000D03*
X134980000Y-124770000D03*
X134980000Y-122230000D03*
X134980000Y-119690000D03*
X137520000Y-127310000D03*
X137520000Y-124770000D03*
X137520000Y-122230000D03*
X137520000Y-119690000D03*
X140060000Y-127310000D03*
X140060000Y-124770000D03*
X140060000Y-122230000D03*
X140060000Y-119690000D03*
X142600000Y-127310000D03*
X142600000Y-124770000D03*
X142600000Y-122230000D03*
X142600000Y-119690000D03*
X145140000Y-127310000D03*
X145140000Y-124770000D03*
X145140000Y-122230000D03*
X145140000Y-119690000D03*
X147680000Y-127310000D03*
X147680000Y-124770000D03*
X147680000Y-122230000D03*
X147680000Y-119690000D03*
X150220000Y-127310000D03*
X150220000Y-124770000D03*
X150220000Y-122230000D03*
X150220000Y-119690000D03*
X152760000Y-127310000D03*
X152760000Y-124770000D03*
X152760000Y-122230000D03*
X152760000Y-119690000D03*
X155300000Y-127310000D03*
X155300000Y-124770000D03*
X155300000Y-122230000D03*
X155300000Y-119690000D03*
X157840000Y-127310000D03*
X157840000Y-124770000D03*
X157840000Y-122230000D03*
X157840000Y-119690000D03*
X160380000Y-127310000D03*
X160380000Y-124770000D03*
X160380000Y-122230000D03*
X160380000Y-119690000D03*
X162920000Y-127310000D03*
X162920000Y-124770000D03*
X162920000Y-122230000D03*
X162920000Y-119690000D03*
X165460000Y-127310000D03*
X165460000Y-124770000D03*
X165460000Y-122230000D03*
X165460000Y-119690000D03*
X168000000Y-127310000D03*
X168000000Y-124770000D03*
X168000000Y-122230000D03*
X168000000Y-119690000D03*
X170540000Y-127310000D03*
X170540000Y-124770000D03*
X170540000Y-122230000D03*
X170540000Y-119690000D03*
X173080000Y-127310000D03*
X173080000Y-124770000D03*
X173080000Y-122230000D03*
X173080000Y-119690000D03*
D12*
X115830000Y-89350000D03*
D11*
X118370000Y-89350000D03*
X115830000Y-91890000D03*
X118370000Y-91890000D03*
X115830000Y-94430000D03*
X118370000Y-94430000D03*
X115830000Y-96970000D03*
X118370000Y-96970000D03*
X115830000Y-99510000D03*
X118370000Y-99510000D03*
X115830000Y-102050000D03*
X118370000Y-102050000D03*
X115830000Y-104590000D03*
X118370000Y-104590000D03*
X115830000Y-107130000D03*
X118370000Y-107130000D03*
X115830000Y-109670000D03*
X118370000Y-109670000D03*
D13*
X124850000Y-117130000D03*
D10*
X124820000Y-79310000D03*
X124820000Y-76770000D03*
X124820000Y-74230000D03*
X124820000Y-71690000D03*
D11*
X127360000Y-79310000D03*
X127360000Y-76770000D03*
X127360000Y-74230000D03*
X127360000Y-71690000D03*
X129900000Y-79310000D03*
X129900000Y-76770000D03*
X129900000Y-74230000D03*
X129900000Y-71690000D03*
X132440000Y-79310000D03*
X132440000Y-76770000D03*
X132440000Y-74230000D03*
X132440000Y-71690000D03*
X134980000Y-79310000D03*
X134980000Y-76770000D03*
X134980000Y-74230000D03*
X134980000Y-71690000D03*
X137520000Y-79310000D03*
X137520000Y-76770000D03*
X137520000Y-74230000D03*
X137520000Y-71690000D03*
X140060000Y-79310000D03*
X140060000Y-76770000D03*
X140060000Y-74230000D03*
X140060000Y-71690000D03*
X142600000Y-79310000D03*
X142600000Y-76770000D03*
X142600000Y-74230000D03*
X142600000Y-71690000D03*
X145140000Y-79310000D03*
X145140000Y-76770000D03*
X145140000Y-74230000D03*
X145140000Y-71690000D03*
X147680000Y-79310000D03*
X147680000Y-76770000D03*
X147680000Y-74230000D03*
X147680000Y-71690000D03*
X150220000Y-79310000D03*
X150220000Y-76770000D03*
X150220000Y-74230000D03*
X150220000Y-71690000D03*
X152760000Y-79310000D03*
X152760000Y-76770000D03*
X152760000Y-74230000D03*
X152760000Y-71690000D03*
X155300000Y-79310000D03*
X155300000Y-76770000D03*
X155300000Y-74230000D03*
X155300000Y-71690000D03*
X157840000Y-79310000D03*
X157840000Y-76770000D03*
X157840000Y-74230000D03*
X157840000Y-71690000D03*
X160380000Y-79310000D03*
X160380000Y-76770000D03*
X160380000Y-74230000D03*
X160380000Y-71690000D03*
X162920000Y-79310000D03*
X162920000Y-76770000D03*
X162920000Y-74230000D03*
X162920000Y-71690000D03*
X165460000Y-79310000D03*
X165460000Y-76770000D03*
X165460000Y-74230000D03*
X165460000Y-71690000D03*
X168000000Y-79310000D03*
X168000000Y-76770000D03*
X168000000Y-74230000D03*
X168000000Y-71690000D03*
X170540000Y-79310000D03*
X170540000Y-76770000D03*
X170540000Y-74230000D03*
X170540000Y-71690000D03*
X173080000Y-79310000D03*
X173080000Y-76770000D03*
X173080000Y-74230000D03*
X173080000Y-71690000D03*
D10*
X173080000Y-84260000D03*
X173080000Y-86800000D03*
X173080000Y-89340000D03*
X173080000Y-91880000D03*
X173080000Y-94420000D03*
X173080000Y-96960000D03*
D11*
X170540000Y-84260000D03*
X170540000Y-86800000D03*
X170540000Y-89340000D03*
X170540000Y-91880000D03*
X170540000Y-94420000D03*
X170540000Y-96960000D03*
X168000000Y-84260000D03*
X168000000Y-86800000D03*
X168000000Y-89340000D03*
X168000000Y-91880000D03*
X168000000Y-94420000D03*
X168000000Y-96960000D03*
X165460000Y-84260000D03*
X165460000Y-86800000D03*
X165460000Y-89340000D03*
X165460000Y-91880000D03*
X165460000Y-94420000D03*
X165460000Y-96960000D03*
X162920000Y-84260000D03*
X162920000Y-86800000D03*
X162920000Y-89340000D03*
X162920000Y-91880000D03*
X162920000Y-94420000D03*
X162920000Y-96960000D03*
X160380000Y-84260000D03*
X160380000Y-86800000D03*
X160380000Y-89340000D03*
X160380000Y-91880000D03*
X160380000Y-94420000D03*
X160380000Y-96960000D03*
X157840000Y-84260000D03*
X157840000Y-86800000D03*
X157840000Y-89340000D03*
X157840000Y-91880000D03*
X157840000Y-94420000D03*
X157840000Y-96960000D03*
X155300000Y-84260000D03*
X155300000Y-86800000D03*
X155300000Y-89340000D03*
X155300000Y-91880000D03*
X155300000Y-94420000D03*
X155300000Y-96960000D03*
X152760000Y-84260000D03*
X152760000Y-86800000D03*
X152760000Y-89340000D03*
X152760000Y-91880000D03*
X152760000Y-94420000D03*
X152760000Y-96960000D03*
X150220000Y-84260000D03*
X150220000Y-86800000D03*
X150220000Y-89340000D03*
X150220000Y-91880000D03*
X150220000Y-94420000D03*
X150220000Y-96960000D03*
X147680000Y-84260000D03*
X147680000Y-86800000D03*
X147680000Y-89340000D03*
X147680000Y-91880000D03*
X147680000Y-94420000D03*
X147680000Y-96960000D03*
X145140000Y-84260000D03*
X145140000Y-86800000D03*
X145140000Y-89340000D03*
X145140000Y-91880000D03*
X145140000Y-94420000D03*
X145140000Y-96960000D03*
X142600000Y-84260000D03*
X142600000Y-86800000D03*
X142600000Y-89340000D03*
X142600000Y-91880000D03*
X142600000Y-94420000D03*
X142600000Y-96960000D03*
X140060000Y-84260000D03*
X140060000Y-86800000D03*
X140060000Y-89340000D03*
X140060000Y-91880000D03*
X140060000Y-94420000D03*
X140060000Y-96960000D03*
X137520000Y-84260000D03*
X137520000Y-86800000D03*
X137520000Y-89340000D03*
X137520000Y-91880000D03*
X137520000Y-94420000D03*
X137520000Y-96960000D03*
X134980000Y-84260000D03*
X134980000Y-86800000D03*
X134980000Y-89340000D03*
X134980000Y-91880000D03*
X134980000Y-94420000D03*
X134980000Y-96960000D03*
X132440000Y-84260000D03*
X132440000Y-86800000D03*
X132440000Y-89340000D03*
X132440000Y-91880000D03*
X132440000Y-94420000D03*
X132440000Y-96960000D03*
X129900000Y-84260000D03*
X129900000Y-86800000D03*
X129900000Y-89340000D03*
X129900000Y-91880000D03*
X129900000Y-94420000D03*
X129900000Y-96960000D03*
X127360000Y-84260000D03*
X127360000Y-86800000D03*
X127360000Y-89340000D03*
X127360000Y-91880000D03*
X127360000Y-94420000D03*
X127360000Y-96960000D03*
X124820000Y-84260000D03*
X124820000Y-86800000D03*
X124820000Y-89340000D03*
X124820000Y-91880000D03*
X124820000Y-94420000D03*
X124820000Y-96960000D03*
D10*
X173080000Y-102040000D03*
X173080000Y-104580000D03*
X173080000Y-107120000D03*
X173080000Y-109660000D03*
X173080000Y-112200000D03*
X173080000Y-114740000D03*
D11*
X170540000Y-102040000D03*
X170540000Y-104580000D03*
X170540000Y-107120000D03*
X170540000Y-109660000D03*
X170540000Y-112200000D03*
X170540000Y-114740000D03*
X168000000Y-102040000D03*
X168000000Y-104580000D03*
X168000000Y-107120000D03*
X168000000Y-109660000D03*
X168000000Y-112200000D03*
X168000000Y-114740000D03*
X165460000Y-102040000D03*
X165460000Y-104580000D03*
X165460000Y-107120000D03*
X165460000Y-109660000D03*
X165460000Y-112200000D03*
X165460000Y-114740000D03*
X162920000Y-102040000D03*
X162920000Y-104580000D03*
X162920000Y-107120000D03*
X162920000Y-109660000D03*
X162920000Y-112200000D03*
X162920000Y-114740000D03*
X160380000Y-102040000D03*
X160380000Y-104580000D03*
X160380000Y-107120000D03*
X160380000Y-109660000D03*
X160380000Y-112200000D03*
X160380000Y-114740000D03*
X157840000Y-102040000D03*
X157840000Y-104580000D03*
X157840000Y-107120000D03*
X157840000Y-109660000D03*
X157840000Y-112200000D03*
X157840000Y-114740000D03*
X155300000Y-102040000D03*
X155300000Y-104580000D03*
X155300000Y-107120000D03*
X155300000Y-109660000D03*
X155300000Y-112200000D03*
X155300000Y-114740000D03*
X152760000Y-102040000D03*
X152760000Y-104580000D03*
X152760000Y-107120000D03*
X152760000Y-109660000D03*
X152760000Y-112200000D03*
X152760000Y-114740000D03*
X150220000Y-102040000D03*
X150220000Y-104580000D03*
X150220000Y-107120000D03*
X150220000Y-109660000D03*
X150220000Y-112200000D03*
X150220000Y-114740000D03*
X147680000Y-102040000D03*
X147680000Y-104580000D03*
X147680000Y-107120000D03*
X147680000Y-109660000D03*
X147680000Y-112200000D03*
X147680000Y-114740000D03*
X145140000Y-102040000D03*
X145140000Y-104580000D03*
X145140000Y-107120000D03*
X145140000Y-109660000D03*
X145140000Y-112200000D03*
X145140000Y-114740000D03*
X142600000Y-102040000D03*
X142600000Y-104580000D03*
X142600000Y-107120000D03*
X142600000Y-109660000D03*
X142600000Y-112200000D03*
X142600000Y-114740000D03*
X140060000Y-102040000D03*
X140060000Y-104580000D03*
X140060000Y-107120000D03*
X140060000Y-109660000D03*
X140060000Y-112200000D03*
X140060000Y-114740000D03*
X137520000Y-102040000D03*
X137520000Y-104580000D03*
X137520000Y-107120000D03*
X137520000Y-109660000D03*
X137520000Y-112200000D03*
X137520000Y-114740000D03*
X134980000Y-102040000D03*
X134980000Y-104580000D03*
X134980000Y-107120000D03*
X134980000Y-109660000D03*
X134980000Y-112200000D03*
X134980000Y-114740000D03*
X132440000Y-102040000D03*
X132440000Y-104580000D03*
X132440000Y-107120000D03*
X132440000Y-109660000D03*
X132440000Y-112200000D03*
X132440000Y-114740000D03*
X129900000Y-102040000D03*
X129900000Y-104580000D03*
X129900000Y-107120000D03*
X129900000Y-109660000D03*
X129900000Y-112200000D03*
X129900000Y-114740000D03*
X127360000Y-102040000D03*
X127360000Y-104580000D03*
X127360000Y-107120000D03*
X127360000Y-109660000D03*
X127360000Y-112200000D03*
X127360000Y-114740000D03*
X124820000Y-102040000D03*
X124820000Y-104580000D03*
X124820000Y-107120000D03*
X124820000Y-109660000D03*
X124820000Y-112200000D03*
X124820000Y-114740000D03*
M02*
