G04 #@! TF.GenerationSoftware,KiCad,Pcbnew,8.0.8*
G04 #@! TF.CreationDate,2025-02-19T14:02:03-05:00*
G04 #@! TF.ProjectId,plot_gerbers,706c6f74-5f67-4657-9262-6572732e6b69,rev?*
G04 #@! TF.SameCoordinates,Original*
G04 #@! TF.FileFunction,Legend,Bot*
G04 #@! TF.FilePolarity,Positive*
%FSLAX46Y46*%
G04 Gerber Fmt 4.6, Leading zero omitted, Abs format (unit mm)*
G04 Created by KiCad (PCBNEW 8.0.8) date 2025-02-19 14:02:03*
%MOMM*%
%LPD*%
G01*
G04 APERTURE LIST*
%ADD10C,0.100000*%
%ADD11C,1.700000*%
%ADD12O,1.700000X1.700000*%
%ADD13R,1.700000X1.700000*%
%ADD14R,1.500000X1.500000*%
G04 APERTURE END LIST*
D10*
X164129598Y-116582419D02*
X164129598Y-117296704D01*
X164129598Y-117296704D02*
X164081979Y-117439561D01*
X164081979Y-117439561D02*
X163986741Y-117534800D01*
X163986741Y-117534800D02*
X163843884Y-117582419D01*
X163843884Y-117582419D02*
X163748646Y-117582419D01*
X165081979Y-117582419D02*
X164605789Y-117582419D01*
X164605789Y-117582419D02*
X164605789Y-116582419D01*
X165986741Y-117487180D02*
X165939122Y-117534800D01*
X165939122Y-117534800D02*
X165796265Y-117582419D01*
X165796265Y-117582419D02*
X165701027Y-117582419D01*
X165701027Y-117582419D02*
X165558170Y-117534800D01*
X165558170Y-117534800D02*
X165462932Y-117439561D01*
X165462932Y-117439561D02*
X165415313Y-117344323D01*
X165415313Y-117344323D02*
X165367694Y-117153847D01*
X165367694Y-117153847D02*
X165367694Y-117010990D01*
X165367694Y-117010990D02*
X165415313Y-116820514D01*
X165415313Y-116820514D02*
X165462932Y-116725276D01*
X165462932Y-116725276D02*
X165558170Y-116630038D01*
X165558170Y-116630038D02*
X165701027Y-116582419D01*
X165701027Y-116582419D02*
X165796265Y-116582419D01*
X165796265Y-116582419D02*
X165939122Y-116630038D01*
X165939122Y-116630038D02*
X165986741Y-116677657D01*
X166701027Y-116582419D02*
X166701027Y-117296704D01*
X166701027Y-117296704D02*
X166653408Y-117439561D01*
X166653408Y-117439561D02*
X166558170Y-117534800D01*
X166558170Y-117534800D02*
X166415313Y-117582419D01*
X166415313Y-117582419D02*
X166320075Y-117582419D01*
X167653408Y-117582419D02*
X167177218Y-117582419D01*
X167177218Y-117582419D02*
X167177218Y-116582419D01*
X168558170Y-117487180D02*
X168510551Y-117534800D01*
X168510551Y-117534800D02*
X168367694Y-117582419D01*
X168367694Y-117582419D02*
X168272456Y-117582419D01*
X168272456Y-117582419D02*
X168129599Y-117534800D01*
X168129599Y-117534800D02*
X168034361Y-117439561D01*
X168034361Y-117439561D02*
X167986742Y-117344323D01*
X167986742Y-117344323D02*
X167939123Y-117153847D01*
X167939123Y-117153847D02*
X167939123Y-117010990D01*
X167939123Y-117010990D02*
X167986742Y-116820514D01*
X167986742Y-116820514D02*
X168034361Y-116725276D01*
X168034361Y-116725276D02*
X168129599Y-116630038D01*
X168129599Y-116630038D02*
X168272456Y-116582419D01*
X168272456Y-116582419D02*
X168367694Y-116582419D01*
X168367694Y-116582419D02*
X168510551Y-116630038D01*
X168510551Y-116630038D02*
X168558170Y-116677657D01*
X169272456Y-116582419D02*
X169272456Y-117296704D01*
X169272456Y-117296704D02*
X169224837Y-117439561D01*
X169224837Y-117439561D02*
X169129599Y-117534800D01*
X169129599Y-117534800D02*
X168986742Y-117582419D01*
X168986742Y-117582419D02*
X168891504Y-117582419D01*
X170224837Y-117582419D02*
X169748647Y-117582419D01*
X169748647Y-117582419D02*
X169748647Y-116582419D01*
X171129599Y-117487180D02*
X171081980Y-117534800D01*
X171081980Y-117534800D02*
X170939123Y-117582419D01*
X170939123Y-117582419D02*
X170843885Y-117582419D01*
X170843885Y-117582419D02*
X170701028Y-117534800D01*
X170701028Y-117534800D02*
X170605790Y-117439561D01*
X170605790Y-117439561D02*
X170558171Y-117344323D01*
X170558171Y-117344323D02*
X170510552Y-117153847D01*
X170510552Y-117153847D02*
X170510552Y-117010990D01*
X170510552Y-117010990D02*
X170558171Y-116820514D01*
X170558171Y-116820514D02*
X170605790Y-116725276D01*
X170605790Y-116725276D02*
X170701028Y-116630038D01*
X170701028Y-116630038D02*
X170843885Y-116582419D01*
X170843885Y-116582419D02*
X170939123Y-116582419D01*
X170939123Y-116582419D02*
X171081980Y-116630038D01*
X171081980Y-116630038D02*
X171129599Y-116677657D01*
X171843885Y-116582419D02*
X171843885Y-117296704D01*
X171843885Y-117296704D02*
X171796266Y-117439561D01*
X171796266Y-117439561D02*
X171701028Y-117534800D01*
X171701028Y-117534800D02*
X171558171Y-117582419D01*
X171558171Y-117582419D02*
X171462933Y-117582419D01*
X172796266Y-117582419D02*
X172320076Y-117582419D01*
X172320076Y-117582419D02*
X172320076Y-116582419D01*
X173701028Y-117487180D02*
X173653409Y-117534800D01*
X173653409Y-117534800D02*
X173510552Y-117582419D01*
X173510552Y-117582419D02*
X173415314Y-117582419D01*
X173415314Y-117582419D02*
X173272457Y-117534800D01*
X173272457Y-117534800D02*
X173177219Y-117439561D01*
X173177219Y-117439561D02*
X173129600Y-117344323D01*
X173129600Y-117344323D02*
X173081981Y-117153847D01*
X173081981Y-117153847D02*
X173081981Y-117010990D01*
X173081981Y-117010990D02*
X173129600Y-116820514D01*
X173129600Y-116820514D02*
X173177219Y-116725276D01*
X173177219Y-116725276D02*
X173272457Y-116630038D01*
X173272457Y-116630038D02*
X173415314Y-116582419D01*
X173415314Y-116582419D02*
X173510552Y-116582419D01*
X173510552Y-116582419D02*
X173653409Y-116630038D01*
X173653409Y-116630038D02*
X173701028Y-116677657D01*
%LPC*%
D11*
X124820000Y-127310000D03*
X124820000Y-124770000D03*
X124820000Y-122230000D03*
X124820000Y-119690000D03*
D12*
X127360000Y-127310000D03*
X127360000Y-124770000D03*
X127360000Y-122230000D03*
X127360000Y-119690000D03*
X129900000Y-127310000D03*
X129900000Y-124770000D03*
X129900000Y-122230000D03*
X129900000Y-119690000D03*
X132440000Y-127310000D03*
X132440000Y-124770000D03*
X132440000Y-122230000D03*
X132440000Y-119690000D03*
X134980000Y-127310000D03*
X134980000Y-124770000D03*
X134980000Y-122230000D03*
X134980000Y-119690000D03*
X137520000Y-127310000D03*
X137520000Y-124770000D03*
X137520000Y-122230000D03*
X137520000Y-119690000D03*
X140060000Y-127310000D03*
X140060000Y-124770000D03*
X140060000Y-122230000D03*
X140060000Y-119690000D03*
X142600000Y-127310000D03*
X142600000Y-124770000D03*
X142600000Y-122230000D03*
X142600000Y-119690000D03*
X145140000Y-127310000D03*
X145140000Y-124770000D03*
X145140000Y-122230000D03*
X145140000Y-119690000D03*
X147680000Y-127310000D03*
X147680000Y-124770000D03*
X147680000Y-122230000D03*
X147680000Y-119690000D03*
X150220000Y-127310000D03*
X150220000Y-124770000D03*
X150220000Y-122230000D03*
X150220000Y-119690000D03*
X152760000Y-127310000D03*
X152760000Y-124770000D03*
X152760000Y-122230000D03*
X152760000Y-119690000D03*
X155300000Y-127310000D03*
X155300000Y-124770000D03*
X155300000Y-122230000D03*
X155300000Y-119690000D03*
X157840000Y-127310000D03*
X157840000Y-124770000D03*
X157840000Y-122230000D03*
X157840000Y-119690000D03*
X160380000Y-127310000D03*
X160380000Y-124770000D03*
X160380000Y-122230000D03*
X160380000Y-119690000D03*
X162920000Y-127310000D03*
X162920000Y-124770000D03*
X162920000Y-122230000D03*
X162920000Y-119690000D03*
X165460000Y-127310000D03*
X165460000Y-124770000D03*
X165460000Y-122230000D03*
X165460000Y-119690000D03*
X168000000Y-127310000D03*
X168000000Y-124770000D03*
X168000000Y-122230000D03*
X168000000Y-119690000D03*
X170540000Y-127310000D03*
X170540000Y-124770000D03*
X170540000Y-122230000D03*
X170540000Y-119690000D03*
X173080000Y-127310000D03*
X173080000Y-124770000D03*
X173080000Y-122230000D03*
X173080000Y-119690000D03*
D13*
X115830000Y-89350000D03*
D12*
X118370000Y-89350000D03*
X115830000Y-91890000D03*
X118370000Y-91890000D03*
X115830000Y-94430000D03*
X118370000Y-94430000D03*
X115830000Y-96970000D03*
X118370000Y-96970000D03*
X115830000Y-99510000D03*
X118370000Y-99510000D03*
X115830000Y-102050000D03*
X118370000Y-102050000D03*
X115830000Y-104590000D03*
X118370000Y-104590000D03*
X115830000Y-107130000D03*
X118370000Y-107130000D03*
X115830000Y-109670000D03*
X118370000Y-109670000D03*
D14*
X124850000Y-117130000D03*
D11*
X124820000Y-79310000D03*
X124820000Y-76770000D03*
X124820000Y-74230000D03*
X124820000Y-71690000D03*
D12*
X127360000Y-79310000D03*
X127360000Y-76770000D03*
X127360000Y-74230000D03*
X127360000Y-71690000D03*
X129900000Y-79310000D03*
X129900000Y-76770000D03*
X129900000Y-74230000D03*
X129900000Y-71690000D03*
X132440000Y-79310000D03*
X132440000Y-76770000D03*
X132440000Y-74230000D03*
X132440000Y-71690000D03*
X134980000Y-79310000D03*
X134980000Y-76770000D03*
X134980000Y-74230000D03*
X134980000Y-71690000D03*
X137520000Y-79310000D03*
X137520000Y-76770000D03*
X137520000Y-74230000D03*
X137520000Y-71690000D03*
X140060000Y-79310000D03*
X140060000Y-76770000D03*
X140060000Y-74230000D03*
X140060000Y-71690000D03*
X142600000Y-79310000D03*
X142600000Y-76770000D03*
X142600000Y-74230000D03*
X142600000Y-71690000D03*
X145140000Y-79310000D03*
X145140000Y-76770000D03*
X145140000Y-74230000D03*
X145140000Y-71690000D03*
X147680000Y-79310000D03*
X147680000Y-76770000D03*
X147680000Y-74230000D03*
X147680000Y-71690000D03*
X150220000Y-79310000D03*
X150220000Y-76770000D03*
X150220000Y-74230000D03*
X150220000Y-71690000D03*
X152760000Y-79310000D03*
X152760000Y-76770000D03*
X152760000Y-74230000D03*
X152760000Y-71690000D03*
X155300000Y-79310000D03*
X155300000Y-76770000D03*
X155300000Y-74230000D03*
X155300000Y-71690000D03*
X157840000Y-79310000D03*
X157840000Y-76770000D03*
X157840000Y-74230000D03*
X157840000Y-71690000D03*
X160380000Y-79310000D03*
X160380000Y-76770000D03*
X160380000Y-74230000D03*
X160380000Y-71690000D03*
X162920000Y-79310000D03*
X162920000Y-76770000D03*
X162920000Y-74230000D03*
X162920000Y-71690000D03*
X165460000Y-79310000D03*
X165460000Y-76770000D03*
X165460000Y-74230000D03*
X165460000Y-71690000D03*
X168000000Y-79310000D03*
X168000000Y-76770000D03*
X168000000Y-74230000D03*
X168000000Y-71690000D03*
X170540000Y-79310000D03*
X170540000Y-76770000D03*
X170540000Y-74230000D03*
X170540000Y-71690000D03*
X173080000Y-79310000D03*
X173080000Y-76770000D03*
X173080000Y-74230000D03*
X173080000Y-71690000D03*
D11*
X173080000Y-84260000D03*
X173080000Y-86800000D03*
X173080000Y-89340000D03*
X173080000Y-91880000D03*
X173080000Y-94420000D03*
X173080000Y-96960000D03*
D12*
X170540000Y-84260000D03*
X170540000Y-86800000D03*
X170540000Y-89340000D03*
X170540000Y-91880000D03*
X170540000Y-94420000D03*
X170540000Y-96960000D03*
X168000000Y-84260000D03*
X168000000Y-86800000D03*
X168000000Y-89340000D03*
X168000000Y-91880000D03*
X168000000Y-94420000D03*
X168000000Y-96960000D03*
X165460000Y-84260000D03*
X165460000Y-86800000D03*
X165460000Y-89340000D03*
X165460000Y-91880000D03*
X165460000Y-94420000D03*
X165460000Y-96960000D03*
X162920000Y-84260000D03*
X162920000Y-86800000D03*
X162920000Y-89340000D03*
X162920000Y-91880000D03*
X162920000Y-94420000D03*
X162920000Y-96960000D03*
X160380000Y-84260000D03*
X160380000Y-86800000D03*
X160380000Y-89340000D03*
X160380000Y-91880000D03*
X160380000Y-94420000D03*
X160380000Y-96960000D03*
X157840000Y-84260000D03*
X157840000Y-86800000D03*
X157840000Y-89340000D03*
X157840000Y-91880000D03*
X157840000Y-94420000D03*
X157840000Y-96960000D03*
X155300000Y-84260000D03*
X155300000Y-86800000D03*
X155300000Y-89340000D03*
X155300000Y-91880000D03*
X155300000Y-94420000D03*
X155300000Y-96960000D03*
X152760000Y-84260000D03*
X152760000Y-86800000D03*
X152760000Y-89340000D03*
X152760000Y-91880000D03*
X152760000Y-94420000D03*
X152760000Y-96960000D03*
X150220000Y-84260000D03*
X150220000Y-86800000D03*
X150220000Y-89340000D03*
X150220000Y-91880000D03*
X150220000Y-94420000D03*
X150220000Y-96960000D03*
X147680000Y-84260000D03*
X147680000Y-86800000D03*
X147680000Y-89340000D03*
X147680000Y-91880000D03*
X147680000Y-94420000D03*
X147680000Y-96960000D03*
X145140000Y-84260000D03*
X145140000Y-86800000D03*
X145140000Y-89340000D03*
X145140000Y-91880000D03*
X145140000Y-94420000D03*
X145140000Y-96960000D03*
X142600000Y-84260000D03*
X142600000Y-86800000D03*
X142600000Y-89340000D03*
X142600000Y-91880000D03*
X142600000Y-94420000D03*
X142600000Y-96960000D03*
X140060000Y-84260000D03*
X140060000Y-86800000D03*
X140060000Y-89340000D03*
X140060000Y-91880000D03*
X140060000Y-94420000D03*
X140060000Y-96960000D03*
X137520000Y-84260000D03*
X137520000Y-86800000D03*
X137520000Y-89340000D03*
X137520000Y-91880000D03*
X137520000Y-94420000D03*
X137520000Y-96960000D03*
X134980000Y-84260000D03*
X134980000Y-86800000D03*
X134980000Y-89340000D03*
X134980000Y-91880000D03*
X134980000Y-94420000D03*
X134980000Y-96960000D03*
X132440000Y-84260000D03*
X132440000Y-86800000D03*
X132440000Y-89340000D03*
X132440000Y-91880000D03*
X132440000Y-94420000D03*
X132440000Y-96960000D03*
X129900000Y-84260000D03*
X129900000Y-86800000D03*
X129900000Y-89340000D03*
X129900000Y-91880000D03*
X129900000Y-94420000D03*
X129900000Y-96960000D03*
X127360000Y-84260000D03*
X127360000Y-86800000D03*
X127360000Y-89340000D03*
X127360000Y-91880000D03*
X127360000Y-94420000D03*
X127360000Y-96960000D03*
X124820000Y-84260000D03*
X124820000Y-86800000D03*
X124820000Y-89340000D03*
X124820000Y-91880000D03*
X124820000Y-94420000D03*
X124820000Y-96960000D03*
D11*
X173080000Y-102040000D03*
X173080000Y-104580000D03*
X173080000Y-107120000D03*
X173080000Y-109660000D03*
X173080000Y-112200000D03*
X173080000Y-114740000D03*
D12*
X170540000Y-102040000D03*
X170540000Y-104580000D03*
X170540000Y-107120000D03*
X170540000Y-109660000D03*
X170540000Y-112200000D03*
X170540000Y-114740000D03*
X168000000Y-102040000D03*
X168000000Y-104580000D03*
X168000000Y-107120000D03*
X168000000Y-109660000D03*
X168000000Y-112200000D03*
X168000000Y-114740000D03*
X165460000Y-102040000D03*
X165460000Y-104580000D03*
X165460000Y-107120000D03*
X165460000Y-109660000D03*
X165460000Y-112200000D03*
X165460000Y-114740000D03*
X162920000Y-102040000D03*
X162920000Y-104580000D03*
X162920000Y-107120000D03*
X162920000Y-109660000D03*
X162920000Y-112200000D03*
X162920000Y-114740000D03*
X160380000Y-102040000D03*
X160380000Y-104580000D03*
X160380000Y-107120000D03*
X160380000Y-109660000D03*
X160380000Y-112200000D03*
X160380000Y-114740000D03*
X157840000Y-102040000D03*
X157840000Y-104580000D03*
X157840000Y-107120000D03*
X157840000Y-109660000D03*
X157840000Y-112200000D03*
X157840000Y-114740000D03*
X155300000Y-102040000D03*
X155300000Y-104580000D03*
X155300000Y-107120000D03*
X155300000Y-109660000D03*
X155300000Y-112200000D03*
X155300000Y-114740000D03*
X152760000Y-102040000D03*
X152760000Y-104580000D03*
X152760000Y-107120000D03*
X152760000Y-109660000D03*
X152760000Y-112200000D03*
X152760000Y-114740000D03*
X150220000Y-102040000D03*
X150220000Y-104580000D03*
X150220000Y-107120000D03*
X150220000Y-109660000D03*
X150220000Y-112200000D03*
X150220000Y-114740000D03*
X147680000Y-102040000D03*
X147680000Y-104580000D03*
X147680000Y-107120000D03*
X147680000Y-109660000D03*
X147680000Y-112200000D03*
X147680000Y-114740000D03*
X145140000Y-102040000D03*
X145140000Y-104580000D03*
X145140000Y-107120000D03*
X145140000Y-109660000D03*
X145140000Y-112200000D03*
X145140000Y-114740000D03*
X142600000Y-102040000D03*
X142600000Y-104580000D03*
X142600000Y-107120000D03*
X142600000Y-109660000D03*
X142600000Y-112200000D03*
X142600000Y-114740000D03*
X140060000Y-102040000D03*
X140060000Y-104580000D03*
X140060000Y-107120000D03*
X140060000Y-109660000D03*
X140060000Y-112200000D03*
X140060000Y-114740000D03*
X137520000Y-102040000D03*
X137520000Y-104580000D03*
X137520000Y-107120000D03*
X137520000Y-109660000D03*
X137520000Y-112200000D03*
X137520000Y-114740000D03*
X134980000Y-102040000D03*
X134980000Y-104580000D03*
X134980000Y-107120000D03*
X134980000Y-109660000D03*
X134980000Y-112200000D03*
X134980000Y-114740000D03*
X132440000Y-102040000D03*
X132440000Y-104580000D03*
X132440000Y-107120000D03*
X132440000Y-109660000D03*
X132440000Y-112200000D03*
X132440000Y-114740000D03*
X129900000Y-102040000D03*
X129900000Y-104580000D03*
X129900000Y-107120000D03*
X129900000Y-109660000D03*
X129900000Y-112200000D03*
X129900000Y-114740000D03*
X127360000Y-102040000D03*
X127360000Y-104580000D03*
X127360000Y-107120000D03*
X127360000Y-109660000D03*
X127360000Y-112200000D03*
X127360000Y-114740000D03*
X124820000Y-102040000D03*
X124820000Y-104580000D03*
X124820000Y-107120000D03*
X124820000Y-109660000D03*
X124820000Y-112200000D03*
X124820000Y-114740000D03*
%LPD*%
M02*
