%TF.GenerationSoftware,KiCad,Pcbnew,8.0.8*%
%TF.CreationDate,2025-02-19T14:02:05-05:00*%
%TF.ProjectId,plot_gerbers,706c6f74-5f67-4657-9262-6572732e6b69,rev?*%
%TF.SameCoordinates,Original*%
%TF.FileFunction,Drillmap*%
%TF.FilePolarity,Positive*%
%FSLAX45Y45*%
G04 Gerber Fmt 4.5, Leading zero omitted, Abs format (unit mm)*
G04 Created by KiCad (PCBNEW 8.0.8) date 2025-02-19 14:02:05*
%MOMM*%
%LPD*%
G01*
G04 APERTURE LIST*
%ADD10C,0.050000*%
%ADD11C,0.200000*%
G04 APERTURE END LIST*
D10*
X17820000Y-6835000D02*
X17820000Y-7775000D01*
X11190000Y-8015000D02*
X11065000Y-8015000D01*
X11065000Y-8165000D02*
X11065000Y-8015000D01*
X17820000Y-11495000D02*
X17820000Y-8405000D01*
X17820000Y-8015000D02*
G75*
G02*
X17700000Y-7895000I0J120000D01*
G01*
X17820000Y-12125000D02*
G75*
G02*
X17700000Y-12005000I0J120000D01*
G01*
X11310000Y-8285000D02*
G75*
G02*
X11190000Y-8405000I-120010J10D01*
G01*
X17820000Y-8405000D02*
G75*
G02*
X17700000Y-8285000I0J120000D01*
G01*
X11190000Y-6835000D02*
X17820000Y-6835000D01*
X17700000Y-11615000D02*
G75*
G02*
X17820000Y-11495000I120010J-10D01*
G01*
X17700000Y-12005000D02*
G75*
G02*
X17820000Y-11885000I120010J-10D01*
G01*
X17700000Y-7895000D02*
G75*
G02*
X17820000Y-7775000I120010J-10D01*
G01*
X17820000Y-8015000D02*
X17945000Y-8015000D01*
X11310000Y-12005000D02*
G75*
G02*
X11190000Y-12125000I-120010J10D01*
G01*
X17820000Y-13065000D02*
X17820000Y-12125000D01*
X17820000Y-11735000D02*
G75*
G02*
X17700000Y-11615000I0J120000D01*
G01*
X17700000Y-8285000D02*
G75*
G02*
X17820000Y-8165000I120010J-10D01*
G01*
X11190000Y-7775000D02*
G75*
G02*
X11310000Y-7895000I0J-120000D01*
G01*
X11310000Y-7895000D02*
G75*
G02*
X11190000Y-8015000I-120010J10D01*
G01*
X11190000Y-8165000D02*
G75*
G02*
X11310000Y-8285000I0J-120000D01*
G01*
X11190000Y-11885000D02*
X11065000Y-11885000D01*
X17820000Y-11885000D02*
X17945000Y-11885000D01*
X11065000Y-11885000D02*
X11065000Y-11735000D01*
X11190000Y-13065000D02*
X17820000Y-13065000D01*
X11190000Y-13065000D02*
X11190000Y-12125000D01*
X11190000Y-8405000D02*
X11190000Y-11495000D01*
X17820000Y-8165000D02*
X17945000Y-8165000D01*
X17945000Y-11735000D02*
X17945000Y-11885000D01*
X11310000Y-11615000D02*
G75*
G02*
X11190000Y-11735000I-120010J10D01*
G01*
X11190000Y-11495000D02*
G75*
G02*
X11310000Y-11615000I0J-120000D01*
G01*
X11190000Y-6835000D02*
X11190000Y-7775000D01*
X11190000Y-11735000D02*
X11065000Y-11735000D01*
X11190000Y-11885000D02*
G75*
G02*
X11310000Y-12005000I0J-120000D01*
G01*
X17820000Y-11735000D02*
X17945000Y-11735000D01*
X11190000Y-8165000D02*
X11065000Y-8165000D01*
X17945000Y-8015000D02*
X17945000Y-8165000D01*
D11*
X11323277Y-13378984D02*
X11323277Y-13178984D01*
X11323277Y-13178984D02*
X11370896Y-13178984D01*
X11370896Y-13178984D02*
X11399467Y-13188508D01*
X11399467Y-13188508D02*
X11418515Y-13207555D01*
X11418515Y-13207555D02*
X11428039Y-13226603D01*
X11428039Y-13226603D02*
X11437562Y-13264698D01*
X11437562Y-13264698D02*
X11437562Y-13293269D01*
X11437562Y-13293269D02*
X11428039Y-13331365D01*
X11428039Y-13331365D02*
X11418515Y-13350412D01*
X11418515Y-13350412D02*
X11399467Y-13369460D01*
X11399467Y-13369460D02*
X11370896Y-13378984D01*
X11370896Y-13378984D02*
X11323277Y-13378984D01*
X11523277Y-13378984D02*
X11523277Y-13245650D01*
X11523277Y-13283746D02*
X11532801Y-13264698D01*
X11532801Y-13264698D02*
X11542324Y-13255174D01*
X11542324Y-13255174D02*
X11561372Y-13245650D01*
X11561372Y-13245650D02*
X11580420Y-13245650D01*
X11647086Y-13378984D02*
X11647086Y-13245650D01*
X11647086Y-13178984D02*
X11637562Y-13188508D01*
X11637562Y-13188508D02*
X11647086Y-13198031D01*
X11647086Y-13198031D02*
X11656610Y-13188508D01*
X11656610Y-13188508D02*
X11647086Y-13178984D01*
X11647086Y-13178984D02*
X11647086Y-13198031D01*
X11770896Y-13378984D02*
X11751848Y-13369460D01*
X11751848Y-13369460D02*
X11742324Y-13350412D01*
X11742324Y-13350412D02*
X11742324Y-13178984D01*
X11875658Y-13378984D02*
X11856610Y-13369460D01*
X11856610Y-13369460D02*
X11847086Y-13350412D01*
X11847086Y-13350412D02*
X11847086Y-13178984D01*
X12104229Y-13378984D02*
X12104229Y-13178984D01*
X12104229Y-13178984D02*
X12170896Y-13321841D01*
X12170896Y-13321841D02*
X12237562Y-13178984D01*
X12237562Y-13178984D02*
X12237562Y-13378984D01*
X12418515Y-13378984D02*
X12418515Y-13274222D01*
X12418515Y-13274222D02*
X12408991Y-13255174D01*
X12408991Y-13255174D02*
X12389943Y-13245650D01*
X12389943Y-13245650D02*
X12351848Y-13245650D01*
X12351848Y-13245650D02*
X12332801Y-13255174D01*
X12418515Y-13369460D02*
X12399467Y-13378984D01*
X12399467Y-13378984D02*
X12351848Y-13378984D01*
X12351848Y-13378984D02*
X12332801Y-13369460D01*
X12332801Y-13369460D02*
X12323277Y-13350412D01*
X12323277Y-13350412D02*
X12323277Y-13331365D01*
X12323277Y-13331365D02*
X12332801Y-13312317D01*
X12332801Y-13312317D02*
X12351848Y-13302793D01*
X12351848Y-13302793D02*
X12399467Y-13302793D01*
X12399467Y-13302793D02*
X12418515Y-13293269D01*
X12513753Y-13245650D02*
X12513753Y-13445650D01*
X12513753Y-13255174D02*
X12532801Y-13245650D01*
X12532801Y-13245650D02*
X12570896Y-13245650D01*
X12570896Y-13245650D02*
X12589943Y-13255174D01*
X12589943Y-13255174D02*
X12599467Y-13264698D01*
X12599467Y-13264698D02*
X12608991Y-13283746D01*
X12608991Y-13283746D02*
X12608991Y-13340888D01*
X12608991Y-13340888D02*
X12599467Y-13359936D01*
X12599467Y-13359936D02*
X12589943Y-13369460D01*
X12589943Y-13369460D02*
X12570896Y-13378984D01*
X12570896Y-13378984D02*
X12532801Y-13378984D01*
X12532801Y-13378984D02*
X12513753Y-13369460D01*
X12694705Y-13359936D02*
X12704229Y-13369460D01*
X12704229Y-13369460D02*
X12694705Y-13378984D01*
X12694705Y-13378984D02*
X12685182Y-13369460D01*
X12685182Y-13369460D02*
X12694705Y-13359936D01*
X12694705Y-13359936D02*
X12694705Y-13378984D01*
X12694705Y-13255174D02*
X12704229Y-13264698D01*
X12704229Y-13264698D02*
X12694705Y-13274222D01*
X12694705Y-13274222D02*
X12685182Y-13264698D01*
X12685182Y-13264698D02*
X12694705Y-13255174D01*
X12694705Y-13255174D02*
X12694705Y-13274222D01*
M02*
