G04 #@! TF.GenerationSoftware,KiCad,Pcbnew,8.0.8*
G04 #@! TF.CreationDate,2025-02-19T14:02:03-05:00*
G04 #@! TF.ProjectId,plot_gerbers,706c6f74-5f67-4657-9262-6572732e6b69,rev?*
G04 #@! TF.SameCoordinates,Original*
G04 #@! TF.FileFunction,Legend,Top*
G04 #@! TF.FilePolarity,Positive*
%FSLAX46Y46*%
G04 Gerber Fmt 4.6, Leading zero omitted, Abs format (unit mm)*
G04 Created by KiCad (PCBNEW 8.0.8) date 2025-02-19 14:02:03*
%MOMM*%
%LPD*%
G01*
G04 APERTURE LIST*
%ADD10C,0.150000*%
%ADD11C,0.120000*%
%ADD12C,1.700000*%
%ADD13O,1.700000X1.700000*%
%ADD14R,1.700000X1.700000*%
%ADD15R,1.500000X1.500000*%
G04 APERTURE END LIST*
D10*
X115213264Y-86503220D02*
X116213264Y-86503220D01*
X115260883Y-86503220D02*
X115213264Y-86407982D01*
X115213264Y-86407982D02*
X115213264Y-86217506D01*
X115213264Y-86217506D02*
X115260883Y-86122268D01*
X115260883Y-86122268D02*
X115308502Y-86074649D01*
X115308502Y-86074649D02*
X115403740Y-86027030D01*
X115403740Y-86027030D02*
X115689454Y-86027030D01*
X115689454Y-86027030D02*
X115784692Y-86074649D01*
X115784692Y-86074649D02*
X115832312Y-86122268D01*
X115832312Y-86122268D02*
X115879931Y-86217506D01*
X115879931Y-86217506D02*
X115879931Y-86407982D01*
X115879931Y-86407982D02*
X115832312Y-86503220D01*
X115832312Y-85169887D02*
X115879931Y-85265125D01*
X115879931Y-85265125D02*
X115879931Y-85455601D01*
X115879931Y-85455601D02*
X115832312Y-85550839D01*
X115832312Y-85550839D02*
X115784692Y-85598458D01*
X115784692Y-85598458D02*
X115689454Y-85646077D01*
X115689454Y-85646077D02*
X115403740Y-85646077D01*
X115403740Y-85646077D02*
X115308502Y-85598458D01*
X115308502Y-85598458D02*
X115260883Y-85550839D01*
X115260883Y-85550839D02*
X115213264Y-85455601D01*
X115213264Y-85455601D02*
X115213264Y-85265125D01*
X115213264Y-85265125D02*
X115260883Y-85169887D01*
X115879931Y-84741315D02*
X114879931Y-84741315D01*
X115260883Y-84741315D02*
X115213264Y-84646077D01*
X115213264Y-84646077D02*
X115213264Y-84455601D01*
X115213264Y-84455601D02*
X115260883Y-84360363D01*
X115260883Y-84360363D02*
X115308502Y-84312744D01*
X115308502Y-84312744D02*
X115403740Y-84265125D01*
X115403740Y-84265125D02*
X115689454Y-84265125D01*
X115689454Y-84265125D02*
X115784692Y-84312744D01*
X115784692Y-84312744D02*
X115832312Y-84360363D01*
X115832312Y-84360363D02*
X115879931Y-84455601D01*
X115879931Y-84455601D02*
X115879931Y-84646077D01*
X115879931Y-84646077D02*
X115832312Y-84741315D01*
X114879931Y-83407982D02*
X114879931Y-83598458D01*
X114879931Y-83598458D02*
X114927550Y-83693696D01*
X114927550Y-83693696D02*
X114975169Y-83741315D01*
X114975169Y-83741315D02*
X115118026Y-83836553D01*
X115118026Y-83836553D02*
X115308502Y-83884172D01*
X115308502Y-83884172D02*
X115689454Y-83884172D01*
X115689454Y-83884172D02*
X115784692Y-83836553D01*
X115784692Y-83836553D02*
X115832312Y-83788934D01*
X115832312Y-83788934D02*
X115879931Y-83693696D01*
X115879931Y-83693696D02*
X115879931Y-83503220D01*
X115879931Y-83503220D02*
X115832312Y-83407982D01*
X115832312Y-83407982D02*
X115784692Y-83360363D01*
X115784692Y-83360363D02*
X115689454Y-83312744D01*
X115689454Y-83312744D02*
X115451359Y-83312744D01*
X115451359Y-83312744D02*
X115356121Y-83360363D01*
X115356121Y-83360363D02*
X115308502Y-83407982D01*
X115308502Y-83407982D02*
X115260883Y-83503220D01*
X115260883Y-83503220D02*
X115260883Y-83693696D01*
X115260883Y-83693696D02*
X115308502Y-83788934D01*
X115308502Y-83788934D02*
X115356121Y-83836553D01*
X115356121Y-83836553D02*
X115451359Y-83884172D01*
X115356121Y-81788934D02*
X115403740Y-81646077D01*
X115403740Y-81646077D02*
X115451359Y-81598458D01*
X115451359Y-81598458D02*
X115546597Y-81550839D01*
X115546597Y-81550839D02*
X115689454Y-81550839D01*
X115689454Y-81550839D02*
X115784692Y-81598458D01*
X115784692Y-81598458D02*
X115832312Y-81646077D01*
X115832312Y-81646077D02*
X115879931Y-81741315D01*
X115879931Y-81741315D02*
X115879931Y-82122267D01*
X115879931Y-82122267D02*
X114879931Y-82122267D01*
X114879931Y-82122267D02*
X114879931Y-81788934D01*
X114879931Y-81788934D02*
X114927550Y-81693696D01*
X114927550Y-81693696D02*
X114975169Y-81646077D01*
X114975169Y-81646077D02*
X115070407Y-81598458D01*
X115070407Y-81598458D02*
X115165645Y-81598458D01*
X115165645Y-81598458D02*
X115260883Y-81646077D01*
X115260883Y-81646077D02*
X115308502Y-81693696D01*
X115308502Y-81693696D02*
X115356121Y-81788934D01*
X115356121Y-81788934D02*
X115356121Y-82122267D01*
X115784692Y-80550839D02*
X115832312Y-80598458D01*
X115832312Y-80598458D02*
X115879931Y-80741315D01*
X115879931Y-80741315D02*
X115879931Y-80836553D01*
X115879931Y-80836553D02*
X115832312Y-80979410D01*
X115832312Y-80979410D02*
X115737073Y-81074648D01*
X115737073Y-81074648D02*
X115641835Y-81122267D01*
X115641835Y-81122267D02*
X115451359Y-81169886D01*
X115451359Y-81169886D02*
X115308502Y-81169886D01*
X115308502Y-81169886D02*
X115118026Y-81122267D01*
X115118026Y-81122267D02*
X115022788Y-81074648D01*
X115022788Y-81074648D02*
X114927550Y-80979410D01*
X114927550Y-80979410D02*
X114879931Y-80836553D01*
X114879931Y-80836553D02*
X114879931Y-80741315D01*
X114879931Y-80741315D02*
X114927550Y-80598458D01*
X114927550Y-80598458D02*
X114975169Y-80550839D01*
X114879931Y-79455600D02*
X114879931Y-78788934D01*
X114879931Y-78788934D02*
X115879931Y-79217505D01*
X115879931Y-77884172D02*
X115879931Y-78455600D01*
X115879931Y-78169886D02*
X114879931Y-78169886D01*
X114879931Y-78169886D02*
X115022788Y-78265124D01*
X115022788Y-78265124D02*
X115118026Y-78360362D01*
X115118026Y-78360362D02*
X115165645Y-78455600D01*
X115832312Y-77407981D02*
X115879931Y-77407981D01*
X115879931Y-77407981D02*
X115975169Y-77455600D01*
X115975169Y-77455600D02*
X116022788Y-77503219D01*
X114879931Y-76550839D02*
X114879931Y-76741315D01*
X114879931Y-76741315D02*
X114927550Y-76836553D01*
X114927550Y-76836553D02*
X114975169Y-76884172D01*
X114975169Y-76884172D02*
X115118026Y-76979410D01*
X115118026Y-76979410D02*
X115308502Y-77027029D01*
X115308502Y-77027029D02*
X115689454Y-77027029D01*
X115689454Y-77027029D02*
X115784692Y-76979410D01*
X115784692Y-76979410D02*
X115832312Y-76931791D01*
X115832312Y-76931791D02*
X115879931Y-76836553D01*
X115879931Y-76836553D02*
X115879931Y-76646077D01*
X115879931Y-76646077D02*
X115832312Y-76550839D01*
X115832312Y-76550839D02*
X115784692Y-76503220D01*
X115784692Y-76503220D02*
X115689454Y-76455601D01*
X115689454Y-76455601D02*
X115451359Y-76455601D01*
X115451359Y-76455601D02*
X115356121Y-76503220D01*
X115356121Y-76503220D02*
X115308502Y-76550839D01*
X115308502Y-76550839D02*
X115260883Y-76646077D01*
X115260883Y-76646077D02*
X115260883Y-76836553D01*
X115260883Y-76836553D02*
X115308502Y-76931791D01*
X115308502Y-76931791D02*
X115356121Y-76979410D01*
X115356121Y-76979410D02*
X115451359Y-77027029D01*
X114879931Y-75265124D02*
X115689454Y-75265124D01*
X115689454Y-75265124D02*
X115784692Y-75217505D01*
X115784692Y-75217505D02*
X115832312Y-75169886D01*
X115832312Y-75169886D02*
X115879931Y-75074648D01*
X115879931Y-75074648D02*
X115879931Y-74884172D01*
X115879931Y-74884172D02*
X115832312Y-74788934D01*
X115832312Y-74788934D02*
X115784692Y-74741315D01*
X115784692Y-74741315D02*
X115689454Y-74693696D01*
X115689454Y-74693696D02*
X114879931Y-74693696D01*
X114879931Y-74360362D02*
X114879931Y-73788934D01*
X115879931Y-74074648D02*
X114879931Y-74074648D01*
X115498978Y-73455600D02*
X115498978Y-72693696D01*
X115879931Y-71693696D02*
X115879931Y-72265124D01*
X115879931Y-71979410D02*
X114879931Y-71979410D01*
X114879931Y-71979410D02*
X115022788Y-72074648D01*
X115022788Y-72074648D02*
X115118026Y-72169886D01*
X115118026Y-72169886D02*
X115165645Y-72265124D01*
X115879931Y-70741315D02*
X115879931Y-71312743D01*
X115879931Y-71027029D02*
X114879931Y-71027029D01*
X114879931Y-71027029D02*
X115022788Y-71122267D01*
X115022788Y-71122267D02*
X115118026Y-71217505D01*
X115118026Y-71217505D02*
X115165645Y-71312743D01*
X116585113Y-86550839D02*
X116537494Y-86503220D01*
X116537494Y-86503220D02*
X116489875Y-86407982D01*
X116489875Y-86407982D02*
X116489875Y-86169887D01*
X116489875Y-86169887D02*
X116537494Y-86074649D01*
X116537494Y-86074649D02*
X116585113Y-86027030D01*
X116585113Y-86027030D02*
X116680351Y-85979411D01*
X116680351Y-85979411D02*
X116775589Y-85979411D01*
X116775589Y-85979411D02*
X116918446Y-86027030D01*
X116918446Y-86027030D02*
X117489875Y-86598458D01*
X117489875Y-86598458D02*
X117489875Y-85979411D01*
X116489875Y-85646077D02*
X116489875Y-85027030D01*
X116489875Y-85027030D02*
X116870827Y-85360363D01*
X116870827Y-85360363D02*
X116870827Y-85217506D01*
X116870827Y-85217506D02*
X116918446Y-85122268D01*
X116918446Y-85122268D02*
X116966065Y-85074649D01*
X116966065Y-85074649D02*
X117061303Y-85027030D01*
X117061303Y-85027030D02*
X117299398Y-85027030D01*
X117299398Y-85027030D02*
X117394636Y-85074649D01*
X117394636Y-85074649D02*
X117442256Y-85122268D01*
X117442256Y-85122268D02*
X117489875Y-85217506D01*
X117489875Y-85217506D02*
X117489875Y-85503220D01*
X117489875Y-85503220D02*
X117442256Y-85598458D01*
X117442256Y-85598458D02*
X117394636Y-85646077D01*
X117442256Y-84550839D02*
X117489875Y-84550839D01*
X117489875Y-84550839D02*
X117585113Y-84598458D01*
X117585113Y-84598458D02*
X117632732Y-84646077D01*
X116489875Y-84217506D02*
X116489875Y-83550840D01*
X116489875Y-83550840D02*
X117489875Y-83979411D01*
X116489875Y-82693697D02*
X116489875Y-83169887D01*
X116489875Y-83169887D02*
X116966065Y-83217506D01*
X116966065Y-83217506D02*
X116918446Y-83169887D01*
X116918446Y-83169887D02*
X116870827Y-83074649D01*
X116870827Y-83074649D02*
X116870827Y-82836554D01*
X116870827Y-82836554D02*
X116918446Y-82741316D01*
X116918446Y-82741316D02*
X116966065Y-82693697D01*
X116966065Y-82693697D02*
X117061303Y-82646078D01*
X117061303Y-82646078D02*
X117299398Y-82646078D01*
X117299398Y-82646078D02*
X117394636Y-82693697D01*
X117394636Y-82693697D02*
X117442256Y-82741316D01*
X117442256Y-82741316D02*
X117489875Y-82836554D01*
X117489875Y-82836554D02*
X117489875Y-83074649D01*
X117489875Y-83074649D02*
X117442256Y-83169887D01*
X117442256Y-83169887D02*
X117394636Y-83217506D01*
X117489875Y-82217506D02*
X116823208Y-82217506D01*
X116918446Y-82217506D02*
X116870827Y-82169887D01*
X116870827Y-82169887D02*
X116823208Y-82074649D01*
X116823208Y-82074649D02*
X116823208Y-81931792D01*
X116823208Y-81931792D02*
X116870827Y-81836554D01*
X116870827Y-81836554D02*
X116966065Y-81788935D01*
X116966065Y-81788935D02*
X117489875Y-81788935D01*
X116966065Y-81788935D02*
X116870827Y-81741316D01*
X116870827Y-81741316D02*
X116823208Y-81646078D01*
X116823208Y-81646078D02*
X116823208Y-81503221D01*
X116823208Y-81503221D02*
X116870827Y-81407982D01*
X116870827Y-81407982D02*
X116966065Y-81360363D01*
X116966065Y-81360363D02*
X117489875Y-81360363D01*
X117489875Y-80884173D02*
X116823208Y-80884173D01*
X116918446Y-80884173D02*
X116870827Y-80836554D01*
X116870827Y-80836554D02*
X116823208Y-80741316D01*
X116823208Y-80741316D02*
X116823208Y-80598459D01*
X116823208Y-80598459D02*
X116870827Y-80503221D01*
X116870827Y-80503221D02*
X116966065Y-80455602D01*
X116966065Y-80455602D02*
X117489875Y-80455602D01*
X116966065Y-80455602D02*
X116870827Y-80407983D01*
X116870827Y-80407983D02*
X116823208Y-80312745D01*
X116823208Y-80312745D02*
X116823208Y-80169888D01*
X116823208Y-80169888D02*
X116870827Y-80074649D01*
X116870827Y-80074649D02*
X116966065Y-80027030D01*
X116966065Y-80027030D02*
X117489875Y-80027030D01*
X117442256Y-78360364D02*
X117489875Y-78455602D01*
X117489875Y-78455602D02*
X117489875Y-78646078D01*
X117489875Y-78646078D02*
X117442256Y-78741316D01*
X117442256Y-78741316D02*
X117394636Y-78788935D01*
X117394636Y-78788935D02*
X117299398Y-78836554D01*
X117299398Y-78836554D02*
X117013684Y-78836554D01*
X117013684Y-78836554D02*
X116918446Y-78788935D01*
X116918446Y-78788935D02*
X116870827Y-78741316D01*
X116870827Y-78741316D02*
X116823208Y-78646078D01*
X116823208Y-78646078D02*
X116823208Y-78455602D01*
X116823208Y-78455602D02*
X116870827Y-78360364D01*
X117489875Y-77788935D02*
X117442256Y-77884173D01*
X117442256Y-77884173D02*
X117347017Y-77931792D01*
X117347017Y-77931792D02*
X116489875Y-77931792D01*
X117442256Y-77027030D02*
X117489875Y-77122268D01*
X117489875Y-77122268D02*
X117489875Y-77312744D01*
X117489875Y-77312744D02*
X117442256Y-77407982D01*
X117442256Y-77407982D02*
X117347017Y-77455601D01*
X117347017Y-77455601D02*
X116966065Y-77455601D01*
X116966065Y-77455601D02*
X116870827Y-77407982D01*
X116870827Y-77407982D02*
X116823208Y-77312744D01*
X116823208Y-77312744D02*
X116823208Y-77122268D01*
X116823208Y-77122268D02*
X116870827Y-77027030D01*
X116870827Y-77027030D02*
X116966065Y-76979411D01*
X116966065Y-76979411D02*
X117061303Y-76979411D01*
X117061303Y-76979411D02*
X117156541Y-77455601D01*
X117489875Y-76122268D02*
X116966065Y-76122268D01*
X116966065Y-76122268D02*
X116870827Y-76169887D01*
X116870827Y-76169887D02*
X116823208Y-76265125D01*
X116823208Y-76265125D02*
X116823208Y-76455601D01*
X116823208Y-76455601D02*
X116870827Y-76550839D01*
X117442256Y-76122268D02*
X117489875Y-76217506D01*
X117489875Y-76217506D02*
X117489875Y-76455601D01*
X117489875Y-76455601D02*
X117442256Y-76550839D01*
X117442256Y-76550839D02*
X117347017Y-76598458D01*
X117347017Y-76598458D02*
X117251779Y-76598458D01*
X117251779Y-76598458D02*
X117156541Y-76550839D01*
X117156541Y-76550839D02*
X117108922Y-76455601D01*
X117108922Y-76455601D02*
X117108922Y-76217506D01*
X117108922Y-76217506D02*
X117061303Y-76122268D01*
X117489875Y-75646077D02*
X116823208Y-75646077D01*
X117013684Y-75646077D02*
X116918446Y-75598458D01*
X116918446Y-75598458D02*
X116870827Y-75550839D01*
X116870827Y-75550839D02*
X116823208Y-75455601D01*
X116823208Y-75455601D02*
X116823208Y-75360363D01*
X117489875Y-74598458D02*
X116966065Y-74598458D01*
X116966065Y-74598458D02*
X116870827Y-74646077D01*
X116870827Y-74646077D02*
X116823208Y-74741315D01*
X116823208Y-74741315D02*
X116823208Y-74931791D01*
X116823208Y-74931791D02*
X116870827Y-75027029D01*
X117442256Y-74598458D02*
X117489875Y-74693696D01*
X117489875Y-74693696D02*
X117489875Y-74931791D01*
X117489875Y-74931791D02*
X117442256Y-75027029D01*
X117442256Y-75027029D02*
X117347017Y-75074648D01*
X117347017Y-75074648D02*
X117251779Y-75074648D01*
X117251779Y-75074648D02*
X117156541Y-75027029D01*
X117156541Y-75027029D02*
X117108922Y-74931791D01*
X117108922Y-74931791D02*
X117108922Y-74693696D01*
X117108922Y-74693696D02*
X117061303Y-74598458D01*
X116823208Y-74122267D02*
X117489875Y-74122267D01*
X116918446Y-74122267D02*
X116870827Y-74074648D01*
X116870827Y-74074648D02*
X116823208Y-73979410D01*
X116823208Y-73979410D02*
X116823208Y-73836553D01*
X116823208Y-73836553D02*
X116870827Y-73741315D01*
X116870827Y-73741315D02*
X116966065Y-73693696D01*
X116966065Y-73693696D02*
X117489875Y-73693696D01*
X117442256Y-72788934D02*
X117489875Y-72884172D01*
X117489875Y-72884172D02*
X117489875Y-73074648D01*
X117489875Y-73074648D02*
X117442256Y-73169886D01*
X117442256Y-73169886D02*
X117394636Y-73217505D01*
X117394636Y-73217505D02*
X117299398Y-73265124D01*
X117299398Y-73265124D02*
X117013684Y-73265124D01*
X117013684Y-73265124D02*
X116918446Y-73217505D01*
X116918446Y-73217505D02*
X116870827Y-73169886D01*
X116870827Y-73169886D02*
X116823208Y-73074648D01*
X116823208Y-73074648D02*
X116823208Y-72884172D01*
X116823208Y-72884172D02*
X116870827Y-72788934D01*
X117442256Y-71979410D02*
X117489875Y-72074648D01*
X117489875Y-72074648D02*
X117489875Y-72265124D01*
X117489875Y-72265124D02*
X117442256Y-72360362D01*
X117442256Y-72360362D02*
X117347017Y-72407981D01*
X117347017Y-72407981D02*
X116966065Y-72407981D01*
X116966065Y-72407981D02*
X116870827Y-72360362D01*
X116870827Y-72360362D02*
X116823208Y-72265124D01*
X116823208Y-72265124D02*
X116823208Y-72074648D01*
X116823208Y-72074648D02*
X116870827Y-71979410D01*
X116870827Y-71979410D02*
X116966065Y-71931791D01*
X116966065Y-71931791D02*
X117061303Y-71931791D01*
X117061303Y-71931791D02*
X117156541Y-72407981D01*
X119099819Y-86503220D02*
X118433152Y-86503220D01*
X118623628Y-86503220D02*
X118528390Y-86455601D01*
X118528390Y-86455601D02*
X118480771Y-86407982D01*
X118480771Y-86407982D02*
X118433152Y-86312744D01*
X118433152Y-86312744D02*
X118433152Y-86217506D01*
X119052200Y-85503220D02*
X119099819Y-85598458D01*
X119099819Y-85598458D02*
X119099819Y-85788934D01*
X119099819Y-85788934D02*
X119052200Y-85884172D01*
X119052200Y-85884172D02*
X118956961Y-85931791D01*
X118956961Y-85931791D02*
X118576009Y-85931791D01*
X118576009Y-85931791D02*
X118480771Y-85884172D01*
X118480771Y-85884172D02*
X118433152Y-85788934D01*
X118433152Y-85788934D02*
X118433152Y-85598458D01*
X118433152Y-85598458D02*
X118480771Y-85503220D01*
X118480771Y-85503220D02*
X118576009Y-85455601D01*
X118576009Y-85455601D02*
X118671247Y-85455601D01*
X118671247Y-85455601D02*
X118766485Y-85931791D01*
X118433152Y-85122267D02*
X119099819Y-84884172D01*
X119099819Y-84884172D02*
X118433152Y-84646077D01*
X118099819Y-84074648D02*
X118099819Y-83979410D01*
X118099819Y-83979410D02*
X118147438Y-83884172D01*
X118147438Y-83884172D02*
X118195057Y-83836553D01*
X118195057Y-83836553D02*
X118290295Y-83788934D01*
X118290295Y-83788934D02*
X118480771Y-83741315D01*
X118480771Y-83741315D02*
X118718866Y-83741315D01*
X118718866Y-83741315D02*
X118909342Y-83788934D01*
X118909342Y-83788934D02*
X119004580Y-83836553D01*
X119004580Y-83836553D02*
X119052200Y-83884172D01*
X119052200Y-83884172D02*
X119099819Y-83979410D01*
X119099819Y-83979410D02*
X119099819Y-84074648D01*
X119099819Y-84074648D02*
X119052200Y-84169886D01*
X119052200Y-84169886D02*
X119004580Y-84217505D01*
X119004580Y-84217505D02*
X118909342Y-84265124D01*
X118909342Y-84265124D02*
X118718866Y-84312743D01*
X118718866Y-84312743D02*
X118480771Y-84312743D01*
X118480771Y-84312743D02*
X118290295Y-84265124D01*
X118290295Y-84265124D02*
X118195057Y-84217505D01*
X118195057Y-84217505D02*
X118147438Y-84169886D01*
X118147438Y-84169886D02*
X118099819Y-84074648D01*
X119099819Y-82788934D02*
X119099819Y-83360362D01*
X119099819Y-83074648D02*
X118099819Y-83074648D01*
X118099819Y-83074648D02*
X118242676Y-83169886D01*
X118242676Y-83169886D02*
X118337914Y-83265124D01*
X118337914Y-83265124D02*
X118385533Y-83360362D01*
X119195057Y-82598458D02*
X119195057Y-81836553D01*
X118433152Y-81741314D02*
X118433152Y-81360362D01*
X119099819Y-81598457D02*
X118242676Y-81598457D01*
X118242676Y-81598457D02*
X118147438Y-81550838D01*
X118147438Y-81550838D02*
X118099819Y-81455600D01*
X118099819Y-81455600D02*
X118099819Y-81360362D01*
X119052200Y-80646076D02*
X119099819Y-80741314D01*
X119099819Y-80741314D02*
X119099819Y-80931790D01*
X119099819Y-80931790D02*
X119052200Y-81027028D01*
X119052200Y-81027028D02*
X118956961Y-81074647D01*
X118956961Y-81074647D02*
X118576009Y-81074647D01*
X118576009Y-81074647D02*
X118480771Y-81027028D01*
X118480771Y-81027028D02*
X118433152Y-80931790D01*
X118433152Y-80931790D02*
X118433152Y-80741314D01*
X118433152Y-80741314D02*
X118480771Y-80646076D01*
X118480771Y-80646076D02*
X118576009Y-80598457D01*
X118576009Y-80598457D02*
X118671247Y-80598457D01*
X118671247Y-80598457D02*
X118766485Y-81074647D01*
X119099819Y-80169885D02*
X118099819Y-80169885D01*
X118480771Y-80169885D02*
X118433152Y-80074647D01*
X118433152Y-80074647D02*
X118433152Y-79884171D01*
X118433152Y-79884171D02*
X118480771Y-79788933D01*
X118480771Y-79788933D02*
X118528390Y-79741314D01*
X118528390Y-79741314D02*
X118623628Y-79693695D01*
X118623628Y-79693695D02*
X118909342Y-79693695D01*
X118909342Y-79693695D02*
X119004580Y-79741314D01*
X119004580Y-79741314D02*
X119052200Y-79788933D01*
X119052200Y-79788933D02*
X119099819Y-79884171D01*
X119099819Y-79884171D02*
X119099819Y-80074647D01*
X119099819Y-80074647D02*
X119052200Y-80169885D01*
X118195057Y-79312742D02*
X118147438Y-79265123D01*
X118147438Y-79265123D02*
X118099819Y-79169885D01*
X118099819Y-79169885D02*
X118099819Y-78931790D01*
X118099819Y-78931790D02*
X118147438Y-78836552D01*
X118147438Y-78836552D02*
X118195057Y-78788933D01*
X118195057Y-78788933D02*
X118290295Y-78741314D01*
X118290295Y-78741314D02*
X118385533Y-78741314D01*
X118385533Y-78741314D02*
X118528390Y-78788933D01*
X118528390Y-78788933D02*
X119099819Y-79360361D01*
X119099819Y-79360361D02*
X119099819Y-78741314D01*
X118099819Y-77836552D02*
X118099819Y-78312742D01*
X118099819Y-78312742D02*
X118576009Y-78360361D01*
X118576009Y-78360361D02*
X118528390Y-78312742D01*
X118528390Y-78312742D02*
X118480771Y-78217504D01*
X118480771Y-78217504D02*
X118480771Y-77979409D01*
X118480771Y-77979409D02*
X118528390Y-77884171D01*
X118528390Y-77884171D02*
X118576009Y-77836552D01*
X118576009Y-77836552D02*
X118671247Y-77788933D01*
X118671247Y-77788933D02*
X118909342Y-77788933D01*
X118909342Y-77788933D02*
X119004580Y-77836552D01*
X119004580Y-77836552D02*
X119052200Y-77884171D01*
X119052200Y-77884171D02*
X119099819Y-77979409D01*
X119099819Y-77979409D02*
X119099819Y-78217504D01*
X119099819Y-78217504D02*
X119052200Y-78312742D01*
X119052200Y-78312742D02*
X119004580Y-78360361D01*
X126719523Y-116738152D02*
X126719523Y-117547676D01*
X126719523Y-117547676D02*
X126671904Y-117642914D01*
X126671904Y-117642914D02*
X126624285Y-117690533D01*
X126624285Y-117690533D02*
X126529047Y-117738152D01*
X126529047Y-117738152D02*
X126386190Y-117738152D01*
X126386190Y-117738152D02*
X126290952Y-117690533D01*
X126719523Y-117357200D02*
X126624285Y-117404819D01*
X126624285Y-117404819D02*
X126433809Y-117404819D01*
X126433809Y-117404819D02*
X126338571Y-117357200D01*
X126338571Y-117357200D02*
X126290952Y-117309580D01*
X126290952Y-117309580D02*
X126243333Y-117214342D01*
X126243333Y-117214342D02*
X126243333Y-116928628D01*
X126243333Y-116928628D02*
X126290952Y-116833390D01*
X126290952Y-116833390D02*
X126338571Y-116785771D01*
X126338571Y-116785771D02*
X126433809Y-116738152D01*
X126433809Y-116738152D02*
X126624285Y-116738152D01*
X126624285Y-116738152D02*
X126719523Y-116785771D01*
X127195714Y-116738152D02*
X127195714Y-117404819D01*
X127195714Y-116833390D02*
X127243333Y-116785771D01*
X127243333Y-116785771D02*
X127338571Y-116738152D01*
X127338571Y-116738152D02*
X127481428Y-116738152D01*
X127481428Y-116738152D02*
X127576666Y-116785771D01*
X127576666Y-116785771D02*
X127624285Y-116881009D01*
X127624285Y-116881009D02*
X127624285Y-117404819D01*
X128529047Y-117404819D02*
X128529047Y-116404819D01*
X128529047Y-117357200D02*
X128433809Y-117404819D01*
X128433809Y-117404819D02*
X128243333Y-117404819D01*
X128243333Y-117404819D02*
X128148095Y-117357200D01*
X128148095Y-117357200D02*
X128100476Y-117309580D01*
X128100476Y-117309580D02*
X128052857Y-117214342D01*
X128052857Y-117214342D02*
X128052857Y-116928628D01*
X128052857Y-116928628D02*
X128100476Y-116833390D01*
X128100476Y-116833390D02*
X128148095Y-116785771D01*
X128148095Y-116785771D02*
X128243333Y-116738152D01*
X128243333Y-116738152D02*
X128433809Y-116738152D01*
X128433809Y-116738152D02*
X128529047Y-116785771D01*
D11*
X114500000Y-88020000D02*
X115830000Y-88020000D01*
X114500000Y-89350000D02*
X114500000Y-88020000D01*
X114500000Y-90620000D02*
X114500000Y-111000000D01*
X114500000Y-90620000D02*
X117100000Y-90620000D01*
X114500000Y-111000000D02*
X119700000Y-111000000D01*
X117100000Y-88020000D02*
X119700000Y-88020000D01*
X117100000Y-90620000D02*
X117100000Y-88020000D01*
X119700000Y-88020000D02*
X119700000Y-111000000D01*
X123900000Y-116180000D02*
X125800000Y-116180000D01*
X123900000Y-118080000D02*
X123900000Y-116180000D01*
X125800000Y-116180000D02*
X125800000Y-118080000D01*
X125800000Y-118080000D02*
X123900000Y-118080000D01*
X175620000Y-99500000D02*
X122280000Y-99500000D01*
%LPC*%
D12*
X124820000Y-127310000D03*
X124820000Y-124770000D03*
X124820000Y-122230000D03*
X124820000Y-119690000D03*
D13*
X127360000Y-127310000D03*
X127360000Y-124770000D03*
X127360000Y-122230000D03*
X127360000Y-119690000D03*
X129900000Y-127310000D03*
X129900000Y-124770000D03*
X129900000Y-122230000D03*
X129900000Y-119690000D03*
X132440000Y-127310000D03*
X132440000Y-124770000D03*
X132440000Y-122230000D03*
X132440000Y-119690000D03*
X134980000Y-127310000D03*
X134980000Y-124770000D03*
X134980000Y-122230000D03*
X134980000Y-119690000D03*
X137520000Y-127310000D03*
X137520000Y-124770000D03*
X137520000Y-122230000D03*
X137520000Y-119690000D03*
X140060000Y-127310000D03*
X140060000Y-124770000D03*
X140060000Y-122230000D03*
X140060000Y-119690000D03*
X142600000Y-127310000D03*
X142600000Y-124770000D03*
X142600000Y-122230000D03*
X142600000Y-119690000D03*
X145140000Y-127310000D03*
X145140000Y-124770000D03*
X145140000Y-122230000D03*
X145140000Y-119690000D03*
X147680000Y-127310000D03*
X147680000Y-124770000D03*
X147680000Y-122230000D03*
X147680000Y-119690000D03*
X150220000Y-127310000D03*
X150220000Y-124770000D03*
X150220000Y-122230000D03*
X150220000Y-119690000D03*
X152760000Y-127310000D03*
X152760000Y-124770000D03*
X152760000Y-122230000D03*
X152760000Y-119690000D03*
X155300000Y-127310000D03*
X155300000Y-124770000D03*
X155300000Y-122230000D03*
X155300000Y-119690000D03*
X157840000Y-127310000D03*
X157840000Y-124770000D03*
X157840000Y-122230000D03*
X157840000Y-119690000D03*
X160380000Y-127310000D03*
X160380000Y-124770000D03*
X160380000Y-122230000D03*
X160380000Y-119690000D03*
X162920000Y-127310000D03*
X162920000Y-124770000D03*
X162920000Y-122230000D03*
X162920000Y-119690000D03*
X165460000Y-127310000D03*
X165460000Y-124770000D03*
X165460000Y-122230000D03*
X165460000Y-119690000D03*
X168000000Y-127310000D03*
X168000000Y-124770000D03*
X168000000Y-122230000D03*
X168000000Y-119690000D03*
X170540000Y-127310000D03*
X170540000Y-124770000D03*
X170540000Y-122230000D03*
X170540000Y-119690000D03*
X173080000Y-127310000D03*
X173080000Y-124770000D03*
X173080000Y-122230000D03*
X173080000Y-119690000D03*
D14*
X115830000Y-89350000D03*
D13*
X118370000Y-89350000D03*
X115830000Y-91890000D03*
X118370000Y-91890000D03*
X115830000Y-94430000D03*
X118370000Y-94430000D03*
X115830000Y-96970000D03*
X118370000Y-96970000D03*
X115830000Y-99510000D03*
X118370000Y-99510000D03*
X115830000Y-102050000D03*
X118370000Y-102050000D03*
X115830000Y-104590000D03*
X118370000Y-104590000D03*
X115830000Y-107130000D03*
X118370000Y-107130000D03*
X115830000Y-109670000D03*
X118370000Y-109670000D03*
D15*
X124850000Y-117130000D03*
D12*
X124820000Y-79310000D03*
X124820000Y-76770000D03*
X124820000Y-74230000D03*
X124820000Y-71690000D03*
D13*
X127360000Y-79310000D03*
X127360000Y-76770000D03*
X127360000Y-74230000D03*
X127360000Y-71690000D03*
X129900000Y-79310000D03*
X129900000Y-76770000D03*
X129900000Y-74230000D03*
X129900000Y-71690000D03*
X132440000Y-79310000D03*
X132440000Y-76770000D03*
X132440000Y-74230000D03*
X132440000Y-71690000D03*
X134980000Y-79310000D03*
X134980000Y-76770000D03*
X134980000Y-74230000D03*
X134980000Y-71690000D03*
X137520000Y-79310000D03*
X137520000Y-76770000D03*
X137520000Y-74230000D03*
X137520000Y-71690000D03*
X140060000Y-79310000D03*
X140060000Y-76770000D03*
X140060000Y-74230000D03*
X140060000Y-71690000D03*
X142600000Y-79310000D03*
X142600000Y-76770000D03*
X142600000Y-74230000D03*
X142600000Y-71690000D03*
X145140000Y-79310000D03*
X145140000Y-76770000D03*
X145140000Y-74230000D03*
X145140000Y-71690000D03*
X147680000Y-79310000D03*
X147680000Y-76770000D03*
X147680000Y-74230000D03*
X147680000Y-71690000D03*
X150220000Y-79310000D03*
X150220000Y-76770000D03*
X150220000Y-74230000D03*
X150220000Y-71690000D03*
X152760000Y-79310000D03*
X152760000Y-76770000D03*
X152760000Y-74230000D03*
X152760000Y-71690000D03*
X155300000Y-79310000D03*
X155300000Y-76770000D03*
X155300000Y-74230000D03*
X155300000Y-71690000D03*
X157840000Y-79310000D03*
X157840000Y-76770000D03*
X157840000Y-74230000D03*
X157840000Y-71690000D03*
X160380000Y-79310000D03*
X160380000Y-76770000D03*
X160380000Y-74230000D03*
X160380000Y-71690000D03*
X162920000Y-79310000D03*
X162920000Y-76770000D03*
X162920000Y-74230000D03*
X162920000Y-71690000D03*
X165460000Y-79310000D03*
X165460000Y-76770000D03*
X165460000Y-74230000D03*
X165460000Y-71690000D03*
X168000000Y-79310000D03*
X168000000Y-76770000D03*
X168000000Y-74230000D03*
X168000000Y-71690000D03*
X170540000Y-79310000D03*
X170540000Y-76770000D03*
X170540000Y-74230000D03*
X170540000Y-71690000D03*
X173080000Y-79310000D03*
X173080000Y-76770000D03*
X173080000Y-74230000D03*
X173080000Y-71690000D03*
D12*
X173080000Y-84260000D03*
X173080000Y-86800000D03*
X173080000Y-89340000D03*
X173080000Y-91880000D03*
X173080000Y-94420000D03*
X173080000Y-96960000D03*
D13*
X170540000Y-84260000D03*
X170540000Y-86800000D03*
X170540000Y-89340000D03*
X170540000Y-91880000D03*
X170540000Y-94420000D03*
X170540000Y-96960000D03*
X168000000Y-84260000D03*
X168000000Y-86800000D03*
X168000000Y-89340000D03*
X168000000Y-91880000D03*
X168000000Y-94420000D03*
X168000000Y-96960000D03*
X165460000Y-84260000D03*
X165460000Y-86800000D03*
X165460000Y-89340000D03*
X165460000Y-91880000D03*
X165460000Y-94420000D03*
X165460000Y-96960000D03*
X162920000Y-84260000D03*
X162920000Y-86800000D03*
X162920000Y-89340000D03*
X162920000Y-91880000D03*
X162920000Y-94420000D03*
X162920000Y-96960000D03*
X160380000Y-84260000D03*
X160380000Y-86800000D03*
X160380000Y-89340000D03*
X160380000Y-91880000D03*
X160380000Y-94420000D03*
X160380000Y-96960000D03*
X157840000Y-84260000D03*
X157840000Y-86800000D03*
X157840000Y-89340000D03*
X157840000Y-91880000D03*
X157840000Y-94420000D03*
X157840000Y-96960000D03*
X155300000Y-84260000D03*
X155300000Y-86800000D03*
X155300000Y-89340000D03*
X155300000Y-91880000D03*
X155300000Y-94420000D03*
X155300000Y-96960000D03*
X152760000Y-84260000D03*
X152760000Y-86800000D03*
X152760000Y-89340000D03*
X152760000Y-91880000D03*
X152760000Y-94420000D03*
X152760000Y-96960000D03*
X150220000Y-84260000D03*
X150220000Y-86800000D03*
X150220000Y-89340000D03*
X150220000Y-91880000D03*
X150220000Y-94420000D03*
X150220000Y-96960000D03*
X147680000Y-84260000D03*
X147680000Y-86800000D03*
X147680000Y-89340000D03*
X147680000Y-91880000D03*
X147680000Y-94420000D03*
X147680000Y-96960000D03*
X145140000Y-84260000D03*
X145140000Y-86800000D03*
X145140000Y-89340000D03*
X145140000Y-91880000D03*
X145140000Y-94420000D03*
X145140000Y-96960000D03*
X142600000Y-84260000D03*
X142600000Y-86800000D03*
X142600000Y-89340000D03*
X142600000Y-91880000D03*
X142600000Y-94420000D03*
X142600000Y-96960000D03*
X140060000Y-84260000D03*
X140060000Y-86800000D03*
X140060000Y-89340000D03*
X140060000Y-91880000D03*
X140060000Y-94420000D03*
X140060000Y-96960000D03*
X137520000Y-84260000D03*
X137520000Y-86800000D03*
X137520000Y-89340000D03*
X137520000Y-91880000D03*
X137520000Y-94420000D03*
X137520000Y-96960000D03*
X134980000Y-84260000D03*
X134980000Y-86800000D03*
X134980000Y-89340000D03*
X134980000Y-91880000D03*
X134980000Y-94420000D03*
X134980000Y-96960000D03*
X132440000Y-84260000D03*
X132440000Y-86800000D03*
X132440000Y-89340000D03*
X132440000Y-91880000D03*
X132440000Y-94420000D03*
X132440000Y-96960000D03*
X129900000Y-84260000D03*
X129900000Y-86800000D03*
X129900000Y-89340000D03*
X129900000Y-91880000D03*
X129900000Y-94420000D03*
X129900000Y-96960000D03*
X127360000Y-84260000D03*
X127360000Y-86800000D03*
X127360000Y-89340000D03*
X127360000Y-91880000D03*
X127360000Y-94420000D03*
X127360000Y-96960000D03*
X124820000Y-84260000D03*
X124820000Y-86800000D03*
X124820000Y-89340000D03*
X124820000Y-91880000D03*
X124820000Y-94420000D03*
X124820000Y-96960000D03*
D12*
X173080000Y-102040000D03*
X173080000Y-104580000D03*
X173080000Y-107120000D03*
X173080000Y-109660000D03*
X173080000Y-112200000D03*
X173080000Y-114740000D03*
D13*
X170540000Y-102040000D03*
X170540000Y-104580000D03*
X170540000Y-107120000D03*
X170540000Y-109660000D03*
X170540000Y-112200000D03*
X170540000Y-114740000D03*
X168000000Y-102040000D03*
X168000000Y-104580000D03*
X168000000Y-107120000D03*
X168000000Y-109660000D03*
X168000000Y-112200000D03*
X168000000Y-114740000D03*
X165460000Y-102040000D03*
X165460000Y-104580000D03*
X165460000Y-107120000D03*
X165460000Y-109660000D03*
X165460000Y-112200000D03*
X165460000Y-114740000D03*
X162920000Y-102040000D03*
X162920000Y-104580000D03*
X162920000Y-107120000D03*
X162920000Y-109660000D03*
X162920000Y-112200000D03*
X162920000Y-114740000D03*
X160380000Y-102040000D03*
X160380000Y-104580000D03*
X160380000Y-107120000D03*
X160380000Y-109660000D03*
X160380000Y-112200000D03*
X160380000Y-114740000D03*
X157840000Y-102040000D03*
X157840000Y-104580000D03*
X157840000Y-107120000D03*
X157840000Y-109660000D03*
X157840000Y-112200000D03*
X157840000Y-114740000D03*
X155300000Y-102040000D03*
X155300000Y-104580000D03*
X155300000Y-107120000D03*
X155300000Y-109660000D03*
X155300000Y-112200000D03*
X155300000Y-114740000D03*
X152760000Y-102040000D03*
X152760000Y-104580000D03*
X152760000Y-107120000D03*
X152760000Y-109660000D03*
X152760000Y-112200000D03*
X152760000Y-114740000D03*
X150220000Y-102040000D03*
X150220000Y-104580000D03*
X150220000Y-107120000D03*
X150220000Y-109660000D03*
X150220000Y-112200000D03*
X150220000Y-114740000D03*
X147680000Y-102040000D03*
X147680000Y-104580000D03*
X147680000Y-107120000D03*
X147680000Y-109660000D03*
X147680000Y-112200000D03*
X147680000Y-114740000D03*
X145140000Y-102040000D03*
X145140000Y-104580000D03*
X145140000Y-107120000D03*
X145140000Y-109660000D03*
X145140000Y-112200000D03*
X145140000Y-114740000D03*
X142600000Y-102040000D03*
X142600000Y-104580000D03*
X142600000Y-107120000D03*
X142600000Y-109660000D03*
X142600000Y-112200000D03*
X142600000Y-114740000D03*
X140060000Y-102040000D03*
X140060000Y-104580000D03*
X140060000Y-107120000D03*
X140060000Y-109660000D03*
X140060000Y-112200000D03*
X140060000Y-114740000D03*
X137520000Y-102040000D03*
X137520000Y-104580000D03*
X137520000Y-107120000D03*
X137520000Y-109660000D03*
X137520000Y-112200000D03*
X137520000Y-114740000D03*
X134980000Y-102040000D03*
X134980000Y-104580000D03*
X134980000Y-107120000D03*
X134980000Y-109660000D03*
X134980000Y-112200000D03*
X134980000Y-114740000D03*
X132440000Y-102040000D03*
X132440000Y-104580000D03*
X132440000Y-107120000D03*
X132440000Y-109660000D03*
X132440000Y-112200000D03*
X132440000Y-114740000D03*
X129900000Y-102040000D03*
X129900000Y-104580000D03*
X129900000Y-107120000D03*
X129900000Y-109660000D03*
X129900000Y-112200000D03*
X129900000Y-114740000D03*
X127360000Y-102040000D03*
X127360000Y-104580000D03*
X127360000Y-107120000D03*
X127360000Y-109660000D03*
X127360000Y-112200000D03*
X127360000Y-114740000D03*
X124820000Y-102040000D03*
X124820000Y-104580000D03*
X124820000Y-107120000D03*
X124820000Y-109660000D03*
X124820000Y-112200000D03*
X124820000Y-114740000D03*
%LPD*%
M02*
