%TF.GenerationSoftware,KiCad,Pcbnew,8.0.8*%
%TF.CreationDate,2025-02-19T14:02:05-05:00*%
%TF.ProjectId,plot_gerbers,706c6f74-5f67-4657-9262-6572732e6b69,rev?*%
%TF.SameCoordinates,Original*%
%TF.FileFunction,Drillmap*%
%TF.FilePolarity,Positive*%
%FSLAX45Y45*%
G04 Gerber Fmt 4.5, Leading zero omitted, Abs format (unit mm)*
G04 Created by KiCad (PCBNEW 8.0.8) date 2025-02-19 14:02:05*
%MOMM*%
%LPD*%
G01*
G04 APERTURE LIST*
%ADD10C,0.050000*%
%ADD11C,0.200000*%
%ADD12C,0.100000*%
G04 APERTURE END LIST*
D10*
X17820000Y-6835000D02*
X17820000Y-7775000D01*
X11190000Y-8015000D02*
X11065000Y-8015000D01*
X11065000Y-8165000D02*
X11065000Y-8015000D01*
X17820000Y-11495000D02*
X17820000Y-8405000D01*
X17820000Y-8015000D02*
G75*
G02*
X17700000Y-7895000I0J120000D01*
G01*
X17820000Y-12125000D02*
G75*
G02*
X17700000Y-12005000I0J120000D01*
G01*
X11310000Y-8285000D02*
G75*
G02*
X11190000Y-8405000I-120010J10D01*
G01*
X17820000Y-8405000D02*
G75*
G02*
X17700000Y-8285000I0J120000D01*
G01*
X11190000Y-6835000D02*
X17820000Y-6835000D01*
X17700000Y-11615000D02*
G75*
G02*
X17820000Y-11495000I120010J-10D01*
G01*
X17700000Y-12005000D02*
G75*
G02*
X17820000Y-11885000I120010J-10D01*
G01*
X17700000Y-7895000D02*
G75*
G02*
X17820000Y-7775000I120010J-10D01*
G01*
X17820000Y-8015000D02*
X17945000Y-8015000D01*
X11310000Y-12005000D02*
G75*
G02*
X11190000Y-12125000I-120010J10D01*
G01*
X17820000Y-13065000D02*
X17820000Y-12125000D01*
X17820000Y-11735000D02*
G75*
G02*
X17700000Y-11615000I0J120000D01*
G01*
X17700000Y-8285000D02*
G75*
G02*
X17820000Y-8165000I120010J-10D01*
G01*
X11190000Y-7775000D02*
G75*
G02*
X11310000Y-7895000I0J-120000D01*
G01*
X11310000Y-7895000D02*
G75*
G02*
X11190000Y-8015000I-120010J10D01*
G01*
X11190000Y-8165000D02*
G75*
G02*
X11310000Y-8285000I0J-120000D01*
G01*
X11190000Y-11885000D02*
X11065000Y-11885000D01*
X17820000Y-11885000D02*
X17945000Y-11885000D01*
X11065000Y-11885000D02*
X11065000Y-11735000D01*
X11190000Y-13065000D02*
X17820000Y-13065000D01*
X11190000Y-13065000D02*
X11190000Y-12125000D01*
X11190000Y-8405000D02*
X11190000Y-11495000D01*
X17820000Y-8165000D02*
X17945000Y-8165000D01*
X17945000Y-11735000D02*
X17945000Y-11885000D01*
X11310000Y-11615000D02*
G75*
G02*
X11190000Y-11735000I-120010J10D01*
G01*
X11190000Y-11495000D02*
G75*
G02*
X11310000Y-11615000I0J-120000D01*
G01*
X11190000Y-6835000D02*
X11190000Y-7775000D01*
X11190000Y-11735000D02*
X11065000Y-11735000D01*
X11190000Y-11885000D02*
G75*
G02*
X11310000Y-12005000I0J-120000D01*
G01*
X17820000Y-11735000D02*
X17945000Y-11735000D01*
X11190000Y-8165000D02*
X11065000Y-8165000D01*
X17945000Y-8015000D02*
X17945000Y-8165000D01*
D11*
D12*
X12450000Y-11678000D02*
X12520000Y-11748000D01*
X12520000Y-11678000D02*
X12450000Y-11748000D01*
X11633000Y-8935000D02*
G75*
G02*
X11533000Y-8935000I-50000J0D01*
G01*
X11533000Y-8935000D02*
G75*
G02*
X11633000Y-8935000I50000J0D01*
G01*
X11633000Y-9189000D02*
G75*
G02*
X11533000Y-9189000I-50000J0D01*
G01*
X11533000Y-9189000D02*
G75*
G02*
X11633000Y-9189000I50000J0D01*
G01*
X11633000Y-9443000D02*
G75*
G02*
X11533000Y-9443000I-50000J0D01*
G01*
X11533000Y-9443000D02*
G75*
G02*
X11633000Y-9443000I50000J0D01*
G01*
X11633000Y-9697000D02*
G75*
G02*
X11533000Y-9697000I-50000J0D01*
G01*
X11533000Y-9697000D02*
G75*
G02*
X11633000Y-9697000I50000J0D01*
G01*
X11633000Y-9951000D02*
G75*
G02*
X11533000Y-9951000I-50000J0D01*
G01*
X11533000Y-9951000D02*
G75*
G02*
X11633000Y-9951000I50000J0D01*
G01*
X11633000Y-10205000D02*
G75*
G02*
X11533000Y-10205000I-50000J0D01*
G01*
X11533000Y-10205000D02*
G75*
G02*
X11633000Y-10205000I50000J0D01*
G01*
X11633000Y-10459000D02*
G75*
G02*
X11533000Y-10459000I-50000J0D01*
G01*
X11533000Y-10459000D02*
G75*
G02*
X11633000Y-10459000I50000J0D01*
G01*
X11633000Y-10713000D02*
G75*
G02*
X11533000Y-10713000I-50000J0D01*
G01*
X11533000Y-10713000D02*
G75*
G02*
X11633000Y-10713000I50000J0D01*
G01*
X11633000Y-10967000D02*
G75*
G02*
X11533000Y-10967000I-50000J0D01*
G01*
X11533000Y-10967000D02*
G75*
G02*
X11633000Y-10967000I50000J0D01*
G01*
X11887000Y-8935000D02*
G75*
G02*
X11787000Y-8935000I-50000J0D01*
G01*
X11787000Y-8935000D02*
G75*
G02*
X11887000Y-8935000I50000J0D01*
G01*
X11887000Y-9189000D02*
G75*
G02*
X11787000Y-9189000I-50000J0D01*
G01*
X11787000Y-9189000D02*
G75*
G02*
X11887000Y-9189000I50000J0D01*
G01*
X11887000Y-9443000D02*
G75*
G02*
X11787000Y-9443000I-50000J0D01*
G01*
X11787000Y-9443000D02*
G75*
G02*
X11887000Y-9443000I50000J0D01*
G01*
X11887000Y-9697000D02*
G75*
G02*
X11787000Y-9697000I-50000J0D01*
G01*
X11787000Y-9697000D02*
G75*
G02*
X11887000Y-9697000I50000J0D01*
G01*
X11887000Y-9951000D02*
G75*
G02*
X11787000Y-9951000I-50000J0D01*
G01*
X11787000Y-9951000D02*
G75*
G02*
X11887000Y-9951000I50000J0D01*
G01*
X11887000Y-10205000D02*
G75*
G02*
X11787000Y-10205000I-50000J0D01*
G01*
X11787000Y-10205000D02*
G75*
G02*
X11887000Y-10205000I50000J0D01*
G01*
X11887000Y-10459000D02*
G75*
G02*
X11787000Y-10459000I-50000J0D01*
G01*
X11787000Y-10459000D02*
G75*
G02*
X11887000Y-10459000I50000J0D01*
G01*
X11887000Y-10713000D02*
G75*
G02*
X11787000Y-10713000I-50000J0D01*
G01*
X11787000Y-10713000D02*
G75*
G02*
X11887000Y-10713000I50000J0D01*
G01*
X11887000Y-10967000D02*
G75*
G02*
X11787000Y-10967000I-50000J0D01*
G01*
X11787000Y-10967000D02*
G75*
G02*
X11887000Y-10967000I50000J0D01*
G01*
X12532000Y-7169000D02*
G75*
G02*
X12432000Y-7169000I-50000J0D01*
G01*
X12432000Y-7169000D02*
G75*
G02*
X12532000Y-7169000I50000J0D01*
G01*
X12532000Y-7423000D02*
G75*
G02*
X12432000Y-7423000I-50000J0D01*
G01*
X12432000Y-7423000D02*
G75*
G02*
X12532000Y-7423000I50000J0D01*
G01*
X12532000Y-7677000D02*
G75*
G02*
X12432000Y-7677000I-50000J0D01*
G01*
X12432000Y-7677000D02*
G75*
G02*
X12532000Y-7677000I50000J0D01*
G01*
X12532000Y-7931000D02*
G75*
G02*
X12432000Y-7931000I-50000J0D01*
G01*
X12432000Y-7931000D02*
G75*
G02*
X12532000Y-7931000I50000J0D01*
G01*
X12532000Y-8426000D02*
G75*
G02*
X12432000Y-8426000I-50000J0D01*
G01*
X12432000Y-8426000D02*
G75*
G02*
X12532000Y-8426000I50000J0D01*
G01*
X12532000Y-8680000D02*
G75*
G02*
X12432000Y-8680000I-50000J0D01*
G01*
X12432000Y-8680000D02*
G75*
G02*
X12532000Y-8680000I50000J0D01*
G01*
X12532000Y-8934000D02*
G75*
G02*
X12432000Y-8934000I-50000J0D01*
G01*
X12432000Y-8934000D02*
G75*
G02*
X12532000Y-8934000I50000J0D01*
G01*
X12532000Y-9188000D02*
G75*
G02*
X12432000Y-9188000I-50000J0D01*
G01*
X12432000Y-9188000D02*
G75*
G02*
X12532000Y-9188000I50000J0D01*
G01*
X12532000Y-9442000D02*
G75*
G02*
X12432000Y-9442000I-50000J0D01*
G01*
X12432000Y-9442000D02*
G75*
G02*
X12532000Y-9442000I50000J0D01*
G01*
X12532000Y-9696000D02*
G75*
G02*
X12432000Y-9696000I-50000J0D01*
G01*
X12432000Y-9696000D02*
G75*
G02*
X12532000Y-9696000I50000J0D01*
G01*
X12532000Y-10204000D02*
G75*
G02*
X12432000Y-10204000I-50000J0D01*
G01*
X12432000Y-10204000D02*
G75*
G02*
X12532000Y-10204000I50000J0D01*
G01*
X12532000Y-10458000D02*
G75*
G02*
X12432000Y-10458000I-50000J0D01*
G01*
X12432000Y-10458000D02*
G75*
G02*
X12532000Y-10458000I50000J0D01*
G01*
X12532000Y-10712000D02*
G75*
G02*
X12432000Y-10712000I-50000J0D01*
G01*
X12432000Y-10712000D02*
G75*
G02*
X12532000Y-10712000I50000J0D01*
G01*
X12532000Y-10966000D02*
G75*
G02*
X12432000Y-10966000I-50000J0D01*
G01*
X12432000Y-10966000D02*
G75*
G02*
X12532000Y-10966000I50000J0D01*
G01*
X12532000Y-11220000D02*
G75*
G02*
X12432000Y-11220000I-50000J0D01*
G01*
X12432000Y-11220000D02*
G75*
G02*
X12532000Y-11220000I50000J0D01*
G01*
X12532000Y-11474000D02*
G75*
G02*
X12432000Y-11474000I-50000J0D01*
G01*
X12432000Y-11474000D02*
G75*
G02*
X12532000Y-11474000I50000J0D01*
G01*
X12532000Y-11969000D02*
G75*
G02*
X12432000Y-11969000I-50000J0D01*
G01*
X12432000Y-11969000D02*
G75*
G02*
X12532000Y-11969000I50000J0D01*
G01*
X12532000Y-12223000D02*
G75*
G02*
X12432000Y-12223000I-50000J0D01*
G01*
X12432000Y-12223000D02*
G75*
G02*
X12532000Y-12223000I50000J0D01*
G01*
X12532000Y-12477000D02*
G75*
G02*
X12432000Y-12477000I-50000J0D01*
G01*
X12432000Y-12477000D02*
G75*
G02*
X12532000Y-12477000I50000J0D01*
G01*
X12532000Y-12731000D02*
G75*
G02*
X12432000Y-12731000I-50000J0D01*
G01*
X12432000Y-12731000D02*
G75*
G02*
X12532000Y-12731000I50000J0D01*
G01*
X12786000Y-7169000D02*
G75*
G02*
X12686000Y-7169000I-50000J0D01*
G01*
X12686000Y-7169000D02*
G75*
G02*
X12786000Y-7169000I50000J0D01*
G01*
X12786000Y-7423000D02*
G75*
G02*
X12686000Y-7423000I-50000J0D01*
G01*
X12686000Y-7423000D02*
G75*
G02*
X12786000Y-7423000I50000J0D01*
G01*
X12786000Y-7677000D02*
G75*
G02*
X12686000Y-7677000I-50000J0D01*
G01*
X12686000Y-7677000D02*
G75*
G02*
X12786000Y-7677000I50000J0D01*
G01*
X12786000Y-7931000D02*
G75*
G02*
X12686000Y-7931000I-50000J0D01*
G01*
X12686000Y-7931000D02*
G75*
G02*
X12786000Y-7931000I50000J0D01*
G01*
X12786000Y-8426000D02*
G75*
G02*
X12686000Y-8426000I-50000J0D01*
G01*
X12686000Y-8426000D02*
G75*
G02*
X12786000Y-8426000I50000J0D01*
G01*
X12786000Y-8680000D02*
G75*
G02*
X12686000Y-8680000I-50000J0D01*
G01*
X12686000Y-8680000D02*
G75*
G02*
X12786000Y-8680000I50000J0D01*
G01*
X12786000Y-8934000D02*
G75*
G02*
X12686000Y-8934000I-50000J0D01*
G01*
X12686000Y-8934000D02*
G75*
G02*
X12786000Y-8934000I50000J0D01*
G01*
X12786000Y-9188000D02*
G75*
G02*
X12686000Y-9188000I-50000J0D01*
G01*
X12686000Y-9188000D02*
G75*
G02*
X12786000Y-9188000I50000J0D01*
G01*
X12786000Y-9442000D02*
G75*
G02*
X12686000Y-9442000I-50000J0D01*
G01*
X12686000Y-9442000D02*
G75*
G02*
X12786000Y-9442000I50000J0D01*
G01*
X12786000Y-9696000D02*
G75*
G02*
X12686000Y-9696000I-50000J0D01*
G01*
X12686000Y-9696000D02*
G75*
G02*
X12786000Y-9696000I50000J0D01*
G01*
X12786000Y-10204000D02*
G75*
G02*
X12686000Y-10204000I-50000J0D01*
G01*
X12686000Y-10204000D02*
G75*
G02*
X12786000Y-10204000I50000J0D01*
G01*
X12786000Y-10458000D02*
G75*
G02*
X12686000Y-10458000I-50000J0D01*
G01*
X12686000Y-10458000D02*
G75*
G02*
X12786000Y-10458000I50000J0D01*
G01*
X12786000Y-10712000D02*
G75*
G02*
X12686000Y-10712000I-50000J0D01*
G01*
X12686000Y-10712000D02*
G75*
G02*
X12786000Y-10712000I50000J0D01*
G01*
X12786000Y-10966000D02*
G75*
G02*
X12686000Y-10966000I-50000J0D01*
G01*
X12686000Y-10966000D02*
G75*
G02*
X12786000Y-10966000I50000J0D01*
G01*
X12786000Y-11220000D02*
G75*
G02*
X12686000Y-11220000I-50000J0D01*
G01*
X12686000Y-11220000D02*
G75*
G02*
X12786000Y-11220000I50000J0D01*
G01*
X12786000Y-11474000D02*
G75*
G02*
X12686000Y-11474000I-50000J0D01*
G01*
X12686000Y-11474000D02*
G75*
G02*
X12786000Y-11474000I50000J0D01*
G01*
X12786000Y-11969000D02*
G75*
G02*
X12686000Y-11969000I-50000J0D01*
G01*
X12686000Y-11969000D02*
G75*
G02*
X12786000Y-11969000I50000J0D01*
G01*
X12786000Y-12223000D02*
G75*
G02*
X12686000Y-12223000I-50000J0D01*
G01*
X12686000Y-12223000D02*
G75*
G02*
X12786000Y-12223000I50000J0D01*
G01*
X12786000Y-12477000D02*
G75*
G02*
X12686000Y-12477000I-50000J0D01*
G01*
X12686000Y-12477000D02*
G75*
G02*
X12786000Y-12477000I50000J0D01*
G01*
X12786000Y-12731000D02*
G75*
G02*
X12686000Y-12731000I-50000J0D01*
G01*
X12686000Y-12731000D02*
G75*
G02*
X12786000Y-12731000I50000J0D01*
G01*
X13040000Y-7169000D02*
G75*
G02*
X12940000Y-7169000I-50000J0D01*
G01*
X12940000Y-7169000D02*
G75*
G02*
X13040000Y-7169000I50000J0D01*
G01*
X13040000Y-7423000D02*
G75*
G02*
X12940000Y-7423000I-50000J0D01*
G01*
X12940000Y-7423000D02*
G75*
G02*
X13040000Y-7423000I50000J0D01*
G01*
X13040000Y-7677000D02*
G75*
G02*
X12940000Y-7677000I-50000J0D01*
G01*
X12940000Y-7677000D02*
G75*
G02*
X13040000Y-7677000I50000J0D01*
G01*
X13040000Y-7931000D02*
G75*
G02*
X12940000Y-7931000I-50000J0D01*
G01*
X12940000Y-7931000D02*
G75*
G02*
X13040000Y-7931000I50000J0D01*
G01*
X13040000Y-8426000D02*
G75*
G02*
X12940000Y-8426000I-50000J0D01*
G01*
X12940000Y-8426000D02*
G75*
G02*
X13040000Y-8426000I50000J0D01*
G01*
X13040000Y-8680000D02*
G75*
G02*
X12940000Y-8680000I-50000J0D01*
G01*
X12940000Y-8680000D02*
G75*
G02*
X13040000Y-8680000I50000J0D01*
G01*
X13040000Y-8934000D02*
G75*
G02*
X12940000Y-8934000I-50000J0D01*
G01*
X12940000Y-8934000D02*
G75*
G02*
X13040000Y-8934000I50000J0D01*
G01*
X13040000Y-9188000D02*
G75*
G02*
X12940000Y-9188000I-50000J0D01*
G01*
X12940000Y-9188000D02*
G75*
G02*
X13040000Y-9188000I50000J0D01*
G01*
X13040000Y-9442000D02*
G75*
G02*
X12940000Y-9442000I-50000J0D01*
G01*
X12940000Y-9442000D02*
G75*
G02*
X13040000Y-9442000I50000J0D01*
G01*
X13040000Y-9696000D02*
G75*
G02*
X12940000Y-9696000I-50000J0D01*
G01*
X12940000Y-9696000D02*
G75*
G02*
X13040000Y-9696000I50000J0D01*
G01*
X13040000Y-10204000D02*
G75*
G02*
X12940000Y-10204000I-50000J0D01*
G01*
X12940000Y-10204000D02*
G75*
G02*
X13040000Y-10204000I50000J0D01*
G01*
X13040000Y-10458000D02*
G75*
G02*
X12940000Y-10458000I-50000J0D01*
G01*
X12940000Y-10458000D02*
G75*
G02*
X13040000Y-10458000I50000J0D01*
G01*
X13040000Y-10712000D02*
G75*
G02*
X12940000Y-10712000I-50000J0D01*
G01*
X12940000Y-10712000D02*
G75*
G02*
X13040000Y-10712000I50000J0D01*
G01*
X13040000Y-10966000D02*
G75*
G02*
X12940000Y-10966000I-50000J0D01*
G01*
X12940000Y-10966000D02*
G75*
G02*
X13040000Y-10966000I50000J0D01*
G01*
X13040000Y-11220000D02*
G75*
G02*
X12940000Y-11220000I-50000J0D01*
G01*
X12940000Y-11220000D02*
G75*
G02*
X13040000Y-11220000I50000J0D01*
G01*
X13040000Y-11474000D02*
G75*
G02*
X12940000Y-11474000I-50000J0D01*
G01*
X12940000Y-11474000D02*
G75*
G02*
X13040000Y-11474000I50000J0D01*
G01*
X13040000Y-11969000D02*
G75*
G02*
X12940000Y-11969000I-50000J0D01*
G01*
X12940000Y-11969000D02*
G75*
G02*
X13040000Y-11969000I50000J0D01*
G01*
X13040000Y-12223000D02*
G75*
G02*
X12940000Y-12223000I-50000J0D01*
G01*
X12940000Y-12223000D02*
G75*
G02*
X13040000Y-12223000I50000J0D01*
G01*
X13040000Y-12477000D02*
G75*
G02*
X12940000Y-12477000I-50000J0D01*
G01*
X12940000Y-12477000D02*
G75*
G02*
X13040000Y-12477000I50000J0D01*
G01*
X13040000Y-12731000D02*
G75*
G02*
X12940000Y-12731000I-50000J0D01*
G01*
X12940000Y-12731000D02*
G75*
G02*
X13040000Y-12731000I50000J0D01*
G01*
X13294000Y-7169000D02*
G75*
G02*
X13194000Y-7169000I-50000J0D01*
G01*
X13194000Y-7169000D02*
G75*
G02*
X13294000Y-7169000I50000J0D01*
G01*
X13294000Y-7423000D02*
G75*
G02*
X13194000Y-7423000I-50000J0D01*
G01*
X13194000Y-7423000D02*
G75*
G02*
X13294000Y-7423000I50000J0D01*
G01*
X13294000Y-7677000D02*
G75*
G02*
X13194000Y-7677000I-50000J0D01*
G01*
X13194000Y-7677000D02*
G75*
G02*
X13294000Y-7677000I50000J0D01*
G01*
X13294000Y-7931000D02*
G75*
G02*
X13194000Y-7931000I-50000J0D01*
G01*
X13194000Y-7931000D02*
G75*
G02*
X13294000Y-7931000I50000J0D01*
G01*
X13294000Y-8426000D02*
G75*
G02*
X13194000Y-8426000I-50000J0D01*
G01*
X13194000Y-8426000D02*
G75*
G02*
X13294000Y-8426000I50000J0D01*
G01*
X13294000Y-8680000D02*
G75*
G02*
X13194000Y-8680000I-50000J0D01*
G01*
X13194000Y-8680000D02*
G75*
G02*
X13294000Y-8680000I50000J0D01*
G01*
X13294000Y-8934000D02*
G75*
G02*
X13194000Y-8934000I-50000J0D01*
G01*
X13194000Y-8934000D02*
G75*
G02*
X13294000Y-8934000I50000J0D01*
G01*
X13294000Y-9188000D02*
G75*
G02*
X13194000Y-9188000I-50000J0D01*
G01*
X13194000Y-9188000D02*
G75*
G02*
X13294000Y-9188000I50000J0D01*
G01*
X13294000Y-9442000D02*
G75*
G02*
X13194000Y-9442000I-50000J0D01*
G01*
X13194000Y-9442000D02*
G75*
G02*
X13294000Y-9442000I50000J0D01*
G01*
X13294000Y-9696000D02*
G75*
G02*
X13194000Y-9696000I-50000J0D01*
G01*
X13194000Y-9696000D02*
G75*
G02*
X13294000Y-9696000I50000J0D01*
G01*
X13294000Y-10204000D02*
G75*
G02*
X13194000Y-10204000I-50000J0D01*
G01*
X13194000Y-10204000D02*
G75*
G02*
X13294000Y-10204000I50000J0D01*
G01*
X13294000Y-10458000D02*
G75*
G02*
X13194000Y-10458000I-50000J0D01*
G01*
X13194000Y-10458000D02*
G75*
G02*
X13294000Y-10458000I50000J0D01*
G01*
X13294000Y-10712000D02*
G75*
G02*
X13194000Y-10712000I-50000J0D01*
G01*
X13194000Y-10712000D02*
G75*
G02*
X13294000Y-10712000I50000J0D01*
G01*
X13294000Y-10966000D02*
G75*
G02*
X13194000Y-10966000I-50000J0D01*
G01*
X13194000Y-10966000D02*
G75*
G02*
X13294000Y-10966000I50000J0D01*
G01*
X13294000Y-11220000D02*
G75*
G02*
X13194000Y-11220000I-50000J0D01*
G01*
X13194000Y-11220000D02*
G75*
G02*
X13294000Y-11220000I50000J0D01*
G01*
X13294000Y-11474000D02*
G75*
G02*
X13194000Y-11474000I-50000J0D01*
G01*
X13194000Y-11474000D02*
G75*
G02*
X13294000Y-11474000I50000J0D01*
G01*
X13294000Y-11969000D02*
G75*
G02*
X13194000Y-11969000I-50000J0D01*
G01*
X13194000Y-11969000D02*
G75*
G02*
X13294000Y-11969000I50000J0D01*
G01*
X13294000Y-12223000D02*
G75*
G02*
X13194000Y-12223000I-50000J0D01*
G01*
X13194000Y-12223000D02*
G75*
G02*
X13294000Y-12223000I50000J0D01*
G01*
X13294000Y-12477000D02*
G75*
G02*
X13194000Y-12477000I-50000J0D01*
G01*
X13194000Y-12477000D02*
G75*
G02*
X13294000Y-12477000I50000J0D01*
G01*
X13294000Y-12731000D02*
G75*
G02*
X13194000Y-12731000I-50000J0D01*
G01*
X13194000Y-12731000D02*
G75*
G02*
X13294000Y-12731000I50000J0D01*
G01*
X13548000Y-7169000D02*
G75*
G02*
X13448000Y-7169000I-50000J0D01*
G01*
X13448000Y-7169000D02*
G75*
G02*
X13548000Y-7169000I50000J0D01*
G01*
X13548000Y-7423000D02*
G75*
G02*
X13448000Y-7423000I-50000J0D01*
G01*
X13448000Y-7423000D02*
G75*
G02*
X13548000Y-7423000I50000J0D01*
G01*
X13548000Y-7677000D02*
G75*
G02*
X13448000Y-7677000I-50000J0D01*
G01*
X13448000Y-7677000D02*
G75*
G02*
X13548000Y-7677000I50000J0D01*
G01*
X13548000Y-7931000D02*
G75*
G02*
X13448000Y-7931000I-50000J0D01*
G01*
X13448000Y-7931000D02*
G75*
G02*
X13548000Y-7931000I50000J0D01*
G01*
X13548000Y-8426000D02*
G75*
G02*
X13448000Y-8426000I-50000J0D01*
G01*
X13448000Y-8426000D02*
G75*
G02*
X13548000Y-8426000I50000J0D01*
G01*
X13548000Y-8680000D02*
G75*
G02*
X13448000Y-8680000I-50000J0D01*
G01*
X13448000Y-8680000D02*
G75*
G02*
X13548000Y-8680000I50000J0D01*
G01*
X13548000Y-8934000D02*
G75*
G02*
X13448000Y-8934000I-50000J0D01*
G01*
X13448000Y-8934000D02*
G75*
G02*
X13548000Y-8934000I50000J0D01*
G01*
X13548000Y-9188000D02*
G75*
G02*
X13448000Y-9188000I-50000J0D01*
G01*
X13448000Y-9188000D02*
G75*
G02*
X13548000Y-9188000I50000J0D01*
G01*
X13548000Y-9442000D02*
G75*
G02*
X13448000Y-9442000I-50000J0D01*
G01*
X13448000Y-9442000D02*
G75*
G02*
X13548000Y-9442000I50000J0D01*
G01*
X13548000Y-9696000D02*
G75*
G02*
X13448000Y-9696000I-50000J0D01*
G01*
X13448000Y-9696000D02*
G75*
G02*
X13548000Y-9696000I50000J0D01*
G01*
X13548000Y-10204000D02*
G75*
G02*
X13448000Y-10204000I-50000J0D01*
G01*
X13448000Y-10204000D02*
G75*
G02*
X13548000Y-10204000I50000J0D01*
G01*
X13548000Y-10458000D02*
G75*
G02*
X13448000Y-10458000I-50000J0D01*
G01*
X13448000Y-10458000D02*
G75*
G02*
X13548000Y-10458000I50000J0D01*
G01*
X13548000Y-10712000D02*
G75*
G02*
X13448000Y-10712000I-50000J0D01*
G01*
X13448000Y-10712000D02*
G75*
G02*
X13548000Y-10712000I50000J0D01*
G01*
X13548000Y-10966000D02*
G75*
G02*
X13448000Y-10966000I-50000J0D01*
G01*
X13448000Y-10966000D02*
G75*
G02*
X13548000Y-10966000I50000J0D01*
G01*
X13548000Y-11220000D02*
G75*
G02*
X13448000Y-11220000I-50000J0D01*
G01*
X13448000Y-11220000D02*
G75*
G02*
X13548000Y-11220000I50000J0D01*
G01*
X13548000Y-11474000D02*
G75*
G02*
X13448000Y-11474000I-50000J0D01*
G01*
X13448000Y-11474000D02*
G75*
G02*
X13548000Y-11474000I50000J0D01*
G01*
X13548000Y-11969000D02*
G75*
G02*
X13448000Y-11969000I-50000J0D01*
G01*
X13448000Y-11969000D02*
G75*
G02*
X13548000Y-11969000I50000J0D01*
G01*
X13548000Y-12223000D02*
G75*
G02*
X13448000Y-12223000I-50000J0D01*
G01*
X13448000Y-12223000D02*
G75*
G02*
X13548000Y-12223000I50000J0D01*
G01*
X13548000Y-12477000D02*
G75*
G02*
X13448000Y-12477000I-50000J0D01*
G01*
X13448000Y-12477000D02*
G75*
G02*
X13548000Y-12477000I50000J0D01*
G01*
X13548000Y-12731000D02*
G75*
G02*
X13448000Y-12731000I-50000J0D01*
G01*
X13448000Y-12731000D02*
G75*
G02*
X13548000Y-12731000I50000J0D01*
G01*
X13802000Y-7169000D02*
G75*
G02*
X13702000Y-7169000I-50000J0D01*
G01*
X13702000Y-7169000D02*
G75*
G02*
X13802000Y-7169000I50000J0D01*
G01*
X13802000Y-7423000D02*
G75*
G02*
X13702000Y-7423000I-50000J0D01*
G01*
X13702000Y-7423000D02*
G75*
G02*
X13802000Y-7423000I50000J0D01*
G01*
X13802000Y-7677000D02*
G75*
G02*
X13702000Y-7677000I-50000J0D01*
G01*
X13702000Y-7677000D02*
G75*
G02*
X13802000Y-7677000I50000J0D01*
G01*
X13802000Y-7931000D02*
G75*
G02*
X13702000Y-7931000I-50000J0D01*
G01*
X13702000Y-7931000D02*
G75*
G02*
X13802000Y-7931000I50000J0D01*
G01*
X13802000Y-8426000D02*
G75*
G02*
X13702000Y-8426000I-50000J0D01*
G01*
X13702000Y-8426000D02*
G75*
G02*
X13802000Y-8426000I50000J0D01*
G01*
X13802000Y-8680000D02*
G75*
G02*
X13702000Y-8680000I-50000J0D01*
G01*
X13702000Y-8680000D02*
G75*
G02*
X13802000Y-8680000I50000J0D01*
G01*
X13802000Y-8934000D02*
G75*
G02*
X13702000Y-8934000I-50000J0D01*
G01*
X13702000Y-8934000D02*
G75*
G02*
X13802000Y-8934000I50000J0D01*
G01*
X13802000Y-9188000D02*
G75*
G02*
X13702000Y-9188000I-50000J0D01*
G01*
X13702000Y-9188000D02*
G75*
G02*
X13802000Y-9188000I50000J0D01*
G01*
X13802000Y-9442000D02*
G75*
G02*
X13702000Y-9442000I-50000J0D01*
G01*
X13702000Y-9442000D02*
G75*
G02*
X13802000Y-9442000I50000J0D01*
G01*
X13802000Y-9696000D02*
G75*
G02*
X13702000Y-9696000I-50000J0D01*
G01*
X13702000Y-9696000D02*
G75*
G02*
X13802000Y-9696000I50000J0D01*
G01*
X13802000Y-10204000D02*
G75*
G02*
X13702000Y-10204000I-50000J0D01*
G01*
X13702000Y-10204000D02*
G75*
G02*
X13802000Y-10204000I50000J0D01*
G01*
X13802000Y-10458000D02*
G75*
G02*
X13702000Y-10458000I-50000J0D01*
G01*
X13702000Y-10458000D02*
G75*
G02*
X13802000Y-10458000I50000J0D01*
G01*
X13802000Y-10712000D02*
G75*
G02*
X13702000Y-10712000I-50000J0D01*
G01*
X13702000Y-10712000D02*
G75*
G02*
X13802000Y-10712000I50000J0D01*
G01*
X13802000Y-10966000D02*
G75*
G02*
X13702000Y-10966000I-50000J0D01*
G01*
X13702000Y-10966000D02*
G75*
G02*
X13802000Y-10966000I50000J0D01*
G01*
X13802000Y-11220000D02*
G75*
G02*
X13702000Y-11220000I-50000J0D01*
G01*
X13702000Y-11220000D02*
G75*
G02*
X13802000Y-11220000I50000J0D01*
G01*
X13802000Y-11474000D02*
G75*
G02*
X13702000Y-11474000I-50000J0D01*
G01*
X13702000Y-11474000D02*
G75*
G02*
X13802000Y-11474000I50000J0D01*
G01*
X13802000Y-11969000D02*
G75*
G02*
X13702000Y-11969000I-50000J0D01*
G01*
X13702000Y-11969000D02*
G75*
G02*
X13802000Y-11969000I50000J0D01*
G01*
X13802000Y-12223000D02*
G75*
G02*
X13702000Y-12223000I-50000J0D01*
G01*
X13702000Y-12223000D02*
G75*
G02*
X13802000Y-12223000I50000J0D01*
G01*
X13802000Y-12477000D02*
G75*
G02*
X13702000Y-12477000I-50000J0D01*
G01*
X13702000Y-12477000D02*
G75*
G02*
X13802000Y-12477000I50000J0D01*
G01*
X13802000Y-12731000D02*
G75*
G02*
X13702000Y-12731000I-50000J0D01*
G01*
X13702000Y-12731000D02*
G75*
G02*
X13802000Y-12731000I50000J0D01*
G01*
X14056000Y-7169000D02*
G75*
G02*
X13956000Y-7169000I-50000J0D01*
G01*
X13956000Y-7169000D02*
G75*
G02*
X14056000Y-7169000I50000J0D01*
G01*
X14056000Y-7423000D02*
G75*
G02*
X13956000Y-7423000I-50000J0D01*
G01*
X13956000Y-7423000D02*
G75*
G02*
X14056000Y-7423000I50000J0D01*
G01*
X14056000Y-7677000D02*
G75*
G02*
X13956000Y-7677000I-50000J0D01*
G01*
X13956000Y-7677000D02*
G75*
G02*
X14056000Y-7677000I50000J0D01*
G01*
X14056000Y-7931000D02*
G75*
G02*
X13956000Y-7931000I-50000J0D01*
G01*
X13956000Y-7931000D02*
G75*
G02*
X14056000Y-7931000I50000J0D01*
G01*
X14056000Y-8426000D02*
G75*
G02*
X13956000Y-8426000I-50000J0D01*
G01*
X13956000Y-8426000D02*
G75*
G02*
X14056000Y-8426000I50000J0D01*
G01*
X14056000Y-8680000D02*
G75*
G02*
X13956000Y-8680000I-50000J0D01*
G01*
X13956000Y-8680000D02*
G75*
G02*
X14056000Y-8680000I50000J0D01*
G01*
X14056000Y-8934000D02*
G75*
G02*
X13956000Y-8934000I-50000J0D01*
G01*
X13956000Y-8934000D02*
G75*
G02*
X14056000Y-8934000I50000J0D01*
G01*
X14056000Y-9188000D02*
G75*
G02*
X13956000Y-9188000I-50000J0D01*
G01*
X13956000Y-9188000D02*
G75*
G02*
X14056000Y-9188000I50000J0D01*
G01*
X14056000Y-9442000D02*
G75*
G02*
X13956000Y-9442000I-50000J0D01*
G01*
X13956000Y-9442000D02*
G75*
G02*
X14056000Y-9442000I50000J0D01*
G01*
X14056000Y-9696000D02*
G75*
G02*
X13956000Y-9696000I-50000J0D01*
G01*
X13956000Y-9696000D02*
G75*
G02*
X14056000Y-9696000I50000J0D01*
G01*
X14056000Y-10204000D02*
G75*
G02*
X13956000Y-10204000I-50000J0D01*
G01*
X13956000Y-10204000D02*
G75*
G02*
X14056000Y-10204000I50000J0D01*
G01*
X14056000Y-10458000D02*
G75*
G02*
X13956000Y-10458000I-50000J0D01*
G01*
X13956000Y-10458000D02*
G75*
G02*
X14056000Y-10458000I50000J0D01*
G01*
X14056000Y-10712000D02*
G75*
G02*
X13956000Y-10712000I-50000J0D01*
G01*
X13956000Y-10712000D02*
G75*
G02*
X14056000Y-10712000I50000J0D01*
G01*
X14056000Y-10966000D02*
G75*
G02*
X13956000Y-10966000I-50000J0D01*
G01*
X13956000Y-10966000D02*
G75*
G02*
X14056000Y-10966000I50000J0D01*
G01*
X14056000Y-11220000D02*
G75*
G02*
X13956000Y-11220000I-50000J0D01*
G01*
X13956000Y-11220000D02*
G75*
G02*
X14056000Y-11220000I50000J0D01*
G01*
X14056000Y-11474000D02*
G75*
G02*
X13956000Y-11474000I-50000J0D01*
G01*
X13956000Y-11474000D02*
G75*
G02*
X14056000Y-11474000I50000J0D01*
G01*
X14056000Y-11969000D02*
G75*
G02*
X13956000Y-11969000I-50000J0D01*
G01*
X13956000Y-11969000D02*
G75*
G02*
X14056000Y-11969000I50000J0D01*
G01*
X14056000Y-12223000D02*
G75*
G02*
X13956000Y-12223000I-50000J0D01*
G01*
X13956000Y-12223000D02*
G75*
G02*
X14056000Y-12223000I50000J0D01*
G01*
X14056000Y-12477000D02*
G75*
G02*
X13956000Y-12477000I-50000J0D01*
G01*
X13956000Y-12477000D02*
G75*
G02*
X14056000Y-12477000I50000J0D01*
G01*
X14056000Y-12731000D02*
G75*
G02*
X13956000Y-12731000I-50000J0D01*
G01*
X13956000Y-12731000D02*
G75*
G02*
X14056000Y-12731000I50000J0D01*
G01*
X14310000Y-7169000D02*
G75*
G02*
X14210000Y-7169000I-50000J0D01*
G01*
X14210000Y-7169000D02*
G75*
G02*
X14310000Y-7169000I50000J0D01*
G01*
X14310000Y-7423000D02*
G75*
G02*
X14210000Y-7423000I-50000J0D01*
G01*
X14210000Y-7423000D02*
G75*
G02*
X14310000Y-7423000I50000J0D01*
G01*
X14310000Y-7677000D02*
G75*
G02*
X14210000Y-7677000I-50000J0D01*
G01*
X14210000Y-7677000D02*
G75*
G02*
X14310000Y-7677000I50000J0D01*
G01*
X14310000Y-7931000D02*
G75*
G02*
X14210000Y-7931000I-50000J0D01*
G01*
X14210000Y-7931000D02*
G75*
G02*
X14310000Y-7931000I50000J0D01*
G01*
X14310000Y-8426000D02*
G75*
G02*
X14210000Y-8426000I-50000J0D01*
G01*
X14210000Y-8426000D02*
G75*
G02*
X14310000Y-8426000I50000J0D01*
G01*
X14310000Y-8680000D02*
G75*
G02*
X14210000Y-8680000I-50000J0D01*
G01*
X14210000Y-8680000D02*
G75*
G02*
X14310000Y-8680000I50000J0D01*
G01*
X14310000Y-8934000D02*
G75*
G02*
X14210000Y-8934000I-50000J0D01*
G01*
X14210000Y-8934000D02*
G75*
G02*
X14310000Y-8934000I50000J0D01*
G01*
X14310000Y-9188000D02*
G75*
G02*
X14210000Y-9188000I-50000J0D01*
G01*
X14210000Y-9188000D02*
G75*
G02*
X14310000Y-9188000I50000J0D01*
G01*
X14310000Y-9442000D02*
G75*
G02*
X14210000Y-9442000I-50000J0D01*
G01*
X14210000Y-9442000D02*
G75*
G02*
X14310000Y-9442000I50000J0D01*
G01*
X14310000Y-9696000D02*
G75*
G02*
X14210000Y-9696000I-50000J0D01*
G01*
X14210000Y-9696000D02*
G75*
G02*
X14310000Y-9696000I50000J0D01*
G01*
X14310000Y-10204000D02*
G75*
G02*
X14210000Y-10204000I-50000J0D01*
G01*
X14210000Y-10204000D02*
G75*
G02*
X14310000Y-10204000I50000J0D01*
G01*
X14310000Y-10458000D02*
G75*
G02*
X14210000Y-10458000I-50000J0D01*
G01*
X14210000Y-10458000D02*
G75*
G02*
X14310000Y-10458000I50000J0D01*
G01*
X14310000Y-10712000D02*
G75*
G02*
X14210000Y-10712000I-50000J0D01*
G01*
X14210000Y-10712000D02*
G75*
G02*
X14310000Y-10712000I50000J0D01*
G01*
X14310000Y-10966000D02*
G75*
G02*
X14210000Y-10966000I-50000J0D01*
G01*
X14210000Y-10966000D02*
G75*
G02*
X14310000Y-10966000I50000J0D01*
G01*
X14310000Y-11220000D02*
G75*
G02*
X14210000Y-11220000I-50000J0D01*
G01*
X14210000Y-11220000D02*
G75*
G02*
X14310000Y-11220000I50000J0D01*
G01*
X14310000Y-11474000D02*
G75*
G02*
X14210000Y-11474000I-50000J0D01*
G01*
X14210000Y-11474000D02*
G75*
G02*
X14310000Y-11474000I50000J0D01*
G01*
X14310000Y-11969000D02*
G75*
G02*
X14210000Y-11969000I-50000J0D01*
G01*
X14210000Y-11969000D02*
G75*
G02*
X14310000Y-11969000I50000J0D01*
G01*
X14310000Y-12223000D02*
G75*
G02*
X14210000Y-12223000I-50000J0D01*
G01*
X14210000Y-12223000D02*
G75*
G02*
X14310000Y-12223000I50000J0D01*
G01*
X14310000Y-12477000D02*
G75*
G02*
X14210000Y-12477000I-50000J0D01*
G01*
X14210000Y-12477000D02*
G75*
G02*
X14310000Y-12477000I50000J0D01*
G01*
X14310000Y-12731000D02*
G75*
G02*
X14210000Y-12731000I-50000J0D01*
G01*
X14210000Y-12731000D02*
G75*
G02*
X14310000Y-12731000I50000J0D01*
G01*
X14564000Y-7169000D02*
G75*
G02*
X14464000Y-7169000I-50000J0D01*
G01*
X14464000Y-7169000D02*
G75*
G02*
X14564000Y-7169000I50000J0D01*
G01*
X14564000Y-7423000D02*
G75*
G02*
X14464000Y-7423000I-50000J0D01*
G01*
X14464000Y-7423000D02*
G75*
G02*
X14564000Y-7423000I50000J0D01*
G01*
X14564000Y-7677000D02*
G75*
G02*
X14464000Y-7677000I-50000J0D01*
G01*
X14464000Y-7677000D02*
G75*
G02*
X14564000Y-7677000I50000J0D01*
G01*
X14564000Y-7931000D02*
G75*
G02*
X14464000Y-7931000I-50000J0D01*
G01*
X14464000Y-7931000D02*
G75*
G02*
X14564000Y-7931000I50000J0D01*
G01*
X14564000Y-8426000D02*
G75*
G02*
X14464000Y-8426000I-50000J0D01*
G01*
X14464000Y-8426000D02*
G75*
G02*
X14564000Y-8426000I50000J0D01*
G01*
X14564000Y-8680000D02*
G75*
G02*
X14464000Y-8680000I-50000J0D01*
G01*
X14464000Y-8680000D02*
G75*
G02*
X14564000Y-8680000I50000J0D01*
G01*
X14564000Y-8934000D02*
G75*
G02*
X14464000Y-8934000I-50000J0D01*
G01*
X14464000Y-8934000D02*
G75*
G02*
X14564000Y-8934000I50000J0D01*
G01*
X14564000Y-9188000D02*
G75*
G02*
X14464000Y-9188000I-50000J0D01*
G01*
X14464000Y-9188000D02*
G75*
G02*
X14564000Y-9188000I50000J0D01*
G01*
X14564000Y-9442000D02*
G75*
G02*
X14464000Y-9442000I-50000J0D01*
G01*
X14464000Y-9442000D02*
G75*
G02*
X14564000Y-9442000I50000J0D01*
G01*
X14564000Y-9696000D02*
G75*
G02*
X14464000Y-9696000I-50000J0D01*
G01*
X14464000Y-9696000D02*
G75*
G02*
X14564000Y-9696000I50000J0D01*
G01*
X14564000Y-10204000D02*
G75*
G02*
X14464000Y-10204000I-50000J0D01*
G01*
X14464000Y-10204000D02*
G75*
G02*
X14564000Y-10204000I50000J0D01*
G01*
X14564000Y-10458000D02*
G75*
G02*
X14464000Y-10458000I-50000J0D01*
G01*
X14464000Y-10458000D02*
G75*
G02*
X14564000Y-10458000I50000J0D01*
G01*
X14564000Y-10712000D02*
G75*
G02*
X14464000Y-10712000I-50000J0D01*
G01*
X14464000Y-10712000D02*
G75*
G02*
X14564000Y-10712000I50000J0D01*
G01*
X14564000Y-10966000D02*
G75*
G02*
X14464000Y-10966000I-50000J0D01*
G01*
X14464000Y-10966000D02*
G75*
G02*
X14564000Y-10966000I50000J0D01*
G01*
X14564000Y-11220000D02*
G75*
G02*
X14464000Y-11220000I-50000J0D01*
G01*
X14464000Y-11220000D02*
G75*
G02*
X14564000Y-11220000I50000J0D01*
G01*
X14564000Y-11474000D02*
G75*
G02*
X14464000Y-11474000I-50000J0D01*
G01*
X14464000Y-11474000D02*
G75*
G02*
X14564000Y-11474000I50000J0D01*
G01*
X14564000Y-11969000D02*
G75*
G02*
X14464000Y-11969000I-50000J0D01*
G01*
X14464000Y-11969000D02*
G75*
G02*
X14564000Y-11969000I50000J0D01*
G01*
X14564000Y-12223000D02*
G75*
G02*
X14464000Y-12223000I-50000J0D01*
G01*
X14464000Y-12223000D02*
G75*
G02*
X14564000Y-12223000I50000J0D01*
G01*
X14564000Y-12477000D02*
G75*
G02*
X14464000Y-12477000I-50000J0D01*
G01*
X14464000Y-12477000D02*
G75*
G02*
X14564000Y-12477000I50000J0D01*
G01*
X14564000Y-12731000D02*
G75*
G02*
X14464000Y-12731000I-50000J0D01*
G01*
X14464000Y-12731000D02*
G75*
G02*
X14564000Y-12731000I50000J0D01*
G01*
X14818000Y-7169000D02*
G75*
G02*
X14718000Y-7169000I-50000J0D01*
G01*
X14718000Y-7169000D02*
G75*
G02*
X14818000Y-7169000I50000J0D01*
G01*
X14818000Y-7423000D02*
G75*
G02*
X14718000Y-7423000I-50000J0D01*
G01*
X14718000Y-7423000D02*
G75*
G02*
X14818000Y-7423000I50000J0D01*
G01*
X14818000Y-7677000D02*
G75*
G02*
X14718000Y-7677000I-50000J0D01*
G01*
X14718000Y-7677000D02*
G75*
G02*
X14818000Y-7677000I50000J0D01*
G01*
X14818000Y-7931000D02*
G75*
G02*
X14718000Y-7931000I-50000J0D01*
G01*
X14718000Y-7931000D02*
G75*
G02*
X14818000Y-7931000I50000J0D01*
G01*
X14818000Y-8426000D02*
G75*
G02*
X14718000Y-8426000I-50000J0D01*
G01*
X14718000Y-8426000D02*
G75*
G02*
X14818000Y-8426000I50000J0D01*
G01*
X14818000Y-8680000D02*
G75*
G02*
X14718000Y-8680000I-50000J0D01*
G01*
X14718000Y-8680000D02*
G75*
G02*
X14818000Y-8680000I50000J0D01*
G01*
X14818000Y-8934000D02*
G75*
G02*
X14718000Y-8934000I-50000J0D01*
G01*
X14718000Y-8934000D02*
G75*
G02*
X14818000Y-8934000I50000J0D01*
G01*
X14818000Y-9188000D02*
G75*
G02*
X14718000Y-9188000I-50000J0D01*
G01*
X14718000Y-9188000D02*
G75*
G02*
X14818000Y-9188000I50000J0D01*
G01*
X14818000Y-9442000D02*
G75*
G02*
X14718000Y-9442000I-50000J0D01*
G01*
X14718000Y-9442000D02*
G75*
G02*
X14818000Y-9442000I50000J0D01*
G01*
X14818000Y-9696000D02*
G75*
G02*
X14718000Y-9696000I-50000J0D01*
G01*
X14718000Y-9696000D02*
G75*
G02*
X14818000Y-9696000I50000J0D01*
G01*
X14818000Y-10204000D02*
G75*
G02*
X14718000Y-10204000I-50000J0D01*
G01*
X14718000Y-10204000D02*
G75*
G02*
X14818000Y-10204000I50000J0D01*
G01*
X14818000Y-10458000D02*
G75*
G02*
X14718000Y-10458000I-50000J0D01*
G01*
X14718000Y-10458000D02*
G75*
G02*
X14818000Y-10458000I50000J0D01*
G01*
X14818000Y-10712000D02*
G75*
G02*
X14718000Y-10712000I-50000J0D01*
G01*
X14718000Y-10712000D02*
G75*
G02*
X14818000Y-10712000I50000J0D01*
G01*
X14818000Y-10966000D02*
G75*
G02*
X14718000Y-10966000I-50000J0D01*
G01*
X14718000Y-10966000D02*
G75*
G02*
X14818000Y-10966000I50000J0D01*
G01*
X14818000Y-11220000D02*
G75*
G02*
X14718000Y-11220000I-50000J0D01*
G01*
X14718000Y-11220000D02*
G75*
G02*
X14818000Y-11220000I50000J0D01*
G01*
X14818000Y-11474000D02*
G75*
G02*
X14718000Y-11474000I-50000J0D01*
G01*
X14718000Y-11474000D02*
G75*
G02*
X14818000Y-11474000I50000J0D01*
G01*
X14818000Y-11969000D02*
G75*
G02*
X14718000Y-11969000I-50000J0D01*
G01*
X14718000Y-11969000D02*
G75*
G02*
X14818000Y-11969000I50000J0D01*
G01*
X14818000Y-12223000D02*
G75*
G02*
X14718000Y-12223000I-50000J0D01*
G01*
X14718000Y-12223000D02*
G75*
G02*
X14818000Y-12223000I50000J0D01*
G01*
X14818000Y-12477000D02*
G75*
G02*
X14718000Y-12477000I-50000J0D01*
G01*
X14718000Y-12477000D02*
G75*
G02*
X14818000Y-12477000I50000J0D01*
G01*
X14818000Y-12731000D02*
G75*
G02*
X14718000Y-12731000I-50000J0D01*
G01*
X14718000Y-12731000D02*
G75*
G02*
X14818000Y-12731000I50000J0D01*
G01*
X15072000Y-7169000D02*
G75*
G02*
X14972000Y-7169000I-50000J0D01*
G01*
X14972000Y-7169000D02*
G75*
G02*
X15072000Y-7169000I50000J0D01*
G01*
X15072000Y-7423000D02*
G75*
G02*
X14972000Y-7423000I-50000J0D01*
G01*
X14972000Y-7423000D02*
G75*
G02*
X15072000Y-7423000I50000J0D01*
G01*
X15072000Y-7677000D02*
G75*
G02*
X14972000Y-7677000I-50000J0D01*
G01*
X14972000Y-7677000D02*
G75*
G02*
X15072000Y-7677000I50000J0D01*
G01*
X15072000Y-7931000D02*
G75*
G02*
X14972000Y-7931000I-50000J0D01*
G01*
X14972000Y-7931000D02*
G75*
G02*
X15072000Y-7931000I50000J0D01*
G01*
X15072000Y-8426000D02*
G75*
G02*
X14972000Y-8426000I-50000J0D01*
G01*
X14972000Y-8426000D02*
G75*
G02*
X15072000Y-8426000I50000J0D01*
G01*
X15072000Y-8680000D02*
G75*
G02*
X14972000Y-8680000I-50000J0D01*
G01*
X14972000Y-8680000D02*
G75*
G02*
X15072000Y-8680000I50000J0D01*
G01*
X15072000Y-8934000D02*
G75*
G02*
X14972000Y-8934000I-50000J0D01*
G01*
X14972000Y-8934000D02*
G75*
G02*
X15072000Y-8934000I50000J0D01*
G01*
X15072000Y-9188000D02*
G75*
G02*
X14972000Y-9188000I-50000J0D01*
G01*
X14972000Y-9188000D02*
G75*
G02*
X15072000Y-9188000I50000J0D01*
G01*
X15072000Y-9442000D02*
G75*
G02*
X14972000Y-9442000I-50000J0D01*
G01*
X14972000Y-9442000D02*
G75*
G02*
X15072000Y-9442000I50000J0D01*
G01*
X15072000Y-9696000D02*
G75*
G02*
X14972000Y-9696000I-50000J0D01*
G01*
X14972000Y-9696000D02*
G75*
G02*
X15072000Y-9696000I50000J0D01*
G01*
X15072000Y-10204000D02*
G75*
G02*
X14972000Y-10204000I-50000J0D01*
G01*
X14972000Y-10204000D02*
G75*
G02*
X15072000Y-10204000I50000J0D01*
G01*
X15072000Y-10458000D02*
G75*
G02*
X14972000Y-10458000I-50000J0D01*
G01*
X14972000Y-10458000D02*
G75*
G02*
X15072000Y-10458000I50000J0D01*
G01*
X15072000Y-10712000D02*
G75*
G02*
X14972000Y-10712000I-50000J0D01*
G01*
X14972000Y-10712000D02*
G75*
G02*
X15072000Y-10712000I50000J0D01*
G01*
X15072000Y-10966000D02*
G75*
G02*
X14972000Y-10966000I-50000J0D01*
G01*
X14972000Y-10966000D02*
G75*
G02*
X15072000Y-10966000I50000J0D01*
G01*
X15072000Y-11220000D02*
G75*
G02*
X14972000Y-11220000I-50000J0D01*
G01*
X14972000Y-11220000D02*
G75*
G02*
X15072000Y-11220000I50000J0D01*
G01*
X15072000Y-11474000D02*
G75*
G02*
X14972000Y-11474000I-50000J0D01*
G01*
X14972000Y-11474000D02*
G75*
G02*
X15072000Y-11474000I50000J0D01*
G01*
X15072000Y-11969000D02*
G75*
G02*
X14972000Y-11969000I-50000J0D01*
G01*
X14972000Y-11969000D02*
G75*
G02*
X15072000Y-11969000I50000J0D01*
G01*
X15072000Y-12223000D02*
G75*
G02*
X14972000Y-12223000I-50000J0D01*
G01*
X14972000Y-12223000D02*
G75*
G02*
X15072000Y-12223000I50000J0D01*
G01*
X15072000Y-12477000D02*
G75*
G02*
X14972000Y-12477000I-50000J0D01*
G01*
X14972000Y-12477000D02*
G75*
G02*
X15072000Y-12477000I50000J0D01*
G01*
X15072000Y-12731000D02*
G75*
G02*
X14972000Y-12731000I-50000J0D01*
G01*
X14972000Y-12731000D02*
G75*
G02*
X15072000Y-12731000I50000J0D01*
G01*
X15326000Y-7169000D02*
G75*
G02*
X15226000Y-7169000I-50000J0D01*
G01*
X15226000Y-7169000D02*
G75*
G02*
X15326000Y-7169000I50000J0D01*
G01*
X15326000Y-7423000D02*
G75*
G02*
X15226000Y-7423000I-50000J0D01*
G01*
X15226000Y-7423000D02*
G75*
G02*
X15326000Y-7423000I50000J0D01*
G01*
X15326000Y-7677000D02*
G75*
G02*
X15226000Y-7677000I-50000J0D01*
G01*
X15226000Y-7677000D02*
G75*
G02*
X15326000Y-7677000I50000J0D01*
G01*
X15326000Y-7931000D02*
G75*
G02*
X15226000Y-7931000I-50000J0D01*
G01*
X15226000Y-7931000D02*
G75*
G02*
X15326000Y-7931000I50000J0D01*
G01*
X15326000Y-8426000D02*
G75*
G02*
X15226000Y-8426000I-50000J0D01*
G01*
X15226000Y-8426000D02*
G75*
G02*
X15326000Y-8426000I50000J0D01*
G01*
X15326000Y-8680000D02*
G75*
G02*
X15226000Y-8680000I-50000J0D01*
G01*
X15226000Y-8680000D02*
G75*
G02*
X15326000Y-8680000I50000J0D01*
G01*
X15326000Y-8934000D02*
G75*
G02*
X15226000Y-8934000I-50000J0D01*
G01*
X15226000Y-8934000D02*
G75*
G02*
X15326000Y-8934000I50000J0D01*
G01*
X15326000Y-9188000D02*
G75*
G02*
X15226000Y-9188000I-50000J0D01*
G01*
X15226000Y-9188000D02*
G75*
G02*
X15326000Y-9188000I50000J0D01*
G01*
X15326000Y-9442000D02*
G75*
G02*
X15226000Y-9442000I-50000J0D01*
G01*
X15226000Y-9442000D02*
G75*
G02*
X15326000Y-9442000I50000J0D01*
G01*
X15326000Y-9696000D02*
G75*
G02*
X15226000Y-9696000I-50000J0D01*
G01*
X15226000Y-9696000D02*
G75*
G02*
X15326000Y-9696000I50000J0D01*
G01*
X15326000Y-10204000D02*
G75*
G02*
X15226000Y-10204000I-50000J0D01*
G01*
X15226000Y-10204000D02*
G75*
G02*
X15326000Y-10204000I50000J0D01*
G01*
X15326000Y-10458000D02*
G75*
G02*
X15226000Y-10458000I-50000J0D01*
G01*
X15226000Y-10458000D02*
G75*
G02*
X15326000Y-10458000I50000J0D01*
G01*
X15326000Y-10712000D02*
G75*
G02*
X15226000Y-10712000I-50000J0D01*
G01*
X15226000Y-10712000D02*
G75*
G02*
X15326000Y-10712000I50000J0D01*
G01*
X15326000Y-10966000D02*
G75*
G02*
X15226000Y-10966000I-50000J0D01*
G01*
X15226000Y-10966000D02*
G75*
G02*
X15326000Y-10966000I50000J0D01*
G01*
X15326000Y-11220000D02*
G75*
G02*
X15226000Y-11220000I-50000J0D01*
G01*
X15226000Y-11220000D02*
G75*
G02*
X15326000Y-11220000I50000J0D01*
G01*
X15326000Y-11474000D02*
G75*
G02*
X15226000Y-11474000I-50000J0D01*
G01*
X15226000Y-11474000D02*
G75*
G02*
X15326000Y-11474000I50000J0D01*
G01*
X15326000Y-11969000D02*
G75*
G02*
X15226000Y-11969000I-50000J0D01*
G01*
X15226000Y-11969000D02*
G75*
G02*
X15326000Y-11969000I50000J0D01*
G01*
X15326000Y-12223000D02*
G75*
G02*
X15226000Y-12223000I-50000J0D01*
G01*
X15226000Y-12223000D02*
G75*
G02*
X15326000Y-12223000I50000J0D01*
G01*
X15326000Y-12477000D02*
G75*
G02*
X15226000Y-12477000I-50000J0D01*
G01*
X15226000Y-12477000D02*
G75*
G02*
X15326000Y-12477000I50000J0D01*
G01*
X15326000Y-12731000D02*
G75*
G02*
X15226000Y-12731000I-50000J0D01*
G01*
X15226000Y-12731000D02*
G75*
G02*
X15326000Y-12731000I50000J0D01*
G01*
X15580000Y-7169000D02*
G75*
G02*
X15480000Y-7169000I-50000J0D01*
G01*
X15480000Y-7169000D02*
G75*
G02*
X15580000Y-7169000I50000J0D01*
G01*
X15580000Y-7423000D02*
G75*
G02*
X15480000Y-7423000I-50000J0D01*
G01*
X15480000Y-7423000D02*
G75*
G02*
X15580000Y-7423000I50000J0D01*
G01*
X15580000Y-7677000D02*
G75*
G02*
X15480000Y-7677000I-50000J0D01*
G01*
X15480000Y-7677000D02*
G75*
G02*
X15580000Y-7677000I50000J0D01*
G01*
X15580000Y-7931000D02*
G75*
G02*
X15480000Y-7931000I-50000J0D01*
G01*
X15480000Y-7931000D02*
G75*
G02*
X15580000Y-7931000I50000J0D01*
G01*
X15580000Y-8426000D02*
G75*
G02*
X15480000Y-8426000I-50000J0D01*
G01*
X15480000Y-8426000D02*
G75*
G02*
X15580000Y-8426000I50000J0D01*
G01*
X15580000Y-8680000D02*
G75*
G02*
X15480000Y-8680000I-50000J0D01*
G01*
X15480000Y-8680000D02*
G75*
G02*
X15580000Y-8680000I50000J0D01*
G01*
X15580000Y-8934000D02*
G75*
G02*
X15480000Y-8934000I-50000J0D01*
G01*
X15480000Y-8934000D02*
G75*
G02*
X15580000Y-8934000I50000J0D01*
G01*
X15580000Y-9188000D02*
G75*
G02*
X15480000Y-9188000I-50000J0D01*
G01*
X15480000Y-9188000D02*
G75*
G02*
X15580000Y-9188000I50000J0D01*
G01*
X15580000Y-9442000D02*
G75*
G02*
X15480000Y-9442000I-50000J0D01*
G01*
X15480000Y-9442000D02*
G75*
G02*
X15580000Y-9442000I50000J0D01*
G01*
X15580000Y-9696000D02*
G75*
G02*
X15480000Y-9696000I-50000J0D01*
G01*
X15480000Y-9696000D02*
G75*
G02*
X15580000Y-9696000I50000J0D01*
G01*
X15580000Y-10204000D02*
G75*
G02*
X15480000Y-10204000I-50000J0D01*
G01*
X15480000Y-10204000D02*
G75*
G02*
X15580000Y-10204000I50000J0D01*
G01*
X15580000Y-10458000D02*
G75*
G02*
X15480000Y-10458000I-50000J0D01*
G01*
X15480000Y-10458000D02*
G75*
G02*
X15580000Y-10458000I50000J0D01*
G01*
X15580000Y-10712000D02*
G75*
G02*
X15480000Y-10712000I-50000J0D01*
G01*
X15480000Y-10712000D02*
G75*
G02*
X15580000Y-10712000I50000J0D01*
G01*
X15580000Y-10966000D02*
G75*
G02*
X15480000Y-10966000I-50000J0D01*
G01*
X15480000Y-10966000D02*
G75*
G02*
X15580000Y-10966000I50000J0D01*
G01*
X15580000Y-11220000D02*
G75*
G02*
X15480000Y-11220000I-50000J0D01*
G01*
X15480000Y-11220000D02*
G75*
G02*
X15580000Y-11220000I50000J0D01*
G01*
X15580000Y-11474000D02*
G75*
G02*
X15480000Y-11474000I-50000J0D01*
G01*
X15480000Y-11474000D02*
G75*
G02*
X15580000Y-11474000I50000J0D01*
G01*
X15580000Y-11969000D02*
G75*
G02*
X15480000Y-11969000I-50000J0D01*
G01*
X15480000Y-11969000D02*
G75*
G02*
X15580000Y-11969000I50000J0D01*
G01*
X15580000Y-12223000D02*
G75*
G02*
X15480000Y-12223000I-50000J0D01*
G01*
X15480000Y-12223000D02*
G75*
G02*
X15580000Y-12223000I50000J0D01*
G01*
X15580000Y-12477000D02*
G75*
G02*
X15480000Y-12477000I-50000J0D01*
G01*
X15480000Y-12477000D02*
G75*
G02*
X15580000Y-12477000I50000J0D01*
G01*
X15580000Y-12731000D02*
G75*
G02*
X15480000Y-12731000I-50000J0D01*
G01*
X15480000Y-12731000D02*
G75*
G02*
X15580000Y-12731000I50000J0D01*
G01*
X15834000Y-7169000D02*
G75*
G02*
X15734000Y-7169000I-50000J0D01*
G01*
X15734000Y-7169000D02*
G75*
G02*
X15834000Y-7169000I50000J0D01*
G01*
X15834000Y-7423000D02*
G75*
G02*
X15734000Y-7423000I-50000J0D01*
G01*
X15734000Y-7423000D02*
G75*
G02*
X15834000Y-7423000I50000J0D01*
G01*
X15834000Y-7677000D02*
G75*
G02*
X15734000Y-7677000I-50000J0D01*
G01*
X15734000Y-7677000D02*
G75*
G02*
X15834000Y-7677000I50000J0D01*
G01*
X15834000Y-7931000D02*
G75*
G02*
X15734000Y-7931000I-50000J0D01*
G01*
X15734000Y-7931000D02*
G75*
G02*
X15834000Y-7931000I50000J0D01*
G01*
X15834000Y-8426000D02*
G75*
G02*
X15734000Y-8426000I-50000J0D01*
G01*
X15734000Y-8426000D02*
G75*
G02*
X15834000Y-8426000I50000J0D01*
G01*
X15834000Y-8680000D02*
G75*
G02*
X15734000Y-8680000I-50000J0D01*
G01*
X15734000Y-8680000D02*
G75*
G02*
X15834000Y-8680000I50000J0D01*
G01*
X15834000Y-8934000D02*
G75*
G02*
X15734000Y-8934000I-50000J0D01*
G01*
X15734000Y-8934000D02*
G75*
G02*
X15834000Y-8934000I50000J0D01*
G01*
X15834000Y-9188000D02*
G75*
G02*
X15734000Y-9188000I-50000J0D01*
G01*
X15734000Y-9188000D02*
G75*
G02*
X15834000Y-9188000I50000J0D01*
G01*
X15834000Y-9442000D02*
G75*
G02*
X15734000Y-9442000I-50000J0D01*
G01*
X15734000Y-9442000D02*
G75*
G02*
X15834000Y-9442000I50000J0D01*
G01*
X15834000Y-9696000D02*
G75*
G02*
X15734000Y-9696000I-50000J0D01*
G01*
X15734000Y-9696000D02*
G75*
G02*
X15834000Y-9696000I50000J0D01*
G01*
X15834000Y-10204000D02*
G75*
G02*
X15734000Y-10204000I-50000J0D01*
G01*
X15734000Y-10204000D02*
G75*
G02*
X15834000Y-10204000I50000J0D01*
G01*
X15834000Y-10458000D02*
G75*
G02*
X15734000Y-10458000I-50000J0D01*
G01*
X15734000Y-10458000D02*
G75*
G02*
X15834000Y-10458000I50000J0D01*
G01*
X15834000Y-10712000D02*
G75*
G02*
X15734000Y-10712000I-50000J0D01*
G01*
X15734000Y-10712000D02*
G75*
G02*
X15834000Y-10712000I50000J0D01*
G01*
X15834000Y-10966000D02*
G75*
G02*
X15734000Y-10966000I-50000J0D01*
G01*
X15734000Y-10966000D02*
G75*
G02*
X15834000Y-10966000I50000J0D01*
G01*
X15834000Y-11220000D02*
G75*
G02*
X15734000Y-11220000I-50000J0D01*
G01*
X15734000Y-11220000D02*
G75*
G02*
X15834000Y-11220000I50000J0D01*
G01*
X15834000Y-11474000D02*
G75*
G02*
X15734000Y-11474000I-50000J0D01*
G01*
X15734000Y-11474000D02*
G75*
G02*
X15834000Y-11474000I50000J0D01*
G01*
X15834000Y-11969000D02*
G75*
G02*
X15734000Y-11969000I-50000J0D01*
G01*
X15734000Y-11969000D02*
G75*
G02*
X15834000Y-11969000I50000J0D01*
G01*
X15834000Y-12223000D02*
G75*
G02*
X15734000Y-12223000I-50000J0D01*
G01*
X15734000Y-12223000D02*
G75*
G02*
X15834000Y-12223000I50000J0D01*
G01*
X15834000Y-12477000D02*
G75*
G02*
X15734000Y-12477000I-50000J0D01*
G01*
X15734000Y-12477000D02*
G75*
G02*
X15834000Y-12477000I50000J0D01*
G01*
X15834000Y-12731000D02*
G75*
G02*
X15734000Y-12731000I-50000J0D01*
G01*
X15734000Y-12731000D02*
G75*
G02*
X15834000Y-12731000I50000J0D01*
G01*
X16088000Y-7169000D02*
G75*
G02*
X15988000Y-7169000I-50000J0D01*
G01*
X15988000Y-7169000D02*
G75*
G02*
X16088000Y-7169000I50000J0D01*
G01*
X16088000Y-7423000D02*
G75*
G02*
X15988000Y-7423000I-50000J0D01*
G01*
X15988000Y-7423000D02*
G75*
G02*
X16088000Y-7423000I50000J0D01*
G01*
X16088000Y-7677000D02*
G75*
G02*
X15988000Y-7677000I-50000J0D01*
G01*
X15988000Y-7677000D02*
G75*
G02*
X16088000Y-7677000I50000J0D01*
G01*
X16088000Y-7931000D02*
G75*
G02*
X15988000Y-7931000I-50000J0D01*
G01*
X15988000Y-7931000D02*
G75*
G02*
X16088000Y-7931000I50000J0D01*
G01*
X16088000Y-8426000D02*
G75*
G02*
X15988000Y-8426000I-50000J0D01*
G01*
X15988000Y-8426000D02*
G75*
G02*
X16088000Y-8426000I50000J0D01*
G01*
X16088000Y-8680000D02*
G75*
G02*
X15988000Y-8680000I-50000J0D01*
G01*
X15988000Y-8680000D02*
G75*
G02*
X16088000Y-8680000I50000J0D01*
G01*
X16088000Y-8934000D02*
G75*
G02*
X15988000Y-8934000I-50000J0D01*
G01*
X15988000Y-8934000D02*
G75*
G02*
X16088000Y-8934000I50000J0D01*
G01*
X16088000Y-9188000D02*
G75*
G02*
X15988000Y-9188000I-50000J0D01*
G01*
X15988000Y-9188000D02*
G75*
G02*
X16088000Y-9188000I50000J0D01*
G01*
X16088000Y-9442000D02*
G75*
G02*
X15988000Y-9442000I-50000J0D01*
G01*
X15988000Y-9442000D02*
G75*
G02*
X16088000Y-9442000I50000J0D01*
G01*
X16088000Y-9696000D02*
G75*
G02*
X15988000Y-9696000I-50000J0D01*
G01*
X15988000Y-9696000D02*
G75*
G02*
X16088000Y-9696000I50000J0D01*
G01*
X16088000Y-10204000D02*
G75*
G02*
X15988000Y-10204000I-50000J0D01*
G01*
X15988000Y-10204000D02*
G75*
G02*
X16088000Y-10204000I50000J0D01*
G01*
X16088000Y-10458000D02*
G75*
G02*
X15988000Y-10458000I-50000J0D01*
G01*
X15988000Y-10458000D02*
G75*
G02*
X16088000Y-10458000I50000J0D01*
G01*
X16088000Y-10712000D02*
G75*
G02*
X15988000Y-10712000I-50000J0D01*
G01*
X15988000Y-10712000D02*
G75*
G02*
X16088000Y-10712000I50000J0D01*
G01*
X16088000Y-10966000D02*
G75*
G02*
X15988000Y-10966000I-50000J0D01*
G01*
X15988000Y-10966000D02*
G75*
G02*
X16088000Y-10966000I50000J0D01*
G01*
X16088000Y-11220000D02*
G75*
G02*
X15988000Y-11220000I-50000J0D01*
G01*
X15988000Y-11220000D02*
G75*
G02*
X16088000Y-11220000I50000J0D01*
G01*
X16088000Y-11474000D02*
G75*
G02*
X15988000Y-11474000I-50000J0D01*
G01*
X15988000Y-11474000D02*
G75*
G02*
X16088000Y-11474000I50000J0D01*
G01*
X16088000Y-11969000D02*
G75*
G02*
X15988000Y-11969000I-50000J0D01*
G01*
X15988000Y-11969000D02*
G75*
G02*
X16088000Y-11969000I50000J0D01*
G01*
X16088000Y-12223000D02*
G75*
G02*
X15988000Y-12223000I-50000J0D01*
G01*
X15988000Y-12223000D02*
G75*
G02*
X16088000Y-12223000I50000J0D01*
G01*
X16088000Y-12477000D02*
G75*
G02*
X15988000Y-12477000I-50000J0D01*
G01*
X15988000Y-12477000D02*
G75*
G02*
X16088000Y-12477000I50000J0D01*
G01*
X16088000Y-12731000D02*
G75*
G02*
X15988000Y-12731000I-50000J0D01*
G01*
X15988000Y-12731000D02*
G75*
G02*
X16088000Y-12731000I50000J0D01*
G01*
X16342000Y-7169000D02*
G75*
G02*
X16242000Y-7169000I-50000J0D01*
G01*
X16242000Y-7169000D02*
G75*
G02*
X16342000Y-7169000I50000J0D01*
G01*
X16342000Y-7423000D02*
G75*
G02*
X16242000Y-7423000I-50000J0D01*
G01*
X16242000Y-7423000D02*
G75*
G02*
X16342000Y-7423000I50000J0D01*
G01*
X16342000Y-7677000D02*
G75*
G02*
X16242000Y-7677000I-50000J0D01*
G01*
X16242000Y-7677000D02*
G75*
G02*
X16342000Y-7677000I50000J0D01*
G01*
X16342000Y-7931000D02*
G75*
G02*
X16242000Y-7931000I-50000J0D01*
G01*
X16242000Y-7931000D02*
G75*
G02*
X16342000Y-7931000I50000J0D01*
G01*
X16342000Y-8426000D02*
G75*
G02*
X16242000Y-8426000I-50000J0D01*
G01*
X16242000Y-8426000D02*
G75*
G02*
X16342000Y-8426000I50000J0D01*
G01*
X16342000Y-8680000D02*
G75*
G02*
X16242000Y-8680000I-50000J0D01*
G01*
X16242000Y-8680000D02*
G75*
G02*
X16342000Y-8680000I50000J0D01*
G01*
X16342000Y-8934000D02*
G75*
G02*
X16242000Y-8934000I-50000J0D01*
G01*
X16242000Y-8934000D02*
G75*
G02*
X16342000Y-8934000I50000J0D01*
G01*
X16342000Y-9188000D02*
G75*
G02*
X16242000Y-9188000I-50000J0D01*
G01*
X16242000Y-9188000D02*
G75*
G02*
X16342000Y-9188000I50000J0D01*
G01*
X16342000Y-9442000D02*
G75*
G02*
X16242000Y-9442000I-50000J0D01*
G01*
X16242000Y-9442000D02*
G75*
G02*
X16342000Y-9442000I50000J0D01*
G01*
X16342000Y-9696000D02*
G75*
G02*
X16242000Y-9696000I-50000J0D01*
G01*
X16242000Y-9696000D02*
G75*
G02*
X16342000Y-9696000I50000J0D01*
G01*
X16342000Y-10204000D02*
G75*
G02*
X16242000Y-10204000I-50000J0D01*
G01*
X16242000Y-10204000D02*
G75*
G02*
X16342000Y-10204000I50000J0D01*
G01*
X16342000Y-10458000D02*
G75*
G02*
X16242000Y-10458000I-50000J0D01*
G01*
X16242000Y-10458000D02*
G75*
G02*
X16342000Y-10458000I50000J0D01*
G01*
X16342000Y-10712000D02*
G75*
G02*
X16242000Y-10712000I-50000J0D01*
G01*
X16242000Y-10712000D02*
G75*
G02*
X16342000Y-10712000I50000J0D01*
G01*
X16342000Y-10966000D02*
G75*
G02*
X16242000Y-10966000I-50000J0D01*
G01*
X16242000Y-10966000D02*
G75*
G02*
X16342000Y-10966000I50000J0D01*
G01*
X16342000Y-11220000D02*
G75*
G02*
X16242000Y-11220000I-50000J0D01*
G01*
X16242000Y-11220000D02*
G75*
G02*
X16342000Y-11220000I50000J0D01*
G01*
X16342000Y-11474000D02*
G75*
G02*
X16242000Y-11474000I-50000J0D01*
G01*
X16242000Y-11474000D02*
G75*
G02*
X16342000Y-11474000I50000J0D01*
G01*
X16342000Y-11969000D02*
G75*
G02*
X16242000Y-11969000I-50000J0D01*
G01*
X16242000Y-11969000D02*
G75*
G02*
X16342000Y-11969000I50000J0D01*
G01*
X16342000Y-12223000D02*
G75*
G02*
X16242000Y-12223000I-50000J0D01*
G01*
X16242000Y-12223000D02*
G75*
G02*
X16342000Y-12223000I50000J0D01*
G01*
X16342000Y-12477000D02*
G75*
G02*
X16242000Y-12477000I-50000J0D01*
G01*
X16242000Y-12477000D02*
G75*
G02*
X16342000Y-12477000I50000J0D01*
G01*
X16342000Y-12731000D02*
G75*
G02*
X16242000Y-12731000I-50000J0D01*
G01*
X16242000Y-12731000D02*
G75*
G02*
X16342000Y-12731000I50000J0D01*
G01*
X16596000Y-7169000D02*
G75*
G02*
X16496000Y-7169000I-50000J0D01*
G01*
X16496000Y-7169000D02*
G75*
G02*
X16596000Y-7169000I50000J0D01*
G01*
X16596000Y-7423000D02*
G75*
G02*
X16496000Y-7423000I-50000J0D01*
G01*
X16496000Y-7423000D02*
G75*
G02*
X16596000Y-7423000I50000J0D01*
G01*
X16596000Y-7677000D02*
G75*
G02*
X16496000Y-7677000I-50000J0D01*
G01*
X16496000Y-7677000D02*
G75*
G02*
X16596000Y-7677000I50000J0D01*
G01*
X16596000Y-7931000D02*
G75*
G02*
X16496000Y-7931000I-50000J0D01*
G01*
X16496000Y-7931000D02*
G75*
G02*
X16596000Y-7931000I50000J0D01*
G01*
X16596000Y-8426000D02*
G75*
G02*
X16496000Y-8426000I-50000J0D01*
G01*
X16496000Y-8426000D02*
G75*
G02*
X16596000Y-8426000I50000J0D01*
G01*
X16596000Y-8680000D02*
G75*
G02*
X16496000Y-8680000I-50000J0D01*
G01*
X16496000Y-8680000D02*
G75*
G02*
X16596000Y-8680000I50000J0D01*
G01*
X16596000Y-8934000D02*
G75*
G02*
X16496000Y-8934000I-50000J0D01*
G01*
X16496000Y-8934000D02*
G75*
G02*
X16596000Y-8934000I50000J0D01*
G01*
X16596000Y-9188000D02*
G75*
G02*
X16496000Y-9188000I-50000J0D01*
G01*
X16496000Y-9188000D02*
G75*
G02*
X16596000Y-9188000I50000J0D01*
G01*
X16596000Y-9442000D02*
G75*
G02*
X16496000Y-9442000I-50000J0D01*
G01*
X16496000Y-9442000D02*
G75*
G02*
X16596000Y-9442000I50000J0D01*
G01*
X16596000Y-9696000D02*
G75*
G02*
X16496000Y-9696000I-50000J0D01*
G01*
X16496000Y-9696000D02*
G75*
G02*
X16596000Y-9696000I50000J0D01*
G01*
X16596000Y-10204000D02*
G75*
G02*
X16496000Y-10204000I-50000J0D01*
G01*
X16496000Y-10204000D02*
G75*
G02*
X16596000Y-10204000I50000J0D01*
G01*
X16596000Y-10458000D02*
G75*
G02*
X16496000Y-10458000I-50000J0D01*
G01*
X16496000Y-10458000D02*
G75*
G02*
X16596000Y-10458000I50000J0D01*
G01*
X16596000Y-10712000D02*
G75*
G02*
X16496000Y-10712000I-50000J0D01*
G01*
X16496000Y-10712000D02*
G75*
G02*
X16596000Y-10712000I50000J0D01*
G01*
X16596000Y-10966000D02*
G75*
G02*
X16496000Y-10966000I-50000J0D01*
G01*
X16496000Y-10966000D02*
G75*
G02*
X16596000Y-10966000I50000J0D01*
G01*
X16596000Y-11220000D02*
G75*
G02*
X16496000Y-11220000I-50000J0D01*
G01*
X16496000Y-11220000D02*
G75*
G02*
X16596000Y-11220000I50000J0D01*
G01*
X16596000Y-11474000D02*
G75*
G02*
X16496000Y-11474000I-50000J0D01*
G01*
X16496000Y-11474000D02*
G75*
G02*
X16596000Y-11474000I50000J0D01*
G01*
X16596000Y-11969000D02*
G75*
G02*
X16496000Y-11969000I-50000J0D01*
G01*
X16496000Y-11969000D02*
G75*
G02*
X16596000Y-11969000I50000J0D01*
G01*
X16596000Y-12223000D02*
G75*
G02*
X16496000Y-12223000I-50000J0D01*
G01*
X16496000Y-12223000D02*
G75*
G02*
X16596000Y-12223000I50000J0D01*
G01*
X16596000Y-12477000D02*
G75*
G02*
X16496000Y-12477000I-50000J0D01*
G01*
X16496000Y-12477000D02*
G75*
G02*
X16596000Y-12477000I50000J0D01*
G01*
X16596000Y-12731000D02*
G75*
G02*
X16496000Y-12731000I-50000J0D01*
G01*
X16496000Y-12731000D02*
G75*
G02*
X16596000Y-12731000I50000J0D01*
G01*
X16850000Y-7169000D02*
G75*
G02*
X16750000Y-7169000I-50000J0D01*
G01*
X16750000Y-7169000D02*
G75*
G02*
X16850000Y-7169000I50000J0D01*
G01*
X16850000Y-7423000D02*
G75*
G02*
X16750000Y-7423000I-50000J0D01*
G01*
X16750000Y-7423000D02*
G75*
G02*
X16850000Y-7423000I50000J0D01*
G01*
X16850000Y-7677000D02*
G75*
G02*
X16750000Y-7677000I-50000J0D01*
G01*
X16750000Y-7677000D02*
G75*
G02*
X16850000Y-7677000I50000J0D01*
G01*
X16850000Y-7931000D02*
G75*
G02*
X16750000Y-7931000I-50000J0D01*
G01*
X16750000Y-7931000D02*
G75*
G02*
X16850000Y-7931000I50000J0D01*
G01*
X16850000Y-8426000D02*
G75*
G02*
X16750000Y-8426000I-50000J0D01*
G01*
X16750000Y-8426000D02*
G75*
G02*
X16850000Y-8426000I50000J0D01*
G01*
X16850000Y-8680000D02*
G75*
G02*
X16750000Y-8680000I-50000J0D01*
G01*
X16750000Y-8680000D02*
G75*
G02*
X16850000Y-8680000I50000J0D01*
G01*
X16850000Y-8934000D02*
G75*
G02*
X16750000Y-8934000I-50000J0D01*
G01*
X16750000Y-8934000D02*
G75*
G02*
X16850000Y-8934000I50000J0D01*
G01*
X16850000Y-9188000D02*
G75*
G02*
X16750000Y-9188000I-50000J0D01*
G01*
X16750000Y-9188000D02*
G75*
G02*
X16850000Y-9188000I50000J0D01*
G01*
X16850000Y-9442000D02*
G75*
G02*
X16750000Y-9442000I-50000J0D01*
G01*
X16750000Y-9442000D02*
G75*
G02*
X16850000Y-9442000I50000J0D01*
G01*
X16850000Y-9696000D02*
G75*
G02*
X16750000Y-9696000I-50000J0D01*
G01*
X16750000Y-9696000D02*
G75*
G02*
X16850000Y-9696000I50000J0D01*
G01*
X16850000Y-10204000D02*
G75*
G02*
X16750000Y-10204000I-50000J0D01*
G01*
X16750000Y-10204000D02*
G75*
G02*
X16850000Y-10204000I50000J0D01*
G01*
X16850000Y-10458000D02*
G75*
G02*
X16750000Y-10458000I-50000J0D01*
G01*
X16750000Y-10458000D02*
G75*
G02*
X16850000Y-10458000I50000J0D01*
G01*
X16850000Y-10712000D02*
G75*
G02*
X16750000Y-10712000I-50000J0D01*
G01*
X16750000Y-10712000D02*
G75*
G02*
X16850000Y-10712000I50000J0D01*
G01*
X16850000Y-10966000D02*
G75*
G02*
X16750000Y-10966000I-50000J0D01*
G01*
X16750000Y-10966000D02*
G75*
G02*
X16850000Y-10966000I50000J0D01*
G01*
X16850000Y-11220000D02*
G75*
G02*
X16750000Y-11220000I-50000J0D01*
G01*
X16750000Y-11220000D02*
G75*
G02*
X16850000Y-11220000I50000J0D01*
G01*
X16850000Y-11474000D02*
G75*
G02*
X16750000Y-11474000I-50000J0D01*
G01*
X16750000Y-11474000D02*
G75*
G02*
X16850000Y-11474000I50000J0D01*
G01*
X16850000Y-11969000D02*
G75*
G02*
X16750000Y-11969000I-50000J0D01*
G01*
X16750000Y-11969000D02*
G75*
G02*
X16850000Y-11969000I50000J0D01*
G01*
X16850000Y-12223000D02*
G75*
G02*
X16750000Y-12223000I-50000J0D01*
G01*
X16750000Y-12223000D02*
G75*
G02*
X16850000Y-12223000I50000J0D01*
G01*
X16850000Y-12477000D02*
G75*
G02*
X16750000Y-12477000I-50000J0D01*
G01*
X16750000Y-12477000D02*
G75*
G02*
X16850000Y-12477000I50000J0D01*
G01*
X16850000Y-12731000D02*
G75*
G02*
X16750000Y-12731000I-50000J0D01*
G01*
X16750000Y-12731000D02*
G75*
G02*
X16850000Y-12731000I50000J0D01*
G01*
X17104000Y-7169000D02*
G75*
G02*
X17004000Y-7169000I-50000J0D01*
G01*
X17004000Y-7169000D02*
G75*
G02*
X17104000Y-7169000I50000J0D01*
G01*
X17104000Y-7423000D02*
G75*
G02*
X17004000Y-7423000I-50000J0D01*
G01*
X17004000Y-7423000D02*
G75*
G02*
X17104000Y-7423000I50000J0D01*
G01*
X17104000Y-7677000D02*
G75*
G02*
X17004000Y-7677000I-50000J0D01*
G01*
X17004000Y-7677000D02*
G75*
G02*
X17104000Y-7677000I50000J0D01*
G01*
X17104000Y-7931000D02*
G75*
G02*
X17004000Y-7931000I-50000J0D01*
G01*
X17004000Y-7931000D02*
G75*
G02*
X17104000Y-7931000I50000J0D01*
G01*
X17104000Y-8426000D02*
G75*
G02*
X17004000Y-8426000I-50000J0D01*
G01*
X17004000Y-8426000D02*
G75*
G02*
X17104000Y-8426000I50000J0D01*
G01*
X17104000Y-8680000D02*
G75*
G02*
X17004000Y-8680000I-50000J0D01*
G01*
X17004000Y-8680000D02*
G75*
G02*
X17104000Y-8680000I50000J0D01*
G01*
X17104000Y-8934000D02*
G75*
G02*
X17004000Y-8934000I-50000J0D01*
G01*
X17004000Y-8934000D02*
G75*
G02*
X17104000Y-8934000I50000J0D01*
G01*
X17104000Y-9188000D02*
G75*
G02*
X17004000Y-9188000I-50000J0D01*
G01*
X17004000Y-9188000D02*
G75*
G02*
X17104000Y-9188000I50000J0D01*
G01*
X17104000Y-9442000D02*
G75*
G02*
X17004000Y-9442000I-50000J0D01*
G01*
X17004000Y-9442000D02*
G75*
G02*
X17104000Y-9442000I50000J0D01*
G01*
X17104000Y-9696000D02*
G75*
G02*
X17004000Y-9696000I-50000J0D01*
G01*
X17004000Y-9696000D02*
G75*
G02*
X17104000Y-9696000I50000J0D01*
G01*
X17104000Y-10204000D02*
G75*
G02*
X17004000Y-10204000I-50000J0D01*
G01*
X17004000Y-10204000D02*
G75*
G02*
X17104000Y-10204000I50000J0D01*
G01*
X17104000Y-10458000D02*
G75*
G02*
X17004000Y-10458000I-50000J0D01*
G01*
X17004000Y-10458000D02*
G75*
G02*
X17104000Y-10458000I50000J0D01*
G01*
X17104000Y-10712000D02*
G75*
G02*
X17004000Y-10712000I-50000J0D01*
G01*
X17004000Y-10712000D02*
G75*
G02*
X17104000Y-10712000I50000J0D01*
G01*
X17104000Y-10966000D02*
G75*
G02*
X17004000Y-10966000I-50000J0D01*
G01*
X17004000Y-10966000D02*
G75*
G02*
X17104000Y-10966000I50000J0D01*
G01*
X17104000Y-11220000D02*
G75*
G02*
X17004000Y-11220000I-50000J0D01*
G01*
X17004000Y-11220000D02*
G75*
G02*
X17104000Y-11220000I50000J0D01*
G01*
X17104000Y-11474000D02*
G75*
G02*
X17004000Y-11474000I-50000J0D01*
G01*
X17004000Y-11474000D02*
G75*
G02*
X17104000Y-11474000I50000J0D01*
G01*
X17104000Y-11969000D02*
G75*
G02*
X17004000Y-11969000I-50000J0D01*
G01*
X17004000Y-11969000D02*
G75*
G02*
X17104000Y-11969000I50000J0D01*
G01*
X17104000Y-12223000D02*
G75*
G02*
X17004000Y-12223000I-50000J0D01*
G01*
X17004000Y-12223000D02*
G75*
G02*
X17104000Y-12223000I50000J0D01*
G01*
X17104000Y-12477000D02*
G75*
G02*
X17004000Y-12477000I-50000J0D01*
G01*
X17004000Y-12477000D02*
G75*
G02*
X17104000Y-12477000I50000J0D01*
G01*
X17104000Y-12731000D02*
G75*
G02*
X17004000Y-12731000I-50000J0D01*
G01*
X17004000Y-12731000D02*
G75*
G02*
X17104000Y-12731000I50000J0D01*
G01*
X17358000Y-7169000D02*
G75*
G02*
X17258000Y-7169000I-50000J0D01*
G01*
X17258000Y-7169000D02*
G75*
G02*
X17358000Y-7169000I50000J0D01*
G01*
X17358000Y-7423000D02*
G75*
G02*
X17258000Y-7423000I-50000J0D01*
G01*
X17258000Y-7423000D02*
G75*
G02*
X17358000Y-7423000I50000J0D01*
G01*
X17358000Y-7677000D02*
G75*
G02*
X17258000Y-7677000I-50000J0D01*
G01*
X17258000Y-7677000D02*
G75*
G02*
X17358000Y-7677000I50000J0D01*
G01*
X17358000Y-7931000D02*
G75*
G02*
X17258000Y-7931000I-50000J0D01*
G01*
X17258000Y-7931000D02*
G75*
G02*
X17358000Y-7931000I50000J0D01*
G01*
X17358000Y-8426000D02*
G75*
G02*
X17258000Y-8426000I-50000J0D01*
G01*
X17258000Y-8426000D02*
G75*
G02*
X17358000Y-8426000I50000J0D01*
G01*
X17358000Y-8680000D02*
G75*
G02*
X17258000Y-8680000I-50000J0D01*
G01*
X17258000Y-8680000D02*
G75*
G02*
X17358000Y-8680000I50000J0D01*
G01*
X17358000Y-8934000D02*
G75*
G02*
X17258000Y-8934000I-50000J0D01*
G01*
X17258000Y-8934000D02*
G75*
G02*
X17358000Y-8934000I50000J0D01*
G01*
X17358000Y-9188000D02*
G75*
G02*
X17258000Y-9188000I-50000J0D01*
G01*
X17258000Y-9188000D02*
G75*
G02*
X17358000Y-9188000I50000J0D01*
G01*
X17358000Y-9442000D02*
G75*
G02*
X17258000Y-9442000I-50000J0D01*
G01*
X17258000Y-9442000D02*
G75*
G02*
X17358000Y-9442000I50000J0D01*
G01*
X17358000Y-9696000D02*
G75*
G02*
X17258000Y-9696000I-50000J0D01*
G01*
X17258000Y-9696000D02*
G75*
G02*
X17358000Y-9696000I50000J0D01*
G01*
X17358000Y-10204000D02*
G75*
G02*
X17258000Y-10204000I-50000J0D01*
G01*
X17258000Y-10204000D02*
G75*
G02*
X17358000Y-10204000I50000J0D01*
G01*
X17358000Y-10458000D02*
G75*
G02*
X17258000Y-10458000I-50000J0D01*
G01*
X17258000Y-10458000D02*
G75*
G02*
X17358000Y-10458000I50000J0D01*
G01*
X17358000Y-10712000D02*
G75*
G02*
X17258000Y-10712000I-50000J0D01*
G01*
X17258000Y-10712000D02*
G75*
G02*
X17358000Y-10712000I50000J0D01*
G01*
X17358000Y-10966000D02*
G75*
G02*
X17258000Y-10966000I-50000J0D01*
G01*
X17258000Y-10966000D02*
G75*
G02*
X17358000Y-10966000I50000J0D01*
G01*
X17358000Y-11220000D02*
G75*
G02*
X17258000Y-11220000I-50000J0D01*
G01*
X17258000Y-11220000D02*
G75*
G02*
X17358000Y-11220000I50000J0D01*
G01*
X17358000Y-11474000D02*
G75*
G02*
X17258000Y-11474000I-50000J0D01*
G01*
X17258000Y-11474000D02*
G75*
G02*
X17358000Y-11474000I50000J0D01*
G01*
X17358000Y-11969000D02*
G75*
G02*
X17258000Y-11969000I-50000J0D01*
G01*
X17258000Y-11969000D02*
G75*
G02*
X17358000Y-11969000I50000J0D01*
G01*
X17358000Y-12223000D02*
G75*
G02*
X17258000Y-12223000I-50000J0D01*
G01*
X17258000Y-12223000D02*
G75*
G02*
X17358000Y-12223000I50000J0D01*
G01*
X17358000Y-12477000D02*
G75*
G02*
X17258000Y-12477000I-50000J0D01*
G01*
X17258000Y-12477000D02*
G75*
G02*
X17358000Y-12477000I50000J0D01*
G01*
X17358000Y-12731000D02*
G75*
G02*
X17258000Y-12731000I-50000J0D01*
G01*
X17258000Y-12731000D02*
G75*
G02*
X17358000Y-12731000I50000J0D01*
G01*
D11*
X11323277Y-13378984D02*
X11323277Y-13178984D01*
X11323277Y-13178984D02*
X11370896Y-13178984D01*
X11370896Y-13178984D02*
X11399467Y-13188508D01*
X11399467Y-13188508D02*
X11418515Y-13207555D01*
X11418515Y-13207555D02*
X11428039Y-13226603D01*
X11428039Y-13226603D02*
X11437562Y-13264698D01*
X11437562Y-13264698D02*
X11437562Y-13293269D01*
X11437562Y-13293269D02*
X11428039Y-13331365D01*
X11428039Y-13331365D02*
X11418515Y-13350412D01*
X11418515Y-13350412D02*
X11399467Y-13369460D01*
X11399467Y-13369460D02*
X11370896Y-13378984D01*
X11370896Y-13378984D02*
X11323277Y-13378984D01*
X11523277Y-13378984D02*
X11523277Y-13245650D01*
X11523277Y-13283746D02*
X11532801Y-13264698D01*
X11532801Y-13264698D02*
X11542324Y-13255174D01*
X11542324Y-13255174D02*
X11561372Y-13245650D01*
X11561372Y-13245650D02*
X11580420Y-13245650D01*
X11647086Y-13378984D02*
X11647086Y-13245650D01*
X11647086Y-13178984D02*
X11637562Y-13188508D01*
X11637562Y-13188508D02*
X11647086Y-13198031D01*
X11647086Y-13198031D02*
X11656610Y-13188508D01*
X11656610Y-13188508D02*
X11647086Y-13178984D01*
X11647086Y-13178984D02*
X11647086Y-13198031D01*
X11770896Y-13378984D02*
X11751848Y-13369460D01*
X11751848Y-13369460D02*
X11742324Y-13350412D01*
X11742324Y-13350412D02*
X11742324Y-13178984D01*
X11875658Y-13378984D02*
X11856610Y-13369460D01*
X11856610Y-13369460D02*
X11847086Y-13350412D01*
X11847086Y-13350412D02*
X11847086Y-13178984D01*
X12104229Y-13378984D02*
X12104229Y-13178984D01*
X12104229Y-13178984D02*
X12170896Y-13321841D01*
X12170896Y-13321841D02*
X12237562Y-13178984D01*
X12237562Y-13178984D02*
X12237562Y-13378984D01*
X12418515Y-13378984D02*
X12418515Y-13274222D01*
X12418515Y-13274222D02*
X12408991Y-13255174D01*
X12408991Y-13255174D02*
X12389943Y-13245650D01*
X12389943Y-13245650D02*
X12351848Y-13245650D01*
X12351848Y-13245650D02*
X12332801Y-13255174D01*
X12418515Y-13369460D02*
X12399467Y-13378984D01*
X12399467Y-13378984D02*
X12351848Y-13378984D01*
X12351848Y-13378984D02*
X12332801Y-13369460D01*
X12332801Y-13369460D02*
X12323277Y-13350412D01*
X12323277Y-13350412D02*
X12323277Y-13331365D01*
X12323277Y-13331365D02*
X12332801Y-13312317D01*
X12332801Y-13312317D02*
X12351848Y-13302793D01*
X12351848Y-13302793D02*
X12399467Y-13302793D01*
X12399467Y-13302793D02*
X12418515Y-13293269D01*
X12513753Y-13245650D02*
X12513753Y-13445650D01*
X12513753Y-13255174D02*
X12532801Y-13245650D01*
X12532801Y-13245650D02*
X12570896Y-13245650D01*
X12570896Y-13245650D02*
X12589943Y-13255174D01*
X12589943Y-13255174D02*
X12599467Y-13264698D01*
X12599467Y-13264698D02*
X12608991Y-13283746D01*
X12608991Y-13283746D02*
X12608991Y-13340888D01*
X12608991Y-13340888D02*
X12599467Y-13359936D01*
X12599467Y-13359936D02*
X12589943Y-13369460D01*
X12589943Y-13369460D02*
X12570896Y-13378984D01*
X12570896Y-13378984D02*
X12532801Y-13378984D01*
X12532801Y-13378984D02*
X12513753Y-13369460D01*
X12694705Y-13359936D02*
X12704229Y-13369460D01*
X12704229Y-13369460D02*
X12694705Y-13378984D01*
X12694705Y-13378984D02*
X12685182Y-13369460D01*
X12685182Y-13369460D02*
X12694705Y-13359936D01*
X12694705Y-13359936D02*
X12694705Y-13378984D01*
X12694705Y-13255174D02*
X12704229Y-13264698D01*
X12704229Y-13264698D02*
X12694705Y-13274222D01*
X12694705Y-13274222D02*
X12685182Y-13264698D01*
X12685182Y-13264698D02*
X12694705Y-13255174D01*
X12694705Y-13255174D02*
X12694705Y-13274222D01*
D12*
X10992500Y-13672500D02*
X11062500Y-13742500D01*
X11062500Y-13672500D02*
X10992500Y-13742500D01*
D11*
X11361372Y-13598984D02*
X11380420Y-13598984D01*
X11380420Y-13598984D02*
X11399467Y-13608508D01*
X11399467Y-13608508D02*
X11408991Y-13618031D01*
X11408991Y-13618031D02*
X11418515Y-13637079D01*
X11418515Y-13637079D02*
X11428039Y-13675174D01*
X11428039Y-13675174D02*
X11428039Y-13722793D01*
X11428039Y-13722793D02*
X11418515Y-13760888D01*
X11418515Y-13760888D02*
X11408991Y-13779936D01*
X11408991Y-13779936D02*
X11399467Y-13789460D01*
X11399467Y-13789460D02*
X11380420Y-13798984D01*
X11380420Y-13798984D02*
X11361372Y-13798984D01*
X11361372Y-13798984D02*
X11342324Y-13789460D01*
X11342324Y-13789460D02*
X11332801Y-13779936D01*
X11332801Y-13779936D02*
X11323277Y-13760888D01*
X11323277Y-13760888D02*
X11313753Y-13722793D01*
X11313753Y-13722793D02*
X11313753Y-13675174D01*
X11313753Y-13675174D02*
X11323277Y-13637079D01*
X11323277Y-13637079D02*
X11332801Y-13618031D01*
X11332801Y-13618031D02*
X11342324Y-13608508D01*
X11342324Y-13608508D02*
X11361372Y-13598984D01*
X11513753Y-13779936D02*
X11523277Y-13789460D01*
X11523277Y-13789460D02*
X11513753Y-13798984D01*
X11513753Y-13798984D02*
X11504229Y-13789460D01*
X11504229Y-13789460D02*
X11513753Y-13779936D01*
X11513753Y-13779936D02*
X11513753Y-13798984D01*
X11589943Y-13598984D02*
X11723277Y-13598984D01*
X11723277Y-13598984D02*
X11637562Y-13798984D01*
X11837562Y-13598984D02*
X11856610Y-13598984D01*
X11856610Y-13598984D02*
X11875658Y-13608508D01*
X11875658Y-13608508D02*
X11885182Y-13618031D01*
X11885182Y-13618031D02*
X11894705Y-13637079D01*
X11894705Y-13637079D02*
X11904229Y-13675174D01*
X11904229Y-13675174D02*
X11904229Y-13722793D01*
X11904229Y-13722793D02*
X11894705Y-13760888D01*
X11894705Y-13760888D02*
X11885182Y-13779936D01*
X11885182Y-13779936D02*
X11875658Y-13789460D01*
X11875658Y-13789460D02*
X11856610Y-13798984D01*
X11856610Y-13798984D02*
X11837562Y-13798984D01*
X11837562Y-13798984D02*
X11818515Y-13789460D01*
X11818515Y-13789460D02*
X11808991Y-13779936D01*
X11808991Y-13779936D02*
X11799467Y-13760888D01*
X11799467Y-13760888D02*
X11789943Y-13722793D01*
X11789943Y-13722793D02*
X11789943Y-13675174D01*
X11789943Y-13675174D02*
X11799467Y-13637079D01*
X11799467Y-13637079D02*
X11808991Y-13618031D01*
X11808991Y-13618031D02*
X11818515Y-13608508D01*
X11818515Y-13608508D02*
X11837562Y-13598984D01*
X12028039Y-13598984D02*
X12047086Y-13598984D01*
X12047086Y-13598984D02*
X12066134Y-13608508D01*
X12066134Y-13608508D02*
X12075658Y-13618031D01*
X12075658Y-13618031D02*
X12085182Y-13637079D01*
X12085182Y-13637079D02*
X12094705Y-13675174D01*
X12094705Y-13675174D02*
X12094705Y-13722793D01*
X12094705Y-13722793D02*
X12085182Y-13760888D01*
X12085182Y-13760888D02*
X12075658Y-13779936D01*
X12075658Y-13779936D02*
X12066134Y-13789460D01*
X12066134Y-13789460D02*
X12047086Y-13798984D01*
X12047086Y-13798984D02*
X12028039Y-13798984D01*
X12028039Y-13798984D02*
X12008991Y-13789460D01*
X12008991Y-13789460D02*
X11999467Y-13779936D01*
X11999467Y-13779936D02*
X11989943Y-13760888D01*
X11989943Y-13760888D02*
X11980420Y-13722793D01*
X11980420Y-13722793D02*
X11980420Y-13675174D01*
X11980420Y-13675174D02*
X11989943Y-13637079D01*
X11989943Y-13637079D02*
X11999467Y-13618031D01*
X11999467Y-13618031D02*
X12008991Y-13608508D01*
X12008991Y-13608508D02*
X12028039Y-13598984D01*
X12180420Y-13798984D02*
X12180420Y-13665650D01*
X12180420Y-13684698D02*
X12189943Y-13675174D01*
X12189943Y-13675174D02*
X12208991Y-13665650D01*
X12208991Y-13665650D02*
X12237563Y-13665650D01*
X12237563Y-13665650D02*
X12256610Y-13675174D01*
X12256610Y-13675174D02*
X12266134Y-13694222D01*
X12266134Y-13694222D02*
X12266134Y-13798984D01*
X12266134Y-13694222D02*
X12275658Y-13675174D01*
X12275658Y-13675174D02*
X12294705Y-13665650D01*
X12294705Y-13665650D02*
X12323277Y-13665650D01*
X12323277Y-13665650D02*
X12342324Y-13675174D01*
X12342324Y-13675174D02*
X12351848Y-13694222D01*
X12351848Y-13694222D02*
X12351848Y-13798984D01*
X12447086Y-13798984D02*
X12447086Y-13665650D01*
X12447086Y-13684698D02*
X12456610Y-13675174D01*
X12456610Y-13675174D02*
X12475658Y-13665650D01*
X12475658Y-13665650D02*
X12504229Y-13665650D01*
X12504229Y-13665650D02*
X12523277Y-13675174D01*
X12523277Y-13675174D02*
X12532801Y-13694222D01*
X12532801Y-13694222D02*
X12532801Y-13798984D01*
X12532801Y-13694222D02*
X12542324Y-13675174D01*
X12542324Y-13675174D02*
X12561372Y-13665650D01*
X12561372Y-13665650D02*
X12589943Y-13665650D01*
X12589943Y-13665650D02*
X12608991Y-13675174D01*
X12608991Y-13675174D02*
X12618515Y-13694222D01*
X12618515Y-13694222D02*
X12618515Y-13798984D01*
X13008991Y-13589460D02*
X12837563Y-13846603D01*
X13266134Y-13598984D02*
X13285182Y-13598984D01*
X13285182Y-13598984D02*
X13304229Y-13608508D01*
X13304229Y-13608508D02*
X13313753Y-13618031D01*
X13313753Y-13618031D02*
X13323277Y-13637079D01*
X13323277Y-13637079D02*
X13332801Y-13675174D01*
X13332801Y-13675174D02*
X13332801Y-13722793D01*
X13332801Y-13722793D02*
X13323277Y-13760888D01*
X13323277Y-13760888D02*
X13313753Y-13779936D01*
X13313753Y-13779936D02*
X13304229Y-13789460D01*
X13304229Y-13789460D02*
X13285182Y-13798984D01*
X13285182Y-13798984D02*
X13266134Y-13798984D01*
X13266134Y-13798984D02*
X13247086Y-13789460D01*
X13247086Y-13789460D02*
X13237563Y-13779936D01*
X13237563Y-13779936D02*
X13228039Y-13760888D01*
X13228039Y-13760888D02*
X13218515Y-13722793D01*
X13218515Y-13722793D02*
X13218515Y-13675174D01*
X13218515Y-13675174D02*
X13228039Y-13637079D01*
X13228039Y-13637079D02*
X13237563Y-13618031D01*
X13237563Y-13618031D02*
X13247086Y-13608508D01*
X13247086Y-13608508D02*
X13266134Y-13598984D01*
X13418515Y-13779936D02*
X13428039Y-13789460D01*
X13428039Y-13789460D02*
X13418515Y-13798984D01*
X13418515Y-13798984D02*
X13408991Y-13789460D01*
X13408991Y-13789460D02*
X13418515Y-13779936D01*
X13418515Y-13779936D02*
X13418515Y-13798984D01*
X13551848Y-13598984D02*
X13570896Y-13598984D01*
X13570896Y-13598984D02*
X13589944Y-13608508D01*
X13589944Y-13608508D02*
X13599467Y-13618031D01*
X13599467Y-13618031D02*
X13608991Y-13637079D01*
X13608991Y-13637079D02*
X13618515Y-13675174D01*
X13618515Y-13675174D02*
X13618515Y-13722793D01*
X13618515Y-13722793D02*
X13608991Y-13760888D01*
X13608991Y-13760888D02*
X13599467Y-13779936D01*
X13599467Y-13779936D02*
X13589944Y-13789460D01*
X13589944Y-13789460D02*
X13570896Y-13798984D01*
X13570896Y-13798984D02*
X13551848Y-13798984D01*
X13551848Y-13798984D02*
X13532801Y-13789460D01*
X13532801Y-13789460D02*
X13523277Y-13779936D01*
X13523277Y-13779936D02*
X13513753Y-13760888D01*
X13513753Y-13760888D02*
X13504229Y-13722793D01*
X13504229Y-13722793D02*
X13504229Y-13675174D01*
X13504229Y-13675174D02*
X13513753Y-13637079D01*
X13513753Y-13637079D02*
X13523277Y-13618031D01*
X13523277Y-13618031D02*
X13532801Y-13608508D01*
X13532801Y-13608508D02*
X13551848Y-13598984D01*
X13694706Y-13618031D02*
X13704229Y-13608508D01*
X13704229Y-13608508D02*
X13723277Y-13598984D01*
X13723277Y-13598984D02*
X13770896Y-13598984D01*
X13770896Y-13598984D02*
X13789944Y-13608508D01*
X13789944Y-13608508D02*
X13799467Y-13618031D01*
X13799467Y-13618031D02*
X13808991Y-13637079D01*
X13808991Y-13637079D02*
X13808991Y-13656127D01*
X13808991Y-13656127D02*
X13799467Y-13684698D01*
X13799467Y-13684698D02*
X13685182Y-13798984D01*
X13685182Y-13798984D02*
X13808991Y-13798984D01*
X13875658Y-13598984D02*
X14008991Y-13598984D01*
X14008991Y-13598984D02*
X13923277Y-13798984D01*
X14170896Y-13598984D02*
X14132801Y-13598984D01*
X14132801Y-13598984D02*
X14113753Y-13608508D01*
X14113753Y-13608508D02*
X14104229Y-13618031D01*
X14104229Y-13618031D02*
X14085182Y-13646603D01*
X14085182Y-13646603D02*
X14075658Y-13684698D01*
X14075658Y-13684698D02*
X14075658Y-13760888D01*
X14075658Y-13760888D02*
X14085182Y-13779936D01*
X14085182Y-13779936D02*
X14094706Y-13789460D01*
X14094706Y-13789460D02*
X14113753Y-13798984D01*
X14113753Y-13798984D02*
X14151848Y-13798984D01*
X14151848Y-13798984D02*
X14170896Y-13789460D01*
X14170896Y-13789460D02*
X14180420Y-13779936D01*
X14180420Y-13779936D02*
X14189944Y-13760888D01*
X14189944Y-13760888D02*
X14189944Y-13713269D01*
X14189944Y-13713269D02*
X14180420Y-13694222D01*
X14180420Y-13694222D02*
X14170896Y-13684698D01*
X14170896Y-13684698D02*
X14151848Y-13675174D01*
X14151848Y-13675174D02*
X14113753Y-13675174D01*
X14113753Y-13675174D02*
X14094706Y-13684698D01*
X14094706Y-13684698D02*
X14085182Y-13694222D01*
X14085182Y-13694222D02*
X14075658Y-13713269D01*
X14266134Y-13598984D02*
X14266134Y-13637079D01*
X14342325Y-13598984D02*
X14342325Y-13637079D01*
X14637563Y-13875174D02*
X14628039Y-13865650D01*
X14628039Y-13865650D02*
X14608991Y-13837079D01*
X14608991Y-13837079D02*
X14599468Y-13818031D01*
X14599468Y-13818031D02*
X14589944Y-13789460D01*
X14589944Y-13789460D02*
X14580420Y-13741841D01*
X14580420Y-13741841D02*
X14580420Y-13703746D01*
X14580420Y-13703746D02*
X14589944Y-13656127D01*
X14589944Y-13656127D02*
X14599468Y-13627555D01*
X14599468Y-13627555D02*
X14608991Y-13608508D01*
X14608991Y-13608508D02*
X14628039Y-13579936D01*
X14628039Y-13579936D02*
X14637563Y-13570412D01*
X14818515Y-13798984D02*
X14704229Y-13798984D01*
X14761372Y-13798984D02*
X14761372Y-13598984D01*
X14761372Y-13598984D02*
X14742325Y-13627555D01*
X14742325Y-13627555D02*
X14723277Y-13646603D01*
X14723277Y-13646603D02*
X14704229Y-13656127D01*
X15056610Y-13798984D02*
X15056610Y-13598984D01*
X15142325Y-13798984D02*
X15142325Y-13694222D01*
X15142325Y-13694222D02*
X15132801Y-13675174D01*
X15132801Y-13675174D02*
X15113753Y-13665650D01*
X15113753Y-13665650D02*
X15085182Y-13665650D01*
X15085182Y-13665650D02*
X15066134Y-13675174D01*
X15066134Y-13675174D02*
X15056610Y-13684698D01*
X15266134Y-13798984D02*
X15247087Y-13789460D01*
X15247087Y-13789460D02*
X15237563Y-13779936D01*
X15237563Y-13779936D02*
X15228039Y-13760888D01*
X15228039Y-13760888D02*
X15228039Y-13703746D01*
X15228039Y-13703746D02*
X15237563Y-13684698D01*
X15237563Y-13684698D02*
X15247087Y-13675174D01*
X15247087Y-13675174D02*
X15266134Y-13665650D01*
X15266134Y-13665650D02*
X15294706Y-13665650D01*
X15294706Y-13665650D02*
X15313753Y-13675174D01*
X15313753Y-13675174D02*
X15323277Y-13684698D01*
X15323277Y-13684698D02*
X15332801Y-13703746D01*
X15332801Y-13703746D02*
X15332801Y-13760888D01*
X15332801Y-13760888D02*
X15323277Y-13779936D01*
X15323277Y-13779936D02*
X15313753Y-13789460D01*
X15313753Y-13789460D02*
X15294706Y-13798984D01*
X15294706Y-13798984D02*
X15266134Y-13798984D01*
X15447087Y-13798984D02*
X15428039Y-13789460D01*
X15428039Y-13789460D02*
X15418515Y-13770412D01*
X15418515Y-13770412D02*
X15418515Y-13598984D01*
X15599468Y-13789460D02*
X15580420Y-13798984D01*
X15580420Y-13798984D02*
X15542325Y-13798984D01*
X15542325Y-13798984D02*
X15523277Y-13789460D01*
X15523277Y-13789460D02*
X15513753Y-13770412D01*
X15513753Y-13770412D02*
X15513753Y-13694222D01*
X15513753Y-13694222D02*
X15523277Y-13675174D01*
X15523277Y-13675174D02*
X15542325Y-13665650D01*
X15542325Y-13665650D02*
X15580420Y-13665650D01*
X15580420Y-13665650D02*
X15599468Y-13675174D01*
X15599468Y-13675174D02*
X15608991Y-13694222D01*
X15608991Y-13694222D02*
X15608991Y-13713269D01*
X15608991Y-13713269D02*
X15513753Y-13732317D01*
X15675658Y-13875174D02*
X15685182Y-13865650D01*
X15685182Y-13865650D02*
X15704230Y-13837079D01*
X15704230Y-13837079D02*
X15713753Y-13818031D01*
X15713753Y-13818031D02*
X15723277Y-13789460D01*
X15723277Y-13789460D02*
X15732801Y-13741841D01*
X15732801Y-13741841D02*
X15732801Y-13703746D01*
X15732801Y-13703746D02*
X15723277Y-13656127D01*
X15723277Y-13656127D02*
X15713753Y-13627555D01*
X15713753Y-13627555D02*
X15704230Y-13608508D01*
X15704230Y-13608508D02*
X15685182Y-13579936D01*
X15685182Y-13579936D02*
X15675658Y-13570412D01*
D12*
X11062500Y-13971500D02*
G75*
G02*
X10962500Y-13971500I-50000J0D01*
G01*
X10962500Y-13971500D02*
G75*
G02*
X11062500Y-13971500I50000J0D01*
G01*
D11*
X11428039Y-14062984D02*
X11313753Y-14062984D01*
X11370896Y-14062984D02*
X11370896Y-13862984D01*
X11370896Y-13862984D02*
X11351848Y-13891555D01*
X11351848Y-13891555D02*
X11332801Y-13910603D01*
X11332801Y-13910603D02*
X11313753Y-13920127D01*
X11513753Y-14043936D02*
X11523277Y-14053460D01*
X11523277Y-14053460D02*
X11513753Y-14062984D01*
X11513753Y-14062984D02*
X11504229Y-14053460D01*
X11504229Y-14053460D02*
X11513753Y-14043936D01*
X11513753Y-14043936D02*
X11513753Y-14062984D01*
X11647086Y-13862984D02*
X11666134Y-13862984D01*
X11666134Y-13862984D02*
X11685182Y-13872508D01*
X11685182Y-13872508D02*
X11694705Y-13882031D01*
X11694705Y-13882031D02*
X11704229Y-13901079D01*
X11704229Y-13901079D02*
X11713753Y-13939174D01*
X11713753Y-13939174D02*
X11713753Y-13986793D01*
X11713753Y-13986793D02*
X11704229Y-14024888D01*
X11704229Y-14024888D02*
X11694705Y-14043936D01*
X11694705Y-14043936D02*
X11685182Y-14053460D01*
X11685182Y-14053460D02*
X11666134Y-14062984D01*
X11666134Y-14062984D02*
X11647086Y-14062984D01*
X11647086Y-14062984D02*
X11628039Y-14053460D01*
X11628039Y-14053460D02*
X11618515Y-14043936D01*
X11618515Y-14043936D02*
X11608991Y-14024888D01*
X11608991Y-14024888D02*
X11599467Y-13986793D01*
X11599467Y-13986793D02*
X11599467Y-13939174D01*
X11599467Y-13939174D02*
X11608991Y-13901079D01*
X11608991Y-13901079D02*
X11618515Y-13882031D01*
X11618515Y-13882031D02*
X11628039Y-13872508D01*
X11628039Y-13872508D02*
X11647086Y-13862984D01*
X11837562Y-13862984D02*
X11856610Y-13862984D01*
X11856610Y-13862984D02*
X11875658Y-13872508D01*
X11875658Y-13872508D02*
X11885182Y-13882031D01*
X11885182Y-13882031D02*
X11894705Y-13901079D01*
X11894705Y-13901079D02*
X11904229Y-13939174D01*
X11904229Y-13939174D02*
X11904229Y-13986793D01*
X11904229Y-13986793D02*
X11894705Y-14024888D01*
X11894705Y-14024888D02*
X11885182Y-14043936D01*
X11885182Y-14043936D02*
X11875658Y-14053460D01*
X11875658Y-14053460D02*
X11856610Y-14062984D01*
X11856610Y-14062984D02*
X11837562Y-14062984D01*
X11837562Y-14062984D02*
X11818515Y-14053460D01*
X11818515Y-14053460D02*
X11808991Y-14043936D01*
X11808991Y-14043936D02*
X11799467Y-14024888D01*
X11799467Y-14024888D02*
X11789943Y-13986793D01*
X11789943Y-13986793D02*
X11789943Y-13939174D01*
X11789943Y-13939174D02*
X11799467Y-13901079D01*
X11799467Y-13901079D02*
X11808991Y-13882031D01*
X11808991Y-13882031D02*
X11818515Y-13872508D01*
X11818515Y-13872508D02*
X11837562Y-13862984D01*
X12028039Y-13862984D02*
X12047086Y-13862984D01*
X12047086Y-13862984D02*
X12066134Y-13872508D01*
X12066134Y-13872508D02*
X12075658Y-13882031D01*
X12075658Y-13882031D02*
X12085182Y-13901079D01*
X12085182Y-13901079D02*
X12094705Y-13939174D01*
X12094705Y-13939174D02*
X12094705Y-13986793D01*
X12094705Y-13986793D02*
X12085182Y-14024888D01*
X12085182Y-14024888D02*
X12075658Y-14043936D01*
X12075658Y-14043936D02*
X12066134Y-14053460D01*
X12066134Y-14053460D02*
X12047086Y-14062984D01*
X12047086Y-14062984D02*
X12028039Y-14062984D01*
X12028039Y-14062984D02*
X12008991Y-14053460D01*
X12008991Y-14053460D02*
X11999467Y-14043936D01*
X11999467Y-14043936D02*
X11989943Y-14024888D01*
X11989943Y-14024888D02*
X11980420Y-13986793D01*
X11980420Y-13986793D02*
X11980420Y-13939174D01*
X11980420Y-13939174D02*
X11989943Y-13901079D01*
X11989943Y-13901079D02*
X11999467Y-13882031D01*
X11999467Y-13882031D02*
X12008991Y-13872508D01*
X12008991Y-13872508D02*
X12028039Y-13862984D01*
X12180420Y-14062984D02*
X12180420Y-13929650D01*
X12180420Y-13948698D02*
X12189943Y-13939174D01*
X12189943Y-13939174D02*
X12208991Y-13929650D01*
X12208991Y-13929650D02*
X12237563Y-13929650D01*
X12237563Y-13929650D02*
X12256610Y-13939174D01*
X12256610Y-13939174D02*
X12266134Y-13958222D01*
X12266134Y-13958222D02*
X12266134Y-14062984D01*
X12266134Y-13958222D02*
X12275658Y-13939174D01*
X12275658Y-13939174D02*
X12294705Y-13929650D01*
X12294705Y-13929650D02*
X12323277Y-13929650D01*
X12323277Y-13929650D02*
X12342324Y-13939174D01*
X12342324Y-13939174D02*
X12351848Y-13958222D01*
X12351848Y-13958222D02*
X12351848Y-14062984D01*
X12447086Y-14062984D02*
X12447086Y-13929650D01*
X12447086Y-13948698D02*
X12456610Y-13939174D01*
X12456610Y-13939174D02*
X12475658Y-13929650D01*
X12475658Y-13929650D02*
X12504229Y-13929650D01*
X12504229Y-13929650D02*
X12523277Y-13939174D01*
X12523277Y-13939174D02*
X12532801Y-13958222D01*
X12532801Y-13958222D02*
X12532801Y-14062984D01*
X12532801Y-13958222D02*
X12542324Y-13939174D01*
X12542324Y-13939174D02*
X12561372Y-13929650D01*
X12561372Y-13929650D02*
X12589943Y-13929650D01*
X12589943Y-13929650D02*
X12608991Y-13939174D01*
X12608991Y-13939174D02*
X12618515Y-13958222D01*
X12618515Y-13958222D02*
X12618515Y-14062984D01*
X13008991Y-13853460D02*
X12837563Y-14110603D01*
X13266134Y-13862984D02*
X13285182Y-13862984D01*
X13285182Y-13862984D02*
X13304229Y-13872508D01*
X13304229Y-13872508D02*
X13313753Y-13882031D01*
X13313753Y-13882031D02*
X13323277Y-13901079D01*
X13323277Y-13901079D02*
X13332801Y-13939174D01*
X13332801Y-13939174D02*
X13332801Y-13986793D01*
X13332801Y-13986793D02*
X13323277Y-14024888D01*
X13323277Y-14024888D02*
X13313753Y-14043936D01*
X13313753Y-14043936D02*
X13304229Y-14053460D01*
X13304229Y-14053460D02*
X13285182Y-14062984D01*
X13285182Y-14062984D02*
X13266134Y-14062984D01*
X13266134Y-14062984D02*
X13247086Y-14053460D01*
X13247086Y-14053460D02*
X13237563Y-14043936D01*
X13237563Y-14043936D02*
X13228039Y-14024888D01*
X13228039Y-14024888D02*
X13218515Y-13986793D01*
X13218515Y-13986793D02*
X13218515Y-13939174D01*
X13218515Y-13939174D02*
X13228039Y-13901079D01*
X13228039Y-13901079D02*
X13237563Y-13882031D01*
X13237563Y-13882031D02*
X13247086Y-13872508D01*
X13247086Y-13872508D02*
X13266134Y-13862984D01*
X13418515Y-14043936D02*
X13428039Y-14053460D01*
X13428039Y-14053460D02*
X13418515Y-14062984D01*
X13418515Y-14062984D02*
X13408991Y-14053460D01*
X13408991Y-14053460D02*
X13418515Y-14043936D01*
X13418515Y-14043936D02*
X13418515Y-14062984D01*
X13551848Y-13862984D02*
X13570896Y-13862984D01*
X13570896Y-13862984D02*
X13589944Y-13872508D01*
X13589944Y-13872508D02*
X13599467Y-13882031D01*
X13599467Y-13882031D02*
X13608991Y-13901079D01*
X13608991Y-13901079D02*
X13618515Y-13939174D01*
X13618515Y-13939174D02*
X13618515Y-13986793D01*
X13618515Y-13986793D02*
X13608991Y-14024888D01*
X13608991Y-14024888D02*
X13599467Y-14043936D01*
X13599467Y-14043936D02*
X13589944Y-14053460D01*
X13589944Y-14053460D02*
X13570896Y-14062984D01*
X13570896Y-14062984D02*
X13551848Y-14062984D01*
X13551848Y-14062984D02*
X13532801Y-14053460D01*
X13532801Y-14053460D02*
X13523277Y-14043936D01*
X13523277Y-14043936D02*
X13513753Y-14024888D01*
X13513753Y-14024888D02*
X13504229Y-13986793D01*
X13504229Y-13986793D02*
X13504229Y-13939174D01*
X13504229Y-13939174D02*
X13513753Y-13901079D01*
X13513753Y-13901079D02*
X13523277Y-13882031D01*
X13523277Y-13882031D02*
X13532801Y-13872508D01*
X13532801Y-13872508D02*
X13551848Y-13862984D01*
X13685182Y-13862984D02*
X13808991Y-13862984D01*
X13808991Y-13862984D02*
X13742325Y-13939174D01*
X13742325Y-13939174D02*
X13770896Y-13939174D01*
X13770896Y-13939174D02*
X13789944Y-13948698D01*
X13789944Y-13948698D02*
X13799467Y-13958222D01*
X13799467Y-13958222D02*
X13808991Y-13977269D01*
X13808991Y-13977269D02*
X13808991Y-14024888D01*
X13808991Y-14024888D02*
X13799467Y-14043936D01*
X13799467Y-14043936D02*
X13789944Y-14053460D01*
X13789944Y-14053460D02*
X13770896Y-14062984D01*
X13770896Y-14062984D02*
X13713753Y-14062984D01*
X13713753Y-14062984D02*
X13694706Y-14053460D01*
X13694706Y-14053460D02*
X13685182Y-14043936D01*
X13904229Y-14062984D02*
X13942325Y-14062984D01*
X13942325Y-14062984D02*
X13961372Y-14053460D01*
X13961372Y-14053460D02*
X13970896Y-14043936D01*
X13970896Y-14043936D02*
X13989944Y-14015365D01*
X13989944Y-14015365D02*
X13999467Y-13977269D01*
X13999467Y-13977269D02*
X13999467Y-13901079D01*
X13999467Y-13901079D02*
X13989944Y-13882031D01*
X13989944Y-13882031D02*
X13980420Y-13872508D01*
X13980420Y-13872508D02*
X13961372Y-13862984D01*
X13961372Y-13862984D02*
X13923277Y-13862984D01*
X13923277Y-13862984D02*
X13904229Y-13872508D01*
X13904229Y-13872508D02*
X13894706Y-13882031D01*
X13894706Y-13882031D02*
X13885182Y-13901079D01*
X13885182Y-13901079D02*
X13885182Y-13948698D01*
X13885182Y-13948698D02*
X13894706Y-13967746D01*
X13894706Y-13967746D02*
X13904229Y-13977269D01*
X13904229Y-13977269D02*
X13923277Y-13986793D01*
X13923277Y-13986793D02*
X13961372Y-13986793D01*
X13961372Y-13986793D02*
X13980420Y-13977269D01*
X13980420Y-13977269D02*
X13989944Y-13967746D01*
X13989944Y-13967746D02*
X13999467Y-13948698D01*
X14170896Y-13929650D02*
X14170896Y-14062984D01*
X14123277Y-13853460D02*
X14075658Y-13996317D01*
X14075658Y-13996317D02*
X14199467Y-13996317D01*
X14266134Y-13862984D02*
X14266134Y-13901079D01*
X14342325Y-13862984D02*
X14342325Y-13901079D01*
X14637563Y-14139174D02*
X14628039Y-14129650D01*
X14628039Y-14129650D02*
X14608991Y-14101079D01*
X14608991Y-14101079D02*
X14599468Y-14082031D01*
X14599468Y-14082031D02*
X14589944Y-14053460D01*
X14589944Y-14053460D02*
X14580420Y-14005841D01*
X14580420Y-14005841D02*
X14580420Y-13967746D01*
X14580420Y-13967746D02*
X14589944Y-13920127D01*
X14589944Y-13920127D02*
X14599468Y-13891555D01*
X14599468Y-13891555D02*
X14608991Y-13872508D01*
X14608991Y-13872508D02*
X14628039Y-13843936D01*
X14628039Y-13843936D02*
X14637563Y-13834412D01*
X14799468Y-13929650D02*
X14799468Y-14062984D01*
X14751848Y-13853460D02*
X14704229Y-13996317D01*
X14704229Y-13996317D02*
X14828039Y-13996317D01*
X15008991Y-14062984D02*
X14894706Y-14062984D01*
X14951848Y-14062984D02*
X14951848Y-13862984D01*
X14951848Y-13862984D02*
X14932801Y-13891555D01*
X14932801Y-13891555D02*
X14913753Y-13910603D01*
X14913753Y-13910603D02*
X14894706Y-13920127D01*
X15123277Y-13948698D02*
X15104229Y-13939174D01*
X15104229Y-13939174D02*
X15094706Y-13929650D01*
X15094706Y-13929650D02*
X15085182Y-13910603D01*
X15085182Y-13910603D02*
X15085182Y-13901079D01*
X15085182Y-13901079D02*
X15094706Y-13882031D01*
X15094706Y-13882031D02*
X15104229Y-13872508D01*
X15104229Y-13872508D02*
X15123277Y-13862984D01*
X15123277Y-13862984D02*
X15161372Y-13862984D01*
X15161372Y-13862984D02*
X15180420Y-13872508D01*
X15180420Y-13872508D02*
X15189944Y-13882031D01*
X15189944Y-13882031D02*
X15199468Y-13901079D01*
X15199468Y-13901079D02*
X15199468Y-13910603D01*
X15199468Y-13910603D02*
X15189944Y-13929650D01*
X15189944Y-13929650D02*
X15180420Y-13939174D01*
X15180420Y-13939174D02*
X15161372Y-13948698D01*
X15161372Y-13948698D02*
X15123277Y-13948698D01*
X15123277Y-13948698D02*
X15104229Y-13958222D01*
X15104229Y-13958222D02*
X15094706Y-13967746D01*
X15094706Y-13967746D02*
X15085182Y-13986793D01*
X15085182Y-13986793D02*
X15085182Y-14024888D01*
X15085182Y-14024888D02*
X15094706Y-14043936D01*
X15094706Y-14043936D02*
X15104229Y-14053460D01*
X15104229Y-14053460D02*
X15123277Y-14062984D01*
X15123277Y-14062984D02*
X15161372Y-14062984D01*
X15161372Y-14062984D02*
X15180420Y-14053460D01*
X15180420Y-14053460D02*
X15189944Y-14043936D01*
X15189944Y-14043936D02*
X15199468Y-14024888D01*
X15199468Y-14024888D02*
X15199468Y-13986793D01*
X15199468Y-13986793D02*
X15189944Y-13967746D01*
X15189944Y-13967746D02*
X15180420Y-13958222D01*
X15180420Y-13958222D02*
X15161372Y-13948698D01*
X15437563Y-14062984D02*
X15437563Y-13862984D01*
X15523277Y-14062984D02*
X15523277Y-13958222D01*
X15523277Y-13958222D02*
X15513753Y-13939174D01*
X15513753Y-13939174D02*
X15494706Y-13929650D01*
X15494706Y-13929650D02*
X15466134Y-13929650D01*
X15466134Y-13929650D02*
X15447087Y-13939174D01*
X15447087Y-13939174D02*
X15437563Y-13948698D01*
X15647087Y-14062984D02*
X15628039Y-14053460D01*
X15628039Y-14053460D02*
X15618515Y-14043936D01*
X15618515Y-14043936D02*
X15608991Y-14024888D01*
X15608991Y-14024888D02*
X15608991Y-13967746D01*
X15608991Y-13967746D02*
X15618515Y-13948698D01*
X15618515Y-13948698D02*
X15628039Y-13939174D01*
X15628039Y-13939174D02*
X15647087Y-13929650D01*
X15647087Y-13929650D02*
X15675658Y-13929650D01*
X15675658Y-13929650D02*
X15694706Y-13939174D01*
X15694706Y-13939174D02*
X15704230Y-13948698D01*
X15704230Y-13948698D02*
X15713753Y-13967746D01*
X15713753Y-13967746D02*
X15713753Y-14024888D01*
X15713753Y-14024888D02*
X15704230Y-14043936D01*
X15704230Y-14043936D02*
X15694706Y-14053460D01*
X15694706Y-14053460D02*
X15675658Y-14062984D01*
X15675658Y-14062984D02*
X15647087Y-14062984D01*
X15828039Y-14062984D02*
X15808991Y-14053460D01*
X15808991Y-14053460D02*
X15799468Y-14034412D01*
X15799468Y-14034412D02*
X15799468Y-13862984D01*
X15980420Y-14053460D02*
X15961372Y-14062984D01*
X15961372Y-14062984D02*
X15923277Y-14062984D01*
X15923277Y-14062984D02*
X15904230Y-14053460D01*
X15904230Y-14053460D02*
X15894706Y-14034412D01*
X15894706Y-14034412D02*
X15894706Y-13958222D01*
X15894706Y-13958222D02*
X15904230Y-13939174D01*
X15904230Y-13939174D02*
X15923277Y-13929650D01*
X15923277Y-13929650D02*
X15961372Y-13929650D01*
X15961372Y-13929650D02*
X15980420Y-13939174D01*
X15980420Y-13939174D02*
X15989944Y-13958222D01*
X15989944Y-13958222D02*
X15989944Y-13977269D01*
X15989944Y-13977269D02*
X15894706Y-13996317D01*
X16066134Y-14053460D02*
X16085182Y-14062984D01*
X16085182Y-14062984D02*
X16123277Y-14062984D01*
X16123277Y-14062984D02*
X16142325Y-14053460D01*
X16142325Y-14053460D02*
X16151849Y-14034412D01*
X16151849Y-14034412D02*
X16151849Y-14024888D01*
X16151849Y-14024888D02*
X16142325Y-14005841D01*
X16142325Y-14005841D02*
X16123277Y-13996317D01*
X16123277Y-13996317D02*
X16094706Y-13996317D01*
X16094706Y-13996317D02*
X16075658Y-13986793D01*
X16075658Y-13986793D02*
X16066134Y-13967746D01*
X16066134Y-13967746D02*
X16066134Y-13958222D01*
X16066134Y-13958222D02*
X16075658Y-13939174D01*
X16075658Y-13939174D02*
X16094706Y-13929650D01*
X16094706Y-13929650D02*
X16123277Y-13929650D01*
X16123277Y-13929650D02*
X16142325Y-13939174D01*
X16218515Y-14139174D02*
X16228039Y-14129650D01*
X16228039Y-14129650D02*
X16247087Y-14101079D01*
X16247087Y-14101079D02*
X16256611Y-14082031D01*
X16256611Y-14082031D02*
X16266134Y-14053460D01*
X16266134Y-14053460D02*
X16275658Y-14005841D01*
X16275658Y-14005841D02*
X16275658Y-13967746D01*
X16275658Y-13967746D02*
X16266134Y-13920127D01*
X16266134Y-13920127D02*
X16256611Y-13891555D01*
X16256611Y-13891555D02*
X16247087Y-13872508D01*
X16247087Y-13872508D02*
X16228039Y-13843936D01*
X16228039Y-13843936D02*
X16218515Y-13834412D01*
M02*
