M48
; DRILL file {KiCad 8.0.8} date 2025-02-19T14:02:05-0500
; FORMAT={-:-/ absolute / metric / decimal}
; #@! TF.CreationDate,2025-02-19T14:02:05-05:00
; #@! TF.GenerationSoftware,Kicad,Pcbnew,8.0.8
; #@! TF.FileFunction,Plated,1,2,PTH
FMAT,2
METRIC
; #@! TA.AperFunction,Plated,PTH,ComponentDrill
T1C0.700
; #@! TA.AperFunction,Plated,PTH,ComponentDrill
T2C1.000
%
G90
G05
T1
X124.85Y-117.13
T2
X115.83Y-89.35
X115.83Y-91.89
X115.83Y-94.43
X115.83Y-96.97
X115.83Y-99.51
X115.83Y-102.05
X115.83Y-104.59
X115.83Y-107.13
X115.83Y-109.67
X118.37Y-89.35
X118.37Y-91.89
X118.37Y-94.43
X118.37Y-96.97
X118.37Y-99.51
X118.37Y-102.05
X118.37Y-104.59
X118.37Y-107.13
X118.37Y-109.67
X124.82Y-71.69
X124.82Y-74.23
X124.82Y-76.77
X124.82Y-79.31
X124.82Y-84.26
X124.82Y-86.8
X124.82Y-89.34
X124.82Y-91.88
X124.82Y-94.42
X124.82Y-96.96
X124.82Y-102.04
X124.82Y-104.58
X124.82Y-107.12
X124.82Y-109.66
X124.82Y-112.2
X124.82Y-114.74
X124.82Y-119.69
X124.82Y-122.23
X124.82Y-124.77
X124.82Y-127.31
X127.36Y-71.69
X127.36Y-74.23
X127.36Y-76.77
X127.36Y-79.31
X127.36Y-84.26
X127.36Y-86.8
X127.36Y-89.34
X127.36Y-91.88
X127.36Y-94.42
X127.36Y-96.96
X127.36Y-102.04
X127.36Y-104.58
X127.36Y-107.12
X127.36Y-109.66
X127.36Y-112.2
X127.36Y-114.74
X127.36Y-119.69
X127.36Y-122.23
X127.36Y-124.77
X127.36Y-127.31
X129.9Y-71.69
X129.9Y-74.23
X129.9Y-76.77
X129.9Y-79.31
X129.9Y-84.26
X129.9Y-86.8
X129.9Y-89.34
X129.9Y-91.88
X129.9Y-94.42
X129.9Y-96.96
X129.9Y-102.04
X129.9Y-104.58
X129.9Y-107.12
X129.9Y-109.66
X129.9Y-112.2
X129.9Y-114.74
X129.9Y-119.69
X129.9Y-122.23
X129.9Y-124.77
X129.9Y-127.31
X132.44Y-71.69
X132.44Y-74.23
X132.44Y-76.77
X132.44Y-79.31
X132.44Y-84.26
X132.44Y-86.8
X132.44Y-89.34
X132.44Y-91.88
X132.44Y-94.42
X132.44Y-96.96
X132.44Y-102.04
X132.44Y-104.58
X132.44Y-107.12
X132.44Y-109.66
X132.44Y-112.2
X132.44Y-114.74
X132.44Y-119.69
X132.44Y-122.23
X132.44Y-124.77
X132.44Y-127.31
X134.98Y-71.69
X134.98Y-74.23
X134.98Y-76.77
X134.98Y-79.31
X134.98Y-84.26
X134.98Y-86.8
X134.98Y-89.34
X134.98Y-91.88
X134.98Y-94.42
X134.98Y-96.96
X134.98Y-102.04
X134.98Y-104.58
X134.98Y-107.12
X134.98Y-109.66
X134.98Y-112.2
X134.98Y-114.74
X134.98Y-119.69
X134.98Y-122.23
X134.98Y-124.77
X134.98Y-127.31
X137.52Y-71.69
X137.52Y-74.23
X137.52Y-76.77
X137.52Y-79.31
X137.52Y-84.26
X137.52Y-86.8
X137.52Y-89.34
X137.52Y-91.88
X137.52Y-94.42
X137.52Y-96.96
X137.52Y-102.04
X137.52Y-104.58
X137.52Y-107.12
X137.52Y-109.66
X137.52Y-112.2
X137.52Y-114.74
X137.52Y-119.69
X137.52Y-122.23
X137.52Y-124.77
X137.52Y-127.31
X140.06Y-71.69
X140.06Y-74.23
X140.06Y-76.77
X140.06Y-79.31
X140.06Y-84.26
X140.06Y-86.8
X140.06Y-89.34
X140.06Y-91.88
X140.06Y-94.42
X140.06Y-96.96
X140.06Y-102.04
X140.06Y-104.58
X140.06Y-107.12
X140.06Y-109.66
X140.06Y-112.2
X140.06Y-114.74
X140.06Y-119.69
X140.06Y-122.23
X140.06Y-124.77
X140.06Y-127.31
X142.6Y-71.69
X142.6Y-74.23
X142.6Y-76.77
X142.6Y-79.31
X142.6Y-84.26
X142.6Y-86.8
X142.6Y-89.34
X142.6Y-91.88
X142.6Y-94.42
X142.6Y-96.96
X142.6Y-102.04
X142.6Y-104.58
X142.6Y-107.12
X142.6Y-109.66
X142.6Y-112.2
X142.6Y-114.74
X142.6Y-119.69
X142.6Y-122.23
X142.6Y-124.77
X142.6Y-127.31
X145.14Y-71.69
X145.14Y-74.23
X145.14Y-76.77
X145.14Y-79.31
X145.14Y-84.26
X145.14Y-86.8
X145.14Y-89.34
X145.14Y-91.88
X145.14Y-94.42
X145.14Y-96.96
X145.14Y-102.04
X145.14Y-104.58
X145.14Y-107.12
X145.14Y-109.66
X145.14Y-112.2
X145.14Y-114.74
X145.14Y-119.69
X145.14Y-122.23
X145.14Y-124.77
X145.14Y-127.31
X147.68Y-71.69
X147.68Y-74.23
X147.68Y-76.77
X147.68Y-79.31
X147.68Y-84.26
X147.68Y-86.8
X147.68Y-89.34
X147.68Y-91.88
X147.68Y-94.42
X147.68Y-96.96
X147.68Y-102.04
X147.68Y-104.58
X147.68Y-107.12
X147.68Y-109.66
X147.68Y-112.2
X147.68Y-114.74
X147.68Y-119.69
X147.68Y-122.23
X147.68Y-124.77
X147.68Y-127.31
X150.22Y-71.69
X150.22Y-74.23
X150.22Y-76.77
X150.22Y-79.31
X150.22Y-84.26
X150.22Y-86.8
X150.22Y-89.34
X150.22Y-91.88
X150.22Y-94.42
X150.22Y-96.96
X150.22Y-102.04
X150.22Y-104.58
X150.22Y-107.12
X150.22Y-109.66
X150.22Y-112.2
X150.22Y-114.74
X150.22Y-119.69
X150.22Y-122.23
X150.22Y-124.77
X150.22Y-127.31
X152.76Y-71.69
X152.76Y-74.23
X152.76Y-76.77
X152.76Y-79.31
X152.76Y-84.26
X152.76Y-86.8
X152.76Y-89.34
X152.76Y-91.88
X152.76Y-94.42
X152.76Y-96.96
X152.76Y-102.04
X152.76Y-104.58
X152.76Y-107.12
X152.76Y-109.66
X152.76Y-112.2
X152.76Y-114.74
X152.76Y-119.69
X152.76Y-122.23
X152.76Y-124.77
X152.76Y-127.31
X155.3Y-71.69
X155.3Y-74.23
X155.3Y-76.77
X155.3Y-79.31
X155.3Y-84.26
X155.3Y-86.8
X155.3Y-89.34
X155.3Y-91.88
X155.3Y-94.42
X155.3Y-96.96
X155.3Y-102.04
X155.3Y-104.58
X155.3Y-107.12
X155.3Y-109.66
X155.3Y-112.2
X155.3Y-114.74
X155.3Y-119.69
X155.3Y-122.23
X155.3Y-124.77
X155.3Y-127.31
X157.84Y-71.69
X157.84Y-74.23
X157.84Y-76.77
X157.84Y-79.31
X157.84Y-84.26
X157.84Y-86.8
X157.84Y-89.34
X157.84Y-91.88
X157.84Y-94.42
X157.84Y-96.96
X157.84Y-102.04
X157.84Y-104.58
X157.84Y-107.12
X157.84Y-109.66
X157.84Y-112.2
X157.84Y-114.74
X157.84Y-119.69
X157.84Y-122.23
X157.84Y-124.77
X157.84Y-127.31
X160.38Y-71.69
X160.38Y-74.23
X160.38Y-76.77
X160.38Y-79.31
X160.38Y-84.26
X160.38Y-86.8
X160.38Y-89.34
X160.38Y-91.88
X160.38Y-94.42
X160.38Y-96.96
X160.38Y-102.04
X160.38Y-104.58
X160.38Y-107.12
X160.38Y-109.66
X160.38Y-112.2
X160.38Y-114.74
X160.38Y-119.69
X160.38Y-122.23
X160.38Y-124.77
X160.38Y-127.31
X162.92Y-71.69
X162.92Y-74.23
X162.92Y-76.77
X162.92Y-79.31
X162.92Y-84.26
X162.92Y-86.8
X162.92Y-89.34
X162.92Y-91.88
X162.92Y-94.42
X162.92Y-96.96
X162.92Y-102.04
X162.92Y-104.58
X162.92Y-107.12
X162.92Y-109.66
X162.92Y-112.2
X162.92Y-114.74
X162.92Y-119.69
X162.92Y-122.23
X162.92Y-124.77
X162.92Y-127.31
X165.46Y-71.69
X165.46Y-74.23
X165.46Y-76.77
X165.46Y-79.31
X165.46Y-84.26
X165.46Y-86.8
X165.46Y-89.34
X165.46Y-91.88
X165.46Y-94.42
X165.46Y-96.96
X165.46Y-102.04
X165.46Y-104.58
X165.46Y-107.12
X165.46Y-109.66
X165.46Y-112.2
X165.46Y-114.74
X165.46Y-119.69
X165.46Y-122.23
X165.46Y-124.77
X165.46Y-127.31
X168.0Y-71.69
X168.0Y-74.23
X168.0Y-76.77
X168.0Y-79.31
X168.0Y-84.26
X168.0Y-86.8
X168.0Y-89.34
X168.0Y-91.88
X168.0Y-94.42
X168.0Y-96.96
X168.0Y-102.04
X168.0Y-104.58
X168.0Y-107.12
X168.0Y-109.66
X168.0Y-112.2
X168.0Y-114.74
X168.0Y-119.69
X168.0Y-122.23
X168.0Y-124.77
X168.0Y-127.31
X170.54Y-71.69
X170.54Y-74.23
X170.54Y-76.77
X170.54Y-79.31
X170.54Y-84.26
X170.54Y-86.8
X170.54Y-89.34
X170.54Y-91.88
X170.54Y-94.42
X170.54Y-96.96
X170.54Y-102.04
X170.54Y-104.58
X170.54Y-107.12
X170.54Y-109.66
X170.54Y-112.2
X170.54Y-114.74
X170.54Y-119.69
X170.54Y-122.23
X170.54Y-124.77
X170.54Y-127.31
X173.08Y-71.69
X173.08Y-74.23
X173.08Y-76.77
X173.08Y-79.31
X173.08Y-84.26
X173.08Y-86.8
X173.08Y-89.34
X173.08Y-91.88
X173.08Y-94.42
X173.08Y-96.96
X173.08Y-102.04
X173.08Y-104.58
X173.08Y-107.12
X173.08Y-109.66
X173.08Y-112.2
X173.08Y-114.74
X173.08Y-119.69
X173.08Y-122.23
X173.08Y-124.77
X173.08Y-127.31
M30
