G04 #@! TF.GenerationSoftware,KiCad,Pcbnew,8.0.8*
G04 #@! TF.CreationDate,2025-02-19T14:06:16-05:00*
G04 #@! TF.ProjectId,plot_gerbers,706c6f74-5f67-4657-9262-6572732e6b69,rev?*
G04 #@! TF.SameCoordinates,Original*
G04 #@! TF.FileFunction,Profile,NP*
%FSLAX46Y46*%
G04 Gerber Fmt 4.6, Leading zero omitted, Abs format (unit mm)*
G04 Created by KiCad (PCBNEW 8.0.8) date 2025-02-19 14:06:16*
%MOMM*%
%LPD*%
G01*
G04 APERTURE LIST*
G04 #@! TA.AperFunction,Profile*
%ADD10C,0.050000*%
G04 #@! TD*
G04 APERTURE END LIST*
D10*
X179110000Y-128070000D02*
G75*
G02*
X177910000Y-126870000I0J1200000D01*
G01*
X112810000Y-94770000D02*
X112810000Y-125670000D01*
X179110000Y-94770000D02*
G75*
G02*
X177910000Y-93570000I0J1200000D01*
G01*
X179110000Y-131970000D02*
X179110000Y-141370000D01*
X112810000Y-92370000D02*
X111560000Y-92370000D01*
X177910000Y-89670000D02*
G75*
G02*
X179110000Y-88470000I1200000J0D01*
G01*
X156465000Y-95885000D02*
X156465000Y-101125000D01*
X177910000Y-130770000D02*
G75*
G02*
X179110000Y-129570000I1200000J0D01*
G01*
X157665000Y-102325000D02*
G75*
G02*
X156465000Y-101125000I0J1200000D01*
G01*
X112810000Y-125670000D02*
G75*
G02*
X114010000Y-126870000I0J-1200000D01*
G01*
X179110000Y-92370000D02*
X180360000Y-92370000D01*
X112810000Y-129570000D02*
X111560000Y-129570000D01*
X179110000Y-90870000D02*
X180360000Y-90870000D01*
X179110000Y-128070000D02*
X180360000Y-128070000D01*
X180360000Y-128070000D02*
X180360000Y-129570000D01*
X157665000Y-102325000D02*
X172895000Y-102325000D01*
X114010000Y-89670000D02*
G75*
G02*
X112810000Y-90870000I-1200000J0D01*
G01*
X179110000Y-90870000D02*
G75*
G02*
X177910000Y-89670000I0J1200000D01*
G01*
X179110000Y-131970000D02*
G75*
G02*
X177910000Y-130770000I0J1200000D01*
G01*
X172895000Y-94685000D02*
G75*
G02*
X174095000Y-95885000I0J-1200000D01*
G01*
X112810000Y-79070000D02*
X179110000Y-79070000D01*
X112810000Y-88470000D02*
X112810000Y-79070000D01*
X179110000Y-125670000D02*
X179110000Y-94770000D01*
X179110000Y-129570000D02*
X180360000Y-129570000D01*
X156465000Y-95885000D02*
G75*
G02*
X157665000Y-94685000I1200000J0D01*
G01*
X112810000Y-141370000D02*
X179110000Y-141370000D01*
X112810000Y-88470000D02*
G75*
G02*
X114010000Y-89670000I0J-1200000D01*
G01*
X112810000Y-90870000D02*
X111560000Y-90870000D01*
X177910000Y-93570000D02*
G75*
G02*
X179110000Y-92370000I1200000J0D01*
G01*
X112810000Y-92370000D02*
G75*
G02*
X114010000Y-93570000I0J-1200000D01*
G01*
X172895000Y-94685000D02*
X157665000Y-94685000D01*
X114010000Y-126870000D02*
G75*
G02*
X112810000Y-128070000I-1200000J0D01*
G01*
X174095000Y-95885000D02*
X174095000Y-101075000D01*
X112810000Y-129570000D02*
G75*
G02*
X114010000Y-130770000I0J-1200000D01*
G01*
X174095000Y-101075000D02*
G75*
G02*
X172895000Y-102275000I-1200000J0D01*
G01*
X112810000Y-131970000D02*
X112810000Y-141370000D01*
X114010000Y-130770000D02*
G75*
G02*
X112810000Y-131970000I-1200000J0D01*
G01*
X177910000Y-126870000D02*
G75*
G02*
X179110000Y-125670000I1200000J0D01*
G01*
X111560000Y-92370000D02*
X111560000Y-90870000D01*
X111560000Y-129570000D02*
X111560000Y-128070000D01*
X112810000Y-128070000D02*
X111560000Y-128070000D01*
X180360000Y-90870000D02*
X180360000Y-92370000D01*
X179110000Y-88470000D02*
X179110000Y-79070000D01*
X114010000Y-93570000D02*
G75*
G02*
X112810000Y-94770000I-1200000J0D01*
G01*
M02*
