G04 #@! TF.GenerationSoftware,KiCad,Pcbnew,8.0.8*
G04 #@! TF.CreationDate,2025-02-19T14:06:16-05:00*
G04 #@! TF.ProjectId,plot_gerbers,706c6f74-5f67-4657-9262-6572732e6b69,rev?*
G04 #@! TF.SameCoordinates,Original*
G04 #@! TF.FileFunction,Legend,Bot*
G04 #@! TF.FilePolarity,Positive*
%FSLAX46Y46*%
G04 Gerber Fmt 4.6, Leading zero omitted, Abs format (unit mm)*
G04 Created by KiCad (PCBNEW 8.0.8) date 2025-02-19 14:06:16*
%MOMM*%
%LPD*%
G01*
G04 APERTURE LIST*
%ADD10C,0.100000*%
%ADD11R,1.700000X1.700000*%
%ADD12O,1.700000X1.700000*%
%ADD13R,1.500000X1.500000*%
%ADD14C,1.700000*%
G04 APERTURE END LIST*
D10*
X165269598Y-119732419D02*
X165269598Y-120446704D01*
X165269598Y-120446704D02*
X165221979Y-120589561D01*
X165221979Y-120589561D02*
X165126741Y-120684800D01*
X165126741Y-120684800D02*
X164983884Y-120732419D01*
X164983884Y-120732419D02*
X164888646Y-120732419D01*
X166221979Y-120732419D02*
X165745789Y-120732419D01*
X165745789Y-120732419D02*
X165745789Y-119732419D01*
X167126741Y-120637180D02*
X167079122Y-120684800D01*
X167079122Y-120684800D02*
X166936265Y-120732419D01*
X166936265Y-120732419D02*
X166841027Y-120732419D01*
X166841027Y-120732419D02*
X166698170Y-120684800D01*
X166698170Y-120684800D02*
X166602932Y-120589561D01*
X166602932Y-120589561D02*
X166555313Y-120494323D01*
X166555313Y-120494323D02*
X166507694Y-120303847D01*
X166507694Y-120303847D02*
X166507694Y-120160990D01*
X166507694Y-120160990D02*
X166555313Y-119970514D01*
X166555313Y-119970514D02*
X166602932Y-119875276D01*
X166602932Y-119875276D02*
X166698170Y-119780038D01*
X166698170Y-119780038D02*
X166841027Y-119732419D01*
X166841027Y-119732419D02*
X166936265Y-119732419D01*
X166936265Y-119732419D02*
X167079122Y-119780038D01*
X167079122Y-119780038D02*
X167126741Y-119827657D01*
X167841027Y-119732419D02*
X167841027Y-120446704D01*
X167841027Y-120446704D02*
X167793408Y-120589561D01*
X167793408Y-120589561D02*
X167698170Y-120684800D01*
X167698170Y-120684800D02*
X167555313Y-120732419D01*
X167555313Y-120732419D02*
X167460075Y-120732419D01*
X168793408Y-120732419D02*
X168317218Y-120732419D01*
X168317218Y-120732419D02*
X168317218Y-119732419D01*
X169698170Y-120637180D02*
X169650551Y-120684800D01*
X169650551Y-120684800D02*
X169507694Y-120732419D01*
X169507694Y-120732419D02*
X169412456Y-120732419D01*
X169412456Y-120732419D02*
X169269599Y-120684800D01*
X169269599Y-120684800D02*
X169174361Y-120589561D01*
X169174361Y-120589561D02*
X169126742Y-120494323D01*
X169126742Y-120494323D02*
X169079123Y-120303847D01*
X169079123Y-120303847D02*
X169079123Y-120160990D01*
X169079123Y-120160990D02*
X169126742Y-119970514D01*
X169126742Y-119970514D02*
X169174361Y-119875276D01*
X169174361Y-119875276D02*
X169269599Y-119780038D01*
X169269599Y-119780038D02*
X169412456Y-119732419D01*
X169412456Y-119732419D02*
X169507694Y-119732419D01*
X169507694Y-119732419D02*
X169650551Y-119780038D01*
X169650551Y-119780038D02*
X169698170Y-119827657D01*
X170412456Y-119732419D02*
X170412456Y-120446704D01*
X170412456Y-120446704D02*
X170364837Y-120589561D01*
X170364837Y-120589561D02*
X170269599Y-120684800D01*
X170269599Y-120684800D02*
X170126742Y-120732419D01*
X170126742Y-120732419D02*
X170031504Y-120732419D01*
X171364837Y-120732419D02*
X170888647Y-120732419D01*
X170888647Y-120732419D02*
X170888647Y-119732419D01*
X172269599Y-120637180D02*
X172221980Y-120684800D01*
X172221980Y-120684800D02*
X172079123Y-120732419D01*
X172079123Y-120732419D02*
X171983885Y-120732419D01*
X171983885Y-120732419D02*
X171841028Y-120684800D01*
X171841028Y-120684800D02*
X171745790Y-120589561D01*
X171745790Y-120589561D02*
X171698171Y-120494323D01*
X171698171Y-120494323D02*
X171650552Y-120303847D01*
X171650552Y-120303847D02*
X171650552Y-120160990D01*
X171650552Y-120160990D02*
X171698171Y-119970514D01*
X171698171Y-119970514D02*
X171745790Y-119875276D01*
X171745790Y-119875276D02*
X171841028Y-119780038D01*
X171841028Y-119780038D02*
X171983885Y-119732419D01*
X171983885Y-119732419D02*
X172079123Y-119732419D01*
X172079123Y-119732419D02*
X172221980Y-119780038D01*
X172221980Y-119780038D02*
X172269599Y-119827657D01*
X172983885Y-119732419D02*
X172983885Y-120446704D01*
X172983885Y-120446704D02*
X172936266Y-120589561D01*
X172936266Y-120589561D02*
X172841028Y-120684800D01*
X172841028Y-120684800D02*
X172698171Y-120732419D01*
X172698171Y-120732419D02*
X172602933Y-120732419D01*
X173936266Y-120732419D02*
X173460076Y-120732419D01*
X173460076Y-120732419D02*
X173460076Y-119732419D01*
X174841028Y-120637180D02*
X174793409Y-120684800D01*
X174793409Y-120684800D02*
X174650552Y-120732419D01*
X174650552Y-120732419D02*
X174555314Y-120732419D01*
X174555314Y-120732419D02*
X174412457Y-120684800D01*
X174412457Y-120684800D02*
X174317219Y-120589561D01*
X174317219Y-120589561D02*
X174269600Y-120494323D01*
X174269600Y-120494323D02*
X174221981Y-120303847D01*
X174221981Y-120303847D02*
X174221981Y-120160990D01*
X174221981Y-120160990D02*
X174269600Y-119970514D01*
X174269600Y-119970514D02*
X174317219Y-119875276D01*
X174317219Y-119875276D02*
X174412457Y-119780038D01*
X174412457Y-119780038D02*
X174555314Y-119732419D01*
X174555314Y-119732419D02*
X174650552Y-119732419D01*
X174650552Y-119732419D02*
X174793409Y-119780038D01*
X174793409Y-119780038D02*
X174841028Y-119827657D01*
%LPC*%
D11*
X116740000Y-100070000D03*
D12*
X119280000Y-100070000D03*
X116740000Y-102610000D03*
X119280000Y-102610000D03*
X116740000Y-105150000D03*
X119280000Y-105150000D03*
X116740000Y-107690000D03*
X119280000Y-107690000D03*
X116740000Y-110230000D03*
X119280000Y-110230000D03*
X116740000Y-112770000D03*
X119280000Y-112770000D03*
X116740000Y-115310000D03*
X119280000Y-115310000D03*
X116740000Y-117850000D03*
X119280000Y-117850000D03*
X116740000Y-120390000D03*
X119280000Y-120390000D03*
X124695000Y-97260000D03*
X124695000Y-99800000D03*
X127235000Y-97260000D03*
X127235000Y-99800000D03*
X129775000Y-97260000D03*
X129775000Y-99800000D03*
X132315000Y-97260000D03*
X132315000Y-99800000D03*
X134855000Y-97260000D03*
X134855000Y-99800000D03*
X137395000Y-97260000D03*
X137395000Y-99800000D03*
X139935000Y-97260000D03*
X139935000Y-99800000D03*
X142475000Y-97260000D03*
X142475000Y-99800000D03*
X145015000Y-97260000D03*
X145015000Y-99800000D03*
X147555000Y-97260000D03*
X147555000Y-99800000D03*
X150095000Y-97260000D03*
X150095000Y-99800000D03*
X152635000Y-97260000D03*
X152635000Y-99800000D03*
D13*
X119570000Y-135630000D03*
D14*
X172935000Y-105160000D03*
X172935000Y-107700000D03*
X172935000Y-110240000D03*
X172935000Y-112780000D03*
X172935000Y-115320000D03*
X172935000Y-117860000D03*
D12*
X170395000Y-105160000D03*
X170395000Y-107700000D03*
X170395000Y-110240000D03*
X170395000Y-112780000D03*
X170395000Y-115320000D03*
X170395000Y-117860000D03*
X167855000Y-105160000D03*
X167855000Y-107700000D03*
X167855000Y-110240000D03*
X167855000Y-112780000D03*
X167855000Y-115320000D03*
X167855000Y-117860000D03*
X165315000Y-105160000D03*
X165315000Y-107700000D03*
X165315000Y-110240000D03*
X165315000Y-112780000D03*
X165315000Y-115320000D03*
X165315000Y-117860000D03*
X162775000Y-105160000D03*
X162775000Y-107700000D03*
X162775000Y-110240000D03*
X162775000Y-112780000D03*
X162775000Y-115320000D03*
X162775000Y-117860000D03*
X160235000Y-105160000D03*
X160235000Y-107700000D03*
X160235000Y-110240000D03*
X160235000Y-112780000D03*
X160235000Y-115320000D03*
X160235000Y-117860000D03*
X157695000Y-105160000D03*
X157695000Y-107700000D03*
X157695000Y-110240000D03*
X157695000Y-112780000D03*
X157695000Y-115320000D03*
X157695000Y-117860000D03*
X155155000Y-105160000D03*
X155155000Y-107700000D03*
X155155000Y-110240000D03*
X155155000Y-112780000D03*
X155155000Y-115320000D03*
X155155000Y-117860000D03*
X152615000Y-105160000D03*
X152615000Y-107700000D03*
X152615000Y-110240000D03*
X152615000Y-112780000D03*
X152615000Y-115320000D03*
X152615000Y-117860000D03*
X150075000Y-105160000D03*
X150075000Y-107700000D03*
X150075000Y-110240000D03*
X150075000Y-112780000D03*
X150075000Y-115320000D03*
X150075000Y-117860000D03*
X147535000Y-105160000D03*
X147535000Y-107700000D03*
X147535000Y-110240000D03*
X147535000Y-112780000D03*
X147535000Y-115320000D03*
X147535000Y-117860000D03*
X144995000Y-105160000D03*
X144995000Y-107700000D03*
X144995000Y-110240000D03*
X144995000Y-112780000D03*
X144995000Y-115320000D03*
X144995000Y-117860000D03*
X142455000Y-105160000D03*
X142455000Y-107700000D03*
X142455000Y-110240000D03*
X142455000Y-112780000D03*
X142455000Y-115320000D03*
X142455000Y-117860000D03*
X139915000Y-105160000D03*
X139915000Y-107700000D03*
X139915000Y-110240000D03*
X139915000Y-112780000D03*
X139915000Y-115320000D03*
X139915000Y-117860000D03*
X137375000Y-105160000D03*
X137375000Y-107700000D03*
X137375000Y-110240000D03*
X137375000Y-112780000D03*
X137375000Y-115320000D03*
X137375000Y-117860000D03*
X134835000Y-105160000D03*
X134835000Y-107700000D03*
X134835000Y-110240000D03*
X134835000Y-112780000D03*
X134835000Y-115320000D03*
X134835000Y-117860000D03*
X132295000Y-105160000D03*
X132295000Y-107700000D03*
X132295000Y-110240000D03*
X132295000Y-112780000D03*
X132295000Y-115320000D03*
X132295000Y-117860000D03*
X129755000Y-105160000D03*
X129755000Y-107700000D03*
X129755000Y-110240000D03*
X129755000Y-112780000D03*
X129755000Y-115320000D03*
X129755000Y-117860000D03*
X127215000Y-105160000D03*
X127215000Y-107700000D03*
X127215000Y-110240000D03*
X127215000Y-112780000D03*
X127215000Y-115320000D03*
X127215000Y-117860000D03*
X124675000Y-105160000D03*
X124675000Y-107700000D03*
X124675000Y-110240000D03*
X124675000Y-112780000D03*
X124675000Y-115320000D03*
X124675000Y-117860000D03*
D14*
X172935000Y-122940000D03*
X172935000Y-125480000D03*
X172935000Y-128020000D03*
X172935000Y-130560000D03*
X172935000Y-133100000D03*
X172935000Y-135640000D03*
D12*
X170395000Y-122940000D03*
X170395000Y-125480000D03*
X170395000Y-128020000D03*
X170395000Y-130560000D03*
X170395000Y-133100000D03*
X170395000Y-135640000D03*
X167855000Y-122940000D03*
X167855000Y-125480000D03*
X167855000Y-128020000D03*
X167855000Y-130560000D03*
X167855000Y-133100000D03*
X167855000Y-135640000D03*
X165315000Y-122940000D03*
X165315000Y-125480000D03*
X165315000Y-128020000D03*
X165315000Y-130560000D03*
X165315000Y-133100000D03*
X165315000Y-135640000D03*
X162775000Y-122940000D03*
X162775000Y-125480000D03*
X162775000Y-128020000D03*
X162775000Y-130560000D03*
X162775000Y-133100000D03*
X162775000Y-135640000D03*
X160235000Y-122940000D03*
X160235000Y-125480000D03*
X160235000Y-128020000D03*
X160235000Y-130560000D03*
X160235000Y-133100000D03*
X160235000Y-135640000D03*
X157695000Y-122940000D03*
X157695000Y-125480000D03*
X157695000Y-128020000D03*
X157695000Y-130560000D03*
X157695000Y-133100000D03*
X157695000Y-135640000D03*
X155155000Y-122940000D03*
X155155000Y-125480000D03*
X155155000Y-128020000D03*
X155155000Y-130560000D03*
X155155000Y-133100000D03*
X155155000Y-135640000D03*
X152615000Y-122940000D03*
X152615000Y-125480000D03*
X152615000Y-128020000D03*
X152615000Y-130560000D03*
X152615000Y-133100000D03*
X152615000Y-135640000D03*
X150075000Y-122940000D03*
X150075000Y-125480000D03*
X150075000Y-128020000D03*
X150075000Y-130560000D03*
X150075000Y-133100000D03*
X150075000Y-135640000D03*
X147535000Y-122940000D03*
X147535000Y-125480000D03*
X147535000Y-128020000D03*
X147535000Y-130560000D03*
X147535000Y-133100000D03*
X147535000Y-135640000D03*
X144995000Y-122940000D03*
X144995000Y-125480000D03*
X144995000Y-128020000D03*
X144995000Y-130560000D03*
X144995000Y-133100000D03*
X144995000Y-135640000D03*
X142455000Y-122940000D03*
X142455000Y-125480000D03*
X142455000Y-128020000D03*
X142455000Y-130560000D03*
X142455000Y-133100000D03*
X142455000Y-135640000D03*
X139915000Y-122940000D03*
X139915000Y-125480000D03*
X139915000Y-128020000D03*
X139915000Y-130560000D03*
X139915000Y-133100000D03*
X139915000Y-135640000D03*
X137375000Y-122940000D03*
X137375000Y-125480000D03*
X137375000Y-128020000D03*
X137375000Y-130560000D03*
X137375000Y-133100000D03*
X137375000Y-135640000D03*
X134835000Y-122940000D03*
X134835000Y-125480000D03*
X134835000Y-128020000D03*
X134835000Y-130560000D03*
X134835000Y-133100000D03*
X134835000Y-135640000D03*
X132295000Y-122940000D03*
X132295000Y-125480000D03*
X132295000Y-128020000D03*
X132295000Y-130560000D03*
X132295000Y-133100000D03*
X132295000Y-135640000D03*
X129755000Y-122940000D03*
X129755000Y-125480000D03*
X129755000Y-128020000D03*
X129755000Y-130560000D03*
X129755000Y-133100000D03*
X129755000Y-135640000D03*
X127215000Y-122940000D03*
X127215000Y-125480000D03*
X127215000Y-128020000D03*
X127215000Y-130560000D03*
X127215000Y-133100000D03*
X127215000Y-135640000D03*
X124675000Y-122940000D03*
X124675000Y-125480000D03*
X124675000Y-128020000D03*
X124675000Y-130560000D03*
X124675000Y-133100000D03*
X124675000Y-135640000D03*
D14*
X124645000Y-92325000D03*
X124645000Y-89785000D03*
X124645000Y-87245000D03*
X124645000Y-84705000D03*
D12*
X127185000Y-92325000D03*
X127185000Y-89785000D03*
X127185000Y-87245000D03*
X127185000Y-84705000D03*
X129725000Y-92325000D03*
X129725000Y-89785000D03*
X129725000Y-87245000D03*
X129725000Y-84705000D03*
X132265000Y-92325000D03*
X132265000Y-89785000D03*
X132265000Y-87245000D03*
X132265000Y-84705000D03*
X134805000Y-92325000D03*
X134805000Y-89785000D03*
X134805000Y-87245000D03*
X134805000Y-84705000D03*
X137345000Y-92325000D03*
X137345000Y-89785000D03*
X137345000Y-87245000D03*
X137345000Y-84705000D03*
X139885000Y-92325000D03*
X139885000Y-89785000D03*
X139885000Y-87245000D03*
X139885000Y-84705000D03*
X142425000Y-92325000D03*
X142425000Y-89785000D03*
X142425000Y-87245000D03*
X142425000Y-84705000D03*
X144965000Y-92325000D03*
X144965000Y-89785000D03*
X144965000Y-87245000D03*
X144965000Y-84705000D03*
X147505000Y-92325000D03*
X147505000Y-89785000D03*
X147505000Y-87245000D03*
X147505000Y-84705000D03*
X150045000Y-92325000D03*
X150045000Y-89785000D03*
X150045000Y-87245000D03*
X150045000Y-84705000D03*
X152585000Y-92325000D03*
X152585000Y-89785000D03*
X152585000Y-87245000D03*
X152585000Y-84705000D03*
X155125000Y-92325000D03*
X155125000Y-89785000D03*
X155125000Y-87245000D03*
X155125000Y-84705000D03*
X157665000Y-92325000D03*
X157665000Y-89785000D03*
X157665000Y-87245000D03*
X157665000Y-84705000D03*
X160205000Y-92325000D03*
X160205000Y-89785000D03*
X160205000Y-87245000D03*
X160205000Y-84705000D03*
X162745000Y-92325000D03*
X162745000Y-89785000D03*
X162745000Y-87245000D03*
X162745000Y-84705000D03*
X165285000Y-92325000D03*
X165285000Y-89785000D03*
X165285000Y-87245000D03*
X165285000Y-84705000D03*
X167825000Y-92325000D03*
X167825000Y-89785000D03*
X167825000Y-87245000D03*
X167825000Y-84705000D03*
X170365000Y-92325000D03*
X170365000Y-89785000D03*
X170365000Y-87245000D03*
X170365000Y-84705000D03*
X172905000Y-92325000D03*
X172905000Y-89785000D03*
X172905000Y-87245000D03*
X172905000Y-84705000D03*
%LPD*%
M02*
