G04 #@! TF.GenerationSoftware,KiCad,Pcbnew,8.0.8*
G04 #@! TF.CreationDate,2025-02-19T14:06:16-05:00*
G04 #@! TF.ProjectId,plot_gerbers,706c6f74-5f67-4657-9262-6572732e6b69,rev?*
G04 #@! TF.SameCoordinates,Original*
G04 #@! TF.FileFunction,Soldermask,Top*
G04 #@! TF.FilePolarity,Negative*
%FSLAX46Y46*%
G04 Gerber Fmt 4.6, Leading zero omitted, Abs format (unit mm)*
G04 Created by KiCad (PCBNEW 8.0.8) date 2025-02-19 14:06:16*
%MOMM*%
%LPD*%
G01*
G04 APERTURE LIST*
%ADD10R,1.700000X1.700000*%
%ADD11O,1.700000X1.700000*%
%ADD12R,1.500000X1.500000*%
%ADD13C,1.700000*%
G04 APERTURE END LIST*
D10*
X116740000Y-100070000D03*
D11*
X119280000Y-100070000D03*
X116740000Y-102610000D03*
X119280000Y-102610000D03*
X116740000Y-105150000D03*
X119280000Y-105150000D03*
X116740000Y-107690000D03*
X119280000Y-107690000D03*
X116740000Y-110230000D03*
X119280000Y-110230000D03*
X116740000Y-112770000D03*
X119280000Y-112770000D03*
X116740000Y-115310000D03*
X119280000Y-115310000D03*
X116740000Y-117850000D03*
X119280000Y-117850000D03*
X116740000Y-120390000D03*
X119280000Y-120390000D03*
X124695000Y-97260000D03*
X124695000Y-99800000D03*
X127235000Y-97260000D03*
X127235000Y-99800000D03*
X129775000Y-97260000D03*
X129775000Y-99800000D03*
X132315000Y-97260000D03*
X132315000Y-99800000D03*
X134855000Y-97260000D03*
X134855000Y-99800000D03*
X137395000Y-97260000D03*
X137395000Y-99800000D03*
X139935000Y-97260000D03*
X139935000Y-99800000D03*
X142475000Y-97260000D03*
X142475000Y-99800000D03*
X145015000Y-97260000D03*
X145015000Y-99800000D03*
X147555000Y-97260000D03*
X147555000Y-99800000D03*
X150095000Y-97260000D03*
X150095000Y-99800000D03*
X152635000Y-97260000D03*
X152635000Y-99800000D03*
D12*
X119570000Y-135630000D03*
D13*
X172935000Y-105160000D03*
X172935000Y-107700000D03*
X172935000Y-110240000D03*
X172935000Y-112780000D03*
X172935000Y-115320000D03*
X172935000Y-117860000D03*
D11*
X170395000Y-105160000D03*
X170395000Y-107700000D03*
X170395000Y-110240000D03*
X170395000Y-112780000D03*
X170395000Y-115320000D03*
X170395000Y-117860000D03*
X167855000Y-105160000D03*
X167855000Y-107700000D03*
X167855000Y-110240000D03*
X167855000Y-112780000D03*
X167855000Y-115320000D03*
X167855000Y-117860000D03*
X165315000Y-105160000D03*
X165315000Y-107700000D03*
X165315000Y-110240000D03*
X165315000Y-112780000D03*
X165315000Y-115320000D03*
X165315000Y-117860000D03*
X162775000Y-105160000D03*
X162775000Y-107700000D03*
X162775000Y-110240000D03*
X162775000Y-112780000D03*
X162775000Y-115320000D03*
X162775000Y-117860000D03*
X160235000Y-105160000D03*
X160235000Y-107700000D03*
X160235000Y-110240000D03*
X160235000Y-112780000D03*
X160235000Y-115320000D03*
X160235000Y-117860000D03*
X157695000Y-105160000D03*
X157695000Y-107700000D03*
X157695000Y-110240000D03*
X157695000Y-112780000D03*
X157695000Y-115320000D03*
X157695000Y-117860000D03*
X155155000Y-105160000D03*
X155155000Y-107700000D03*
X155155000Y-110240000D03*
X155155000Y-112780000D03*
X155155000Y-115320000D03*
X155155000Y-117860000D03*
X152615000Y-105160000D03*
X152615000Y-107700000D03*
X152615000Y-110240000D03*
X152615000Y-112780000D03*
X152615000Y-115320000D03*
X152615000Y-117860000D03*
X150075000Y-105160000D03*
X150075000Y-107700000D03*
X150075000Y-110240000D03*
X150075000Y-112780000D03*
X150075000Y-115320000D03*
X150075000Y-117860000D03*
X147535000Y-105160000D03*
X147535000Y-107700000D03*
X147535000Y-110240000D03*
X147535000Y-112780000D03*
X147535000Y-115320000D03*
X147535000Y-117860000D03*
X144995000Y-105160000D03*
X144995000Y-107700000D03*
X144995000Y-110240000D03*
X144995000Y-112780000D03*
X144995000Y-115320000D03*
X144995000Y-117860000D03*
X142455000Y-105160000D03*
X142455000Y-107700000D03*
X142455000Y-110240000D03*
X142455000Y-112780000D03*
X142455000Y-115320000D03*
X142455000Y-117860000D03*
X139915000Y-105160000D03*
X139915000Y-107700000D03*
X139915000Y-110240000D03*
X139915000Y-112780000D03*
X139915000Y-115320000D03*
X139915000Y-117860000D03*
X137375000Y-105160000D03*
X137375000Y-107700000D03*
X137375000Y-110240000D03*
X137375000Y-112780000D03*
X137375000Y-115320000D03*
X137375000Y-117860000D03*
X134835000Y-105160000D03*
X134835000Y-107700000D03*
X134835000Y-110240000D03*
X134835000Y-112780000D03*
X134835000Y-115320000D03*
X134835000Y-117860000D03*
X132295000Y-105160000D03*
X132295000Y-107700000D03*
X132295000Y-110240000D03*
X132295000Y-112780000D03*
X132295000Y-115320000D03*
X132295000Y-117860000D03*
X129755000Y-105160000D03*
X129755000Y-107700000D03*
X129755000Y-110240000D03*
X129755000Y-112780000D03*
X129755000Y-115320000D03*
X129755000Y-117860000D03*
X127215000Y-105160000D03*
X127215000Y-107700000D03*
X127215000Y-110240000D03*
X127215000Y-112780000D03*
X127215000Y-115320000D03*
X127215000Y-117860000D03*
X124675000Y-105160000D03*
X124675000Y-107700000D03*
X124675000Y-110240000D03*
X124675000Y-112780000D03*
X124675000Y-115320000D03*
X124675000Y-117860000D03*
D13*
X172935000Y-122940000D03*
X172935000Y-125480000D03*
X172935000Y-128020000D03*
X172935000Y-130560000D03*
X172935000Y-133100000D03*
X172935000Y-135640000D03*
D11*
X170395000Y-122940000D03*
X170395000Y-125480000D03*
X170395000Y-128020000D03*
X170395000Y-130560000D03*
X170395000Y-133100000D03*
X170395000Y-135640000D03*
X167855000Y-122940000D03*
X167855000Y-125480000D03*
X167855000Y-128020000D03*
X167855000Y-130560000D03*
X167855000Y-133100000D03*
X167855000Y-135640000D03*
X165315000Y-122940000D03*
X165315000Y-125480000D03*
X165315000Y-128020000D03*
X165315000Y-130560000D03*
X165315000Y-133100000D03*
X165315000Y-135640000D03*
X162775000Y-122940000D03*
X162775000Y-125480000D03*
X162775000Y-128020000D03*
X162775000Y-130560000D03*
X162775000Y-133100000D03*
X162775000Y-135640000D03*
X160235000Y-122940000D03*
X160235000Y-125480000D03*
X160235000Y-128020000D03*
X160235000Y-130560000D03*
X160235000Y-133100000D03*
X160235000Y-135640000D03*
X157695000Y-122940000D03*
X157695000Y-125480000D03*
X157695000Y-128020000D03*
X157695000Y-130560000D03*
X157695000Y-133100000D03*
X157695000Y-135640000D03*
X155155000Y-122940000D03*
X155155000Y-125480000D03*
X155155000Y-128020000D03*
X155155000Y-130560000D03*
X155155000Y-133100000D03*
X155155000Y-135640000D03*
X152615000Y-122940000D03*
X152615000Y-125480000D03*
X152615000Y-128020000D03*
X152615000Y-130560000D03*
X152615000Y-133100000D03*
X152615000Y-135640000D03*
X150075000Y-122940000D03*
X150075000Y-125480000D03*
X150075000Y-128020000D03*
X150075000Y-130560000D03*
X150075000Y-133100000D03*
X150075000Y-135640000D03*
X147535000Y-122940000D03*
X147535000Y-125480000D03*
X147535000Y-128020000D03*
X147535000Y-130560000D03*
X147535000Y-133100000D03*
X147535000Y-135640000D03*
X144995000Y-122940000D03*
X144995000Y-125480000D03*
X144995000Y-128020000D03*
X144995000Y-130560000D03*
X144995000Y-133100000D03*
X144995000Y-135640000D03*
X142455000Y-122940000D03*
X142455000Y-125480000D03*
X142455000Y-128020000D03*
X142455000Y-130560000D03*
X142455000Y-133100000D03*
X142455000Y-135640000D03*
X139915000Y-122940000D03*
X139915000Y-125480000D03*
X139915000Y-128020000D03*
X139915000Y-130560000D03*
X139915000Y-133100000D03*
X139915000Y-135640000D03*
X137375000Y-122940000D03*
X137375000Y-125480000D03*
X137375000Y-128020000D03*
X137375000Y-130560000D03*
X137375000Y-133100000D03*
X137375000Y-135640000D03*
X134835000Y-122940000D03*
X134835000Y-125480000D03*
X134835000Y-128020000D03*
X134835000Y-130560000D03*
X134835000Y-133100000D03*
X134835000Y-135640000D03*
X132295000Y-122940000D03*
X132295000Y-125480000D03*
X132295000Y-128020000D03*
X132295000Y-130560000D03*
X132295000Y-133100000D03*
X132295000Y-135640000D03*
X129755000Y-122940000D03*
X129755000Y-125480000D03*
X129755000Y-128020000D03*
X129755000Y-130560000D03*
X129755000Y-133100000D03*
X129755000Y-135640000D03*
X127215000Y-122940000D03*
X127215000Y-125480000D03*
X127215000Y-128020000D03*
X127215000Y-130560000D03*
X127215000Y-133100000D03*
X127215000Y-135640000D03*
X124675000Y-122940000D03*
X124675000Y-125480000D03*
X124675000Y-128020000D03*
X124675000Y-130560000D03*
X124675000Y-133100000D03*
X124675000Y-135640000D03*
D13*
X124645000Y-92325000D03*
X124645000Y-89785000D03*
X124645000Y-87245000D03*
X124645000Y-84705000D03*
D11*
X127185000Y-92325000D03*
X127185000Y-89785000D03*
X127185000Y-87245000D03*
X127185000Y-84705000D03*
X129725000Y-92325000D03*
X129725000Y-89785000D03*
X129725000Y-87245000D03*
X129725000Y-84705000D03*
X132265000Y-92325000D03*
X132265000Y-89785000D03*
X132265000Y-87245000D03*
X132265000Y-84705000D03*
X134805000Y-92325000D03*
X134805000Y-89785000D03*
X134805000Y-87245000D03*
X134805000Y-84705000D03*
X137345000Y-92325000D03*
X137345000Y-89785000D03*
X137345000Y-87245000D03*
X137345000Y-84705000D03*
X139885000Y-92325000D03*
X139885000Y-89785000D03*
X139885000Y-87245000D03*
X139885000Y-84705000D03*
X142425000Y-92325000D03*
X142425000Y-89785000D03*
X142425000Y-87245000D03*
X142425000Y-84705000D03*
X144965000Y-92325000D03*
X144965000Y-89785000D03*
X144965000Y-87245000D03*
X144965000Y-84705000D03*
X147505000Y-92325000D03*
X147505000Y-89785000D03*
X147505000Y-87245000D03*
X147505000Y-84705000D03*
X150045000Y-92325000D03*
X150045000Y-89785000D03*
X150045000Y-87245000D03*
X150045000Y-84705000D03*
X152585000Y-92325000D03*
X152585000Y-89785000D03*
X152585000Y-87245000D03*
X152585000Y-84705000D03*
X155125000Y-92325000D03*
X155125000Y-89785000D03*
X155125000Y-87245000D03*
X155125000Y-84705000D03*
X157665000Y-92325000D03*
X157665000Y-89785000D03*
X157665000Y-87245000D03*
X157665000Y-84705000D03*
X160205000Y-92325000D03*
X160205000Y-89785000D03*
X160205000Y-87245000D03*
X160205000Y-84705000D03*
X162745000Y-92325000D03*
X162745000Y-89785000D03*
X162745000Y-87245000D03*
X162745000Y-84705000D03*
X165285000Y-92325000D03*
X165285000Y-89785000D03*
X165285000Y-87245000D03*
X165285000Y-84705000D03*
X167825000Y-92325000D03*
X167825000Y-89785000D03*
X167825000Y-87245000D03*
X167825000Y-84705000D03*
X170365000Y-92325000D03*
X170365000Y-89785000D03*
X170365000Y-87245000D03*
X170365000Y-84705000D03*
X172905000Y-92325000D03*
X172905000Y-89785000D03*
X172905000Y-87245000D03*
X172905000Y-84705000D03*
M02*
