M48
; DRILL file {KiCad 8.0.8} date 2025-02-19T14:06:18-0500
; FORMAT={-:-/ absolute / metric / decimal}
; #@! TF.CreationDate,2025-02-19T14:06:18-05:00
; #@! TF.GenerationSoftware,Kicad,Pcbnew,8.0.8
; #@! TF.FileFunction,Plated,1,2,PTH
FMAT,2
METRIC
; #@! TA.AperFunction,Plated,PTH,ComponentDrill
T1C0.700
; #@! TA.AperFunction,Plated,PTH,ComponentDrill
T2C1.000
%
G90
G05
T1
X119.57Y-135.63
T2
X116.74Y-100.07
X116.74Y-102.61
X116.74Y-105.15
X116.74Y-107.69
X116.74Y-110.23
X116.74Y-112.77
X116.74Y-115.31
X116.74Y-117.85
X116.74Y-120.39
X119.28Y-100.07
X119.28Y-102.61
X119.28Y-105.15
X119.28Y-107.69
X119.28Y-110.23
X119.28Y-112.77
X119.28Y-115.31
X119.28Y-117.85
X119.28Y-120.39
X124.645Y-84.705
X124.645Y-87.245
X124.645Y-89.785
X124.645Y-92.325
X124.675Y-105.16
X124.675Y-107.7
X124.675Y-110.24
X124.675Y-112.78
X124.675Y-115.32
X124.675Y-117.86
X124.675Y-122.94
X124.675Y-125.48
X124.675Y-128.02
X124.675Y-130.56
X124.675Y-133.1
X124.675Y-135.64
X124.695Y-97.26
X124.695Y-99.8
X127.185Y-84.705
X127.185Y-87.245
X127.185Y-89.785
X127.185Y-92.325
X127.215Y-105.16
X127.215Y-107.7
X127.215Y-110.24
X127.215Y-112.78
X127.215Y-115.32
X127.215Y-117.86
X127.215Y-122.94
X127.215Y-125.48
X127.215Y-128.02
X127.215Y-130.56
X127.215Y-133.1
X127.215Y-135.64
X127.235Y-97.26
X127.235Y-99.8
X129.725Y-84.705
X129.725Y-87.245
X129.725Y-89.785
X129.725Y-92.325
X129.755Y-105.16
X129.755Y-107.7
X129.755Y-110.24
X129.755Y-112.78
X129.755Y-115.32
X129.755Y-117.86
X129.755Y-122.94
X129.755Y-125.48
X129.755Y-128.02
X129.755Y-130.56
X129.755Y-133.1
X129.755Y-135.64
X129.775Y-97.26
X129.775Y-99.8
X132.265Y-84.705
X132.265Y-87.245
X132.265Y-89.785
X132.265Y-92.325
X132.295Y-105.16
X132.295Y-107.7
X132.295Y-110.24
X132.295Y-112.78
X132.295Y-115.32
X132.295Y-117.86
X132.295Y-122.94
X132.295Y-125.48
X132.295Y-128.02
X132.295Y-130.56
X132.295Y-133.1
X132.295Y-135.64
X132.315Y-97.26
X132.315Y-99.8
X134.805Y-84.705
X134.805Y-87.245
X134.805Y-89.785
X134.805Y-92.325
X134.835Y-105.16
X134.835Y-107.7
X134.835Y-110.24
X134.835Y-112.78
X134.835Y-115.32
X134.835Y-117.86
X134.835Y-122.94
X134.835Y-125.48
X134.835Y-128.02
X134.835Y-130.56
X134.835Y-133.1
X134.835Y-135.64
X134.855Y-97.26
X134.855Y-99.8
X137.345Y-84.705
X137.345Y-87.245
X137.345Y-89.785
X137.345Y-92.325
X137.375Y-105.16
X137.375Y-107.7
X137.375Y-110.24
X137.375Y-112.78
X137.375Y-115.32
X137.375Y-117.86
X137.375Y-122.94
X137.375Y-125.48
X137.375Y-128.02
X137.375Y-130.56
X137.375Y-133.1
X137.375Y-135.64
X137.395Y-97.26
X137.395Y-99.8
X139.885Y-84.705
X139.885Y-87.245
X139.885Y-89.785
X139.885Y-92.325
X139.915Y-105.16
X139.915Y-107.7
X139.915Y-110.24
X139.915Y-112.78
X139.915Y-115.32
X139.915Y-117.86
X139.915Y-122.94
X139.915Y-125.48
X139.915Y-128.02
X139.915Y-130.56
X139.915Y-133.1
X139.915Y-135.64
X139.935Y-97.26
X139.935Y-99.8
X142.425Y-84.705
X142.425Y-87.245
X142.425Y-89.785
X142.425Y-92.325
X142.455Y-105.16
X142.455Y-107.7
X142.455Y-110.24
X142.455Y-112.78
X142.455Y-115.32
X142.455Y-117.86
X142.455Y-122.94
X142.455Y-125.48
X142.455Y-128.02
X142.455Y-130.56
X142.455Y-133.1
X142.455Y-135.64
X142.475Y-97.26
X142.475Y-99.8
X144.965Y-84.705
X144.965Y-87.245
X144.965Y-89.785
X144.965Y-92.325
X144.995Y-105.16
X144.995Y-107.7
X144.995Y-110.24
X144.995Y-112.78
X144.995Y-115.32
X144.995Y-117.86
X144.995Y-122.94
X144.995Y-125.48
X144.995Y-128.02
X144.995Y-130.56
X144.995Y-133.1
X144.995Y-135.64
X145.015Y-97.26
X145.015Y-99.8
X147.505Y-84.705
X147.505Y-87.245
X147.505Y-89.785
X147.505Y-92.325
X147.535Y-105.16
X147.535Y-107.7
X147.535Y-110.24
X147.535Y-112.78
X147.535Y-115.32
X147.535Y-117.86
X147.535Y-122.94
X147.535Y-125.48
X147.535Y-128.02
X147.535Y-130.56
X147.535Y-133.1
X147.535Y-135.64
X147.555Y-97.26
X147.555Y-99.8
X150.045Y-84.705
X150.045Y-87.245
X150.045Y-89.785
X150.045Y-92.325
X150.075Y-105.16
X150.075Y-107.7
X150.075Y-110.24
X150.075Y-112.78
X150.075Y-115.32
X150.075Y-117.86
X150.075Y-122.94
X150.075Y-125.48
X150.075Y-128.02
X150.075Y-130.56
X150.075Y-133.1
X150.075Y-135.64
X150.095Y-97.26
X150.095Y-99.8
X152.585Y-84.705
X152.585Y-87.245
X152.585Y-89.785
X152.585Y-92.325
X152.615Y-105.16
X152.615Y-107.7
X152.615Y-110.24
X152.615Y-112.78
X152.615Y-115.32
X152.615Y-117.86
X152.615Y-122.94
X152.615Y-125.48
X152.615Y-128.02
X152.615Y-130.56
X152.615Y-133.1
X152.615Y-135.64
X152.635Y-97.26
X152.635Y-99.8
X155.125Y-84.705
X155.125Y-87.245
X155.125Y-89.785
X155.125Y-92.325
X155.155Y-105.16
X155.155Y-107.7
X155.155Y-110.24
X155.155Y-112.78
X155.155Y-115.32
X155.155Y-117.86
X155.155Y-122.94
X155.155Y-125.48
X155.155Y-128.02
X155.155Y-130.56
X155.155Y-133.1
X155.155Y-135.64
X157.665Y-84.705
X157.665Y-87.245
X157.665Y-89.785
X157.665Y-92.325
X157.695Y-105.16
X157.695Y-107.7
X157.695Y-110.24
X157.695Y-112.78
X157.695Y-115.32
X157.695Y-117.86
X157.695Y-122.94
X157.695Y-125.48
X157.695Y-128.02
X157.695Y-130.56
X157.695Y-133.1
X157.695Y-135.64
X160.205Y-84.705
X160.205Y-87.245
X160.205Y-89.785
X160.205Y-92.325
X160.235Y-105.16
X160.235Y-107.7
X160.235Y-110.24
X160.235Y-112.78
X160.235Y-115.32
X160.235Y-117.86
X160.235Y-122.94
X160.235Y-125.48
X160.235Y-128.02
X160.235Y-130.56
X160.235Y-133.1
X160.235Y-135.64
X162.745Y-84.705
X162.745Y-87.245
X162.745Y-89.785
X162.745Y-92.325
X162.775Y-105.16
X162.775Y-107.7
X162.775Y-110.24
X162.775Y-112.78
X162.775Y-115.32
X162.775Y-117.86
X162.775Y-122.94
X162.775Y-125.48
X162.775Y-128.02
X162.775Y-130.56
X162.775Y-133.1
X162.775Y-135.64
X165.285Y-84.705
X165.285Y-87.245
X165.285Y-89.785
X165.285Y-92.325
X165.315Y-105.16
X165.315Y-107.7
X165.315Y-110.24
X165.315Y-112.78
X165.315Y-115.32
X165.315Y-117.86
X165.315Y-122.94
X165.315Y-125.48
X165.315Y-128.02
X165.315Y-130.56
X165.315Y-133.1
X165.315Y-135.64
X167.825Y-84.705
X167.825Y-87.245
X167.825Y-89.785
X167.825Y-92.325
X167.855Y-105.16
X167.855Y-107.7
X167.855Y-110.24
X167.855Y-112.78
X167.855Y-115.32
X167.855Y-117.86
X167.855Y-122.94
X167.855Y-125.48
X167.855Y-128.02
X167.855Y-130.56
X167.855Y-133.1
X167.855Y-135.64
X170.365Y-84.705
X170.365Y-87.245
X170.365Y-89.785
X170.365Y-92.325
X170.395Y-105.16
X170.395Y-107.7
X170.395Y-110.24
X170.395Y-112.78
X170.395Y-115.32
X170.395Y-117.86
X170.395Y-122.94
X170.395Y-125.48
X170.395Y-128.02
X170.395Y-130.56
X170.395Y-133.1
X170.395Y-135.64
X172.905Y-84.705
X172.905Y-87.245
X172.905Y-89.785
X172.905Y-92.325
X172.935Y-105.16
X172.935Y-107.7
X172.935Y-110.24
X172.935Y-112.78
X172.935Y-115.32
X172.935Y-117.86
X172.935Y-122.94
X172.935Y-125.48
X172.935Y-128.02
X172.935Y-130.56
X172.935Y-133.1
X172.935Y-135.64
M30
