G04 #@! TF.GenerationSoftware,KiCad,Pcbnew,8.0.8*
G04 #@! TF.CreationDate,2025-02-19T14:06:16-05:00*
G04 #@! TF.ProjectId,plot_gerbers,706c6f74-5f67-4657-9262-6572732e6b69,rev?*
G04 #@! TF.SameCoordinates,Original*
G04 #@! TF.FileFunction,Legend,Top*
G04 #@! TF.FilePolarity,Positive*
%FSLAX46Y46*%
G04 Gerber Fmt 4.6, Leading zero omitted, Abs format (unit mm)*
G04 Created by KiCad (PCBNEW 8.0.8) date 2025-02-19 14:06:16*
%MOMM*%
%LPD*%
G01*
G04 APERTURE LIST*
%ADD10C,0.150000*%
%ADD11C,0.120000*%
%ADD12R,1.700000X1.700000*%
%ADD13O,1.700000X1.700000*%
%ADD14R,1.500000X1.500000*%
%ADD15C,1.700000*%
G04 APERTURE END LIST*
D10*
X115813264Y-96813220D02*
X116813264Y-96813220D01*
X115860883Y-96813220D02*
X115813264Y-96717982D01*
X115813264Y-96717982D02*
X115813264Y-96527506D01*
X115813264Y-96527506D02*
X115860883Y-96432268D01*
X115860883Y-96432268D02*
X115908502Y-96384649D01*
X115908502Y-96384649D02*
X116003740Y-96337030D01*
X116003740Y-96337030D02*
X116289454Y-96337030D01*
X116289454Y-96337030D02*
X116384692Y-96384649D01*
X116384692Y-96384649D02*
X116432312Y-96432268D01*
X116432312Y-96432268D02*
X116479931Y-96527506D01*
X116479931Y-96527506D02*
X116479931Y-96717982D01*
X116479931Y-96717982D02*
X116432312Y-96813220D01*
X116432312Y-95479887D02*
X116479931Y-95575125D01*
X116479931Y-95575125D02*
X116479931Y-95765601D01*
X116479931Y-95765601D02*
X116432312Y-95860839D01*
X116432312Y-95860839D02*
X116384692Y-95908458D01*
X116384692Y-95908458D02*
X116289454Y-95956077D01*
X116289454Y-95956077D02*
X116003740Y-95956077D01*
X116003740Y-95956077D02*
X115908502Y-95908458D01*
X115908502Y-95908458D02*
X115860883Y-95860839D01*
X115860883Y-95860839D02*
X115813264Y-95765601D01*
X115813264Y-95765601D02*
X115813264Y-95575125D01*
X115813264Y-95575125D02*
X115860883Y-95479887D01*
X116479931Y-95051315D02*
X115479931Y-95051315D01*
X115860883Y-95051315D02*
X115813264Y-94956077D01*
X115813264Y-94956077D02*
X115813264Y-94765601D01*
X115813264Y-94765601D02*
X115860883Y-94670363D01*
X115860883Y-94670363D02*
X115908502Y-94622744D01*
X115908502Y-94622744D02*
X116003740Y-94575125D01*
X116003740Y-94575125D02*
X116289454Y-94575125D01*
X116289454Y-94575125D02*
X116384692Y-94622744D01*
X116384692Y-94622744D02*
X116432312Y-94670363D01*
X116432312Y-94670363D02*
X116479931Y-94765601D01*
X116479931Y-94765601D02*
X116479931Y-94956077D01*
X116479931Y-94956077D02*
X116432312Y-95051315D01*
X115479931Y-94241791D02*
X115479931Y-93622744D01*
X115479931Y-93622744D02*
X115860883Y-93956077D01*
X115860883Y-93956077D02*
X115860883Y-93813220D01*
X115860883Y-93813220D02*
X115908502Y-93717982D01*
X115908502Y-93717982D02*
X115956121Y-93670363D01*
X115956121Y-93670363D02*
X116051359Y-93622744D01*
X116051359Y-93622744D02*
X116289454Y-93622744D01*
X116289454Y-93622744D02*
X116384692Y-93670363D01*
X116384692Y-93670363D02*
X116432312Y-93717982D01*
X116432312Y-93717982D02*
X116479931Y-93813220D01*
X116479931Y-93813220D02*
X116479931Y-94098934D01*
X116479931Y-94098934D02*
X116432312Y-94194172D01*
X116432312Y-94194172D02*
X116384692Y-94241791D01*
X115956121Y-92098934D02*
X116003740Y-91956077D01*
X116003740Y-91956077D02*
X116051359Y-91908458D01*
X116051359Y-91908458D02*
X116146597Y-91860839D01*
X116146597Y-91860839D02*
X116289454Y-91860839D01*
X116289454Y-91860839D02*
X116384692Y-91908458D01*
X116384692Y-91908458D02*
X116432312Y-91956077D01*
X116432312Y-91956077D02*
X116479931Y-92051315D01*
X116479931Y-92051315D02*
X116479931Y-92432267D01*
X116479931Y-92432267D02*
X115479931Y-92432267D01*
X115479931Y-92432267D02*
X115479931Y-92098934D01*
X115479931Y-92098934D02*
X115527550Y-92003696D01*
X115527550Y-92003696D02*
X115575169Y-91956077D01*
X115575169Y-91956077D02*
X115670407Y-91908458D01*
X115670407Y-91908458D02*
X115765645Y-91908458D01*
X115765645Y-91908458D02*
X115860883Y-91956077D01*
X115860883Y-91956077D02*
X115908502Y-92003696D01*
X115908502Y-92003696D02*
X115956121Y-92098934D01*
X115956121Y-92098934D02*
X115956121Y-92432267D01*
X116384692Y-90860839D02*
X116432312Y-90908458D01*
X116432312Y-90908458D02*
X116479931Y-91051315D01*
X116479931Y-91051315D02*
X116479931Y-91146553D01*
X116479931Y-91146553D02*
X116432312Y-91289410D01*
X116432312Y-91289410D02*
X116337073Y-91384648D01*
X116337073Y-91384648D02*
X116241835Y-91432267D01*
X116241835Y-91432267D02*
X116051359Y-91479886D01*
X116051359Y-91479886D02*
X115908502Y-91479886D01*
X115908502Y-91479886D02*
X115718026Y-91432267D01*
X115718026Y-91432267D02*
X115622788Y-91384648D01*
X115622788Y-91384648D02*
X115527550Y-91289410D01*
X115527550Y-91289410D02*
X115479931Y-91146553D01*
X115479931Y-91146553D02*
X115479931Y-91051315D01*
X115479931Y-91051315D02*
X115527550Y-90908458D01*
X115527550Y-90908458D02*
X115575169Y-90860839D01*
X115479931Y-90527505D02*
X115479931Y-89860839D01*
X115479931Y-89860839D02*
X116479931Y-90289410D01*
X116479931Y-88956077D02*
X116479931Y-89527505D01*
X116479931Y-89241791D02*
X115479931Y-89241791D01*
X115479931Y-89241791D02*
X115622788Y-89337029D01*
X115622788Y-89337029D02*
X115718026Y-89432267D01*
X115718026Y-89432267D02*
X115765645Y-89527505D01*
X116432312Y-88479886D02*
X116479931Y-88479886D01*
X116479931Y-88479886D02*
X116575169Y-88527505D01*
X116575169Y-88527505D02*
X116622788Y-88575124D01*
X115479931Y-87622744D02*
X115479931Y-87813220D01*
X115479931Y-87813220D02*
X115527550Y-87908458D01*
X115527550Y-87908458D02*
X115575169Y-87956077D01*
X115575169Y-87956077D02*
X115718026Y-88051315D01*
X115718026Y-88051315D02*
X115908502Y-88098934D01*
X115908502Y-88098934D02*
X116289454Y-88098934D01*
X116289454Y-88098934D02*
X116384692Y-88051315D01*
X116384692Y-88051315D02*
X116432312Y-88003696D01*
X116432312Y-88003696D02*
X116479931Y-87908458D01*
X116479931Y-87908458D02*
X116479931Y-87717982D01*
X116479931Y-87717982D02*
X116432312Y-87622744D01*
X116432312Y-87622744D02*
X116384692Y-87575125D01*
X116384692Y-87575125D02*
X116289454Y-87527506D01*
X116289454Y-87527506D02*
X116051359Y-87527506D01*
X116051359Y-87527506D02*
X115956121Y-87575125D01*
X115956121Y-87575125D02*
X115908502Y-87622744D01*
X115908502Y-87622744D02*
X115860883Y-87717982D01*
X115860883Y-87717982D02*
X115860883Y-87908458D01*
X115860883Y-87908458D02*
X115908502Y-88003696D01*
X115908502Y-88003696D02*
X115956121Y-88051315D01*
X115956121Y-88051315D02*
X116051359Y-88098934D01*
X115479931Y-86337029D02*
X116289454Y-86337029D01*
X116289454Y-86337029D02*
X116384692Y-86289410D01*
X116384692Y-86289410D02*
X116432312Y-86241791D01*
X116432312Y-86241791D02*
X116479931Y-86146553D01*
X116479931Y-86146553D02*
X116479931Y-85956077D01*
X116479931Y-85956077D02*
X116432312Y-85860839D01*
X116432312Y-85860839D02*
X116384692Y-85813220D01*
X116384692Y-85813220D02*
X116289454Y-85765601D01*
X116289454Y-85765601D02*
X115479931Y-85765601D01*
X115479931Y-85432267D02*
X115479931Y-84860839D01*
X116479931Y-85146553D02*
X115479931Y-85146553D01*
X116098978Y-84527505D02*
X116098978Y-83765601D01*
X116479931Y-82765601D02*
X116479931Y-83337029D01*
X116479931Y-83051315D02*
X115479931Y-83051315D01*
X115479931Y-83051315D02*
X115622788Y-83146553D01*
X115622788Y-83146553D02*
X115718026Y-83241791D01*
X115718026Y-83241791D02*
X115765645Y-83337029D01*
X116479931Y-81813220D02*
X116479931Y-82384648D01*
X116479931Y-82098934D02*
X115479931Y-82098934D01*
X115479931Y-82098934D02*
X115622788Y-82194172D01*
X115622788Y-82194172D02*
X115718026Y-82289410D01*
X115718026Y-82289410D02*
X115765645Y-82384648D01*
X115479931Y-81337029D02*
X115670407Y-81432267D01*
X117518446Y-96670363D02*
X117470827Y-96765601D01*
X117470827Y-96765601D02*
X117423208Y-96813220D01*
X117423208Y-96813220D02*
X117327970Y-96860839D01*
X117327970Y-96860839D02*
X117280351Y-96860839D01*
X117280351Y-96860839D02*
X117185113Y-96813220D01*
X117185113Y-96813220D02*
X117137494Y-96765601D01*
X117137494Y-96765601D02*
X117089875Y-96670363D01*
X117089875Y-96670363D02*
X117089875Y-96479887D01*
X117089875Y-96479887D02*
X117137494Y-96384649D01*
X117137494Y-96384649D02*
X117185113Y-96337030D01*
X117185113Y-96337030D02*
X117280351Y-96289411D01*
X117280351Y-96289411D02*
X117327970Y-96289411D01*
X117327970Y-96289411D02*
X117423208Y-96337030D01*
X117423208Y-96337030D02*
X117470827Y-96384649D01*
X117470827Y-96384649D02*
X117518446Y-96479887D01*
X117518446Y-96479887D02*
X117518446Y-96670363D01*
X117518446Y-96670363D02*
X117566065Y-96765601D01*
X117566065Y-96765601D02*
X117613684Y-96813220D01*
X117613684Y-96813220D02*
X117708922Y-96860839D01*
X117708922Y-96860839D02*
X117899398Y-96860839D01*
X117899398Y-96860839D02*
X117994636Y-96813220D01*
X117994636Y-96813220D02*
X118042256Y-96765601D01*
X118042256Y-96765601D02*
X118089875Y-96670363D01*
X118089875Y-96670363D02*
X118089875Y-96479887D01*
X118089875Y-96479887D02*
X118042256Y-96384649D01*
X118042256Y-96384649D02*
X117994636Y-96337030D01*
X117994636Y-96337030D02*
X117899398Y-96289411D01*
X117899398Y-96289411D02*
X117708922Y-96289411D01*
X117708922Y-96289411D02*
X117613684Y-96337030D01*
X117613684Y-96337030D02*
X117566065Y-96384649D01*
X117566065Y-96384649D02*
X117518446Y-96479887D01*
X118042256Y-95813220D02*
X118089875Y-95813220D01*
X118089875Y-95813220D02*
X118185113Y-95860839D01*
X118185113Y-95860839D02*
X118232732Y-95908458D01*
X117089875Y-94956078D02*
X117089875Y-95146554D01*
X117089875Y-95146554D02*
X117137494Y-95241792D01*
X117137494Y-95241792D02*
X117185113Y-95289411D01*
X117185113Y-95289411D02*
X117327970Y-95384649D01*
X117327970Y-95384649D02*
X117518446Y-95432268D01*
X117518446Y-95432268D02*
X117899398Y-95432268D01*
X117899398Y-95432268D02*
X117994636Y-95384649D01*
X117994636Y-95384649D02*
X118042256Y-95337030D01*
X118042256Y-95337030D02*
X118089875Y-95241792D01*
X118089875Y-95241792D02*
X118089875Y-95051316D01*
X118089875Y-95051316D02*
X118042256Y-94956078D01*
X118042256Y-94956078D02*
X117994636Y-94908459D01*
X117994636Y-94908459D02*
X117899398Y-94860840D01*
X117899398Y-94860840D02*
X117661303Y-94860840D01*
X117661303Y-94860840D02*
X117566065Y-94908459D01*
X117566065Y-94908459D02*
X117518446Y-94956078D01*
X117518446Y-94956078D02*
X117470827Y-95051316D01*
X117470827Y-95051316D02*
X117470827Y-95241792D01*
X117470827Y-95241792D02*
X117518446Y-95337030D01*
X117518446Y-95337030D02*
X117566065Y-95384649D01*
X117566065Y-95384649D02*
X117661303Y-95432268D01*
X118042256Y-93241792D02*
X118089875Y-93337030D01*
X118089875Y-93337030D02*
X118089875Y-93527506D01*
X118089875Y-93527506D02*
X118042256Y-93622744D01*
X118042256Y-93622744D02*
X117994636Y-93670363D01*
X117994636Y-93670363D02*
X117899398Y-93717982D01*
X117899398Y-93717982D02*
X117613684Y-93717982D01*
X117613684Y-93717982D02*
X117518446Y-93670363D01*
X117518446Y-93670363D02*
X117470827Y-93622744D01*
X117470827Y-93622744D02*
X117423208Y-93527506D01*
X117423208Y-93527506D02*
X117423208Y-93337030D01*
X117423208Y-93337030D02*
X117470827Y-93241792D01*
X118089875Y-92670363D02*
X118042256Y-92765601D01*
X118042256Y-92765601D02*
X117947017Y-92813220D01*
X117947017Y-92813220D02*
X117089875Y-92813220D01*
X118042256Y-91908458D02*
X118089875Y-92003696D01*
X118089875Y-92003696D02*
X118089875Y-92194172D01*
X118089875Y-92194172D02*
X118042256Y-92289410D01*
X118042256Y-92289410D02*
X117947017Y-92337029D01*
X117947017Y-92337029D02*
X117566065Y-92337029D01*
X117566065Y-92337029D02*
X117470827Y-92289410D01*
X117470827Y-92289410D02*
X117423208Y-92194172D01*
X117423208Y-92194172D02*
X117423208Y-92003696D01*
X117423208Y-92003696D02*
X117470827Y-91908458D01*
X117470827Y-91908458D02*
X117566065Y-91860839D01*
X117566065Y-91860839D02*
X117661303Y-91860839D01*
X117661303Y-91860839D02*
X117756541Y-92337029D01*
X118089875Y-91003696D02*
X117566065Y-91003696D01*
X117566065Y-91003696D02*
X117470827Y-91051315D01*
X117470827Y-91051315D02*
X117423208Y-91146553D01*
X117423208Y-91146553D02*
X117423208Y-91337029D01*
X117423208Y-91337029D02*
X117470827Y-91432267D01*
X118042256Y-91003696D02*
X118089875Y-91098934D01*
X118089875Y-91098934D02*
X118089875Y-91337029D01*
X118089875Y-91337029D02*
X118042256Y-91432267D01*
X118042256Y-91432267D02*
X117947017Y-91479886D01*
X117947017Y-91479886D02*
X117851779Y-91479886D01*
X117851779Y-91479886D02*
X117756541Y-91432267D01*
X117756541Y-91432267D02*
X117708922Y-91337029D01*
X117708922Y-91337029D02*
X117708922Y-91098934D01*
X117708922Y-91098934D02*
X117661303Y-91003696D01*
X118089875Y-90527505D02*
X117423208Y-90527505D01*
X117613684Y-90527505D02*
X117518446Y-90479886D01*
X117518446Y-90479886D02*
X117470827Y-90432267D01*
X117470827Y-90432267D02*
X117423208Y-90337029D01*
X117423208Y-90337029D02*
X117423208Y-90241791D01*
X118089875Y-89479886D02*
X117566065Y-89479886D01*
X117566065Y-89479886D02*
X117470827Y-89527505D01*
X117470827Y-89527505D02*
X117423208Y-89622743D01*
X117423208Y-89622743D02*
X117423208Y-89813219D01*
X117423208Y-89813219D02*
X117470827Y-89908457D01*
X118042256Y-89479886D02*
X118089875Y-89575124D01*
X118089875Y-89575124D02*
X118089875Y-89813219D01*
X118089875Y-89813219D02*
X118042256Y-89908457D01*
X118042256Y-89908457D02*
X117947017Y-89956076D01*
X117947017Y-89956076D02*
X117851779Y-89956076D01*
X117851779Y-89956076D02*
X117756541Y-89908457D01*
X117756541Y-89908457D02*
X117708922Y-89813219D01*
X117708922Y-89813219D02*
X117708922Y-89575124D01*
X117708922Y-89575124D02*
X117661303Y-89479886D01*
X117423208Y-89003695D02*
X118089875Y-89003695D01*
X117518446Y-89003695D02*
X117470827Y-88956076D01*
X117470827Y-88956076D02*
X117423208Y-88860838D01*
X117423208Y-88860838D02*
X117423208Y-88717981D01*
X117423208Y-88717981D02*
X117470827Y-88622743D01*
X117470827Y-88622743D02*
X117566065Y-88575124D01*
X117566065Y-88575124D02*
X118089875Y-88575124D01*
X118042256Y-87670362D02*
X118089875Y-87765600D01*
X118089875Y-87765600D02*
X118089875Y-87956076D01*
X118089875Y-87956076D02*
X118042256Y-88051314D01*
X118042256Y-88051314D02*
X117994636Y-88098933D01*
X117994636Y-88098933D02*
X117899398Y-88146552D01*
X117899398Y-88146552D02*
X117613684Y-88146552D01*
X117613684Y-88146552D02*
X117518446Y-88098933D01*
X117518446Y-88098933D02*
X117470827Y-88051314D01*
X117470827Y-88051314D02*
X117423208Y-87956076D01*
X117423208Y-87956076D02*
X117423208Y-87765600D01*
X117423208Y-87765600D02*
X117470827Y-87670362D01*
X118042256Y-86860838D02*
X118089875Y-86956076D01*
X118089875Y-86956076D02*
X118089875Y-87146552D01*
X118089875Y-87146552D02*
X118042256Y-87241790D01*
X118042256Y-87241790D02*
X117947017Y-87289409D01*
X117947017Y-87289409D02*
X117566065Y-87289409D01*
X117566065Y-87289409D02*
X117470827Y-87241790D01*
X117470827Y-87241790D02*
X117423208Y-87146552D01*
X117423208Y-87146552D02*
X117423208Y-86956076D01*
X117423208Y-86956076D02*
X117470827Y-86860838D01*
X117470827Y-86860838D02*
X117566065Y-86813219D01*
X117566065Y-86813219D02*
X117661303Y-86813219D01*
X117661303Y-86813219D02*
X117756541Y-87289409D01*
X119699819Y-96813220D02*
X119033152Y-96813220D01*
X119223628Y-96813220D02*
X119128390Y-96765601D01*
X119128390Y-96765601D02*
X119080771Y-96717982D01*
X119080771Y-96717982D02*
X119033152Y-96622744D01*
X119033152Y-96622744D02*
X119033152Y-96527506D01*
X119652200Y-95813220D02*
X119699819Y-95908458D01*
X119699819Y-95908458D02*
X119699819Y-96098934D01*
X119699819Y-96098934D02*
X119652200Y-96194172D01*
X119652200Y-96194172D02*
X119556961Y-96241791D01*
X119556961Y-96241791D02*
X119176009Y-96241791D01*
X119176009Y-96241791D02*
X119080771Y-96194172D01*
X119080771Y-96194172D02*
X119033152Y-96098934D01*
X119033152Y-96098934D02*
X119033152Y-95908458D01*
X119033152Y-95908458D02*
X119080771Y-95813220D01*
X119080771Y-95813220D02*
X119176009Y-95765601D01*
X119176009Y-95765601D02*
X119271247Y-95765601D01*
X119271247Y-95765601D02*
X119366485Y-96241791D01*
X119033152Y-95432267D02*
X119699819Y-95194172D01*
X119699819Y-95194172D02*
X119033152Y-94956077D01*
X118699819Y-94384648D02*
X118699819Y-94289410D01*
X118699819Y-94289410D02*
X118747438Y-94194172D01*
X118747438Y-94194172D02*
X118795057Y-94146553D01*
X118795057Y-94146553D02*
X118890295Y-94098934D01*
X118890295Y-94098934D02*
X119080771Y-94051315D01*
X119080771Y-94051315D02*
X119318866Y-94051315D01*
X119318866Y-94051315D02*
X119509342Y-94098934D01*
X119509342Y-94098934D02*
X119604580Y-94146553D01*
X119604580Y-94146553D02*
X119652200Y-94194172D01*
X119652200Y-94194172D02*
X119699819Y-94289410D01*
X119699819Y-94289410D02*
X119699819Y-94384648D01*
X119699819Y-94384648D02*
X119652200Y-94479886D01*
X119652200Y-94479886D02*
X119604580Y-94527505D01*
X119604580Y-94527505D02*
X119509342Y-94575124D01*
X119509342Y-94575124D02*
X119318866Y-94622743D01*
X119318866Y-94622743D02*
X119080771Y-94622743D01*
X119080771Y-94622743D02*
X118890295Y-94575124D01*
X118890295Y-94575124D02*
X118795057Y-94527505D01*
X118795057Y-94527505D02*
X118747438Y-94479886D01*
X118747438Y-94479886D02*
X118699819Y-94384648D01*
X119699819Y-93098934D02*
X119699819Y-93670362D01*
X119699819Y-93384648D02*
X118699819Y-93384648D01*
X118699819Y-93384648D02*
X118842676Y-93479886D01*
X118842676Y-93479886D02*
X118937914Y-93575124D01*
X118937914Y-93575124D02*
X118985533Y-93670362D01*
X119795057Y-92908458D02*
X119795057Y-92146553D01*
X119033152Y-92051314D02*
X119033152Y-91670362D01*
X119699819Y-91908457D02*
X118842676Y-91908457D01*
X118842676Y-91908457D02*
X118747438Y-91860838D01*
X118747438Y-91860838D02*
X118699819Y-91765600D01*
X118699819Y-91765600D02*
X118699819Y-91670362D01*
X119652200Y-90956076D02*
X119699819Y-91051314D01*
X119699819Y-91051314D02*
X119699819Y-91241790D01*
X119699819Y-91241790D02*
X119652200Y-91337028D01*
X119652200Y-91337028D02*
X119556961Y-91384647D01*
X119556961Y-91384647D02*
X119176009Y-91384647D01*
X119176009Y-91384647D02*
X119080771Y-91337028D01*
X119080771Y-91337028D02*
X119033152Y-91241790D01*
X119033152Y-91241790D02*
X119033152Y-91051314D01*
X119033152Y-91051314D02*
X119080771Y-90956076D01*
X119080771Y-90956076D02*
X119176009Y-90908457D01*
X119176009Y-90908457D02*
X119271247Y-90908457D01*
X119271247Y-90908457D02*
X119366485Y-91384647D01*
X119699819Y-90479885D02*
X118699819Y-90479885D01*
X119080771Y-90479885D02*
X119033152Y-90384647D01*
X119033152Y-90384647D02*
X119033152Y-90194171D01*
X119033152Y-90194171D02*
X119080771Y-90098933D01*
X119080771Y-90098933D02*
X119128390Y-90051314D01*
X119128390Y-90051314D02*
X119223628Y-90003695D01*
X119223628Y-90003695D02*
X119509342Y-90003695D01*
X119509342Y-90003695D02*
X119604580Y-90051314D01*
X119604580Y-90051314D02*
X119652200Y-90098933D01*
X119652200Y-90098933D02*
X119699819Y-90194171D01*
X119699819Y-90194171D02*
X119699819Y-90384647D01*
X119699819Y-90384647D02*
X119652200Y-90479885D01*
X118795057Y-89622742D02*
X118747438Y-89575123D01*
X118747438Y-89575123D02*
X118699819Y-89479885D01*
X118699819Y-89479885D02*
X118699819Y-89241790D01*
X118699819Y-89241790D02*
X118747438Y-89146552D01*
X118747438Y-89146552D02*
X118795057Y-89098933D01*
X118795057Y-89098933D02*
X118890295Y-89051314D01*
X118890295Y-89051314D02*
X118985533Y-89051314D01*
X118985533Y-89051314D02*
X119128390Y-89098933D01*
X119128390Y-89098933D02*
X119699819Y-89670361D01*
X119699819Y-89670361D02*
X119699819Y-89051314D01*
X118699819Y-88146552D02*
X118699819Y-88622742D01*
X118699819Y-88622742D02*
X119176009Y-88670361D01*
X119176009Y-88670361D02*
X119128390Y-88622742D01*
X119128390Y-88622742D02*
X119080771Y-88527504D01*
X119080771Y-88527504D02*
X119080771Y-88289409D01*
X119080771Y-88289409D02*
X119128390Y-88194171D01*
X119128390Y-88194171D02*
X119176009Y-88146552D01*
X119176009Y-88146552D02*
X119271247Y-88098933D01*
X119271247Y-88098933D02*
X119509342Y-88098933D01*
X119509342Y-88098933D02*
X119604580Y-88146552D01*
X119604580Y-88146552D02*
X119652200Y-88194171D01*
X119652200Y-88194171D02*
X119699819Y-88289409D01*
X119699819Y-88289409D02*
X119699819Y-88527504D01*
X119699819Y-88527504D02*
X119652200Y-88622742D01*
X119652200Y-88622742D02*
X119604580Y-88670361D01*
X118849523Y-137348152D02*
X118849523Y-138157676D01*
X118849523Y-138157676D02*
X118801904Y-138252914D01*
X118801904Y-138252914D02*
X118754285Y-138300533D01*
X118754285Y-138300533D02*
X118659047Y-138348152D01*
X118659047Y-138348152D02*
X118516190Y-138348152D01*
X118516190Y-138348152D02*
X118420952Y-138300533D01*
X118849523Y-137967200D02*
X118754285Y-138014819D01*
X118754285Y-138014819D02*
X118563809Y-138014819D01*
X118563809Y-138014819D02*
X118468571Y-137967200D01*
X118468571Y-137967200D02*
X118420952Y-137919580D01*
X118420952Y-137919580D02*
X118373333Y-137824342D01*
X118373333Y-137824342D02*
X118373333Y-137538628D01*
X118373333Y-137538628D02*
X118420952Y-137443390D01*
X118420952Y-137443390D02*
X118468571Y-137395771D01*
X118468571Y-137395771D02*
X118563809Y-137348152D01*
X118563809Y-137348152D02*
X118754285Y-137348152D01*
X118754285Y-137348152D02*
X118849523Y-137395771D01*
X119325714Y-137348152D02*
X119325714Y-138014819D01*
X119325714Y-137443390D02*
X119373333Y-137395771D01*
X119373333Y-137395771D02*
X119468571Y-137348152D01*
X119468571Y-137348152D02*
X119611428Y-137348152D01*
X119611428Y-137348152D02*
X119706666Y-137395771D01*
X119706666Y-137395771D02*
X119754285Y-137491009D01*
X119754285Y-137491009D02*
X119754285Y-138014819D01*
X120659047Y-138014819D02*
X120659047Y-137014819D01*
X120659047Y-137967200D02*
X120563809Y-138014819D01*
X120563809Y-138014819D02*
X120373333Y-138014819D01*
X120373333Y-138014819D02*
X120278095Y-137967200D01*
X120278095Y-137967200D02*
X120230476Y-137919580D01*
X120230476Y-137919580D02*
X120182857Y-137824342D01*
X120182857Y-137824342D02*
X120182857Y-137538628D01*
X120182857Y-137538628D02*
X120230476Y-137443390D01*
X120230476Y-137443390D02*
X120278095Y-137395771D01*
X120278095Y-137395771D02*
X120373333Y-137348152D01*
X120373333Y-137348152D02*
X120563809Y-137348152D01*
X120563809Y-137348152D02*
X120659047Y-137395771D01*
D11*
X115410000Y-98740000D02*
X116740000Y-98740000D01*
X115410000Y-100070000D02*
X115410000Y-98740000D01*
X115410000Y-101340000D02*
X115410000Y-121720000D01*
X115410000Y-101340000D02*
X118010000Y-101340000D01*
X115410000Y-121720000D02*
X120610000Y-121720000D01*
X118010000Y-98740000D02*
X120610000Y-98740000D01*
X118010000Y-101340000D02*
X118010000Y-98740000D01*
X120610000Y-98740000D02*
X120610000Y-121720000D01*
X118620000Y-134680000D02*
X120520000Y-134680000D01*
X118620000Y-136580000D02*
X118620000Y-134680000D01*
X120520000Y-134680000D02*
X120520000Y-136580000D01*
X120520000Y-136580000D02*
X118620000Y-136580000D01*
X175475000Y-120400000D02*
X122135000Y-120400000D01*
%LPC*%
D12*
X116740000Y-100070000D03*
D13*
X119280000Y-100070000D03*
X116740000Y-102610000D03*
X119280000Y-102610000D03*
X116740000Y-105150000D03*
X119280000Y-105150000D03*
X116740000Y-107690000D03*
X119280000Y-107690000D03*
X116740000Y-110230000D03*
X119280000Y-110230000D03*
X116740000Y-112770000D03*
X119280000Y-112770000D03*
X116740000Y-115310000D03*
X119280000Y-115310000D03*
X116740000Y-117850000D03*
X119280000Y-117850000D03*
X116740000Y-120390000D03*
X119280000Y-120390000D03*
X124695000Y-97260000D03*
X124695000Y-99800000D03*
X127235000Y-97260000D03*
X127235000Y-99800000D03*
X129775000Y-97260000D03*
X129775000Y-99800000D03*
X132315000Y-97260000D03*
X132315000Y-99800000D03*
X134855000Y-97260000D03*
X134855000Y-99800000D03*
X137395000Y-97260000D03*
X137395000Y-99800000D03*
X139935000Y-97260000D03*
X139935000Y-99800000D03*
X142475000Y-97260000D03*
X142475000Y-99800000D03*
X145015000Y-97260000D03*
X145015000Y-99800000D03*
X147555000Y-97260000D03*
X147555000Y-99800000D03*
X150095000Y-97260000D03*
X150095000Y-99800000D03*
X152635000Y-97260000D03*
X152635000Y-99800000D03*
D14*
X119570000Y-135630000D03*
D15*
X172935000Y-105160000D03*
X172935000Y-107700000D03*
X172935000Y-110240000D03*
X172935000Y-112780000D03*
X172935000Y-115320000D03*
X172935000Y-117860000D03*
D13*
X170395000Y-105160000D03*
X170395000Y-107700000D03*
X170395000Y-110240000D03*
X170395000Y-112780000D03*
X170395000Y-115320000D03*
X170395000Y-117860000D03*
X167855000Y-105160000D03*
X167855000Y-107700000D03*
X167855000Y-110240000D03*
X167855000Y-112780000D03*
X167855000Y-115320000D03*
X167855000Y-117860000D03*
X165315000Y-105160000D03*
X165315000Y-107700000D03*
X165315000Y-110240000D03*
X165315000Y-112780000D03*
X165315000Y-115320000D03*
X165315000Y-117860000D03*
X162775000Y-105160000D03*
X162775000Y-107700000D03*
X162775000Y-110240000D03*
X162775000Y-112780000D03*
X162775000Y-115320000D03*
X162775000Y-117860000D03*
X160235000Y-105160000D03*
X160235000Y-107700000D03*
X160235000Y-110240000D03*
X160235000Y-112780000D03*
X160235000Y-115320000D03*
X160235000Y-117860000D03*
X157695000Y-105160000D03*
X157695000Y-107700000D03*
X157695000Y-110240000D03*
X157695000Y-112780000D03*
X157695000Y-115320000D03*
X157695000Y-117860000D03*
X155155000Y-105160000D03*
X155155000Y-107700000D03*
X155155000Y-110240000D03*
X155155000Y-112780000D03*
X155155000Y-115320000D03*
X155155000Y-117860000D03*
X152615000Y-105160000D03*
X152615000Y-107700000D03*
X152615000Y-110240000D03*
X152615000Y-112780000D03*
X152615000Y-115320000D03*
X152615000Y-117860000D03*
X150075000Y-105160000D03*
X150075000Y-107700000D03*
X150075000Y-110240000D03*
X150075000Y-112780000D03*
X150075000Y-115320000D03*
X150075000Y-117860000D03*
X147535000Y-105160000D03*
X147535000Y-107700000D03*
X147535000Y-110240000D03*
X147535000Y-112780000D03*
X147535000Y-115320000D03*
X147535000Y-117860000D03*
X144995000Y-105160000D03*
X144995000Y-107700000D03*
X144995000Y-110240000D03*
X144995000Y-112780000D03*
X144995000Y-115320000D03*
X144995000Y-117860000D03*
X142455000Y-105160000D03*
X142455000Y-107700000D03*
X142455000Y-110240000D03*
X142455000Y-112780000D03*
X142455000Y-115320000D03*
X142455000Y-117860000D03*
X139915000Y-105160000D03*
X139915000Y-107700000D03*
X139915000Y-110240000D03*
X139915000Y-112780000D03*
X139915000Y-115320000D03*
X139915000Y-117860000D03*
X137375000Y-105160000D03*
X137375000Y-107700000D03*
X137375000Y-110240000D03*
X137375000Y-112780000D03*
X137375000Y-115320000D03*
X137375000Y-117860000D03*
X134835000Y-105160000D03*
X134835000Y-107700000D03*
X134835000Y-110240000D03*
X134835000Y-112780000D03*
X134835000Y-115320000D03*
X134835000Y-117860000D03*
X132295000Y-105160000D03*
X132295000Y-107700000D03*
X132295000Y-110240000D03*
X132295000Y-112780000D03*
X132295000Y-115320000D03*
X132295000Y-117860000D03*
X129755000Y-105160000D03*
X129755000Y-107700000D03*
X129755000Y-110240000D03*
X129755000Y-112780000D03*
X129755000Y-115320000D03*
X129755000Y-117860000D03*
X127215000Y-105160000D03*
X127215000Y-107700000D03*
X127215000Y-110240000D03*
X127215000Y-112780000D03*
X127215000Y-115320000D03*
X127215000Y-117860000D03*
X124675000Y-105160000D03*
X124675000Y-107700000D03*
X124675000Y-110240000D03*
X124675000Y-112780000D03*
X124675000Y-115320000D03*
X124675000Y-117860000D03*
D15*
X172935000Y-122940000D03*
X172935000Y-125480000D03*
X172935000Y-128020000D03*
X172935000Y-130560000D03*
X172935000Y-133100000D03*
X172935000Y-135640000D03*
D13*
X170395000Y-122940000D03*
X170395000Y-125480000D03*
X170395000Y-128020000D03*
X170395000Y-130560000D03*
X170395000Y-133100000D03*
X170395000Y-135640000D03*
X167855000Y-122940000D03*
X167855000Y-125480000D03*
X167855000Y-128020000D03*
X167855000Y-130560000D03*
X167855000Y-133100000D03*
X167855000Y-135640000D03*
X165315000Y-122940000D03*
X165315000Y-125480000D03*
X165315000Y-128020000D03*
X165315000Y-130560000D03*
X165315000Y-133100000D03*
X165315000Y-135640000D03*
X162775000Y-122940000D03*
X162775000Y-125480000D03*
X162775000Y-128020000D03*
X162775000Y-130560000D03*
X162775000Y-133100000D03*
X162775000Y-135640000D03*
X160235000Y-122940000D03*
X160235000Y-125480000D03*
X160235000Y-128020000D03*
X160235000Y-130560000D03*
X160235000Y-133100000D03*
X160235000Y-135640000D03*
X157695000Y-122940000D03*
X157695000Y-125480000D03*
X157695000Y-128020000D03*
X157695000Y-130560000D03*
X157695000Y-133100000D03*
X157695000Y-135640000D03*
X155155000Y-122940000D03*
X155155000Y-125480000D03*
X155155000Y-128020000D03*
X155155000Y-130560000D03*
X155155000Y-133100000D03*
X155155000Y-135640000D03*
X152615000Y-122940000D03*
X152615000Y-125480000D03*
X152615000Y-128020000D03*
X152615000Y-130560000D03*
X152615000Y-133100000D03*
X152615000Y-135640000D03*
X150075000Y-122940000D03*
X150075000Y-125480000D03*
X150075000Y-128020000D03*
X150075000Y-130560000D03*
X150075000Y-133100000D03*
X150075000Y-135640000D03*
X147535000Y-122940000D03*
X147535000Y-125480000D03*
X147535000Y-128020000D03*
X147535000Y-130560000D03*
X147535000Y-133100000D03*
X147535000Y-135640000D03*
X144995000Y-122940000D03*
X144995000Y-125480000D03*
X144995000Y-128020000D03*
X144995000Y-130560000D03*
X144995000Y-133100000D03*
X144995000Y-135640000D03*
X142455000Y-122940000D03*
X142455000Y-125480000D03*
X142455000Y-128020000D03*
X142455000Y-130560000D03*
X142455000Y-133100000D03*
X142455000Y-135640000D03*
X139915000Y-122940000D03*
X139915000Y-125480000D03*
X139915000Y-128020000D03*
X139915000Y-130560000D03*
X139915000Y-133100000D03*
X139915000Y-135640000D03*
X137375000Y-122940000D03*
X137375000Y-125480000D03*
X137375000Y-128020000D03*
X137375000Y-130560000D03*
X137375000Y-133100000D03*
X137375000Y-135640000D03*
X134835000Y-122940000D03*
X134835000Y-125480000D03*
X134835000Y-128020000D03*
X134835000Y-130560000D03*
X134835000Y-133100000D03*
X134835000Y-135640000D03*
X132295000Y-122940000D03*
X132295000Y-125480000D03*
X132295000Y-128020000D03*
X132295000Y-130560000D03*
X132295000Y-133100000D03*
X132295000Y-135640000D03*
X129755000Y-122940000D03*
X129755000Y-125480000D03*
X129755000Y-128020000D03*
X129755000Y-130560000D03*
X129755000Y-133100000D03*
X129755000Y-135640000D03*
X127215000Y-122940000D03*
X127215000Y-125480000D03*
X127215000Y-128020000D03*
X127215000Y-130560000D03*
X127215000Y-133100000D03*
X127215000Y-135640000D03*
X124675000Y-122940000D03*
X124675000Y-125480000D03*
X124675000Y-128020000D03*
X124675000Y-130560000D03*
X124675000Y-133100000D03*
X124675000Y-135640000D03*
D15*
X124645000Y-92325000D03*
X124645000Y-89785000D03*
X124645000Y-87245000D03*
X124645000Y-84705000D03*
D13*
X127185000Y-92325000D03*
X127185000Y-89785000D03*
X127185000Y-87245000D03*
X127185000Y-84705000D03*
X129725000Y-92325000D03*
X129725000Y-89785000D03*
X129725000Y-87245000D03*
X129725000Y-84705000D03*
X132265000Y-92325000D03*
X132265000Y-89785000D03*
X132265000Y-87245000D03*
X132265000Y-84705000D03*
X134805000Y-92325000D03*
X134805000Y-89785000D03*
X134805000Y-87245000D03*
X134805000Y-84705000D03*
X137345000Y-92325000D03*
X137345000Y-89785000D03*
X137345000Y-87245000D03*
X137345000Y-84705000D03*
X139885000Y-92325000D03*
X139885000Y-89785000D03*
X139885000Y-87245000D03*
X139885000Y-84705000D03*
X142425000Y-92325000D03*
X142425000Y-89785000D03*
X142425000Y-87245000D03*
X142425000Y-84705000D03*
X144965000Y-92325000D03*
X144965000Y-89785000D03*
X144965000Y-87245000D03*
X144965000Y-84705000D03*
X147505000Y-92325000D03*
X147505000Y-89785000D03*
X147505000Y-87245000D03*
X147505000Y-84705000D03*
X150045000Y-92325000D03*
X150045000Y-89785000D03*
X150045000Y-87245000D03*
X150045000Y-84705000D03*
X152585000Y-92325000D03*
X152585000Y-89785000D03*
X152585000Y-87245000D03*
X152585000Y-84705000D03*
X155125000Y-92325000D03*
X155125000Y-89785000D03*
X155125000Y-87245000D03*
X155125000Y-84705000D03*
X157665000Y-92325000D03*
X157665000Y-89785000D03*
X157665000Y-87245000D03*
X157665000Y-84705000D03*
X160205000Y-92325000D03*
X160205000Y-89785000D03*
X160205000Y-87245000D03*
X160205000Y-84705000D03*
X162745000Y-92325000D03*
X162745000Y-89785000D03*
X162745000Y-87245000D03*
X162745000Y-84705000D03*
X165285000Y-92325000D03*
X165285000Y-89785000D03*
X165285000Y-87245000D03*
X165285000Y-84705000D03*
X167825000Y-92325000D03*
X167825000Y-89785000D03*
X167825000Y-87245000D03*
X167825000Y-84705000D03*
X170365000Y-92325000D03*
X170365000Y-89785000D03*
X170365000Y-87245000D03*
X170365000Y-84705000D03*
X172905000Y-92325000D03*
X172905000Y-89785000D03*
X172905000Y-87245000D03*
X172905000Y-84705000D03*
%LPD*%
M02*
