M48
; DRILL file {KiCad 8.0.8} date 2025-02-19T14:34:18-0500
; FORMAT={-:-/ absolute / metric / decimal}
; #@! TF.CreationDate,2025-02-19T14:34:18-05:00
; #@! TF.GenerationSoftware,Kicad,Pcbnew,8.0.8
; #@! TF.FileFunction,Plated,1,2,PTH
FMAT,2
METRIC
; #@! TA.AperFunction,Plated,PTH,ViaDrill
T1C0.300
; #@! TA.AperFunction,Plated,PTH,ComponentDrill
T2C1.000
; #@! TA.AperFunction,Plated,PTH,ComponentDrill
T3C1.300
; #@! TA.AperFunction,Plated,PTH,ComponentDrill
T4C1.500
%
G90
G05
T1
X119.54Y-65.318
X119.54Y-67.85
X119.54Y-70.382
X119.56Y-119.02
X119.56Y-121.552
X119.56Y-124.084
X119.99Y-81.504
X119.99Y-84.036
X119.99Y-86.568
X119.99Y-89.1
X119.99Y-91.632
X120.14Y-97.668
X120.14Y-100.2
X120.14Y-102.732
X120.14Y-105.264
X120.14Y-107.796
X120.14Y-110.329
X120.14Y-112.861
X120.14Y-115.393
X123.425Y-80.28
X123.76Y-74.44
X124.958Y-74.44
X125.22Y-71.0
X125.35Y-80.27
X129.45Y-89.962
X134.002Y-84.812
X134.45Y-64.06
X134.46Y-65.65
X135.463Y-76.212
X135.94Y-94.525
X137.56Y-66.1
X138.61Y-78.75
X139.627Y-81.888
X140.092Y-66.1
X140.94Y-67.02
X142.987Y-69.125
X144.4Y-100.37
X145.47Y-118.68
X145.47Y-119.465
X145.47Y-120.25
X146.0Y-96.37
X147.105Y-66.895
X147.38Y-114.435
X147.38Y-115.22
X147.38Y-116.005
X147.52Y-89.35
X151.13Y-96.07
X152.32Y-84.87
X152.875Y-100.1
X153.44Y-86.575
X154.54Y-115.16
X154.54Y-115.945
X154.54Y-116.73
X154.75Y-77.52
X154.75Y-80.052
X154.75Y-82.584
X156.205Y-69.485
X156.27Y-118.66
X156.27Y-119.445
X156.27Y-120.23
X160.34Y-68.39
X162.39Y-83.71
X162.39Y-84.712
X162.63Y-67.54
X162.63Y-70.072
X162.63Y-72.604
X164.338Y-86.52
X165.34Y-86.52
X165.46Y-67.54
X165.46Y-70.072
X165.46Y-72.604
X167.97Y-67.52
X167.97Y-70.052
X167.97Y-72.584
X170.51Y-67.52
X170.51Y-70.052
X170.51Y-72.584
X173.08Y-67.506
X173.08Y-70.038
X173.08Y-72.57
X173.96Y-127.44
X176.07Y-67.508
X176.07Y-70.04
X176.07Y-72.572
X178.14Y-67.41
X179.5Y-67.4
X180.4Y-110.74
X182.85Y-97.164
X182.85Y-99.696
X182.85Y-102.229
X182.85Y-104.761
X182.85Y-107.293
X182.85Y-109.825
X182.85Y-112.357
X182.85Y-114.889
X183.17Y-89.893
X183.17Y-92.425
X183.18Y-87.368
X183.29Y-74.7
X183.29Y-77.232
X183.64Y-80.488
X183.64Y-83.02
X183.94Y-119.046
X183.94Y-121.578
X183.94Y-124.11
X183.98Y-65.178
X183.98Y-67.71
X183.98Y-70.242
T2
X122.58Y-84.49
X122.58Y-87.03
X122.58Y-89.57
X122.58Y-92.11
X122.58Y-94.65
X122.58Y-97.19
X122.58Y-99.73
X122.58Y-102.27
X122.58Y-104.81
X125.12Y-84.49
X125.12Y-87.03
X125.12Y-89.57
X125.12Y-92.11
X125.12Y-94.65
X125.12Y-97.19
X125.12Y-99.73
X125.12Y-102.27
X125.12Y-104.81
X162.92Y-56.135
X162.92Y-58.675
X164.8Y-81.65
X164.8Y-84.19
X165.46Y-56.135
X165.46Y-58.675
X167.34Y-81.65
X167.34Y-84.19
X168.0Y-56.135
X168.0Y-58.675
X169.88Y-81.65
X169.88Y-84.19
X170.54Y-56.135
X170.54Y-58.675
X172.42Y-81.65
X172.42Y-84.19
X173.08Y-56.135
X173.08Y-58.675
X174.96Y-81.65
X174.96Y-84.19
X175.62Y-56.135
X175.62Y-58.675
X176.04Y-132.97
X177.5Y-81.65
X177.5Y-84.19
X178.58Y-132.97
X181.12Y-132.97
X183.66Y-132.97
T3
X121.145Y-134.29
X121.34Y-55.265
X126.225Y-134.29
X126.34Y-55.265
X131.305Y-134.29
X131.34Y-55.265
X136.34Y-55.265
X136.385Y-134.29
X141.34Y-55.265
X141.465Y-134.29
X146.34Y-55.265
X146.545Y-134.29
T4
X166.42Y-133.08
X171.42Y-133.08
M30
