%TF.GenerationSoftware,KiCad,Pcbnew,8.0.8*%
%TF.CreationDate,2025-02-19T14:34:19-05:00*%
%TF.ProjectId,afe_230v_16a,6166655f-3233-4307-965f-3136612e6b69,rev?*%
%TF.SameCoordinates,Original*%
%TF.FileFunction,Drillmap*%
%TF.FilePolarity,Positive*%
%FSLAX45Y45*%
G04 Gerber Fmt 4.5, Leading zero omitted, Abs format (unit mm)*
G04 Created by KiCad (PCBNEW 8.0.8) date 2025-02-19 14:34:19*
%MOMM*%
%LPD*%
G01*
G04 APERTURE LIST*
%ADD10C,0.150000*%
%ADD11C,0.200000*%
G04 APERTURE END LIST*
D10*
X15060000Y-6215000D02*
X15060000Y-5430000D01*
X11915000Y-11565000D02*
X11915000Y-7365000D01*
X15865000Y-13785000D02*
G75*
G02*
X15985000Y-13665000I120000J0D01*
G01*
X14965000Y-5145000D02*
X11795000Y-5145000D01*
X17990000Y-13665000D02*
G75*
G02*
X18110000Y-13785000I0J-120000D01*
G01*
X14965000Y-5335000D02*
X14965000Y-5145000D01*
X15060000Y-12715000D02*
G75*
G02*
X15300000Y-12715000I120000J0D01*
G01*
X15395000Y-5335000D02*
X15395000Y-5145000D01*
X15300000Y-13500000D02*
G75*
G02*
X15395000Y-13595000I0J-95000D01*
G01*
X11795000Y-7245000D02*
G75*
G02*
X11915000Y-7365000I0J-120000D01*
G01*
X18095000Y-5145000D02*
G75*
G02*
X17975000Y-5265000I-120000J0D01*
G01*
X18565000Y-13785000D02*
X18110000Y-13785000D01*
X17650000Y-13785000D02*
G75*
G02*
X17770000Y-13665000I120000J0D01*
G01*
X16205000Y-13665000D02*
X15985000Y-13665000D01*
X11795000Y-7245000D02*
X11795000Y-5145000D01*
X14965000Y-13595000D02*
X14965000Y-13785000D01*
X16205000Y-13665000D02*
G75*
G02*
X16325000Y-13785000I0J-120000D01*
G01*
X15865000Y-13785000D02*
X15395000Y-13785000D01*
X17650000Y-13785000D02*
X16325000Y-13785000D01*
X15060000Y-5430000D02*
G75*
G02*
X14965000Y-5335000I0J95000D01*
G01*
X18565000Y-11685000D02*
G75*
G02*
X18445000Y-11565000I0J120000D01*
G01*
X17990000Y-13665000D02*
X17770000Y-13665000D01*
X15970000Y-5265000D02*
X16190000Y-5265000D01*
X15300000Y-5430000D02*
X15300000Y-6215000D01*
X16310000Y-5145000D02*
X17635000Y-5145000D01*
X11795000Y-11685000D02*
X11795000Y-13785000D01*
X18445000Y-7365000D02*
G75*
G02*
X18565000Y-7245000I120000J0D01*
G01*
X17755000Y-5265000D02*
X17975000Y-5265000D01*
X15395000Y-5145000D02*
X15850000Y-5145000D01*
X14965000Y-13595000D02*
G75*
G02*
X15060000Y-13500000I95000J0D01*
G01*
X16310000Y-5145000D02*
G75*
G02*
X16190000Y-5265000I-120000J0D01*
G01*
X15970000Y-5265000D02*
G75*
G02*
X15850000Y-5145000I0J120000D01*
G01*
X15395000Y-5335000D02*
G75*
G02*
X15300000Y-5430000I-95000J0D01*
G01*
X15060000Y-13500000D02*
X15060000Y-12715000D01*
X18445000Y-7365000D02*
X18445000Y-11565000D01*
X18565000Y-7245000D02*
X18565000Y-5145000D01*
X17755000Y-5265000D02*
G75*
G02*
X17635000Y-5145000I0J120000D01*
G01*
X18565000Y-11685000D02*
X18565000Y-13785000D01*
X11915000Y-11565000D02*
G75*
G02*
X11795000Y-11685000I-120000J0D01*
G01*
X15395000Y-13595000D02*
X15395000Y-13785000D01*
X15300000Y-12715000D02*
X15300000Y-13500000D01*
X18095000Y-5145000D02*
X18565000Y-5145000D01*
X15300000Y-6215000D02*
G75*
G02*
X15060000Y-6215000I-120000J0D01*
G01*
X14965000Y-13785000D02*
X11795000Y-13785000D01*
D11*
X12048277Y-14103984D02*
X12048277Y-13903984D01*
X12048277Y-13903984D02*
X12095896Y-13903984D01*
X12095896Y-13903984D02*
X12124467Y-13913508D01*
X12124467Y-13913508D02*
X12143515Y-13932555D01*
X12143515Y-13932555D02*
X12153039Y-13951603D01*
X12153039Y-13951603D02*
X12162562Y-13989698D01*
X12162562Y-13989698D02*
X12162562Y-14018269D01*
X12162562Y-14018269D02*
X12153039Y-14056365D01*
X12153039Y-14056365D02*
X12143515Y-14075412D01*
X12143515Y-14075412D02*
X12124467Y-14094460D01*
X12124467Y-14094460D02*
X12095896Y-14103984D01*
X12095896Y-14103984D02*
X12048277Y-14103984D01*
X12248277Y-14103984D02*
X12248277Y-13970650D01*
X12248277Y-14008746D02*
X12257801Y-13989698D01*
X12257801Y-13989698D02*
X12267324Y-13980174D01*
X12267324Y-13980174D02*
X12286372Y-13970650D01*
X12286372Y-13970650D02*
X12305420Y-13970650D01*
X12372086Y-14103984D02*
X12372086Y-13970650D01*
X12372086Y-13903984D02*
X12362562Y-13913508D01*
X12362562Y-13913508D02*
X12372086Y-13923031D01*
X12372086Y-13923031D02*
X12381610Y-13913508D01*
X12381610Y-13913508D02*
X12372086Y-13903984D01*
X12372086Y-13903984D02*
X12372086Y-13923031D01*
X12495896Y-14103984D02*
X12476848Y-14094460D01*
X12476848Y-14094460D02*
X12467324Y-14075412D01*
X12467324Y-14075412D02*
X12467324Y-13903984D01*
X12600658Y-14103984D02*
X12581610Y-14094460D01*
X12581610Y-14094460D02*
X12572086Y-14075412D01*
X12572086Y-14075412D02*
X12572086Y-13903984D01*
X12829229Y-14103984D02*
X12829229Y-13903984D01*
X12829229Y-13903984D02*
X12895896Y-14046841D01*
X12895896Y-14046841D02*
X12962562Y-13903984D01*
X12962562Y-13903984D02*
X12962562Y-14103984D01*
X13143515Y-14103984D02*
X13143515Y-13999222D01*
X13143515Y-13999222D02*
X13133991Y-13980174D01*
X13133991Y-13980174D02*
X13114943Y-13970650D01*
X13114943Y-13970650D02*
X13076848Y-13970650D01*
X13076848Y-13970650D02*
X13057801Y-13980174D01*
X13143515Y-14094460D02*
X13124467Y-14103984D01*
X13124467Y-14103984D02*
X13076848Y-14103984D01*
X13076848Y-14103984D02*
X13057801Y-14094460D01*
X13057801Y-14094460D02*
X13048277Y-14075412D01*
X13048277Y-14075412D02*
X13048277Y-14056365D01*
X13048277Y-14056365D02*
X13057801Y-14037317D01*
X13057801Y-14037317D02*
X13076848Y-14027793D01*
X13076848Y-14027793D02*
X13124467Y-14027793D01*
X13124467Y-14027793D02*
X13143515Y-14018269D01*
X13238753Y-13970650D02*
X13238753Y-14170650D01*
X13238753Y-13980174D02*
X13257801Y-13970650D01*
X13257801Y-13970650D02*
X13295896Y-13970650D01*
X13295896Y-13970650D02*
X13314943Y-13980174D01*
X13314943Y-13980174D02*
X13324467Y-13989698D01*
X13324467Y-13989698D02*
X13333991Y-14008746D01*
X13333991Y-14008746D02*
X13333991Y-14065888D01*
X13333991Y-14065888D02*
X13324467Y-14084936D01*
X13324467Y-14084936D02*
X13314943Y-14094460D01*
X13314943Y-14094460D02*
X13295896Y-14103984D01*
X13295896Y-14103984D02*
X13257801Y-14103984D01*
X13257801Y-14103984D02*
X13238753Y-14094460D01*
X13419705Y-14084936D02*
X13429229Y-14094460D01*
X13429229Y-14094460D02*
X13419705Y-14103984D01*
X13419705Y-14103984D02*
X13410182Y-14094460D01*
X13410182Y-14094460D02*
X13419705Y-14084936D01*
X13419705Y-14084936D02*
X13419705Y-14103984D01*
X13419705Y-13980174D02*
X13429229Y-13989698D01*
X13429229Y-13989698D02*
X13419705Y-13999222D01*
X13419705Y-13999222D02*
X13410182Y-13989698D01*
X13410182Y-13989698D02*
X13419705Y-13980174D01*
X13419705Y-13980174D02*
X13419705Y-13999222D01*
M02*
