G04 #@! TF.GenerationSoftware,KiCad,Pcbnew,8.0.8*
G04 #@! TF.CreationDate,2025-02-19T14:34:16-05:00*
G04 #@! TF.ProjectId,afe_230v_16a,6166655f-3233-4307-965f-3136612e6b69,rev?*
G04 #@! TF.SameCoordinates,Original*
G04 #@! TF.FileFunction,Legend,Bot*
G04 #@! TF.FilePolarity,Positive*
%FSLAX46Y46*%
G04 Gerber Fmt 4.6, Leading zero omitted, Abs format (unit mm)*
G04 Created by KiCad (PCBNEW 8.0.8) date 2025-02-19 14:34:16*
%MOMM*%
%LPD*%
G01*
G04 APERTURE LIST*
G04 Aperture macros list*
%AMRoundRect*
0 Rectangle with rounded corners*
0 $1 Rounding radius*
0 $2 $3 $4 $5 $6 $7 $8 $9 X,Y pos of 4 corners*
0 Add a 4 corners polygon primitive as box body*
4,1,4,$2,$3,$4,$5,$6,$7,$8,$9,$2,$3,0*
0 Add four circle primitives for the rounded corners*
1,1,$1+$1,$2,$3*
1,1,$1+$1,$4,$5*
1,1,$1+$1,$6,$7*
1,1,$1+$1,$8,$9*
0 Add four rect primitives between the rounded corners*
20,1,$1+$1,$2,$3,$4,$5,0*
20,1,$1+$1,$4,$5,$6,$7,0*
20,1,$1+$1,$6,$7,$8,$9,0*
20,1,$1+$1,$8,$9,$2,$3,0*%
G04 Aperture macros list end*
%ADD10C,0.300000*%
%ADD11C,0.150000*%
%ADD12C,0.120000*%
%ADD13R,1.950000X1.950000*%
%ADD14C,1.950000*%
%ADD15R,1.700000X1.700000*%
%ADD16O,1.700000X1.700000*%
%ADD17R,2.250000X2.250000*%
%ADD18C,2.250000*%
%ADD19RoundRect,0.250000X-0.262500X-0.450000X0.262500X-0.450000X0.262500X0.450000X-0.262500X0.450000X0*%
G04 APERTURE END LIST*
D10*
X164770828Y-106116917D02*
X165842257Y-106116917D01*
X165842257Y-106116917D02*
X166056542Y-106188346D01*
X166056542Y-106188346D02*
X166199400Y-106331203D01*
X166199400Y-106331203D02*
X166270828Y-106545489D01*
X166270828Y-106545489D02*
X166270828Y-106688346D01*
X166270828Y-104688346D02*
X166270828Y-105402632D01*
X166270828Y-105402632D02*
X164770828Y-105402632D01*
X166127971Y-103331203D02*
X166199400Y-103402631D01*
X166199400Y-103402631D02*
X166270828Y-103616917D01*
X166270828Y-103616917D02*
X166270828Y-103759774D01*
X166270828Y-103759774D02*
X166199400Y-103974060D01*
X166199400Y-103974060D02*
X166056542Y-104116917D01*
X166056542Y-104116917D02*
X165913685Y-104188346D01*
X165913685Y-104188346D02*
X165627971Y-104259774D01*
X165627971Y-104259774D02*
X165413685Y-104259774D01*
X165413685Y-104259774D02*
X165127971Y-104188346D01*
X165127971Y-104188346D02*
X164985114Y-104116917D01*
X164985114Y-104116917D02*
X164842257Y-103974060D01*
X164842257Y-103974060D02*
X164770828Y-103759774D01*
X164770828Y-103759774D02*
X164770828Y-103616917D01*
X164770828Y-103616917D02*
X164842257Y-103402631D01*
X164842257Y-103402631D02*
X164913685Y-103331203D01*
X164770828Y-102259774D02*
X165842257Y-102259774D01*
X165842257Y-102259774D02*
X166056542Y-102331203D01*
X166056542Y-102331203D02*
X166199400Y-102474060D01*
X166199400Y-102474060D02*
X166270828Y-102688346D01*
X166270828Y-102688346D02*
X166270828Y-102831203D01*
X166270828Y-100831203D02*
X166270828Y-101545489D01*
X166270828Y-101545489D02*
X164770828Y-101545489D01*
X166127971Y-99474060D02*
X166199400Y-99545488D01*
X166199400Y-99545488D02*
X166270828Y-99759774D01*
X166270828Y-99759774D02*
X166270828Y-99902631D01*
X166270828Y-99902631D02*
X166199400Y-100116917D01*
X166199400Y-100116917D02*
X166056542Y-100259774D01*
X166056542Y-100259774D02*
X165913685Y-100331203D01*
X165913685Y-100331203D02*
X165627971Y-100402631D01*
X165627971Y-100402631D02*
X165413685Y-100402631D01*
X165413685Y-100402631D02*
X165127971Y-100331203D01*
X165127971Y-100331203D02*
X164985114Y-100259774D01*
X164985114Y-100259774D02*
X164842257Y-100116917D01*
X164842257Y-100116917D02*
X164770828Y-99902631D01*
X164770828Y-99902631D02*
X164770828Y-99759774D01*
X164770828Y-99759774D02*
X164842257Y-99545488D01*
X164842257Y-99545488D02*
X164913685Y-99474060D01*
X164770828Y-98402631D02*
X165842257Y-98402631D01*
X165842257Y-98402631D02*
X166056542Y-98474060D01*
X166056542Y-98474060D02*
X166199400Y-98616917D01*
X166199400Y-98616917D02*
X166270828Y-98831203D01*
X166270828Y-98831203D02*
X166270828Y-98974060D01*
X166270828Y-96974060D02*
X166270828Y-97688346D01*
X166270828Y-97688346D02*
X164770828Y-97688346D01*
X166127971Y-95616917D02*
X166199400Y-95688345D01*
X166199400Y-95688345D02*
X166270828Y-95902631D01*
X166270828Y-95902631D02*
X166270828Y-96045488D01*
X166270828Y-96045488D02*
X166199400Y-96259774D01*
X166199400Y-96259774D02*
X166056542Y-96402631D01*
X166056542Y-96402631D02*
X165913685Y-96474060D01*
X165913685Y-96474060D02*
X165627971Y-96545488D01*
X165627971Y-96545488D02*
X165413685Y-96545488D01*
X165413685Y-96545488D02*
X165127971Y-96474060D01*
X165127971Y-96474060D02*
X164985114Y-96402631D01*
X164985114Y-96402631D02*
X164842257Y-96259774D01*
X164842257Y-96259774D02*
X164770828Y-96045488D01*
X164770828Y-96045488D02*
X164770828Y-95902631D01*
X164770828Y-95902631D02*
X164842257Y-95688345D01*
X164842257Y-95688345D02*
X164913685Y-95616917D01*
X164770828Y-94545488D02*
X165842257Y-94545488D01*
X165842257Y-94545488D02*
X166056542Y-94616917D01*
X166056542Y-94616917D02*
X166199400Y-94759774D01*
X166199400Y-94759774D02*
X166270828Y-94974060D01*
X166270828Y-94974060D02*
X166270828Y-95116917D01*
X166270828Y-93116917D02*
X166270828Y-93831203D01*
X166270828Y-93831203D02*
X164770828Y-93831203D01*
X166127971Y-91759774D02*
X166199400Y-91831202D01*
X166199400Y-91831202D02*
X166270828Y-92045488D01*
X166270828Y-92045488D02*
X166270828Y-92188345D01*
X166270828Y-92188345D02*
X166199400Y-92402631D01*
X166199400Y-92402631D02*
X166056542Y-92545488D01*
X166056542Y-92545488D02*
X165913685Y-92616917D01*
X165913685Y-92616917D02*
X165627971Y-92688345D01*
X165627971Y-92688345D02*
X165413685Y-92688345D01*
X165413685Y-92688345D02*
X165127971Y-92616917D01*
X165127971Y-92616917D02*
X164985114Y-92545488D01*
X164985114Y-92545488D02*
X164842257Y-92402631D01*
X164842257Y-92402631D02*
X164770828Y-92188345D01*
X164770828Y-92188345D02*
X164770828Y-92045488D01*
X164770828Y-92045488D02*
X164842257Y-91831202D01*
X164842257Y-91831202D02*
X164913685Y-91759774D01*
D11*
X123407857Y-112784819D02*
X123741190Y-112308628D01*
X123979285Y-112784819D02*
X123979285Y-111784819D01*
X123979285Y-111784819D02*
X123598333Y-111784819D01*
X123598333Y-111784819D02*
X123503095Y-111832438D01*
X123503095Y-111832438D02*
X123455476Y-111880057D01*
X123455476Y-111880057D02*
X123407857Y-111975295D01*
X123407857Y-111975295D02*
X123407857Y-112118152D01*
X123407857Y-112118152D02*
X123455476Y-112213390D01*
X123455476Y-112213390D02*
X123503095Y-112261009D01*
X123503095Y-112261009D02*
X123598333Y-112308628D01*
X123598333Y-112308628D02*
X123979285Y-112308628D01*
X122550714Y-112118152D02*
X122550714Y-112784819D01*
X122788809Y-111737200D02*
X123026904Y-112451485D01*
X123026904Y-112451485D02*
X122407857Y-112451485D01*
X122074523Y-111880057D02*
X122026904Y-111832438D01*
X122026904Y-111832438D02*
X121931666Y-111784819D01*
X121931666Y-111784819D02*
X121693571Y-111784819D01*
X121693571Y-111784819D02*
X121598333Y-111832438D01*
X121598333Y-111832438D02*
X121550714Y-111880057D01*
X121550714Y-111880057D02*
X121503095Y-111975295D01*
X121503095Y-111975295D02*
X121503095Y-112070533D01*
X121503095Y-112070533D02*
X121550714Y-112213390D01*
X121550714Y-112213390D02*
X122122142Y-112784819D01*
X122122142Y-112784819D02*
X121503095Y-112784819D01*
X121744819Y-107527142D02*
X121268628Y-107193809D01*
X121744819Y-106955714D02*
X120744819Y-106955714D01*
X120744819Y-106955714D02*
X120744819Y-107336666D01*
X120744819Y-107336666D02*
X120792438Y-107431904D01*
X120792438Y-107431904D02*
X120840057Y-107479523D01*
X120840057Y-107479523D02*
X120935295Y-107527142D01*
X120935295Y-107527142D02*
X121078152Y-107527142D01*
X121078152Y-107527142D02*
X121173390Y-107479523D01*
X121173390Y-107479523D02*
X121221009Y-107431904D01*
X121221009Y-107431904D02*
X121268628Y-107336666D01*
X121268628Y-107336666D02*
X121268628Y-106955714D01*
X121078152Y-108384285D02*
X121744819Y-108384285D01*
X120697200Y-108146190D02*
X121411485Y-107908095D01*
X121411485Y-107908095D02*
X121411485Y-108527142D01*
X120744819Y-108812857D02*
X120744819Y-109431904D01*
X120744819Y-109431904D02*
X121125771Y-109098571D01*
X121125771Y-109098571D02*
X121125771Y-109241428D01*
X121125771Y-109241428D02*
X121173390Y-109336666D01*
X121173390Y-109336666D02*
X121221009Y-109384285D01*
X121221009Y-109384285D02*
X121316247Y-109431904D01*
X121316247Y-109431904D02*
X121554342Y-109431904D01*
X121554342Y-109431904D02*
X121649580Y-109384285D01*
X121649580Y-109384285D02*
X121697200Y-109336666D01*
X121697200Y-109336666D02*
X121744819Y-109241428D01*
X121744819Y-109241428D02*
X121744819Y-108955714D01*
X121744819Y-108955714D02*
X121697200Y-108860476D01*
X121697200Y-108860476D02*
X121649580Y-108812857D01*
D12*
X123214564Y-109855000D02*
X122760436Y-109855000D01*
X123214564Y-111325000D02*
X122760436Y-111325000D01*
X124034564Y-107445000D02*
X123580436Y-107445000D01*
X124034564Y-108915000D02*
X123580436Y-108915000D01*
%LPC*%
D13*
X121340000Y-55265000D03*
D14*
X126340000Y-55265000D03*
X131340000Y-55265000D03*
X136340000Y-55265000D03*
X141340000Y-55265000D03*
X146340000Y-55265000D03*
D15*
X176040000Y-132970000D03*
D16*
X178580000Y-132970000D03*
X181120000Y-132970000D03*
X183660000Y-132970000D03*
D15*
X162920000Y-58675000D03*
D16*
X162920000Y-56135000D03*
X165460000Y-58675000D03*
X165460000Y-56135000D03*
X168000000Y-58675000D03*
X168000000Y-56135000D03*
X170540000Y-58675000D03*
X170540000Y-56135000D03*
X173080000Y-58675000D03*
X173080000Y-56135000D03*
X175620000Y-58675000D03*
X175620000Y-56135000D03*
D15*
X164800000Y-84190000D03*
D16*
X164800000Y-81650000D03*
X167340000Y-84190000D03*
X167340000Y-81650000D03*
X169880000Y-84190000D03*
X169880000Y-81650000D03*
X172420000Y-84190000D03*
X172420000Y-81650000D03*
X174960000Y-84190000D03*
X174960000Y-81650000D03*
X177500000Y-84190000D03*
X177500000Y-81650000D03*
D17*
X166420000Y-133080000D03*
D18*
X171420000Y-133080000D03*
D13*
X121145000Y-134290000D03*
D14*
X126225000Y-134290000D03*
X131305000Y-134290000D03*
X136385000Y-134290000D03*
X141465000Y-134290000D03*
X146545000Y-134290000D03*
D15*
X122580000Y-84490000D03*
D16*
X125120000Y-84490000D03*
X122580000Y-87030000D03*
X125120000Y-87030000D03*
X122580000Y-89570000D03*
X125120000Y-89570000D03*
X122580000Y-92110000D03*
X125120000Y-92110000D03*
X122580000Y-94650000D03*
X125120000Y-94650000D03*
X122580000Y-97190000D03*
X125120000Y-97190000D03*
X122580000Y-99730000D03*
X125120000Y-99730000D03*
X122580000Y-102270000D03*
X125120000Y-102270000D03*
X122580000Y-104810000D03*
X125120000Y-104810000D03*
D19*
X122075000Y-110590000D03*
X123900000Y-110590000D03*
X122895000Y-108180000D03*
X124720000Y-108180000D03*
%LPD*%
M02*
