G04 #@! TF.GenerationSoftware,KiCad,Pcbnew,8.0.8*
G04 #@! TF.CreationDate,2025-02-19T14:34:16-05:00*
G04 #@! TF.ProjectId,afe_230v_16a,6166655f-3233-4307-965f-3136612e6b69,rev?*
G04 #@! TF.SameCoordinates,Original*
G04 #@! TF.FileFunction,Legend,Top*
G04 #@! TF.FilePolarity,Positive*
%FSLAX46Y46*%
G04 Gerber Fmt 4.6, Leading zero omitted, Abs format (unit mm)*
G04 Created by KiCad (PCBNEW 8.0.8) date 2025-02-19 14:34:16*
%MOMM*%
%LPD*%
G01*
G04 APERTURE LIST*
G04 Aperture macros list*
%AMRoundRect*
0 Rectangle with rounded corners*
0 $1 Rounding radius*
0 $2 $3 $4 $5 $6 $7 $8 $9 X,Y pos of 4 corners*
0 Add a 4 corners polygon primitive as box body*
4,1,4,$2,$3,$4,$5,$6,$7,$8,$9,$2,$3,0*
0 Add four circle primitives for the rounded corners*
1,1,$1+$1,$2,$3*
1,1,$1+$1,$4,$5*
1,1,$1+$1,$6,$7*
1,1,$1+$1,$8,$9*
0 Add four rect primitives between the rounded corners*
20,1,$1+$1,$2,$3,$4,$5,0*
20,1,$1+$1,$4,$5,$6,$7,0*
20,1,$1+$1,$6,$7,$8,$9,0*
20,1,$1+$1,$8,$9,$2,$3,0*%
G04 Aperture macros list end*
%ADD10C,0.100000*%
%ADD11C,0.150000*%
%ADD12C,0.254000*%
%ADD13C,0.120000*%
%ADD14C,0.200000*%
%ADD15RoundRect,0.250000X-0.450000X0.262500X-0.450000X-0.262500X0.450000X-0.262500X0.450000X0.262500X0*%
%ADD16RoundRect,0.250000X0.625000X-0.312500X0.625000X0.312500X-0.625000X0.312500X-0.625000X-0.312500X0*%
%ADD17RoundRect,0.250000X0.450000X-0.262500X0.450000X0.262500X-0.450000X0.262500X-0.450000X-0.262500X0*%
%ADD18RoundRect,0.250000X0.250000X0.250000X-0.250000X0.250000X-0.250000X-0.250000X0.250000X-0.250000X0*%
%ADD19RoundRect,0.140000X-0.140000X-0.170000X0.140000X-0.170000X0.140000X0.170000X-0.140000X0.170000X0*%
%ADD20RoundRect,0.250000X0.262500X0.450000X-0.262500X0.450000X-0.262500X-0.450000X0.262500X-0.450000X0*%
%ADD21RoundRect,0.237500X0.300000X0.237500X-0.300000X0.237500X-0.300000X-0.237500X0.300000X-0.237500X0*%
%ADD22R,1.950000X1.950000*%
%ADD23C,1.950000*%
%ADD24R,1.700000X1.700000*%
%ADD25O,1.700000X1.700000*%
%ADD26RoundRect,0.150000X0.587500X0.150000X-0.587500X0.150000X-0.587500X-0.150000X0.587500X-0.150000X0*%
%ADD27RoundRect,0.150000X-0.512500X-0.150000X0.512500X-0.150000X0.512500X0.150000X-0.512500X0.150000X0*%
%ADD28RoundRect,0.150000X0.150000X-0.825000X0.150000X0.825000X-0.150000X0.825000X-0.150000X-0.825000X0*%
%ADD29RoundRect,0.250000X-0.262500X-0.450000X0.262500X-0.450000X0.262500X0.450000X-0.262500X0.450000X0*%
%ADD30RoundRect,0.249999X-0.450001X0.675001X-0.450001X-0.675001X0.450001X-0.675001X0.450001X0.675001X0*%
%ADD31RoundRect,0.250000X-0.250000X-0.250000X0.250000X-0.250000X0.250000X0.250000X-0.250000X0.250000X0*%
%ADD32R,2.250000X2.250000*%
%ADD33C,2.250000*%
%ADD34RoundRect,0.249999X-0.450001X-1.425001X0.450001X-1.425001X0.450001X1.425001X-0.450001X1.425001X0*%
%ADD35RoundRect,0.250000X-0.312500X-0.625000X0.312500X-0.625000X0.312500X0.625000X-0.312500X0.625000X0*%
G04 APERTURE END LIST*
D10*
X156410000Y-59282419D02*
X156410000Y-58282419D01*
X156410000Y-58282419D02*
X156648095Y-58282419D01*
X156648095Y-58282419D02*
X156790952Y-58330038D01*
X156790952Y-58330038D02*
X156886190Y-58425276D01*
X156886190Y-58425276D02*
X156933809Y-58520514D01*
X156933809Y-58520514D02*
X156981428Y-58710990D01*
X156981428Y-58710990D02*
X156981428Y-58853847D01*
X156981428Y-58853847D02*
X156933809Y-59044323D01*
X156933809Y-59044323D02*
X156886190Y-59139561D01*
X156886190Y-59139561D02*
X156790952Y-59234800D01*
X156790952Y-59234800D02*
X156648095Y-59282419D01*
X156648095Y-59282419D02*
X156410000Y-59282419D01*
X157933809Y-58330038D02*
X157838571Y-58282419D01*
X157838571Y-58282419D02*
X157695714Y-58282419D01*
X157695714Y-58282419D02*
X157552857Y-58330038D01*
X157552857Y-58330038D02*
X157457619Y-58425276D01*
X157457619Y-58425276D02*
X157410000Y-58520514D01*
X157410000Y-58520514D02*
X157362381Y-58710990D01*
X157362381Y-58710990D02*
X157362381Y-58853847D01*
X157362381Y-58853847D02*
X157410000Y-59044323D01*
X157410000Y-59044323D02*
X157457619Y-59139561D01*
X157457619Y-59139561D02*
X157552857Y-59234800D01*
X157552857Y-59234800D02*
X157695714Y-59282419D01*
X157695714Y-59282419D02*
X157790952Y-59282419D01*
X157790952Y-59282419D02*
X157933809Y-59234800D01*
X157933809Y-59234800D02*
X157981428Y-59187180D01*
X157981428Y-59187180D02*
X157981428Y-58853847D01*
X157981428Y-58853847D02*
X157790952Y-58853847D01*
X159648095Y-58282419D02*
X159171905Y-58282419D01*
X159171905Y-58282419D02*
X159124286Y-58758609D01*
X159124286Y-58758609D02*
X159171905Y-58710990D01*
X159171905Y-58710990D02*
X159267143Y-58663371D01*
X159267143Y-58663371D02*
X159505238Y-58663371D01*
X159505238Y-58663371D02*
X159600476Y-58710990D01*
X159600476Y-58710990D02*
X159648095Y-58758609D01*
X159648095Y-58758609D02*
X159695714Y-58853847D01*
X159695714Y-58853847D02*
X159695714Y-59091942D01*
X159695714Y-59091942D02*
X159648095Y-59187180D01*
X159648095Y-59187180D02*
X159600476Y-59234800D01*
X159600476Y-59234800D02*
X159505238Y-59282419D01*
X159505238Y-59282419D02*
X159267143Y-59282419D01*
X159267143Y-59282419D02*
X159171905Y-59234800D01*
X159171905Y-59234800D02*
X159124286Y-59187180D01*
X160029048Y-58615752D02*
X160267143Y-59282419D01*
X160267143Y-59282419D02*
X160505238Y-58615752D01*
D11*
X177979160Y-59262200D02*
X178122017Y-59309819D01*
X178122017Y-59309819D02*
X178360112Y-59309819D01*
X178360112Y-59309819D02*
X178455350Y-59262200D01*
X178455350Y-59262200D02*
X178502969Y-59214580D01*
X178502969Y-59214580D02*
X178550588Y-59119342D01*
X178550588Y-59119342D02*
X178550588Y-59024104D01*
X178550588Y-59024104D02*
X178502969Y-58928866D01*
X178502969Y-58928866D02*
X178455350Y-58881247D01*
X178455350Y-58881247D02*
X178360112Y-58833628D01*
X178360112Y-58833628D02*
X178169636Y-58786009D01*
X178169636Y-58786009D02*
X178074398Y-58738390D01*
X178074398Y-58738390D02*
X178026779Y-58690771D01*
X178026779Y-58690771D02*
X177979160Y-58595533D01*
X177979160Y-58595533D02*
X177979160Y-58500295D01*
X177979160Y-58500295D02*
X178026779Y-58405057D01*
X178026779Y-58405057D02*
X178074398Y-58357438D01*
X178074398Y-58357438D02*
X178169636Y-58309819D01*
X178169636Y-58309819D02*
X178407731Y-58309819D01*
X178407731Y-58309819D02*
X178550588Y-58357438D01*
X178836303Y-58309819D02*
X179407731Y-58309819D01*
X179122017Y-59309819D02*
X179122017Y-58309819D01*
X179741065Y-58928866D02*
X180502970Y-58928866D01*
X181455350Y-59309819D02*
X180979160Y-59309819D01*
X180979160Y-59309819D02*
X180979160Y-58309819D01*
X181788684Y-59309819D02*
X181788684Y-58643152D01*
X181788684Y-58309819D02*
X181741065Y-58357438D01*
X181741065Y-58357438D02*
X181788684Y-58405057D01*
X181788684Y-58405057D02*
X181836303Y-58357438D01*
X181836303Y-58357438D02*
X181788684Y-58309819D01*
X181788684Y-58309819D02*
X181788684Y-58405057D01*
X182264874Y-58643152D02*
X182264874Y-59309819D01*
X182264874Y-58738390D02*
X182312493Y-58690771D01*
X182312493Y-58690771D02*
X182407731Y-58643152D01*
X182407731Y-58643152D02*
X182550588Y-58643152D01*
X182550588Y-58643152D02*
X182645826Y-58690771D01*
X182645826Y-58690771D02*
X182693445Y-58786009D01*
X182693445Y-58786009D02*
X182693445Y-59309819D01*
X183169636Y-59309819D02*
X183169636Y-58309819D01*
X183264874Y-58928866D02*
X183550588Y-59309819D01*
X183550588Y-58643152D02*
X183169636Y-59024104D01*
D10*
X165702475Y-108657544D02*
X165178665Y-108657544D01*
X165178665Y-108657544D02*
X165083427Y-108705163D01*
X165083427Y-108705163D02*
X165035808Y-108800401D01*
X165035808Y-108800401D02*
X165035808Y-108990877D01*
X165035808Y-108990877D02*
X165083427Y-109086115D01*
X165654856Y-108657544D02*
X165702475Y-108752782D01*
X165702475Y-108752782D02*
X165702475Y-108990877D01*
X165702475Y-108990877D02*
X165654856Y-109086115D01*
X165654856Y-109086115D02*
X165559617Y-109133734D01*
X165559617Y-109133734D02*
X165464379Y-109133734D01*
X165464379Y-109133734D02*
X165369141Y-109086115D01*
X165369141Y-109086115D02*
X165321522Y-108990877D01*
X165321522Y-108990877D02*
X165321522Y-108752782D01*
X165321522Y-108752782D02*
X165273903Y-108657544D01*
X165035808Y-108324210D02*
X165035808Y-107943258D01*
X165702475Y-108181353D02*
X164845332Y-108181353D01*
X164845332Y-108181353D02*
X164750094Y-108133734D01*
X164750094Y-108133734D02*
X164702475Y-108038496D01*
X164702475Y-108038496D02*
X164702475Y-107943258D01*
X165654856Y-107228972D02*
X165702475Y-107324210D01*
X165702475Y-107324210D02*
X165702475Y-107514686D01*
X165702475Y-107514686D02*
X165654856Y-107609924D01*
X165654856Y-107609924D02*
X165559617Y-107657543D01*
X165559617Y-107657543D02*
X165178665Y-107657543D01*
X165178665Y-107657543D02*
X165083427Y-107609924D01*
X165083427Y-107609924D02*
X165035808Y-107514686D01*
X165035808Y-107514686D02*
X165035808Y-107324210D01*
X165035808Y-107324210D02*
X165083427Y-107228972D01*
X165083427Y-107228972D02*
X165178665Y-107181353D01*
X165178665Y-107181353D02*
X165273903Y-107181353D01*
X165273903Y-107181353D02*
X165369141Y-107657543D01*
X165797713Y-106990877D02*
X165797713Y-106228972D01*
X164797713Y-106038495D02*
X164750094Y-105990876D01*
X164750094Y-105990876D02*
X164702475Y-105895638D01*
X164702475Y-105895638D02*
X164702475Y-105657543D01*
X164702475Y-105657543D02*
X164750094Y-105562305D01*
X164750094Y-105562305D02*
X164797713Y-105514686D01*
X164797713Y-105514686D02*
X164892951Y-105467067D01*
X164892951Y-105467067D02*
X164988189Y-105467067D01*
X164988189Y-105467067D02*
X165131046Y-105514686D01*
X165131046Y-105514686D02*
X165702475Y-106086114D01*
X165702475Y-106086114D02*
X165702475Y-105467067D01*
X164702475Y-105133733D02*
X164702475Y-104514686D01*
X164702475Y-104514686D02*
X165083427Y-104848019D01*
X165083427Y-104848019D02*
X165083427Y-104705162D01*
X165083427Y-104705162D02*
X165131046Y-104609924D01*
X165131046Y-104609924D02*
X165178665Y-104562305D01*
X165178665Y-104562305D02*
X165273903Y-104514686D01*
X165273903Y-104514686D02*
X165511998Y-104514686D01*
X165511998Y-104514686D02*
X165607236Y-104562305D01*
X165607236Y-104562305D02*
X165654856Y-104609924D01*
X165654856Y-104609924D02*
X165702475Y-104705162D01*
X165702475Y-104705162D02*
X165702475Y-104990876D01*
X165702475Y-104990876D02*
X165654856Y-105086114D01*
X165654856Y-105086114D02*
X165607236Y-105133733D01*
X164702475Y-103895638D02*
X164702475Y-103800400D01*
X164702475Y-103800400D02*
X164750094Y-103705162D01*
X164750094Y-103705162D02*
X164797713Y-103657543D01*
X164797713Y-103657543D02*
X164892951Y-103609924D01*
X164892951Y-103609924D02*
X165083427Y-103562305D01*
X165083427Y-103562305D02*
X165321522Y-103562305D01*
X165321522Y-103562305D02*
X165511998Y-103609924D01*
X165511998Y-103609924D02*
X165607236Y-103657543D01*
X165607236Y-103657543D02*
X165654856Y-103705162D01*
X165654856Y-103705162D02*
X165702475Y-103800400D01*
X165702475Y-103800400D02*
X165702475Y-103895638D01*
X165702475Y-103895638D02*
X165654856Y-103990876D01*
X165654856Y-103990876D02*
X165607236Y-104038495D01*
X165607236Y-104038495D02*
X165511998Y-104086114D01*
X165511998Y-104086114D02*
X165321522Y-104133733D01*
X165321522Y-104133733D02*
X165083427Y-104133733D01*
X165083427Y-104133733D02*
X164892951Y-104086114D01*
X164892951Y-104086114D02*
X164797713Y-104038495D01*
X164797713Y-104038495D02*
X164750094Y-103990876D01*
X164750094Y-103990876D02*
X164702475Y-103895638D01*
X165035808Y-103228971D02*
X165702475Y-102990876D01*
X165702475Y-102990876D02*
X165035808Y-102752781D01*
X165797713Y-102609924D02*
X165797713Y-101848019D01*
X165702475Y-101086114D02*
X165702475Y-101657542D01*
X165702475Y-101371828D02*
X164702475Y-101371828D01*
X164702475Y-101371828D02*
X164845332Y-101467066D01*
X164845332Y-101467066D02*
X164940570Y-101562304D01*
X164940570Y-101562304D02*
X164988189Y-101657542D01*
X164702475Y-100228971D02*
X164702475Y-100419447D01*
X164702475Y-100419447D02*
X164750094Y-100514685D01*
X164750094Y-100514685D02*
X164797713Y-100562304D01*
X164797713Y-100562304D02*
X164940570Y-100657542D01*
X164940570Y-100657542D02*
X165131046Y-100705161D01*
X165131046Y-100705161D02*
X165511998Y-100705161D01*
X165511998Y-100705161D02*
X165607236Y-100657542D01*
X165607236Y-100657542D02*
X165654856Y-100609923D01*
X165654856Y-100609923D02*
X165702475Y-100514685D01*
X165702475Y-100514685D02*
X165702475Y-100324209D01*
X165702475Y-100324209D02*
X165654856Y-100228971D01*
X165654856Y-100228971D02*
X165607236Y-100181352D01*
X165607236Y-100181352D02*
X165511998Y-100133733D01*
X165511998Y-100133733D02*
X165273903Y-100133733D01*
X165273903Y-100133733D02*
X165178665Y-100181352D01*
X165178665Y-100181352D02*
X165131046Y-100228971D01*
X165131046Y-100228971D02*
X165083427Y-100324209D01*
X165083427Y-100324209D02*
X165083427Y-100514685D01*
X165083427Y-100514685D02*
X165131046Y-100609923D01*
X165131046Y-100609923D02*
X165178665Y-100657542D01*
X165178665Y-100657542D02*
X165273903Y-100705161D01*
X165702475Y-99276590D02*
X165178665Y-99276590D01*
X165178665Y-99276590D02*
X165083427Y-99324209D01*
X165083427Y-99324209D02*
X165035808Y-99419447D01*
X165035808Y-99419447D02*
X165035808Y-99609923D01*
X165035808Y-99609923D02*
X165083427Y-99705161D01*
X165654856Y-99276590D02*
X165702475Y-99371828D01*
X165702475Y-99371828D02*
X165702475Y-99609923D01*
X165702475Y-99609923D02*
X165654856Y-99705161D01*
X165654856Y-99705161D02*
X165559617Y-99752780D01*
X165559617Y-99752780D02*
X165464379Y-99752780D01*
X165464379Y-99752780D02*
X165369141Y-99705161D01*
X165369141Y-99705161D02*
X165321522Y-99609923D01*
X165321522Y-99609923D02*
X165321522Y-99371828D01*
X165321522Y-99371828D02*
X165273903Y-99276590D01*
X165702475Y-98038494D02*
X165035808Y-98038494D01*
X165226284Y-98038494D02*
X165131046Y-97990875D01*
X165131046Y-97990875D02*
X165083427Y-97943256D01*
X165083427Y-97943256D02*
X165035808Y-97848018D01*
X165035808Y-97848018D02*
X165035808Y-97752780D01*
X165654856Y-97038494D02*
X165702475Y-97133732D01*
X165702475Y-97133732D02*
X165702475Y-97324208D01*
X165702475Y-97324208D02*
X165654856Y-97419446D01*
X165654856Y-97419446D02*
X165559617Y-97467065D01*
X165559617Y-97467065D02*
X165178665Y-97467065D01*
X165178665Y-97467065D02*
X165083427Y-97419446D01*
X165083427Y-97419446D02*
X165035808Y-97324208D01*
X165035808Y-97324208D02*
X165035808Y-97133732D01*
X165035808Y-97133732D02*
X165083427Y-97038494D01*
X165083427Y-97038494D02*
X165178665Y-96990875D01*
X165178665Y-96990875D02*
X165273903Y-96990875D01*
X165273903Y-96990875D02*
X165369141Y-97467065D01*
X165035808Y-96657541D02*
X165702475Y-96419446D01*
X165702475Y-96419446D02*
X165035808Y-96181351D01*
X165607236Y-95800398D02*
X165654856Y-95752779D01*
X165654856Y-95752779D02*
X165702475Y-95800398D01*
X165702475Y-95800398D02*
X165654856Y-95848017D01*
X165654856Y-95848017D02*
X165607236Y-95800398D01*
X165607236Y-95800398D02*
X165702475Y-95800398D01*
X164702475Y-95133732D02*
X164702475Y-95038494D01*
X164702475Y-95038494D02*
X164750094Y-94943256D01*
X164750094Y-94943256D02*
X164797713Y-94895637D01*
X164797713Y-94895637D02*
X164892951Y-94848018D01*
X164892951Y-94848018D02*
X165083427Y-94800399D01*
X165083427Y-94800399D02*
X165321522Y-94800399D01*
X165321522Y-94800399D02*
X165511998Y-94848018D01*
X165511998Y-94848018D02*
X165607236Y-94895637D01*
X165607236Y-94895637D02*
X165654856Y-94943256D01*
X165654856Y-94943256D02*
X165702475Y-95038494D01*
X165702475Y-95038494D02*
X165702475Y-95133732D01*
X165702475Y-95133732D02*
X165654856Y-95228970D01*
X165654856Y-95228970D02*
X165607236Y-95276589D01*
X165607236Y-95276589D02*
X165511998Y-95324208D01*
X165511998Y-95324208D02*
X165321522Y-95371827D01*
X165321522Y-95371827D02*
X165083427Y-95371827D01*
X165083427Y-95371827D02*
X164892951Y-95324208D01*
X164892951Y-95324208D02*
X164797713Y-95276589D01*
X164797713Y-95276589D02*
X164750094Y-95228970D01*
X164750094Y-95228970D02*
X164702475Y-95133732D01*
X165702475Y-93848018D02*
X165702475Y-94419446D01*
X165702475Y-94133732D02*
X164702475Y-94133732D01*
X164702475Y-94133732D02*
X164845332Y-94228970D01*
X164845332Y-94228970D02*
X164940570Y-94324208D01*
X164940570Y-94324208D02*
X164988189Y-94419446D01*
X165035808Y-92800398D02*
X165035808Y-92419446D01*
X165702475Y-92657541D02*
X164845332Y-92657541D01*
X164845332Y-92657541D02*
X164750094Y-92609922D01*
X164750094Y-92609922D02*
X164702475Y-92514684D01*
X164702475Y-92514684D02*
X164702475Y-92419446D01*
X165654856Y-91705160D02*
X165702475Y-91800398D01*
X165702475Y-91800398D02*
X165702475Y-91990874D01*
X165702475Y-91990874D02*
X165654856Y-92086112D01*
X165654856Y-92086112D02*
X165559617Y-92133731D01*
X165559617Y-92133731D02*
X165178665Y-92133731D01*
X165178665Y-92133731D02*
X165083427Y-92086112D01*
X165083427Y-92086112D02*
X165035808Y-91990874D01*
X165035808Y-91990874D02*
X165035808Y-91800398D01*
X165035808Y-91800398D02*
X165083427Y-91705160D01*
X165083427Y-91705160D02*
X165178665Y-91657541D01*
X165178665Y-91657541D02*
X165273903Y-91657541D01*
X165273903Y-91657541D02*
X165369141Y-92133731D01*
X165702475Y-91228969D02*
X164702475Y-91228969D01*
X165083427Y-91228969D02*
X165035808Y-91133731D01*
X165035808Y-91133731D02*
X165035808Y-90943255D01*
X165035808Y-90943255D02*
X165083427Y-90848017D01*
X165083427Y-90848017D02*
X165131046Y-90800398D01*
X165131046Y-90800398D02*
X165226284Y-90752779D01*
X165226284Y-90752779D02*
X165511998Y-90752779D01*
X165511998Y-90752779D02*
X165607236Y-90800398D01*
X165607236Y-90800398D02*
X165654856Y-90848017D01*
X165654856Y-90848017D02*
X165702475Y-90943255D01*
X165702475Y-90943255D02*
X165702475Y-91133731D01*
X165702475Y-91133731D02*
X165654856Y-91228969D01*
X164797713Y-90371826D02*
X164750094Y-90324207D01*
X164750094Y-90324207D02*
X164702475Y-90228969D01*
X164702475Y-90228969D02*
X164702475Y-89990874D01*
X164702475Y-89990874D02*
X164750094Y-89895636D01*
X164750094Y-89895636D02*
X164797713Y-89848017D01*
X164797713Y-89848017D02*
X164892951Y-89800398D01*
X164892951Y-89800398D02*
X164988189Y-89800398D01*
X164988189Y-89800398D02*
X165131046Y-89848017D01*
X165131046Y-89848017D02*
X165702475Y-90419445D01*
X165702475Y-90419445D02*
X165702475Y-89800398D01*
X164702475Y-88895636D02*
X164702475Y-89371826D01*
X164702475Y-89371826D02*
X165178665Y-89419445D01*
X165178665Y-89419445D02*
X165131046Y-89371826D01*
X165131046Y-89371826D02*
X165083427Y-89276588D01*
X165083427Y-89276588D02*
X165083427Y-89038493D01*
X165083427Y-89038493D02*
X165131046Y-88943255D01*
X165131046Y-88943255D02*
X165178665Y-88895636D01*
X165178665Y-88895636D02*
X165273903Y-88848017D01*
X165273903Y-88848017D02*
X165511998Y-88848017D01*
X165511998Y-88848017D02*
X165607236Y-88895636D01*
X165607236Y-88895636D02*
X165654856Y-88943255D01*
X165654856Y-88943255D02*
X165702475Y-89038493D01*
X165702475Y-89038493D02*
X165702475Y-89276588D01*
X165702475Y-89276588D02*
X165654856Y-89371826D01*
X165654856Y-89371826D02*
X165607236Y-89419445D01*
X166264800Y-108371830D02*
X167550514Y-109228972D01*
X166264800Y-107324211D02*
X167550514Y-108181353D01*
X167312419Y-106990877D02*
X166312419Y-106990877D01*
X166931466Y-106895639D02*
X167312419Y-106609925D01*
X166645752Y-106609925D02*
X167026704Y-106990877D01*
X167264800Y-105800401D02*
X167312419Y-105895639D01*
X167312419Y-105895639D02*
X167312419Y-106086115D01*
X167312419Y-106086115D02*
X167264800Y-106181353D01*
X167264800Y-106181353D02*
X167169561Y-106228972D01*
X167169561Y-106228972D02*
X166788609Y-106228972D01*
X166788609Y-106228972D02*
X166693371Y-106181353D01*
X166693371Y-106181353D02*
X166645752Y-106086115D01*
X166645752Y-106086115D02*
X166645752Y-105895639D01*
X166645752Y-105895639D02*
X166693371Y-105800401D01*
X166693371Y-105800401D02*
X166788609Y-105752782D01*
X166788609Y-105752782D02*
X166883847Y-105752782D01*
X166883847Y-105752782D02*
X166979085Y-106228972D01*
X166645752Y-105419448D02*
X167312419Y-105181353D01*
X166645752Y-104943258D02*
X167312419Y-105181353D01*
X167312419Y-105181353D02*
X167550514Y-105276591D01*
X167550514Y-105276591D02*
X167598133Y-105324210D01*
X167598133Y-105324210D02*
X167645752Y-105419448D01*
X166645752Y-104133734D02*
X167312419Y-104133734D01*
X166645752Y-104562305D02*
X167169561Y-104562305D01*
X167169561Y-104562305D02*
X167264800Y-104514686D01*
X167264800Y-104514686D02*
X167312419Y-104419448D01*
X167312419Y-104419448D02*
X167312419Y-104276591D01*
X167312419Y-104276591D02*
X167264800Y-104181353D01*
X167264800Y-104181353D02*
X167217180Y-104133734D01*
X167312419Y-103228972D02*
X166312419Y-103228972D01*
X167264800Y-103228972D02*
X167312419Y-103324210D01*
X167312419Y-103324210D02*
X167312419Y-103514686D01*
X167312419Y-103514686D02*
X167264800Y-103609924D01*
X167264800Y-103609924D02*
X167217180Y-103657543D01*
X167217180Y-103657543D02*
X167121942Y-103705162D01*
X167121942Y-103705162D02*
X166836228Y-103705162D01*
X166836228Y-103705162D02*
X166740990Y-103657543D01*
X166740990Y-103657543D02*
X166693371Y-103609924D01*
X166693371Y-103609924D02*
X166645752Y-103514686D01*
X166645752Y-103514686D02*
X166645752Y-103324210D01*
X166645752Y-103324210D02*
X166693371Y-103228972D01*
X167312419Y-102752781D02*
X166645752Y-102752781D01*
X166312419Y-102752781D02*
X166360038Y-102800400D01*
X166360038Y-102800400D02*
X166407657Y-102752781D01*
X166407657Y-102752781D02*
X166360038Y-102705162D01*
X166360038Y-102705162D02*
X166312419Y-102752781D01*
X166312419Y-102752781D02*
X166407657Y-102752781D01*
X166645752Y-102419448D02*
X166645752Y-102038496D01*
X166312419Y-102276591D02*
X167169561Y-102276591D01*
X167169561Y-102276591D02*
X167264800Y-102228972D01*
X167264800Y-102228972D02*
X167312419Y-102133734D01*
X167312419Y-102133734D02*
X167312419Y-102038496D01*
X167264800Y-101752781D02*
X167312419Y-101657543D01*
X167312419Y-101657543D02*
X167312419Y-101467067D01*
X167312419Y-101467067D02*
X167264800Y-101371829D01*
X167264800Y-101371829D02*
X167169561Y-101324210D01*
X167169561Y-101324210D02*
X167121942Y-101324210D01*
X167121942Y-101324210D02*
X167026704Y-101371829D01*
X167026704Y-101371829D02*
X166979085Y-101467067D01*
X166979085Y-101467067D02*
X166979085Y-101609924D01*
X166979085Y-101609924D02*
X166931466Y-101705162D01*
X166931466Y-101705162D02*
X166836228Y-101752781D01*
X166836228Y-101752781D02*
X166788609Y-101752781D01*
X166788609Y-101752781D02*
X166693371Y-101705162D01*
X166693371Y-101705162D02*
X166645752Y-101609924D01*
X166645752Y-101609924D02*
X166645752Y-101467067D01*
X166645752Y-101467067D02*
X166693371Y-101371829D01*
X161709523Y-54172419D02*
X161709523Y-53172419D01*
X161709523Y-53172419D02*
X161947618Y-53172419D01*
X161947618Y-53172419D02*
X162090475Y-53220038D01*
X162090475Y-53220038D02*
X162185713Y-53315276D01*
X162185713Y-53315276D02*
X162233332Y-53410514D01*
X162233332Y-53410514D02*
X162280951Y-53600990D01*
X162280951Y-53600990D02*
X162280951Y-53743847D01*
X162280951Y-53743847D02*
X162233332Y-53934323D01*
X162233332Y-53934323D02*
X162185713Y-54029561D01*
X162185713Y-54029561D02*
X162090475Y-54124800D01*
X162090475Y-54124800D02*
X161947618Y-54172419D01*
X161947618Y-54172419D02*
X161709523Y-54172419D01*
X163233332Y-53220038D02*
X163138094Y-53172419D01*
X163138094Y-53172419D02*
X162995237Y-53172419D01*
X162995237Y-53172419D02*
X162852380Y-53220038D01*
X162852380Y-53220038D02*
X162757142Y-53315276D01*
X162757142Y-53315276D02*
X162709523Y-53410514D01*
X162709523Y-53410514D02*
X162661904Y-53600990D01*
X162661904Y-53600990D02*
X162661904Y-53743847D01*
X162661904Y-53743847D02*
X162709523Y-53934323D01*
X162709523Y-53934323D02*
X162757142Y-54029561D01*
X162757142Y-54029561D02*
X162852380Y-54124800D01*
X162852380Y-54124800D02*
X162995237Y-54172419D01*
X162995237Y-54172419D02*
X163090475Y-54172419D01*
X163090475Y-54172419D02*
X163233332Y-54124800D01*
X163233332Y-54124800D02*
X163280951Y-54077180D01*
X163280951Y-54077180D02*
X163280951Y-53743847D01*
X163280951Y-53743847D02*
X163090475Y-53743847D01*
X164376190Y-53172419D02*
X164995237Y-53172419D01*
X164995237Y-53172419D02*
X164661904Y-53553371D01*
X164661904Y-53553371D02*
X164804761Y-53553371D01*
X164804761Y-53553371D02*
X164899999Y-53600990D01*
X164899999Y-53600990D02*
X164947618Y-53648609D01*
X164947618Y-53648609D02*
X164995237Y-53743847D01*
X164995237Y-53743847D02*
X164995237Y-53981942D01*
X164995237Y-53981942D02*
X164947618Y-54077180D01*
X164947618Y-54077180D02*
X164899999Y-54124800D01*
X164899999Y-54124800D02*
X164804761Y-54172419D01*
X164804761Y-54172419D02*
X164519047Y-54172419D01*
X164519047Y-54172419D02*
X164423809Y-54124800D01*
X164423809Y-54124800D02*
X164376190Y-54077180D01*
X165328571Y-53505752D02*
X165566666Y-54172419D01*
X165566666Y-54172419D02*
X165804761Y-53505752D01*
X166090476Y-53172419D02*
X166709523Y-53172419D01*
X166709523Y-53172419D02*
X166376190Y-53553371D01*
X166376190Y-53553371D02*
X166519047Y-53553371D01*
X166519047Y-53553371D02*
X166614285Y-53600990D01*
X166614285Y-53600990D02*
X166661904Y-53648609D01*
X166661904Y-53648609D02*
X166709523Y-53743847D01*
X166709523Y-53743847D02*
X166709523Y-53981942D01*
X166709523Y-53981942D02*
X166661904Y-54077180D01*
X166661904Y-54077180D02*
X166614285Y-54124800D01*
X166614285Y-54124800D02*
X166519047Y-54172419D01*
X166519047Y-54172419D02*
X166233333Y-54172419D01*
X166233333Y-54172419D02*
X166138095Y-54124800D01*
X166138095Y-54124800D02*
X166090476Y-54077180D01*
X167852381Y-53886704D02*
X168328571Y-53886704D01*
X167757143Y-54172419D02*
X168090476Y-53172419D01*
X168090476Y-53172419D02*
X168423809Y-54172419D01*
X168947619Y-53172419D02*
X169042857Y-53172419D01*
X169042857Y-53172419D02*
X169138095Y-53220038D01*
X169138095Y-53220038D02*
X169185714Y-53267657D01*
X169185714Y-53267657D02*
X169233333Y-53362895D01*
X169233333Y-53362895D02*
X169280952Y-53553371D01*
X169280952Y-53553371D02*
X169280952Y-53791466D01*
X169280952Y-53791466D02*
X169233333Y-53981942D01*
X169233333Y-53981942D02*
X169185714Y-54077180D01*
X169185714Y-54077180D02*
X169138095Y-54124800D01*
X169138095Y-54124800D02*
X169042857Y-54172419D01*
X169042857Y-54172419D02*
X168947619Y-54172419D01*
X168947619Y-54172419D02*
X168852381Y-54124800D01*
X168852381Y-54124800D02*
X168804762Y-54077180D01*
X168804762Y-54077180D02*
X168757143Y-53981942D01*
X168757143Y-53981942D02*
X168709524Y-53791466D01*
X168709524Y-53791466D02*
X168709524Y-53553371D01*
X168709524Y-53553371D02*
X168757143Y-53362895D01*
X168757143Y-53362895D02*
X168804762Y-53267657D01*
X168804762Y-53267657D02*
X168852381Y-53220038D01*
X168852381Y-53220038D02*
X168947619Y-53172419D01*
X170423810Y-53886704D02*
X170900000Y-53886704D01*
X170328572Y-54172419D02*
X170661905Y-53172419D01*
X170661905Y-53172419D02*
X170995238Y-54172419D01*
X171852381Y-54172419D02*
X171280953Y-54172419D01*
X171566667Y-54172419D02*
X171566667Y-53172419D01*
X171566667Y-53172419D02*
X171471429Y-53315276D01*
X171471429Y-53315276D02*
X171376191Y-53410514D01*
X171376191Y-53410514D02*
X171280953Y-53458133D01*
X172995239Y-53886704D02*
X173471429Y-53886704D01*
X172900001Y-54172419D02*
X173233334Y-53172419D01*
X173233334Y-53172419D02*
X173566667Y-54172419D01*
X173852382Y-53267657D02*
X173900001Y-53220038D01*
X173900001Y-53220038D02*
X173995239Y-53172419D01*
X173995239Y-53172419D02*
X174233334Y-53172419D01*
X174233334Y-53172419D02*
X174328572Y-53220038D01*
X174328572Y-53220038D02*
X174376191Y-53267657D01*
X174376191Y-53267657D02*
X174423810Y-53362895D01*
X174423810Y-53362895D02*
X174423810Y-53458133D01*
X174423810Y-53458133D02*
X174376191Y-53600990D01*
X174376191Y-53600990D02*
X173804763Y-54172419D01*
X173804763Y-54172419D02*
X174423810Y-54172419D01*
X175614287Y-54172419D02*
X175614287Y-53172419D01*
X175614287Y-53172419D02*
X175852382Y-53172419D01*
X175852382Y-53172419D02*
X175995239Y-53220038D01*
X175995239Y-53220038D02*
X176090477Y-53315276D01*
X176090477Y-53315276D02*
X176138096Y-53410514D01*
X176138096Y-53410514D02*
X176185715Y-53600990D01*
X176185715Y-53600990D02*
X176185715Y-53743847D01*
X176185715Y-53743847D02*
X176138096Y-53934323D01*
X176138096Y-53934323D02*
X176090477Y-54029561D01*
X176090477Y-54029561D02*
X175995239Y-54124800D01*
X175995239Y-54124800D02*
X175852382Y-54172419D01*
X175852382Y-54172419D02*
X175614287Y-54172419D01*
X176804763Y-53172419D02*
X176900001Y-53172419D01*
X176900001Y-53172419D02*
X176995239Y-53220038D01*
X176995239Y-53220038D02*
X177042858Y-53267657D01*
X177042858Y-53267657D02*
X177090477Y-53362895D01*
X177090477Y-53362895D02*
X177138096Y-53553371D01*
X177138096Y-53553371D02*
X177138096Y-53791466D01*
X177138096Y-53791466D02*
X177090477Y-53981942D01*
X177090477Y-53981942D02*
X177042858Y-54077180D01*
X177042858Y-54077180D02*
X176995239Y-54124800D01*
X176995239Y-54124800D02*
X176900001Y-54172419D01*
X176900001Y-54172419D02*
X176804763Y-54172419D01*
X176804763Y-54172419D02*
X176709525Y-54124800D01*
X176709525Y-54124800D02*
X176661906Y-54077180D01*
X176661906Y-54077180D02*
X176614287Y-53981942D01*
X176614287Y-53981942D02*
X176566668Y-53791466D01*
X176566668Y-53791466D02*
X176566668Y-53553371D01*
X176566668Y-53553371D02*
X176614287Y-53362895D01*
X176614287Y-53362895D02*
X176661906Y-53267657D01*
X176661906Y-53267657D02*
X176709525Y-53220038D01*
X176709525Y-53220038D02*
X176804763Y-53172419D01*
D11*
X121974819Y-70687857D02*
X121498628Y-71021190D01*
X121974819Y-71259285D02*
X120974819Y-71259285D01*
X120974819Y-71259285D02*
X120974819Y-70878333D01*
X120974819Y-70878333D02*
X121022438Y-70783095D01*
X121022438Y-70783095D02*
X121070057Y-70735476D01*
X121070057Y-70735476D02*
X121165295Y-70687857D01*
X121165295Y-70687857D02*
X121308152Y-70687857D01*
X121308152Y-70687857D02*
X121403390Y-70735476D01*
X121403390Y-70735476D02*
X121451009Y-70783095D01*
X121451009Y-70783095D02*
X121498628Y-70878333D01*
X121498628Y-70878333D02*
X121498628Y-71259285D01*
X120974819Y-70354523D02*
X120974819Y-69735476D01*
X120974819Y-69735476D02*
X121355771Y-70068809D01*
X121355771Y-70068809D02*
X121355771Y-69925952D01*
X121355771Y-69925952D02*
X121403390Y-69830714D01*
X121403390Y-69830714D02*
X121451009Y-69783095D01*
X121451009Y-69783095D02*
X121546247Y-69735476D01*
X121546247Y-69735476D02*
X121784342Y-69735476D01*
X121784342Y-69735476D02*
X121879580Y-69783095D01*
X121879580Y-69783095D02*
X121927200Y-69830714D01*
X121927200Y-69830714D02*
X121974819Y-69925952D01*
X121974819Y-69925952D02*
X121974819Y-70211666D01*
X121974819Y-70211666D02*
X121927200Y-70306904D01*
X121927200Y-70306904D02*
X121879580Y-70354523D01*
X121974819Y-69259285D02*
X121974819Y-69068809D01*
X121974819Y-69068809D02*
X121927200Y-68973571D01*
X121927200Y-68973571D02*
X121879580Y-68925952D01*
X121879580Y-68925952D02*
X121736723Y-68830714D01*
X121736723Y-68830714D02*
X121546247Y-68783095D01*
X121546247Y-68783095D02*
X121165295Y-68783095D01*
X121165295Y-68783095D02*
X121070057Y-68830714D01*
X121070057Y-68830714D02*
X121022438Y-68878333D01*
X121022438Y-68878333D02*
X120974819Y-68973571D01*
X120974819Y-68973571D02*
X120974819Y-69164047D01*
X120974819Y-69164047D02*
X121022438Y-69259285D01*
X121022438Y-69259285D02*
X121070057Y-69306904D01*
X121070057Y-69306904D02*
X121165295Y-69354523D01*
X121165295Y-69354523D02*
X121403390Y-69354523D01*
X121403390Y-69354523D02*
X121498628Y-69306904D01*
X121498628Y-69306904D02*
X121546247Y-69259285D01*
X121546247Y-69259285D02*
X121593866Y-69164047D01*
X121593866Y-69164047D02*
X121593866Y-68973571D01*
X121593866Y-68973571D02*
X121546247Y-68878333D01*
X121546247Y-68878333D02*
X121498628Y-68830714D01*
X121498628Y-68830714D02*
X121403390Y-68783095D01*
X135813333Y-117762319D02*
X135480000Y-117286128D01*
X135241905Y-117762319D02*
X135241905Y-116762319D01*
X135241905Y-116762319D02*
X135622857Y-116762319D01*
X135622857Y-116762319D02*
X135718095Y-116809938D01*
X135718095Y-116809938D02*
X135765714Y-116857557D01*
X135765714Y-116857557D02*
X135813333Y-116952795D01*
X135813333Y-116952795D02*
X135813333Y-117095652D01*
X135813333Y-117095652D02*
X135765714Y-117190890D01*
X135765714Y-117190890D02*
X135718095Y-117238509D01*
X135718095Y-117238509D02*
X135622857Y-117286128D01*
X135622857Y-117286128D02*
X135241905Y-117286128D01*
X136384762Y-117190890D02*
X136289524Y-117143271D01*
X136289524Y-117143271D02*
X136241905Y-117095652D01*
X136241905Y-117095652D02*
X136194286Y-117000414D01*
X136194286Y-117000414D02*
X136194286Y-116952795D01*
X136194286Y-116952795D02*
X136241905Y-116857557D01*
X136241905Y-116857557D02*
X136289524Y-116809938D01*
X136289524Y-116809938D02*
X136384762Y-116762319D01*
X136384762Y-116762319D02*
X136575238Y-116762319D01*
X136575238Y-116762319D02*
X136670476Y-116809938D01*
X136670476Y-116809938D02*
X136718095Y-116857557D01*
X136718095Y-116857557D02*
X136765714Y-116952795D01*
X136765714Y-116952795D02*
X136765714Y-117000414D01*
X136765714Y-117000414D02*
X136718095Y-117095652D01*
X136718095Y-117095652D02*
X136670476Y-117143271D01*
X136670476Y-117143271D02*
X136575238Y-117190890D01*
X136575238Y-117190890D02*
X136384762Y-117190890D01*
X136384762Y-117190890D02*
X136289524Y-117238509D01*
X136289524Y-117238509D02*
X136241905Y-117286128D01*
X136241905Y-117286128D02*
X136194286Y-117381366D01*
X136194286Y-117381366D02*
X136194286Y-117571842D01*
X136194286Y-117571842D02*
X136241905Y-117667080D01*
X136241905Y-117667080D02*
X136289524Y-117714700D01*
X136289524Y-117714700D02*
X136384762Y-117762319D01*
X136384762Y-117762319D02*
X136575238Y-117762319D01*
X136575238Y-117762319D02*
X136670476Y-117714700D01*
X136670476Y-117714700D02*
X136718095Y-117667080D01*
X136718095Y-117667080D02*
X136765714Y-117571842D01*
X136765714Y-117571842D02*
X136765714Y-117381366D01*
X136765714Y-117381366D02*
X136718095Y-117286128D01*
X136718095Y-117286128D02*
X136670476Y-117238509D01*
X136670476Y-117238509D02*
X136575238Y-117190890D01*
X129123333Y-125449819D02*
X128790000Y-124973628D01*
X128551905Y-125449819D02*
X128551905Y-124449819D01*
X128551905Y-124449819D02*
X128932857Y-124449819D01*
X128932857Y-124449819D02*
X129028095Y-124497438D01*
X129028095Y-124497438D02*
X129075714Y-124545057D01*
X129075714Y-124545057D02*
X129123333Y-124640295D01*
X129123333Y-124640295D02*
X129123333Y-124783152D01*
X129123333Y-124783152D02*
X129075714Y-124878390D01*
X129075714Y-124878390D02*
X129028095Y-124926009D01*
X129028095Y-124926009D02*
X128932857Y-124973628D01*
X128932857Y-124973628D02*
X128551905Y-124973628D01*
X129456667Y-124449819D02*
X130075714Y-124449819D01*
X130075714Y-124449819D02*
X129742381Y-124830771D01*
X129742381Y-124830771D02*
X129885238Y-124830771D01*
X129885238Y-124830771D02*
X129980476Y-124878390D01*
X129980476Y-124878390D02*
X130028095Y-124926009D01*
X130028095Y-124926009D02*
X130075714Y-125021247D01*
X130075714Y-125021247D02*
X130075714Y-125259342D01*
X130075714Y-125259342D02*
X130028095Y-125354580D01*
X130028095Y-125354580D02*
X129980476Y-125402200D01*
X129980476Y-125402200D02*
X129885238Y-125449819D01*
X129885238Y-125449819D02*
X129599524Y-125449819D01*
X129599524Y-125449819D02*
X129504286Y-125402200D01*
X129504286Y-125402200D02*
X129456667Y-125354580D01*
X146004819Y-117572857D02*
X145528628Y-117906190D01*
X146004819Y-118144285D02*
X145004819Y-118144285D01*
X145004819Y-118144285D02*
X145004819Y-117763333D01*
X145004819Y-117763333D02*
X145052438Y-117668095D01*
X145052438Y-117668095D02*
X145100057Y-117620476D01*
X145100057Y-117620476D02*
X145195295Y-117572857D01*
X145195295Y-117572857D02*
X145338152Y-117572857D01*
X145338152Y-117572857D02*
X145433390Y-117620476D01*
X145433390Y-117620476D02*
X145481009Y-117668095D01*
X145481009Y-117668095D02*
X145528628Y-117763333D01*
X145528628Y-117763333D02*
X145528628Y-118144285D01*
X145004819Y-117239523D02*
X145004819Y-116620476D01*
X145004819Y-116620476D02*
X145385771Y-116953809D01*
X145385771Y-116953809D02*
X145385771Y-116810952D01*
X145385771Y-116810952D02*
X145433390Y-116715714D01*
X145433390Y-116715714D02*
X145481009Y-116668095D01*
X145481009Y-116668095D02*
X145576247Y-116620476D01*
X145576247Y-116620476D02*
X145814342Y-116620476D01*
X145814342Y-116620476D02*
X145909580Y-116668095D01*
X145909580Y-116668095D02*
X145957200Y-116715714D01*
X145957200Y-116715714D02*
X146004819Y-116810952D01*
X146004819Y-116810952D02*
X146004819Y-117096666D01*
X146004819Y-117096666D02*
X145957200Y-117191904D01*
X145957200Y-117191904D02*
X145909580Y-117239523D01*
X145004819Y-116001428D02*
X145004819Y-115906190D01*
X145004819Y-115906190D02*
X145052438Y-115810952D01*
X145052438Y-115810952D02*
X145100057Y-115763333D01*
X145100057Y-115763333D02*
X145195295Y-115715714D01*
X145195295Y-115715714D02*
X145385771Y-115668095D01*
X145385771Y-115668095D02*
X145623866Y-115668095D01*
X145623866Y-115668095D02*
X145814342Y-115715714D01*
X145814342Y-115715714D02*
X145909580Y-115763333D01*
X145909580Y-115763333D02*
X145957200Y-115810952D01*
X145957200Y-115810952D02*
X146004819Y-115906190D01*
X146004819Y-115906190D02*
X146004819Y-116001428D01*
X146004819Y-116001428D02*
X145957200Y-116096666D01*
X145957200Y-116096666D02*
X145909580Y-116144285D01*
X145909580Y-116144285D02*
X145814342Y-116191904D01*
X145814342Y-116191904D02*
X145623866Y-116239523D01*
X145623866Y-116239523D02*
X145385771Y-116239523D01*
X145385771Y-116239523D02*
X145195295Y-116191904D01*
X145195295Y-116191904D02*
X145100057Y-116144285D01*
X145100057Y-116144285D02*
X145052438Y-116096666D01*
X145052438Y-116096666D02*
X145004819Y-116001428D01*
X134279819Y-74680357D02*
X133803628Y-75013690D01*
X134279819Y-75251785D02*
X133279819Y-75251785D01*
X133279819Y-75251785D02*
X133279819Y-74870833D01*
X133279819Y-74870833D02*
X133327438Y-74775595D01*
X133327438Y-74775595D02*
X133375057Y-74727976D01*
X133375057Y-74727976D02*
X133470295Y-74680357D01*
X133470295Y-74680357D02*
X133613152Y-74680357D01*
X133613152Y-74680357D02*
X133708390Y-74727976D01*
X133708390Y-74727976D02*
X133756009Y-74775595D01*
X133756009Y-74775595D02*
X133803628Y-74870833D01*
X133803628Y-74870833D02*
X133803628Y-75251785D01*
X133375057Y-74299404D02*
X133327438Y-74251785D01*
X133327438Y-74251785D02*
X133279819Y-74156547D01*
X133279819Y-74156547D02*
X133279819Y-73918452D01*
X133279819Y-73918452D02*
X133327438Y-73823214D01*
X133327438Y-73823214D02*
X133375057Y-73775595D01*
X133375057Y-73775595D02*
X133470295Y-73727976D01*
X133470295Y-73727976D02*
X133565533Y-73727976D01*
X133565533Y-73727976D02*
X133708390Y-73775595D01*
X133708390Y-73775595D02*
X134279819Y-74347023D01*
X134279819Y-74347023D02*
X134279819Y-73727976D01*
X133279819Y-73394642D02*
X133279819Y-72727976D01*
X133279819Y-72727976D02*
X134279819Y-73156547D01*
X132694137Y-87830357D02*
X132217946Y-88163690D01*
X132694137Y-88401785D02*
X131694137Y-88401785D01*
X131694137Y-88401785D02*
X131694137Y-88020833D01*
X131694137Y-88020833D02*
X131741756Y-87925595D01*
X131741756Y-87925595D02*
X131789375Y-87877976D01*
X131789375Y-87877976D02*
X131884613Y-87830357D01*
X131884613Y-87830357D02*
X132027470Y-87830357D01*
X132027470Y-87830357D02*
X132122708Y-87877976D01*
X132122708Y-87877976D02*
X132170327Y-87925595D01*
X132170327Y-87925595D02*
X132217946Y-88020833D01*
X132217946Y-88020833D02*
X132217946Y-88401785D01*
X132694137Y-86877976D02*
X132694137Y-87449404D01*
X132694137Y-87163690D02*
X131694137Y-87163690D01*
X131694137Y-87163690D02*
X131836994Y-87258928D01*
X131836994Y-87258928D02*
X131932232Y-87354166D01*
X131932232Y-87354166D02*
X131979851Y-87449404D01*
X131694137Y-85973214D02*
X131694137Y-86449404D01*
X131694137Y-86449404D02*
X132170327Y-86497023D01*
X132170327Y-86497023D02*
X132122708Y-86449404D01*
X132122708Y-86449404D02*
X132075089Y-86354166D01*
X132075089Y-86354166D02*
X132075089Y-86116071D01*
X132075089Y-86116071D02*
X132122708Y-86020833D01*
X132122708Y-86020833D02*
X132170327Y-85973214D01*
X132170327Y-85973214D02*
X132265565Y-85925595D01*
X132265565Y-85925595D02*
X132503660Y-85925595D01*
X132503660Y-85925595D02*
X132598898Y-85973214D01*
X132598898Y-85973214D02*
X132646518Y-86020833D01*
X132646518Y-86020833D02*
X132694137Y-86116071D01*
X132694137Y-86116071D02*
X132694137Y-86354166D01*
X132694137Y-86354166D02*
X132646518Y-86449404D01*
X132646518Y-86449404D02*
X132598898Y-86497023D01*
X131931637Y-81380357D02*
X131455446Y-81713690D01*
X131931637Y-81951785D02*
X130931637Y-81951785D01*
X130931637Y-81951785D02*
X130931637Y-81570833D01*
X130931637Y-81570833D02*
X130979256Y-81475595D01*
X130979256Y-81475595D02*
X131026875Y-81427976D01*
X131026875Y-81427976D02*
X131122113Y-81380357D01*
X131122113Y-81380357D02*
X131264970Y-81380357D01*
X131264970Y-81380357D02*
X131360208Y-81427976D01*
X131360208Y-81427976D02*
X131407827Y-81475595D01*
X131407827Y-81475595D02*
X131455446Y-81570833D01*
X131455446Y-81570833D02*
X131455446Y-81951785D01*
X131026875Y-80999404D02*
X130979256Y-80951785D01*
X130979256Y-80951785D02*
X130931637Y-80856547D01*
X130931637Y-80856547D02*
X130931637Y-80618452D01*
X130931637Y-80618452D02*
X130979256Y-80523214D01*
X130979256Y-80523214D02*
X131026875Y-80475595D01*
X131026875Y-80475595D02*
X131122113Y-80427976D01*
X131122113Y-80427976D02*
X131217351Y-80427976D01*
X131217351Y-80427976D02*
X131360208Y-80475595D01*
X131360208Y-80475595D02*
X131931637Y-81047023D01*
X131931637Y-81047023D02*
X131931637Y-80427976D01*
X131026875Y-80047023D02*
X130979256Y-79999404D01*
X130979256Y-79999404D02*
X130931637Y-79904166D01*
X130931637Y-79904166D02*
X130931637Y-79666071D01*
X130931637Y-79666071D02*
X130979256Y-79570833D01*
X130979256Y-79570833D02*
X131026875Y-79523214D01*
X131026875Y-79523214D02*
X131122113Y-79475595D01*
X131122113Y-79475595D02*
X131217351Y-79475595D01*
X131217351Y-79475595D02*
X131360208Y-79523214D01*
X131360208Y-79523214D02*
X131931637Y-80094642D01*
X131931637Y-80094642D02*
X131931637Y-79475595D01*
X126231905Y-80894819D02*
X126231905Y-79894819D01*
X126231905Y-79894819D02*
X126470000Y-79894819D01*
X126470000Y-79894819D02*
X126612857Y-79942438D01*
X126612857Y-79942438D02*
X126708095Y-80037676D01*
X126708095Y-80037676D02*
X126755714Y-80132914D01*
X126755714Y-80132914D02*
X126803333Y-80323390D01*
X126803333Y-80323390D02*
X126803333Y-80466247D01*
X126803333Y-80466247D02*
X126755714Y-80656723D01*
X126755714Y-80656723D02*
X126708095Y-80751961D01*
X126708095Y-80751961D02*
X126612857Y-80847200D01*
X126612857Y-80847200D02*
X126470000Y-80894819D01*
X126470000Y-80894819D02*
X126231905Y-80894819D01*
X127136667Y-79894819D02*
X127755714Y-79894819D01*
X127755714Y-79894819D02*
X127422381Y-80275771D01*
X127422381Y-80275771D02*
X127565238Y-80275771D01*
X127565238Y-80275771D02*
X127660476Y-80323390D01*
X127660476Y-80323390D02*
X127708095Y-80371009D01*
X127708095Y-80371009D02*
X127755714Y-80466247D01*
X127755714Y-80466247D02*
X127755714Y-80704342D01*
X127755714Y-80704342D02*
X127708095Y-80799580D01*
X127708095Y-80799580D02*
X127660476Y-80847200D01*
X127660476Y-80847200D02*
X127565238Y-80894819D01*
X127565238Y-80894819D02*
X127279524Y-80894819D01*
X127279524Y-80894819D02*
X127184286Y-80847200D01*
X127184286Y-80847200D02*
X127136667Y-80799580D01*
X139222651Y-86247080D02*
X139175032Y-86294700D01*
X139175032Y-86294700D02*
X139032175Y-86342319D01*
X139032175Y-86342319D02*
X138936937Y-86342319D01*
X138936937Y-86342319D02*
X138794080Y-86294700D01*
X138794080Y-86294700D02*
X138698842Y-86199461D01*
X138698842Y-86199461D02*
X138651223Y-86104223D01*
X138651223Y-86104223D02*
X138603604Y-85913747D01*
X138603604Y-85913747D02*
X138603604Y-85770890D01*
X138603604Y-85770890D02*
X138651223Y-85580414D01*
X138651223Y-85580414D02*
X138698842Y-85485176D01*
X138698842Y-85485176D02*
X138794080Y-85389938D01*
X138794080Y-85389938D02*
X138936937Y-85342319D01*
X138936937Y-85342319D02*
X139032175Y-85342319D01*
X139032175Y-85342319D02*
X139175032Y-85389938D01*
X139175032Y-85389938D02*
X139222651Y-85437557D01*
X140175032Y-86342319D02*
X139603604Y-86342319D01*
X139889318Y-86342319D02*
X139889318Y-85342319D01*
X139889318Y-85342319D02*
X139794080Y-85485176D01*
X139794080Y-85485176D02*
X139698842Y-85580414D01*
X139698842Y-85580414D02*
X139603604Y-85628033D01*
X157957142Y-100667319D02*
X157623809Y-100191128D01*
X157385714Y-100667319D02*
X157385714Y-99667319D01*
X157385714Y-99667319D02*
X157766666Y-99667319D01*
X157766666Y-99667319D02*
X157861904Y-99714938D01*
X157861904Y-99714938D02*
X157909523Y-99762557D01*
X157909523Y-99762557D02*
X157957142Y-99857795D01*
X157957142Y-99857795D02*
X157957142Y-100000652D01*
X157957142Y-100000652D02*
X157909523Y-100095890D01*
X157909523Y-100095890D02*
X157861904Y-100143509D01*
X157861904Y-100143509D02*
X157766666Y-100191128D01*
X157766666Y-100191128D02*
X157385714Y-100191128D01*
X158290476Y-99667319D02*
X158909523Y-99667319D01*
X158909523Y-99667319D02*
X158576190Y-100048271D01*
X158576190Y-100048271D02*
X158719047Y-100048271D01*
X158719047Y-100048271D02*
X158814285Y-100095890D01*
X158814285Y-100095890D02*
X158861904Y-100143509D01*
X158861904Y-100143509D02*
X158909523Y-100238747D01*
X158909523Y-100238747D02*
X158909523Y-100476842D01*
X158909523Y-100476842D02*
X158861904Y-100572080D01*
X158861904Y-100572080D02*
X158814285Y-100619700D01*
X158814285Y-100619700D02*
X158719047Y-100667319D01*
X158719047Y-100667319D02*
X158433333Y-100667319D01*
X158433333Y-100667319D02*
X158338095Y-100619700D01*
X158338095Y-100619700D02*
X158290476Y-100572080D01*
X159480952Y-100095890D02*
X159385714Y-100048271D01*
X159385714Y-100048271D02*
X159338095Y-100000652D01*
X159338095Y-100000652D02*
X159290476Y-99905414D01*
X159290476Y-99905414D02*
X159290476Y-99857795D01*
X159290476Y-99857795D02*
X159338095Y-99762557D01*
X159338095Y-99762557D02*
X159385714Y-99714938D01*
X159385714Y-99714938D02*
X159480952Y-99667319D01*
X159480952Y-99667319D02*
X159671428Y-99667319D01*
X159671428Y-99667319D02*
X159766666Y-99714938D01*
X159766666Y-99714938D02*
X159814285Y-99762557D01*
X159814285Y-99762557D02*
X159861904Y-99857795D01*
X159861904Y-99857795D02*
X159861904Y-99905414D01*
X159861904Y-99905414D02*
X159814285Y-100000652D01*
X159814285Y-100000652D02*
X159766666Y-100048271D01*
X159766666Y-100048271D02*
X159671428Y-100095890D01*
X159671428Y-100095890D02*
X159480952Y-100095890D01*
X159480952Y-100095890D02*
X159385714Y-100143509D01*
X159385714Y-100143509D02*
X159338095Y-100191128D01*
X159338095Y-100191128D02*
X159290476Y-100286366D01*
X159290476Y-100286366D02*
X159290476Y-100476842D01*
X159290476Y-100476842D02*
X159338095Y-100572080D01*
X159338095Y-100572080D02*
X159385714Y-100619700D01*
X159385714Y-100619700D02*
X159480952Y-100667319D01*
X159480952Y-100667319D02*
X159671428Y-100667319D01*
X159671428Y-100667319D02*
X159766666Y-100619700D01*
X159766666Y-100619700D02*
X159814285Y-100572080D01*
X159814285Y-100572080D02*
X159861904Y-100476842D01*
X159861904Y-100476842D02*
X159861904Y-100286366D01*
X159861904Y-100286366D02*
X159814285Y-100191128D01*
X159814285Y-100191128D02*
X159766666Y-100143509D01*
X159766666Y-100143509D02*
X159671428Y-100095890D01*
X146212319Y-92242857D02*
X145736128Y-92576190D01*
X146212319Y-92814285D02*
X145212319Y-92814285D01*
X145212319Y-92814285D02*
X145212319Y-92433333D01*
X145212319Y-92433333D02*
X145259938Y-92338095D01*
X145259938Y-92338095D02*
X145307557Y-92290476D01*
X145307557Y-92290476D02*
X145402795Y-92242857D01*
X145402795Y-92242857D02*
X145545652Y-92242857D01*
X145545652Y-92242857D02*
X145640890Y-92290476D01*
X145640890Y-92290476D02*
X145688509Y-92338095D01*
X145688509Y-92338095D02*
X145736128Y-92433333D01*
X145736128Y-92433333D02*
X145736128Y-92814285D01*
X146212319Y-91290476D02*
X146212319Y-91861904D01*
X146212319Y-91576190D02*
X145212319Y-91576190D01*
X145212319Y-91576190D02*
X145355176Y-91671428D01*
X145355176Y-91671428D02*
X145450414Y-91766666D01*
X145450414Y-91766666D02*
X145498033Y-91861904D01*
X145212319Y-90433333D02*
X145212319Y-90623809D01*
X145212319Y-90623809D02*
X145259938Y-90719047D01*
X145259938Y-90719047D02*
X145307557Y-90766666D01*
X145307557Y-90766666D02*
X145450414Y-90861904D01*
X145450414Y-90861904D02*
X145640890Y-90909523D01*
X145640890Y-90909523D02*
X146021842Y-90909523D01*
X146021842Y-90909523D02*
X146117080Y-90861904D01*
X146117080Y-90861904D02*
X146164700Y-90814285D01*
X146164700Y-90814285D02*
X146212319Y-90719047D01*
X146212319Y-90719047D02*
X146212319Y-90528571D01*
X146212319Y-90528571D02*
X146164700Y-90433333D01*
X146164700Y-90433333D02*
X146117080Y-90385714D01*
X146117080Y-90385714D02*
X146021842Y-90338095D01*
X146021842Y-90338095D02*
X145783747Y-90338095D01*
X145783747Y-90338095D02*
X145688509Y-90385714D01*
X145688509Y-90385714D02*
X145640890Y-90433333D01*
X145640890Y-90433333D02*
X145593271Y-90528571D01*
X145593271Y-90528571D02*
X145593271Y-90719047D01*
X145593271Y-90719047D02*
X145640890Y-90814285D01*
X145640890Y-90814285D02*
X145688509Y-90861904D01*
X145688509Y-90861904D02*
X145783747Y-90909523D01*
X137274642Y-66379580D02*
X137227023Y-66427200D01*
X137227023Y-66427200D02*
X137084166Y-66474819D01*
X137084166Y-66474819D02*
X136988928Y-66474819D01*
X136988928Y-66474819D02*
X136846071Y-66427200D01*
X136846071Y-66427200D02*
X136750833Y-66331961D01*
X136750833Y-66331961D02*
X136703214Y-66236723D01*
X136703214Y-66236723D02*
X136655595Y-66046247D01*
X136655595Y-66046247D02*
X136655595Y-65903390D01*
X136655595Y-65903390D02*
X136703214Y-65712914D01*
X136703214Y-65712914D02*
X136750833Y-65617676D01*
X136750833Y-65617676D02*
X136846071Y-65522438D01*
X136846071Y-65522438D02*
X136988928Y-65474819D01*
X136988928Y-65474819D02*
X137084166Y-65474819D01*
X137084166Y-65474819D02*
X137227023Y-65522438D01*
X137227023Y-65522438D02*
X137274642Y-65570057D01*
X138227023Y-66474819D02*
X137655595Y-66474819D01*
X137941309Y-66474819D02*
X137941309Y-65474819D01*
X137941309Y-65474819D02*
X137846071Y-65617676D01*
X137846071Y-65617676D02*
X137750833Y-65712914D01*
X137750833Y-65712914D02*
X137655595Y-65760533D01*
X138846071Y-65474819D02*
X138941309Y-65474819D01*
X138941309Y-65474819D02*
X139036547Y-65522438D01*
X139036547Y-65522438D02*
X139084166Y-65570057D01*
X139084166Y-65570057D02*
X139131785Y-65665295D01*
X139131785Y-65665295D02*
X139179404Y-65855771D01*
X139179404Y-65855771D02*
X139179404Y-66093866D01*
X139179404Y-66093866D02*
X139131785Y-66284342D01*
X139131785Y-66284342D02*
X139084166Y-66379580D01*
X139084166Y-66379580D02*
X139036547Y-66427200D01*
X139036547Y-66427200D02*
X138941309Y-66474819D01*
X138941309Y-66474819D02*
X138846071Y-66474819D01*
X138846071Y-66474819D02*
X138750833Y-66427200D01*
X138750833Y-66427200D02*
X138703214Y-66379580D01*
X138703214Y-66379580D02*
X138655595Y-66284342D01*
X138655595Y-66284342D02*
X138607976Y-66093866D01*
X138607976Y-66093866D02*
X138607976Y-65855771D01*
X138607976Y-65855771D02*
X138655595Y-65665295D01*
X138655595Y-65665295D02*
X138703214Y-65570057D01*
X138703214Y-65570057D02*
X138750833Y-65522438D01*
X138750833Y-65522438D02*
X138846071Y-65474819D01*
D12*
X123506667Y-56509318D02*
X123506667Y-57416461D01*
X123506667Y-57416461D02*
X123446190Y-57597889D01*
X123446190Y-57597889D02*
X123325238Y-57718842D01*
X123325238Y-57718842D02*
X123143809Y-57779318D01*
X123143809Y-57779318D02*
X123022857Y-57779318D01*
X124050952Y-56630270D02*
X124111428Y-56569794D01*
X124111428Y-56569794D02*
X124232381Y-56509318D01*
X124232381Y-56509318D02*
X124534762Y-56509318D01*
X124534762Y-56509318D02*
X124655714Y-56569794D01*
X124655714Y-56569794D02*
X124716190Y-56630270D01*
X124716190Y-56630270D02*
X124776667Y-56751222D01*
X124776667Y-56751222D02*
X124776667Y-56872175D01*
X124776667Y-56872175D02*
X124716190Y-57053603D01*
X124716190Y-57053603D02*
X123990476Y-57779318D01*
X123990476Y-57779318D02*
X124776667Y-57779318D01*
D11*
X175106666Y-129564819D02*
X175106666Y-130279104D01*
X175106666Y-130279104D02*
X175059047Y-130421961D01*
X175059047Y-130421961D02*
X174963809Y-130517200D01*
X174963809Y-130517200D02*
X174820952Y-130564819D01*
X174820952Y-130564819D02*
X174725714Y-130564819D01*
X175630476Y-130564819D02*
X175820952Y-130564819D01*
X175820952Y-130564819D02*
X175916190Y-130517200D01*
X175916190Y-130517200D02*
X175963809Y-130469580D01*
X175963809Y-130469580D02*
X176059047Y-130326723D01*
X176059047Y-130326723D02*
X176106666Y-130136247D01*
X176106666Y-130136247D02*
X176106666Y-129755295D01*
X176106666Y-129755295D02*
X176059047Y-129660057D01*
X176059047Y-129660057D02*
X176011428Y-129612438D01*
X176011428Y-129612438D02*
X175916190Y-129564819D01*
X175916190Y-129564819D02*
X175725714Y-129564819D01*
X175725714Y-129564819D02*
X175630476Y-129612438D01*
X175630476Y-129612438D02*
X175582857Y-129660057D01*
X175582857Y-129660057D02*
X175535238Y-129755295D01*
X175535238Y-129755295D02*
X175535238Y-129993390D01*
X175535238Y-129993390D02*
X175582857Y-130088628D01*
X175582857Y-130088628D02*
X175630476Y-130136247D01*
X175630476Y-130136247D02*
X175725714Y-130183866D01*
X175725714Y-130183866D02*
X175916190Y-130183866D01*
X175916190Y-130183866D02*
X176011428Y-130136247D01*
X176011428Y-130136247D02*
X176059047Y-130088628D01*
X176059047Y-130088628D02*
X176106666Y-129993390D01*
X147304819Y-70742857D02*
X146828628Y-71076190D01*
X147304819Y-71314285D02*
X146304819Y-71314285D01*
X146304819Y-71314285D02*
X146304819Y-70933333D01*
X146304819Y-70933333D02*
X146352438Y-70838095D01*
X146352438Y-70838095D02*
X146400057Y-70790476D01*
X146400057Y-70790476D02*
X146495295Y-70742857D01*
X146495295Y-70742857D02*
X146638152Y-70742857D01*
X146638152Y-70742857D02*
X146733390Y-70790476D01*
X146733390Y-70790476D02*
X146781009Y-70838095D01*
X146781009Y-70838095D02*
X146828628Y-70933333D01*
X146828628Y-70933333D02*
X146828628Y-71314285D01*
X146400057Y-70361904D02*
X146352438Y-70314285D01*
X146352438Y-70314285D02*
X146304819Y-70219047D01*
X146304819Y-70219047D02*
X146304819Y-69980952D01*
X146304819Y-69980952D02*
X146352438Y-69885714D01*
X146352438Y-69885714D02*
X146400057Y-69838095D01*
X146400057Y-69838095D02*
X146495295Y-69790476D01*
X146495295Y-69790476D02*
X146590533Y-69790476D01*
X146590533Y-69790476D02*
X146733390Y-69838095D01*
X146733390Y-69838095D02*
X147304819Y-70409523D01*
X147304819Y-70409523D02*
X147304819Y-69790476D01*
X146304819Y-68933333D02*
X146304819Y-69123809D01*
X146304819Y-69123809D02*
X146352438Y-69219047D01*
X146352438Y-69219047D02*
X146400057Y-69266666D01*
X146400057Y-69266666D02*
X146542914Y-69361904D01*
X146542914Y-69361904D02*
X146733390Y-69409523D01*
X146733390Y-69409523D02*
X147114342Y-69409523D01*
X147114342Y-69409523D02*
X147209580Y-69361904D01*
X147209580Y-69361904D02*
X147257200Y-69314285D01*
X147257200Y-69314285D02*
X147304819Y-69219047D01*
X147304819Y-69219047D02*
X147304819Y-69028571D01*
X147304819Y-69028571D02*
X147257200Y-68933333D01*
X147257200Y-68933333D02*
X147209580Y-68885714D01*
X147209580Y-68885714D02*
X147114342Y-68838095D01*
X147114342Y-68838095D02*
X146876247Y-68838095D01*
X146876247Y-68838095D02*
X146781009Y-68885714D01*
X146781009Y-68885714D02*
X146733390Y-68933333D01*
X146733390Y-68933333D02*
X146685771Y-69028571D01*
X146685771Y-69028571D02*
X146685771Y-69219047D01*
X146685771Y-69219047D02*
X146733390Y-69314285D01*
X146733390Y-69314285D02*
X146781009Y-69361904D01*
X146781009Y-69361904D02*
X146876247Y-69409523D01*
X140698333Y-104999580D02*
X140650714Y-105047200D01*
X140650714Y-105047200D02*
X140507857Y-105094819D01*
X140507857Y-105094819D02*
X140412619Y-105094819D01*
X140412619Y-105094819D02*
X140269762Y-105047200D01*
X140269762Y-105047200D02*
X140174524Y-104951961D01*
X140174524Y-104951961D02*
X140126905Y-104856723D01*
X140126905Y-104856723D02*
X140079286Y-104666247D01*
X140079286Y-104666247D02*
X140079286Y-104523390D01*
X140079286Y-104523390D02*
X140126905Y-104332914D01*
X140126905Y-104332914D02*
X140174524Y-104237676D01*
X140174524Y-104237676D02*
X140269762Y-104142438D01*
X140269762Y-104142438D02*
X140412619Y-104094819D01*
X140412619Y-104094819D02*
X140507857Y-104094819D01*
X140507857Y-104094819D02*
X140650714Y-104142438D01*
X140650714Y-104142438D02*
X140698333Y-104190057D01*
X141555476Y-104428152D02*
X141555476Y-105094819D01*
X141317381Y-104047200D02*
X141079286Y-104761485D01*
X141079286Y-104761485D02*
X141698333Y-104761485D01*
X137954819Y-74767857D02*
X137478628Y-75101190D01*
X137954819Y-75339285D02*
X136954819Y-75339285D01*
X136954819Y-75339285D02*
X136954819Y-74958333D01*
X136954819Y-74958333D02*
X137002438Y-74863095D01*
X137002438Y-74863095D02*
X137050057Y-74815476D01*
X137050057Y-74815476D02*
X137145295Y-74767857D01*
X137145295Y-74767857D02*
X137288152Y-74767857D01*
X137288152Y-74767857D02*
X137383390Y-74815476D01*
X137383390Y-74815476D02*
X137431009Y-74863095D01*
X137431009Y-74863095D02*
X137478628Y-74958333D01*
X137478628Y-74958333D02*
X137478628Y-75339285D01*
X137050057Y-74386904D02*
X137002438Y-74339285D01*
X137002438Y-74339285D02*
X136954819Y-74244047D01*
X136954819Y-74244047D02*
X136954819Y-74005952D01*
X136954819Y-74005952D02*
X137002438Y-73910714D01*
X137002438Y-73910714D02*
X137050057Y-73863095D01*
X137050057Y-73863095D02*
X137145295Y-73815476D01*
X137145295Y-73815476D02*
X137240533Y-73815476D01*
X137240533Y-73815476D02*
X137383390Y-73863095D01*
X137383390Y-73863095D02*
X137954819Y-74434523D01*
X137954819Y-74434523D02*
X137954819Y-73815476D01*
X137288152Y-72958333D02*
X137954819Y-72958333D01*
X136907200Y-73196428D02*
X137621485Y-73434523D01*
X137621485Y-73434523D02*
X137621485Y-72815476D01*
X150783333Y-82607080D02*
X150735714Y-82654700D01*
X150735714Y-82654700D02*
X150592857Y-82702319D01*
X150592857Y-82702319D02*
X150497619Y-82702319D01*
X150497619Y-82702319D02*
X150354762Y-82654700D01*
X150354762Y-82654700D02*
X150259524Y-82559461D01*
X150259524Y-82559461D02*
X150211905Y-82464223D01*
X150211905Y-82464223D02*
X150164286Y-82273747D01*
X150164286Y-82273747D02*
X150164286Y-82130890D01*
X150164286Y-82130890D02*
X150211905Y-81940414D01*
X150211905Y-81940414D02*
X150259524Y-81845176D01*
X150259524Y-81845176D02*
X150354762Y-81749938D01*
X150354762Y-81749938D02*
X150497619Y-81702319D01*
X150497619Y-81702319D02*
X150592857Y-81702319D01*
X150592857Y-81702319D02*
X150735714Y-81749938D01*
X150735714Y-81749938D02*
X150783333Y-81797557D01*
X151688095Y-81702319D02*
X151211905Y-81702319D01*
X151211905Y-81702319D02*
X151164286Y-82178509D01*
X151164286Y-82178509D02*
X151211905Y-82130890D01*
X151211905Y-82130890D02*
X151307143Y-82083271D01*
X151307143Y-82083271D02*
X151545238Y-82083271D01*
X151545238Y-82083271D02*
X151640476Y-82130890D01*
X151640476Y-82130890D02*
X151688095Y-82178509D01*
X151688095Y-82178509D02*
X151735714Y-82273747D01*
X151735714Y-82273747D02*
X151735714Y-82511842D01*
X151735714Y-82511842D02*
X151688095Y-82607080D01*
X151688095Y-82607080D02*
X151640476Y-82654700D01*
X151640476Y-82654700D02*
X151545238Y-82702319D01*
X151545238Y-82702319D02*
X151307143Y-82702319D01*
X151307143Y-82702319D02*
X151211905Y-82654700D01*
X151211905Y-82654700D02*
X151164286Y-82607080D01*
X141190595Y-101274819D02*
X141190595Y-102084342D01*
X141190595Y-102084342D02*
X141238214Y-102179580D01*
X141238214Y-102179580D02*
X141285833Y-102227200D01*
X141285833Y-102227200D02*
X141381071Y-102274819D01*
X141381071Y-102274819D02*
X141571547Y-102274819D01*
X141571547Y-102274819D02*
X141666785Y-102227200D01*
X141666785Y-102227200D02*
X141714404Y-102179580D01*
X141714404Y-102179580D02*
X141762023Y-102084342D01*
X141762023Y-102084342D02*
X141762023Y-101274819D01*
X142142976Y-101274819D02*
X142809642Y-101274819D01*
X142809642Y-101274819D02*
X142381071Y-102274819D01*
X142584819Y-71321904D02*
X143394342Y-71321904D01*
X143394342Y-71321904D02*
X143489580Y-71274285D01*
X143489580Y-71274285D02*
X143537200Y-71226666D01*
X143537200Y-71226666D02*
X143584819Y-71131428D01*
X143584819Y-71131428D02*
X143584819Y-70940952D01*
X143584819Y-70940952D02*
X143537200Y-70845714D01*
X143537200Y-70845714D02*
X143489580Y-70798095D01*
X143489580Y-70798095D02*
X143394342Y-70750476D01*
X143394342Y-70750476D02*
X142584819Y-70750476D01*
X142584819Y-70369523D02*
X142584819Y-69750476D01*
X142584819Y-69750476D02*
X142965771Y-70083809D01*
X142965771Y-70083809D02*
X142965771Y-69940952D01*
X142965771Y-69940952D02*
X143013390Y-69845714D01*
X143013390Y-69845714D02*
X143061009Y-69798095D01*
X143061009Y-69798095D02*
X143156247Y-69750476D01*
X143156247Y-69750476D02*
X143394342Y-69750476D01*
X143394342Y-69750476D02*
X143489580Y-69798095D01*
X143489580Y-69798095D02*
X143537200Y-69845714D01*
X143537200Y-69845714D02*
X143584819Y-69940952D01*
X143584819Y-69940952D02*
X143584819Y-70226666D01*
X143584819Y-70226666D02*
X143537200Y-70321904D01*
X143537200Y-70321904D02*
X143489580Y-70369523D01*
X158759819Y-115080357D02*
X158283628Y-115413690D01*
X158759819Y-115651785D02*
X157759819Y-115651785D01*
X157759819Y-115651785D02*
X157759819Y-115270833D01*
X157759819Y-115270833D02*
X157807438Y-115175595D01*
X157807438Y-115175595D02*
X157855057Y-115127976D01*
X157855057Y-115127976D02*
X157950295Y-115080357D01*
X157950295Y-115080357D02*
X158093152Y-115080357D01*
X158093152Y-115080357D02*
X158188390Y-115127976D01*
X158188390Y-115127976D02*
X158236009Y-115175595D01*
X158236009Y-115175595D02*
X158283628Y-115270833D01*
X158283628Y-115270833D02*
X158283628Y-115651785D01*
X157759819Y-114747023D02*
X157759819Y-114127976D01*
X157759819Y-114127976D02*
X158140771Y-114461309D01*
X158140771Y-114461309D02*
X158140771Y-114318452D01*
X158140771Y-114318452D02*
X158188390Y-114223214D01*
X158188390Y-114223214D02*
X158236009Y-114175595D01*
X158236009Y-114175595D02*
X158331247Y-114127976D01*
X158331247Y-114127976D02*
X158569342Y-114127976D01*
X158569342Y-114127976D02*
X158664580Y-114175595D01*
X158664580Y-114175595D02*
X158712200Y-114223214D01*
X158712200Y-114223214D02*
X158759819Y-114318452D01*
X158759819Y-114318452D02*
X158759819Y-114604166D01*
X158759819Y-114604166D02*
X158712200Y-114699404D01*
X158712200Y-114699404D02*
X158664580Y-114747023D01*
X158759819Y-113175595D02*
X158759819Y-113747023D01*
X158759819Y-113461309D02*
X157759819Y-113461309D01*
X157759819Y-113461309D02*
X157902676Y-113556547D01*
X157902676Y-113556547D02*
X157997914Y-113651785D01*
X157997914Y-113651785D02*
X158045533Y-113747023D01*
X135993333Y-77659580D02*
X135945714Y-77707200D01*
X135945714Y-77707200D02*
X135802857Y-77754819D01*
X135802857Y-77754819D02*
X135707619Y-77754819D01*
X135707619Y-77754819D02*
X135564762Y-77707200D01*
X135564762Y-77707200D02*
X135469524Y-77611961D01*
X135469524Y-77611961D02*
X135421905Y-77516723D01*
X135421905Y-77516723D02*
X135374286Y-77326247D01*
X135374286Y-77326247D02*
X135374286Y-77183390D01*
X135374286Y-77183390D02*
X135421905Y-76992914D01*
X135421905Y-76992914D02*
X135469524Y-76897676D01*
X135469524Y-76897676D02*
X135564762Y-76802438D01*
X135564762Y-76802438D02*
X135707619Y-76754819D01*
X135707619Y-76754819D02*
X135802857Y-76754819D01*
X135802857Y-76754819D02*
X135945714Y-76802438D01*
X135945714Y-76802438D02*
X135993333Y-76850057D01*
X136850476Y-76754819D02*
X136660000Y-76754819D01*
X136660000Y-76754819D02*
X136564762Y-76802438D01*
X136564762Y-76802438D02*
X136517143Y-76850057D01*
X136517143Y-76850057D02*
X136421905Y-76992914D01*
X136421905Y-76992914D02*
X136374286Y-77183390D01*
X136374286Y-77183390D02*
X136374286Y-77564342D01*
X136374286Y-77564342D02*
X136421905Y-77659580D01*
X136421905Y-77659580D02*
X136469524Y-77707200D01*
X136469524Y-77707200D02*
X136564762Y-77754819D01*
X136564762Y-77754819D02*
X136755238Y-77754819D01*
X136755238Y-77754819D02*
X136850476Y-77707200D01*
X136850476Y-77707200D02*
X136898095Y-77659580D01*
X136898095Y-77659580D02*
X136945714Y-77564342D01*
X136945714Y-77564342D02*
X136945714Y-77326247D01*
X136945714Y-77326247D02*
X136898095Y-77231009D01*
X136898095Y-77231009D02*
X136850476Y-77183390D01*
X136850476Y-77183390D02*
X136755238Y-77135771D01*
X136755238Y-77135771D02*
X136564762Y-77135771D01*
X136564762Y-77135771D02*
X136469524Y-77183390D01*
X136469524Y-77183390D02*
X136421905Y-77231009D01*
X136421905Y-77231009D02*
X136374286Y-77326247D01*
X129273333Y-119422319D02*
X128940000Y-118946128D01*
X128701905Y-119422319D02*
X128701905Y-118422319D01*
X128701905Y-118422319D02*
X129082857Y-118422319D01*
X129082857Y-118422319D02*
X129178095Y-118469938D01*
X129178095Y-118469938D02*
X129225714Y-118517557D01*
X129225714Y-118517557D02*
X129273333Y-118612795D01*
X129273333Y-118612795D02*
X129273333Y-118755652D01*
X129273333Y-118755652D02*
X129225714Y-118850890D01*
X129225714Y-118850890D02*
X129178095Y-118898509D01*
X129178095Y-118898509D02*
X129082857Y-118946128D01*
X129082857Y-118946128D02*
X128701905Y-118946128D01*
X129606667Y-118422319D02*
X130273333Y-118422319D01*
X130273333Y-118422319D02*
X129844762Y-119422319D01*
X143627142Y-110724819D02*
X143293809Y-110248628D01*
X143055714Y-110724819D02*
X143055714Y-109724819D01*
X143055714Y-109724819D02*
X143436666Y-109724819D01*
X143436666Y-109724819D02*
X143531904Y-109772438D01*
X143531904Y-109772438D02*
X143579523Y-109820057D01*
X143579523Y-109820057D02*
X143627142Y-109915295D01*
X143627142Y-109915295D02*
X143627142Y-110058152D01*
X143627142Y-110058152D02*
X143579523Y-110153390D01*
X143579523Y-110153390D02*
X143531904Y-110201009D01*
X143531904Y-110201009D02*
X143436666Y-110248628D01*
X143436666Y-110248628D02*
X143055714Y-110248628D01*
X143960476Y-109724819D02*
X144579523Y-109724819D01*
X144579523Y-109724819D02*
X144246190Y-110105771D01*
X144246190Y-110105771D02*
X144389047Y-110105771D01*
X144389047Y-110105771D02*
X144484285Y-110153390D01*
X144484285Y-110153390D02*
X144531904Y-110201009D01*
X144531904Y-110201009D02*
X144579523Y-110296247D01*
X144579523Y-110296247D02*
X144579523Y-110534342D01*
X144579523Y-110534342D02*
X144531904Y-110629580D01*
X144531904Y-110629580D02*
X144484285Y-110677200D01*
X144484285Y-110677200D02*
X144389047Y-110724819D01*
X144389047Y-110724819D02*
X144103333Y-110724819D01*
X144103333Y-110724819D02*
X144008095Y-110677200D01*
X144008095Y-110677200D02*
X143960476Y-110629580D01*
X144960476Y-109820057D02*
X145008095Y-109772438D01*
X145008095Y-109772438D02*
X145103333Y-109724819D01*
X145103333Y-109724819D02*
X145341428Y-109724819D01*
X145341428Y-109724819D02*
X145436666Y-109772438D01*
X145436666Y-109772438D02*
X145484285Y-109820057D01*
X145484285Y-109820057D02*
X145531904Y-109915295D01*
X145531904Y-109915295D02*
X145531904Y-110010533D01*
X145531904Y-110010533D02*
X145484285Y-110153390D01*
X145484285Y-110153390D02*
X144912857Y-110724819D01*
X144912857Y-110724819D02*
X145531904Y-110724819D01*
X134229819Y-70510357D02*
X133753628Y-70843690D01*
X134229819Y-71081785D02*
X133229819Y-71081785D01*
X133229819Y-71081785D02*
X133229819Y-70700833D01*
X133229819Y-70700833D02*
X133277438Y-70605595D01*
X133277438Y-70605595D02*
X133325057Y-70557976D01*
X133325057Y-70557976D02*
X133420295Y-70510357D01*
X133420295Y-70510357D02*
X133563152Y-70510357D01*
X133563152Y-70510357D02*
X133658390Y-70557976D01*
X133658390Y-70557976D02*
X133706009Y-70605595D01*
X133706009Y-70605595D02*
X133753628Y-70700833D01*
X133753628Y-70700833D02*
X133753628Y-71081785D01*
X133325057Y-70129404D02*
X133277438Y-70081785D01*
X133277438Y-70081785D02*
X133229819Y-69986547D01*
X133229819Y-69986547D02*
X133229819Y-69748452D01*
X133229819Y-69748452D02*
X133277438Y-69653214D01*
X133277438Y-69653214D02*
X133325057Y-69605595D01*
X133325057Y-69605595D02*
X133420295Y-69557976D01*
X133420295Y-69557976D02*
X133515533Y-69557976D01*
X133515533Y-69557976D02*
X133658390Y-69605595D01*
X133658390Y-69605595D02*
X134229819Y-70177023D01*
X134229819Y-70177023D02*
X134229819Y-69557976D01*
X133658390Y-68986547D02*
X133610771Y-69081785D01*
X133610771Y-69081785D02*
X133563152Y-69129404D01*
X133563152Y-69129404D02*
X133467914Y-69177023D01*
X133467914Y-69177023D02*
X133420295Y-69177023D01*
X133420295Y-69177023D02*
X133325057Y-69129404D01*
X133325057Y-69129404D02*
X133277438Y-69081785D01*
X133277438Y-69081785D02*
X133229819Y-68986547D01*
X133229819Y-68986547D02*
X133229819Y-68796071D01*
X133229819Y-68796071D02*
X133277438Y-68700833D01*
X133277438Y-68700833D02*
X133325057Y-68653214D01*
X133325057Y-68653214D02*
X133420295Y-68605595D01*
X133420295Y-68605595D02*
X133467914Y-68605595D01*
X133467914Y-68605595D02*
X133563152Y-68653214D01*
X133563152Y-68653214D02*
X133610771Y-68700833D01*
X133610771Y-68700833D02*
X133658390Y-68796071D01*
X133658390Y-68796071D02*
X133658390Y-68986547D01*
X133658390Y-68986547D02*
X133706009Y-69081785D01*
X133706009Y-69081785D02*
X133753628Y-69129404D01*
X133753628Y-69129404D02*
X133848866Y-69177023D01*
X133848866Y-69177023D02*
X134039342Y-69177023D01*
X134039342Y-69177023D02*
X134134580Y-69129404D01*
X134134580Y-69129404D02*
X134182200Y-69081785D01*
X134182200Y-69081785D02*
X134229819Y-68986547D01*
X134229819Y-68986547D02*
X134229819Y-68796071D01*
X134229819Y-68796071D02*
X134182200Y-68700833D01*
X134182200Y-68700833D02*
X134134580Y-68653214D01*
X134134580Y-68653214D02*
X134039342Y-68605595D01*
X134039342Y-68605595D02*
X133848866Y-68605595D01*
X133848866Y-68605595D02*
X133753628Y-68653214D01*
X133753628Y-68653214D02*
X133706009Y-68700833D01*
X133706009Y-68700833D02*
X133658390Y-68796071D01*
X143681637Y-83342857D02*
X143205446Y-83676190D01*
X143681637Y-83914285D02*
X142681637Y-83914285D01*
X142681637Y-83914285D02*
X142681637Y-83533333D01*
X142681637Y-83533333D02*
X142729256Y-83438095D01*
X142729256Y-83438095D02*
X142776875Y-83390476D01*
X142776875Y-83390476D02*
X142872113Y-83342857D01*
X142872113Y-83342857D02*
X143014970Y-83342857D01*
X143014970Y-83342857D02*
X143110208Y-83390476D01*
X143110208Y-83390476D02*
X143157827Y-83438095D01*
X143157827Y-83438095D02*
X143205446Y-83533333D01*
X143205446Y-83533333D02*
X143205446Y-83914285D01*
X143681637Y-82390476D02*
X143681637Y-82961904D01*
X143681637Y-82676190D02*
X142681637Y-82676190D01*
X142681637Y-82676190D02*
X142824494Y-82771428D01*
X142824494Y-82771428D02*
X142919732Y-82866666D01*
X142919732Y-82866666D02*
X142967351Y-82961904D01*
X143681637Y-81914285D02*
X143681637Y-81723809D01*
X143681637Y-81723809D02*
X143634018Y-81628571D01*
X143634018Y-81628571D02*
X143586398Y-81580952D01*
X143586398Y-81580952D02*
X143443541Y-81485714D01*
X143443541Y-81485714D02*
X143253065Y-81438095D01*
X143253065Y-81438095D02*
X142872113Y-81438095D01*
X142872113Y-81438095D02*
X142776875Y-81485714D01*
X142776875Y-81485714D02*
X142729256Y-81533333D01*
X142729256Y-81533333D02*
X142681637Y-81628571D01*
X142681637Y-81628571D02*
X142681637Y-81819047D01*
X142681637Y-81819047D02*
X142729256Y-81914285D01*
X142729256Y-81914285D02*
X142776875Y-81961904D01*
X142776875Y-81961904D02*
X142872113Y-82009523D01*
X142872113Y-82009523D02*
X143110208Y-82009523D01*
X143110208Y-82009523D02*
X143205446Y-81961904D01*
X143205446Y-81961904D02*
X143253065Y-81914285D01*
X143253065Y-81914285D02*
X143300684Y-81819047D01*
X143300684Y-81819047D02*
X143300684Y-81628571D01*
X143300684Y-81628571D02*
X143253065Y-81533333D01*
X143253065Y-81533333D02*
X143205446Y-81485714D01*
X143205446Y-81485714D02*
X143110208Y-81438095D01*
X157387319Y-88242857D02*
X156911128Y-88576190D01*
X157387319Y-88814285D02*
X156387319Y-88814285D01*
X156387319Y-88814285D02*
X156387319Y-88433333D01*
X156387319Y-88433333D02*
X156434938Y-88338095D01*
X156434938Y-88338095D02*
X156482557Y-88290476D01*
X156482557Y-88290476D02*
X156577795Y-88242857D01*
X156577795Y-88242857D02*
X156720652Y-88242857D01*
X156720652Y-88242857D02*
X156815890Y-88290476D01*
X156815890Y-88290476D02*
X156863509Y-88338095D01*
X156863509Y-88338095D02*
X156911128Y-88433333D01*
X156911128Y-88433333D02*
X156911128Y-88814285D01*
X156482557Y-87861904D02*
X156434938Y-87814285D01*
X156434938Y-87814285D02*
X156387319Y-87719047D01*
X156387319Y-87719047D02*
X156387319Y-87480952D01*
X156387319Y-87480952D02*
X156434938Y-87385714D01*
X156434938Y-87385714D02*
X156482557Y-87338095D01*
X156482557Y-87338095D02*
X156577795Y-87290476D01*
X156577795Y-87290476D02*
X156673033Y-87290476D01*
X156673033Y-87290476D02*
X156815890Y-87338095D01*
X156815890Y-87338095D02*
X157387319Y-87909523D01*
X157387319Y-87909523D02*
X157387319Y-87290476D01*
X157387319Y-86338095D02*
X157387319Y-86909523D01*
X157387319Y-86623809D02*
X156387319Y-86623809D01*
X156387319Y-86623809D02*
X156530176Y-86719047D01*
X156530176Y-86719047D02*
X156625414Y-86814285D01*
X156625414Y-86814285D02*
X156673033Y-86909523D01*
X142427142Y-93004819D02*
X142093809Y-92528628D01*
X141855714Y-93004819D02*
X141855714Y-92004819D01*
X141855714Y-92004819D02*
X142236666Y-92004819D01*
X142236666Y-92004819D02*
X142331904Y-92052438D01*
X142331904Y-92052438D02*
X142379523Y-92100057D01*
X142379523Y-92100057D02*
X142427142Y-92195295D01*
X142427142Y-92195295D02*
X142427142Y-92338152D01*
X142427142Y-92338152D02*
X142379523Y-92433390D01*
X142379523Y-92433390D02*
X142331904Y-92481009D01*
X142331904Y-92481009D02*
X142236666Y-92528628D01*
X142236666Y-92528628D02*
X141855714Y-92528628D01*
X142808095Y-92100057D02*
X142855714Y-92052438D01*
X142855714Y-92052438D02*
X142950952Y-92004819D01*
X142950952Y-92004819D02*
X143189047Y-92004819D01*
X143189047Y-92004819D02*
X143284285Y-92052438D01*
X143284285Y-92052438D02*
X143331904Y-92100057D01*
X143331904Y-92100057D02*
X143379523Y-92195295D01*
X143379523Y-92195295D02*
X143379523Y-92290533D01*
X143379523Y-92290533D02*
X143331904Y-92433390D01*
X143331904Y-92433390D02*
X142760476Y-93004819D01*
X142760476Y-93004819D02*
X143379523Y-93004819D01*
X143998571Y-92004819D02*
X144093809Y-92004819D01*
X144093809Y-92004819D02*
X144189047Y-92052438D01*
X144189047Y-92052438D02*
X144236666Y-92100057D01*
X144236666Y-92100057D02*
X144284285Y-92195295D01*
X144284285Y-92195295D02*
X144331904Y-92385771D01*
X144331904Y-92385771D02*
X144331904Y-92623866D01*
X144331904Y-92623866D02*
X144284285Y-92814342D01*
X144284285Y-92814342D02*
X144236666Y-92909580D01*
X144236666Y-92909580D02*
X144189047Y-92957200D01*
X144189047Y-92957200D02*
X144093809Y-93004819D01*
X144093809Y-93004819D02*
X143998571Y-93004819D01*
X143998571Y-93004819D02*
X143903333Y-92957200D01*
X143903333Y-92957200D02*
X143855714Y-92909580D01*
X143855714Y-92909580D02*
X143808095Y-92814342D01*
X143808095Y-92814342D02*
X143760476Y-92623866D01*
X143760476Y-92623866D02*
X143760476Y-92385771D01*
X143760476Y-92385771D02*
X143808095Y-92195295D01*
X143808095Y-92195295D02*
X143855714Y-92100057D01*
X143855714Y-92100057D02*
X143903333Y-92052438D01*
X143903333Y-92052438D02*
X143998571Y-92004819D01*
X163782319Y-120694404D02*
X164591842Y-120694404D01*
X164591842Y-120694404D02*
X164687080Y-120646785D01*
X164687080Y-120646785D02*
X164734700Y-120599166D01*
X164734700Y-120599166D02*
X164782319Y-120503928D01*
X164782319Y-120503928D02*
X164782319Y-120313452D01*
X164782319Y-120313452D02*
X164734700Y-120218214D01*
X164734700Y-120218214D02*
X164687080Y-120170595D01*
X164687080Y-120170595D02*
X164591842Y-120122976D01*
X164591842Y-120122976D02*
X163782319Y-120122976D01*
X164115652Y-119218214D02*
X164782319Y-119218214D01*
X163734700Y-119456309D02*
X164448985Y-119694404D01*
X164448985Y-119694404D02*
X164448985Y-119075357D01*
X121171905Y-80874819D02*
X121171905Y-79874819D01*
X121171905Y-79874819D02*
X121410000Y-79874819D01*
X121410000Y-79874819D02*
X121552857Y-79922438D01*
X121552857Y-79922438D02*
X121648095Y-80017676D01*
X121648095Y-80017676D02*
X121695714Y-80112914D01*
X121695714Y-80112914D02*
X121743333Y-80303390D01*
X121743333Y-80303390D02*
X121743333Y-80446247D01*
X121743333Y-80446247D02*
X121695714Y-80636723D01*
X121695714Y-80636723D02*
X121648095Y-80731961D01*
X121648095Y-80731961D02*
X121552857Y-80827200D01*
X121552857Y-80827200D02*
X121410000Y-80874819D01*
X121410000Y-80874819D02*
X121171905Y-80874819D01*
X122600476Y-80208152D02*
X122600476Y-80874819D01*
X122362381Y-79827200D02*
X122124286Y-80541485D01*
X122124286Y-80541485D02*
X122743333Y-80541485D01*
X133333333Y-120774819D02*
X133000000Y-120298628D01*
X132761905Y-120774819D02*
X132761905Y-119774819D01*
X132761905Y-119774819D02*
X133142857Y-119774819D01*
X133142857Y-119774819D02*
X133238095Y-119822438D01*
X133238095Y-119822438D02*
X133285714Y-119870057D01*
X133285714Y-119870057D02*
X133333333Y-119965295D01*
X133333333Y-119965295D02*
X133333333Y-120108152D01*
X133333333Y-120108152D02*
X133285714Y-120203390D01*
X133285714Y-120203390D02*
X133238095Y-120251009D01*
X133238095Y-120251009D02*
X133142857Y-120298628D01*
X133142857Y-120298628D02*
X132761905Y-120298628D01*
X134190476Y-119774819D02*
X134000000Y-119774819D01*
X134000000Y-119774819D02*
X133904762Y-119822438D01*
X133904762Y-119822438D02*
X133857143Y-119870057D01*
X133857143Y-119870057D02*
X133761905Y-120012914D01*
X133761905Y-120012914D02*
X133714286Y-120203390D01*
X133714286Y-120203390D02*
X133714286Y-120584342D01*
X133714286Y-120584342D02*
X133761905Y-120679580D01*
X133761905Y-120679580D02*
X133809524Y-120727200D01*
X133809524Y-120727200D02*
X133904762Y-120774819D01*
X133904762Y-120774819D02*
X134095238Y-120774819D01*
X134095238Y-120774819D02*
X134190476Y-120727200D01*
X134190476Y-120727200D02*
X134238095Y-120679580D01*
X134238095Y-120679580D02*
X134285714Y-120584342D01*
X134285714Y-120584342D02*
X134285714Y-120346247D01*
X134285714Y-120346247D02*
X134238095Y-120251009D01*
X134238095Y-120251009D02*
X134190476Y-120203390D01*
X134190476Y-120203390D02*
X134095238Y-120155771D01*
X134095238Y-120155771D02*
X133904762Y-120155771D01*
X133904762Y-120155771D02*
X133809524Y-120203390D01*
X133809524Y-120203390D02*
X133761905Y-120251009D01*
X133761905Y-120251009D02*
X133714286Y-120346247D01*
X157957142Y-98504819D02*
X157623809Y-98028628D01*
X157385714Y-98504819D02*
X157385714Y-97504819D01*
X157385714Y-97504819D02*
X157766666Y-97504819D01*
X157766666Y-97504819D02*
X157861904Y-97552438D01*
X157861904Y-97552438D02*
X157909523Y-97600057D01*
X157909523Y-97600057D02*
X157957142Y-97695295D01*
X157957142Y-97695295D02*
X157957142Y-97838152D01*
X157957142Y-97838152D02*
X157909523Y-97933390D01*
X157909523Y-97933390D02*
X157861904Y-97981009D01*
X157861904Y-97981009D02*
X157766666Y-98028628D01*
X157766666Y-98028628D02*
X157385714Y-98028628D01*
X158290476Y-97504819D02*
X158909523Y-97504819D01*
X158909523Y-97504819D02*
X158576190Y-97885771D01*
X158576190Y-97885771D02*
X158719047Y-97885771D01*
X158719047Y-97885771D02*
X158814285Y-97933390D01*
X158814285Y-97933390D02*
X158861904Y-97981009D01*
X158861904Y-97981009D02*
X158909523Y-98076247D01*
X158909523Y-98076247D02*
X158909523Y-98314342D01*
X158909523Y-98314342D02*
X158861904Y-98409580D01*
X158861904Y-98409580D02*
X158814285Y-98457200D01*
X158814285Y-98457200D02*
X158719047Y-98504819D01*
X158719047Y-98504819D02*
X158433333Y-98504819D01*
X158433333Y-98504819D02*
X158338095Y-98457200D01*
X158338095Y-98457200D02*
X158290476Y-98409580D01*
X159242857Y-97504819D02*
X159909523Y-97504819D01*
X159909523Y-97504819D02*
X159480952Y-98504819D01*
X150552142Y-94954819D02*
X150218809Y-94478628D01*
X149980714Y-94954819D02*
X149980714Y-93954819D01*
X149980714Y-93954819D02*
X150361666Y-93954819D01*
X150361666Y-93954819D02*
X150456904Y-94002438D01*
X150456904Y-94002438D02*
X150504523Y-94050057D01*
X150504523Y-94050057D02*
X150552142Y-94145295D01*
X150552142Y-94145295D02*
X150552142Y-94288152D01*
X150552142Y-94288152D02*
X150504523Y-94383390D01*
X150504523Y-94383390D02*
X150456904Y-94431009D01*
X150456904Y-94431009D02*
X150361666Y-94478628D01*
X150361666Y-94478628D02*
X149980714Y-94478628D01*
X151504523Y-94954819D02*
X150933095Y-94954819D01*
X151218809Y-94954819D02*
X151218809Y-93954819D01*
X151218809Y-93954819D02*
X151123571Y-94097676D01*
X151123571Y-94097676D02*
X151028333Y-94192914D01*
X151028333Y-94192914D02*
X150933095Y-94240533D01*
X152361666Y-94288152D02*
X152361666Y-94954819D01*
X152123571Y-93907200D02*
X151885476Y-94621485D01*
X151885476Y-94621485D02*
X152504523Y-94621485D01*
X158909819Y-111442857D02*
X158433628Y-111776190D01*
X158909819Y-112014285D02*
X157909819Y-112014285D01*
X157909819Y-112014285D02*
X157909819Y-111633333D01*
X157909819Y-111633333D02*
X157957438Y-111538095D01*
X157957438Y-111538095D02*
X158005057Y-111490476D01*
X158005057Y-111490476D02*
X158100295Y-111442857D01*
X158100295Y-111442857D02*
X158243152Y-111442857D01*
X158243152Y-111442857D02*
X158338390Y-111490476D01*
X158338390Y-111490476D02*
X158386009Y-111538095D01*
X158386009Y-111538095D02*
X158433628Y-111633333D01*
X158433628Y-111633333D02*
X158433628Y-112014285D01*
X157909819Y-111109523D02*
X157909819Y-110490476D01*
X157909819Y-110490476D02*
X158290771Y-110823809D01*
X158290771Y-110823809D02*
X158290771Y-110680952D01*
X158290771Y-110680952D02*
X158338390Y-110585714D01*
X158338390Y-110585714D02*
X158386009Y-110538095D01*
X158386009Y-110538095D02*
X158481247Y-110490476D01*
X158481247Y-110490476D02*
X158719342Y-110490476D01*
X158719342Y-110490476D02*
X158814580Y-110538095D01*
X158814580Y-110538095D02*
X158862200Y-110585714D01*
X158862200Y-110585714D02*
X158909819Y-110680952D01*
X158909819Y-110680952D02*
X158909819Y-110966666D01*
X158909819Y-110966666D02*
X158862200Y-111061904D01*
X158862200Y-111061904D02*
X158814580Y-111109523D01*
X157909819Y-110157142D02*
X157909819Y-109538095D01*
X157909819Y-109538095D02*
X158290771Y-109871428D01*
X158290771Y-109871428D02*
X158290771Y-109728571D01*
X158290771Y-109728571D02*
X158338390Y-109633333D01*
X158338390Y-109633333D02*
X158386009Y-109585714D01*
X158386009Y-109585714D02*
X158481247Y-109538095D01*
X158481247Y-109538095D02*
X158719342Y-109538095D01*
X158719342Y-109538095D02*
X158814580Y-109585714D01*
X158814580Y-109585714D02*
X158862200Y-109633333D01*
X158862200Y-109633333D02*
X158909819Y-109728571D01*
X158909819Y-109728571D02*
X158909819Y-110014285D01*
X158909819Y-110014285D02*
X158862200Y-110109523D01*
X158862200Y-110109523D02*
X158814580Y-110157142D01*
X135607142Y-111474819D02*
X135273809Y-110998628D01*
X135035714Y-111474819D02*
X135035714Y-110474819D01*
X135035714Y-110474819D02*
X135416666Y-110474819D01*
X135416666Y-110474819D02*
X135511904Y-110522438D01*
X135511904Y-110522438D02*
X135559523Y-110570057D01*
X135559523Y-110570057D02*
X135607142Y-110665295D01*
X135607142Y-110665295D02*
X135607142Y-110808152D01*
X135607142Y-110808152D02*
X135559523Y-110903390D01*
X135559523Y-110903390D02*
X135511904Y-110951009D01*
X135511904Y-110951009D02*
X135416666Y-110998628D01*
X135416666Y-110998628D02*
X135035714Y-110998628D01*
X136559523Y-111474819D02*
X135988095Y-111474819D01*
X136273809Y-111474819D02*
X136273809Y-110474819D01*
X136273809Y-110474819D02*
X136178571Y-110617676D01*
X136178571Y-110617676D02*
X136083333Y-110712914D01*
X136083333Y-110712914D02*
X135988095Y-110760533D01*
X136940476Y-110570057D02*
X136988095Y-110522438D01*
X136988095Y-110522438D02*
X137083333Y-110474819D01*
X137083333Y-110474819D02*
X137321428Y-110474819D01*
X137321428Y-110474819D02*
X137416666Y-110522438D01*
X137416666Y-110522438D02*
X137464285Y-110570057D01*
X137464285Y-110570057D02*
X137511904Y-110665295D01*
X137511904Y-110665295D02*
X137511904Y-110760533D01*
X137511904Y-110760533D02*
X137464285Y-110903390D01*
X137464285Y-110903390D02*
X136892857Y-111474819D01*
X136892857Y-111474819D02*
X137511904Y-111474819D01*
X161744819Y-82965481D02*
X162459104Y-82965481D01*
X162459104Y-82965481D02*
X162601961Y-83013100D01*
X162601961Y-83013100D02*
X162697200Y-83108338D01*
X162697200Y-83108338D02*
X162744819Y-83251195D01*
X162744819Y-83251195D02*
X162744819Y-83346433D01*
X161744819Y-82060719D02*
X161744819Y-82251195D01*
X161744819Y-82251195D02*
X161792438Y-82346433D01*
X161792438Y-82346433D02*
X161840057Y-82394052D01*
X161840057Y-82394052D02*
X161982914Y-82489290D01*
X161982914Y-82489290D02*
X162173390Y-82536909D01*
X162173390Y-82536909D02*
X162554342Y-82536909D01*
X162554342Y-82536909D02*
X162649580Y-82489290D01*
X162649580Y-82489290D02*
X162697200Y-82441671D01*
X162697200Y-82441671D02*
X162744819Y-82346433D01*
X162744819Y-82346433D02*
X162744819Y-82155957D01*
X162744819Y-82155957D02*
X162697200Y-82060719D01*
X162697200Y-82060719D02*
X162649580Y-82013100D01*
X162649580Y-82013100D02*
X162554342Y-81965481D01*
X162554342Y-81965481D02*
X162316247Y-81965481D01*
X162316247Y-81965481D02*
X162221009Y-82013100D01*
X162221009Y-82013100D02*
X162173390Y-82060719D01*
X162173390Y-82060719D02*
X162125771Y-82155957D01*
X162125771Y-82155957D02*
X162125771Y-82346433D01*
X162125771Y-82346433D02*
X162173390Y-82441671D01*
X162173390Y-82441671D02*
X162221009Y-82489290D01*
X162221009Y-82489290D02*
X162316247Y-82536909D01*
X121201905Y-74974819D02*
X121201905Y-73974819D01*
X121201905Y-73974819D02*
X121440000Y-73974819D01*
X121440000Y-73974819D02*
X121582857Y-74022438D01*
X121582857Y-74022438D02*
X121678095Y-74117676D01*
X121678095Y-74117676D02*
X121725714Y-74212914D01*
X121725714Y-74212914D02*
X121773333Y-74403390D01*
X121773333Y-74403390D02*
X121773333Y-74546247D01*
X121773333Y-74546247D02*
X121725714Y-74736723D01*
X121725714Y-74736723D02*
X121678095Y-74831961D01*
X121678095Y-74831961D02*
X121582857Y-74927200D01*
X121582857Y-74927200D02*
X121440000Y-74974819D01*
X121440000Y-74974819D02*
X121201905Y-74974819D01*
X122154286Y-74070057D02*
X122201905Y-74022438D01*
X122201905Y-74022438D02*
X122297143Y-73974819D01*
X122297143Y-73974819D02*
X122535238Y-73974819D01*
X122535238Y-73974819D02*
X122630476Y-74022438D01*
X122630476Y-74022438D02*
X122678095Y-74070057D01*
X122678095Y-74070057D02*
X122725714Y-74165295D01*
X122725714Y-74165295D02*
X122725714Y-74260533D01*
X122725714Y-74260533D02*
X122678095Y-74403390D01*
X122678095Y-74403390D02*
X122106667Y-74974819D01*
X122106667Y-74974819D02*
X122725714Y-74974819D01*
X139796460Y-88317319D02*
X139463127Y-87841128D01*
X139225032Y-88317319D02*
X139225032Y-87317319D01*
X139225032Y-87317319D02*
X139605984Y-87317319D01*
X139605984Y-87317319D02*
X139701222Y-87364938D01*
X139701222Y-87364938D02*
X139748841Y-87412557D01*
X139748841Y-87412557D02*
X139796460Y-87507795D01*
X139796460Y-87507795D02*
X139796460Y-87650652D01*
X139796460Y-87650652D02*
X139748841Y-87745890D01*
X139748841Y-87745890D02*
X139701222Y-87793509D01*
X139701222Y-87793509D02*
X139605984Y-87841128D01*
X139605984Y-87841128D02*
X139225032Y-87841128D01*
X140748841Y-88317319D02*
X140177413Y-88317319D01*
X140463127Y-88317319D02*
X140463127Y-87317319D01*
X140463127Y-87317319D02*
X140367889Y-87460176D01*
X140367889Y-87460176D02*
X140272651Y-87555414D01*
X140272651Y-87555414D02*
X140177413Y-87603033D01*
X141082175Y-87317319D02*
X141748841Y-87317319D01*
X141748841Y-87317319D02*
X141320270Y-88317319D01*
D12*
X165633810Y-132384318D02*
X165633810Y-133291461D01*
X165633810Y-133291461D02*
X165573333Y-133472889D01*
X165573333Y-133472889D02*
X165452381Y-133593842D01*
X165452381Y-133593842D02*
X165270952Y-133654318D01*
X165270952Y-133654318D02*
X165150000Y-133654318D01*
X166420000Y-132384318D02*
X166420000Y-132686699D01*
X166117619Y-132565746D02*
X166420000Y-132686699D01*
X166420000Y-132686699D02*
X166722381Y-132565746D01*
X166238571Y-132928603D02*
X166420000Y-132686699D01*
X166420000Y-132686699D02*
X166601429Y-132928603D01*
X167387619Y-132384318D02*
X167387619Y-132686699D01*
X167085238Y-132565746D02*
X167387619Y-132686699D01*
X167387619Y-132686699D02*
X167690000Y-132565746D01*
X167206190Y-132928603D02*
X167387619Y-132686699D01*
X167387619Y-132686699D02*
X167569048Y-132928603D01*
D11*
X137039642Y-90492319D02*
X136706309Y-90016128D01*
X136468214Y-90492319D02*
X136468214Y-89492319D01*
X136468214Y-89492319D02*
X136849166Y-89492319D01*
X136849166Y-89492319D02*
X136944404Y-89539938D01*
X136944404Y-89539938D02*
X136992023Y-89587557D01*
X136992023Y-89587557D02*
X137039642Y-89682795D01*
X137039642Y-89682795D02*
X137039642Y-89825652D01*
X137039642Y-89825652D02*
X136992023Y-89920890D01*
X136992023Y-89920890D02*
X136944404Y-89968509D01*
X136944404Y-89968509D02*
X136849166Y-90016128D01*
X136849166Y-90016128D02*
X136468214Y-90016128D01*
X137992023Y-90492319D02*
X137420595Y-90492319D01*
X137706309Y-90492319D02*
X137706309Y-89492319D01*
X137706309Y-89492319D02*
X137611071Y-89635176D01*
X137611071Y-89635176D02*
X137515833Y-89730414D01*
X137515833Y-89730414D02*
X137420595Y-89778033D01*
X138325357Y-89492319D02*
X138944404Y-89492319D01*
X138944404Y-89492319D02*
X138611071Y-89873271D01*
X138611071Y-89873271D02*
X138753928Y-89873271D01*
X138753928Y-89873271D02*
X138849166Y-89920890D01*
X138849166Y-89920890D02*
X138896785Y-89968509D01*
X138896785Y-89968509D02*
X138944404Y-90063747D01*
X138944404Y-90063747D02*
X138944404Y-90301842D01*
X138944404Y-90301842D02*
X138896785Y-90397080D01*
X138896785Y-90397080D02*
X138849166Y-90444700D01*
X138849166Y-90444700D02*
X138753928Y-90492319D01*
X138753928Y-90492319D02*
X138468214Y-90492319D01*
X138468214Y-90492319D02*
X138372976Y-90444700D01*
X138372976Y-90444700D02*
X138325357Y-90397080D01*
X150120595Y-84592319D02*
X150120595Y-85401842D01*
X150120595Y-85401842D02*
X150168214Y-85497080D01*
X150168214Y-85497080D02*
X150215833Y-85544700D01*
X150215833Y-85544700D02*
X150311071Y-85592319D01*
X150311071Y-85592319D02*
X150501547Y-85592319D01*
X150501547Y-85592319D02*
X150596785Y-85544700D01*
X150596785Y-85544700D02*
X150644404Y-85497080D01*
X150644404Y-85497080D02*
X150692023Y-85401842D01*
X150692023Y-85401842D02*
X150692023Y-84592319D01*
X151120595Y-84687557D02*
X151168214Y-84639938D01*
X151168214Y-84639938D02*
X151263452Y-84592319D01*
X151263452Y-84592319D02*
X151501547Y-84592319D01*
X151501547Y-84592319D02*
X151596785Y-84639938D01*
X151596785Y-84639938D02*
X151644404Y-84687557D01*
X151644404Y-84687557D02*
X151692023Y-84782795D01*
X151692023Y-84782795D02*
X151692023Y-84878033D01*
X151692023Y-84878033D02*
X151644404Y-85020890D01*
X151644404Y-85020890D02*
X151072976Y-85592319D01*
X151072976Y-85592319D02*
X151692023Y-85592319D01*
X146582142Y-100329819D02*
X146248809Y-99853628D01*
X146010714Y-100329819D02*
X146010714Y-99329819D01*
X146010714Y-99329819D02*
X146391666Y-99329819D01*
X146391666Y-99329819D02*
X146486904Y-99377438D01*
X146486904Y-99377438D02*
X146534523Y-99425057D01*
X146534523Y-99425057D02*
X146582142Y-99520295D01*
X146582142Y-99520295D02*
X146582142Y-99663152D01*
X146582142Y-99663152D02*
X146534523Y-99758390D01*
X146534523Y-99758390D02*
X146486904Y-99806009D01*
X146486904Y-99806009D02*
X146391666Y-99853628D01*
X146391666Y-99853628D02*
X146010714Y-99853628D01*
X146915476Y-99329819D02*
X147534523Y-99329819D01*
X147534523Y-99329819D02*
X147201190Y-99710771D01*
X147201190Y-99710771D02*
X147344047Y-99710771D01*
X147344047Y-99710771D02*
X147439285Y-99758390D01*
X147439285Y-99758390D02*
X147486904Y-99806009D01*
X147486904Y-99806009D02*
X147534523Y-99901247D01*
X147534523Y-99901247D02*
X147534523Y-100139342D01*
X147534523Y-100139342D02*
X147486904Y-100234580D01*
X147486904Y-100234580D02*
X147439285Y-100282200D01*
X147439285Y-100282200D02*
X147344047Y-100329819D01*
X147344047Y-100329819D02*
X147058333Y-100329819D01*
X147058333Y-100329819D02*
X146963095Y-100282200D01*
X146963095Y-100282200D02*
X146915476Y-100234580D01*
X148439285Y-99329819D02*
X147963095Y-99329819D01*
X147963095Y-99329819D02*
X147915476Y-99806009D01*
X147915476Y-99806009D02*
X147963095Y-99758390D01*
X147963095Y-99758390D02*
X148058333Y-99710771D01*
X148058333Y-99710771D02*
X148296428Y-99710771D01*
X148296428Y-99710771D02*
X148391666Y-99758390D01*
X148391666Y-99758390D02*
X148439285Y-99806009D01*
X148439285Y-99806009D02*
X148486904Y-99901247D01*
X148486904Y-99901247D02*
X148486904Y-100139342D01*
X148486904Y-100139342D02*
X148439285Y-100234580D01*
X148439285Y-100234580D02*
X148391666Y-100282200D01*
X148391666Y-100282200D02*
X148296428Y-100329819D01*
X148296428Y-100329819D02*
X148058333Y-100329819D01*
X148058333Y-100329819D02*
X147963095Y-100282200D01*
X147963095Y-100282200D02*
X147915476Y-100234580D01*
D12*
X123046667Y-131884318D02*
X123046667Y-132791461D01*
X123046667Y-132791461D02*
X122986190Y-132972889D01*
X122986190Y-132972889D02*
X122865238Y-133093842D01*
X122865238Y-133093842D02*
X122683809Y-133154318D01*
X122683809Y-133154318D02*
X122562857Y-133154318D01*
X124316667Y-133154318D02*
X123590952Y-133154318D01*
X123953809Y-133154318D02*
X123953809Y-131884318D01*
X123953809Y-131884318D02*
X123832857Y-132065746D01*
X123832857Y-132065746D02*
X123711905Y-132186699D01*
X123711905Y-132186699D02*
X123590952Y-132247175D01*
D11*
X154894642Y-104629819D02*
X154561309Y-104153628D01*
X154323214Y-104629819D02*
X154323214Y-103629819D01*
X154323214Y-103629819D02*
X154704166Y-103629819D01*
X154704166Y-103629819D02*
X154799404Y-103677438D01*
X154799404Y-103677438D02*
X154847023Y-103725057D01*
X154847023Y-103725057D02*
X154894642Y-103820295D01*
X154894642Y-103820295D02*
X154894642Y-103963152D01*
X154894642Y-103963152D02*
X154847023Y-104058390D01*
X154847023Y-104058390D02*
X154799404Y-104106009D01*
X154799404Y-104106009D02*
X154704166Y-104153628D01*
X154704166Y-104153628D02*
X154323214Y-104153628D01*
X155227976Y-103629819D02*
X155847023Y-103629819D01*
X155847023Y-103629819D02*
X155513690Y-104010771D01*
X155513690Y-104010771D02*
X155656547Y-104010771D01*
X155656547Y-104010771D02*
X155751785Y-104058390D01*
X155751785Y-104058390D02*
X155799404Y-104106009D01*
X155799404Y-104106009D02*
X155847023Y-104201247D01*
X155847023Y-104201247D02*
X155847023Y-104439342D01*
X155847023Y-104439342D02*
X155799404Y-104534580D01*
X155799404Y-104534580D02*
X155751785Y-104582200D01*
X155751785Y-104582200D02*
X155656547Y-104629819D01*
X155656547Y-104629819D02*
X155370833Y-104629819D01*
X155370833Y-104629819D02*
X155275595Y-104582200D01*
X155275595Y-104582200D02*
X155227976Y-104534580D01*
X156704166Y-103963152D02*
X156704166Y-104629819D01*
X156466071Y-103582200D02*
X156227976Y-104296485D01*
X156227976Y-104296485D02*
X156847023Y-104296485D01*
X150332142Y-119734819D02*
X149998809Y-119258628D01*
X149760714Y-119734819D02*
X149760714Y-118734819D01*
X149760714Y-118734819D02*
X150141666Y-118734819D01*
X150141666Y-118734819D02*
X150236904Y-118782438D01*
X150236904Y-118782438D02*
X150284523Y-118830057D01*
X150284523Y-118830057D02*
X150332142Y-118925295D01*
X150332142Y-118925295D02*
X150332142Y-119068152D01*
X150332142Y-119068152D02*
X150284523Y-119163390D01*
X150284523Y-119163390D02*
X150236904Y-119211009D01*
X150236904Y-119211009D02*
X150141666Y-119258628D01*
X150141666Y-119258628D02*
X149760714Y-119258628D01*
X150713095Y-118830057D02*
X150760714Y-118782438D01*
X150760714Y-118782438D02*
X150855952Y-118734819D01*
X150855952Y-118734819D02*
X151094047Y-118734819D01*
X151094047Y-118734819D02*
X151189285Y-118782438D01*
X151189285Y-118782438D02*
X151236904Y-118830057D01*
X151236904Y-118830057D02*
X151284523Y-118925295D01*
X151284523Y-118925295D02*
X151284523Y-119020533D01*
X151284523Y-119020533D02*
X151236904Y-119163390D01*
X151236904Y-119163390D02*
X150665476Y-119734819D01*
X150665476Y-119734819D02*
X151284523Y-119734819D01*
X151760714Y-119734819D02*
X151951190Y-119734819D01*
X151951190Y-119734819D02*
X152046428Y-119687200D01*
X152046428Y-119687200D02*
X152094047Y-119639580D01*
X152094047Y-119639580D02*
X152189285Y-119496723D01*
X152189285Y-119496723D02*
X152236904Y-119306247D01*
X152236904Y-119306247D02*
X152236904Y-118925295D01*
X152236904Y-118925295D02*
X152189285Y-118830057D01*
X152189285Y-118830057D02*
X152141666Y-118782438D01*
X152141666Y-118782438D02*
X152046428Y-118734819D01*
X152046428Y-118734819D02*
X151855952Y-118734819D01*
X151855952Y-118734819D02*
X151760714Y-118782438D01*
X151760714Y-118782438D02*
X151713095Y-118830057D01*
X151713095Y-118830057D02*
X151665476Y-118925295D01*
X151665476Y-118925295D02*
X151665476Y-119163390D01*
X151665476Y-119163390D02*
X151713095Y-119258628D01*
X151713095Y-119258628D02*
X151760714Y-119306247D01*
X151760714Y-119306247D02*
X151855952Y-119353866D01*
X151855952Y-119353866D02*
X152046428Y-119353866D01*
X152046428Y-119353866D02*
X152141666Y-119306247D01*
X152141666Y-119306247D02*
X152189285Y-119258628D01*
X152189285Y-119258628D02*
X152236904Y-119163390D01*
X132307142Y-114519819D02*
X131973809Y-114043628D01*
X131735714Y-114519819D02*
X131735714Y-113519819D01*
X131735714Y-113519819D02*
X132116666Y-113519819D01*
X132116666Y-113519819D02*
X132211904Y-113567438D01*
X132211904Y-113567438D02*
X132259523Y-113615057D01*
X132259523Y-113615057D02*
X132307142Y-113710295D01*
X132307142Y-113710295D02*
X132307142Y-113853152D01*
X132307142Y-113853152D02*
X132259523Y-113948390D01*
X132259523Y-113948390D02*
X132211904Y-113996009D01*
X132211904Y-113996009D02*
X132116666Y-114043628D01*
X132116666Y-114043628D02*
X131735714Y-114043628D01*
X133259523Y-114519819D02*
X132688095Y-114519819D01*
X132973809Y-114519819D02*
X132973809Y-113519819D01*
X132973809Y-113519819D02*
X132878571Y-113662676D01*
X132878571Y-113662676D02*
X132783333Y-113757914D01*
X132783333Y-113757914D02*
X132688095Y-113805533D01*
X133878571Y-113519819D02*
X133973809Y-113519819D01*
X133973809Y-113519819D02*
X134069047Y-113567438D01*
X134069047Y-113567438D02*
X134116666Y-113615057D01*
X134116666Y-113615057D02*
X134164285Y-113710295D01*
X134164285Y-113710295D02*
X134211904Y-113900771D01*
X134211904Y-113900771D02*
X134211904Y-114138866D01*
X134211904Y-114138866D02*
X134164285Y-114329342D01*
X134164285Y-114329342D02*
X134116666Y-114424580D01*
X134116666Y-114424580D02*
X134069047Y-114472200D01*
X134069047Y-114472200D02*
X133973809Y-114519819D01*
X133973809Y-114519819D02*
X133878571Y-114519819D01*
X133878571Y-114519819D02*
X133783333Y-114472200D01*
X133783333Y-114472200D02*
X133735714Y-114424580D01*
X133735714Y-114424580D02*
X133688095Y-114329342D01*
X133688095Y-114329342D02*
X133640476Y-114138866D01*
X133640476Y-114138866D02*
X133640476Y-113900771D01*
X133640476Y-113900771D02*
X133688095Y-113710295D01*
X133688095Y-113710295D02*
X133735714Y-113615057D01*
X133735714Y-113615057D02*
X133783333Y-113567438D01*
X133783333Y-113567438D02*
X133878571Y-113519819D01*
X145537319Y-86192857D02*
X145061128Y-86526190D01*
X145537319Y-86764285D02*
X144537319Y-86764285D01*
X144537319Y-86764285D02*
X144537319Y-86383333D01*
X144537319Y-86383333D02*
X144584938Y-86288095D01*
X144584938Y-86288095D02*
X144632557Y-86240476D01*
X144632557Y-86240476D02*
X144727795Y-86192857D01*
X144727795Y-86192857D02*
X144870652Y-86192857D01*
X144870652Y-86192857D02*
X144965890Y-86240476D01*
X144965890Y-86240476D02*
X145013509Y-86288095D01*
X145013509Y-86288095D02*
X145061128Y-86383333D01*
X145061128Y-86383333D02*
X145061128Y-86764285D01*
X144632557Y-85811904D02*
X144584938Y-85764285D01*
X144584938Y-85764285D02*
X144537319Y-85669047D01*
X144537319Y-85669047D02*
X144537319Y-85430952D01*
X144537319Y-85430952D02*
X144584938Y-85335714D01*
X144584938Y-85335714D02*
X144632557Y-85288095D01*
X144632557Y-85288095D02*
X144727795Y-85240476D01*
X144727795Y-85240476D02*
X144823033Y-85240476D01*
X144823033Y-85240476D02*
X144965890Y-85288095D01*
X144965890Y-85288095D02*
X145537319Y-85859523D01*
X145537319Y-85859523D02*
X145537319Y-85240476D01*
X144537319Y-84907142D02*
X144537319Y-84288095D01*
X144537319Y-84288095D02*
X144918271Y-84621428D01*
X144918271Y-84621428D02*
X144918271Y-84478571D01*
X144918271Y-84478571D02*
X144965890Y-84383333D01*
X144965890Y-84383333D02*
X145013509Y-84335714D01*
X145013509Y-84335714D02*
X145108747Y-84288095D01*
X145108747Y-84288095D02*
X145346842Y-84288095D01*
X145346842Y-84288095D02*
X145442080Y-84335714D01*
X145442080Y-84335714D02*
X145489700Y-84383333D01*
X145489700Y-84383333D02*
X145537319Y-84478571D01*
X145537319Y-84478571D02*
X145537319Y-84764285D01*
X145537319Y-84764285D02*
X145489700Y-84859523D01*
X145489700Y-84859523D02*
X145442080Y-84907142D01*
X138163333Y-122019819D02*
X137830000Y-121543628D01*
X137591905Y-122019819D02*
X137591905Y-121019819D01*
X137591905Y-121019819D02*
X137972857Y-121019819D01*
X137972857Y-121019819D02*
X138068095Y-121067438D01*
X138068095Y-121067438D02*
X138115714Y-121115057D01*
X138115714Y-121115057D02*
X138163333Y-121210295D01*
X138163333Y-121210295D02*
X138163333Y-121353152D01*
X138163333Y-121353152D02*
X138115714Y-121448390D01*
X138115714Y-121448390D02*
X138068095Y-121496009D01*
X138068095Y-121496009D02*
X137972857Y-121543628D01*
X137972857Y-121543628D02*
X137591905Y-121543628D01*
X139020476Y-121353152D02*
X139020476Y-122019819D01*
X138782381Y-120972200D02*
X138544286Y-121686485D01*
X138544286Y-121686485D02*
X139163333Y-121686485D01*
X123516666Y-81614819D02*
X123516666Y-82329104D01*
X123516666Y-82329104D02*
X123469047Y-82471961D01*
X123469047Y-82471961D02*
X123373809Y-82567200D01*
X123373809Y-82567200D02*
X123230952Y-82614819D01*
X123230952Y-82614819D02*
X123135714Y-82614819D01*
X124469047Y-81614819D02*
X123992857Y-81614819D01*
X123992857Y-81614819D02*
X123945238Y-82091009D01*
X123945238Y-82091009D02*
X123992857Y-82043390D01*
X123992857Y-82043390D02*
X124088095Y-81995771D01*
X124088095Y-81995771D02*
X124326190Y-81995771D01*
X124326190Y-81995771D02*
X124421428Y-82043390D01*
X124421428Y-82043390D02*
X124469047Y-82091009D01*
X124469047Y-82091009D02*
X124516666Y-82186247D01*
X124516666Y-82186247D02*
X124516666Y-82424342D01*
X124516666Y-82424342D02*
X124469047Y-82519580D01*
X124469047Y-82519580D02*
X124421428Y-82567200D01*
X124421428Y-82567200D02*
X124326190Y-82614819D01*
X124326190Y-82614819D02*
X124088095Y-82614819D01*
X124088095Y-82614819D02*
X123992857Y-82567200D01*
X123992857Y-82567200D02*
X123945238Y-82519580D01*
X140054819Y-108231904D02*
X140864342Y-108231904D01*
X140864342Y-108231904D02*
X140959580Y-108184285D01*
X140959580Y-108184285D02*
X141007200Y-108136666D01*
X141007200Y-108136666D02*
X141054819Y-108041428D01*
X141054819Y-108041428D02*
X141054819Y-107850952D01*
X141054819Y-107850952D02*
X141007200Y-107755714D01*
X141007200Y-107755714D02*
X140959580Y-107708095D01*
X140959580Y-107708095D02*
X140864342Y-107660476D01*
X140864342Y-107660476D02*
X140054819Y-107660476D01*
X140054819Y-106755714D02*
X140054819Y-106946190D01*
X140054819Y-106946190D02*
X140102438Y-107041428D01*
X140102438Y-107041428D02*
X140150057Y-107089047D01*
X140150057Y-107089047D02*
X140292914Y-107184285D01*
X140292914Y-107184285D02*
X140483390Y-107231904D01*
X140483390Y-107231904D02*
X140864342Y-107231904D01*
X140864342Y-107231904D02*
X140959580Y-107184285D01*
X140959580Y-107184285D02*
X141007200Y-107136666D01*
X141007200Y-107136666D02*
X141054819Y-107041428D01*
X141054819Y-107041428D02*
X141054819Y-106850952D01*
X141054819Y-106850952D02*
X141007200Y-106755714D01*
X141007200Y-106755714D02*
X140959580Y-106708095D01*
X140959580Y-106708095D02*
X140864342Y-106660476D01*
X140864342Y-106660476D02*
X140626247Y-106660476D01*
X140626247Y-106660476D02*
X140531009Y-106708095D01*
X140531009Y-106708095D02*
X140483390Y-106755714D01*
X140483390Y-106755714D02*
X140435771Y-106850952D01*
X140435771Y-106850952D02*
X140435771Y-107041428D01*
X140435771Y-107041428D02*
X140483390Y-107136666D01*
X140483390Y-107136666D02*
X140531009Y-107184285D01*
X140531009Y-107184285D02*
X140626247Y-107231904D01*
X152528333Y-90934580D02*
X152480714Y-90982200D01*
X152480714Y-90982200D02*
X152337857Y-91029819D01*
X152337857Y-91029819D02*
X152242619Y-91029819D01*
X152242619Y-91029819D02*
X152099762Y-90982200D01*
X152099762Y-90982200D02*
X152004524Y-90886961D01*
X152004524Y-90886961D02*
X151956905Y-90791723D01*
X151956905Y-90791723D02*
X151909286Y-90601247D01*
X151909286Y-90601247D02*
X151909286Y-90458390D01*
X151909286Y-90458390D02*
X151956905Y-90267914D01*
X151956905Y-90267914D02*
X152004524Y-90172676D01*
X152004524Y-90172676D02*
X152099762Y-90077438D01*
X152099762Y-90077438D02*
X152242619Y-90029819D01*
X152242619Y-90029819D02*
X152337857Y-90029819D01*
X152337857Y-90029819D02*
X152480714Y-90077438D01*
X152480714Y-90077438D02*
X152528333Y-90125057D01*
X152909286Y-90125057D02*
X152956905Y-90077438D01*
X152956905Y-90077438D02*
X153052143Y-90029819D01*
X153052143Y-90029819D02*
X153290238Y-90029819D01*
X153290238Y-90029819D02*
X153385476Y-90077438D01*
X153385476Y-90077438D02*
X153433095Y-90125057D01*
X153433095Y-90125057D02*
X153480714Y-90220295D01*
X153480714Y-90220295D02*
X153480714Y-90315533D01*
X153480714Y-90315533D02*
X153433095Y-90458390D01*
X153433095Y-90458390D02*
X152861667Y-91029819D01*
X152861667Y-91029819D02*
X153480714Y-91029819D01*
X150082142Y-100329819D02*
X149748809Y-99853628D01*
X149510714Y-100329819D02*
X149510714Y-99329819D01*
X149510714Y-99329819D02*
X149891666Y-99329819D01*
X149891666Y-99329819D02*
X149986904Y-99377438D01*
X149986904Y-99377438D02*
X150034523Y-99425057D01*
X150034523Y-99425057D02*
X150082142Y-99520295D01*
X150082142Y-99520295D02*
X150082142Y-99663152D01*
X150082142Y-99663152D02*
X150034523Y-99758390D01*
X150034523Y-99758390D02*
X149986904Y-99806009D01*
X149986904Y-99806009D02*
X149891666Y-99853628D01*
X149891666Y-99853628D02*
X149510714Y-99853628D01*
X150415476Y-99329819D02*
X151034523Y-99329819D01*
X151034523Y-99329819D02*
X150701190Y-99710771D01*
X150701190Y-99710771D02*
X150844047Y-99710771D01*
X150844047Y-99710771D02*
X150939285Y-99758390D01*
X150939285Y-99758390D02*
X150986904Y-99806009D01*
X150986904Y-99806009D02*
X151034523Y-99901247D01*
X151034523Y-99901247D02*
X151034523Y-100139342D01*
X151034523Y-100139342D02*
X150986904Y-100234580D01*
X150986904Y-100234580D02*
X150939285Y-100282200D01*
X150939285Y-100282200D02*
X150844047Y-100329819D01*
X150844047Y-100329819D02*
X150558333Y-100329819D01*
X150558333Y-100329819D02*
X150463095Y-100282200D01*
X150463095Y-100282200D02*
X150415476Y-100234580D01*
X151891666Y-99329819D02*
X151701190Y-99329819D01*
X151701190Y-99329819D02*
X151605952Y-99377438D01*
X151605952Y-99377438D02*
X151558333Y-99425057D01*
X151558333Y-99425057D02*
X151463095Y-99567914D01*
X151463095Y-99567914D02*
X151415476Y-99758390D01*
X151415476Y-99758390D02*
X151415476Y-100139342D01*
X151415476Y-100139342D02*
X151463095Y-100234580D01*
X151463095Y-100234580D02*
X151510714Y-100282200D01*
X151510714Y-100282200D02*
X151605952Y-100329819D01*
X151605952Y-100329819D02*
X151796428Y-100329819D01*
X151796428Y-100329819D02*
X151891666Y-100282200D01*
X151891666Y-100282200D02*
X151939285Y-100234580D01*
X151939285Y-100234580D02*
X151986904Y-100139342D01*
X151986904Y-100139342D02*
X151986904Y-99901247D01*
X151986904Y-99901247D02*
X151939285Y-99806009D01*
X151939285Y-99806009D02*
X151891666Y-99758390D01*
X151891666Y-99758390D02*
X151796428Y-99710771D01*
X151796428Y-99710771D02*
X151605952Y-99710771D01*
X151605952Y-99710771D02*
X151510714Y-99758390D01*
X151510714Y-99758390D02*
X151463095Y-99806009D01*
X151463095Y-99806009D02*
X151415476Y-99901247D01*
X143629819Y-74730357D02*
X143153628Y-75063690D01*
X143629819Y-75301785D02*
X142629819Y-75301785D01*
X142629819Y-75301785D02*
X142629819Y-74920833D01*
X142629819Y-74920833D02*
X142677438Y-74825595D01*
X142677438Y-74825595D02*
X142725057Y-74777976D01*
X142725057Y-74777976D02*
X142820295Y-74730357D01*
X142820295Y-74730357D02*
X142963152Y-74730357D01*
X142963152Y-74730357D02*
X143058390Y-74777976D01*
X143058390Y-74777976D02*
X143106009Y-74825595D01*
X143106009Y-74825595D02*
X143153628Y-74920833D01*
X143153628Y-74920833D02*
X143153628Y-75301785D01*
X142725057Y-74349404D02*
X142677438Y-74301785D01*
X142677438Y-74301785D02*
X142629819Y-74206547D01*
X142629819Y-74206547D02*
X142629819Y-73968452D01*
X142629819Y-73968452D02*
X142677438Y-73873214D01*
X142677438Y-73873214D02*
X142725057Y-73825595D01*
X142725057Y-73825595D02*
X142820295Y-73777976D01*
X142820295Y-73777976D02*
X142915533Y-73777976D01*
X142915533Y-73777976D02*
X143058390Y-73825595D01*
X143058390Y-73825595D02*
X143629819Y-74397023D01*
X143629819Y-74397023D02*
X143629819Y-73777976D01*
X142629819Y-72873214D02*
X142629819Y-73349404D01*
X142629819Y-73349404D02*
X143106009Y-73397023D01*
X143106009Y-73397023D02*
X143058390Y-73349404D01*
X143058390Y-73349404D02*
X143010771Y-73254166D01*
X143010771Y-73254166D02*
X143010771Y-73016071D01*
X143010771Y-73016071D02*
X143058390Y-72920833D01*
X143058390Y-72920833D02*
X143106009Y-72873214D01*
X143106009Y-72873214D02*
X143201247Y-72825595D01*
X143201247Y-72825595D02*
X143439342Y-72825595D01*
X143439342Y-72825595D02*
X143534580Y-72873214D01*
X143534580Y-72873214D02*
X143582200Y-72920833D01*
X143582200Y-72920833D02*
X143629819Y-73016071D01*
X143629819Y-73016071D02*
X143629819Y-73254166D01*
X143629819Y-73254166D02*
X143582200Y-73349404D01*
X143582200Y-73349404D02*
X143534580Y-73397023D01*
X128937142Y-113034819D02*
X128603809Y-112558628D01*
X128365714Y-113034819D02*
X128365714Y-112034819D01*
X128365714Y-112034819D02*
X128746666Y-112034819D01*
X128746666Y-112034819D02*
X128841904Y-112082438D01*
X128841904Y-112082438D02*
X128889523Y-112130057D01*
X128889523Y-112130057D02*
X128937142Y-112225295D01*
X128937142Y-112225295D02*
X128937142Y-112368152D01*
X128937142Y-112368152D02*
X128889523Y-112463390D01*
X128889523Y-112463390D02*
X128841904Y-112511009D01*
X128841904Y-112511009D02*
X128746666Y-112558628D01*
X128746666Y-112558628D02*
X128365714Y-112558628D01*
X129889523Y-113034819D02*
X129318095Y-113034819D01*
X129603809Y-113034819D02*
X129603809Y-112034819D01*
X129603809Y-112034819D02*
X129508571Y-112177676D01*
X129508571Y-112177676D02*
X129413333Y-112272914D01*
X129413333Y-112272914D02*
X129318095Y-112320533D01*
X130841904Y-113034819D02*
X130270476Y-113034819D01*
X130556190Y-113034819D02*
X130556190Y-112034819D01*
X130556190Y-112034819D02*
X130460952Y-112177676D01*
X130460952Y-112177676D02*
X130365714Y-112272914D01*
X130365714Y-112272914D02*
X130270476Y-112320533D01*
X125911905Y-75054819D02*
X125911905Y-74054819D01*
X125911905Y-74054819D02*
X126150000Y-74054819D01*
X126150000Y-74054819D02*
X126292857Y-74102438D01*
X126292857Y-74102438D02*
X126388095Y-74197676D01*
X126388095Y-74197676D02*
X126435714Y-74292914D01*
X126435714Y-74292914D02*
X126483333Y-74483390D01*
X126483333Y-74483390D02*
X126483333Y-74626247D01*
X126483333Y-74626247D02*
X126435714Y-74816723D01*
X126435714Y-74816723D02*
X126388095Y-74911961D01*
X126388095Y-74911961D02*
X126292857Y-75007200D01*
X126292857Y-75007200D02*
X126150000Y-75054819D01*
X126150000Y-75054819D02*
X125911905Y-75054819D01*
X127435714Y-75054819D02*
X126864286Y-75054819D01*
X127150000Y-75054819D02*
X127150000Y-74054819D01*
X127150000Y-74054819D02*
X127054762Y-74197676D01*
X127054762Y-74197676D02*
X126959524Y-74292914D01*
X126959524Y-74292914D02*
X126864286Y-74340533D01*
X136314913Y-79867319D02*
X136314913Y-80676842D01*
X136314913Y-80676842D02*
X136362532Y-80772080D01*
X136362532Y-80772080D02*
X136410151Y-80819700D01*
X136410151Y-80819700D02*
X136505389Y-80867319D01*
X136505389Y-80867319D02*
X136695865Y-80867319D01*
X136695865Y-80867319D02*
X136791103Y-80819700D01*
X136791103Y-80819700D02*
X136838722Y-80772080D01*
X136838722Y-80772080D02*
X136886341Y-80676842D01*
X136886341Y-80676842D02*
X136886341Y-79867319D01*
X137886341Y-80867319D02*
X137314913Y-80867319D01*
X137600627Y-80867319D02*
X137600627Y-79867319D01*
X137600627Y-79867319D02*
X137505389Y-80010176D01*
X137505389Y-80010176D02*
X137410151Y-80105414D01*
X137410151Y-80105414D02*
X137314913Y-80153033D01*
X137698333Y-124629819D02*
X137365000Y-124153628D01*
X137126905Y-124629819D02*
X137126905Y-123629819D01*
X137126905Y-123629819D02*
X137507857Y-123629819D01*
X137507857Y-123629819D02*
X137603095Y-123677438D01*
X137603095Y-123677438D02*
X137650714Y-123725057D01*
X137650714Y-123725057D02*
X137698333Y-123820295D01*
X137698333Y-123820295D02*
X137698333Y-123963152D01*
X137698333Y-123963152D02*
X137650714Y-124058390D01*
X137650714Y-124058390D02*
X137603095Y-124106009D01*
X137603095Y-124106009D02*
X137507857Y-124153628D01*
X137507857Y-124153628D02*
X137126905Y-124153628D01*
X138079286Y-123725057D02*
X138126905Y-123677438D01*
X138126905Y-123677438D02*
X138222143Y-123629819D01*
X138222143Y-123629819D02*
X138460238Y-123629819D01*
X138460238Y-123629819D02*
X138555476Y-123677438D01*
X138555476Y-123677438D02*
X138603095Y-123725057D01*
X138603095Y-123725057D02*
X138650714Y-123820295D01*
X138650714Y-123820295D02*
X138650714Y-123915533D01*
X138650714Y-123915533D02*
X138603095Y-124058390D01*
X138603095Y-124058390D02*
X138031667Y-124629819D01*
X138031667Y-124629819D02*
X138650714Y-124629819D01*
X126783333Y-116222319D02*
X126450000Y-115746128D01*
X126211905Y-116222319D02*
X126211905Y-115222319D01*
X126211905Y-115222319D02*
X126592857Y-115222319D01*
X126592857Y-115222319D02*
X126688095Y-115269938D01*
X126688095Y-115269938D02*
X126735714Y-115317557D01*
X126735714Y-115317557D02*
X126783333Y-115412795D01*
X126783333Y-115412795D02*
X126783333Y-115555652D01*
X126783333Y-115555652D02*
X126735714Y-115650890D01*
X126735714Y-115650890D02*
X126688095Y-115698509D01*
X126688095Y-115698509D02*
X126592857Y-115746128D01*
X126592857Y-115746128D02*
X126211905Y-115746128D01*
X127259524Y-116222319D02*
X127450000Y-116222319D01*
X127450000Y-116222319D02*
X127545238Y-116174700D01*
X127545238Y-116174700D02*
X127592857Y-116127080D01*
X127592857Y-116127080D02*
X127688095Y-115984223D01*
X127688095Y-115984223D02*
X127735714Y-115793747D01*
X127735714Y-115793747D02*
X127735714Y-115412795D01*
X127735714Y-115412795D02*
X127688095Y-115317557D01*
X127688095Y-115317557D02*
X127640476Y-115269938D01*
X127640476Y-115269938D02*
X127545238Y-115222319D01*
X127545238Y-115222319D02*
X127354762Y-115222319D01*
X127354762Y-115222319D02*
X127259524Y-115269938D01*
X127259524Y-115269938D02*
X127211905Y-115317557D01*
X127211905Y-115317557D02*
X127164286Y-115412795D01*
X127164286Y-115412795D02*
X127164286Y-115650890D01*
X127164286Y-115650890D02*
X127211905Y-115746128D01*
X127211905Y-115746128D02*
X127259524Y-115793747D01*
X127259524Y-115793747D02*
X127354762Y-115841366D01*
X127354762Y-115841366D02*
X127545238Y-115841366D01*
X127545238Y-115841366D02*
X127640476Y-115793747D01*
X127640476Y-115793747D02*
X127688095Y-115746128D01*
X127688095Y-115746128D02*
X127735714Y-115650890D01*
X153214642Y-92954819D02*
X152881309Y-92478628D01*
X152643214Y-92954819D02*
X152643214Y-91954819D01*
X152643214Y-91954819D02*
X153024166Y-91954819D01*
X153024166Y-91954819D02*
X153119404Y-92002438D01*
X153119404Y-92002438D02*
X153167023Y-92050057D01*
X153167023Y-92050057D02*
X153214642Y-92145295D01*
X153214642Y-92145295D02*
X153214642Y-92288152D01*
X153214642Y-92288152D02*
X153167023Y-92383390D01*
X153167023Y-92383390D02*
X153119404Y-92431009D01*
X153119404Y-92431009D02*
X153024166Y-92478628D01*
X153024166Y-92478628D02*
X152643214Y-92478628D01*
X154167023Y-92954819D02*
X153595595Y-92954819D01*
X153881309Y-92954819D02*
X153881309Y-91954819D01*
X153881309Y-91954819D02*
X153786071Y-92097676D01*
X153786071Y-92097676D02*
X153690833Y-92192914D01*
X153690833Y-92192914D02*
X153595595Y-92240533D01*
X154738452Y-92383390D02*
X154643214Y-92335771D01*
X154643214Y-92335771D02*
X154595595Y-92288152D01*
X154595595Y-92288152D02*
X154547976Y-92192914D01*
X154547976Y-92192914D02*
X154547976Y-92145295D01*
X154547976Y-92145295D02*
X154595595Y-92050057D01*
X154595595Y-92050057D02*
X154643214Y-92002438D01*
X154643214Y-92002438D02*
X154738452Y-91954819D01*
X154738452Y-91954819D02*
X154928928Y-91954819D01*
X154928928Y-91954819D02*
X155024166Y-92002438D01*
X155024166Y-92002438D02*
X155071785Y-92050057D01*
X155071785Y-92050057D02*
X155119404Y-92145295D01*
X155119404Y-92145295D02*
X155119404Y-92192914D01*
X155119404Y-92192914D02*
X155071785Y-92288152D01*
X155071785Y-92288152D02*
X155024166Y-92335771D01*
X155024166Y-92335771D02*
X154928928Y-92383390D01*
X154928928Y-92383390D02*
X154738452Y-92383390D01*
X154738452Y-92383390D02*
X154643214Y-92431009D01*
X154643214Y-92431009D02*
X154595595Y-92478628D01*
X154595595Y-92478628D02*
X154547976Y-92573866D01*
X154547976Y-92573866D02*
X154547976Y-92764342D01*
X154547976Y-92764342D02*
X154595595Y-92859580D01*
X154595595Y-92859580D02*
X154643214Y-92907200D01*
X154643214Y-92907200D02*
X154738452Y-92954819D01*
X154738452Y-92954819D02*
X154928928Y-92954819D01*
X154928928Y-92954819D02*
X155024166Y-92907200D01*
X155024166Y-92907200D02*
X155071785Y-92859580D01*
X155071785Y-92859580D02*
X155119404Y-92764342D01*
X155119404Y-92764342D02*
X155119404Y-92573866D01*
X155119404Y-92573866D02*
X155071785Y-92478628D01*
X155071785Y-92478628D02*
X155024166Y-92431009D01*
X155024166Y-92431009D02*
X154928928Y-92383390D01*
X122193333Y-124469819D02*
X121860000Y-123993628D01*
X121621905Y-124469819D02*
X121621905Y-123469819D01*
X121621905Y-123469819D02*
X122002857Y-123469819D01*
X122002857Y-123469819D02*
X122098095Y-123517438D01*
X122098095Y-123517438D02*
X122145714Y-123565057D01*
X122145714Y-123565057D02*
X122193333Y-123660295D01*
X122193333Y-123660295D02*
X122193333Y-123803152D01*
X122193333Y-123803152D02*
X122145714Y-123898390D01*
X122145714Y-123898390D02*
X122098095Y-123946009D01*
X122098095Y-123946009D02*
X122002857Y-123993628D01*
X122002857Y-123993628D02*
X121621905Y-123993628D01*
X123145714Y-124469819D02*
X122574286Y-124469819D01*
X122860000Y-124469819D02*
X122860000Y-123469819D01*
X122860000Y-123469819D02*
X122764762Y-123612676D01*
X122764762Y-123612676D02*
X122669524Y-123707914D01*
X122669524Y-123707914D02*
X122574286Y-123755533D01*
X126783333Y-122422319D02*
X126450000Y-121946128D01*
X126211905Y-122422319D02*
X126211905Y-121422319D01*
X126211905Y-121422319D02*
X126592857Y-121422319D01*
X126592857Y-121422319D02*
X126688095Y-121469938D01*
X126688095Y-121469938D02*
X126735714Y-121517557D01*
X126735714Y-121517557D02*
X126783333Y-121612795D01*
X126783333Y-121612795D02*
X126783333Y-121755652D01*
X126783333Y-121755652D02*
X126735714Y-121850890D01*
X126735714Y-121850890D02*
X126688095Y-121898509D01*
X126688095Y-121898509D02*
X126592857Y-121946128D01*
X126592857Y-121946128D02*
X126211905Y-121946128D01*
X127688095Y-121422319D02*
X127211905Y-121422319D01*
X127211905Y-121422319D02*
X127164286Y-121898509D01*
X127164286Y-121898509D02*
X127211905Y-121850890D01*
X127211905Y-121850890D02*
X127307143Y-121803271D01*
X127307143Y-121803271D02*
X127545238Y-121803271D01*
X127545238Y-121803271D02*
X127640476Y-121850890D01*
X127640476Y-121850890D02*
X127688095Y-121898509D01*
X127688095Y-121898509D02*
X127735714Y-121993747D01*
X127735714Y-121993747D02*
X127735714Y-122231842D01*
X127735714Y-122231842D02*
X127688095Y-122327080D01*
X127688095Y-122327080D02*
X127640476Y-122374700D01*
X127640476Y-122374700D02*
X127545238Y-122422319D01*
X127545238Y-122422319D02*
X127307143Y-122422319D01*
X127307143Y-122422319D02*
X127211905Y-122374700D01*
X127211905Y-122374700D02*
X127164286Y-122327080D01*
D13*
X122425000Y-69830436D02*
X122425000Y-70284564D01*
X123895000Y-69830436D02*
X123895000Y-70284564D01*
X135080000Y-114874564D02*
X135080000Y-113420436D01*
X136900000Y-114874564D02*
X136900000Y-113420436D01*
X128400000Y-122664564D02*
X128400000Y-121210436D01*
X130220000Y-122664564D02*
X130220000Y-121210436D01*
X144815000Y-113839564D02*
X144815000Y-113385436D01*
X146285000Y-113839564D02*
X146285000Y-113385436D01*
X134715000Y-73772936D02*
X134715000Y-74227064D01*
X136185000Y-73772936D02*
X136185000Y-74227064D01*
X133304318Y-87277064D02*
X133304318Y-86822936D01*
X134774318Y-87277064D02*
X134774318Y-86822936D01*
X132704318Y-81002064D02*
X132704318Y-80547936D01*
X134174318Y-81002064D02*
X134174318Y-80547936D01*
X128610000Y-77825000D02*
X125350000Y-77825000D01*
X128610000Y-79525000D02*
X125350000Y-79525000D01*
X128610000Y-79525000D02*
X128610000Y-77825000D01*
X137001482Y-85477500D02*
X137217154Y-85477500D01*
X137001482Y-86197500D02*
X137217154Y-86197500D01*
X155539564Y-99365000D02*
X155085436Y-99365000D01*
X155539564Y-100835000D02*
X155085436Y-100835000D01*
X146797500Y-91864564D02*
X146797500Y-91410436D01*
X148267500Y-91864564D02*
X148267500Y-91410436D01*
X138213767Y-66940000D02*
X137921233Y-66940000D01*
X138213767Y-67960000D02*
X137921233Y-67960000D01*
D10*
X118840000Y-50015000D02*
X148840000Y-50015000D01*
X118840000Y-59865000D02*
X118840000Y-50015000D01*
X148840000Y-50015000D02*
X148840000Y-59865000D01*
X148840000Y-59865000D02*
X118840000Y-59865000D01*
D14*
X118040000Y-55265000D02*
G75*
G02*
X117940000Y-55265000I-50000J0D01*
G01*
X117940000Y-55265000D02*
G75*
G02*
X118040000Y-55265000I50000J0D01*
G01*
D13*
X174710000Y-134300000D02*
X174710000Y-132970000D01*
X176040000Y-134300000D02*
X174710000Y-134300000D01*
X177310000Y-131640000D02*
X184990000Y-131640000D01*
X177310000Y-134300000D02*
X177310000Y-131640000D01*
X177310000Y-134300000D02*
X184990000Y-134300000D01*
X184990000Y-134300000D02*
X184990000Y-131640000D01*
X144340000Y-70364564D02*
X144340000Y-69910436D01*
X145810000Y-70364564D02*
X145810000Y-69910436D01*
X143773767Y-104130000D02*
X143481233Y-104130000D01*
X143773767Y-105150000D02*
X143481233Y-105150000D01*
X138415000Y-74352064D02*
X138415000Y-73897936D01*
X139885000Y-74352064D02*
X139885000Y-73897936D01*
X151146267Y-83090000D02*
X150853733Y-83090000D01*
X151146267Y-84110000D02*
X150853733Y-84110000D01*
X141952500Y-97860000D02*
X141302500Y-97860000D01*
X141952500Y-97860000D02*
X142602500Y-97860000D01*
X141952500Y-100980000D02*
X141302500Y-100980000D01*
X141952500Y-100980000D02*
X142602500Y-100980000D01*
X143355000Y-101260000D02*
X142875000Y-101260000D01*
X143115000Y-100930000D01*
X143355000Y-101260000D01*
G36*
X143355000Y-101260000D02*
G01*
X142875000Y-101260000D01*
X143115000Y-100930000D01*
X143355000Y-101260000D01*
G37*
X140250000Y-68552500D02*
X139450000Y-68552500D01*
X140250000Y-68552500D02*
X141050000Y-68552500D01*
X140250000Y-71672500D02*
X139450000Y-71672500D01*
X140250000Y-71672500D02*
X141050000Y-71672500D01*
X138950000Y-68602500D02*
X138710000Y-68272500D01*
X139190000Y-68272500D01*
X138950000Y-68602500D01*
G36*
X138950000Y-68602500D02*
G01*
X138710000Y-68272500D01*
X139190000Y-68272500D01*
X138950000Y-68602500D01*
G37*
X155570000Y-114285436D02*
X155570000Y-114739564D01*
X157040000Y-114285436D02*
X157040000Y-114739564D01*
X136526267Y-78240000D02*
X136233733Y-78240000D01*
X136526267Y-79260000D02*
X136233733Y-79260000D01*
X128450000Y-116464564D02*
X128450000Y-115010436D01*
X130270000Y-116464564D02*
X130270000Y-115010436D01*
X148480000Y-112190000D02*
X148480000Y-110240000D01*
X148480000Y-112190000D02*
X148480000Y-114140000D01*
X153600000Y-112190000D02*
X153600000Y-110240000D01*
X153600000Y-112190000D02*
X153600000Y-114140000D01*
X148575000Y-114890000D02*
X148245000Y-115130000D01*
X148245000Y-114650000D01*
X148575000Y-114890000D01*
G36*
X148575000Y-114890000D02*
G01*
X148245000Y-115130000D01*
X148245000Y-114650000D01*
X148575000Y-114890000D01*
G37*
X161590000Y-54805000D02*
X176950000Y-54805000D01*
X161590000Y-57405000D02*
X161590000Y-54805000D01*
X161590000Y-60005000D02*
X161590000Y-58675000D01*
X162920000Y-60005000D02*
X161590000Y-60005000D01*
X164190000Y-57405000D02*
X161590000Y-57405000D01*
X164190000Y-60005000D02*
X164190000Y-57405000D01*
X164190000Y-60005000D02*
X176950000Y-60005000D01*
X176950000Y-60005000D02*
X176950000Y-54805000D01*
X141117064Y-109615000D02*
X140662936Y-109615000D01*
X141117064Y-111085000D02*
X140662936Y-111085000D01*
X134740000Y-69677936D02*
X134740000Y-70132064D01*
X136210000Y-69677936D02*
X136210000Y-70132064D01*
X140579318Y-82585436D02*
X140579318Y-83039564D01*
X142049318Y-82585436D02*
X142049318Y-83039564D01*
X154147500Y-87310436D02*
X154147500Y-87764564D01*
X155617500Y-87310436D02*
X155617500Y-87764564D01*
X142780436Y-90015000D02*
X143234564Y-90015000D01*
X142780436Y-91485000D02*
X143234564Y-91485000D01*
X165200000Y-116482500D02*
X165430000Y-116482500D01*
X165200000Y-119792500D02*
X165200000Y-116482500D01*
X165200000Y-119792500D02*
X165200000Y-123102500D01*
X165200000Y-123102500D02*
X165430000Y-123102500D01*
X175200000Y-116482500D02*
X174970000Y-116482500D01*
X175200000Y-119792500D02*
X175200000Y-116482500D01*
X175200000Y-119792500D02*
X175200000Y-123102500D01*
X175200000Y-123102500D02*
X174970000Y-123102500D01*
X175440000Y-115920000D02*
X174970000Y-115580000D01*
X175440000Y-115240000D01*
X175440000Y-115920000D01*
G36*
X175440000Y-115920000D02*
G01*
X174970000Y-115580000D01*
X175440000Y-115240000D01*
X175440000Y-115920000D01*
G37*
X120165000Y-77825000D02*
X120165000Y-79525000D01*
X120165000Y-77825000D02*
X123425000Y-77825000D01*
X120165000Y-79525000D02*
X123425000Y-79525000D01*
X132640000Y-117914564D02*
X132640000Y-116460436D01*
X134460000Y-117914564D02*
X134460000Y-116460436D01*
X155502064Y-97240000D02*
X155047936Y-97240000D01*
X155502064Y-98710000D02*
X155047936Y-98710000D01*
X147705436Y-93790000D02*
X148159564Y-93790000D01*
X147705436Y-95260000D02*
X148159564Y-95260000D01*
X155570000Y-111014564D02*
X155570000Y-110560436D01*
X157040000Y-111014564D02*
X157040000Y-110560436D01*
X135080000Y-108604564D02*
X135080000Y-107150436D01*
X136900000Y-108604564D02*
X136900000Y-107150436D01*
X163470000Y-80320000D02*
X178830000Y-80320000D01*
X163470000Y-82920000D02*
X163470000Y-80320000D01*
X163470000Y-85520000D02*
X163470000Y-84190000D01*
X164800000Y-85520000D02*
X163470000Y-85520000D01*
X166070000Y-82920000D02*
X163470000Y-82920000D01*
X166070000Y-85520000D02*
X166070000Y-82920000D01*
X166070000Y-85520000D02*
X178830000Y-85520000D01*
X178830000Y-85520000D02*
X178830000Y-80320000D01*
X120140000Y-75325000D02*
X120140000Y-77025000D01*
X120140000Y-75325000D02*
X123400000Y-75325000D01*
X120140000Y-77025000D02*
X123400000Y-77025000D01*
X137347064Y-87077500D02*
X136892936Y-87077500D01*
X137347064Y-88547500D02*
X136892936Y-88547500D01*
D14*
X163920000Y-129030000D02*
X163920000Y-133080000D01*
X166420000Y-137130000D02*
X173920000Y-137130000D01*
X173920000Y-129030000D02*
X163920000Y-129030000D01*
X173920000Y-137130000D02*
X173920000Y-129030000D01*
D13*
X134142936Y-89252500D02*
X134597064Y-89252500D01*
X134142936Y-90722500D02*
X134597064Y-90722500D01*
X150882500Y-85977500D02*
X150082500Y-85977500D01*
X150882500Y-85977500D02*
X151682500Y-85977500D01*
X150882500Y-89097500D02*
X150082500Y-89097500D01*
X150882500Y-89097500D02*
X151682500Y-89097500D01*
X149582500Y-86027500D02*
X149342500Y-85697500D01*
X149822500Y-85697500D01*
X149582500Y-86027500D01*
G36*
X149582500Y-86027500D02*
G01*
X149342500Y-85697500D01*
X149822500Y-85697500D01*
X149582500Y-86027500D01*
G37*
X147139564Y-97240000D02*
X146685436Y-97240000D01*
X147139564Y-98710000D02*
X146685436Y-98710000D01*
D10*
X118605000Y-129540000D02*
X149085000Y-129540000D01*
X118605000Y-139040000D02*
X118605000Y-129540000D01*
X149085000Y-129540000D02*
X149085000Y-139040000D01*
X149085000Y-139040000D02*
X118605000Y-139040000D01*
D14*
X117845000Y-134290000D02*
G75*
G02*
X117745000Y-134290000I-50000J0D01*
G01*
X117745000Y-134290000D02*
G75*
G02*
X117845000Y-134290000I50000J0D01*
G01*
D13*
X155627064Y-105515000D02*
X155172936Y-105515000D01*
X155627064Y-106985000D02*
X155172936Y-106985000D01*
X148822936Y-117570000D02*
X153177064Y-117570000D01*
X148822936Y-120990000D02*
X153177064Y-120990000D01*
X132460000Y-111684564D02*
X132460000Y-110230436D01*
X134280000Y-111684564D02*
X134280000Y-110230436D01*
X146297500Y-85689564D02*
X146297500Y-85235436D01*
X147767500Y-85689564D02*
X147767500Y-85235436D01*
X135150000Y-121104564D02*
X135150000Y-119650436D01*
X136970000Y-121104564D02*
X136970000Y-119650436D01*
X121250000Y-83160000D02*
X122580000Y-83160000D01*
X121250000Y-84490000D02*
X121250000Y-83160000D01*
X121250000Y-85760000D02*
X121250000Y-106140000D01*
X121250000Y-85760000D02*
X123850000Y-85760000D01*
X121250000Y-106140000D02*
X126450000Y-106140000D01*
X123850000Y-83160000D02*
X126450000Y-83160000D01*
X123850000Y-85760000D02*
X123850000Y-83160000D01*
X126450000Y-83160000D02*
X126450000Y-106140000D01*
X143380000Y-105910000D02*
X142580000Y-105910000D01*
X143380000Y-105910000D02*
X144180000Y-105910000D01*
X143380000Y-109030000D02*
X142580000Y-109030000D01*
X143380000Y-109030000D02*
X144180000Y-109030000D01*
X142080000Y-105960000D02*
X141840000Y-105630000D01*
X142320000Y-105630000D01*
X142080000Y-105960000D01*
G36*
X142080000Y-105960000D02*
G01*
X141840000Y-105630000D01*
X142320000Y-105630000D01*
X142080000Y-105960000D01*
G37*
X150312164Y-90165000D02*
X150527836Y-90165000D01*
X150312164Y-90885000D02*
X150527836Y-90885000D01*
X150889564Y-97240000D02*
X150435436Y-97240000D01*
X150889564Y-98710000D02*
X150435436Y-98710000D01*
X140640000Y-74352064D02*
X140640000Y-73897936D01*
X142110000Y-74352064D02*
X142110000Y-73897936D01*
X128480000Y-110184564D02*
X128480000Y-108730436D01*
X130300000Y-110184564D02*
X130300000Y-108730436D01*
X128635000Y-75325000D02*
X125375000Y-75325000D01*
X128635000Y-77025000D02*
X125375000Y-77025000D01*
X128635000Y-77025000D02*
X128635000Y-75325000D01*
X137076818Y-81252500D02*
X136276818Y-81252500D01*
X137076818Y-81252500D02*
X137876818Y-81252500D01*
X137076818Y-84372500D02*
X136276818Y-84372500D01*
X137076818Y-84372500D02*
X137876818Y-84372500D01*
X135776818Y-81302500D02*
X135536818Y-80972500D01*
X136016818Y-80972500D01*
X135776818Y-81302500D01*
G36*
X135776818Y-81302500D02*
G01*
X135536818Y-80972500D01*
X136016818Y-80972500D01*
X135776818Y-81302500D01*
G37*
X133790436Y-123105000D02*
X135244564Y-123105000D01*
X133790436Y-124925000D02*
X135244564Y-124925000D01*
X126010000Y-113312064D02*
X126010000Y-111857936D01*
X127830000Y-113312064D02*
X127830000Y-111857936D01*
X150722064Y-91640000D02*
X150267936Y-91640000D01*
X150722064Y-93110000D02*
X150267936Y-93110000D01*
X124982936Y-122955000D02*
X126437064Y-122955000D01*
X124982936Y-124775000D02*
X126437064Y-124775000D01*
X126010000Y-119574564D02*
X126010000Y-118120436D01*
X127830000Y-119574564D02*
X127830000Y-118120436D01*
%LPC*%
D15*
X123160000Y-69145000D03*
X123160000Y-70970000D03*
D16*
X135990000Y-115610000D03*
X135990000Y-112685000D03*
X129310000Y-123400000D03*
X129310000Y-120475000D03*
D17*
X145550000Y-114525000D03*
X145550000Y-112700000D03*
D15*
X135450000Y-73087500D03*
X135450000Y-74912500D03*
D17*
X134039318Y-87962500D03*
X134039318Y-86137500D03*
X133439318Y-81687500D03*
X133439318Y-79862500D03*
D18*
X127850000Y-78675000D03*
X125350000Y-78675000D03*
D19*
X136629318Y-85837500D03*
X137589318Y-85837500D03*
D20*
X156225000Y-100100000D03*
X154400000Y-100100000D03*
D17*
X147532500Y-92550000D03*
X147532500Y-90725000D03*
D21*
X138930000Y-67450000D03*
X137205000Y-67450000D03*
D22*
X121340000Y-55265000D03*
D23*
X126340000Y-55265000D03*
X131340000Y-55265000D03*
X136340000Y-55265000D03*
X141340000Y-55265000D03*
X146340000Y-55265000D03*
D24*
X176040000Y-132970000D03*
D25*
X178580000Y-132970000D03*
X181120000Y-132970000D03*
X183660000Y-132970000D03*
D17*
X145075000Y-71050000D03*
X145075000Y-69225000D03*
D21*
X144490000Y-104640000D03*
X142765000Y-104640000D03*
D17*
X139150000Y-75037500D03*
X139150000Y-73212500D03*
D21*
X151862500Y-83600000D03*
X150137500Y-83600000D03*
D26*
X142890000Y-100370000D03*
X142890000Y-98470000D03*
X141015000Y-99420000D03*
D27*
X139112500Y-69162500D03*
X139112500Y-70112500D03*
X139112500Y-71062500D03*
X141387500Y-71062500D03*
X141387500Y-69162500D03*
D15*
X156305000Y-113600000D03*
X156305000Y-115425000D03*
D21*
X137242500Y-78750000D03*
X135517500Y-78750000D03*
D16*
X129360000Y-117200000D03*
X129360000Y-114275000D03*
D28*
X149135000Y-114665000D03*
X150405000Y-114665000D03*
X151675000Y-114665000D03*
X152945000Y-114665000D03*
X152945000Y-109715000D03*
X151675000Y-109715000D03*
X150405000Y-109715000D03*
X149135000Y-109715000D03*
D24*
X162920000Y-58675000D03*
D25*
X162920000Y-56135000D03*
X165460000Y-58675000D03*
X165460000Y-56135000D03*
X168000000Y-58675000D03*
X168000000Y-56135000D03*
X170540000Y-58675000D03*
X170540000Y-56135000D03*
X173080000Y-58675000D03*
X173080000Y-56135000D03*
X175620000Y-58675000D03*
X175620000Y-56135000D03*
D20*
X141802500Y-110350000D03*
X139977500Y-110350000D03*
D15*
X135475000Y-68992500D03*
X135475000Y-70817500D03*
X141314318Y-81900000D03*
X141314318Y-83725000D03*
X154882500Y-86625000D03*
X154882500Y-88450000D03*
D29*
X142095000Y-90750000D03*
X143920000Y-90750000D03*
D30*
X174010000Y-115492500D03*
X171470000Y-115492500D03*
X168930000Y-115492500D03*
X166390000Y-115492500D03*
X166390000Y-124092500D03*
X168930000Y-124092500D03*
X174010000Y-124092500D03*
D31*
X120925000Y-78675000D03*
X123425000Y-78675000D03*
D16*
X133550000Y-118650000D03*
X133550000Y-115725000D03*
D20*
X156187500Y-97975000D03*
X154362500Y-97975000D03*
D29*
X147020000Y-94525000D03*
X148845000Y-94525000D03*
D17*
X156305000Y-111700000D03*
X156305000Y-109875000D03*
D16*
X135990000Y-109340000D03*
X135990000Y-106415000D03*
D24*
X164800000Y-84190000D03*
D25*
X164800000Y-81650000D03*
X167340000Y-84190000D03*
X167340000Y-81650000D03*
X169880000Y-84190000D03*
X169880000Y-81650000D03*
X172420000Y-84190000D03*
X172420000Y-81650000D03*
X174960000Y-84190000D03*
X174960000Y-81650000D03*
X177500000Y-84190000D03*
X177500000Y-81650000D03*
D31*
X120900000Y-76175000D03*
X123400000Y-76175000D03*
D20*
X138032500Y-87812500D03*
X136207500Y-87812500D03*
D32*
X166420000Y-133080000D03*
D33*
X171420000Y-133080000D03*
D29*
X133457500Y-89987500D03*
X135282500Y-89987500D03*
D27*
X149745000Y-86587500D03*
X149745000Y-87537500D03*
X149745000Y-88487500D03*
X152020000Y-88487500D03*
X152020000Y-86587500D03*
D20*
X147825000Y-97975000D03*
X146000000Y-97975000D03*
D22*
X121145000Y-134290000D03*
D23*
X126225000Y-134290000D03*
X131305000Y-134290000D03*
X136385000Y-134290000D03*
X141465000Y-134290000D03*
X146545000Y-134290000D03*
D20*
X156312500Y-106250000D03*
X154487500Y-106250000D03*
D34*
X147950000Y-119280000D03*
X154050000Y-119280000D03*
D16*
X133370000Y-112420000D03*
X133370000Y-109495000D03*
D17*
X147032500Y-86375000D03*
X147032500Y-84550000D03*
D16*
X136060000Y-121840000D03*
X136060000Y-118915000D03*
D24*
X122580000Y-84490000D03*
D25*
X125120000Y-84490000D03*
X122580000Y-87030000D03*
X125120000Y-87030000D03*
X122580000Y-89570000D03*
X125120000Y-89570000D03*
X122580000Y-92110000D03*
X125120000Y-92110000D03*
X122580000Y-94650000D03*
X125120000Y-94650000D03*
X122580000Y-97190000D03*
X125120000Y-97190000D03*
X122580000Y-99730000D03*
X125120000Y-99730000D03*
X122580000Y-102270000D03*
X125120000Y-102270000D03*
X122580000Y-104810000D03*
X125120000Y-104810000D03*
D27*
X142242500Y-106520000D03*
X142242500Y-107470000D03*
X142242500Y-108420000D03*
X144517500Y-108420000D03*
X144517500Y-106520000D03*
D19*
X149940000Y-90525000D03*
X150900000Y-90525000D03*
D20*
X151575000Y-97975000D03*
X149750000Y-97975000D03*
D17*
X141375000Y-75037500D03*
X141375000Y-73212500D03*
D16*
X129390000Y-110920000D03*
X129390000Y-107995000D03*
D18*
X127875000Y-76175000D03*
X125375000Y-76175000D03*
D27*
X135939318Y-81862500D03*
X135939318Y-82812500D03*
X135939318Y-83762500D03*
X138214318Y-83762500D03*
X138214318Y-81862500D03*
D35*
X133055000Y-124015000D03*
X135980000Y-124015000D03*
D16*
X126920000Y-114047500D03*
X126920000Y-111122500D03*
D20*
X151407500Y-92375000D03*
X149582500Y-92375000D03*
D35*
X124247500Y-123865000D03*
X127172500Y-123865000D03*
D16*
X126920000Y-120310000D03*
X126920000Y-117385000D03*
%LPD*%
M02*
