G04 #@! TF.GenerationSoftware,KiCad,Pcbnew,8.0.8*
G04 #@! TF.CreationDate,2025-02-19T14:34:16-05:00*
G04 #@! TF.ProjectId,afe_230v_16a,6166655f-3233-4307-965f-3136612e6b69,rev?*
G04 #@! TF.SameCoordinates,Original*
G04 #@! TF.FileFunction,Soldermask,Top*
G04 #@! TF.FilePolarity,Negative*
%FSLAX46Y46*%
G04 Gerber Fmt 4.6, Leading zero omitted, Abs format (unit mm)*
G04 Created by KiCad (PCBNEW 8.0.8) date 2025-02-19 14:34:16*
%MOMM*%
%LPD*%
G01*
G04 APERTURE LIST*
G04 Aperture macros list*
%AMRoundRect*
0 Rectangle with rounded corners*
0 $1 Rounding radius*
0 $2 $3 $4 $5 $6 $7 $8 $9 X,Y pos of 4 corners*
0 Add a 4 corners polygon primitive as box body*
4,1,4,$2,$3,$4,$5,$6,$7,$8,$9,$2,$3,0*
0 Add four circle primitives for the rounded corners*
1,1,$1+$1,$2,$3*
1,1,$1+$1,$4,$5*
1,1,$1+$1,$6,$7*
1,1,$1+$1,$8,$9*
0 Add four rect primitives between the rounded corners*
20,1,$1+$1,$2,$3,$4,$5,0*
20,1,$1+$1,$4,$5,$6,$7,0*
20,1,$1+$1,$6,$7,$8,$9,0*
20,1,$1+$1,$8,$9,$2,$3,0*%
G04 Aperture macros list end*
%ADD10RoundRect,0.250000X-0.450000X0.262500X-0.450000X-0.262500X0.450000X-0.262500X0.450000X0.262500X0*%
%ADD11RoundRect,0.250000X0.625000X-0.312500X0.625000X0.312500X-0.625000X0.312500X-0.625000X-0.312500X0*%
%ADD12RoundRect,0.250000X0.450000X-0.262500X0.450000X0.262500X-0.450000X0.262500X-0.450000X-0.262500X0*%
%ADD13RoundRect,0.250000X0.250000X0.250000X-0.250000X0.250000X-0.250000X-0.250000X0.250000X-0.250000X0*%
%ADD14RoundRect,0.140000X-0.140000X-0.170000X0.140000X-0.170000X0.140000X0.170000X-0.140000X0.170000X0*%
%ADD15RoundRect,0.250000X0.262500X0.450000X-0.262500X0.450000X-0.262500X-0.450000X0.262500X-0.450000X0*%
%ADD16RoundRect,0.237500X0.300000X0.237500X-0.300000X0.237500X-0.300000X-0.237500X0.300000X-0.237500X0*%
%ADD17R,1.950000X1.950000*%
%ADD18C,1.950000*%
%ADD19R,1.700000X1.700000*%
%ADD20O,1.700000X1.700000*%
%ADD21RoundRect,0.150000X0.587500X0.150000X-0.587500X0.150000X-0.587500X-0.150000X0.587500X-0.150000X0*%
%ADD22RoundRect,0.150000X-0.512500X-0.150000X0.512500X-0.150000X0.512500X0.150000X-0.512500X0.150000X0*%
%ADD23RoundRect,0.150000X0.150000X-0.825000X0.150000X0.825000X-0.150000X0.825000X-0.150000X-0.825000X0*%
%ADD24RoundRect,0.250000X-0.262500X-0.450000X0.262500X-0.450000X0.262500X0.450000X-0.262500X0.450000X0*%
%ADD25RoundRect,0.249999X-0.450001X0.675001X-0.450001X-0.675001X0.450001X-0.675001X0.450001X0.675001X0*%
%ADD26RoundRect,0.250000X-0.250000X-0.250000X0.250000X-0.250000X0.250000X0.250000X-0.250000X0.250000X0*%
%ADD27R,2.250000X2.250000*%
%ADD28C,2.250000*%
%ADD29RoundRect,0.249999X-0.450001X-1.425001X0.450001X-1.425001X0.450001X1.425001X-0.450001X1.425001X0*%
%ADD30RoundRect,0.250000X-0.312500X-0.625000X0.312500X-0.625000X0.312500X0.625000X-0.312500X0.625000X0*%
G04 APERTURE END LIST*
D10*
X123160000Y-69145000D03*
X123160000Y-70970000D03*
D11*
X135990000Y-115610000D03*
X135990000Y-112685000D03*
X129310000Y-123400000D03*
X129310000Y-120475000D03*
D12*
X145550000Y-114525000D03*
X145550000Y-112700000D03*
D10*
X135450000Y-73087500D03*
X135450000Y-74912500D03*
D12*
X134039318Y-87962500D03*
X134039318Y-86137500D03*
X133439318Y-81687500D03*
X133439318Y-79862500D03*
D13*
X127850000Y-78675000D03*
X125350000Y-78675000D03*
D14*
X136629318Y-85837500D03*
X137589318Y-85837500D03*
D15*
X156225000Y-100100000D03*
X154400000Y-100100000D03*
D12*
X147532500Y-92550000D03*
X147532500Y-90725000D03*
D16*
X138930000Y-67450000D03*
X137205000Y-67450000D03*
D17*
X121340000Y-55265000D03*
D18*
X126340000Y-55265000D03*
X131340000Y-55265000D03*
X136340000Y-55265000D03*
X141340000Y-55265000D03*
X146340000Y-55265000D03*
D19*
X176040000Y-132970000D03*
D20*
X178580000Y-132970000D03*
X181120000Y-132970000D03*
X183660000Y-132970000D03*
D12*
X145075000Y-71050000D03*
X145075000Y-69225000D03*
D16*
X144490000Y-104640000D03*
X142765000Y-104640000D03*
D12*
X139150000Y-75037500D03*
X139150000Y-73212500D03*
D16*
X151862500Y-83600000D03*
X150137500Y-83600000D03*
D21*
X142890000Y-100370000D03*
X142890000Y-98470000D03*
X141015000Y-99420000D03*
D22*
X139112500Y-69162500D03*
X139112500Y-70112500D03*
X139112500Y-71062500D03*
X141387500Y-71062500D03*
X141387500Y-69162500D03*
D10*
X156305000Y-113600000D03*
X156305000Y-115425000D03*
D16*
X137242500Y-78750000D03*
X135517500Y-78750000D03*
D11*
X129360000Y-117200000D03*
X129360000Y-114275000D03*
D23*
X149135000Y-114665000D03*
X150405000Y-114665000D03*
X151675000Y-114665000D03*
X152945000Y-114665000D03*
X152945000Y-109715000D03*
X151675000Y-109715000D03*
X150405000Y-109715000D03*
X149135000Y-109715000D03*
D19*
X162920000Y-58675000D03*
D20*
X162920000Y-56135000D03*
X165460000Y-58675000D03*
X165460000Y-56135000D03*
X168000000Y-58675000D03*
X168000000Y-56135000D03*
X170540000Y-58675000D03*
X170540000Y-56135000D03*
X173080000Y-58675000D03*
X173080000Y-56135000D03*
X175620000Y-58675000D03*
X175620000Y-56135000D03*
D15*
X141802500Y-110350000D03*
X139977500Y-110350000D03*
D10*
X135475000Y-68992500D03*
X135475000Y-70817500D03*
X141314318Y-81900000D03*
X141314318Y-83725000D03*
X154882500Y-86625000D03*
X154882500Y-88450000D03*
D24*
X142095000Y-90750000D03*
X143920000Y-90750000D03*
D25*
X174010000Y-115492500D03*
X171470000Y-115492500D03*
X168930000Y-115492500D03*
X166390000Y-115492500D03*
X166390000Y-124092500D03*
X168930000Y-124092500D03*
X174010000Y-124092500D03*
D26*
X120925000Y-78675000D03*
X123425000Y-78675000D03*
D11*
X133550000Y-118650000D03*
X133550000Y-115725000D03*
D15*
X156187500Y-97975000D03*
X154362500Y-97975000D03*
D24*
X147020000Y-94525000D03*
X148845000Y-94525000D03*
D12*
X156305000Y-111700000D03*
X156305000Y-109875000D03*
D11*
X135990000Y-109340000D03*
X135990000Y-106415000D03*
D19*
X164800000Y-84190000D03*
D20*
X164800000Y-81650000D03*
X167340000Y-84190000D03*
X167340000Y-81650000D03*
X169880000Y-84190000D03*
X169880000Y-81650000D03*
X172420000Y-84190000D03*
X172420000Y-81650000D03*
X174960000Y-84190000D03*
X174960000Y-81650000D03*
X177500000Y-84190000D03*
X177500000Y-81650000D03*
D26*
X120900000Y-76175000D03*
X123400000Y-76175000D03*
D15*
X138032500Y-87812500D03*
X136207500Y-87812500D03*
D27*
X166420000Y-133080000D03*
D28*
X171420000Y-133080000D03*
D24*
X133457500Y-89987500D03*
X135282500Y-89987500D03*
D22*
X149745000Y-86587500D03*
X149745000Y-87537500D03*
X149745000Y-88487500D03*
X152020000Y-88487500D03*
X152020000Y-86587500D03*
D15*
X147825000Y-97975000D03*
X146000000Y-97975000D03*
D17*
X121145000Y-134290000D03*
D18*
X126225000Y-134290000D03*
X131305000Y-134290000D03*
X136385000Y-134290000D03*
X141465000Y-134290000D03*
X146545000Y-134290000D03*
D15*
X156312500Y-106250000D03*
X154487500Y-106250000D03*
D29*
X147950000Y-119280000D03*
X154050000Y-119280000D03*
D11*
X133370000Y-112420000D03*
X133370000Y-109495000D03*
D12*
X147032500Y-86375000D03*
X147032500Y-84550000D03*
D11*
X136060000Y-121840000D03*
X136060000Y-118915000D03*
D19*
X122580000Y-84490000D03*
D20*
X125120000Y-84490000D03*
X122580000Y-87030000D03*
X125120000Y-87030000D03*
X122580000Y-89570000D03*
X125120000Y-89570000D03*
X122580000Y-92110000D03*
X125120000Y-92110000D03*
X122580000Y-94650000D03*
X125120000Y-94650000D03*
X122580000Y-97190000D03*
X125120000Y-97190000D03*
X122580000Y-99730000D03*
X125120000Y-99730000D03*
X122580000Y-102270000D03*
X125120000Y-102270000D03*
X122580000Y-104810000D03*
X125120000Y-104810000D03*
D22*
X142242500Y-106520000D03*
X142242500Y-107470000D03*
X142242500Y-108420000D03*
X144517500Y-108420000D03*
X144517500Y-106520000D03*
D14*
X149940000Y-90525000D03*
X150900000Y-90525000D03*
D15*
X151575000Y-97975000D03*
X149750000Y-97975000D03*
D12*
X141375000Y-75037500D03*
X141375000Y-73212500D03*
D11*
X129390000Y-110920000D03*
X129390000Y-107995000D03*
D13*
X127875000Y-76175000D03*
X125375000Y-76175000D03*
D22*
X135939318Y-81862500D03*
X135939318Y-82812500D03*
X135939318Y-83762500D03*
X138214318Y-83762500D03*
X138214318Y-81862500D03*
D30*
X133055000Y-124015000D03*
X135980000Y-124015000D03*
D11*
X126920000Y-114047500D03*
X126920000Y-111122500D03*
D15*
X151407500Y-92375000D03*
X149582500Y-92375000D03*
D30*
X124247500Y-123865000D03*
X127172500Y-123865000D03*
D11*
X126920000Y-120310000D03*
X126920000Y-117385000D03*
M02*
