G04 #@! TF.GenerationSoftware,KiCad,Pcbnew,8.0.8*
G04 #@! TF.CreationDate,2025-02-19T14:34:16-05:00*
G04 #@! TF.ProjectId,afe_230v_16a,6166655f-3233-4307-965f-3136612e6b69,rev?*
G04 #@! TF.SameCoordinates,Original*
G04 #@! TF.FileFunction,Profile,NP*
%FSLAX46Y46*%
G04 Gerber Fmt 4.6, Leading zero omitted, Abs format (unit mm)*
G04 Created by KiCad (PCBNEW 8.0.8) date 2025-02-19 14:34:16*
%MOMM*%
%LPD*%
G01*
G04 APERTURE LIST*
G04 #@! TA.AperFunction,Profile*
%ADD10C,0.150000*%
G04 #@! TD*
G04 APERTURE END LIST*
D10*
X150600000Y-62150000D02*
X150600000Y-54300000D01*
X119150000Y-115650000D02*
X119150000Y-73650000D01*
X158650000Y-137850000D02*
G75*
G02*
X159850000Y-136650000I1200000J0D01*
G01*
X149650000Y-51450000D02*
X117950000Y-51450000D01*
X179900000Y-136650000D02*
G75*
G02*
X181100000Y-137850000I0J-1200000D01*
G01*
X149650000Y-53350000D02*
X149650000Y-51450000D01*
X150600000Y-127150000D02*
G75*
G02*
X153000000Y-127150000I1200000J0D01*
G01*
X153950000Y-53350000D02*
X153950000Y-51450000D01*
X153000000Y-135000000D02*
G75*
G02*
X153950000Y-135950000I0J-950000D01*
G01*
X117950000Y-72450000D02*
G75*
G02*
X119150000Y-73650000I0J-1200000D01*
G01*
X180950000Y-51450000D02*
G75*
G02*
X179750000Y-52650000I-1200000J0D01*
G01*
X185650000Y-137850000D02*
X181100000Y-137850000D01*
X176500000Y-137850000D02*
G75*
G02*
X177700000Y-136650000I1200000J0D01*
G01*
X162050000Y-136650000D02*
X159850000Y-136650000D01*
X117950000Y-72450000D02*
X117950000Y-51450000D01*
X149650000Y-135950000D02*
X149650000Y-137850000D01*
X162050000Y-136650000D02*
G75*
G02*
X163250000Y-137850000I0J-1200000D01*
G01*
X158650000Y-137850000D02*
X153950000Y-137850000D01*
X176500000Y-137850000D02*
X163250000Y-137850000D01*
X150600000Y-54300000D02*
G75*
G02*
X149650000Y-53350000I0J950000D01*
G01*
X185650000Y-116850000D02*
G75*
G02*
X184450000Y-115650000I0J1200000D01*
G01*
X179900000Y-136650000D02*
X177700000Y-136650000D01*
X159700000Y-52650000D02*
X161900000Y-52650000D01*
X153000000Y-54300000D02*
X153000000Y-62150000D01*
X163100000Y-51450000D02*
X176350000Y-51450000D01*
X117950000Y-116850000D02*
X117950000Y-137850000D01*
X184450000Y-73650000D02*
G75*
G02*
X185650000Y-72450000I1200000J0D01*
G01*
X177550000Y-52650000D02*
X179750000Y-52650000D01*
X153950000Y-51450000D02*
X158500000Y-51450000D01*
X149650000Y-135950000D02*
G75*
G02*
X150600000Y-135000000I950000J0D01*
G01*
X163100000Y-51450000D02*
G75*
G02*
X161900000Y-52650000I-1200000J0D01*
G01*
X159700000Y-52650000D02*
G75*
G02*
X158500000Y-51450000I0J1200000D01*
G01*
X153950000Y-53350000D02*
G75*
G02*
X153000000Y-54300000I-950000J0D01*
G01*
X150600000Y-135000000D02*
X150600000Y-127150000D01*
X184450000Y-73650000D02*
X184450000Y-115650000D01*
X185650000Y-72450000D02*
X185650000Y-51450000D01*
X177550000Y-52650000D02*
G75*
G02*
X176350000Y-51450000I0J1200000D01*
G01*
X185650000Y-116850000D02*
X185650000Y-137850000D01*
X119150000Y-115650000D02*
G75*
G02*
X117950000Y-116850000I-1200000J0D01*
G01*
X153950000Y-135950000D02*
X153950000Y-137850000D01*
X153000000Y-127150000D02*
X153000000Y-135000000D01*
X180950000Y-51450000D02*
X185650000Y-51450000D01*
X153000000Y-62150000D02*
G75*
G02*
X150600000Y-62150000I-1200000J0D01*
G01*
X149650000Y-137850000D02*
X117950000Y-137850000D01*
M02*
