0
SECTION
2
HEADER
9
$INSUNITS
70
4
9
$ACADVER
1
AC1014
9
$HANDSEED
5
FFFF
0
ENDSEC
0
SECTION
2
TABLES
0
TABLE
2
VPORT
5
8
100
AcDbSymbolTable
0
ENDTAB
0
TABLE
2
LTYPE
5
5
100
AcDbSymbolTable
0
LTYPE
5
14
100
AcDbSymbolTableRecord
100
AcDbLinetypeTableRecord
2
BYBLOCK
70
0
0
LTYPE
5
15
100
AcDbSymbolTableRecord
100
AcDbLinetypeTableRecord
2
BYLAYER
70
0
0
LTYPE
5
16
100
AcDbSymbolTableRecord
100
AcDbLinetypeTableRecord
2
DASHED
70
0
3
Dashed __ __ __ __ __ __ __ __ __ __ __ __ __ _
72
65
73
2
40
0.75
49
0.5
74
0
49
-0.25
74
0
0
ENDTAB
0
TABLE
2
LAYER
5
2
100
AcDbSymbolTable
70
3
0
LAYER
5
50
100
AcDbSymbolTableRecord
100
AcDbLayerTableRecord
2
1
70
0
62
7
6
DASHED
0
LAYER
5
51
100
AcDbSymbolTableRecord
100
AcDbLayerTableRecord
2
0
70
0
62
7
6
CONTINUOUS
0
ENDTAB
0
TABLE
2
STYLE
5
3
100
AcDbSymbolTable
70
1
0
STYLE
5
11
100
AcDbSymbolTableRecord
100
AcDbTextStyleTableRecord
2
STANDARD
70
0
0
ENDTAB
0
TABLE
2
VIEW
5
6
100
AcDbSymbolTable
70
0
0
ENDTAB
0
TABLE
2
UCS
5
7
100
AcDbSymbolTable
70
0
0
ENDTAB
0
TABLE
2
APPID
5
9
100
AcDbSymbolTable
70
2
0
APPID
5
12
100
AcDbSymbolTableRecord
100
AcDbRegAppTableRecord
2
ACAD
70
0
0
ENDTAB
0
TABLE
2
DIMSTYLE
5
A
100
AcDbSymbolTable
70
1
0
ENDTAB
0
TABLE
2
BLOCK_RECORD
5
1
100
AcDbSymbolTable
70
1
0
BLOCK_RECORD
5
1F
100
AcDbSymbolTableRecord
100
AcDbBlockTableRecord
2
*MODEL_SPACE
0
BLOCK_RECORD
5
1B
100
AcDbSymbolTableRecord
100
AcDbBlockTableRecord
2
*PAPER_SPACE
0
ENDTAB
0
ENDSEC
0
SECTION
2
BLOCKS
0
BLOCK
5
20
100
AcDbEntity
100
AcDbBlockBegin
2
*MODEL_SPACE
0
ENDBLK
5
21
100
AcDbEntity
100
AcDbBlockEnd
0
BLOCK
5
1C
100
AcDbEntity
100
AcDbBlockBegin
2
*PAPER_SPACE
0
ENDBLK
5
1D
100
AcDbEntity
100
AcDbBlockEnd
0
ENDSEC
0
SECTION
2
ENTITIES
0
LINE
5
100
100
AcDbEntity
8
0
100
AcDbLine
10
2.4249995309424399
20
3.0000000017225004
30
0
11
2.42499953098265
21
3.2999999994436902
31
0
0
LINE
5
101
100
AcDbEntity
8
0
100
AcDbLine
10
2.42499953098265
20
3.2999999994436902
30
0
11
2.5254980699220337
21
3.4000000038228837
31
0
0
LINE
5
102
100
AcDbEntity
8
0
100
AcDbLine
10
2.5254980699220337
20
3.4000000038228837
30
0
11
3.2745007710330682
21
3.400000003684001
31
0
0
LINE
5
103
100
AcDbEntity
8
0
100
AcDbLine
10
3.2745007710330682
20
3.400000003684001
30
0
11
3.2747507139020686
21
3.3997513012379703
31
0
0
SPLINE
5
104
100
AcDbEntity
8
0
100
AcDbSpline
70
4
71
2
72
6
73
3
74
0
42
0.000000001
43
0.0000000001
44
0.0000000001
40
4.9860052678135685e-05
40
4.9860052678135685e-05
40
4.9860052678135685e-05
40
0.014159815411929252
40
0.014159815411929252
40
0.014159815411929252
41
1.0004280219787542
41
1.0607772343376194
41
1
10
3.2747507139020686
20
3.3997513012379703
30
0
10
3.308139235903591
20
3.3665284801127173
30
0
10
3.3747506186392986
20
3.2999999993340068
30
0
0
LINE
5
105
100
AcDbEntity
8
0
100
AcDbLine
10
3.374750618639299
20
3.2999999993340068
30
0
11
3.3747506185549647
21
3.0000000016306991
31
0
0
SPLINE
5
106
100
AcDbEntity
8
0
100
AcDbSpline
70
4
71
2
72
6
73
3
74
0
42
0.000000001
43
0.0000000001
44
0.0000000001
40
0
40
0
40
0
40
0.014109953744621331
40
0.014109953744621331
40
0.014109953744621331
41
1
41
1.0607772243622748
41
1.0004280325667001
10
3.3747506185618987
20
3.0000000016376287
30
0
10
3.3081392436616208
20
2.9334715287508217
30
0
10
3.2747507226465582
20
2.9002487086295452
30
0
0
LINE
5
107
100
AcDbEntity
8
0
100
AcDbLine
10
3.2747507226465582
20
2.9002487086295452
30
0
11
3.2745007735572766
21
2.8999999999860906
31
0
0
LINE
5
108
100
AcDbEntity
8
0
100
AcDbLine
10
3.2745007735572766
20
2.8999999999860906
30
0
11
2.5254980669931721
21
2.9000000001249755
31
0
0
LINE
5
109
100
AcDbEntity
8
0
100
AcDbLine
10
2.5254980669931721
20
2.9000000001249755
30
0
11
2.4249995309424399
21
3.0000000017225004
31
0
0
LWPOLYLINE
5
110
100
AcDbEntity
8
0
100
AcDbPolyline
90
8
70
1
43
0.0
10
3.2745007761608469
20
9.4000000015609171
10
2.5254980658080401
20
9.4000000017125345
10
2.4249995316686803
20
9.5000000014502
10
2.4249995317086306
20
9.7999999991714795
10
2.5254980725006657
20
9.9000000054104564
10
3.2745007698983768
20
9.9000000052588373
10
3.3749995317086103
20
9.7999999990667295
10
3.3749995316686605
20
9.5000000013455708
0
LINE
5
111
100
AcDbEntity
8
0
100
AcDbLine
10
7.4249995309424399
20
3.0000000017225004
30
0
11
7.4249995309826513
21
3.2999999994436902
31
0
0
LINE
5
112
100
AcDbEntity
8
0
100
AcDbLine
10
7.4249995309826513
20
3.2999999994436902
30
0
11
7.5254980699220342
21
3.4000000038228837
31
0
0
LINE
5
113
100
AcDbEntity
8
0
100
AcDbLine
10
7.5254980699220342
20
3.4000000038228837
30
0
11
8.2745007710330682
21
3.400000003684001
31
0
0
LINE
5
114
100
AcDbEntity
8
0
100
AcDbLine
10
8.2745007710330682
20
3.400000003684001
30
0
11
8.2747507139020691
21
3.3997513012379703
31
0
0
SPLINE
5
115
100
AcDbEntity
8
0
100
AcDbSpline
70
4
71
2
72
6
73
3
74
0
42
0.000000001
43
0.0000000001
44
0.0000000001
40
4.9860052681379543e-05
40
4.9860052681379543e-05
40
4.9860052681379543e-05
40
0.014159815411929176
40
0.014159815411929176
40
0.014159815411929176
41
1.0004280219782826
41
1.0607772342666799
41
1
10
8.2747507139020691
20
3.3997513012379703
30
0
10
8.3081392359036208
20
3.3665284801126876
30
0
10
8.3747506186392986
20
3.2999999993340068
30
0
0
LINE
5
116
100
AcDbEntity
8
0
100
AcDbLine
10
8.3747506186392986
20
3.2999999993340072
30
0
11
8.3747506185549643
21
3.0000000016306991
31
0
0
SPLINE
5
117
100
AcDbEntity
8
0
100
AcDbSpline
70
4
71
2
72
6
73
3
74
0
42
0.000000001
43
0.0000000001
44
0.0000000001
40
0
40
0
40
0
40
0.014109953744621045
40
0.014109953744621045
40
0.014109953744621045
41
1
41
1.0607772243572156
41
1.0004280325666672
10
8.3747506185618974
20
3.0000000016376287
30
0
10
8.3081392436617723
20
2.9334715287509701
30
0
10
8.2747507226465604
20
2.9002487086295452
30
0
0
LINE
5
118
100
AcDbEntity
8
0
100
AcDbLine
10
8.2747507226465604
20
2.9002487086295452
30
0
11
8.2745007735572766
21
2.8999999999860906
31
0
0
LINE
5
119
100
AcDbEntity
8
0
100
AcDbLine
10
8.2745007735572766
20
2.8999999999860906
30
0
11
7.5254980669931726
21
2.9000000001249755
31
0
0
LINE
5
120
100
AcDbEntity
8
0
100
AcDbLine
10
7.5254980669931726
20
2.9000000001249755
30
0
11
7.4249995309424399
21
3.0000000017225004
31
0
0
LWPOLYLINE
5
121
100
AcDbEntity
8
0
100
AcDbPolyline
90
8
70
1
43
0.0
10
8.2745007761608473
20
9.4000000015609171
10
7.5254980658080406
20
9.4000000017125345
10
7.4249995316686812
20
9.5000000014502
10
7.4249995317086306
20
9.7999999991714795
10
7.5254980725006657
20
9.9000000054104564
10
8.274500769898367
20
9.9000000052588373
10
8.3749995317086103
20
9.7999999990667295
10
8.3749995316686601
20
9.5000000013455708
0
LINE
5
122
100
AcDbEntity
8
0
100
AcDbLine
10
12.424999530942403
20
3.0000000017225004
30
0
11
12.424999530982602
21
3.2999999994436902
31
0
0
LINE
5
123
100
AcDbEntity
8
0
100
AcDbLine
10
12.424999530982602
20
3.2999999994436902
30
0
11
12.525498069922046
21
3.4000000038228837
31
0
0
LINE
5
124
100
AcDbEntity
8
0
100
AcDbLine
10
12.525498069922046
20
3.4000000038228837
30
0
11
13.274500771033079
21
3.400000003684001
31
0
0
LINE
5
125
100
AcDbEntity
8
0
100
AcDbLine
10
13.274500771033079
20
3.400000003684001
30
0
11
13.274750713902119
21
3.3997513012379703
31
0
0
SPLINE
5
126
100
AcDbEntity
8
0
100
AcDbSpline
70
4
71
2
72
6
73
3
74
0
42
0.000000001
43
0.0000000001
44
0.0000000001
40
4.9860052681042187e-05
40
4.9860052681042187e-05
40
4.9860052681042187e-05
40
0.014159815411929136
40
0.014159815411929136
40
0.014159815411929136
41
1.0004280219796253
41
1.0607772344577553
41
1
10
13.274750713902119
20
3.3997513012379703
30
0
10
13.308139235903147
20
3.3665284801132107
30
0
10
13.374750618639268
20
3.2999999993340063
30
0
0
LINE
5
127
100
AcDbEntity
8
0
100
AcDbLine
10
13.374750618639268
20
3.2999999993340063
30
0
11
13.374750618554984
21
3.0000000016306991
31
0
0
SPLINE
5
128
100
AcDbEntity
8
0
100
AcDbSpline
70
4
71
2
72
6
73
3
74
0
42
0.000000001
43
0.0000000001
44
0.0000000001
40
0
40
0
40
0
40
0.014109953744619977
40
0.014109953744619977
40
0.014109953744619977
41
1
41
1.0607772243682603
41
1.0004280325667598
10
13.374750618561889
20
3.0000000016376283
30
0
10
13.308139243662806
20
2.9334715287519852
30
0
10
13.274750722646578
20
2.9002487086295452
30
0
0
LINE
5
129
100
AcDbEntity
8
0
100
AcDbLine
10
13.274750722646578
20
2.9002487086295452
30
0
11
13.274500773557318
21
2.8999999999860906
31
0
0
LINE
5
130
100
AcDbEntity
8
0
100
AcDbLine
10
13.274500773557318
20
2.8999999999860906
30
0
11
12.525498066993183
21
2.9000000001249755
31
0
0
LINE
5
131
100
AcDbEntity
8
0
100
AcDbLine
10
12.525498066993183
20
2.9000000001249755
30
0
11
12.424999530942403
21
3.0000000017225004
31
0
0
LWPOLYLINE
5
132
100
AcDbEntity
8
0
100
AcDbPolyline
90
8
70
1
43
0.0
10
13.274500776160798
20
9.4000000015609171
10
12.525498065808041
20
9.4000000017125345
10
12.424999531668702
20
9.5000000014502
10
12.4249995317086
20
9.7999999991714795
10
12.525498072500715
20
9.9000000054104564
10
13.274500769898347
20
9.9000000052588373
10
13.3749995317086
20
9.7999999990667295
10
13.374999531668701
20
9.5000000013455708
0
LINE
5
133
100
AcDbEntity
8
0
100
AcDbLine
10
17.424999530942401
20
3.0000000017225004
30
0
11
17.4249995309826
21
3.2999999994436902
31
0
0
LINE
5
134
100
AcDbEntity
8
0
100
AcDbLine
10
17.4249995309826
20
3.2999999994436902
30
0
11
17.525498069922044
21
3.4000000038228837
31
0
0
LINE
5
135
100
AcDbEntity
8
0
100
AcDbLine
10
17.525498069922044
20
3.4000000038228837
30
0
11
18.274500771033079
21
3.400000003684001
31
0
0
LINE
5
136
100
AcDbEntity
8
0
100
AcDbLine
10
18.274500771033079
20
3.400000003684001
30
0
11
18.274750713902119
21
3.3997513012379703
31
0
0
SPLINE
5
137
100
AcDbEntity
8
0
100
AcDbSpline
70
4
71
2
72
6
73
3
74
0
42
0.000000001
43
0.0000000001
44
0.0000000001
40
4.9860052681905747e-05
40
4.9860052681905747e-05
40
4.9860052681905747e-05
40
0.014159815411929136
40
0.014159815411929136
40
0.014159815411929136
41
1.0004280219795108
41
1.0607772344404058
41
1
10
18.274750713902119
20
3.3997513012379703
30
0
10
18.308139235903155
20
3.3665284801132045
30
0
10
18.374750618639268
20
3.2999999993340068
30
0
0
LINE
5
138
100
AcDbEntity
8
0
100
AcDbLine
10
18.374750618639268
20
3.2999999993340068
30
0
11
18.374750618554984
21
3.0000000016306991
31
0
0
SPLINE
5
139
100
AcDbEntity
8
0
100
AcDbSpline
70
4
71
2
72
6
73
3
74
0
42
0.000000001
43
0.0000000001
44
0.0000000001
40
0
40
0
40
0
40
0.014109953744624433
40
0.014109953744624433
40
0.014109953744624433
41
1
41
1.060777224459464
41
1.0004280325673636
10
18.374750618561887
20
3.0000000016376283
30
0
10
18.308139243662914
20
2.9334715287520958
30
0
10
18.274750722646576
20
2.9002487086295452
30
0
0
LINE
5
140
100
AcDbEntity
8
0
100
AcDbLine
10
18.274750722646573
20
2.9002487086295448
30
0
11
18.274500773557318
21
2.8999999999860906
31
0
0
LINE
5
141
100
AcDbEntity
8
0
100
AcDbLine
10
18.274500773557318
20
2.8999999999860906
30
0
11
17.52549806699318
21
2.9000000001249755
31
0
0
LINE
5
142
100
AcDbEntity
8
0
100
AcDbLine
10
17.52549806699318
20
2.9000000001249755
30
0
11
17.424999530942401
21
3.0000000017225004
31
0
0
LWPOLYLINE
5
143
100
AcDbEntity
8
0
100
AcDbPolyline
90
8
70
1
43
0.0
10
18.274500776160899
20
9.4000000015609171
10
17.525498065808041
20
9.4000000017125345
10
17.4249995316687
20
9.5000000014502
10
17.4249995317086
20
9.7999999991714795
10
17.525498072500717
20
9.9000000054104564
10
18.274500769898346
20
9.9000000052588373
10
18.3749995317086
20
9.7999999990667295
10
18.374999531668699
20
9.5000000013455708
0
LINE
5
144
100
AcDbEntity
8
0
100
AcDbLine
10
22.424999530942401
20
3.0000000017225004
30
0
11
22.4249995309826
21
3.2999999994436902
31
0
0
LINE
5
145
100
AcDbEntity
8
0
100
AcDbLine
10
22.4249995309826
20
3.2999999994436902
30
0
11
22.525498069922044
21
3.4000000038228837
31
0
0
LINE
5
146
100
AcDbEntity
8
0
100
AcDbLine
10
22.525498069922044
20
3.4000000038228837
30
0
11
23.274500771033079
21
3.400000003684001
31
0
0
LINE
5
147
100
AcDbEntity
8
0
100
AcDbLine
10
23.274500771033079
20
3.400000003684001
30
0
11
23.274750713902122
21
3.3997513012379703
31
0
0
SPLINE
5
148
100
AcDbEntity
8
0
100
AcDbSpline
70
4
71
2
72
6
73
3
74
0
42
0.000000001
43
0.0000000001
44
0.0000000001
40
4.9860052696909431e-05
40
4.9860052696909431e-05
40
4.9860052696909431e-05
40
0.01415981541192894
40
0.01415981541192894
40
0.01415981541192894
41
1.0004280219779538
41
1.0607772342010673
41
1
10
23.274750713902122
20
3.3997513012379703
30
0
10
23.308139235900605
20
3.3665284801157487
30
0
10
23.374750618639268
20
3.2999999993340063
30
0
0
LINE
5
149
100
AcDbEntity
8
0
100
AcDbLine
10
23.374750618639265
20
3.2999999993340055
30
0
11
23.374750618554984
21
3.0000000016306991
31
0
0
SPLINE
5
150
100
AcDbEntity
8
0
100
AcDbSpline
70
4
71
2
72
6
73
3
74
0
42
0.000000001
43
0.0000000001
44
0.0000000001
40
0
40
0
40
0
40
0.014109953744628013
40
0.014109953744628013
40
0.014109953744628013
41
1
41
1.060777224564462
41
1.000428032568071
10
23.374750618561887
20
3.0000000016376283
30
0
10
23.308139243662289
20
2.9334715287514683
30
0
10
23.27475072264658
20
2.9002487086295452
30
0
0
LINE
5
151
100
AcDbEntity
8
0
100
AcDbLine
10
23.27475072264658
20
2.9002487086295448
30
0
11
23.274500773557318
21
2.8999999999860906
31
0
0
LINE
5
152
100
AcDbEntity
8
0
100
AcDbLine
10
23.274500773557318
20
2.8999999999860906
30
0
11
22.52549806699318
21
2.9000000001249755
31
0
0
LINE
5
153
100
AcDbEntity
8
0
100
AcDbLine
10
22.52549806699318
20
2.9000000001249755
30
0
11
22.424999530942401
21
3.0000000017225004
31
0
0
LWPOLYLINE
5
154
100
AcDbEntity
8
0
100
AcDbPolyline
90
8
70
1
43
0.0
10
23.274500776160899
20
9.4000000015609171
10
22.525498065808041
20
9.4000000017125345
10
22.4249995316687
20
9.5000000014502
10
22.4249995317086
20
9.7999999991714795
10
22.525498072500717
20
9.9000000054104564
10
23.274500769898346
20
9.9000000052588373
10
23.374999531708603
20
9.7999999990667295
10
23.374999531668699
20
9.5000000013455708
0
LINE
5
155
100
AcDbEntity
8
0
100
AcDbLine
10
27.424999530942404
20
3.0000000017225004
30
0
11
27.424999530982603
21
3.2999999994436902
31
0
0
LINE
5
156
100
AcDbEntity
8
0
100
AcDbLine
10
27.424999530982603
20
3.2999999994436902
30
0
11
27.525498069922048
21
3.4000000038228837
31
0
0
LINE
5
157
100
AcDbEntity
8
0
100
AcDbLine
10
27.525498069922048
20
3.4000000038228837
30
0
11
28.274500771033079
21
3.400000003684001
31
0
0
LINE
5
158
100
AcDbEntity
8
0
100
AcDbLine
10
28.274500771033079
20
3.400000003684001
30
0
11
28.274750713902122
21
3.3997513012379703
31
0
0
SPLINE
5
159
100
AcDbEntity
8
0
100
AcDbSpline
70
4
71
2
72
6
73
3
74
0
42
0.000000001
43
0.0000000001
44
0.0000000001
40
4.9860052694513785e-05
40
4.9860052694513785e-05
40
4.9860052694513785e-05
40
0.0141598154119289
40
0.0141598154119289
40
0.0141598154119289
41
1.0004280219782615
41
1.0607772342476729
41
1
10
28.274750713902122
20
3.3997513012379703
30
0
10
28.308139235900732
20
3.3665284801156217
30
0
10
28.374750618639268
20
3.2999999993340068
30
0
0
LINE
5
160
100
AcDbEntity
8
0
100
AcDbLine
10
28.374750618639272
20
3.2999999993340072
30
0
11
28.374750618554984
21
3.0000000016306991
31
0
0
SPLINE
5
161
100
AcDbEntity
8
0
100
AcDbSpline
70
4
71
2
72
6
73
3
74
0
42
0.000000001
43
0.0000000001
44
0.0000000001
40
0
40
0
40
0
40
0.014109953744624766
40
0.014109953744624766
40
0.014109953744624766
41
1
41
1.060777224500296
41
1.0004280325676471
10
28.374750618561887
20
3.0000000016376283
30
0
10
28.308139243662154
20
2.9334715287513506
30
0
10
28.27475072264658
20
2.9002487086295452
30
0
0
LINE
5
162
100
AcDbEntity
8
0
100
AcDbLine
10
28.274750722646584
20
2.9002487086295456
30
0
11
28.274500773557318
21
2.8999999999860906
31
0
0
LINE
5
163
100
AcDbEntity
8
0
100
AcDbLine
10
28.274500773557318
20
2.8999999999860906
30
0
11
27.52549806699318
21
2.9000000001249755
31
0
0
LINE
5
164
100
AcDbEntity
8
0
100
AcDbLine
10
27.52549806699318
20
2.9000000001249755
30
0
11
27.424999530942404
21
3.0000000017225004
31
0
0
LWPOLYLINE
5
165
100
AcDbEntity
8
0
100
AcDbPolyline
90
8
70
1
43
0.0
10
28.274500776160899
20
9.4000000015609171
10
27.525498065808041
20
9.4000000017125345
10
27.424999531668703
20
9.5000000014502
10
27.4249995317086
20
9.7999999991714795
10
27.525498072500717
20
9.9000000054104564
10
28.274500769898346
20
9.9000000052588373
10
28.374999531708603
20
9.7999999990667295
10
28.374999531668699
20
9.5000000013455708
0
LWPOLYLINE
5
166
100
AcDbEntity
8
0
100
AcDbPolyline
90
4
70
1
43
0.0
10
0
20
18.299999999999997
10
0
20
0
10
30.800000000000001
20
0
10
30.800000000000001
20
18.300000000000001
0
ENDSEC
0
SECTION
2
OBJECTS
0
DICTIONARY
5
C
100
AcDbDictionary
3
ACAD_GROUP
350
D
3
ACAD_MLINESTYLE
350
17
0
DICTIONARY
5
D
100
AcDbDictionary
0
DICTIONARY
5
1A
330
C
100
AcDbDictionary
0
DICTIONARY
5
17
100
AcDbDictionary
0
ENDSEC
0
EOF
