0
SECTION
2
HEADER
9
$INSUNITS
70
4
9
$ACADVER
1
AC1014
9
$HANDSEED
5
FFFF
0
ENDSEC
0
SECTION
2
TABLES
0
TABLE
2
VPORT
5
8
100
AcDbSymbolTable
0
ENDTAB
0
TABLE
2
LTYPE
5
5
100
AcDbSymbolTable
0
LTYPE
5
14
100
AcDbSymbolTableRecord
100
AcDbLinetypeTableRecord
2
BYBLOCK
70
0
0
LTYPE
5
15
100
AcDbSymbolTableRecord
100
AcDbLinetypeTableRecord
2
BYLAYER
70
0
0
LTYPE
5
16
100
AcDbSymbolTableRecord
100
AcDbLinetypeTableRecord
2
DASHED
70
0
3
Dashed __ __ __ __ __ __ __ __ __ __ __ __ __ _
72
65
73
2
40
0.75
49
0.5
74
0
49
-0.25
74
0
0
ENDTAB
0
TABLE
2
LAYER
5
2
100
AcDbSymbolTable
70
3
0
LAYER
5
50
100
AcDbSymbolTableRecord
100
AcDbLayerTableRecord
2
1
70
0
62
7
6
DASHED
0
LAYER
5
51
100
AcDbSymbolTableRecord
100
AcDbLayerTableRecord
2
0
70
0
62
7
6
CONTINUOUS
0
ENDTAB
0
TABLE
2
STYLE
5
3
100
AcDbSymbolTable
70
1
0
STYLE
5
11
100
AcDbSymbolTableRecord
100
AcDbTextStyleTableRecord
2
STANDARD
70
0
0
ENDTAB
0
TABLE
2
VIEW
5
6
100
AcDbSymbolTable
70
0
0
ENDTAB
0
TABLE
2
UCS
5
7
100
AcDbSymbolTable
70
0
0
ENDTAB
0
TABLE
2
APPID
5
9
100
AcDbSymbolTable
70
2
0
APPID
5
12
100
AcDbSymbolTableRecord
100
AcDbRegAppTableRecord
2
ACAD
70
0
0
ENDTAB
0
TABLE
2
DIMSTYLE
5
A
100
AcDbSymbolTable
70
1
0
ENDTAB
0
TABLE
2
BLOCK_RECORD
5
1
100
AcDbSymbolTable
70
1
0
BLOCK_RECORD
5
1F
100
AcDbSymbolTableRecord
100
AcDbBlockTableRecord
2
*MODEL_SPACE
0
BLOCK_RECORD
5
1B
100
AcDbSymbolTableRecord
100
AcDbBlockTableRecord
2
*PAPER_SPACE
0
ENDTAB
0
ENDSEC
0
SECTION
2
BLOCKS
0
BLOCK
5
20
100
AcDbEntity
100
AcDbBlockBegin
2
*MODEL_SPACE
0
ENDBLK
5
21
100
AcDbEntity
100
AcDbBlockEnd
0
BLOCK
5
1C
100
AcDbEntity
100
AcDbBlockBegin
2
*PAPER_SPACE
0
ENDBLK
5
1D
100
AcDbEntity
100
AcDbBlockEnd
0
ENDSEC
0
SECTION
2
ENTITIES
0
POINT
5
100
100
AcDbEntity
8
0
100
AcDbPoint
10
13.274999525536179
20
9.9000000052590167
30
0.10000000000000002
0
POINT
5
101
100
AcDbEntity
8
0
100
AcDbPoint
10
13.274999531829316
20
9.4000000015610983
30
0.10000000000000002
0
LINE
5
102
100
AcDbEntity
8
0
100
AcDbLine
10
2.52499953137719
20
9.4000000017129164
30
0.10000000000000002
11
2.4249995316511965
21
9.5000000014632366
31
0.10000000000000002
0
LINE
5
103
100
AcDbEntity
8
0
100
AcDbLine
10
2.4249995316511965
20
9.5000000014632366
30
0.10000000000000002
11
2.424999531691157
21
9.7999999991843723
31
0.10000000000000002
0
LINE
5
104
100
AcDbEntity
8
0
100
AcDbLine
10
2.424999531691157
20
9.7999999991843723
30
0.10000000000000002
11
2.5249995379419437
21
9.9000000054108295
31
0.10000000000000002
0
LINE
5
105
100
AcDbEntity
8
0
100
AcDbLine
10
2.5249995379419437
20
9.9000000054108295
30
0.10000000000000002
11
3.2749995255362001
21
9.9000000052590167
31
0.10000000000000002
0
LINE
5
106
100
AcDbEntity
8
0
100
AcDbLine
10
3.2749995255362001
20
9.9000000052590167
30
0.10000000000000002
11
3.374999531691127
21
9.7999999990797768
31
0.10000000000000002
0
LINE
5
107
100
AcDbEntity
8
0
100
AcDbLine
10
3.374999531691127
20
9.7999999990797768
30
0.10000000000000002
11
3.3749995316511665
21
9.5000000013586021
31
0.10000000000000002
0
LINE
5
108
100
AcDbEntity
8
0
100
AcDbLine
10
3.3749995316511665
20
9.5000000013586021
30
0.10000000000000002
11
3.2749995318293443
21
9.4000000015610983
31
0.10000000000000002
0
LINE
5
109
100
AcDbEntity
8
0
100
AcDbLine
10
3.2749995318293443
20
9.4000000015610983
30
0.10000000000000002
11
2.52499953137719
21
9.4000000017129164
31
0.10000000000000002
0
LINE
5
110
100
AcDbEntity
8
0
100
AcDbLine
10
3.3749995309250669
20
3.0000000016307711
30
0.10000000000000002
11
3.2749995292435146
21
2.8999999999735424
31
0.10000000000000002
0
LINE
5
111
100
AcDbEntity
8
0
100
AcDbLine
10
3.2749995292435146
20
2.8999999999735424
30
0.10000000000000002
11
2.5249995325107699
21
2.9000000001253663
31
0.10000000000000002
0
LINE
5
112
100
AcDbEntity
8
0
100
AcDbLine
10
2.5249995325107699
20
2.9000000001253663
30
0.10000000000000002
11
2.4249995309250867
21
3.0000000017353767
31
0.10000000000000002
0
LINE
5
113
100
AcDbEntity
8
0
100
AcDbLine
10
2.4249995309250867
20
3.0000000017353767
30
0.10000000000000002
11
2.424999530965037
21
3.299999999456571
31
0.10000000000000002
0
LINE
5
114
100
AcDbEntity
8
0
100
AcDbLine
10
2.424999530965037
20
3.299999999456571
30
0.10000000000000002
11
2.5249995353560544
21
3.4000000038232683
31
0.10000000000000002
0
LINE
5
115
100
AcDbEntity
8
0
100
AcDbLine
10
2.5249995353560544
20
3.4000000038232683
30
0.10000000000000002
11
3.2749995266698626
21
3.4000000036714484
31
0.10000000000000002
0
LINE
5
116
100
AcDbEntity
8
0
100
AcDbLine
10
3.2749995266698626
20
3.4000000036714484
30
0.10000000000000002
11
3.3749995309650211
21
3.2999999993519689
31
0.10000000000000002
0
LINE
5
117
100
AcDbEntity
8
0
100
AcDbLine
10
3.3749995309650211
20
3.2999999993519689
30
0.10000000000000002
11
3.3749995309250669
21
3.0000000016307711
31
0.10000000000000002
0
LINE
5
118
100
AcDbEntity
8
0
100
AcDbLine
10
7.5249995313771905
20
9.4000000017129164
30
0.10000000000000002
11
7.4249995316511974
21
9.5000000014632366
31
0.10000000000000002
0
LINE
5
119
100
AcDbEntity
8
0
100
AcDbLine
10
7.4249995316511974
20
9.5000000014632366
30
0.10000000000000002
11
7.4249995316911566
21
9.7999999991843723
31
0.10000000000000002
0
LINE
5
120
100
AcDbEntity
8
0
100
AcDbLine
10
7.4249995316911566
20
9.7999999991843723
30
0.10000000000000002
11
7.5249995379419445
21
9.9000000054108295
31
0.10000000000000002
0
LINE
5
121
100
AcDbEntity
8
0
100
AcDbLine
10
7.5249995379419445
20
9.9000000054108295
30
0.10000000000000002
11
8.2749995255362006
21
9.9000000052590167
31
0.10000000000000002
0
LINE
5
122
100
AcDbEntity
8
0
100
AcDbLine
10
8.2749995255362006
20
9.9000000052590167
30
0.10000000000000002
11
8.3749995316911292
21
9.7999999990797768
31
0.10000000000000002
0
LINE
5
123
100
AcDbEntity
8
0
100
AcDbLine
10
8.3749995316911292
20
9.7999999990797768
30
0.10000000000000002
11
8.3749995316511665
21
9.5000000013586021
31
0.10000000000000002
0
LINE
5
124
100
AcDbEntity
8
0
100
AcDbLine
10
8.3749995316511665
20
9.5000000013586021
30
0.10000000000000002
11
8.2749995318293443
21
9.4000000015610983
31
0.10000000000000002
0
LINE
5
125
100
AcDbEntity
8
0
100
AcDbLine
10
8.2749995318293443
20
9.4000000015610983
30
0.10000000000000002
11
7.5249995313771905
21
9.4000000017129164
31
0.10000000000000002
0
LINE
5
126
100
AcDbEntity
8
0
100
AcDbLine
10
8.3749995309250664
20
3.0000000016307711
30
0.10000000000000002
11
8.2749995292435266
21
2.8999999999735424
31
0.10000000000000002
0
LINE
5
127
100
AcDbEntity
8
0
100
AcDbLine
10
8.2749995292435266
20
2.8999999999735424
30
0.10000000000000002
11
7.5249995325107699
21
2.9000000001253663
31
0.10000000000000002
0
LINE
5
128
100
AcDbEntity
8
0
100
AcDbLine
10
7.5249995325107699
20
2.9000000001253663
30
0.10000000000000002
11
7.4249995309250858
21
3.0000000017353767
31
0.10000000000000002
0
LINE
5
129
100
AcDbEntity
8
0
100
AcDbLine
10
7.4249995309250858
20
3.0000000017353767
30
0.10000000000000002
11
7.424999530965037
21
3.299999999456571
31
0.10000000000000002
0
LINE
5
130
100
AcDbEntity
8
0
100
AcDbLine
10
7.424999530965037
20
3.299999999456571
30
0.10000000000000002
11
7.5249995353560548
21
3.4000000038232683
31
0.10000000000000002
0
LINE
5
131
100
AcDbEntity
8
0
100
AcDbLine
10
7.5249995353560548
20
3.4000000038232683
30
0.10000000000000002
11
8.2749995266698644
21
3.4000000036714484
31
0.10000000000000002
0
LINE
5
132
100
AcDbEntity
8
0
100
AcDbLine
10
8.2749995266698644
20
3.4000000036714484
30
0.10000000000000002
11
8.374999530965022
21
3.2999999993519689
31
0.10000000000000002
0
LINE
5
133
100
AcDbEntity
8
0
100
AcDbLine
10
8.374999530965022
20
3.2999999993519689
30
0.10000000000000002
11
8.3749995309250664
21
3.0000000016307711
31
0.10000000000000002
0
LINE
5
134
100
AcDbEntity
8
0
100
AcDbLine
10
12.524999531377182
20
9.4000000017129164
30
0.10000000000000002
11
12.424999531651217
21
9.5000000014632366
31
0.10000000000000002
0
LINE
5
135
100
AcDbEntity
8
0
100
AcDbLine
10
12.424999531651217
20
9.5000000014632366
30
0.10000000000000002
11
12.424999531691189
21
9.7999999991843723
31
0.10000000000000002
0
LINE
5
136
100
AcDbEntity
8
0
100
AcDbLine
10
12.424999531691189
20
9.7999999991843723
30
0.10000000000000002
11
12.524999537941916
21
9.9000000054108295
31
0.10000000000000002
0
LINE
5
137
100
AcDbEntity
8
0
100
AcDbLine
10
12.524999537941916
20
9.9000000054108295
30
0.10000000000000002
11
13.274999525536179
21
9.9000000052590167
31
0.10000000000000002
0
LINE
5
138
100
AcDbEntity
8
0
100
AcDbLine
10
13.274999525536179
20
9.9000000052590167
30
0.10000000000000002
11
13.374999531691117
21
9.7999999990797768
31
0.10000000000000002
0
LINE
5
139
100
AcDbEntity
8
0
100
AcDbLine
10
13.374999531691117
20
9.7999999990797768
30
0.10000000000000002
11
13.374999531651186
21
9.5000000013586021
31
0.10000000000000002
0
LINE
5
140
100
AcDbEntity
8
0
100
AcDbLine
10
13.374999531651186
20
9.5000000013586021
30
0.10000000000000002
11
13.274999531829316
21
9.4000000015610983
31
0.10000000000000002
0
LINE
5
141
100
AcDbEntity
8
0
100
AcDbLine
10
13.274999531829316
20
9.4000000015610983
30
0.10000000000000002
11
12.524999531377182
21
9.4000000017129164
31
0.10000000000000002
0
LINE
5
142
100
AcDbEntity
8
0
100
AcDbLine
10
13.374999530925088
20
3.0000000016307711
30
0.10000000000000002
11
13.274999529243505
21
2.8999999999735424
31
0.10000000000000002
0
LINE
5
143
100
AcDbEntity
8
0
100
AcDbLine
10
13.274999529243505
20
2.8999999999735424
30
0.10000000000000002
11
12.524999532510781
21
2.9000000001253663
31
0.10000000000000002
0
LINE
5
144
100
AcDbEntity
8
0
100
AcDbLine
10
12.524999532510781
20
2.9000000001253663
30
0.10000000000000002
11
12.424999530925117
21
3.0000000017353767
31
0.10000000000000002
0
LINE
5
145
100
AcDbEntity
8
0
100
AcDbLine
10
12.424999530925117
20
3.0000000017353767
30
0.10000000000000002
11
12.424999530965088
21
3.299999999456571
31
0.10000000000000002
0
LINE
5
146
100
AcDbEntity
8
0
100
AcDbLine
10
12.424999530965088
20
3.299999999456571
30
0.10000000000000002
11
12.524999535356017
21
3.4000000038232683
31
0.10000000000000002
0
LINE
5
147
100
AcDbEntity
8
0
100
AcDbLine
10
12.524999535356017
20
3.4000000038232683
30
0.10000000000000002
11
13.274999526669893
21
3.4000000036714484
31
0.10000000000000002
0
LINE
5
148
100
AcDbEntity
8
0
100
AcDbLine
10
13.274999526669893
20
3.4000000036714484
30
0.10000000000000002
11
13.374999530965061
21
3.2999999993519689
31
0.10000000000000002
0
LINE
5
149
100
AcDbEntity
8
0
100
AcDbLine
10
13.374999530965061
20
3.2999999993519689
30
0.10000000000000002
11
13.374999530925088
21
3.0000000016307711
31
0.10000000000000002
0
LINE
5
150
100
AcDbEntity
8
0
100
AcDbLine
10
17.52499953137718
20
9.4000000017129164
30
0.10000000000000002
11
17.424999531651217
21
9.5000000014632366
31
0.10000000000000002
0
LINE
5
151
100
AcDbEntity
8
0
100
AcDbLine
10
17.424999531651217
20
9.5000000014632366
30
0.10000000000000002
11
17.424999531691189
21
9.7999999991843723
31
0.10000000000000002
0
LINE
5
152
100
AcDbEntity
8
0
100
AcDbLine
10
17.424999531691189
20
9.7999999991843723
30
0.10000000000000002
11
17.524999537941916
21
9.9000000054108295
31
0.10000000000000002
0
LINE
5
153
100
AcDbEntity
8
0
100
AcDbLine
10
17.524999537941916
20
9.9000000054108295
30
0.10000000000000002
11
18.274999525536181
21
9.9000000052590167
31
0.10000000000000002
0
LINE
5
154
100
AcDbEntity
8
0
100
AcDbLine
10
18.274999525536181
20
9.9000000052590167
30
0.10000000000000002
11
18.374999531691117
21
9.7999999990797768
31
0.10000000000000002
0
LINE
5
155
100
AcDbEntity
8
0
100
AcDbLine
10
18.374999531691117
20
9.7999999990797768
30
0.10000000000000002
11
18.374999531651184
21
9.5000000013586021
31
0.10000000000000002
0
LINE
5
156
100
AcDbEntity
8
0
100
AcDbLine
10
18.374999531651184
20
9.5000000013586021
30
0.10000000000000002
11
18.274999531829316
21
9.4000000015610983
31
0.10000000000000002
0
LINE
5
157
100
AcDbEntity
8
0
100
AcDbLine
10
18.274999531829316
20
9.4000000015610983
30
0.10000000000000002
11
17.52499953137718
21
9.4000000017129164
31
0.10000000000000002
0
LINE
5
158
100
AcDbEntity
8
0
100
AcDbLine
10
18.374999530925088
20
3.0000000016307711
30
0.10000000000000002
11
18.274999529243505
21
2.8999999999735424
31
0.10000000000000002
0
LINE
5
159
100
AcDbEntity
8
0
100
AcDbLine
10
18.274999529243505
20
2.8999999999735424
30
0.10000000000000002
11
17.52499953251078
21
2.9000000001253663
31
0.10000000000000002
0
LINE
5
160
100
AcDbEntity
8
0
100
AcDbLine
10
17.52499953251078
20
2.9000000001253663
30
0.10000000000000002
11
17.424999530925117
21
3.0000000017353767
31
0.10000000000000002
0
LINE
5
161
100
AcDbEntity
8
0
100
AcDbLine
10
17.424999530925117
20
3.0000000017353767
30
0.10000000000000002
11
17.424999530965088
21
3.299999999456571
31
0.10000000000000002
0
LINE
5
162
100
AcDbEntity
8
0
100
AcDbLine
10
17.424999530965088
20
3.299999999456571
30
0.10000000000000002
11
17.524999535356017
21
3.4000000038232683
31
0.10000000000000002
0
LINE
5
163
100
AcDbEntity
8
0
100
AcDbLine
10
17.524999535356017
20
3.4000000038232683
30
0.10000000000000002
11
18.274999526669895
21
3.4000000036714484
31
0.10000000000000002
0
LINE
5
164
100
AcDbEntity
8
0
100
AcDbLine
10
18.274999526669895
20
3.4000000036714484
30
0.10000000000000002
11
18.374999530965063
21
3.2999999993519689
31
0.10000000000000002
0
LINE
5
165
100
AcDbEntity
8
0
100
AcDbLine
10
18.374999530965063
20
3.2999999993519689
30
0.10000000000000002
11
18.374999530925088
21
3.0000000016307711
31
0.10000000000000002
0
LINE
5
166
100
AcDbEntity
8
0
100
AcDbLine
10
27.52499953137718
20
9.4000000017129164
30
0.10000000000000002
11
27.424999531651221
21
9.5000000014632366
31
0.10000000000000002
0
LINE
5
167
100
AcDbEntity
8
0
100
AcDbLine
10
27.424999531651221
20
9.5000000014632366
30
0.10000000000000002
11
27.424999531691189
21
9.7999999991843723
31
0.10000000000000002
0
LINE
5
168
100
AcDbEntity
8
0
100
AcDbLine
10
27.424999531691189
20
9.7999999991843723
30
0.10000000000000002
11
27.524999537941916
21
9.9000000054108295
31
0.10000000000000002
0
LINE
5
169
100
AcDbEntity
8
0
100
AcDbLine
10
27.524999537941916
20
9.9000000054108295
30
0.10000000000000002
11
28.274999525536181
21
9.9000000052590167
31
0.10000000000000002
0
LINE
5
170
100
AcDbEntity
8
0
100
AcDbLine
10
28.274999525536181
20
9.9000000052590167
30
0.10000000000000002
11
28.374999531691117
21
9.7999999990797768
31
0.10000000000000002
0
LINE
5
171
100
AcDbEntity
8
0
100
AcDbLine
10
28.374999531691117
20
9.7999999990797768
30
0.10000000000000002
11
28.374999531651184
21
9.5000000013586021
31
0.10000000000000002
0
LINE
5
172
100
AcDbEntity
8
0
100
AcDbLine
10
28.374999531651184
20
9.5000000013586021
30
0.10000000000000002
11
28.274999531829316
21
9.4000000015610983
31
0.10000000000000002
0
LINE
5
173
100
AcDbEntity
8
0
100
AcDbLine
10
28.274999531829316
20
9.4000000015610983
30
0.10000000000000002
11
27.52499953137718
21
9.4000000017129164
31
0.10000000000000002
0
LINE
5
174
100
AcDbEntity
8
0
100
AcDbLine
10
28.374999530925088
20
3.0000000016307711
30
0.10000000000000002
11
28.274999529243505
21
2.8999999999735424
31
0.10000000000000002
0
LINE
5
175
100
AcDbEntity
8
0
100
AcDbLine
10
28.274999529243505
20
2.8999999999735424
30
0.10000000000000002
11
27.52499953251078
21
2.9000000001253663
31
0.10000000000000002
0
LINE
5
176
100
AcDbEntity
8
0
100
AcDbLine
10
27.52499953251078
20
2.9000000001253663
30
0.10000000000000002
11
27.424999530925117
21
3.0000000017353767
31
0.10000000000000002
0
LINE
5
177
100
AcDbEntity
8
0
100
AcDbLine
10
27.424999530925117
20
3.0000000017353767
30
0.10000000000000002
11
27.424999530965088
21
3.299999999456571
31
0.10000000000000002
0
LINE
5
178
100
AcDbEntity
8
0
100
AcDbLine
10
27.424999530965088
20
3.299999999456571
30
0.10000000000000002
11
27.524999535356013
21
3.4000000038232683
31
0.10000000000000002
0
LINE
5
179
100
AcDbEntity
8
0
100
AcDbLine
10
27.524999535356013
20
3.4000000038232683
30
0.10000000000000002
11
28.274999526669895
21
3.4000000036714484
31
0.10000000000000002
0
LINE
5
180
100
AcDbEntity
8
0
100
AcDbLine
10
28.274999526669895
20
3.4000000036714484
30
0.10000000000000002
11
28.374999530965063
21
3.2999999993519689
31
0.10000000000000002
0
LINE
5
181
100
AcDbEntity
8
0
100
AcDbLine
10
28.374999530965063
20
3.2999999993519689
30
0.10000000000000002
11
28.374999530925088
21
3.0000000016307711
31
0.10000000000000002
0
LINE
5
182
100
AcDbEntity
8
0
100
AcDbLine
10
22.52499953137718
20
9.4000000017129164
30
0.10000000000000002
11
22.424999531651217
21
9.5000000014632366
31
0.10000000000000002
0
LINE
5
183
100
AcDbEntity
8
0
100
AcDbLine
10
22.424999531651217
20
9.5000000014632366
30
0.10000000000000002
11
22.424999531691189
21
9.7999999991843723
31
0.10000000000000002
0
LINE
5
184
100
AcDbEntity
8
0
100
AcDbLine
10
22.424999531691189
20
9.7999999991843723
30
0.10000000000000002
11
22.524999537941916
21
9.9000000054108295
31
0.10000000000000002
0
LINE
5
185
100
AcDbEntity
8
0
100
AcDbLine
10
22.524999537941916
20
9.9000000054108295
30
0.10000000000000002
11
23.274999525536181
21
9.9000000052590167
31
0.10000000000000002
0
LINE
5
186
100
AcDbEntity
8
0
100
AcDbLine
10
23.274999525536181
20
9.9000000052590167
30
0.10000000000000002
11
23.374999531691117
21
9.7999999990797768
31
0.10000000000000002
0
LINE
5
187
100
AcDbEntity
8
0
100
AcDbLine
10
23.374999531691117
20
9.7999999990797768
30
0.10000000000000002
11
23.374999531651184
21
9.5000000013586021
31
0.10000000000000002
0
LINE
5
188
100
AcDbEntity
8
0
100
AcDbLine
10
23.374999531651184
20
9.5000000013586021
30
0.10000000000000002
11
23.274999531829312
21
9.4000000015610983
31
0.10000000000000002
0
LINE
5
189
100
AcDbEntity
8
0
100
AcDbLine
10
23.274999531829312
20
9.4000000015610983
30
0.10000000000000002
11
22.52499953137718
21
9.4000000017129164
31
0.10000000000000002
0
LINE
5
190
100
AcDbEntity
8
0
100
AcDbLine
10
23.374999530925088
20
3.0000000016307711
30
0.10000000000000002
11
23.274999529243505
21
2.8999999999735424
31
0.10000000000000002
0
LINE
5
191
100
AcDbEntity
8
0
100
AcDbLine
10
23.274999529243505
20
2.8999999999735424
30
0.10000000000000002
11
22.52499953251078
21
2.9000000001253663
31
0.10000000000000002
0
LINE
5
192
100
AcDbEntity
8
0
100
AcDbLine
10
22.52499953251078
20
2.9000000001253663
30
0.10000000000000002
11
22.424999530925117
21
3.0000000017353767
31
0.10000000000000002
0
LINE
5
193
100
AcDbEntity
8
0
100
AcDbLine
10
22.424999530925117
20
3.0000000017353767
30
0.10000000000000002
11
22.424999530965088
21
3.299999999456571
31
0.10000000000000002
0
LINE
5
194
100
AcDbEntity
8
0
100
AcDbLine
10
22.424999530965088
20
3.299999999456571
30
0.10000000000000002
11
22.524999535356013
21
3.4000000038232683
31
0.10000000000000002
0
LINE
5
195
100
AcDbEntity
8
0
100
AcDbLine
10
22.524999535356013
20
3.4000000038232683
30
0.10000000000000002
11
23.274999526669895
21
3.4000000036714484
31
0.10000000000000002
0
LINE
5
196
100
AcDbEntity
8
0
100
AcDbLine
10
23.274999526669895
20
3.4000000036714484
30
0.10000000000000002
11
23.374999530965063
21
3.2999999993519689
31
0.10000000000000002
0
LINE
5
197
100
AcDbEntity
8
0
100
AcDbLine
10
23.374999530965063
20
3.2999999993519689
30
0.10000000000000002
11
23.374999530925088
21
3.0000000016307711
31
0.10000000000000002
0
LINE
5
198
100
AcDbEntity
8
0
100
AcDbLine
10
0.10841187536242636
20
0.87216114715642223
30
0.10000000000000002
11
30.908411875362425
21
0.87216114715642434
31
0.10000000000000002
0
LINE
5
199
100
AcDbEntity
8
0
100
AcDbLine
10
30.908411875362425
20
0.87216114715642434
30
0.10000000000000002
11
30.908411875362425
21
19.172161147156427
31
0.10000000000000002
0
LINE
5
200
100
AcDbEntity
8
0
100
AcDbLine
10
30.908411875362425
20
19.172161147156427
30
0.10000000000000002
11
0.10841187536242636
21
19.172161147156427
31
0.10000000000000002
0
LINE
5
201
100
AcDbEntity
8
0
100
AcDbLine
10
0.10841187536242636
20
19.172161147156427
30
0.10000000000000002
11
0.10841187536242636
21
0.87216114715642223
31
0.10000000000000002
0
ENDSEC
0
SECTION
2
OBJECTS
0
DICTIONARY
5
C
100
AcDbDictionary
3
ACAD_GROUP
350
D
3
ACAD_MLINESTYLE
350
17
0
DICTIONARY
5
D
100
AcDbDictionary
0
DICTIONARY
5
1A
330
C
100
AcDbDictionary
0
DICTIONARY
5
17
100
AcDbDictionary
0
ENDSEC
0
EOF
