G04 #@! TF.GenerationSoftware,KiCad,Pcbnew,8.0.8*
G04 #@! TF.CreationDate,2025-02-19T14:00:37-05:00*
G04 #@! TF.ProjectId,plot_gerbers,706c6f74-5f67-4657-9262-6572732e6b69,rev?*
G04 #@! TF.SameCoordinates,Original*
G04 #@! TF.FileFunction,Legend,Top*
G04 #@! TF.FilePolarity,Positive*
%FSLAX46Y46*%
G04 Gerber Fmt 4.6, Leading zero omitted, Abs format (unit mm)*
G04 Created by KiCad (PCBNEW 8.0.8) date 2025-02-19 14:00:37*
%MOMM*%
%LPD*%
G01*
G04 APERTURE LIST*
%ADD10C,0.150000*%
%ADD11C,0.120000*%
%ADD12C,1.700000*%
%ADD13O,1.700000X1.700000*%
%ADD14R,1.500000X1.500000*%
%ADD15R,1.700000X1.700000*%
G04 APERTURE END LIST*
D10*
X119456779Y-73193264D02*
X119456779Y-74193264D01*
X119456779Y-73240883D02*
X119552017Y-73193264D01*
X119552017Y-73193264D02*
X119742493Y-73193264D01*
X119742493Y-73193264D02*
X119837731Y-73240883D01*
X119837731Y-73240883D02*
X119885350Y-73288502D01*
X119885350Y-73288502D02*
X119932969Y-73383740D01*
X119932969Y-73383740D02*
X119932969Y-73669454D01*
X119932969Y-73669454D02*
X119885350Y-73764692D01*
X119885350Y-73764692D02*
X119837731Y-73812312D01*
X119837731Y-73812312D02*
X119742493Y-73859931D01*
X119742493Y-73859931D02*
X119552017Y-73859931D01*
X119552017Y-73859931D02*
X119456779Y-73812312D01*
X120790112Y-73812312D02*
X120694874Y-73859931D01*
X120694874Y-73859931D02*
X120504398Y-73859931D01*
X120504398Y-73859931D02*
X120409160Y-73812312D01*
X120409160Y-73812312D02*
X120361541Y-73764692D01*
X120361541Y-73764692D02*
X120313922Y-73669454D01*
X120313922Y-73669454D02*
X120313922Y-73383740D01*
X120313922Y-73383740D02*
X120361541Y-73288502D01*
X120361541Y-73288502D02*
X120409160Y-73240883D01*
X120409160Y-73240883D02*
X120504398Y-73193264D01*
X120504398Y-73193264D02*
X120694874Y-73193264D01*
X120694874Y-73193264D02*
X120790112Y-73240883D01*
X121218684Y-73859931D02*
X121218684Y-72859931D01*
X121218684Y-73240883D02*
X121313922Y-73193264D01*
X121313922Y-73193264D02*
X121504398Y-73193264D01*
X121504398Y-73193264D02*
X121599636Y-73240883D01*
X121599636Y-73240883D02*
X121647255Y-73288502D01*
X121647255Y-73288502D02*
X121694874Y-73383740D01*
X121694874Y-73383740D02*
X121694874Y-73669454D01*
X121694874Y-73669454D02*
X121647255Y-73764692D01*
X121647255Y-73764692D02*
X121599636Y-73812312D01*
X121599636Y-73812312D02*
X121504398Y-73859931D01*
X121504398Y-73859931D02*
X121313922Y-73859931D01*
X121313922Y-73859931D02*
X121218684Y-73812312D01*
X122028208Y-72859931D02*
X122694874Y-72859931D01*
X122694874Y-72859931D02*
X122266303Y-73859931D01*
X124171065Y-73336121D02*
X124313922Y-73383740D01*
X124313922Y-73383740D02*
X124361541Y-73431359D01*
X124361541Y-73431359D02*
X124409160Y-73526597D01*
X124409160Y-73526597D02*
X124409160Y-73669454D01*
X124409160Y-73669454D02*
X124361541Y-73764692D01*
X124361541Y-73764692D02*
X124313922Y-73812312D01*
X124313922Y-73812312D02*
X124218684Y-73859931D01*
X124218684Y-73859931D02*
X123837732Y-73859931D01*
X123837732Y-73859931D02*
X123837732Y-72859931D01*
X123837732Y-72859931D02*
X124171065Y-72859931D01*
X124171065Y-72859931D02*
X124266303Y-72907550D01*
X124266303Y-72907550D02*
X124313922Y-72955169D01*
X124313922Y-72955169D02*
X124361541Y-73050407D01*
X124361541Y-73050407D02*
X124361541Y-73145645D01*
X124361541Y-73145645D02*
X124313922Y-73240883D01*
X124313922Y-73240883D02*
X124266303Y-73288502D01*
X124266303Y-73288502D02*
X124171065Y-73336121D01*
X124171065Y-73336121D02*
X123837732Y-73336121D01*
X125409160Y-73764692D02*
X125361541Y-73812312D01*
X125361541Y-73812312D02*
X125218684Y-73859931D01*
X125218684Y-73859931D02*
X125123446Y-73859931D01*
X125123446Y-73859931D02*
X124980589Y-73812312D01*
X124980589Y-73812312D02*
X124885351Y-73717073D01*
X124885351Y-73717073D02*
X124837732Y-73621835D01*
X124837732Y-73621835D02*
X124790113Y-73431359D01*
X124790113Y-73431359D02*
X124790113Y-73288502D01*
X124790113Y-73288502D02*
X124837732Y-73098026D01*
X124837732Y-73098026D02*
X124885351Y-73002788D01*
X124885351Y-73002788D02*
X124980589Y-72907550D01*
X124980589Y-72907550D02*
X125123446Y-72859931D01*
X125123446Y-72859931D02*
X125218684Y-72859931D01*
X125218684Y-72859931D02*
X125361541Y-72907550D01*
X125361541Y-72907550D02*
X125409160Y-72955169D01*
X126504399Y-72859931D02*
X127171065Y-72859931D01*
X127171065Y-72859931D02*
X126742494Y-73859931D01*
X128075827Y-73859931D02*
X127504399Y-73859931D01*
X127790113Y-73859931D02*
X127790113Y-72859931D01*
X127790113Y-72859931D02*
X127694875Y-73002788D01*
X127694875Y-73002788D02*
X127599637Y-73098026D01*
X127599637Y-73098026D02*
X127504399Y-73145645D01*
X128552018Y-73812312D02*
X128552018Y-73859931D01*
X128552018Y-73859931D02*
X128504399Y-73955169D01*
X128504399Y-73955169D02*
X128456780Y-74002788D01*
X129409160Y-72859931D02*
X129218684Y-72859931D01*
X129218684Y-72859931D02*
X129123446Y-72907550D01*
X129123446Y-72907550D02*
X129075827Y-72955169D01*
X129075827Y-72955169D02*
X128980589Y-73098026D01*
X128980589Y-73098026D02*
X128932970Y-73288502D01*
X128932970Y-73288502D02*
X128932970Y-73669454D01*
X128932970Y-73669454D02*
X128980589Y-73764692D01*
X128980589Y-73764692D02*
X129028208Y-73812312D01*
X129028208Y-73812312D02*
X129123446Y-73859931D01*
X129123446Y-73859931D02*
X129313922Y-73859931D01*
X129313922Y-73859931D02*
X129409160Y-73812312D01*
X129409160Y-73812312D02*
X129456779Y-73764692D01*
X129456779Y-73764692D02*
X129504398Y-73669454D01*
X129504398Y-73669454D02*
X129504398Y-73431359D01*
X129504398Y-73431359D02*
X129456779Y-73336121D01*
X129456779Y-73336121D02*
X129409160Y-73288502D01*
X129409160Y-73288502D02*
X129313922Y-73240883D01*
X129313922Y-73240883D02*
X129123446Y-73240883D01*
X129123446Y-73240883D02*
X129028208Y-73288502D01*
X129028208Y-73288502D02*
X128980589Y-73336121D01*
X128980589Y-73336121D02*
X128932970Y-73431359D01*
X130694875Y-72859931D02*
X130694875Y-73669454D01*
X130694875Y-73669454D02*
X130742494Y-73764692D01*
X130742494Y-73764692D02*
X130790113Y-73812312D01*
X130790113Y-73812312D02*
X130885351Y-73859931D01*
X130885351Y-73859931D02*
X131075827Y-73859931D01*
X131075827Y-73859931D02*
X131171065Y-73812312D01*
X131171065Y-73812312D02*
X131218684Y-73764692D01*
X131218684Y-73764692D02*
X131266303Y-73669454D01*
X131266303Y-73669454D02*
X131266303Y-72859931D01*
X131599637Y-72859931D02*
X132171065Y-72859931D01*
X131885351Y-73859931D02*
X131885351Y-72859931D01*
X132504399Y-73478978D02*
X133266304Y-73478978D01*
X134266303Y-73859931D02*
X133694875Y-73859931D01*
X133980589Y-73859931D02*
X133980589Y-72859931D01*
X133980589Y-72859931D02*
X133885351Y-73002788D01*
X133885351Y-73002788D02*
X133790113Y-73098026D01*
X133790113Y-73098026D02*
X133694875Y-73145645D01*
X135218684Y-73859931D02*
X134647256Y-73859931D01*
X134932970Y-73859931D02*
X134932970Y-72859931D01*
X134932970Y-72859931D02*
X134837732Y-73002788D01*
X134837732Y-73002788D02*
X134742494Y-73098026D01*
X134742494Y-73098026D02*
X134647256Y-73145645D01*
X119409160Y-74565113D02*
X119456779Y-74517494D01*
X119456779Y-74517494D02*
X119552017Y-74469875D01*
X119552017Y-74469875D02*
X119790112Y-74469875D01*
X119790112Y-74469875D02*
X119885350Y-74517494D01*
X119885350Y-74517494D02*
X119932969Y-74565113D01*
X119932969Y-74565113D02*
X119980588Y-74660351D01*
X119980588Y-74660351D02*
X119980588Y-74755589D01*
X119980588Y-74755589D02*
X119932969Y-74898446D01*
X119932969Y-74898446D02*
X119361541Y-75469875D01*
X119361541Y-75469875D02*
X119980588Y-75469875D01*
X120837731Y-74469875D02*
X120647255Y-74469875D01*
X120647255Y-74469875D02*
X120552017Y-74517494D01*
X120552017Y-74517494D02*
X120504398Y-74565113D01*
X120504398Y-74565113D02*
X120409160Y-74707970D01*
X120409160Y-74707970D02*
X120361541Y-74898446D01*
X120361541Y-74898446D02*
X120361541Y-75279398D01*
X120361541Y-75279398D02*
X120409160Y-75374636D01*
X120409160Y-75374636D02*
X120456779Y-75422256D01*
X120456779Y-75422256D02*
X120552017Y-75469875D01*
X120552017Y-75469875D02*
X120742493Y-75469875D01*
X120742493Y-75469875D02*
X120837731Y-75422256D01*
X120837731Y-75422256D02*
X120885350Y-75374636D01*
X120885350Y-75374636D02*
X120932969Y-75279398D01*
X120932969Y-75279398D02*
X120932969Y-75041303D01*
X120932969Y-75041303D02*
X120885350Y-74946065D01*
X120885350Y-74946065D02*
X120837731Y-74898446D01*
X120837731Y-74898446D02*
X120742493Y-74850827D01*
X120742493Y-74850827D02*
X120552017Y-74850827D01*
X120552017Y-74850827D02*
X120456779Y-74898446D01*
X120456779Y-74898446D02*
X120409160Y-74946065D01*
X120409160Y-74946065D02*
X120361541Y-75041303D01*
X121409160Y-75422256D02*
X121409160Y-75469875D01*
X121409160Y-75469875D02*
X121361541Y-75565113D01*
X121361541Y-75565113D02*
X121313922Y-75612732D01*
X121742493Y-74469875D02*
X122361540Y-74469875D01*
X122361540Y-74469875D02*
X122028207Y-74850827D01*
X122028207Y-74850827D02*
X122171064Y-74850827D01*
X122171064Y-74850827D02*
X122266302Y-74898446D01*
X122266302Y-74898446D02*
X122313921Y-74946065D01*
X122313921Y-74946065D02*
X122361540Y-75041303D01*
X122361540Y-75041303D02*
X122361540Y-75279398D01*
X122361540Y-75279398D02*
X122313921Y-75374636D01*
X122313921Y-75374636D02*
X122266302Y-75422256D01*
X122266302Y-75422256D02*
X122171064Y-75469875D01*
X122171064Y-75469875D02*
X121885350Y-75469875D01*
X121885350Y-75469875D02*
X121790112Y-75422256D01*
X121790112Y-75422256D02*
X121742493Y-75374636D01*
X122790112Y-75469875D02*
X122790112Y-74803208D01*
X122790112Y-74898446D02*
X122837731Y-74850827D01*
X122837731Y-74850827D02*
X122932969Y-74803208D01*
X122932969Y-74803208D02*
X123075826Y-74803208D01*
X123075826Y-74803208D02*
X123171064Y-74850827D01*
X123171064Y-74850827D02*
X123218683Y-74946065D01*
X123218683Y-74946065D02*
X123218683Y-75469875D01*
X123218683Y-74946065D02*
X123266302Y-74850827D01*
X123266302Y-74850827D02*
X123361540Y-74803208D01*
X123361540Y-74803208D02*
X123504397Y-74803208D01*
X123504397Y-74803208D02*
X123599636Y-74850827D01*
X123599636Y-74850827D02*
X123647255Y-74946065D01*
X123647255Y-74946065D02*
X123647255Y-75469875D01*
X124123445Y-75469875D02*
X124123445Y-74803208D01*
X124123445Y-74898446D02*
X124171064Y-74850827D01*
X124171064Y-74850827D02*
X124266302Y-74803208D01*
X124266302Y-74803208D02*
X124409159Y-74803208D01*
X124409159Y-74803208D02*
X124504397Y-74850827D01*
X124504397Y-74850827D02*
X124552016Y-74946065D01*
X124552016Y-74946065D02*
X124552016Y-75469875D01*
X124552016Y-74946065D02*
X124599635Y-74850827D01*
X124599635Y-74850827D02*
X124694873Y-74803208D01*
X124694873Y-74803208D02*
X124837730Y-74803208D01*
X124837730Y-74803208D02*
X124932969Y-74850827D01*
X124932969Y-74850827D02*
X124980588Y-74946065D01*
X124980588Y-74946065D02*
X124980588Y-75469875D01*
X126647254Y-75422256D02*
X126552016Y-75469875D01*
X126552016Y-75469875D02*
X126361540Y-75469875D01*
X126361540Y-75469875D02*
X126266302Y-75422256D01*
X126266302Y-75422256D02*
X126218683Y-75374636D01*
X126218683Y-75374636D02*
X126171064Y-75279398D01*
X126171064Y-75279398D02*
X126171064Y-74993684D01*
X126171064Y-74993684D02*
X126218683Y-74898446D01*
X126218683Y-74898446D02*
X126266302Y-74850827D01*
X126266302Y-74850827D02*
X126361540Y-74803208D01*
X126361540Y-74803208D02*
X126552016Y-74803208D01*
X126552016Y-74803208D02*
X126647254Y-74850827D01*
X127218683Y-75469875D02*
X127123445Y-75422256D01*
X127123445Y-75422256D02*
X127075826Y-75327017D01*
X127075826Y-75327017D02*
X127075826Y-74469875D01*
X127980588Y-75422256D02*
X127885350Y-75469875D01*
X127885350Y-75469875D02*
X127694874Y-75469875D01*
X127694874Y-75469875D02*
X127599636Y-75422256D01*
X127599636Y-75422256D02*
X127552017Y-75327017D01*
X127552017Y-75327017D02*
X127552017Y-74946065D01*
X127552017Y-74946065D02*
X127599636Y-74850827D01*
X127599636Y-74850827D02*
X127694874Y-74803208D01*
X127694874Y-74803208D02*
X127885350Y-74803208D01*
X127885350Y-74803208D02*
X127980588Y-74850827D01*
X127980588Y-74850827D02*
X128028207Y-74946065D01*
X128028207Y-74946065D02*
X128028207Y-75041303D01*
X128028207Y-75041303D02*
X127552017Y-75136541D01*
X128885350Y-75469875D02*
X128885350Y-74946065D01*
X128885350Y-74946065D02*
X128837731Y-74850827D01*
X128837731Y-74850827D02*
X128742493Y-74803208D01*
X128742493Y-74803208D02*
X128552017Y-74803208D01*
X128552017Y-74803208D02*
X128456779Y-74850827D01*
X128885350Y-75422256D02*
X128790112Y-75469875D01*
X128790112Y-75469875D02*
X128552017Y-75469875D01*
X128552017Y-75469875D02*
X128456779Y-75422256D01*
X128456779Y-75422256D02*
X128409160Y-75327017D01*
X128409160Y-75327017D02*
X128409160Y-75231779D01*
X128409160Y-75231779D02*
X128456779Y-75136541D01*
X128456779Y-75136541D02*
X128552017Y-75088922D01*
X128552017Y-75088922D02*
X128790112Y-75088922D01*
X128790112Y-75088922D02*
X128885350Y-75041303D01*
X129361541Y-75469875D02*
X129361541Y-74803208D01*
X129361541Y-74993684D02*
X129409160Y-74898446D01*
X129409160Y-74898446D02*
X129456779Y-74850827D01*
X129456779Y-74850827D02*
X129552017Y-74803208D01*
X129552017Y-74803208D02*
X129647255Y-74803208D01*
X130409160Y-75469875D02*
X130409160Y-74946065D01*
X130409160Y-74946065D02*
X130361541Y-74850827D01*
X130361541Y-74850827D02*
X130266303Y-74803208D01*
X130266303Y-74803208D02*
X130075827Y-74803208D01*
X130075827Y-74803208D02*
X129980589Y-74850827D01*
X130409160Y-75422256D02*
X130313922Y-75469875D01*
X130313922Y-75469875D02*
X130075827Y-75469875D01*
X130075827Y-75469875D02*
X129980589Y-75422256D01*
X129980589Y-75422256D02*
X129932970Y-75327017D01*
X129932970Y-75327017D02*
X129932970Y-75231779D01*
X129932970Y-75231779D02*
X129980589Y-75136541D01*
X129980589Y-75136541D02*
X130075827Y-75088922D01*
X130075827Y-75088922D02*
X130313922Y-75088922D01*
X130313922Y-75088922D02*
X130409160Y-75041303D01*
X130885351Y-74803208D02*
X130885351Y-75469875D01*
X130885351Y-74898446D02*
X130932970Y-74850827D01*
X130932970Y-74850827D02*
X131028208Y-74803208D01*
X131028208Y-74803208D02*
X131171065Y-74803208D01*
X131171065Y-74803208D02*
X131266303Y-74850827D01*
X131266303Y-74850827D02*
X131313922Y-74946065D01*
X131313922Y-74946065D02*
X131313922Y-75469875D01*
X132218684Y-75422256D02*
X132123446Y-75469875D01*
X132123446Y-75469875D02*
X131932970Y-75469875D01*
X131932970Y-75469875D02*
X131837732Y-75422256D01*
X131837732Y-75422256D02*
X131790113Y-75374636D01*
X131790113Y-75374636D02*
X131742494Y-75279398D01*
X131742494Y-75279398D02*
X131742494Y-74993684D01*
X131742494Y-74993684D02*
X131790113Y-74898446D01*
X131790113Y-74898446D02*
X131837732Y-74850827D01*
X131837732Y-74850827D02*
X131932970Y-74803208D01*
X131932970Y-74803208D02*
X132123446Y-74803208D01*
X132123446Y-74803208D02*
X132218684Y-74850827D01*
X133028208Y-75422256D02*
X132932970Y-75469875D01*
X132932970Y-75469875D02*
X132742494Y-75469875D01*
X132742494Y-75469875D02*
X132647256Y-75422256D01*
X132647256Y-75422256D02*
X132599637Y-75327017D01*
X132599637Y-75327017D02*
X132599637Y-74946065D01*
X132599637Y-74946065D02*
X132647256Y-74850827D01*
X132647256Y-74850827D02*
X132742494Y-74803208D01*
X132742494Y-74803208D02*
X132932970Y-74803208D01*
X132932970Y-74803208D02*
X133028208Y-74850827D01*
X133028208Y-74850827D02*
X133075827Y-74946065D01*
X133075827Y-74946065D02*
X133075827Y-75041303D01*
X133075827Y-75041303D02*
X132599637Y-75136541D01*
X119456779Y-77079819D02*
X119456779Y-76413152D01*
X119456779Y-76603628D02*
X119504398Y-76508390D01*
X119504398Y-76508390D02*
X119552017Y-76460771D01*
X119552017Y-76460771D02*
X119647255Y-76413152D01*
X119647255Y-76413152D02*
X119742493Y-76413152D01*
X120456779Y-77032200D02*
X120361541Y-77079819D01*
X120361541Y-77079819D02*
X120171065Y-77079819D01*
X120171065Y-77079819D02*
X120075827Y-77032200D01*
X120075827Y-77032200D02*
X120028208Y-76936961D01*
X120028208Y-76936961D02*
X120028208Y-76556009D01*
X120028208Y-76556009D02*
X120075827Y-76460771D01*
X120075827Y-76460771D02*
X120171065Y-76413152D01*
X120171065Y-76413152D02*
X120361541Y-76413152D01*
X120361541Y-76413152D02*
X120456779Y-76460771D01*
X120456779Y-76460771D02*
X120504398Y-76556009D01*
X120504398Y-76556009D02*
X120504398Y-76651247D01*
X120504398Y-76651247D02*
X120028208Y-76746485D01*
X120837732Y-76413152D02*
X121075827Y-77079819D01*
X121075827Y-77079819D02*
X121313922Y-76413152D01*
X121885351Y-76079819D02*
X121980589Y-76079819D01*
X121980589Y-76079819D02*
X122075827Y-76127438D01*
X122075827Y-76127438D02*
X122123446Y-76175057D01*
X122123446Y-76175057D02*
X122171065Y-76270295D01*
X122171065Y-76270295D02*
X122218684Y-76460771D01*
X122218684Y-76460771D02*
X122218684Y-76698866D01*
X122218684Y-76698866D02*
X122171065Y-76889342D01*
X122171065Y-76889342D02*
X122123446Y-76984580D01*
X122123446Y-76984580D02*
X122075827Y-77032200D01*
X122075827Y-77032200D02*
X121980589Y-77079819D01*
X121980589Y-77079819D02*
X121885351Y-77079819D01*
X121885351Y-77079819D02*
X121790113Y-77032200D01*
X121790113Y-77032200D02*
X121742494Y-76984580D01*
X121742494Y-76984580D02*
X121694875Y-76889342D01*
X121694875Y-76889342D02*
X121647256Y-76698866D01*
X121647256Y-76698866D02*
X121647256Y-76460771D01*
X121647256Y-76460771D02*
X121694875Y-76270295D01*
X121694875Y-76270295D02*
X121742494Y-76175057D01*
X121742494Y-76175057D02*
X121790113Y-76127438D01*
X121790113Y-76127438D02*
X121885351Y-76079819D01*
X123171065Y-77079819D02*
X122599637Y-77079819D01*
X122885351Y-77079819D02*
X122885351Y-76079819D01*
X122885351Y-76079819D02*
X122790113Y-76222676D01*
X122790113Y-76222676D02*
X122694875Y-76317914D01*
X122694875Y-76317914D02*
X122599637Y-76365533D01*
X123361542Y-77175057D02*
X124123446Y-77175057D01*
X124218685Y-76413152D02*
X124599637Y-76413152D01*
X124361542Y-77079819D02*
X124361542Y-76222676D01*
X124361542Y-76222676D02*
X124409161Y-76127438D01*
X124409161Y-76127438D02*
X124504399Y-76079819D01*
X124504399Y-76079819D02*
X124599637Y-76079819D01*
X125313923Y-77032200D02*
X125218685Y-77079819D01*
X125218685Y-77079819D02*
X125028209Y-77079819D01*
X125028209Y-77079819D02*
X124932971Y-77032200D01*
X124932971Y-77032200D02*
X124885352Y-76936961D01*
X124885352Y-76936961D02*
X124885352Y-76556009D01*
X124885352Y-76556009D02*
X124932971Y-76460771D01*
X124932971Y-76460771D02*
X125028209Y-76413152D01*
X125028209Y-76413152D02*
X125218685Y-76413152D01*
X125218685Y-76413152D02*
X125313923Y-76460771D01*
X125313923Y-76460771D02*
X125361542Y-76556009D01*
X125361542Y-76556009D02*
X125361542Y-76651247D01*
X125361542Y-76651247D02*
X124885352Y-76746485D01*
X125790114Y-77079819D02*
X125790114Y-76079819D01*
X125790114Y-76460771D02*
X125885352Y-76413152D01*
X125885352Y-76413152D02*
X126075828Y-76413152D01*
X126075828Y-76413152D02*
X126171066Y-76460771D01*
X126171066Y-76460771D02*
X126218685Y-76508390D01*
X126218685Y-76508390D02*
X126266304Y-76603628D01*
X126266304Y-76603628D02*
X126266304Y-76889342D01*
X126266304Y-76889342D02*
X126218685Y-76984580D01*
X126218685Y-76984580D02*
X126171066Y-77032200D01*
X126171066Y-77032200D02*
X126075828Y-77079819D01*
X126075828Y-77079819D02*
X125885352Y-77079819D01*
X125885352Y-77079819D02*
X125790114Y-77032200D01*
X126647257Y-76175057D02*
X126694876Y-76127438D01*
X126694876Y-76127438D02*
X126790114Y-76079819D01*
X126790114Y-76079819D02*
X127028209Y-76079819D01*
X127028209Y-76079819D02*
X127123447Y-76127438D01*
X127123447Y-76127438D02*
X127171066Y-76175057D01*
X127171066Y-76175057D02*
X127218685Y-76270295D01*
X127218685Y-76270295D02*
X127218685Y-76365533D01*
X127218685Y-76365533D02*
X127171066Y-76508390D01*
X127171066Y-76508390D02*
X126599638Y-77079819D01*
X126599638Y-77079819D02*
X127218685Y-77079819D01*
X128123447Y-76079819D02*
X127647257Y-76079819D01*
X127647257Y-76079819D02*
X127599638Y-76556009D01*
X127599638Y-76556009D02*
X127647257Y-76508390D01*
X127647257Y-76508390D02*
X127742495Y-76460771D01*
X127742495Y-76460771D02*
X127980590Y-76460771D01*
X127980590Y-76460771D02*
X128075828Y-76508390D01*
X128075828Y-76508390D02*
X128123447Y-76556009D01*
X128123447Y-76556009D02*
X128171066Y-76651247D01*
X128171066Y-76651247D02*
X128171066Y-76889342D01*
X128171066Y-76889342D02*
X128123447Y-76984580D01*
X128123447Y-76984580D02*
X128075828Y-77032200D01*
X128075828Y-77032200D02*
X127980590Y-77079819D01*
X127980590Y-77079819D02*
X127742495Y-77079819D01*
X127742495Y-77079819D02*
X127647257Y-77032200D01*
X127647257Y-77032200D02*
X127599638Y-76984580D01*
X122899523Y-115248152D02*
X122899523Y-116057676D01*
X122899523Y-116057676D02*
X122851904Y-116152914D01*
X122851904Y-116152914D02*
X122804285Y-116200533D01*
X122804285Y-116200533D02*
X122709047Y-116248152D01*
X122709047Y-116248152D02*
X122566190Y-116248152D01*
X122566190Y-116248152D02*
X122470952Y-116200533D01*
X122899523Y-115867200D02*
X122804285Y-115914819D01*
X122804285Y-115914819D02*
X122613809Y-115914819D01*
X122613809Y-115914819D02*
X122518571Y-115867200D01*
X122518571Y-115867200D02*
X122470952Y-115819580D01*
X122470952Y-115819580D02*
X122423333Y-115724342D01*
X122423333Y-115724342D02*
X122423333Y-115438628D01*
X122423333Y-115438628D02*
X122470952Y-115343390D01*
X122470952Y-115343390D02*
X122518571Y-115295771D01*
X122518571Y-115295771D02*
X122613809Y-115248152D01*
X122613809Y-115248152D02*
X122804285Y-115248152D01*
X122804285Y-115248152D02*
X122899523Y-115295771D01*
X123375714Y-115248152D02*
X123375714Y-115914819D01*
X123375714Y-115343390D02*
X123423333Y-115295771D01*
X123423333Y-115295771D02*
X123518571Y-115248152D01*
X123518571Y-115248152D02*
X123661428Y-115248152D01*
X123661428Y-115248152D02*
X123756666Y-115295771D01*
X123756666Y-115295771D02*
X123804285Y-115391009D01*
X123804285Y-115391009D02*
X123804285Y-115914819D01*
X124709047Y-115914819D02*
X124709047Y-114914819D01*
X124709047Y-115867200D02*
X124613809Y-115914819D01*
X124613809Y-115914819D02*
X124423333Y-115914819D01*
X124423333Y-115914819D02*
X124328095Y-115867200D01*
X124328095Y-115867200D02*
X124280476Y-115819580D01*
X124280476Y-115819580D02*
X124232857Y-115724342D01*
X124232857Y-115724342D02*
X124232857Y-115438628D01*
X124232857Y-115438628D02*
X124280476Y-115343390D01*
X124280476Y-115343390D02*
X124328095Y-115295771D01*
X124328095Y-115295771D02*
X124423333Y-115248152D01*
X124423333Y-115248152D02*
X124613809Y-115248152D01*
X124613809Y-115248152D02*
X124709047Y-115295771D01*
D11*
X171840000Y-95800000D02*
X118500000Y-95800000D01*
X120080000Y-114690000D02*
X121980000Y-114690000D01*
X120080000Y-116590000D02*
X120080000Y-114690000D01*
X121980000Y-114690000D02*
X121980000Y-116590000D01*
X121980000Y-116590000D02*
X120080000Y-116590000D01*
X110720000Y-84320000D02*
X112050000Y-84320000D01*
X110720000Y-85650000D02*
X110720000Y-84320000D01*
X110720000Y-86920000D02*
X110720000Y-107300000D01*
X110720000Y-86920000D02*
X113320000Y-86920000D01*
X110720000Y-107300000D02*
X115920000Y-107300000D01*
X113320000Y-84320000D02*
X115920000Y-84320000D01*
X113320000Y-86920000D02*
X113320000Y-84320000D01*
X115920000Y-84320000D02*
X115920000Y-107300000D01*
%LPC*%
D12*
X169300000Y-80560000D03*
X169300000Y-83100000D03*
X169300000Y-85640000D03*
X169300000Y-88180000D03*
X169300000Y-90720000D03*
X169300000Y-93260000D03*
D13*
X166760000Y-80560000D03*
X166760000Y-83100000D03*
X166760000Y-85640000D03*
X166760000Y-88180000D03*
X166760000Y-90720000D03*
X166760000Y-93260000D03*
X164220000Y-80560000D03*
X164220000Y-83100000D03*
X164220000Y-85640000D03*
X164220000Y-88180000D03*
X164220000Y-90720000D03*
X164220000Y-93260000D03*
X161680000Y-80560000D03*
X161680000Y-83100000D03*
X161680000Y-85640000D03*
X161680000Y-88180000D03*
X161680000Y-90720000D03*
X161680000Y-93260000D03*
X159140000Y-80560000D03*
X159140000Y-83100000D03*
X159140000Y-85640000D03*
X159140000Y-88180000D03*
X159140000Y-90720000D03*
X159140000Y-93260000D03*
X156600000Y-80560000D03*
X156600000Y-83100000D03*
X156600000Y-85640000D03*
X156600000Y-88180000D03*
X156600000Y-90720000D03*
X156600000Y-93260000D03*
X154060000Y-80560000D03*
X154060000Y-83100000D03*
X154060000Y-85640000D03*
X154060000Y-88180000D03*
X154060000Y-90720000D03*
X154060000Y-93260000D03*
X151520000Y-80560000D03*
X151520000Y-83100000D03*
X151520000Y-85640000D03*
X151520000Y-88180000D03*
X151520000Y-90720000D03*
X151520000Y-93260000D03*
X148980000Y-80560000D03*
X148980000Y-83100000D03*
X148980000Y-85640000D03*
X148980000Y-88180000D03*
X148980000Y-90720000D03*
X148980000Y-93260000D03*
X146440000Y-80560000D03*
X146440000Y-83100000D03*
X146440000Y-85640000D03*
X146440000Y-88180000D03*
X146440000Y-90720000D03*
X146440000Y-93260000D03*
X143900000Y-80560000D03*
X143900000Y-83100000D03*
X143900000Y-85640000D03*
X143900000Y-88180000D03*
X143900000Y-90720000D03*
X143900000Y-93260000D03*
X141360000Y-80560000D03*
X141360000Y-83100000D03*
X141360000Y-85640000D03*
X141360000Y-88180000D03*
X141360000Y-90720000D03*
X141360000Y-93260000D03*
X138820000Y-80560000D03*
X138820000Y-83100000D03*
X138820000Y-85640000D03*
X138820000Y-88180000D03*
X138820000Y-90720000D03*
X138820000Y-93260000D03*
X136280000Y-80560000D03*
X136280000Y-83100000D03*
X136280000Y-85640000D03*
X136280000Y-88180000D03*
X136280000Y-90720000D03*
X136280000Y-93260000D03*
X133740000Y-80560000D03*
X133740000Y-83100000D03*
X133740000Y-85640000D03*
X133740000Y-88180000D03*
X133740000Y-90720000D03*
X133740000Y-93260000D03*
X131200000Y-80560000D03*
X131200000Y-83100000D03*
X131200000Y-85640000D03*
X131200000Y-88180000D03*
X131200000Y-90720000D03*
X131200000Y-93260000D03*
X128660000Y-80560000D03*
X128660000Y-83100000D03*
X128660000Y-85640000D03*
X128660000Y-88180000D03*
X128660000Y-90720000D03*
X128660000Y-93260000D03*
X126120000Y-80560000D03*
X126120000Y-83100000D03*
X126120000Y-85640000D03*
X126120000Y-88180000D03*
X126120000Y-90720000D03*
X126120000Y-93260000D03*
X123580000Y-80560000D03*
X123580000Y-83100000D03*
X123580000Y-85640000D03*
X123580000Y-88180000D03*
X123580000Y-90720000D03*
X123580000Y-93260000D03*
X121040000Y-80560000D03*
X121040000Y-83100000D03*
X121040000Y-85640000D03*
X121040000Y-88180000D03*
X121040000Y-90720000D03*
X121040000Y-93260000D03*
D12*
X169300000Y-98340000D03*
X169300000Y-100880000D03*
X169300000Y-103420000D03*
X169300000Y-105960000D03*
X169300000Y-108500000D03*
X169300000Y-111040000D03*
D13*
X166760000Y-98340000D03*
X166760000Y-100880000D03*
X166760000Y-103420000D03*
X166760000Y-105960000D03*
X166760000Y-108500000D03*
X166760000Y-111040000D03*
X164220000Y-98340000D03*
X164220000Y-100880000D03*
X164220000Y-103420000D03*
X164220000Y-105960000D03*
X164220000Y-108500000D03*
X164220000Y-111040000D03*
X161680000Y-98340000D03*
X161680000Y-100880000D03*
X161680000Y-103420000D03*
X161680000Y-105960000D03*
X161680000Y-108500000D03*
X161680000Y-111040000D03*
X159140000Y-98340000D03*
X159140000Y-100880000D03*
X159140000Y-103420000D03*
X159140000Y-105960000D03*
X159140000Y-108500000D03*
X159140000Y-111040000D03*
X156600000Y-98340000D03*
X156600000Y-100880000D03*
X156600000Y-103420000D03*
X156600000Y-105960000D03*
X156600000Y-108500000D03*
X156600000Y-111040000D03*
X154060000Y-98340000D03*
X154060000Y-100880000D03*
X154060000Y-103420000D03*
X154060000Y-105960000D03*
X154060000Y-108500000D03*
X154060000Y-111040000D03*
X151520000Y-98340000D03*
X151520000Y-100880000D03*
X151520000Y-103420000D03*
X151520000Y-105960000D03*
X151520000Y-108500000D03*
X151520000Y-111040000D03*
X148980000Y-98340000D03*
X148980000Y-100880000D03*
X148980000Y-103420000D03*
X148980000Y-105960000D03*
X148980000Y-108500000D03*
X148980000Y-111040000D03*
X146440000Y-98340000D03*
X146440000Y-100880000D03*
X146440000Y-103420000D03*
X146440000Y-105960000D03*
X146440000Y-108500000D03*
X146440000Y-111040000D03*
X143900000Y-98340000D03*
X143900000Y-100880000D03*
X143900000Y-103420000D03*
X143900000Y-105960000D03*
X143900000Y-108500000D03*
X143900000Y-111040000D03*
X141360000Y-98340000D03*
X141360000Y-100880000D03*
X141360000Y-103420000D03*
X141360000Y-105960000D03*
X141360000Y-108500000D03*
X141360000Y-111040000D03*
X138820000Y-98340000D03*
X138820000Y-100880000D03*
X138820000Y-103420000D03*
X138820000Y-105960000D03*
X138820000Y-108500000D03*
X138820000Y-111040000D03*
X136280000Y-98340000D03*
X136280000Y-100880000D03*
X136280000Y-103420000D03*
X136280000Y-105960000D03*
X136280000Y-108500000D03*
X136280000Y-111040000D03*
X133740000Y-98340000D03*
X133740000Y-100880000D03*
X133740000Y-103420000D03*
X133740000Y-105960000D03*
X133740000Y-108500000D03*
X133740000Y-111040000D03*
X131200000Y-98340000D03*
X131200000Y-100880000D03*
X131200000Y-103420000D03*
X131200000Y-105960000D03*
X131200000Y-108500000D03*
X131200000Y-111040000D03*
X128660000Y-98340000D03*
X128660000Y-100880000D03*
X128660000Y-103420000D03*
X128660000Y-105960000D03*
X128660000Y-108500000D03*
X128660000Y-111040000D03*
X126120000Y-98340000D03*
X126120000Y-100880000D03*
X126120000Y-103420000D03*
X126120000Y-105960000D03*
X126120000Y-108500000D03*
X126120000Y-111040000D03*
X123580000Y-98340000D03*
X123580000Y-100880000D03*
X123580000Y-103420000D03*
X123580000Y-105960000D03*
X123580000Y-108500000D03*
X123580000Y-111040000D03*
X121040000Y-98340000D03*
X121040000Y-100880000D03*
X121040000Y-103420000D03*
X121040000Y-105960000D03*
X121040000Y-108500000D03*
X121040000Y-111040000D03*
D14*
X121030000Y-115640000D03*
D15*
X112050000Y-85650000D03*
D13*
X114590000Y-85650000D03*
X112050000Y-88190000D03*
X114590000Y-88190000D03*
X112050000Y-90730000D03*
X114590000Y-90730000D03*
X112050000Y-93270000D03*
X114590000Y-93270000D03*
X112050000Y-95810000D03*
X114590000Y-95810000D03*
X112050000Y-98350000D03*
X114590000Y-98350000D03*
X112050000Y-100890000D03*
X114590000Y-100890000D03*
X112050000Y-103430000D03*
X114590000Y-103430000D03*
X112050000Y-105970000D03*
X114590000Y-105970000D03*
%LPD*%
M02*
