G04 #@! TF.GenerationSoftware,KiCad,Pcbnew,8.0.8*
G04 #@! TF.CreationDate,2025-02-19T14:00:37-05:00*
G04 #@! TF.ProjectId,plot_gerbers,706c6f74-5f67-4657-9262-6572732e6b69,rev?*
G04 #@! TF.SameCoordinates,Original*
G04 #@! TF.FileFunction,Profile,NP*
%FSLAX46Y46*%
G04 Gerber Fmt 4.6, Leading zero omitted, Abs format (unit mm)*
G04 Created by KiCad (PCBNEW 8.0.8) date 2025-02-19 14:00:37*
%MOMM*%
%LPD*%
G01*
G04 APERTURE LIST*
G04 #@! TA.AperFunction,Profile*
%ADD10C,0.050000*%
G04 #@! TD*
G04 APERTURE END LIST*
D10*
X108120000Y-83350000D02*
G75*
G02*
X109320000Y-84550000I27J-1199973D01*
G01*
X174420000Y-108250000D02*
G75*
G02*
X173220000Y-107050000I-27J1199973D01*
G01*
X108120000Y-70400000D02*
X108120000Y-79450000D01*
X109320000Y-110950000D02*
G75*
G02*
X108120000Y-112150000I-1200065J65D01*
G01*
X174420000Y-112150000D02*
G75*
G02*
X173220000Y-110950000I-27J1199973D01*
G01*
X108120000Y-105850000D02*
G75*
G02*
X109320000Y-107050000I27J-1199973D01*
G01*
X173220000Y-110950000D02*
G75*
G02*
X174420000Y-109750000I1200065J-65D01*
G01*
X174420000Y-109750000D02*
X175670000Y-109750000D01*
X108120000Y-108250000D02*
X106870000Y-108250000D01*
X175670000Y-81850000D02*
X175670000Y-83350000D01*
X174420000Y-83350000D02*
X175670000Y-83350000D01*
X109320000Y-84550000D02*
G75*
G02*
X108120000Y-85750000I-1200065J65D01*
G01*
X108120000Y-112150000D02*
X108120000Y-121200000D01*
X109320000Y-107050000D02*
G75*
G02*
X108120000Y-108250000I-1200065J65D01*
G01*
X174420000Y-81850000D02*
X175670000Y-81850000D01*
X106870000Y-109750000D02*
X106870000Y-108250000D01*
X108120000Y-109750000D02*
G75*
G02*
X109320000Y-110950000I27J-1199973D01*
G01*
X174420000Y-81850000D02*
G75*
G02*
X173220000Y-80650000I-27J1199973D01*
G01*
X174420000Y-85750000D02*
G75*
G02*
X173220000Y-84550000I-27J1199973D01*
G01*
X175670000Y-108250000D02*
X175670000Y-109750000D01*
X174420000Y-108250000D02*
X175670000Y-108250000D01*
X108120000Y-109750000D02*
X106870000Y-109750000D01*
X174420000Y-79450000D02*
X174420000Y-70400000D01*
X108120000Y-83350000D02*
X106870000Y-83350000D01*
X173220000Y-80650000D02*
G75*
G02*
X174420000Y-79450000I1200065J-65D01*
G01*
X108120000Y-121200000D02*
X174420000Y-121200000D01*
X108120000Y-79450000D02*
G75*
G02*
X109320000Y-80650000I27J-1199973D01*
G01*
X173220000Y-107050000D02*
G75*
G02*
X174420000Y-105850000I1200065J-65D01*
G01*
X174420000Y-105850000D02*
X174420000Y-85750000D01*
X174420000Y-121200000D02*
X174420000Y-112150000D01*
X106870000Y-83350000D02*
X106870000Y-81850000D01*
X173220000Y-84550000D02*
G75*
G02*
X174420000Y-83350000I1200065J-65D01*
G01*
X108120000Y-70400000D02*
X174420000Y-70400000D01*
X108120000Y-81850000D02*
X106870000Y-81850000D01*
X109320000Y-80650000D02*
G75*
G02*
X108120000Y-81850000I-1200065J65D01*
G01*
X108120000Y-85750000D02*
X108120000Y-105850000D01*
M02*
