G04 #@! TF.GenerationSoftware,KiCad,Pcbnew,8.0.8*
G04 #@! TF.CreationDate,2025-02-19T14:00:37-05:00*
G04 #@! TF.ProjectId,plot_gerbers,706c6f74-5f67-4657-9262-6572732e6b69,rev?*
G04 #@! TF.SameCoordinates,Original*
G04 #@! TF.FileFunction,Soldermask,Bot*
G04 #@! TF.FilePolarity,Negative*
%FSLAX46Y46*%
G04 Gerber Fmt 4.6, Leading zero omitted, Abs format (unit mm)*
G04 Created by KiCad (PCBNEW 8.0.8) date 2025-02-19 14:00:37*
%MOMM*%
%LPD*%
G01*
G04 APERTURE LIST*
%ADD10C,1.700000*%
%ADD11O,1.700000X1.700000*%
%ADD12R,1.500000X1.500000*%
%ADD13R,1.700000X1.700000*%
G04 APERTURE END LIST*
D10*
X169300000Y-80560000D03*
X169300000Y-83100000D03*
X169300000Y-85640000D03*
X169300000Y-88180000D03*
X169300000Y-90720000D03*
X169300000Y-93260000D03*
D11*
X166760000Y-80560000D03*
X166760000Y-83100000D03*
X166760000Y-85640000D03*
X166760000Y-88180000D03*
X166760000Y-90720000D03*
X166760000Y-93260000D03*
X164220000Y-80560000D03*
X164220000Y-83100000D03*
X164220000Y-85640000D03*
X164220000Y-88180000D03*
X164220000Y-90720000D03*
X164220000Y-93260000D03*
X161680000Y-80560000D03*
X161680000Y-83100000D03*
X161680000Y-85640000D03*
X161680000Y-88180000D03*
X161680000Y-90720000D03*
X161680000Y-93260000D03*
X159140000Y-80560000D03*
X159140000Y-83100000D03*
X159140000Y-85640000D03*
X159140000Y-88180000D03*
X159140000Y-90720000D03*
X159140000Y-93260000D03*
X156600000Y-80560000D03*
X156600000Y-83100000D03*
X156600000Y-85640000D03*
X156600000Y-88180000D03*
X156600000Y-90720000D03*
X156600000Y-93260000D03*
X154060000Y-80560000D03*
X154060000Y-83100000D03*
X154060000Y-85640000D03*
X154060000Y-88180000D03*
X154060000Y-90720000D03*
X154060000Y-93260000D03*
X151520000Y-80560000D03*
X151520000Y-83100000D03*
X151520000Y-85640000D03*
X151520000Y-88180000D03*
X151520000Y-90720000D03*
X151520000Y-93260000D03*
X148980000Y-80560000D03*
X148980000Y-83100000D03*
X148980000Y-85640000D03*
X148980000Y-88180000D03*
X148980000Y-90720000D03*
X148980000Y-93260000D03*
X146440000Y-80560000D03*
X146440000Y-83100000D03*
X146440000Y-85640000D03*
X146440000Y-88180000D03*
X146440000Y-90720000D03*
X146440000Y-93260000D03*
X143900000Y-80560000D03*
X143900000Y-83100000D03*
X143900000Y-85640000D03*
X143900000Y-88180000D03*
X143900000Y-90720000D03*
X143900000Y-93260000D03*
X141360000Y-80560000D03*
X141360000Y-83100000D03*
X141360000Y-85640000D03*
X141360000Y-88180000D03*
X141360000Y-90720000D03*
X141360000Y-93260000D03*
X138820000Y-80560000D03*
X138820000Y-83100000D03*
X138820000Y-85640000D03*
X138820000Y-88180000D03*
X138820000Y-90720000D03*
X138820000Y-93260000D03*
X136280000Y-80560000D03*
X136280000Y-83100000D03*
X136280000Y-85640000D03*
X136280000Y-88180000D03*
X136280000Y-90720000D03*
X136280000Y-93260000D03*
X133740000Y-80560000D03*
X133740000Y-83100000D03*
X133740000Y-85640000D03*
X133740000Y-88180000D03*
X133740000Y-90720000D03*
X133740000Y-93260000D03*
X131200000Y-80560000D03*
X131200000Y-83100000D03*
X131200000Y-85640000D03*
X131200000Y-88180000D03*
X131200000Y-90720000D03*
X131200000Y-93260000D03*
X128660000Y-80560000D03*
X128660000Y-83100000D03*
X128660000Y-85640000D03*
X128660000Y-88180000D03*
X128660000Y-90720000D03*
X128660000Y-93260000D03*
X126120000Y-80560000D03*
X126120000Y-83100000D03*
X126120000Y-85640000D03*
X126120000Y-88180000D03*
X126120000Y-90720000D03*
X126120000Y-93260000D03*
X123580000Y-80560000D03*
X123580000Y-83100000D03*
X123580000Y-85640000D03*
X123580000Y-88180000D03*
X123580000Y-90720000D03*
X123580000Y-93260000D03*
X121040000Y-80560000D03*
X121040000Y-83100000D03*
X121040000Y-85640000D03*
X121040000Y-88180000D03*
X121040000Y-90720000D03*
X121040000Y-93260000D03*
D10*
X169300000Y-98340000D03*
X169300000Y-100880000D03*
X169300000Y-103420000D03*
X169300000Y-105960000D03*
X169300000Y-108500000D03*
X169300000Y-111040000D03*
D11*
X166760000Y-98340000D03*
X166760000Y-100880000D03*
X166760000Y-103420000D03*
X166760000Y-105960000D03*
X166760000Y-108500000D03*
X166760000Y-111040000D03*
X164220000Y-98340000D03*
X164220000Y-100880000D03*
X164220000Y-103420000D03*
X164220000Y-105960000D03*
X164220000Y-108500000D03*
X164220000Y-111040000D03*
X161680000Y-98340000D03*
X161680000Y-100880000D03*
X161680000Y-103420000D03*
X161680000Y-105960000D03*
X161680000Y-108500000D03*
X161680000Y-111040000D03*
X159140000Y-98340000D03*
X159140000Y-100880000D03*
X159140000Y-103420000D03*
X159140000Y-105960000D03*
X159140000Y-108500000D03*
X159140000Y-111040000D03*
X156600000Y-98340000D03*
X156600000Y-100880000D03*
X156600000Y-103420000D03*
X156600000Y-105960000D03*
X156600000Y-108500000D03*
X156600000Y-111040000D03*
X154060000Y-98340000D03*
X154060000Y-100880000D03*
X154060000Y-103420000D03*
X154060000Y-105960000D03*
X154060000Y-108500000D03*
X154060000Y-111040000D03*
X151520000Y-98340000D03*
X151520000Y-100880000D03*
X151520000Y-103420000D03*
X151520000Y-105960000D03*
X151520000Y-108500000D03*
X151520000Y-111040000D03*
X148980000Y-98340000D03*
X148980000Y-100880000D03*
X148980000Y-103420000D03*
X148980000Y-105960000D03*
X148980000Y-108500000D03*
X148980000Y-111040000D03*
X146440000Y-98340000D03*
X146440000Y-100880000D03*
X146440000Y-103420000D03*
X146440000Y-105960000D03*
X146440000Y-108500000D03*
X146440000Y-111040000D03*
X143900000Y-98340000D03*
X143900000Y-100880000D03*
X143900000Y-103420000D03*
X143900000Y-105960000D03*
X143900000Y-108500000D03*
X143900000Y-111040000D03*
X141360000Y-98340000D03*
X141360000Y-100880000D03*
X141360000Y-103420000D03*
X141360000Y-105960000D03*
X141360000Y-108500000D03*
X141360000Y-111040000D03*
X138820000Y-98340000D03*
X138820000Y-100880000D03*
X138820000Y-103420000D03*
X138820000Y-105960000D03*
X138820000Y-108500000D03*
X138820000Y-111040000D03*
X136280000Y-98340000D03*
X136280000Y-100880000D03*
X136280000Y-103420000D03*
X136280000Y-105960000D03*
X136280000Y-108500000D03*
X136280000Y-111040000D03*
X133740000Y-98340000D03*
X133740000Y-100880000D03*
X133740000Y-103420000D03*
X133740000Y-105960000D03*
X133740000Y-108500000D03*
X133740000Y-111040000D03*
X131200000Y-98340000D03*
X131200000Y-100880000D03*
X131200000Y-103420000D03*
X131200000Y-105960000D03*
X131200000Y-108500000D03*
X131200000Y-111040000D03*
X128660000Y-98340000D03*
X128660000Y-100880000D03*
X128660000Y-103420000D03*
X128660000Y-105960000D03*
X128660000Y-108500000D03*
X128660000Y-111040000D03*
X126120000Y-98340000D03*
X126120000Y-100880000D03*
X126120000Y-103420000D03*
X126120000Y-105960000D03*
X126120000Y-108500000D03*
X126120000Y-111040000D03*
X123580000Y-98340000D03*
X123580000Y-100880000D03*
X123580000Y-103420000D03*
X123580000Y-105960000D03*
X123580000Y-108500000D03*
X123580000Y-111040000D03*
X121040000Y-98340000D03*
X121040000Y-100880000D03*
X121040000Y-103420000D03*
X121040000Y-105960000D03*
X121040000Y-108500000D03*
X121040000Y-111040000D03*
D12*
X121030000Y-115640000D03*
D13*
X112050000Y-85650000D03*
D11*
X114590000Y-85650000D03*
X112050000Y-88190000D03*
X114590000Y-88190000D03*
X112050000Y-90730000D03*
X114590000Y-90730000D03*
X112050000Y-93270000D03*
X114590000Y-93270000D03*
X112050000Y-95810000D03*
X114590000Y-95810000D03*
X112050000Y-98350000D03*
X114590000Y-98350000D03*
X112050000Y-100890000D03*
X114590000Y-100890000D03*
X112050000Y-103430000D03*
X114590000Y-103430000D03*
X112050000Y-105970000D03*
X114590000Y-105970000D03*
M02*
