M48
; DRILL file {KiCad 8.0.8} date 2025-02-19T14:00:39-0500
; FORMAT={-:-/ absolute / metric / decimal}
; #@! TF.CreationDate,2025-02-19T14:00:39-05:00
; #@! TF.GenerationSoftware,Kicad,Pcbnew,8.0.8
; #@! TF.FileFunction,Plated,1,2,PTH
FMAT,2
METRIC
; #@! TA.AperFunction,Plated,PTH,ComponentDrill
T1C0.700
; #@! TA.AperFunction,Plated,PTH,ComponentDrill
T2C1.000
%
G90
G05
T1
X121.03Y-115.64
T2
X112.05Y-85.65
X112.05Y-88.19
X112.05Y-90.73
X112.05Y-93.27
X112.05Y-95.81
X112.05Y-98.35
X112.05Y-100.89
X112.05Y-103.43
X112.05Y-105.97
X114.59Y-85.65
X114.59Y-88.19
X114.59Y-90.73
X114.59Y-93.27
X114.59Y-95.81
X114.59Y-98.35
X114.59Y-100.89
X114.59Y-103.43
X114.59Y-105.97
X121.04Y-80.56
X121.04Y-83.1
X121.04Y-85.64
X121.04Y-88.18
X121.04Y-90.72
X121.04Y-93.26
X121.04Y-98.34
X121.04Y-100.88
X121.04Y-103.42
X121.04Y-105.96
X121.04Y-108.5
X121.04Y-111.04
X123.58Y-80.56
X123.58Y-83.1
X123.58Y-85.64
X123.58Y-88.18
X123.58Y-90.72
X123.58Y-93.26
X123.58Y-98.34
X123.58Y-100.88
X123.58Y-103.42
X123.58Y-105.96
X123.58Y-108.5
X123.58Y-111.04
X126.12Y-80.56
X126.12Y-83.1
X126.12Y-85.64
X126.12Y-88.18
X126.12Y-90.72
X126.12Y-93.26
X126.12Y-98.34
X126.12Y-100.88
X126.12Y-103.42
X126.12Y-105.96
X126.12Y-108.5
X126.12Y-111.04
X128.66Y-80.56
X128.66Y-83.1
X128.66Y-85.64
X128.66Y-88.18
X128.66Y-90.72
X128.66Y-93.26
X128.66Y-98.34
X128.66Y-100.88
X128.66Y-103.42
X128.66Y-105.96
X128.66Y-108.5
X128.66Y-111.04
X131.2Y-80.56
X131.2Y-83.1
X131.2Y-85.64
X131.2Y-88.18
X131.2Y-90.72
X131.2Y-93.26
X131.2Y-98.34
X131.2Y-100.88
X131.2Y-103.42
X131.2Y-105.96
X131.2Y-108.5
X131.2Y-111.04
X133.74Y-80.56
X133.74Y-83.1
X133.74Y-85.64
X133.74Y-88.18
X133.74Y-90.72
X133.74Y-93.26
X133.74Y-98.34
X133.74Y-100.88
X133.74Y-103.42
X133.74Y-105.96
X133.74Y-108.5
X133.74Y-111.04
X136.28Y-80.56
X136.28Y-83.1
X136.28Y-85.64
X136.28Y-88.18
X136.28Y-90.72
X136.28Y-93.26
X136.28Y-98.34
X136.28Y-100.88
X136.28Y-103.42
X136.28Y-105.96
X136.28Y-108.5
X136.28Y-111.04
X138.82Y-80.56
X138.82Y-83.1
X138.82Y-85.64
X138.82Y-88.18
X138.82Y-90.72
X138.82Y-93.26
X138.82Y-98.34
X138.82Y-100.88
X138.82Y-103.42
X138.82Y-105.96
X138.82Y-108.5
X138.82Y-111.04
X141.36Y-80.56
X141.36Y-83.1
X141.36Y-85.64
X141.36Y-88.18
X141.36Y-90.72
X141.36Y-93.26
X141.36Y-98.34
X141.36Y-100.88
X141.36Y-103.42
X141.36Y-105.96
X141.36Y-108.5
X141.36Y-111.04
X143.9Y-80.56
X143.9Y-83.1
X143.9Y-85.64
X143.9Y-88.18
X143.9Y-90.72
X143.9Y-93.26
X143.9Y-98.34
X143.9Y-100.88
X143.9Y-103.42
X143.9Y-105.96
X143.9Y-108.5
X143.9Y-111.04
X146.44Y-80.56
X146.44Y-83.1
X146.44Y-85.64
X146.44Y-88.18
X146.44Y-90.72
X146.44Y-93.26
X146.44Y-98.34
X146.44Y-100.88
X146.44Y-103.42
X146.44Y-105.96
X146.44Y-108.5
X146.44Y-111.04
X148.98Y-80.56
X148.98Y-83.1
X148.98Y-85.64
X148.98Y-88.18
X148.98Y-90.72
X148.98Y-93.26
X148.98Y-98.34
X148.98Y-100.88
X148.98Y-103.42
X148.98Y-105.96
X148.98Y-108.5
X148.98Y-111.04
X151.52Y-80.56
X151.52Y-83.1
X151.52Y-85.64
X151.52Y-88.18
X151.52Y-90.72
X151.52Y-93.26
X151.52Y-98.34
X151.52Y-100.88
X151.52Y-103.42
X151.52Y-105.96
X151.52Y-108.5
X151.52Y-111.04
X154.06Y-80.56
X154.06Y-83.1
X154.06Y-85.64
X154.06Y-88.18
X154.06Y-90.72
X154.06Y-93.26
X154.06Y-98.34
X154.06Y-100.88
X154.06Y-103.42
X154.06Y-105.96
X154.06Y-108.5
X154.06Y-111.04
X156.6Y-80.56
X156.6Y-83.1
X156.6Y-85.64
X156.6Y-88.18
X156.6Y-90.72
X156.6Y-93.26
X156.6Y-98.34
X156.6Y-100.88
X156.6Y-103.42
X156.6Y-105.96
X156.6Y-108.5
X156.6Y-111.04
X159.14Y-80.56
X159.14Y-83.1
X159.14Y-85.64
X159.14Y-88.18
X159.14Y-90.72
X159.14Y-93.26
X159.14Y-98.34
X159.14Y-100.88
X159.14Y-103.42
X159.14Y-105.96
X159.14Y-108.5
X159.14Y-111.04
X161.68Y-80.56
X161.68Y-83.1
X161.68Y-85.64
X161.68Y-88.18
X161.68Y-90.72
X161.68Y-93.26
X161.68Y-98.34
X161.68Y-100.88
X161.68Y-103.42
X161.68Y-105.96
X161.68Y-108.5
X161.68Y-111.04
X164.22Y-80.56
X164.22Y-83.1
X164.22Y-85.64
X164.22Y-88.18
X164.22Y-90.72
X164.22Y-93.26
X164.22Y-98.34
X164.22Y-100.88
X164.22Y-103.42
X164.22Y-105.96
X164.22Y-108.5
X164.22Y-111.04
X166.76Y-80.56
X166.76Y-83.1
X166.76Y-85.64
X166.76Y-88.18
X166.76Y-90.72
X166.76Y-93.26
X166.76Y-98.34
X166.76Y-100.88
X166.76Y-103.42
X166.76Y-105.96
X166.76Y-108.5
X166.76Y-111.04
X169.3Y-80.56
X169.3Y-83.1
X169.3Y-85.64
X169.3Y-88.18
X169.3Y-90.72
X169.3Y-93.26
X169.3Y-98.34
X169.3Y-100.88
X169.3Y-103.42
X169.3Y-105.96
X169.3Y-108.5
X169.3Y-111.04
M30
