G04 #@! TF.GenerationSoftware,KiCad,Pcbnew,8.0.8*
G04 #@! TF.CreationDate,2025-02-19T14:00:37-05:00*
G04 #@! TF.ProjectId,plot_gerbers,706c6f74-5f67-4657-9262-6572732e6b69,rev?*
G04 #@! TF.SameCoordinates,Original*
G04 #@! TF.FileFunction,Legend,Bot*
G04 #@! TF.FilePolarity,Positive*
%FSLAX46Y46*%
G04 Gerber Fmt 4.6, Leading zero omitted, Abs format (unit mm)*
G04 Created by KiCad (PCBNEW 8.0.8) date 2025-02-19 14:00:37*
%MOMM*%
%LPD*%
G01*
G04 APERTURE LIST*
%ADD10C,0.100000*%
%ADD11C,1.700000*%
%ADD12O,1.700000X1.700000*%
%ADD13R,1.500000X1.500000*%
%ADD14R,1.700000X1.700000*%
G04 APERTURE END LIST*
D10*
X160989598Y-95232419D02*
X160989598Y-95946704D01*
X160989598Y-95946704D02*
X160941979Y-96089561D01*
X160941979Y-96089561D02*
X160846741Y-96184800D01*
X160846741Y-96184800D02*
X160703884Y-96232419D01*
X160703884Y-96232419D02*
X160608646Y-96232419D01*
X161941979Y-96232419D02*
X161465789Y-96232419D01*
X161465789Y-96232419D02*
X161465789Y-95232419D01*
X162846741Y-96137180D02*
X162799122Y-96184800D01*
X162799122Y-96184800D02*
X162656265Y-96232419D01*
X162656265Y-96232419D02*
X162561027Y-96232419D01*
X162561027Y-96232419D02*
X162418170Y-96184800D01*
X162418170Y-96184800D02*
X162322932Y-96089561D01*
X162322932Y-96089561D02*
X162275313Y-95994323D01*
X162275313Y-95994323D02*
X162227694Y-95803847D01*
X162227694Y-95803847D02*
X162227694Y-95660990D01*
X162227694Y-95660990D02*
X162275313Y-95470514D01*
X162275313Y-95470514D02*
X162322932Y-95375276D01*
X162322932Y-95375276D02*
X162418170Y-95280038D01*
X162418170Y-95280038D02*
X162561027Y-95232419D01*
X162561027Y-95232419D02*
X162656265Y-95232419D01*
X162656265Y-95232419D02*
X162799122Y-95280038D01*
X162799122Y-95280038D02*
X162846741Y-95327657D01*
X163561027Y-95232419D02*
X163561027Y-95946704D01*
X163561027Y-95946704D02*
X163513408Y-96089561D01*
X163513408Y-96089561D02*
X163418170Y-96184800D01*
X163418170Y-96184800D02*
X163275313Y-96232419D01*
X163275313Y-96232419D02*
X163180075Y-96232419D01*
X164513408Y-96232419D02*
X164037218Y-96232419D01*
X164037218Y-96232419D02*
X164037218Y-95232419D01*
X165418170Y-96137180D02*
X165370551Y-96184800D01*
X165370551Y-96184800D02*
X165227694Y-96232419D01*
X165227694Y-96232419D02*
X165132456Y-96232419D01*
X165132456Y-96232419D02*
X164989599Y-96184800D01*
X164989599Y-96184800D02*
X164894361Y-96089561D01*
X164894361Y-96089561D02*
X164846742Y-95994323D01*
X164846742Y-95994323D02*
X164799123Y-95803847D01*
X164799123Y-95803847D02*
X164799123Y-95660990D01*
X164799123Y-95660990D02*
X164846742Y-95470514D01*
X164846742Y-95470514D02*
X164894361Y-95375276D01*
X164894361Y-95375276D02*
X164989599Y-95280038D01*
X164989599Y-95280038D02*
X165132456Y-95232419D01*
X165132456Y-95232419D02*
X165227694Y-95232419D01*
X165227694Y-95232419D02*
X165370551Y-95280038D01*
X165370551Y-95280038D02*
X165418170Y-95327657D01*
X166132456Y-95232419D02*
X166132456Y-95946704D01*
X166132456Y-95946704D02*
X166084837Y-96089561D01*
X166084837Y-96089561D02*
X165989599Y-96184800D01*
X165989599Y-96184800D02*
X165846742Y-96232419D01*
X165846742Y-96232419D02*
X165751504Y-96232419D01*
X167084837Y-96232419D02*
X166608647Y-96232419D01*
X166608647Y-96232419D02*
X166608647Y-95232419D01*
X167989599Y-96137180D02*
X167941980Y-96184800D01*
X167941980Y-96184800D02*
X167799123Y-96232419D01*
X167799123Y-96232419D02*
X167703885Y-96232419D01*
X167703885Y-96232419D02*
X167561028Y-96184800D01*
X167561028Y-96184800D02*
X167465790Y-96089561D01*
X167465790Y-96089561D02*
X167418171Y-95994323D01*
X167418171Y-95994323D02*
X167370552Y-95803847D01*
X167370552Y-95803847D02*
X167370552Y-95660990D01*
X167370552Y-95660990D02*
X167418171Y-95470514D01*
X167418171Y-95470514D02*
X167465790Y-95375276D01*
X167465790Y-95375276D02*
X167561028Y-95280038D01*
X167561028Y-95280038D02*
X167703885Y-95232419D01*
X167703885Y-95232419D02*
X167799123Y-95232419D01*
X167799123Y-95232419D02*
X167941980Y-95280038D01*
X167941980Y-95280038D02*
X167989599Y-95327657D01*
X168703885Y-95232419D02*
X168703885Y-95946704D01*
X168703885Y-95946704D02*
X168656266Y-96089561D01*
X168656266Y-96089561D02*
X168561028Y-96184800D01*
X168561028Y-96184800D02*
X168418171Y-96232419D01*
X168418171Y-96232419D02*
X168322933Y-96232419D01*
X169656266Y-96232419D02*
X169180076Y-96232419D01*
X169180076Y-96232419D02*
X169180076Y-95232419D01*
X170561028Y-96137180D02*
X170513409Y-96184800D01*
X170513409Y-96184800D02*
X170370552Y-96232419D01*
X170370552Y-96232419D02*
X170275314Y-96232419D01*
X170275314Y-96232419D02*
X170132457Y-96184800D01*
X170132457Y-96184800D02*
X170037219Y-96089561D01*
X170037219Y-96089561D02*
X169989600Y-95994323D01*
X169989600Y-95994323D02*
X169941981Y-95803847D01*
X169941981Y-95803847D02*
X169941981Y-95660990D01*
X169941981Y-95660990D02*
X169989600Y-95470514D01*
X169989600Y-95470514D02*
X170037219Y-95375276D01*
X170037219Y-95375276D02*
X170132457Y-95280038D01*
X170132457Y-95280038D02*
X170275314Y-95232419D01*
X170275314Y-95232419D02*
X170370552Y-95232419D01*
X170370552Y-95232419D02*
X170513409Y-95280038D01*
X170513409Y-95280038D02*
X170561028Y-95327657D01*
%LPC*%
D11*
X169300000Y-80560000D03*
X169300000Y-83100000D03*
X169300000Y-85640000D03*
X169300000Y-88180000D03*
X169300000Y-90720000D03*
X169300000Y-93260000D03*
D12*
X166760000Y-80560000D03*
X166760000Y-83100000D03*
X166760000Y-85640000D03*
X166760000Y-88180000D03*
X166760000Y-90720000D03*
X166760000Y-93260000D03*
X164220000Y-80560000D03*
X164220000Y-83100000D03*
X164220000Y-85640000D03*
X164220000Y-88180000D03*
X164220000Y-90720000D03*
X164220000Y-93260000D03*
X161680000Y-80560000D03*
X161680000Y-83100000D03*
X161680000Y-85640000D03*
X161680000Y-88180000D03*
X161680000Y-90720000D03*
X161680000Y-93260000D03*
X159140000Y-80560000D03*
X159140000Y-83100000D03*
X159140000Y-85640000D03*
X159140000Y-88180000D03*
X159140000Y-90720000D03*
X159140000Y-93260000D03*
X156600000Y-80560000D03*
X156600000Y-83100000D03*
X156600000Y-85640000D03*
X156600000Y-88180000D03*
X156600000Y-90720000D03*
X156600000Y-93260000D03*
X154060000Y-80560000D03*
X154060000Y-83100000D03*
X154060000Y-85640000D03*
X154060000Y-88180000D03*
X154060000Y-90720000D03*
X154060000Y-93260000D03*
X151520000Y-80560000D03*
X151520000Y-83100000D03*
X151520000Y-85640000D03*
X151520000Y-88180000D03*
X151520000Y-90720000D03*
X151520000Y-93260000D03*
X148980000Y-80560000D03*
X148980000Y-83100000D03*
X148980000Y-85640000D03*
X148980000Y-88180000D03*
X148980000Y-90720000D03*
X148980000Y-93260000D03*
X146440000Y-80560000D03*
X146440000Y-83100000D03*
X146440000Y-85640000D03*
X146440000Y-88180000D03*
X146440000Y-90720000D03*
X146440000Y-93260000D03*
X143900000Y-80560000D03*
X143900000Y-83100000D03*
X143900000Y-85640000D03*
X143900000Y-88180000D03*
X143900000Y-90720000D03*
X143900000Y-93260000D03*
X141360000Y-80560000D03*
X141360000Y-83100000D03*
X141360000Y-85640000D03*
X141360000Y-88180000D03*
X141360000Y-90720000D03*
X141360000Y-93260000D03*
X138820000Y-80560000D03*
X138820000Y-83100000D03*
X138820000Y-85640000D03*
X138820000Y-88180000D03*
X138820000Y-90720000D03*
X138820000Y-93260000D03*
X136280000Y-80560000D03*
X136280000Y-83100000D03*
X136280000Y-85640000D03*
X136280000Y-88180000D03*
X136280000Y-90720000D03*
X136280000Y-93260000D03*
X133740000Y-80560000D03*
X133740000Y-83100000D03*
X133740000Y-85640000D03*
X133740000Y-88180000D03*
X133740000Y-90720000D03*
X133740000Y-93260000D03*
X131200000Y-80560000D03*
X131200000Y-83100000D03*
X131200000Y-85640000D03*
X131200000Y-88180000D03*
X131200000Y-90720000D03*
X131200000Y-93260000D03*
X128660000Y-80560000D03*
X128660000Y-83100000D03*
X128660000Y-85640000D03*
X128660000Y-88180000D03*
X128660000Y-90720000D03*
X128660000Y-93260000D03*
X126120000Y-80560000D03*
X126120000Y-83100000D03*
X126120000Y-85640000D03*
X126120000Y-88180000D03*
X126120000Y-90720000D03*
X126120000Y-93260000D03*
X123580000Y-80560000D03*
X123580000Y-83100000D03*
X123580000Y-85640000D03*
X123580000Y-88180000D03*
X123580000Y-90720000D03*
X123580000Y-93260000D03*
X121040000Y-80560000D03*
X121040000Y-83100000D03*
X121040000Y-85640000D03*
X121040000Y-88180000D03*
X121040000Y-90720000D03*
X121040000Y-93260000D03*
D11*
X169300000Y-98340000D03*
X169300000Y-100880000D03*
X169300000Y-103420000D03*
X169300000Y-105960000D03*
X169300000Y-108500000D03*
X169300000Y-111040000D03*
D12*
X166760000Y-98340000D03*
X166760000Y-100880000D03*
X166760000Y-103420000D03*
X166760000Y-105960000D03*
X166760000Y-108500000D03*
X166760000Y-111040000D03*
X164220000Y-98340000D03*
X164220000Y-100880000D03*
X164220000Y-103420000D03*
X164220000Y-105960000D03*
X164220000Y-108500000D03*
X164220000Y-111040000D03*
X161680000Y-98340000D03*
X161680000Y-100880000D03*
X161680000Y-103420000D03*
X161680000Y-105960000D03*
X161680000Y-108500000D03*
X161680000Y-111040000D03*
X159140000Y-98340000D03*
X159140000Y-100880000D03*
X159140000Y-103420000D03*
X159140000Y-105960000D03*
X159140000Y-108500000D03*
X159140000Y-111040000D03*
X156600000Y-98340000D03*
X156600000Y-100880000D03*
X156600000Y-103420000D03*
X156600000Y-105960000D03*
X156600000Y-108500000D03*
X156600000Y-111040000D03*
X154060000Y-98340000D03*
X154060000Y-100880000D03*
X154060000Y-103420000D03*
X154060000Y-105960000D03*
X154060000Y-108500000D03*
X154060000Y-111040000D03*
X151520000Y-98340000D03*
X151520000Y-100880000D03*
X151520000Y-103420000D03*
X151520000Y-105960000D03*
X151520000Y-108500000D03*
X151520000Y-111040000D03*
X148980000Y-98340000D03*
X148980000Y-100880000D03*
X148980000Y-103420000D03*
X148980000Y-105960000D03*
X148980000Y-108500000D03*
X148980000Y-111040000D03*
X146440000Y-98340000D03*
X146440000Y-100880000D03*
X146440000Y-103420000D03*
X146440000Y-105960000D03*
X146440000Y-108500000D03*
X146440000Y-111040000D03*
X143900000Y-98340000D03*
X143900000Y-100880000D03*
X143900000Y-103420000D03*
X143900000Y-105960000D03*
X143900000Y-108500000D03*
X143900000Y-111040000D03*
X141360000Y-98340000D03*
X141360000Y-100880000D03*
X141360000Y-103420000D03*
X141360000Y-105960000D03*
X141360000Y-108500000D03*
X141360000Y-111040000D03*
X138820000Y-98340000D03*
X138820000Y-100880000D03*
X138820000Y-103420000D03*
X138820000Y-105960000D03*
X138820000Y-108500000D03*
X138820000Y-111040000D03*
X136280000Y-98340000D03*
X136280000Y-100880000D03*
X136280000Y-103420000D03*
X136280000Y-105960000D03*
X136280000Y-108500000D03*
X136280000Y-111040000D03*
X133740000Y-98340000D03*
X133740000Y-100880000D03*
X133740000Y-103420000D03*
X133740000Y-105960000D03*
X133740000Y-108500000D03*
X133740000Y-111040000D03*
X131200000Y-98340000D03*
X131200000Y-100880000D03*
X131200000Y-103420000D03*
X131200000Y-105960000D03*
X131200000Y-108500000D03*
X131200000Y-111040000D03*
X128660000Y-98340000D03*
X128660000Y-100880000D03*
X128660000Y-103420000D03*
X128660000Y-105960000D03*
X128660000Y-108500000D03*
X128660000Y-111040000D03*
X126120000Y-98340000D03*
X126120000Y-100880000D03*
X126120000Y-103420000D03*
X126120000Y-105960000D03*
X126120000Y-108500000D03*
X126120000Y-111040000D03*
X123580000Y-98340000D03*
X123580000Y-100880000D03*
X123580000Y-103420000D03*
X123580000Y-105960000D03*
X123580000Y-108500000D03*
X123580000Y-111040000D03*
X121040000Y-98340000D03*
X121040000Y-100880000D03*
X121040000Y-103420000D03*
X121040000Y-105960000D03*
X121040000Y-108500000D03*
X121040000Y-111040000D03*
D13*
X121030000Y-115640000D03*
D14*
X112050000Y-85650000D03*
D12*
X114590000Y-85650000D03*
X112050000Y-88190000D03*
X114590000Y-88190000D03*
X112050000Y-90730000D03*
X114590000Y-90730000D03*
X112050000Y-93270000D03*
X114590000Y-93270000D03*
X112050000Y-95810000D03*
X114590000Y-95810000D03*
X112050000Y-98350000D03*
X114590000Y-98350000D03*
X112050000Y-100890000D03*
X114590000Y-100890000D03*
X112050000Y-103430000D03*
X114590000Y-103430000D03*
X112050000Y-105970000D03*
X114590000Y-105970000D03*
%LPD*%
M02*
