G04 #@! TF.GenerationSoftware,KiCad,Pcbnew,8.0.8*
G04 #@! TF.CreationDate,2025-02-19T14:03:04-05:00*
G04 #@! TF.ProjectId,plot_gerbers,706c6f74-5f67-4657-9262-6572732e6b69,rev?*
G04 #@! TF.SameCoordinates,Original*
G04 #@! TF.FileFunction,Profile,NP*
%FSLAX46Y46*%
G04 Gerber Fmt 4.6, Leading zero omitted, Abs format (unit mm)*
G04 Created by KiCad (PCBNEW 8.0.8) date 2025-02-19 14:03:04*
%MOMM*%
%LPD*%
G01*
G04 APERTURE LIST*
G04 #@! TA.AperFunction,Profile*
%ADD10C,0.050000*%
G04 #@! TD*
G04 APERTURE END LIST*
D10*
X180740000Y-86530000D02*
G75*
G02*
X179540000Y-85330000I0J1200000D01*
G01*
X114440000Y-120030000D02*
X113190000Y-120030000D01*
X115640000Y-85330000D02*
G75*
G02*
X114440000Y-86530000I-1200099J99D01*
G01*
X179540000Y-118830000D02*
G75*
G02*
X180740000Y-117630000I1200100J-100D01*
G01*
X114440000Y-84130000D02*
G75*
G02*
X115640000Y-85330000I0J-1200000D01*
G01*
X179540000Y-122730000D02*
G75*
G02*
X180740000Y-121530000I1200100J-100D01*
G01*
X180740000Y-121530000D02*
X181990000Y-121530000D01*
X180740000Y-135180000D02*
X180740000Y-123930000D01*
X114440000Y-121530000D02*
G75*
G02*
X115640000Y-122730000I0J-1200000D01*
G01*
X180740000Y-88030000D02*
X181990000Y-88030000D01*
X181990000Y-86530000D02*
X181990000Y-88030000D01*
X114440000Y-88030000D02*
X113190000Y-88030000D01*
X115640000Y-118830000D02*
G75*
G02*
X114440000Y-120030000I-1200099J99D01*
G01*
X180740000Y-120030000D02*
G75*
G02*
X179540000Y-118830000I0J1200000D01*
G01*
X179540000Y-85330000D02*
G75*
G02*
X180740000Y-84130000I1200100J-100D01*
G01*
X180740000Y-84130000D02*
X180740000Y-72880000D01*
X114440000Y-86530000D02*
X113190000Y-86530000D01*
X114440000Y-117630000D02*
G75*
G02*
X115640000Y-118830000I0J-1200000D01*
G01*
X114440000Y-72880000D02*
X114440000Y-84130000D01*
X114440000Y-135180000D02*
X180740000Y-135180000D01*
X114440000Y-123930000D02*
X114440000Y-135180000D01*
X180740000Y-123930000D02*
G75*
G02*
X179540000Y-122730000I0J1200000D01*
G01*
X179540000Y-89230000D02*
G75*
G02*
X180740000Y-88030000I1200100J-100D01*
G01*
X115640000Y-122730000D02*
G75*
G02*
X114440000Y-123930000I-1200099J99D01*
G01*
X180740000Y-86530000D02*
X181990000Y-86530000D01*
X113190000Y-88030000D02*
X113190000Y-86530000D01*
X114440000Y-121530000D02*
X113190000Y-121530000D01*
X181990000Y-120030000D02*
X181990000Y-121530000D01*
X180740000Y-117630000D02*
X180740000Y-90430000D01*
X114440000Y-72880000D02*
X180740000Y-72880000D01*
X180740000Y-120030000D02*
X181990000Y-120030000D01*
X114440000Y-88030000D02*
G75*
G02*
X115640000Y-89230000I0J-1200000D01*
G01*
X115640000Y-89230000D02*
G75*
G02*
X114440000Y-90430000I-1200099J99D01*
G01*
X114440000Y-90430000D02*
X114440000Y-117630000D01*
X180740000Y-90430000D02*
G75*
G02*
X179540000Y-89230000I0J1200000D01*
G01*
X113190000Y-121530000D02*
X113190000Y-120030000D01*
M02*
