%TF.GenerationSoftware,KiCad,Pcbnew,8.0.8*%
%TF.CreationDate,2025-02-19T14:03:17-05:00*%
%TF.ProjectId,plot_gerbers,706c6f74-5f67-4657-9262-6572732e6b69,rev?*%
%TF.SameCoordinates,Original*%
%TF.FileFunction,Drillmap*%
%TF.FilePolarity,Positive*%
%FSLAX45Y45*%
G04 Gerber Fmt 4.5, Leading zero omitted, Abs format (unit mm)*
G04 Created by KiCad (PCBNEW 8.0.8) date 2025-02-19 14:03:17*
%MOMM*%
%LPD*%
G01*
G04 APERTURE LIST*
%ADD10C,0.050000*%
%ADD11C,0.200000*%
G04 APERTURE END LIST*
D10*
X18074000Y-8653000D02*
G75*
G02*
X17954000Y-8533000I0J120000D01*
G01*
X11444000Y-12003000D02*
X11319000Y-12003000D01*
X11564000Y-8533000D02*
G75*
G02*
X11444000Y-8653000I-120010J10D01*
G01*
X17954000Y-11883000D02*
G75*
G02*
X18074000Y-11763000I120010J-10D01*
G01*
X11444000Y-8413000D02*
G75*
G02*
X11564000Y-8533000I0J-120000D01*
G01*
X17954000Y-12273000D02*
G75*
G02*
X18074000Y-12153000I120010J-10D01*
G01*
X18074000Y-12153000D02*
X18199000Y-12153000D01*
X18074000Y-13518000D02*
X18074000Y-12393000D01*
X11444000Y-12153000D02*
G75*
G02*
X11564000Y-12273000I0J-120000D01*
G01*
X18074000Y-8803000D02*
X18199000Y-8803000D01*
X18199000Y-8653000D02*
X18199000Y-8803000D01*
X11444000Y-8803000D02*
X11319000Y-8803000D01*
X11564000Y-11883000D02*
G75*
G02*
X11444000Y-12003000I-120010J10D01*
G01*
X18074000Y-12003000D02*
G75*
G02*
X17954000Y-11883000I0J120000D01*
G01*
X17954000Y-8533000D02*
G75*
G02*
X18074000Y-8413000I120010J-10D01*
G01*
X18074000Y-8413000D02*
X18074000Y-7288000D01*
X11444000Y-8653000D02*
X11319000Y-8653000D01*
X11444000Y-11763000D02*
G75*
G02*
X11564000Y-11883000I0J-120000D01*
G01*
X11444000Y-7288000D02*
X11444000Y-8413000D01*
X11444000Y-13518000D02*
X18074000Y-13518000D01*
X11444000Y-12393000D02*
X11444000Y-13518000D01*
X18074000Y-12393000D02*
G75*
G02*
X17954000Y-12273000I0J120000D01*
G01*
X17954000Y-8923000D02*
G75*
G02*
X18074000Y-8803000I120010J-10D01*
G01*
X11564000Y-12273000D02*
G75*
G02*
X11444000Y-12393000I-120010J10D01*
G01*
X18074000Y-8653000D02*
X18199000Y-8653000D01*
X11319000Y-8803000D02*
X11319000Y-8653000D01*
X11444000Y-12153000D02*
X11319000Y-12153000D01*
X18199000Y-12003000D02*
X18199000Y-12153000D01*
X18074000Y-11763000D02*
X18074000Y-9043000D01*
X11444000Y-7288000D02*
X18074000Y-7288000D01*
X18074000Y-12003000D02*
X18199000Y-12003000D01*
X11444000Y-8803000D02*
G75*
G02*
X11564000Y-8923000I0J-120000D01*
G01*
X11564000Y-8923000D02*
G75*
G02*
X11444000Y-9043000I-120010J10D01*
G01*
X11444000Y-9043000D02*
X11444000Y-11763000D01*
X18074000Y-9043000D02*
G75*
G02*
X17954000Y-8923000I0J120000D01*
G01*
X11319000Y-12153000D02*
X11319000Y-12003000D01*
D11*
X11577277Y-13831984D02*
X11577277Y-13631984D01*
X11577277Y-13631984D02*
X11624896Y-13631984D01*
X11624896Y-13631984D02*
X11653467Y-13641508D01*
X11653467Y-13641508D02*
X11672515Y-13660555D01*
X11672515Y-13660555D02*
X11682039Y-13679603D01*
X11682039Y-13679603D02*
X11691562Y-13717698D01*
X11691562Y-13717698D02*
X11691562Y-13746269D01*
X11691562Y-13746269D02*
X11682039Y-13784365D01*
X11682039Y-13784365D02*
X11672515Y-13803412D01*
X11672515Y-13803412D02*
X11653467Y-13822460D01*
X11653467Y-13822460D02*
X11624896Y-13831984D01*
X11624896Y-13831984D02*
X11577277Y-13831984D01*
X11777277Y-13831984D02*
X11777277Y-13698650D01*
X11777277Y-13736746D02*
X11786801Y-13717698D01*
X11786801Y-13717698D02*
X11796324Y-13708174D01*
X11796324Y-13708174D02*
X11815372Y-13698650D01*
X11815372Y-13698650D02*
X11834420Y-13698650D01*
X11901086Y-13831984D02*
X11901086Y-13698650D01*
X11901086Y-13631984D02*
X11891562Y-13641508D01*
X11891562Y-13641508D02*
X11901086Y-13651031D01*
X11901086Y-13651031D02*
X11910610Y-13641508D01*
X11910610Y-13641508D02*
X11901086Y-13631984D01*
X11901086Y-13631984D02*
X11901086Y-13651031D01*
X12024896Y-13831984D02*
X12005848Y-13822460D01*
X12005848Y-13822460D02*
X11996324Y-13803412D01*
X11996324Y-13803412D02*
X11996324Y-13631984D01*
X12129658Y-13831984D02*
X12110610Y-13822460D01*
X12110610Y-13822460D02*
X12101086Y-13803412D01*
X12101086Y-13803412D02*
X12101086Y-13631984D01*
X12358229Y-13831984D02*
X12358229Y-13631984D01*
X12358229Y-13631984D02*
X12424896Y-13774841D01*
X12424896Y-13774841D02*
X12491562Y-13631984D01*
X12491562Y-13631984D02*
X12491562Y-13831984D01*
X12672515Y-13831984D02*
X12672515Y-13727222D01*
X12672515Y-13727222D02*
X12662991Y-13708174D01*
X12662991Y-13708174D02*
X12643943Y-13698650D01*
X12643943Y-13698650D02*
X12605848Y-13698650D01*
X12605848Y-13698650D02*
X12586801Y-13708174D01*
X12672515Y-13822460D02*
X12653467Y-13831984D01*
X12653467Y-13831984D02*
X12605848Y-13831984D01*
X12605848Y-13831984D02*
X12586801Y-13822460D01*
X12586801Y-13822460D02*
X12577277Y-13803412D01*
X12577277Y-13803412D02*
X12577277Y-13784365D01*
X12577277Y-13784365D02*
X12586801Y-13765317D01*
X12586801Y-13765317D02*
X12605848Y-13755793D01*
X12605848Y-13755793D02*
X12653467Y-13755793D01*
X12653467Y-13755793D02*
X12672515Y-13746269D01*
X12767753Y-13698650D02*
X12767753Y-13898650D01*
X12767753Y-13708174D02*
X12786801Y-13698650D01*
X12786801Y-13698650D02*
X12824896Y-13698650D01*
X12824896Y-13698650D02*
X12843943Y-13708174D01*
X12843943Y-13708174D02*
X12853467Y-13717698D01*
X12853467Y-13717698D02*
X12862991Y-13736746D01*
X12862991Y-13736746D02*
X12862991Y-13793888D01*
X12862991Y-13793888D02*
X12853467Y-13812936D01*
X12853467Y-13812936D02*
X12843943Y-13822460D01*
X12843943Y-13822460D02*
X12824896Y-13831984D01*
X12824896Y-13831984D02*
X12786801Y-13831984D01*
X12786801Y-13831984D02*
X12767753Y-13822460D01*
X12948705Y-13812936D02*
X12958229Y-13822460D01*
X12958229Y-13822460D02*
X12948705Y-13831984D01*
X12948705Y-13831984D02*
X12939182Y-13822460D01*
X12939182Y-13822460D02*
X12948705Y-13812936D01*
X12948705Y-13812936D02*
X12948705Y-13831984D01*
X12948705Y-13708174D02*
X12958229Y-13717698D01*
X12958229Y-13717698D02*
X12948705Y-13727222D01*
X12948705Y-13727222D02*
X12939182Y-13717698D01*
X12939182Y-13717698D02*
X12948705Y-13708174D01*
X12948705Y-13708174D02*
X12948705Y-13727222D01*
M02*
