G04 #@! TF.GenerationSoftware,KiCad,Pcbnew,8.0.8*
G04 #@! TF.CreationDate,2025-02-19T14:03:04-05:00*
G04 #@! TF.ProjectId,plot_gerbers,706c6f74-5f67-4657-9262-6572732e6b69,rev?*
G04 #@! TF.SameCoordinates,Original*
G04 #@! TF.FileFunction,Soldermask,Top*
G04 #@! TF.FilePolarity,Negative*
%FSLAX46Y46*%
G04 Gerber Fmt 4.6, Leading zero omitted, Abs format (unit mm)*
G04 Created by KiCad (PCBNEW 8.0.8) date 2025-02-19 14:03:04*
%MOMM*%
%LPD*%
G01*
G04 APERTURE LIST*
%ADD10C,1.700000*%
%ADD11O,1.700000X1.700000*%
%ADD12R,1.500000X1.500000*%
%ADD13R,1.700000X1.700000*%
G04 APERTURE END LIST*
D10*
X175620000Y-88790000D03*
X175620000Y-91330000D03*
X175620000Y-93870000D03*
X175620000Y-96410000D03*
X175620000Y-98950000D03*
X175620000Y-101490000D03*
D11*
X173080000Y-88790000D03*
X173080000Y-91330000D03*
X173080000Y-93870000D03*
X173080000Y-96410000D03*
X173080000Y-98950000D03*
X173080000Y-101490000D03*
X170540000Y-88790000D03*
X170540000Y-91330000D03*
X170540000Y-93870000D03*
X170540000Y-96410000D03*
X170540000Y-98950000D03*
X170540000Y-101490000D03*
X168000000Y-88790000D03*
X168000000Y-91330000D03*
X168000000Y-93870000D03*
X168000000Y-96410000D03*
X168000000Y-98950000D03*
X168000000Y-101490000D03*
X165460000Y-88790000D03*
X165460000Y-91330000D03*
X165460000Y-93870000D03*
X165460000Y-96410000D03*
X165460000Y-98950000D03*
X165460000Y-101490000D03*
X162920000Y-88790000D03*
X162920000Y-91330000D03*
X162920000Y-93870000D03*
X162920000Y-96410000D03*
X162920000Y-98950000D03*
X162920000Y-101490000D03*
X160380000Y-88790000D03*
X160380000Y-91330000D03*
X160380000Y-93870000D03*
X160380000Y-96410000D03*
X160380000Y-98950000D03*
X160380000Y-101490000D03*
X157840000Y-88790000D03*
X157840000Y-91330000D03*
X157840000Y-93870000D03*
X157840000Y-96410000D03*
X157840000Y-98950000D03*
X157840000Y-101490000D03*
X155300000Y-88790000D03*
X155300000Y-91330000D03*
X155300000Y-93870000D03*
X155300000Y-96410000D03*
X155300000Y-98950000D03*
X155300000Y-101490000D03*
X152760000Y-88790000D03*
X152760000Y-91330000D03*
X152760000Y-93870000D03*
X152760000Y-96410000D03*
X152760000Y-98950000D03*
X152760000Y-101490000D03*
X150220000Y-88790000D03*
X150220000Y-91330000D03*
X150220000Y-93870000D03*
X150220000Y-96410000D03*
X150220000Y-98950000D03*
X150220000Y-101490000D03*
X147680000Y-88790000D03*
X147680000Y-91330000D03*
X147680000Y-93870000D03*
X147680000Y-96410000D03*
X147680000Y-98950000D03*
X147680000Y-101490000D03*
X145140000Y-88790000D03*
X145140000Y-91330000D03*
X145140000Y-93870000D03*
X145140000Y-96410000D03*
X145140000Y-98950000D03*
X145140000Y-101490000D03*
X142600000Y-88790000D03*
X142600000Y-91330000D03*
X142600000Y-93870000D03*
X142600000Y-96410000D03*
X142600000Y-98950000D03*
X142600000Y-101490000D03*
X140060000Y-88790000D03*
X140060000Y-91330000D03*
X140060000Y-93870000D03*
X140060000Y-96410000D03*
X140060000Y-98950000D03*
X140060000Y-101490000D03*
X137520000Y-88790000D03*
X137520000Y-91330000D03*
X137520000Y-93870000D03*
X137520000Y-96410000D03*
X137520000Y-98950000D03*
X137520000Y-101490000D03*
X134980000Y-88790000D03*
X134980000Y-91330000D03*
X134980000Y-93870000D03*
X134980000Y-96410000D03*
X134980000Y-98950000D03*
X134980000Y-101490000D03*
X132440000Y-88790000D03*
X132440000Y-91330000D03*
X132440000Y-93870000D03*
X132440000Y-96410000D03*
X132440000Y-98950000D03*
X132440000Y-101490000D03*
X129900000Y-88790000D03*
X129900000Y-91330000D03*
X129900000Y-93870000D03*
X129900000Y-96410000D03*
X129900000Y-98950000D03*
X129900000Y-101490000D03*
X127360000Y-88790000D03*
X127360000Y-91330000D03*
X127360000Y-93870000D03*
X127360000Y-96410000D03*
X127360000Y-98950000D03*
X127360000Y-101490000D03*
D10*
X175620000Y-106570000D03*
X175620000Y-109110000D03*
X175620000Y-111650000D03*
X175620000Y-114190000D03*
X175620000Y-116730000D03*
X175620000Y-119270000D03*
D11*
X173080000Y-106570000D03*
X173080000Y-109110000D03*
X173080000Y-111650000D03*
X173080000Y-114190000D03*
X173080000Y-116730000D03*
X173080000Y-119270000D03*
X170540000Y-106570000D03*
X170540000Y-109110000D03*
X170540000Y-111650000D03*
X170540000Y-114190000D03*
X170540000Y-116730000D03*
X170540000Y-119270000D03*
X168000000Y-106570000D03*
X168000000Y-109110000D03*
X168000000Y-111650000D03*
X168000000Y-114190000D03*
X168000000Y-116730000D03*
X168000000Y-119270000D03*
X165460000Y-106570000D03*
X165460000Y-109110000D03*
X165460000Y-111650000D03*
X165460000Y-114190000D03*
X165460000Y-116730000D03*
X165460000Y-119270000D03*
X162920000Y-106570000D03*
X162920000Y-109110000D03*
X162920000Y-111650000D03*
X162920000Y-114190000D03*
X162920000Y-116730000D03*
X162920000Y-119270000D03*
X160380000Y-106570000D03*
X160380000Y-109110000D03*
X160380000Y-111650000D03*
X160380000Y-114190000D03*
X160380000Y-116730000D03*
X160380000Y-119270000D03*
X157840000Y-106570000D03*
X157840000Y-109110000D03*
X157840000Y-111650000D03*
X157840000Y-114190000D03*
X157840000Y-116730000D03*
X157840000Y-119270000D03*
X155300000Y-106570000D03*
X155300000Y-109110000D03*
X155300000Y-111650000D03*
X155300000Y-114190000D03*
X155300000Y-116730000D03*
X155300000Y-119270000D03*
X152760000Y-106570000D03*
X152760000Y-109110000D03*
X152760000Y-111650000D03*
X152760000Y-114190000D03*
X152760000Y-116730000D03*
X152760000Y-119270000D03*
X150220000Y-106570000D03*
X150220000Y-109110000D03*
X150220000Y-111650000D03*
X150220000Y-114190000D03*
X150220000Y-116730000D03*
X150220000Y-119270000D03*
X147680000Y-106570000D03*
X147680000Y-109110000D03*
X147680000Y-111650000D03*
X147680000Y-114190000D03*
X147680000Y-116730000D03*
X147680000Y-119270000D03*
X145140000Y-106570000D03*
X145140000Y-109110000D03*
X145140000Y-111650000D03*
X145140000Y-114190000D03*
X145140000Y-116730000D03*
X145140000Y-119270000D03*
X142600000Y-106570000D03*
X142600000Y-109110000D03*
X142600000Y-111650000D03*
X142600000Y-114190000D03*
X142600000Y-116730000D03*
X142600000Y-119270000D03*
X140060000Y-106570000D03*
X140060000Y-109110000D03*
X140060000Y-111650000D03*
X140060000Y-114190000D03*
X140060000Y-116730000D03*
X140060000Y-119270000D03*
X137520000Y-106570000D03*
X137520000Y-109110000D03*
X137520000Y-111650000D03*
X137520000Y-114190000D03*
X137520000Y-116730000D03*
X137520000Y-119270000D03*
X134980000Y-106570000D03*
X134980000Y-109110000D03*
X134980000Y-111650000D03*
X134980000Y-114190000D03*
X134980000Y-116730000D03*
X134980000Y-119270000D03*
X132440000Y-106570000D03*
X132440000Y-109110000D03*
X132440000Y-111650000D03*
X132440000Y-114190000D03*
X132440000Y-116730000D03*
X132440000Y-119270000D03*
X129900000Y-106570000D03*
X129900000Y-109110000D03*
X129900000Y-111650000D03*
X129900000Y-114190000D03*
X129900000Y-116730000D03*
X129900000Y-119270000D03*
X127360000Y-106570000D03*
X127360000Y-109110000D03*
X127360000Y-111650000D03*
X127360000Y-114190000D03*
X127360000Y-116730000D03*
X127360000Y-119270000D03*
D12*
X127410000Y-121790000D03*
D10*
X127360000Y-131840000D03*
X127360000Y-129300000D03*
X127360000Y-126760000D03*
X127360000Y-124220000D03*
D11*
X129900000Y-131840000D03*
X129900000Y-129300000D03*
X129900000Y-126760000D03*
X129900000Y-124220000D03*
X132440000Y-131840000D03*
X132440000Y-129300000D03*
X132440000Y-126760000D03*
X132440000Y-124220000D03*
X134980000Y-131840000D03*
X134980000Y-129300000D03*
X134980000Y-126760000D03*
X134980000Y-124220000D03*
X137520000Y-131840000D03*
X137520000Y-129300000D03*
X137520000Y-126760000D03*
X137520000Y-124220000D03*
X140060000Y-131840000D03*
X140060000Y-129300000D03*
X140060000Y-126760000D03*
X140060000Y-124220000D03*
X142600000Y-131840000D03*
X142600000Y-129300000D03*
X142600000Y-126760000D03*
X142600000Y-124220000D03*
X145140000Y-131840000D03*
X145140000Y-129300000D03*
X145140000Y-126760000D03*
X145140000Y-124220000D03*
X147680000Y-131840000D03*
X147680000Y-129300000D03*
X147680000Y-126760000D03*
X147680000Y-124220000D03*
X150220000Y-131840000D03*
X150220000Y-129300000D03*
X150220000Y-126760000D03*
X150220000Y-124220000D03*
X152760000Y-131840000D03*
X152760000Y-129300000D03*
X152760000Y-126760000D03*
X152760000Y-124220000D03*
X155300000Y-131840000D03*
X155300000Y-129300000D03*
X155300000Y-126760000D03*
X155300000Y-124220000D03*
X157840000Y-131840000D03*
X157840000Y-129300000D03*
X157840000Y-126760000D03*
X157840000Y-124220000D03*
X160380000Y-131840000D03*
X160380000Y-129300000D03*
X160380000Y-126760000D03*
X160380000Y-124220000D03*
X162920000Y-131840000D03*
X162920000Y-129300000D03*
X162920000Y-126760000D03*
X162920000Y-124220000D03*
X165460000Y-131840000D03*
X165460000Y-129300000D03*
X165460000Y-126760000D03*
X165460000Y-124220000D03*
X168000000Y-131840000D03*
X168000000Y-129300000D03*
X168000000Y-126760000D03*
X168000000Y-124220000D03*
X170540000Y-131840000D03*
X170540000Y-129300000D03*
X170540000Y-126760000D03*
X170540000Y-124220000D03*
X173080000Y-131840000D03*
X173080000Y-129300000D03*
X173080000Y-126760000D03*
X173080000Y-124220000D03*
X175620000Y-131840000D03*
X175620000Y-129300000D03*
X175620000Y-126760000D03*
X175620000Y-124220000D03*
D10*
X127360000Y-83840000D03*
X127360000Y-81300000D03*
X127360000Y-78760000D03*
X127360000Y-76220000D03*
D11*
X129900000Y-83840000D03*
X129900000Y-81300000D03*
X129900000Y-78760000D03*
X129900000Y-76220000D03*
X132440000Y-83840000D03*
X132440000Y-81300000D03*
X132440000Y-78760000D03*
X132440000Y-76220000D03*
X134980000Y-83840000D03*
X134980000Y-81300000D03*
X134980000Y-78760000D03*
X134980000Y-76220000D03*
X137520000Y-83840000D03*
X137520000Y-81300000D03*
X137520000Y-78760000D03*
X137520000Y-76220000D03*
X140060000Y-83840000D03*
X140060000Y-81300000D03*
X140060000Y-78760000D03*
X140060000Y-76220000D03*
X142600000Y-83840000D03*
X142600000Y-81300000D03*
X142600000Y-78760000D03*
X142600000Y-76220000D03*
X145140000Y-83840000D03*
X145140000Y-81300000D03*
X145140000Y-78760000D03*
X145140000Y-76220000D03*
X147680000Y-83840000D03*
X147680000Y-81300000D03*
X147680000Y-78760000D03*
X147680000Y-76220000D03*
X150220000Y-83840000D03*
X150220000Y-81300000D03*
X150220000Y-78760000D03*
X150220000Y-76220000D03*
X152760000Y-83840000D03*
X152760000Y-81300000D03*
X152760000Y-78760000D03*
X152760000Y-76220000D03*
X155300000Y-83840000D03*
X155300000Y-81300000D03*
X155300000Y-78760000D03*
X155300000Y-76220000D03*
X157840000Y-83840000D03*
X157840000Y-81300000D03*
X157840000Y-78760000D03*
X157840000Y-76220000D03*
X160380000Y-83840000D03*
X160380000Y-81300000D03*
X160380000Y-78760000D03*
X160380000Y-76220000D03*
X162920000Y-83840000D03*
X162920000Y-81300000D03*
X162920000Y-78760000D03*
X162920000Y-76220000D03*
X165460000Y-83840000D03*
X165460000Y-81300000D03*
X165460000Y-78760000D03*
X165460000Y-76220000D03*
X168000000Y-83840000D03*
X168000000Y-81300000D03*
X168000000Y-78760000D03*
X168000000Y-76220000D03*
X170540000Y-83840000D03*
X170540000Y-81300000D03*
X170540000Y-78760000D03*
X170540000Y-76220000D03*
X173080000Y-83840000D03*
X173080000Y-81300000D03*
X173080000Y-78760000D03*
X173080000Y-76220000D03*
X175620000Y-83840000D03*
X175620000Y-81300000D03*
X175620000Y-78760000D03*
X175620000Y-76220000D03*
D13*
X118370000Y-93880000D03*
D11*
X120910000Y-93880000D03*
X118370000Y-96420000D03*
X120910000Y-96420000D03*
X118370000Y-98960000D03*
X120910000Y-98960000D03*
X118370000Y-101500000D03*
X120910000Y-101500000D03*
X118370000Y-104040000D03*
X120910000Y-104040000D03*
X118370000Y-106580000D03*
X120910000Y-106580000D03*
X118370000Y-109120000D03*
X120910000Y-109120000D03*
X118370000Y-111660000D03*
X120910000Y-111660000D03*
X118370000Y-114200000D03*
X120910000Y-114200000D03*
M02*
