M48
; DRILL file {KiCad 8.0.8} date 2025-02-19T14:03:15-0500
; FORMAT={-:-/ absolute / metric / decimal}
; #@! TF.CreationDate,2025-02-19T14:03:15-05:00
; #@! TF.GenerationSoftware,Kicad,Pcbnew,8.0.8
; #@! TF.FileFunction,Plated,1,2,PTH
FMAT,2
METRIC
; #@! TA.AperFunction,Plated,PTH,ComponentDrill
T1C0.700
; #@! TA.AperFunction,Plated,PTH,ComponentDrill
T2C1.000
%
G90
G05
T1
X127.41Y-121.79
T2
X118.37Y-93.88
X118.37Y-96.42
X118.37Y-98.96
X118.37Y-101.5
X118.37Y-104.04
X118.37Y-106.58
X118.37Y-109.12
X118.37Y-111.66
X118.37Y-114.2
X120.91Y-93.88
X120.91Y-96.42
X120.91Y-98.96
X120.91Y-101.5
X120.91Y-104.04
X120.91Y-106.58
X120.91Y-109.12
X120.91Y-111.66
X120.91Y-114.2
X127.36Y-76.22
X127.36Y-78.76
X127.36Y-81.3
X127.36Y-83.84
X127.36Y-88.79
X127.36Y-91.33
X127.36Y-93.87
X127.36Y-96.41
X127.36Y-98.95
X127.36Y-101.49
X127.36Y-106.57
X127.36Y-109.11
X127.36Y-111.65
X127.36Y-114.19
X127.36Y-116.73
X127.36Y-119.27
X127.36Y-124.22
X127.36Y-126.76
X127.36Y-129.3
X127.36Y-131.84
X129.9Y-76.22
X129.9Y-78.76
X129.9Y-81.3
X129.9Y-83.84
X129.9Y-88.79
X129.9Y-91.33
X129.9Y-93.87
X129.9Y-96.41
X129.9Y-98.95
X129.9Y-101.49
X129.9Y-106.57
X129.9Y-109.11
X129.9Y-111.65
X129.9Y-114.19
X129.9Y-116.73
X129.9Y-119.27
X129.9Y-124.22
X129.9Y-126.76
X129.9Y-129.3
X129.9Y-131.84
X132.44Y-76.22
X132.44Y-78.76
X132.44Y-81.3
X132.44Y-83.84
X132.44Y-88.79
X132.44Y-91.33
X132.44Y-93.87
X132.44Y-96.41
X132.44Y-98.95
X132.44Y-101.49
X132.44Y-106.57
X132.44Y-109.11
X132.44Y-111.65
X132.44Y-114.19
X132.44Y-116.73
X132.44Y-119.27
X132.44Y-124.22
X132.44Y-126.76
X132.44Y-129.3
X132.44Y-131.84
X134.98Y-76.22
X134.98Y-78.76
X134.98Y-81.3
X134.98Y-83.84
X134.98Y-88.79
X134.98Y-91.33
X134.98Y-93.87
X134.98Y-96.41
X134.98Y-98.95
X134.98Y-101.49
X134.98Y-106.57
X134.98Y-109.11
X134.98Y-111.65
X134.98Y-114.19
X134.98Y-116.73
X134.98Y-119.27
X134.98Y-124.22
X134.98Y-126.76
X134.98Y-129.3
X134.98Y-131.84
X137.52Y-76.22
X137.52Y-78.76
X137.52Y-81.3
X137.52Y-83.84
X137.52Y-88.79
X137.52Y-91.33
X137.52Y-93.87
X137.52Y-96.41
X137.52Y-98.95
X137.52Y-101.49
X137.52Y-106.57
X137.52Y-109.11
X137.52Y-111.65
X137.52Y-114.19
X137.52Y-116.73
X137.52Y-119.27
X137.52Y-124.22
X137.52Y-126.76
X137.52Y-129.3
X137.52Y-131.84
X140.06Y-76.22
X140.06Y-78.76
X140.06Y-81.3
X140.06Y-83.84
X140.06Y-88.79
X140.06Y-91.33
X140.06Y-93.87
X140.06Y-96.41
X140.06Y-98.95
X140.06Y-101.49
X140.06Y-106.57
X140.06Y-109.11
X140.06Y-111.65
X140.06Y-114.19
X140.06Y-116.73
X140.06Y-119.27
X140.06Y-124.22
X140.06Y-126.76
X140.06Y-129.3
X140.06Y-131.84
X142.6Y-76.22
X142.6Y-78.76
X142.6Y-81.3
X142.6Y-83.84
X142.6Y-88.79
X142.6Y-91.33
X142.6Y-93.87
X142.6Y-96.41
X142.6Y-98.95
X142.6Y-101.49
X142.6Y-106.57
X142.6Y-109.11
X142.6Y-111.65
X142.6Y-114.19
X142.6Y-116.73
X142.6Y-119.27
X142.6Y-124.22
X142.6Y-126.76
X142.6Y-129.3
X142.6Y-131.84
X145.14Y-76.22
X145.14Y-78.76
X145.14Y-81.3
X145.14Y-83.84
X145.14Y-88.79
X145.14Y-91.33
X145.14Y-93.87
X145.14Y-96.41
X145.14Y-98.95
X145.14Y-101.49
X145.14Y-106.57
X145.14Y-109.11
X145.14Y-111.65
X145.14Y-114.19
X145.14Y-116.73
X145.14Y-119.27
X145.14Y-124.22
X145.14Y-126.76
X145.14Y-129.3
X145.14Y-131.84
X147.68Y-76.22
X147.68Y-78.76
X147.68Y-81.3
X147.68Y-83.84
X147.68Y-88.79
X147.68Y-91.33
X147.68Y-93.87
X147.68Y-96.41
X147.68Y-98.95
X147.68Y-101.49
X147.68Y-106.57
X147.68Y-109.11
X147.68Y-111.65
X147.68Y-114.19
X147.68Y-116.73
X147.68Y-119.27
X147.68Y-124.22
X147.68Y-126.76
X147.68Y-129.3
X147.68Y-131.84
X150.22Y-76.22
X150.22Y-78.76
X150.22Y-81.3
X150.22Y-83.84
X150.22Y-88.79
X150.22Y-91.33
X150.22Y-93.87
X150.22Y-96.41
X150.22Y-98.95
X150.22Y-101.49
X150.22Y-106.57
X150.22Y-109.11
X150.22Y-111.65
X150.22Y-114.19
X150.22Y-116.73
X150.22Y-119.27
X150.22Y-124.22
X150.22Y-126.76
X150.22Y-129.3
X150.22Y-131.84
X152.76Y-76.22
X152.76Y-78.76
X152.76Y-81.3
X152.76Y-83.84
X152.76Y-88.79
X152.76Y-91.33
X152.76Y-93.87
X152.76Y-96.41
X152.76Y-98.95
X152.76Y-101.49
X152.76Y-106.57
X152.76Y-109.11
X152.76Y-111.65
X152.76Y-114.19
X152.76Y-116.73
X152.76Y-119.27
X152.76Y-124.22
X152.76Y-126.76
X152.76Y-129.3
X152.76Y-131.84
X155.3Y-76.22
X155.3Y-78.76
X155.3Y-81.3
X155.3Y-83.84
X155.3Y-88.79
X155.3Y-91.33
X155.3Y-93.87
X155.3Y-96.41
X155.3Y-98.95
X155.3Y-101.49
X155.3Y-106.57
X155.3Y-109.11
X155.3Y-111.65
X155.3Y-114.19
X155.3Y-116.73
X155.3Y-119.27
X155.3Y-124.22
X155.3Y-126.76
X155.3Y-129.3
X155.3Y-131.84
X157.84Y-76.22
X157.84Y-78.76
X157.84Y-81.3
X157.84Y-83.84
X157.84Y-88.79
X157.84Y-91.33
X157.84Y-93.87
X157.84Y-96.41
X157.84Y-98.95
X157.84Y-101.49
X157.84Y-106.57
X157.84Y-109.11
X157.84Y-111.65
X157.84Y-114.19
X157.84Y-116.73
X157.84Y-119.27
X157.84Y-124.22
X157.84Y-126.76
X157.84Y-129.3
X157.84Y-131.84
X160.38Y-76.22
X160.38Y-78.76
X160.38Y-81.3
X160.38Y-83.84
X160.38Y-88.79
X160.38Y-91.33
X160.38Y-93.87
X160.38Y-96.41
X160.38Y-98.95
X160.38Y-101.49
X160.38Y-106.57
X160.38Y-109.11
X160.38Y-111.65
X160.38Y-114.19
X160.38Y-116.73
X160.38Y-119.27
X160.38Y-124.22
X160.38Y-126.76
X160.38Y-129.3
X160.38Y-131.84
X162.92Y-76.22
X162.92Y-78.76
X162.92Y-81.3
X162.92Y-83.84
X162.92Y-88.79
X162.92Y-91.33
X162.92Y-93.87
X162.92Y-96.41
X162.92Y-98.95
X162.92Y-101.49
X162.92Y-106.57
X162.92Y-109.11
X162.92Y-111.65
X162.92Y-114.19
X162.92Y-116.73
X162.92Y-119.27
X162.92Y-124.22
X162.92Y-126.76
X162.92Y-129.3
X162.92Y-131.84
X165.46Y-76.22
X165.46Y-78.76
X165.46Y-81.3
X165.46Y-83.84
X165.46Y-88.79
X165.46Y-91.33
X165.46Y-93.87
X165.46Y-96.41
X165.46Y-98.95
X165.46Y-101.49
X165.46Y-106.57
X165.46Y-109.11
X165.46Y-111.65
X165.46Y-114.19
X165.46Y-116.73
X165.46Y-119.27
X165.46Y-124.22
X165.46Y-126.76
X165.46Y-129.3
X165.46Y-131.84
X168.0Y-76.22
X168.0Y-78.76
X168.0Y-81.3
X168.0Y-83.84
X168.0Y-88.79
X168.0Y-91.33
X168.0Y-93.87
X168.0Y-96.41
X168.0Y-98.95
X168.0Y-101.49
X168.0Y-106.57
X168.0Y-109.11
X168.0Y-111.65
X168.0Y-114.19
X168.0Y-116.73
X168.0Y-119.27
X168.0Y-124.22
X168.0Y-126.76
X168.0Y-129.3
X168.0Y-131.84
X170.54Y-76.22
X170.54Y-78.76
X170.54Y-81.3
X170.54Y-83.84
X170.54Y-88.79
X170.54Y-91.33
X170.54Y-93.87
X170.54Y-96.41
X170.54Y-98.95
X170.54Y-101.49
X170.54Y-106.57
X170.54Y-109.11
X170.54Y-111.65
X170.54Y-114.19
X170.54Y-116.73
X170.54Y-119.27
X170.54Y-124.22
X170.54Y-126.76
X170.54Y-129.3
X170.54Y-131.84
X173.08Y-76.22
X173.08Y-78.76
X173.08Y-81.3
X173.08Y-83.84
X173.08Y-88.79
X173.08Y-91.33
X173.08Y-93.87
X173.08Y-96.41
X173.08Y-98.95
X173.08Y-101.49
X173.08Y-106.57
X173.08Y-109.11
X173.08Y-111.65
X173.08Y-114.19
X173.08Y-116.73
X173.08Y-119.27
X173.08Y-124.22
X173.08Y-126.76
X173.08Y-129.3
X173.08Y-131.84
X175.62Y-76.22
X175.62Y-78.76
X175.62Y-81.3
X175.62Y-83.84
X175.62Y-88.79
X175.62Y-91.33
X175.62Y-93.87
X175.62Y-96.41
X175.62Y-98.95
X175.62Y-101.49
X175.62Y-106.57
X175.62Y-109.11
X175.62Y-111.65
X175.62Y-114.19
X175.62Y-116.73
X175.62Y-119.27
X175.62Y-124.22
X175.62Y-126.76
X175.62Y-129.3
X175.62Y-131.84
M30
