%TF.GenerationSoftware,KiCad,Pcbnew,8.0.8*%
%TF.CreationDate,2025-02-19T14:03:17-05:00*%
%TF.ProjectId,plot_gerbers,706c6f74-5f67-4657-9262-6572732e6b69,rev?*%
%TF.SameCoordinates,Original*%
%TF.FileFunction,Drillmap*%
%TF.FilePolarity,Positive*%
%FSLAX45Y45*%
G04 Gerber Fmt 4.5, Leading zero omitted, Abs format (unit mm)*
G04 Created by KiCad (PCBNEW 8.0.8) date 2025-02-19 14:03:17*
%MOMM*%
%LPD*%
G01*
G04 APERTURE LIST*
%ADD10C,0.050000*%
%ADD11C,0.200000*%
%ADD12C,0.100000*%
G04 APERTURE END LIST*
D10*
X18074000Y-8653000D02*
G75*
G02*
X17954000Y-8533000I0J120000D01*
G01*
X11444000Y-12003000D02*
X11319000Y-12003000D01*
X11564000Y-8533000D02*
G75*
G02*
X11444000Y-8653000I-120010J10D01*
G01*
X17954000Y-11883000D02*
G75*
G02*
X18074000Y-11763000I120010J-10D01*
G01*
X11444000Y-8413000D02*
G75*
G02*
X11564000Y-8533000I0J-120000D01*
G01*
X17954000Y-12273000D02*
G75*
G02*
X18074000Y-12153000I120010J-10D01*
G01*
X18074000Y-12153000D02*
X18199000Y-12153000D01*
X18074000Y-13518000D02*
X18074000Y-12393000D01*
X11444000Y-12153000D02*
G75*
G02*
X11564000Y-12273000I0J-120000D01*
G01*
X18074000Y-8803000D02*
X18199000Y-8803000D01*
X18199000Y-8653000D02*
X18199000Y-8803000D01*
X11444000Y-8803000D02*
X11319000Y-8803000D01*
X11564000Y-11883000D02*
G75*
G02*
X11444000Y-12003000I-120010J10D01*
G01*
X18074000Y-12003000D02*
G75*
G02*
X17954000Y-11883000I0J120000D01*
G01*
X17954000Y-8533000D02*
G75*
G02*
X18074000Y-8413000I120010J-10D01*
G01*
X18074000Y-8413000D02*
X18074000Y-7288000D01*
X11444000Y-8653000D02*
X11319000Y-8653000D01*
X11444000Y-11763000D02*
G75*
G02*
X11564000Y-11883000I0J-120000D01*
G01*
X11444000Y-7288000D02*
X11444000Y-8413000D01*
X11444000Y-13518000D02*
X18074000Y-13518000D01*
X11444000Y-12393000D02*
X11444000Y-13518000D01*
X18074000Y-12393000D02*
G75*
G02*
X17954000Y-12273000I0J120000D01*
G01*
X17954000Y-8923000D02*
G75*
G02*
X18074000Y-8803000I120010J-10D01*
G01*
X11564000Y-12273000D02*
G75*
G02*
X11444000Y-12393000I-120010J10D01*
G01*
X18074000Y-8653000D02*
X18199000Y-8653000D01*
X11319000Y-8803000D02*
X11319000Y-8653000D01*
X11444000Y-12153000D02*
X11319000Y-12153000D01*
X18199000Y-12003000D02*
X18199000Y-12153000D01*
X18074000Y-11763000D02*
X18074000Y-9043000D01*
X11444000Y-7288000D02*
X18074000Y-7288000D01*
X18074000Y-12003000D02*
X18199000Y-12003000D01*
X11444000Y-8803000D02*
G75*
G02*
X11564000Y-8923000I0J-120000D01*
G01*
X11564000Y-8923000D02*
G75*
G02*
X11444000Y-9043000I-120010J10D01*
G01*
X11444000Y-9043000D02*
X11444000Y-11763000D01*
X18074000Y-9043000D02*
G75*
G02*
X17954000Y-8923000I0J120000D01*
G01*
X11319000Y-12153000D02*
X11319000Y-12003000D01*
D11*
D12*
X12706000Y-12144000D02*
X12776000Y-12214000D01*
X12776000Y-12144000D02*
X12706000Y-12214000D01*
X11887000Y-9388000D02*
G75*
G02*
X11787000Y-9388000I-50000J0D01*
G01*
X11787000Y-9388000D02*
G75*
G02*
X11887000Y-9388000I50000J0D01*
G01*
X11887000Y-9642000D02*
G75*
G02*
X11787000Y-9642000I-50000J0D01*
G01*
X11787000Y-9642000D02*
G75*
G02*
X11887000Y-9642000I50000J0D01*
G01*
X11887000Y-9896000D02*
G75*
G02*
X11787000Y-9896000I-50000J0D01*
G01*
X11787000Y-9896000D02*
G75*
G02*
X11887000Y-9896000I50000J0D01*
G01*
X11887000Y-10150000D02*
G75*
G02*
X11787000Y-10150000I-50000J0D01*
G01*
X11787000Y-10150000D02*
G75*
G02*
X11887000Y-10150000I50000J0D01*
G01*
X11887000Y-10404000D02*
G75*
G02*
X11787000Y-10404000I-50000J0D01*
G01*
X11787000Y-10404000D02*
G75*
G02*
X11887000Y-10404000I50000J0D01*
G01*
X11887000Y-10658000D02*
G75*
G02*
X11787000Y-10658000I-50000J0D01*
G01*
X11787000Y-10658000D02*
G75*
G02*
X11887000Y-10658000I50000J0D01*
G01*
X11887000Y-10912000D02*
G75*
G02*
X11787000Y-10912000I-50000J0D01*
G01*
X11787000Y-10912000D02*
G75*
G02*
X11887000Y-10912000I50000J0D01*
G01*
X11887000Y-11166000D02*
G75*
G02*
X11787000Y-11166000I-50000J0D01*
G01*
X11787000Y-11166000D02*
G75*
G02*
X11887000Y-11166000I50000J0D01*
G01*
X11887000Y-11420000D02*
G75*
G02*
X11787000Y-11420000I-50000J0D01*
G01*
X11787000Y-11420000D02*
G75*
G02*
X11887000Y-11420000I50000J0D01*
G01*
X12141000Y-9388000D02*
G75*
G02*
X12041000Y-9388000I-50000J0D01*
G01*
X12041000Y-9388000D02*
G75*
G02*
X12141000Y-9388000I50000J0D01*
G01*
X12141000Y-9642000D02*
G75*
G02*
X12041000Y-9642000I-50000J0D01*
G01*
X12041000Y-9642000D02*
G75*
G02*
X12141000Y-9642000I50000J0D01*
G01*
X12141000Y-9896000D02*
G75*
G02*
X12041000Y-9896000I-50000J0D01*
G01*
X12041000Y-9896000D02*
G75*
G02*
X12141000Y-9896000I50000J0D01*
G01*
X12141000Y-10150000D02*
G75*
G02*
X12041000Y-10150000I-50000J0D01*
G01*
X12041000Y-10150000D02*
G75*
G02*
X12141000Y-10150000I50000J0D01*
G01*
X12141000Y-10404000D02*
G75*
G02*
X12041000Y-10404000I-50000J0D01*
G01*
X12041000Y-10404000D02*
G75*
G02*
X12141000Y-10404000I50000J0D01*
G01*
X12141000Y-10658000D02*
G75*
G02*
X12041000Y-10658000I-50000J0D01*
G01*
X12041000Y-10658000D02*
G75*
G02*
X12141000Y-10658000I50000J0D01*
G01*
X12141000Y-10912000D02*
G75*
G02*
X12041000Y-10912000I-50000J0D01*
G01*
X12041000Y-10912000D02*
G75*
G02*
X12141000Y-10912000I50000J0D01*
G01*
X12141000Y-11166000D02*
G75*
G02*
X12041000Y-11166000I-50000J0D01*
G01*
X12041000Y-11166000D02*
G75*
G02*
X12141000Y-11166000I50000J0D01*
G01*
X12141000Y-11420000D02*
G75*
G02*
X12041000Y-11420000I-50000J0D01*
G01*
X12041000Y-11420000D02*
G75*
G02*
X12141000Y-11420000I50000J0D01*
G01*
X12786000Y-7622000D02*
G75*
G02*
X12686000Y-7622000I-50000J0D01*
G01*
X12686000Y-7622000D02*
G75*
G02*
X12786000Y-7622000I50000J0D01*
G01*
X12786000Y-7876000D02*
G75*
G02*
X12686000Y-7876000I-50000J0D01*
G01*
X12686000Y-7876000D02*
G75*
G02*
X12786000Y-7876000I50000J0D01*
G01*
X12786000Y-8130000D02*
G75*
G02*
X12686000Y-8130000I-50000J0D01*
G01*
X12686000Y-8130000D02*
G75*
G02*
X12786000Y-8130000I50000J0D01*
G01*
X12786000Y-8384000D02*
G75*
G02*
X12686000Y-8384000I-50000J0D01*
G01*
X12686000Y-8384000D02*
G75*
G02*
X12786000Y-8384000I50000J0D01*
G01*
X12786000Y-8879000D02*
G75*
G02*
X12686000Y-8879000I-50000J0D01*
G01*
X12686000Y-8879000D02*
G75*
G02*
X12786000Y-8879000I50000J0D01*
G01*
X12786000Y-9133000D02*
G75*
G02*
X12686000Y-9133000I-50000J0D01*
G01*
X12686000Y-9133000D02*
G75*
G02*
X12786000Y-9133000I50000J0D01*
G01*
X12786000Y-9387000D02*
G75*
G02*
X12686000Y-9387000I-50000J0D01*
G01*
X12686000Y-9387000D02*
G75*
G02*
X12786000Y-9387000I50000J0D01*
G01*
X12786000Y-9641000D02*
G75*
G02*
X12686000Y-9641000I-50000J0D01*
G01*
X12686000Y-9641000D02*
G75*
G02*
X12786000Y-9641000I50000J0D01*
G01*
X12786000Y-9895000D02*
G75*
G02*
X12686000Y-9895000I-50000J0D01*
G01*
X12686000Y-9895000D02*
G75*
G02*
X12786000Y-9895000I50000J0D01*
G01*
X12786000Y-10149000D02*
G75*
G02*
X12686000Y-10149000I-50000J0D01*
G01*
X12686000Y-10149000D02*
G75*
G02*
X12786000Y-10149000I50000J0D01*
G01*
X12786000Y-10657000D02*
G75*
G02*
X12686000Y-10657000I-50000J0D01*
G01*
X12686000Y-10657000D02*
G75*
G02*
X12786000Y-10657000I50000J0D01*
G01*
X12786000Y-10911000D02*
G75*
G02*
X12686000Y-10911000I-50000J0D01*
G01*
X12686000Y-10911000D02*
G75*
G02*
X12786000Y-10911000I50000J0D01*
G01*
X12786000Y-11165000D02*
G75*
G02*
X12686000Y-11165000I-50000J0D01*
G01*
X12686000Y-11165000D02*
G75*
G02*
X12786000Y-11165000I50000J0D01*
G01*
X12786000Y-11419000D02*
G75*
G02*
X12686000Y-11419000I-50000J0D01*
G01*
X12686000Y-11419000D02*
G75*
G02*
X12786000Y-11419000I50000J0D01*
G01*
X12786000Y-11673000D02*
G75*
G02*
X12686000Y-11673000I-50000J0D01*
G01*
X12686000Y-11673000D02*
G75*
G02*
X12786000Y-11673000I50000J0D01*
G01*
X12786000Y-11927000D02*
G75*
G02*
X12686000Y-11927000I-50000J0D01*
G01*
X12686000Y-11927000D02*
G75*
G02*
X12786000Y-11927000I50000J0D01*
G01*
X12786000Y-12422000D02*
G75*
G02*
X12686000Y-12422000I-50000J0D01*
G01*
X12686000Y-12422000D02*
G75*
G02*
X12786000Y-12422000I50000J0D01*
G01*
X12786000Y-12676000D02*
G75*
G02*
X12686000Y-12676000I-50000J0D01*
G01*
X12686000Y-12676000D02*
G75*
G02*
X12786000Y-12676000I50000J0D01*
G01*
X12786000Y-12930000D02*
G75*
G02*
X12686000Y-12930000I-50000J0D01*
G01*
X12686000Y-12930000D02*
G75*
G02*
X12786000Y-12930000I50000J0D01*
G01*
X12786000Y-13184000D02*
G75*
G02*
X12686000Y-13184000I-50000J0D01*
G01*
X12686000Y-13184000D02*
G75*
G02*
X12786000Y-13184000I50000J0D01*
G01*
X13040000Y-7622000D02*
G75*
G02*
X12940000Y-7622000I-50000J0D01*
G01*
X12940000Y-7622000D02*
G75*
G02*
X13040000Y-7622000I50000J0D01*
G01*
X13040000Y-7876000D02*
G75*
G02*
X12940000Y-7876000I-50000J0D01*
G01*
X12940000Y-7876000D02*
G75*
G02*
X13040000Y-7876000I50000J0D01*
G01*
X13040000Y-8130000D02*
G75*
G02*
X12940000Y-8130000I-50000J0D01*
G01*
X12940000Y-8130000D02*
G75*
G02*
X13040000Y-8130000I50000J0D01*
G01*
X13040000Y-8384000D02*
G75*
G02*
X12940000Y-8384000I-50000J0D01*
G01*
X12940000Y-8384000D02*
G75*
G02*
X13040000Y-8384000I50000J0D01*
G01*
X13040000Y-8879000D02*
G75*
G02*
X12940000Y-8879000I-50000J0D01*
G01*
X12940000Y-8879000D02*
G75*
G02*
X13040000Y-8879000I50000J0D01*
G01*
X13040000Y-9133000D02*
G75*
G02*
X12940000Y-9133000I-50000J0D01*
G01*
X12940000Y-9133000D02*
G75*
G02*
X13040000Y-9133000I50000J0D01*
G01*
X13040000Y-9387000D02*
G75*
G02*
X12940000Y-9387000I-50000J0D01*
G01*
X12940000Y-9387000D02*
G75*
G02*
X13040000Y-9387000I50000J0D01*
G01*
X13040000Y-9641000D02*
G75*
G02*
X12940000Y-9641000I-50000J0D01*
G01*
X12940000Y-9641000D02*
G75*
G02*
X13040000Y-9641000I50000J0D01*
G01*
X13040000Y-9895000D02*
G75*
G02*
X12940000Y-9895000I-50000J0D01*
G01*
X12940000Y-9895000D02*
G75*
G02*
X13040000Y-9895000I50000J0D01*
G01*
X13040000Y-10149000D02*
G75*
G02*
X12940000Y-10149000I-50000J0D01*
G01*
X12940000Y-10149000D02*
G75*
G02*
X13040000Y-10149000I50000J0D01*
G01*
X13040000Y-10657000D02*
G75*
G02*
X12940000Y-10657000I-50000J0D01*
G01*
X12940000Y-10657000D02*
G75*
G02*
X13040000Y-10657000I50000J0D01*
G01*
X13040000Y-10911000D02*
G75*
G02*
X12940000Y-10911000I-50000J0D01*
G01*
X12940000Y-10911000D02*
G75*
G02*
X13040000Y-10911000I50000J0D01*
G01*
X13040000Y-11165000D02*
G75*
G02*
X12940000Y-11165000I-50000J0D01*
G01*
X12940000Y-11165000D02*
G75*
G02*
X13040000Y-11165000I50000J0D01*
G01*
X13040000Y-11419000D02*
G75*
G02*
X12940000Y-11419000I-50000J0D01*
G01*
X12940000Y-11419000D02*
G75*
G02*
X13040000Y-11419000I50000J0D01*
G01*
X13040000Y-11673000D02*
G75*
G02*
X12940000Y-11673000I-50000J0D01*
G01*
X12940000Y-11673000D02*
G75*
G02*
X13040000Y-11673000I50000J0D01*
G01*
X13040000Y-11927000D02*
G75*
G02*
X12940000Y-11927000I-50000J0D01*
G01*
X12940000Y-11927000D02*
G75*
G02*
X13040000Y-11927000I50000J0D01*
G01*
X13040000Y-12422000D02*
G75*
G02*
X12940000Y-12422000I-50000J0D01*
G01*
X12940000Y-12422000D02*
G75*
G02*
X13040000Y-12422000I50000J0D01*
G01*
X13040000Y-12676000D02*
G75*
G02*
X12940000Y-12676000I-50000J0D01*
G01*
X12940000Y-12676000D02*
G75*
G02*
X13040000Y-12676000I50000J0D01*
G01*
X13040000Y-12930000D02*
G75*
G02*
X12940000Y-12930000I-50000J0D01*
G01*
X12940000Y-12930000D02*
G75*
G02*
X13040000Y-12930000I50000J0D01*
G01*
X13040000Y-13184000D02*
G75*
G02*
X12940000Y-13184000I-50000J0D01*
G01*
X12940000Y-13184000D02*
G75*
G02*
X13040000Y-13184000I50000J0D01*
G01*
X13294000Y-7622000D02*
G75*
G02*
X13194000Y-7622000I-50000J0D01*
G01*
X13194000Y-7622000D02*
G75*
G02*
X13294000Y-7622000I50000J0D01*
G01*
X13294000Y-7876000D02*
G75*
G02*
X13194000Y-7876000I-50000J0D01*
G01*
X13194000Y-7876000D02*
G75*
G02*
X13294000Y-7876000I50000J0D01*
G01*
X13294000Y-8130000D02*
G75*
G02*
X13194000Y-8130000I-50000J0D01*
G01*
X13194000Y-8130000D02*
G75*
G02*
X13294000Y-8130000I50000J0D01*
G01*
X13294000Y-8384000D02*
G75*
G02*
X13194000Y-8384000I-50000J0D01*
G01*
X13194000Y-8384000D02*
G75*
G02*
X13294000Y-8384000I50000J0D01*
G01*
X13294000Y-8879000D02*
G75*
G02*
X13194000Y-8879000I-50000J0D01*
G01*
X13194000Y-8879000D02*
G75*
G02*
X13294000Y-8879000I50000J0D01*
G01*
X13294000Y-9133000D02*
G75*
G02*
X13194000Y-9133000I-50000J0D01*
G01*
X13194000Y-9133000D02*
G75*
G02*
X13294000Y-9133000I50000J0D01*
G01*
X13294000Y-9387000D02*
G75*
G02*
X13194000Y-9387000I-50000J0D01*
G01*
X13194000Y-9387000D02*
G75*
G02*
X13294000Y-9387000I50000J0D01*
G01*
X13294000Y-9641000D02*
G75*
G02*
X13194000Y-9641000I-50000J0D01*
G01*
X13194000Y-9641000D02*
G75*
G02*
X13294000Y-9641000I50000J0D01*
G01*
X13294000Y-9895000D02*
G75*
G02*
X13194000Y-9895000I-50000J0D01*
G01*
X13194000Y-9895000D02*
G75*
G02*
X13294000Y-9895000I50000J0D01*
G01*
X13294000Y-10149000D02*
G75*
G02*
X13194000Y-10149000I-50000J0D01*
G01*
X13194000Y-10149000D02*
G75*
G02*
X13294000Y-10149000I50000J0D01*
G01*
X13294000Y-10657000D02*
G75*
G02*
X13194000Y-10657000I-50000J0D01*
G01*
X13194000Y-10657000D02*
G75*
G02*
X13294000Y-10657000I50000J0D01*
G01*
X13294000Y-10911000D02*
G75*
G02*
X13194000Y-10911000I-50000J0D01*
G01*
X13194000Y-10911000D02*
G75*
G02*
X13294000Y-10911000I50000J0D01*
G01*
X13294000Y-11165000D02*
G75*
G02*
X13194000Y-11165000I-50000J0D01*
G01*
X13194000Y-11165000D02*
G75*
G02*
X13294000Y-11165000I50000J0D01*
G01*
X13294000Y-11419000D02*
G75*
G02*
X13194000Y-11419000I-50000J0D01*
G01*
X13194000Y-11419000D02*
G75*
G02*
X13294000Y-11419000I50000J0D01*
G01*
X13294000Y-11673000D02*
G75*
G02*
X13194000Y-11673000I-50000J0D01*
G01*
X13194000Y-11673000D02*
G75*
G02*
X13294000Y-11673000I50000J0D01*
G01*
X13294000Y-11927000D02*
G75*
G02*
X13194000Y-11927000I-50000J0D01*
G01*
X13194000Y-11927000D02*
G75*
G02*
X13294000Y-11927000I50000J0D01*
G01*
X13294000Y-12422000D02*
G75*
G02*
X13194000Y-12422000I-50000J0D01*
G01*
X13194000Y-12422000D02*
G75*
G02*
X13294000Y-12422000I50000J0D01*
G01*
X13294000Y-12676000D02*
G75*
G02*
X13194000Y-12676000I-50000J0D01*
G01*
X13194000Y-12676000D02*
G75*
G02*
X13294000Y-12676000I50000J0D01*
G01*
X13294000Y-12930000D02*
G75*
G02*
X13194000Y-12930000I-50000J0D01*
G01*
X13194000Y-12930000D02*
G75*
G02*
X13294000Y-12930000I50000J0D01*
G01*
X13294000Y-13184000D02*
G75*
G02*
X13194000Y-13184000I-50000J0D01*
G01*
X13194000Y-13184000D02*
G75*
G02*
X13294000Y-13184000I50000J0D01*
G01*
X13548000Y-7622000D02*
G75*
G02*
X13448000Y-7622000I-50000J0D01*
G01*
X13448000Y-7622000D02*
G75*
G02*
X13548000Y-7622000I50000J0D01*
G01*
X13548000Y-7876000D02*
G75*
G02*
X13448000Y-7876000I-50000J0D01*
G01*
X13448000Y-7876000D02*
G75*
G02*
X13548000Y-7876000I50000J0D01*
G01*
X13548000Y-8130000D02*
G75*
G02*
X13448000Y-8130000I-50000J0D01*
G01*
X13448000Y-8130000D02*
G75*
G02*
X13548000Y-8130000I50000J0D01*
G01*
X13548000Y-8384000D02*
G75*
G02*
X13448000Y-8384000I-50000J0D01*
G01*
X13448000Y-8384000D02*
G75*
G02*
X13548000Y-8384000I50000J0D01*
G01*
X13548000Y-8879000D02*
G75*
G02*
X13448000Y-8879000I-50000J0D01*
G01*
X13448000Y-8879000D02*
G75*
G02*
X13548000Y-8879000I50000J0D01*
G01*
X13548000Y-9133000D02*
G75*
G02*
X13448000Y-9133000I-50000J0D01*
G01*
X13448000Y-9133000D02*
G75*
G02*
X13548000Y-9133000I50000J0D01*
G01*
X13548000Y-9387000D02*
G75*
G02*
X13448000Y-9387000I-50000J0D01*
G01*
X13448000Y-9387000D02*
G75*
G02*
X13548000Y-9387000I50000J0D01*
G01*
X13548000Y-9641000D02*
G75*
G02*
X13448000Y-9641000I-50000J0D01*
G01*
X13448000Y-9641000D02*
G75*
G02*
X13548000Y-9641000I50000J0D01*
G01*
X13548000Y-9895000D02*
G75*
G02*
X13448000Y-9895000I-50000J0D01*
G01*
X13448000Y-9895000D02*
G75*
G02*
X13548000Y-9895000I50000J0D01*
G01*
X13548000Y-10149000D02*
G75*
G02*
X13448000Y-10149000I-50000J0D01*
G01*
X13448000Y-10149000D02*
G75*
G02*
X13548000Y-10149000I50000J0D01*
G01*
X13548000Y-10657000D02*
G75*
G02*
X13448000Y-10657000I-50000J0D01*
G01*
X13448000Y-10657000D02*
G75*
G02*
X13548000Y-10657000I50000J0D01*
G01*
X13548000Y-10911000D02*
G75*
G02*
X13448000Y-10911000I-50000J0D01*
G01*
X13448000Y-10911000D02*
G75*
G02*
X13548000Y-10911000I50000J0D01*
G01*
X13548000Y-11165000D02*
G75*
G02*
X13448000Y-11165000I-50000J0D01*
G01*
X13448000Y-11165000D02*
G75*
G02*
X13548000Y-11165000I50000J0D01*
G01*
X13548000Y-11419000D02*
G75*
G02*
X13448000Y-11419000I-50000J0D01*
G01*
X13448000Y-11419000D02*
G75*
G02*
X13548000Y-11419000I50000J0D01*
G01*
X13548000Y-11673000D02*
G75*
G02*
X13448000Y-11673000I-50000J0D01*
G01*
X13448000Y-11673000D02*
G75*
G02*
X13548000Y-11673000I50000J0D01*
G01*
X13548000Y-11927000D02*
G75*
G02*
X13448000Y-11927000I-50000J0D01*
G01*
X13448000Y-11927000D02*
G75*
G02*
X13548000Y-11927000I50000J0D01*
G01*
X13548000Y-12422000D02*
G75*
G02*
X13448000Y-12422000I-50000J0D01*
G01*
X13448000Y-12422000D02*
G75*
G02*
X13548000Y-12422000I50000J0D01*
G01*
X13548000Y-12676000D02*
G75*
G02*
X13448000Y-12676000I-50000J0D01*
G01*
X13448000Y-12676000D02*
G75*
G02*
X13548000Y-12676000I50000J0D01*
G01*
X13548000Y-12930000D02*
G75*
G02*
X13448000Y-12930000I-50000J0D01*
G01*
X13448000Y-12930000D02*
G75*
G02*
X13548000Y-12930000I50000J0D01*
G01*
X13548000Y-13184000D02*
G75*
G02*
X13448000Y-13184000I-50000J0D01*
G01*
X13448000Y-13184000D02*
G75*
G02*
X13548000Y-13184000I50000J0D01*
G01*
X13802000Y-7622000D02*
G75*
G02*
X13702000Y-7622000I-50000J0D01*
G01*
X13702000Y-7622000D02*
G75*
G02*
X13802000Y-7622000I50000J0D01*
G01*
X13802000Y-7876000D02*
G75*
G02*
X13702000Y-7876000I-50000J0D01*
G01*
X13702000Y-7876000D02*
G75*
G02*
X13802000Y-7876000I50000J0D01*
G01*
X13802000Y-8130000D02*
G75*
G02*
X13702000Y-8130000I-50000J0D01*
G01*
X13702000Y-8130000D02*
G75*
G02*
X13802000Y-8130000I50000J0D01*
G01*
X13802000Y-8384000D02*
G75*
G02*
X13702000Y-8384000I-50000J0D01*
G01*
X13702000Y-8384000D02*
G75*
G02*
X13802000Y-8384000I50000J0D01*
G01*
X13802000Y-8879000D02*
G75*
G02*
X13702000Y-8879000I-50000J0D01*
G01*
X13702000Y-8879000D02*
G75*
G02*
X13802000Y-8879000I50000J0D01*
G01*
X13802000Y-9133000D02*
G75*
G02*
X13702000Y-9133000I-50000J0D01*
G01*
X13702000Y-9133000D02*
G75*
G02*
X13802000Y-9133000I50000J0D01*
G01*
X13802000Y-9387000D02*
G75*
G02*
X13702000Y-9387000I-50000J0D01*
G01*
X13702000Y-9387000D02*
G75*
G02*
X13802000Y-9387000I50000J0D01*
G01*
X13802000Y-9641000D02*
G75*
G02*
X13702000Y-9641000I-50000J0D01*
G01*
X13702000Y-9641000D02*
G75*
G02*
X13802000Y-9641000I50000J0D01*
G01*
X13802000Y-9895000D02*
G75*
G02*
X13702000Y-9895000I-50000J0D01*
G01*
X13702000Y-9895000D02*
G75*
G02*
X13802000Y-9895000I50000J0D01*
G01*
X13802000Y-10149000D02*
G75*
G02*
X13702000Y-10149000I-50000J0D01*
G01*
X13702000Y-10149000D02*
G75*
G02*
X13802000Y-10149000I50000J0D01*
G01*
X13802000Y-10657000D02*
G75*
G02*
X13702000Y-10657000I-50000J0D01*
G01*
X13702000Y-10657000D02*
G75*
G02*
X13802000Y-10657000I50000J0D01*
G01*
X13802000Y-10911000D02*
G75*
G02*
X13702000Y-10911000I-50000J0D01*
G01*
X13702000Y-10911000D02*
G75*
G02*
X13802000Y-10911000I50000J0D01*
G01*
X13802000Y-11165000D02*
G75*
G02*
X13702000Y-11165000I-50000J0D01*
G01*
X13702000Y-11165000D02*
G75*
G02*
X13802000Y-11165000I50000J0D01*
G01*
X13802000Y-11419000D02*
G75*
G02*
X13702000Y-11419000I-50000J0D01*
G01*
X13702000Y-11419000D02*
G75*
G02*
X13802000Y-11419000I50000J0D01*
G01*
X13802000Y-11673000D02*
G75*
G02*
X13702000Y-11673000I-50000J0D01*
G01*
X13702000Y-11673000D02*
G75*
G02*
X13802000Y-11673000I50000J0D01*
G01*
X13802000Y-11927000D02*
G75*
G02*
X13702000Y-11927000I-50000J0D01*
G01*
X13702000Y-11927000D02*
G75*
G02*
X13802000Y-11927000I50000J0D01*
G01*
X13802000Y-12422000D02*
G75*
G02*
X13702000Y-12422000I-50000J0D01*
G01*
X13702000Y-12422000D02*
G75*
G02*
X13802000Y-12422000I50000J0D01*
G01*
X13802000Y-12676000D02*
G75*
G02*
X13702000Y-12676000I-50000J0D01*
G01*
X13702000Y-12676000D02*
G75*
G02*
X13802000Y-12676000I50000J0D01*
G01*
X13802000Y-12930000D02*
G75*
G02*
X13702000Y-12930000I-50000J0D01*
G01*
X13702000Y-12930000D02*
G75*
G02*
X13802000Y-12930000I50000J0D01*
G01*
X13802000Y-13184000D02*
G75*
G02*
X13702000Y-13184000I-50000J0D01*
G01*
X13702000Y-13184000D02*
G75*
G02*
X13802000Y-13184000I50000J0D01*
G01*
X14056000Y-7622000D02*
G75*
G02*
X13956000Y-7622000I-50000J0D01*
G01*
X13956000Y-7622000D02*
G75*
G02*
X14056000Y-7622000I50000J0D01*
G01*
X14056000Y-7876000D02*
G75*
G02*
X13956000Y-7876000I-50000J0D01*
G01*
X13956000Y-7876000D02*
G75*
G02*
X14056000Y-7876000I50000J0D01*
G01*
X14056000Y-8130000D02*
G75*
G02*
X13956000Y-8130000I-50000J0D01*
G01*
X13956000Y-8130000D02*
G75*
G02*
X14056000Y-8130000I50000J0D01*
G01*
X14056000Y-8384000D02*
G75*
G02*
X13956000Y-8384000I-50000J0D01*
G01*
X13956000Y-8384000D02*
G75*
G02*
X14056000Y-8384000I50000J0D01*
G01*
X14056000Y-8879000D02*
G75*
G02*
X13956000Y-8879000I-50000J0D01*
G01*
X13956000Y-8879000D02*
G75*
G02*
X14056000Y-8879000I50000J0D01*
G01*
X14056000Y-9133000D02*
G75*
G02*
X13956000Y-9133000I-50000J0D01*
G01*
X13956000Y-9133000D02*
G75*
G02*
X14056000Y-9133000I50000J0D01*
G01*
X14056000Y-9387000D02*
G75*
G02*
X13956000Y-9387000I-50000J0D01*
G01*
X13956000Y-9387000D02*
G75*
G02*
X14056000Y-9387000I50000J0D01*
G01*
X14056000Y-9641000D02*
G75*
G02*
X13956000Y-9641000I-50000J0D01*
G01*
X13956000Y-9641000D02*
G75*
G02*
X14056000Y-9641000I50000J0D01*
G01*
X14056000Y-9895000D02*
G75*
G02*
X13956000Y-9895000I-50000J0D01*
G01*
X13956000Y-9895000D02*
G75*
G02*
X14056000Y-9895000I50000J0D01*
G01*
X14056000Y-10149000D02*
G75*
G02*
X13956000Y-10149000I-50000J0D01*
G01*
X13956000Y-10149000D02*
G75*
G02*
X14056000Y-10149000I50000J0D01*
G01*
X14056000Y-10657000D02*
G75*
G02*
X13956000Y-10657000I-50000J0D01*
G01*
X13956000Y-10657000D02*
G75*
G02*
X14056000Y-10657000I50000J0D01*
G01*
X14056000Y-10911000D02*
G75*
G02*
X13956000Y-10911000I-50000J0D01*
G01*
X13956000Y-10911000D02*
G75*
G02*
X14056000Y-10911000I50000J0D01*
G01*
X14056000Y-11165000D02*
G75*
G02*
X13956000Y-11165000I-50000J0D01*
G01*
X13956000Y-11165000D02*
G75*
G02*
X14056000Y-11165000I50000J0D01*
G01*
X14056000Y-11419000D02*
G75*
G02*
X13956000Y-11419000I-50000J0D01*
G01*
X13956000Y-11419000D02*
G75*
G02*
X14056000Y-11419000I50000J0D01*
G01*
X14056000Y-11673000D02*
G75*
G02*
X13956000Y-11673000I-50000J0D01*
G01*
X13956000Y-11673000D02*
G75*
G02*
X14056000Y-11673000I50000J0D01*
G01*
X14056000Y-11927000D02*
G75*
G02*
X13956000Y-11927000I-50000J0D01*
G01*
X13956000Y-11927000D02*
G75*
G02*
X14056000Y-11927000I50000J0D01*
G01*
X14056000Y-12422000D02*
G75*
G02*
X13956000Y-12422000I-50000J0D01*
G01*
X13956000Y-12422000D02*
G75*
G02*
X14056000Y-12422000I50000J0D01*
G01*
X14056000Y-12676000D02*
G75*
G02*
X13956000Y-12676000I-50000J0D01*
G01*
X13956000Y-12676000D02*
G75*
G02*
X14056000Y-12676000I50000J0D01*
G01*
X14056000Y-12930000D02*
G75*
G02*
X13956000Y-12930000I-50000J0D01*
G01*
X13956000Y-12930000D02*
G75*
G02*
X14056000Y-12930000I50000J0D01*
G01*
X14056000Y-13184000D02*
G75*
G02*
X13956000Y-13184000I-50000J0D01*
G01*
X13956000Y-13184000D02*
G75*
G02*
X14056000Y-13184000I50000J0D01*
G01*
X14310000Y-7622000D02*
G75*
G02*
X14210000Y-7622000I-50000J0D01*
G01*
X14210000Y-7622000D02*
G75*
G02*
X14310000Y-7622000I50000J0D01*
G01*
X14310000Y-7876000D02*
G75*
G02*
X14210000Y-7876000I-50000J0D01*
G01*
X14210000Y-7876000D02*
G75*
G02*
X14310000Y-7876000I50000J0D01*
G01*
X14310000Y-8130000D02*
G75*
G02*
X14210000Y-8130000I-50000J0D01*
G01*
X14210000Y-8130000D02*
G75*
G02*
X14310000Y-8130000I50000J0D01*
G01*
X14310000Y-8384000D02*
G75*
G02*
X14210000Y-8384000I-50000J0D01*
G01*
X14210000Y-8384000D02*
G75*
G02*
X14310000Y-8384000I50000J0D01*
G01*
X14310000Y-8879000D02*
G75*
G02*
X14210000Y-8879000I-50000J0D01*
G01*
X14210000Y-8879000D02*
G75*
G02*
X14310000Y-8879000I50000J0D01*
G01*
X14310000Y-9133000D02*
G75*
G02*
X14210000Y-9133000I-50000J0D01*
G01*
X14210000Y-9133000D02*
G75*
G02*
X14310000Y-9133000I50000J0D01*
G01*
X14310000Y-9387000D02*
G75*
G02*
X14210000Y-9387000I-50000J0D01*
G01*
X14210000Y-9387000D02*
G75*
G02*
X14310000Y-9387000I50000J0D01*
G01*
X14310000Y-9641000D02*
G75*
G02*
X14210000Y-9641000I-50000J0D01*
G01*
X14210000Y-9641000D02*
G75*
G02*
X14310000Y-9641000I50000J0D01*
G01*
X14310000Y-9895000D02*
G75*
G02*
X14210000Y-9895000I-50000J0D01*
G01*
X14210000Y-9895000D02*
G75*
G02*
X14310000Y-9895000I50000J0D01*
G01*
X14310000Y-10149000D02*
G75*
G02*
X14210000Y-10149000I-50000J0D01*
G01*
X14210000Y-10149000D02*
G75*
G02*
X14310000Y-10149000I50000J0D01*
G01*
X14310000Y-10657000D02*
G75*
G02*
X14210000Y-10657000I-50000J0D01*
G01*
X14210000Y-10657000D02*
G75*
G02*
X14310000Y-10657000I50000J0D01*
G01*
X14310000Y-10911000D02*
G75*
G02*
X14210000Y-10911000I-50000J0D01*
G01*
X14210000Y-10911000D02*
G75*
G02*
X14310000Y-10911000I50000J0D01*
G01*
X14310000Y-11165000D02*
G75*
G02*
X14210000Y-11165000I-50000J0D01*
G01*
X14210000Y-11165000D02*
G75*
G02*
X14310000Y-11165000I50000J0D01*
G01*
X14310000Y-11419000D02*
G75*
G02*
X14210000Y-11419000I-50000J0D01*
G01*
X14210000Y-11419000D02*
G75*
G02*
X14310000Y-11419000I50000J0D01*
G01*
X14310000Y-11673000D02*
G75*
G02*
X14210000Y-11673000I-50000J0D01*
G01*
X14210000Y-11673000D02*
G75*
G02*
X14310000Y-11673000I50000J0D01*
G01*
X14310000Y-11927000D02*
G75*
G02*
X14210000Y-11927000I-50000J0D01*
G01*
X14210000Y-11927000D02*
G75*
G02*
X14310000Y-11927000I50000J0D01*
G01*
X14310000Y-12422000D02*
G75*
G02*
X14210000Y-12422000I-50000J0D01*
G01*
X14210000Y-12422000D02*
G75*
G02*
X14310000Y-12422000I50000J0D01*
G01*
X14310000Y-12676000D02*
G75*
G02*
X14210000Y-12676000I-50000J0D01*
G01*
X14210000Y-12676000D02*
G75*
G02*
X14310000Y-12676000I50000J0D01*
G01*
X14310000Y-12930000D02*
G75*
G02*
X14210000Y-12930000I-50000J0D01*
G01*
X14210000Y-12930000D02*
G75*
G02*
X14310000Y-12930000I50000J0D01*
G01*
X14310000Y-13184000D02*
G75*
G02*
X14210000Y-13184000I-50000J0D01*
G01*
X14210000Y-13184000D02*
G75*
G02*
X14310000Y-13184000I50000J0D01*
G01*
X14564000Y-7622000D02*
G75*
G02*
X14464000Y-7622000I-50000J0D01*
G01*
X14464000Y-7622000D02*
G75*
G02*
X14564000Y-7622000I50000J0D01*
G01*
X14564000Y-7876000D02*
G75*
G02*
X14464000Y-7876000I-50000J0D01*
G01*
X14464000Y-7876000D02*
G75*
G02*
X14564000Y-7876000I50000J0D01*
G01*
X14564000Y-8130000D02*
G75*
G02*
X14464000Y-8130000I-50000J0D01*
G01*
X14464000Y-8130000D02*
G75*
G02*
X14564000Y-8130000I50000J0D01*
G01*
X14564000Y-8384000D02*
G75*
G02*
X14464000Y-8384000I-50000J0D01*
G01*
X14464000Y-8384000D02*
G75*
G02*
X14564000Y-8384000I50000J0D01*
G01*
X14564000Y-8879000D02*
G75*
G02*
X14464000Y-8879000I-50000J0D01*
G01*
X14464000Y-8879000D02*
G75*
G02*
X14564000Y-8879000I50000J0D01*
G01*
X14564000Y-9133000D02*
G75*
G02*
X14464000Y-9133000I-50000J0D01*
G01*
X14464000Y-9133000D02*
G75*
G02*
X14564000Y-9133000I50000J0D01*
G01*
X14564000Y-9387000D02*
G75*
G02*
X14464000Y-9387000I-50000J0D01*
G01*
X14464000Y-9387000D02*
G75*
G02*
X14564000Y-9387000I50000J0D01*
G01*
X14564000Y-9641000D02*
G75*
G02*
X14464000Y-9641000I-50000J0D01*
G01*
X14464000Y-9641000D02*
G75*
G02*
X14564000Y-9641000I50000J0D01*
G01*
X14564000Y-9895000D02*
G75*
G02*
X14464000Y-9895000I-50000J0D01*
G01*
X14464000Y-9895000D02*
G75*
G02*
X14564000Y-9895000I50000J0D01*
G01*
X14564000Y-10149000D02*
G75*
G02*
X14464000Y-10149000I-50000J0D01*
G01*
X14464000Y-10149000D02*
G75*
G02*
X14564000Y-10149000I50000J0D01*
G01*
X14564000Y-10657000D02*
G75*
G02*
X14464000Y-10657000I-50000J0D01*
G01*
X14464000Y-10657000D02*
G75*
G02*
X14564000Y-10657000I50000J0D01*
G01*
X14564000Y-10911000D02*
G75*
G02*
X14464000Y-10911000I-50000J0D01*
G01*
X14464000Y-10911000D02*
G75*
G02*
X14564000Y-10911000I50000J0D01*
G01*
X14564000Y-11165000D02*
G75*
G02*
X14464000Y-11165000I-50000J0D01*
G01*
X14464000Y-11165000D02*
G75*
G02*
X14564000Y-11165000I50000J0D01*
G01*
X14564000Y-11419000D02*
G75*
G02*
X14464000Y-11419000I-50000J0D01*
G01*
X14464000Y-11419000D02*
G75*
G02*
X14564000Y-11419000I50000J0D01*
G01*
X14564000Y-11673000D02*
G75*
G02*
X14464000Y-11673000I-50000J0D01*
G01*
X14464000Y-11673000D02*
G75*
G02*
X14564000Y-11673000I50000J0D01*
G01*
X14564000Y-11927000D02*
G75*
G02*
X14464000Y-11927000I-50000J0D01*
G01*
X14464000Y-11927000D02*
G75*
G02*
X14564000Y-11927000I50000J0D01*
G01*
X14564000Y-12422000D02*
G75*
G02*
X14464000Y-12422000I-50000J0D01*
G01*
X14464000Y-12422000D02*
G75*
G02*
X14564000Y-12422000I50000J0D01*
G01*
X14564000Y-12676000D02*
G75*
G02*
X14464000Y-12676000I-50000J0D01*
G01*
X14464000Y-12676000D02*
G75*
G02*
X14564000Y-12676000I50000J0D01*
G01*
X14564000Y-12930000D02*
G75*
G02*
X14464000Y-12930000I-50000J0D01*
G01*
X14464000Y-12930000D02*
G75*
G02*
X14564000Y-12930000I50000J0D01*
G01*
X14564000Y-13184000D02*
G75*
G02*
X14464000Y-13184000I-50000J0D01*
G01*
X14464000Y-13184000D02*
G75*
G02*
X14564000Y-13184000I50000J0D01*
G01*
X14818000Y-7622000D02*
G75*
G02*
X14718000Y-7622000I-50000J0D01*
G01*
X14718000Y-7622000D02*
G75*
G02*
X14818000Y-7622000I50000J0D01*
G01*
X14818000Y-7876000D02*
G75*
G02*
X14718000Y-7876000I-50000J0D01*
G01*
X14718000Y-7876000D02*
G75*
G02*
X14818000Y-7876000I50000J0D01*
G01*
X14818000Y-8130000D02*
G75*
G02*
X14718000Y-8130000I-50000J0D01*
G01*
X14718000Y-8130000D02*
G75*
G02*
X14818000Y-8130000I50000J0D01*
G01*
X14818000Y-8384000D02*
G75*
G02*
X14718000Y-8384000I-50000J0D01*
G01*
X14718000Y-8384000D02*
G75*
G02*
X14818000Y-8384000I50000J0D01*
G01*
X14818000Y-8879000D02*
G75*
G02*
X14718000Y-8879000I-50000J0D01*
G01*
X14718000Y-8879000D02*
G75*
G02*
X14818000Y-8879000I50000J0D01*
G01*
X14818000Y-9133000D02*
G75*
G02*
X14718000Y-9133000I-50000J0D01*
G01*
X14718000Y-9133000D02*
G75*
G02*
X14818000Y-9133000I50000J0D01*
G01*
X14818000Y-9387000D02*
G75*
G02*
X14718000Y-9387000I-50000J0D01*
G01*
X14718000Y-9387000D02*
G75*
G02*
X14818000Y-9387000I50000J0D01*
G01*
X14818000Y-9641000D02*
G75*
G02*
X14718000Y-9641000I-50000J0D01*
G01*
X14718000Y-9641000D02*
G75*
G02*
X14818000Y-9641000I50000J0D01*
G01*
X14818000Y-9895000D02*
G75*
G02*
X14718000Y-9895000I-50000J0D01*
G01*
X14718000Y-9895000D02*
G75*
G02*
X14818000Y-9895000I50000J0D01*
G01*
X14818000Y-10149000D02*
G75*
G02*
X14718000Y-10149000I-50000J0D01*
G01*
X14718000Y-10149000D02*
G75*
G02*
X14818000Y-10149000I50000J0D01*
G01*
X14818000Y-10657000D02*
G75*
G02*
X14718000Y-10657000I-50000J0D01*
G01*
X14718000Y-10657000D02*
G75*
G02*
X14818000Y-10657000I50000J0D01*
G01*
X14818000Y-10911000D02*
G75*
G02*
X14718000Y-10911000I-50000J0D01*
G01*
X14718000Y-10911000D02*
G75*
G02*
X14818000Y-10911000I50000J0D01*
G01*
X14818000Y-11165000D02*
G75*
G02*
X14718000Y-11165000I-50000J0D01*
G01*
X14718000Y-11165000D02*
G75*
G02*
X14818000Y-11165000I50000J0D01*
G01*
X14818000Y-11419000D02*
G75*
G02*
X14718000Y-11419000I-50000J0D01*
G01*
X14718000Y-11419000D02*
G75*
G02*
X14818000Y-11419000I50000J0D01*
G01*
X14818000Y-11673000D02*
G75*
G02*
X14718000Y-11673000I-50000J0D01*
G01*
X14718000Y-11673000D02*
G75*
G02*
X14818000Y-11673000I50000J0D01*
G01*
X14818000Y-11927000D02*
G75*
G02*
X14718000Y-11927000I-50000J0D01*
G01*
X14718000Y-11927000D02*
G75*
G02*
X14818000Y-11927000I50000J0D01*
G01*
X14818000Y-12422000D02*
G75*
G02*
X14718000Y-12422000I-50000J0D01*
G01*
X14718000Y-12422000D02*
G75*
G02*
X14818000Y-12422000I50000J0D01*
G01*
X14818000Y-12676000D02*
G75*
G02*
X14718000Y-12676000I-50000J0D01*
G01*
X14718000Y-12676000D02*
G75*
G02*
X14818000Y-12676000I50000J0D01*
G01*
X14818000Y-12930000D02*
G75*
G02*
X14718000Y-12930000I-50000J0D01*
G01*
X14718000Y-12930000D02*
G75*
G02*
X14818000Y-12930000I50000J0D01*
G01*
X14818000Y-13184000D02*
G75*
G02*
X14718000Y-13184000I-50000J0D01*
G01*
X14718000Y-13184000D02*
G75*
G02*
X14818000Y-13184000I50000J0D01*
G01*
X15072000Y-7622000D02*
G75*
G02*
X14972000Y-7622000I-50000J0D01*
G01*
X14972000Y-7622000D02*
G75*
G02*
X15072000Y-7622000I50000J0D01*
G01*
X15072000Y-7876000D02*
G75*
G02*
X14972000Y-7876000I-50000J0D01*
G01*
X14972000Y-7876000D02*
G75*
G02*
X15072000Y-7876000I50000J0D01*
G01*
X15072000Y-8130000D02*
G75*
G02*
X14972000Y-8130000I-50000J0D01*
G01*
X14972000Y-8130000D02*
G75*
G02*
X15072000Y-8130000I50000J0D01*
G01*
X15072000Y-8384000D02*
G75*
G02*
X14972000Y-8384000I-50000J0D01*
G01*
X14972000Y-8384000D02*
G75*
G02*
X15072000Y-8384000I50000J0D01*
G01*
X15072000Y-8879000D02*
G75*
G02*
X14972000Y-8879000I-50000J0D01*
G01*
X14972000Y-8879000D02*
G75*
G02*
X15072000Y-8879000I50000J0D01*
G01*
X15072000Y-9133000D02*
G75*
G02*
X14972000Y-9133000I-50000J0D01*
G01*
X14972000Y-9133000D02*
G75*
G02*
X15072000Y-9133000I50000J0D01*
G01*
X15072000Y-9387000D02*
G75*
G02*
X14972000Y-9387000I-50000J0D01*
G01*
X14972000Y-9387000D02*
G75*
G02*
X15072000Y-9387000I50000J0D01*
G01*
X15072000Y-9641000D02*
G75*
G02*
X14972000Y-9641000I-50000J0D01*
G01*
X14972000Y-9641000D02*
G75*
G02*
X15072000Y-9641000I50000J0D01*
G01*
X15072000Y-9895000D02*
G75*
G02*
X14972000Y-9895000I-50000J0D01*
G01*
X14972000Y-9895000D02*
G75*
G02*
X15072000Y-9895000I50000J0D01*
G01*
X15072000Y-10149000D02*
G75*
G02*
X14972000Y-10149000I-50000J0D01*
G01*
X14972000Y-10149000D02*
G75*
G02*
X15072000Y-10149000I50000J0D01*
G01*
X15072000Y-10657000D02*
G75*
G02*
X14972000Y-10657000I-50000J0D01*
G01*
X14972000Y-10657000D02*
G75*
G02*
X15072000Y-10657000I50000J0D01*
G01*
X15072000Y-10911000D02*
G75*
G02*
X14972000Y-10911000I-50000J0D01*
G01*
X14972000Y-10911000D02*
G75*
G02*
X15072000Y-10911000I50000J0D01*
G01*
X15072000Y-11165000D02*
G75*
G02*
X14972000Y-11165000I-50000J0D01*
G01*
X14972000Y-11165000D02*
G75*
G02*
X15072000Y-11165000I50000J0D01*
G01*
X15072000Y-11419000D02*
G75*
G02*
X14972000Y-11419000I-50000J0D01*
G01*
X14972000Y-11419000D02*
G75*
G02*
X15072000Y-11419000I50000J0D01*
G01*
X15072000Y-11673000D02*
G75*
G02*
X14972000Y-11673000I-50000J0D01*
G01*
X14972000Y-11673000D02*
G75*
G02*
X15072000Y-11673000I50000J0D01*
G01*
X15072000Y-11927000D02*
G75*
G02*
X14972000Y-11927000I-50000J0D01*
G01*
X14972000Y-11927000D02*
G75*
G02*
X15072000Y-11927000I50000J0D01*
G01*
X15072000Y-12422000D02*
G75*
G02*
X14972000Y-12422000I-50000J0D01*
G01*
X14972000Y-12422000D02*
G75*
G02*
X15072000Y-12422000I50000J0D01*
G01*
X15072000Y-12676000D02*
G75*
G02*
X14972000Y-12676000I-50000J0D01*
G01*
X14972000Y-12676000D02*
G75*
G02*
X15072000Y-12676000I50000J0D01*
G01*
X15072000Y-12930000D02*
G75*
G02*
X14972000Y-12930000I-50000J0D01*
G01*
X14972000Y-12930000D02*
G75*
G02*
X15072000Y-12930000I50000J0D01*
G01*
X15072000Y-13184000D02*
G75*
G02*
X14972000Y-13184000I-50000J0D01*
G01*
X14972000Y-13184000D02*
G75*
G02*
X15072000Y-13184000I50000J0D01*
G01*
X15326000Y-7622000D02*
G75*
G02*
X15226000Y-7622000I-50000J0D01*
G01*
X15226000Y-7622000D02*
G75*
G02*
X15326000Y-7622000I50000J0D01*
G01*
X15326000Y-7876000D02*
G75*
G02*
X15226000Y-7876000I-50000J0D01*
G01*
X15226000Y-7876000D02*
G75*
G02*
X15326000Y-7876000I50000J0D01*
G01*
X15326000Y-8130000D02*
G75*
G02*
X15226000Y-8130000I-50000J0D01*
G01*
X15226000Y-8130000D02*
G75*
G02*
X15326000Y-8130000I50000J0D01*
G01*
X15326000Y-8384000D02*
G75*
G02*
X15226000Y-8384000I-50000J0D01*
G01*
X15226000Y-8384000D02*
G75*
G02*
X15326000Y-8384000I50000J0D01*
G01*
X15326000Y-8879000D02*
G75*
G02*
X15226000Y-8879000I-50000J0D01*
G01*
X15226000Y-8879000D02*
G75*
G02*
X15326000Y-8879000I50000J0D01*
G01*
X15326000Y-9133000D02*
G75*
G02*
X15226000Y-9133000I-50000J0D01*
G01*
X15226000Y-9133000D02*
G75*
G02*
X15326000Y-9133000I50000J0D01*
G01*
X15326000Y-9387000D02*
G75*
G02*
X15226000Y-9387000I-50000J0D01*
G01*
X15226000Y-9387000D02*
G75*
G02*
X15326000Y-9387000I50000J0D01*
G01*
X15326000Y-9641000D02*
G75*
G02*
X15226000Y-9641000I-50000J0D01*
G01*
X15226000Y-9641000D02*
G75*
G02*
X15326000Y-9641000I50000J0D01*
G01*
X15326000Y-9895000D02*
G75*
G02*
X15226000Y-9895000I-50000J0D01*
G01*
X15226000Y-9895000D02*
G75*
G02*
X15326000Y-9895000I50000J0D01*
G01*
X15326000Y-10149000D02*
G75*
G02*
X15226000Y-10149000I-50000J0D01*
G01*
X15226000Y-10149000D02*
G75*
G02*
X15326000Y-10149000I50000J0D01*
G01*
X15326000Y-10657000D02*
G75*
G02*
X15226000Y-10657000I-50000J0D01*
G01*
X15226000Y-10657000D02*
G75*
G02*
X15326000Y-10657000I50000J0D01*
G01*
X15326000Y-10911000D02*
G75*
G02*
X15226000Y-10911000I-50000J0D01*
G01*
X15226000Y-10911000D02*
G75*
G02*
X15326000Y-10911000I50000J0D01*
G01*
X15326000Y-11165000D02*
G75*
G02*
X15226000Y-11165000I-50000J0D01*
G01*
X15226000Y-11165000D02*
G75*
G02*
X15326000Y-11165000I50000J0D01*
G01*
X15326000Y-11419000D02*
G75*
G02*
X15226000Y-11419000I-50000J0D01*
G01*
X15226000Y-11419000D02*
G75*
G02*
X15326000Y-11419000I50000J0D01*
G01*
X15326000Y-11673000D02*
G75*
G02*
X15226000Y-11673000I-50000J0D01*
G01*
X15226000Y-11673000D02*
G75*
G02*
X15326000Y-11673000I50000J0D01*
G01*
X15326000Y-11927000D02*
G75*
G02*
X15226000Y-11927000I-50000J0D01*
G01*
X15226000Y-11927000D02*
G75*
G02*
X15326000Y-11927000I50000J0D01*
G01*
X15326000Y-12422000D02*
G75*
G02*
X15226000Y-12422000I-50000J0D01*
G01*
X15226000Y-12422000D02*
G75*
G02*
X15326000Y-12422000I50000J0D01*
G01*
X15326000Y-12676000D02*
G75*
G02*
X15226000Y-12676000I-50000J0D01*
G01*
X15226000Y-12676000D02*
G75*
G02*
X15326000Y-12676000I50000J0D01*
G01*
X15326000Y-12930000D02*
G75*
G02*
X15226000Y-12930000I-50000J0D01*
G01*
X15226000Y-12930000D02*
G75*
G02*
X15326000Y-12930000I50000J0D01*
G01*
X15326000Y-13184000D02*
G75*
G02*
X15226000Y-13184000I-50000J0D01*
G01*
X15226000Y-13184000D02*
G75*
G02*
X15326000Y-13184000I50000J0D01*
G01*
X15580000Y-7622000D02*
G75*
G02*
X15480000Y-7622000I-50000J0D01*
G01*
X15480000Y-7622000D02*
G75*
G02*
X15580000Y-7622000I50000J0D01*
G01*
X15580000Y-7876000D02*
G75*
G02*
X15480000Y-7876000I-50000J0D01*
G01*
X15480000Y-7876000D02*
G75*
G02*
X15580000Y-7876000I50000J0D01*
G01*
X15580000Y-8130000D02*
G75*
G02*
X15480000Y-8130000I-50000J0D01*
G01*
X15480000Y-8130000D02*
G75*
G02*
X15580000Y-8130000I50000J0D01*
G01*
X15580000Y-8384000D02*
G75*
G02*
X15480000Y-8384000I-50000J0D01*
G01*
X15480000Y-8384000D02*
G75*
G02*
X15580000Y-8384000I50000J0D01*
G01*
X15580000Y-8879000D02*
G75*
G02*
X15480000Y-8879000I-50000J0D01*
G01*
X15480000Y-8879000D02*
G75*
G02*
X15580000Y-8879000I50000J0D01*
G01*
X15580000Y-9133000D02*
G75*
G02*
X15480000Y-9133000I-50000J0D01*
G01*
X15480000Y-9133000D02*
G75*
G02*
X15580000Y-9133000I50000J0D01*
G01*
X15580000Y-9387000D02*
G75*
G02*
X15480000Y-9387000I-50000J0D01*
G01*
X15480000Y-9387000D02*
G75*
G02*
X15580000Y-9387000I50000J0D01*
G01*
X15580000Y-9641000D02*
G75*
G02*
X15480000Y-9641000I-50000J0D01*
G01*
X15480000Y-9641000D02*
G75*
G02*
X15580000Y-9641000I50000J0D01*
G01*
X15580000Y-9895000D02*
G75*
G02*
X15480000Y-9895000I-50000J0D01*
G01*
X15480000Y-9895000D02*
G75*
G02*
X15580000Y-9895000I50000J0D01*
G01*
X15580000Y-10149000D02*
G75*
G02*
X15480000Y-10149000I-50000J0D01*
G01*
X15480000Y-10149000D02*
G75*
G02*
X15580000Y-10149000I50000J0D01*
G01*
X15580000Y-10657000D02*
G75*
G02*
X15480000Y-10657000I-50000J0D01*
G01*
X15480000Y-10657000D02*
G75*
G02*
X15580000Y-10657000I50000J0D01*
G01*
X15580000Y-10911000D02*
G75*
G02*
X15480000Y-10911000I-50000J0D01*
G01*
X15480000Y-10911000D02*
G75*
G02*
X15580000Y-10911000I50000J0D01*
G01*
X15580000Y-11165000D02*
G75*
G02*
X15480000Y-11165000I-50000J0D01*
G01*
X15480000Y-11165000D02*
G75*
G02*
X15580000Y-11165000I50000J0D01*
G01*
X15580000Y-11419000D02*
G75*
G02*
X15480000Y-11419000I-50000J0D01*
G01*
X15480000Y-11419000D02*
G75*
G02*
X15580000Y-11419000I50000J0D01*
G01*
X15580000Y-11673000D02*
G75*
G02*
X15480000Y-11673000I-50000J0D01*
G01*
X15480000Y-11673000D02*
G75*
G02*
X15580000Y-11673000I50000J0D01*
G01*
X15580000Y-11927000D02*
G75*
G02*
X15480000Y-11927000I-50000J0D01*
G01*
X15480000Y-11927000D02*
G75*
G02*
X15580000Y-11927000I50000J0D01*
G01*
X15580000Y-12422000D02*
G75*
G02*
X15480000Y-12422000I-50000J0D01*
G01*
X15480000Y-12422000D02*
G75*
G02*
X15580000Y-12422000I50000J0D01*
G01*
X15580000Y-12676000D02*
G75*
G02*
X15480000Y-12676000I-50000J0D01*
G01*
X15480000Y-12676000D02*
G75*
G02*
X15580000Y-12676000I50000J0D01*
G01*
X15580000Y-12930000D02*
G75*
G02*
X15480000Y-12930000I-50000J0D01*
G01*
X15480000Y-12930000D02*
G75*
G02*
X15580000Y-12930000I50000J0D01*
G01*
X15580000Y-13184000D02*
G75*
G02*
X15480000Y-13184000I-50000J0D01*
G01*
X15480000Y-13184000D02*
G75*
G02*
X15580000Y-13184000I50000J0D01*
G01*
X15834000Y-7622000D02*
G75*
G02*
X15734000Y-7622000I-50000J0D01*
G01*
X15734000Y-7622000D02*
G75*
G02*
X15834000Y-7622000I50000J0D01*
G01*
X15834000Y-7876000D02*
G75*
G02*
X15734000Y-7876000I-50000J0D01*
G01*
X15734000Y-7876000D02*
G75*
G02*
X15834000Y-7876000I50000J0D01*
G01*
X15834000Y-8130000D02*
G75*
G02*
X15734000Y-8130000I-50000J0D01*
G01*
X15734000Y-8130000D02*
G75*
G02*
X15834000Y-8130000I50000J0D01*
G01*
X15834000Y-8384000D02*
G75*
G02*
X15734000Y-8384000I-50000J0D01*
G01*
X15734000Y-8384000D02*
G75*
G02*
X15834000Y-8384000I50000J0D01*
G01*
X15834000Y-8879000D02*
G75*
G02*
X15734000Y-8879000I-50000J0D01*
G01*
X15734000Y-8879000D02*
G75*
G02*
X15834000Y-8879000I50000J0D01*
G01*
X15834000Y-9133000D02*
G75*
G02*
X15734000Y-9133000I-50000J0D01*
G01*
X15734000Y-9133000D02*
G75*
G02*
X15834000Y-9133000I50000J0D01*
G01*
X15834000Y-9387000D02*
G75*
G02*
X15734000Y-9387000I-50000J0D01*
G01*
X15734000Y-9387000D02*
G75*
G02*
X15834000Y-9387000I50000J0D01*
G01*
X15834000Y-9641000D02*
G75*
G02*
X15734000Y-9641000I-50000J0D01*
G01*
X15734000Y-9641000D02*
G75*
G02*
X15834000Y-9641000I50000J0D01*
G01*
X15834000Y-9895000D02*
G75*
G02*
X15734000Y-9895000I-50000J0D01*
G01*
X15734000Y-9895000D02*
G75*
G02*
X15834000Y-9895000I50000J0D01*
G01*
X15834000Y-10149000D02*
G75*
G02*
X15734000Y-10149000I-50000J0D01*
G01*
X15734000Y-10149000D02*
G75*
G02*
X15834000Y-10149000I50000J0D01*
G01*
X15834000Y-10657000D02*
G75*
G02*
X15734000Y-10657000I-50000J0D01*
G01*
X15734000Y-10657000D02*
G75*
G02*
X15834000Y-10657000I50000J0D01*
G01*
X15834000Y-10911000D02*
G75*
G02*
X15734000Y-10911000I-50000J0D01*
G01*
X15734000Y-10911000D02*
G75*
G02*
X15834000Y-10911000I50000J0D01*
G01*
X15834000Y-11165000D02*
G75*
G02*
X15734000Y-11165000I-50000J0D01*
G01*
X15734000Y-11165000D02*
G75*
G02*
X15834000Y-11165000I50000J0D01*
G01*
X15834000Y-11419000D02*
G75*
G02*
X15734000Y-11419000I-50000J0D01*
G01*
X15734000Y-11419000D02*
G75*
G02*
X15834000Y-11419000I50000J0D01*
G01*
X15834000Y-11673000D02*
G75*
G02*
X15734000Y-11673000I-50000J0D01*
G01*
X15734000Y-11673000D02*
G75*
G02*
X15834000Y-11673000I50000J0D01*
G01*
X15834000Y-11927000D02*
G75*
G02*
X15734000Y-11927000I-50000J0D01*
G01*
X15734000Y-11927000D02*
G75*
G02*
X15834000Y-11927000I50000J0D01*
G01*
X15834000Y-12422000D02*
G75*
G02*
X15734000Y-12422000I-50000J0D01*
G01*
X15734000Y-12422000D02*
G75*
G02*
X15834000Y-12422000I50000J0D01*
G01*
X15834000Y-12676000D02*
G75*
G02*
X15734000Y-12676000I-50000J0D01*
G01*
X15734000Y-12676000D02*
G75*
G02*
X15834000Y-12676000I50000J0D01*
G01*
X15834000Y-12930000D02*
G75*
G02*
X15734000Y-12930000I-50000J0D01*
G01*
X15734000Y-12930000D02*
G75*
G02*
X15834000Y-12930000I50000J0D01*
G01*
X15834000Y-13184000D02*
G75*
G02*
X15734000Y-13184000I-50000J0D01*
G01*
X15734000Y-13184000D02*
G75*
G02*
X15834000Y-13184000I50000J0D01*
G01*
X16088000Y-7622000D02*
G75*
G02*
X15988000Y-7622000I-50000J0D01*
G01*
X15988000Y-7622000D02*
G75*
G02*
X16088000Y-7622000I50000J0D01*
G01*
X16088000Y-7876000D02*
G75*
G02*
X15988000Y-7876000I-50000J0D01*
G01*
X15988000Y-7876000D02*
G75*
G02*
X16088000Y-7876000I50000J0D01*
G01*
X16088000Y-8130000D02*
G75*
G02*
X15988000Y-8130000I-50000J0D01*
G01*
X15988000Y-8130000D02*
G75*
G02*
X16088000Y-8130000I50000J0D01*
G01*
X16088000Y-8384000D02*
G75*
G02*
X15988000Y-8384000I-50000J0D01*
G01*
X15988000Y-8384000D02*
G75*
G02*
X16088000Y-8384000I50000J0D01*
G01*
X16088000Y-8879000D02*
G75*
G02*
X15988000Y-8879000I-50000J0D01*
G01*
X15988000Y-8879000D02*
G75*
G02*
X16088000Y-8879000I50000J0D01*
G01*
X16088000Y-9133000D02*
G75*
G02*
X15988000Y-9133000I-50000J0D01*
G01*
X15988000Y-9133000D02*
G75*
G02*
X16088000Y-9133000I50000J0D01*
G01*
X16088000Y-9387000D02*
G75*
G02*
X15988000Y-9387000I-50000J0D01*
G01*
X15988000Y-9387000D02*
G75*
G02*
X16088000Y-9387000I50000J0D01*
G01*
X16088000Y-9641000D02*
G75*
G02*
X15988000Y-9641000I-50000J0D01*
G01*
X15988000Y-9641000D02*
G75*
G02*
X16088000Y-9641000I50000J0D01*
G01*
X16088000Y-9895000D02*
G75*
G02*
X15988000Y-9895000I-50000J0D01*
G01*
X15988000Y-9895000D02*
G75*
G02*
X16088000Y-9895000I50000J0D01*
G01*
X16088000Y-10149000D02*
G75*
G02*
X15988000Y-10149000I-50000J0D01*
G01*
X15988000Y-10149000D02*
G75*
G02*
X16088000Y-10149000I50000J0D01*
G01*
X16088000Y-10657000D02*
G75*
G02*
X15988000Y-10657000I-50000J0D01*
G01*
X15988000Y-10657000D02*
G75*
G02*
X16088000Y-10657000I50000J0D01*
G01*
X16088000Y-10911000D02*
G75*
G02*
X15988000Y-10911000I-50000J0D01*
G01*
X15988000Y-10911000D02*
G75*
G02*
X16088000Y-10911000I50000J0D01*
G01*
X16088000Y-11165000D02*
G75*
G02*
X15988000Y-11165000I-50000J0D01*
G01*
X15988000Y-11165000D02*
G75*
G02*
X16088000Y-11165000I50000J0D01*
G01*
X16088000Y-11419000D02*
G75*
G02*
X15988000Y-11419000I-50000J0D01*
G01*
X15988000Y-11419000D02*
G75*
G02*
X16088000Y-11419000I50000J0D01*
G01*
X16088000Y-11673000D02*
G75*
G02*
X15988000Y-11673000I-50000J0D01*
G01*
X15988000Y-11673000D02*
G75*
G02*
X16088000Y-11673000I50000J0D01*
G01*
X16088000Y-11927000D02*
G75*
G02*
X15988000Y-11927000I-50000J0D01*
G01*
X15988000Y-11927000D02*
G75*
G02*
X16088000Y-11927000I50000J0D01*
G01*
X16088000Y-12422000D02*
G75*
G02*
X15988000Y-12422000I-50000J0D01*
G01*
X15988000Y-12422000D02*
G75*
G02*
X16088000Y-12422000I50000J0D01*
G01*
X16088000Y-12676000D02*
G75*
G02*
X15988000Y-12676000I-50000J0D01*
G01*
X15988000Y-12676000D02*
G75*
G02*
X16088000Y-12676000I50000J0D01*
G01*
X16088000Y-12930000D02*
G75*
G02*
X15988000Y-12930000I-50000J0D01*
G01*
X15988000Y-12930000D02*
G75*
G02*
X16088000Y-12930000I50000J0D01*
G01*
X16088000Y-13184000D02*
G75*
G02*
X15988000Y-13184000I-50000J0D01*
G01*
X15988000Y-13184000D02*
G75*
G02*
X16088000Y-13184000I50000J0D01*
G01*
X16342000Y-7622000D02*
G75*
G02*
X16242000Y-7622000I-50000J0D01*
G01*
X16242000Y-7622000D02*
G75*
G02*
X16342000Y-7622000I50000J0D01*
G01*
X16342000Y-7876000D02*
G75*
G02*
X16242000Y-7876000I-50000J0D01*
G01*
X16242000Y-7876000D02*
G75*
G02*
X16342000Y-7876000I50000J0D01*
G01*
X16342000Y-8130000D02*
G75*
G02*
X16242000Y-8130000I-50000J0D01*
G01*
X16242000Y-8130000D02*
G75*
G02*
X16342000Y-8130000I50000J0D01*
G01*
X16342000Y-8384000D02*
G75*
G02*
X16242000Y-8384000I-50000J0D01*
G01*
X16242000Y-8384000D02*
G75*
G02*
X16342000Y-8384000I50000J0D01*
G01*
X16342000Y-8879000D02*
G75*
G02*
X16242000Y-8879000I-50000J0D01*
G01*
X16242000Y-8879000D02*
G75*
G02*
X16342000Y-8879000I50000J0D01*
G01*
X16342000Y-9133000D02*
G75*
G02*
X16242000Y-9133000I-50000J0D01*
G01*
X16242000Y-9133000D02*
G75*
G02*
X16342000Y-9133000I50000J0D01*
G01*
X16342000Y-9387000D02*
G75*
G02*
X16242000Y-9387000I-50000J0D01*
G01*
X16242000Y-9387000D02*
G75*
G02*
X16342000Y-9387000I50000J0D01*
G01*
X16342000Y-9641000D02*
G75*
G02*
X16242000Y-9641000I-50000J0D01*
G01*
X16242000Y-9641000D02*
G75*
G02*
X16342000Y-9641000I50000J0D01*
G01*
X16342000Y-9895000D02*
G75*
G02*
X16242000Y-9895000I-50000J0D01*
G01*
X16242000Y-9895000D02*
G75*
G02*
X16342000Y-9895000I50000J0D01*
G01*
X16342000Y-10149000D02*
G75*
G02*
X16242000Y-10149000I-50000J0D01*
G01*
X16242000Y-10149000D02*
G75*
G02*
X16342000Y-10149000I50000J0D01*
G01*
X16342000Y-10657000D02*
G75*
G02*
X16242000Y-10657000I-50000J0D01*
G01*
X16242000Y-10657000D02*
G75*
G02*
X16342000Y-10657000I50000J0D01*
G01*
X16342000Y-10911000D02*
G75*
G02*
X16242000Y-10911000I-50000J0D01*
G01*
X16242000Y-10911000D02*
G75*
G02*
X16342000Y-10911000I50000J0D01*
G01*
X16342000Y-11165000D02*
G75*
G02*
X16242000Y-11165000I-50000J0D01*
G01*
X16242000Y-11165000D02*
G75*
G02*
X16342000Y-11165000I50000J0D01*
G01*
X16342000Y-11419000D02*
G75*
G02*
X16242000Y-11419000I-50000J0D01*
G01*
X16242000Y-11419000D02*
G75*
G02*
X16342000Y-11419000I50000J0D01*
G01*
X16342000Y-11673000D02*
G75*
G02*
X16242000Y-11673000I-50000J0D01*
G01*
X16242000Y-11673000D02*
G75*
G02*
X16342000Y-11673000I50000J0D01*
G01*
X16342000Y-11927000D02*
G75*
G02*
X16242000Y-11927000I-50000J0D01*
G01*
X16242000Y-11927000D02*
G75*
G02*
X16342000Y-11927000I50000J0D01*
G01*
X16342000Y-12422000D02*
G75*
G02*
X16242000Y-12422000I-50000J0D01*
G01*
X16242000Y-12422000D02*
G75*
G02*
X16342000Y-12422000I50000J0D01*
G01*
X16342000Y-12676000D02*
G75*
G02*
X16242000Y-12676000I-50000J0D01*
G01*
X16242000Y-12676000D02*
G75*
G02*
X16342000Y-12676000I50000J0D01*
G01*
X16342000Y-12930000D02*
G75*
G02*
X16242000Y-12930000I-50000J0D01*
G01*
X16242000Y-12930000D02*
G75*
G02*
X16342000Y-12930000I50000J0D01*
G01*
X16342000Y-13184000D02*
G75*
G02*
X16242000Y-13184000I-50000J0D01*
G01*
X16242000Y-13184000D02*
G75*
G02*
X16342000Y-13184000I50000J0D01*
G01*
X16596000Y-7622000D02*
G75*
G02*
X16496000Y-7622000I-50000J0D01*
G01*
X16496000Y-7622000D02*
G75*
G02*
X16596000Y-7622000I50000J0D01*
G01*
X16596000Y-7876000D02*
G75*
G02*
X16496000Y-7876000I-50000J0D01*
G01*
X16496000Y-7876000D02*
G75*
G02*
X16596000Y-7876000I50000J0D01*
G01*
X16596000Y-8130000D02*
G75*
G02*
X16496000Y-8130000I-50000J0D01*
G01*
X16496000Y-8130000D02*
G75*
G02*
X16596000Y-8130000I50000J0D01*
G01*
X16596000Y-8384000D02*
G75*
G02*
X16496000Y-8384000I-50000J0D01*
G01*
X16496000Y-8384000D02*
G75*
G02*
X16596000Y-8384000I50000J0D01*
G01*
X16596000Y-8879000D02*
G75*
G02*
X16496000Y-8879000I-50000J0D01*
G01*
X16496000Y-8879000D02*
G75*
G02*
X16596000Y-8879000I50000J0D01*
G01*
X16596000Y-9133000D02*
G75*
G02*
X16496000Y-9133000I-50000J0D01*
G01*
X16496000Y-9133000D02*
G75*
G02*
X16596000Y-9133000I50000J0D01*
G01*
X16596000Y-9387000D02*
G75*
G02*
X16496000Y-9387000I-50000J0D01*
G01*
X16496000Y-9387000D02*
G75*
G02*
X16596000Y-9387000I50000J0D01*
G01*
X16596000Y-9641000D02*
G75*
G02*
X16496000Y-9641000I-50000J0D01*
G01*
X16496000Y-9641000D02*
G75*
G02*
X16596000Y-9641000I50000J0D01*
G01*
X16596000Y-9895000D02*
G75*
G02*
X16496000Y-9895000I-50000J0D01*
G01*
X16496000Y-9895000D02*
G75*
G02*
X16596000Y-9895000I50000J0D01*
G01*
X16596000Y-10149000D02*
G75*
G02*
X16496000Y-10149000I-50000J0D01*
G01*
X16496000Y-10149000D02*
G75*
G02*
X16596000Y-10149000I50000J0D01*
G01*
X16596000Y-10657000D02*
G75*
G02*
X16496000Y-10657000I-50000J0D01*
G01*
X16496000Y-10657000D02*
G75*
G02*
X16596000Y-10657000I50000J0D01*
G01*
X16596000Y-10911000D02*
G75*
G02*
X16496000Y-10911000I-50000J0D01*
G01*
X16496000Y-10911000D02*
G75*
G02*
X16596000Y-10911000I50000J0D01*
G01*
X16596000Y-11165000D02*
G75*
G02*
X16496000Y-11165000I-50000J0D01*
G01*
X16496000Y-11165000D02*
G75*
G02*
X16596000Y-11165000I50000J0D01*
G01*
X16596000Y-11419000D02*
G75*
G02*
X16496000Y-11419000I-50000J0D01*
G01*
X16496000Y-11419000D02*
G75*
G02*
X16596000Y-11419000I50000J0D01*
G01*
X16596000Y-11673000D02*
G75*
G02*
X16496000Y-11673000I-50000J0D01*
G01*
X16496000Y-11673000D02*
G75*
G02*
X16596000Y-11673000I50000J0D01*
G01*
X16596000Y-11927000D02*
G75*
G02*
X16496000Y-11927000I-50000J0D01*
G01*
X16496000Y-11927000D02*
G75*
G02*
X16596000Y-11927000I50000J0D01*
G01*
X16596000Y-12422000D02*
G75*
G02*
X16496000Y-12422000I-50000J0D01*
G01*
X16496000Y-12422000D02*
G75*
G02*
X16596000Y-12422000I50000J0D01*
G01*
X16596000Y-12676000D02*
G75*
G02*
X16496000Y-12676000I-50000J0D01*
G01*
X16496000Y-12676000D02*
G75*
G02*
X16596000Y-12676000I50000J0D01*
G01*
X16596000Y-12930000D02*
G75*
G02*
X16496000Y-12930000I-50000J0D01*
G01*
X16496000Y-12930000D02*
G75*
G02*
X16596000Y-12930000I50000J0D01*
G01*
X16596000Y-13184000D02*
G75*
G02*
X16496000Y-13184000I-50000J0D01*
G01*
X16496000Y-13184000D02*
G75*
G02*
X16596000Y-13184000I50000J0D01*
G01*
X16850000Y-7622000D02*
G75*
G02*
X16750000Y-7622000I-50000J0D01*
G01*
X16750000Y-7622000D02*
G75*
G02*
X16850000Y-7622000I50000J0D01*
G01*
X16850000Y-7876000D02*
G75*
G02*
X16750000Y-7876000I-50000J0D01*
G01*
X16750000Y-7876000D02*
G75*
G02*
X16850000Y-7876000I50000J0D01*
G01*
X16850000Y-8130000D02*
G75*
G02*
X16750000Y-8130000I-50000J0D01*
G01*
X16750000Y-8130000D02*
G75*
G02*
X16850000Y-8130000I50000J0D01*
G01*
X16850000Y-8384000D02*
G75*
G02*
X16750000Y-8384000I-50000J0D01*
G01*
X16750000Y-8384000D02*
G75*
G02*
X16850000Y-8384000I50000J0D01*
G01*
X16850000Y-8879000D02*
G75*
G02*
X16750000Y-8879000I-50000J0D01*
G01*
X16750000Y-8879000D02*
G75*
G02*
X16850000Y-8879000I50000J0D01*
G01*
X16850000Y-9133000D02*
G75*
G02*
X16750000Y-9133000I-50000J0D01*
G01*
X16750000Y-9133000D02*
G75*
G02*
X16850000Y-9133000I50000J0D01*
G01*
X16850000Y-9387000D02*
G75*
G02*
X16750000Y-9387000I-50000J0D01*
G01*
X16750000Y-9387000D02*
G75*
G02*
X16850000Y-9387000I50000J0D01*
G01*
X16850000Y-9641000D02*
G75*
G02*
X16750000Y-9641000I-50000J0D01*
G01*
X16750000Y-9641000D02*
G75*
G02*
X16850000Y-9641000I50000J0D01*
G01*
X16850000Y-9895000D02*
G75*
G02*
X16750000Y-9895000I-50000J0D01*
G01*
X16750000Y-9895000D02*
G75*
G02*
X16850000Y-9895000I50000J0D01*
G01*
X16850000Y-10149000D02*
G75*
G02*
X16750000Y-10149000I-50000J0D01*
G01*
X16750000Y-10149000D02*
G75*
G02*
X16850000Y-10149000I50000J0D01*
G01*
X16850000Y-10657000D02*
G75*
G02*
X16750000Y-10657000I-50000J0D01*
G01*
X16750000Y-10657000D02*
G75*
G02*
X16850000Y-10657000I50000J0D01*
G01*
X16850000Y-10911000D02*
G75*
G02*
X16750000Y-10911000I-50000J0D01*
G01*
X16750000Y-10911000D02*
G75*
G02*
X16850000Y-10911000I50000J0D01*
G01*
X16850000Y-11165000D02*
G75*
G02*
X16750000Y-11165000I-50000J0D01*
G01*
X16750000Y-11165000D02*
G75*
G02*
X16850000Y-11165000I50000J0D01*
G01*
X16850000Y-11419000D02*
G75*
G02*
X16750000Y-11419000I-50000J0D01*
G01*
X16750000Y-11419000D02*
G75*
G02*
X16850000Y-11419000I50000J0D01*
G01*
X16850000Y-11673000D02*
G75*
G02*
X16750000Y-11673000I-50000J0D01*
G01*
X16750000Y-11673000D02*
G75*
G02*
X16850000Y-11673000I50000J0D01*
G01*
X16850000Y-11927000D02*
G75*
G02*
X16750000Y-11927000I-50000J0D01*
G01*
X16750000Y-11927000D02*
G75*
G02*
X16850000Y-11927000I50000J0D01*
G01*
X16850000Y-12422000D02*
G75*
G02*
X16750000Y-12422000I-50000J0D01*
G01*
X16750000Y-12422000D02*
G75*
G02*
X16850000Y-12422000I50000J0D01*
G01*
X16850000Y-12676000D02*
G75*
G02*
X16750000Y-12676000I-50000J0D01*
G01*
X16750000Y-12676000D02*
G75*
G02*
X16850000Y-12676000I50000J0D01*
G01*
X16850000Y-12930000D02*
G75*
G02*
X16750000Y-12930000I-50000J0D01*
G01*
X16750000Y-12930000D02*
G75*
G02*
X16850000Y-12930000I50000J0D01*
G01*
X16850000Y-13184000D02*
G75*
G02*
X16750000Y-13184000I-50000J0D01*
G01*
X16750000Y-13184000D02*
G75*
G02*
X16850000Y-13184000I50000J0D01*
G01*
X17104000Y-7622000D02*
G75*
G02*
X17004000Y-7622000I-50000J0D01*
G01*
X17004000Y-7622000D02*
G75*
G02*
X17104000Y-7622000I50000J0D01*
G01*
X17104000Y-7876000D02*
G75*
G02*
X17004000Y-7876000I-50000J0D01*
G01*
X17004000Y-7876000D02*
G75*
G02*
X17104000Y-7876000I50000J0D01*
G01*
X17104000Y-8130000D02*
G75*
G02*
X17004000Y-8130000I-50000J0D01*
G01*
X17004000Y-8130000D02*
G75*
G02*
X17104000Y-8130000I50000J0D01*
G01*
X17104000Y-8384000D02*
G75*
G02*
X17004000Y-8384000I-50000J0D01*
G01*
X17004000Y-8384000D02*
G75*
G02*
X17104000Y-8384000I50000J0D01*
G01*
X17104000Y-8879000D02*
G75*
G02*
X17004000Y-8879000I-50000J0D01*
G01*
X17004000Y-8879000D02*
G75*
G02*
X17104000Y-8879000I50000J0D01*
G01*
X17104000Y-9133000D02*
G75*
G02*
X17004000Y-9133000I-50000J0D01*
G01*
X17004000Y-9133000D02*
G75*
G02*
X17104000Y-9133000I50000J0D01*
G01*
X17104000Y-9387000D02*
G75*
G02*
X17004000Y-9387000I-50000J0D01*
G01*
X17004000Y-9387000D02*
G75*
G02*
X17104000Y-9387000I50000J0D01*
G01*
X17104000Y-9641000D02*
G75*
G02*
X17004000Y-9641000I-50000J0D01*
G01*
X17004000Y-9641000D02*
G75*
G02*
X17104000Y-9641000I50000J0D01*
G01*
X17104000Y-9895000D02*
G75*
G02*
X17004000Y-9895000I-50000J0D01*
G01*
X17004000Y-9895000D02*
G75*
G02*
X17104000Y-9895000I50000J0D01*
G01*
X17104000Y-10149000D02*
G75*
G02*
X17004000Y-10149000I-50000J0D01*
G01*
X17004000Y-10149000D02*
G75*
G02*
X17104000Y-10149000I50000J0D01*
G01*
X17104000Y-10657000D02*
G75*
G02*
X17004000Y-10657000I-50000J0D01*
G01*
X17004000Y-10657000D02*
G75*
G02*
X17104000Y-10657000I50000J0D01*
G01*
X17104000Y-10911000D02*
G75*
G02*
X17004000Y-10911000I-50000J0D01*
G01*
X17004000Y-10911000D02*
G75*
G02*
X17104000Y-10911000I50000J0D01*
G01*
X17104000Y-11165000D02*
G75*
G02*
X17004000Y-11165000I-50000J0D01*
G01*
X17004000Y-11165000D02*
G75*
G02*
X17104000Y-11165000I50000J0D01*
G01*
X17104000Y-11419000D02*
G75*
G02*
X17004000Y-11419000I-50000J0D01*
G01*
X17004000Y-11419000D02*
G75*
G02*
X17104000Y-11419000I50000J0D01*
G01*
X17104000Y-11673000D02*
G75*
G02*
X17004000Y-11673000I-50000J0D01*
G01*
X17004000Y-11673000D02*
G75*
G02*
X17104000Y-11673000I50000J0D01*
G01*
X17104000Y-11927000D02*
G75*
G02*
X17004000Y-11927000I-50000J0D01*
G01*
X17004000Y-11927000D02*
G75*
G02*
X17104000Y-11927000I50000J0D01*
G01*
X17104000Y-12422000D02*
G75*
G02*
X17004000Y-12422000I-50000J0D01*
G01*
X17004000Y-12422000D02*
G75*
G02*
X17104000Y-12422000I50000J0D01*
G01*
X17104000Y-12676000D02*
G75*
G02*
X17004000Y-12676000I-50000J0D01*
G01*
X17004000Y-12676000D02*
G75*
G02*
X17104000Y-12676000I50000J0D01*
G01*
X17104000Y-12930000D02*
G75*
G02*
X17004000Y-12930000I-50000J0D01*
G01*
X17004000Y-12930000D02*
G75*
G02*
X17104000Y-12930000I50000J0D01*
G01*
X17104000Y-13184000D02*
G75*
G02*
X17004000Y-13184000I-50000J0D01*
G01*
X17004000Y-13184000D02*
G75*
G02*
X17104000Y-13184000I50000J0D01*
G01*
X17358000Y-7622000D02*
G75*
G02*
X17258000Y-7622000I-50000J0D01*
G01*
X17258000Y-7622000D02*
G75*
G02*
X17358000Y-7622000I50000J0D01*
G01*
X17358000Y-7876000D02*
G75*
G02*
X17258000Y-7876000I-50000J0D01*
G01*
X17258000Y-7876000D02*
G75*
G02*
X17358000Y-7876000I50000J0D01*
G01*
X17358000Y-8130000D02*
G75*
G02*
X17258000Y-8130000I-50000J0D01*
G01*
X17258000Y-8130000D02*
G75*
G02*
X17358000Y-8130000I50000J0D01*
G01*
X17358000Y-8384000D02*
G75*
G02*
X17258000Y-8384000I-50000J0D01*
G01*
X17258000Y-8384000D02*
G75*
G02*
X17358000Y-8384000I50000J0D01*
G01*
X17358000Y-8879000D02*
G75*
G02*
X17258000Y-8879000I-50000J0D01*
G01*
X17258000Y-8879000D02*
G75*
G02*
X17358000Y-8879000I50000J0D01*
G01*
X17358000Y-9133000D02*
G75*
G02*
X17258000Y-9133000I-50000J0D01*
G01*
X17258000Y-9133000D02*
G75*
G02*
X17358000Y-9133000I50000J0D01*
G01*
X17358000Y-9387000D02*
G75*
G02*
X17258000Y-9387000I-50000J0D01*
G01*
X17258000Y-9387000D02*
G75*
G02*
X17358000Y-9387000I50000J0D01*
G01*
X17358000Y-9641000D02*
G75*
G02*
X17258000Y-9641000I-50000J0D01*
G01*
X17258000Y-9641000D02*
G75*
G02*
X17358000Y-9641000I50000J0D01*
G01*
X17358000Y-9895000D02*
G75*
G02*
X17258000Y-9895000I-50000J0D01*
G01*
X17258000Y-9895000D02*
G75*
G02*
X17358000Y-9895000I50000J0D01*
G01*
X17358000Y-10149000D02*
G75*
G02*
X17258000Y-10149000I-50000J0D01*
G01*
X17258000Y-10149000D02*
G75*
G02*
X17358000Y-10149000I50000J0D01*
G01*
X17358000Y-10657000D02*
G75*
G02*
X17258000Y-10657000I-50000J0D01*
G01*
X17258000Y-10657000D02*
G75*
G02*
X17358000Y-10657000I50000J0D01*
G01*
X17358000Y-10911000D02*
G75*
G02*
X17258000Y-10911000I-50000J0D01*
G01*
X17258000Y-10911000D02*
G75*
G02*
X17358000Y-10911000I50000J0D01*
G01*
X17358000Y-11165000D02*
G75*
G02*
X17258000Y-11165000I-50000J0D01*
G01*
X17258000Y-11165000D02*
G75*
G02*
X17358000Y-11165000I50000J0D01*
G01*
X17358000Y-11419000D02*
G75*
G02*
X17258000Y-11419000I-50000J0D01*
G01*
X17258000Y-11419000D02*
G75*
G02*
X17358000Y-11419000I50000J0D01*
G01*
X17358000Y-11673000D02*
G75*
G02*
X17258000Y-11673000I-50000J0D01*
G01*
X17258000Y-11673000D02*
G75*
G02*
X17358000Y-11673000I50000J0D01*
G01*
X17358000Y-11927000D02*
G75*
G02*
X17258000Y-11927000I-50000J0D01*
G01*
X17258000Y-11927000D02*
G75*
G02*
X17358000Y-11927000I50000J0D01*
G01*
X17358000Y-12422000D02*
G75*
G02*
X17258000Y-12422000I-50000J0D01*
G01*
X17258000Y-12422000D02*
G75*
G02*
X17358000Y-12422000I50000J0D01*
G01*
X17358000Y-12676000D02*
G75*
G02*
X17258000Y-12676000I-50000J0D01*
G01*
X17258000Y-12676000D02*
G75*
G02*
X17358000Y-12676000I50000J0D01*
G01*
X17358000Y-12930000D02*
G75*
G02*
X17258000Y-12930000I-50000J0D01*
G01*
X17258000Y-12930000D02*
G75*
G02*
X17358000Y-12930000I50000J0D01*
G01*
X17358000Y-13184000D02*
G75*
G02*
X17258000Y-13184000I-50000J0D01*
G01*
X17258000Y-13184000D02*
G75*
G02*
X17358000Y-13184000I50000J0D01*
G01*
X17612000Y-7622000D02*
G75*
G02*
X17512000Y-7622000I-50000J0D01*
G01*
X17512000Y-7622000D02*
G75*
G02*
X17612000Y-7622000I50000J0D01*
G01*
X17612000Y-7876000D02*
G75*
G02*
X17512000Y-7876000I-50000J0D01*
G01*
X17512000Y-7876000D02*
G75*
G02*
X17612000Y-7876000I50000J0D01*
G01*
X17612000Y-8130000D02*
G75*
G02*
X17512000Y-8130000I-50000J0D01*
G01*
X17512000Y-8130000D02*
G75*
G02*
X17612000Y-8130000I50000J0D01*
G01*
X17612000Y-8384000D02*
G75*
G02*
X17512000Y-8384000I-50000J0D01*
G01*
X17512000Y-8384000D02*
G75*
G02*
X17612000Y-8384000I50000J0D01*
G01*
X17612000Y-8879000D02*
G75*
G02*
X17512000Y-8879000I-50000J0D01*
G01*
X17512000Y-8879000D02*
G75*
G02*
X17612000Y-8879000I50000J0D01*
G01*
X17612000Y-9133000D02*
G75*
G02*
X17512000Y-9133000I-50000J0D01*
G01*
X17512000Y-9133000D02*
G75*
G02*
X17612000Y-9133000I50000J0D01*
G01*
X17612000Y-9387000D02*
G75*
G02*
X17512000Y-9387000I-50000J0D01*
G01*
X17512000Y-9387000D02*
G75*
G02*
X17612000Y-9387000I50000J0D01*
G01*
X17612000Y-9641000D02*
G75*
G02*
X17512000Y-9641000I-50000J0D01*
G01*
X17512000Y-9641000D02*
G75*
G02*
X17612000Y-9641000I50000J0D01*
G01*
X17612000Y-9895000D02*
G75*
G02*
X17512000Y-9895000I-50000J0D01*
G01*
X17512000Y-9895000D02*
G75*
G02*
X17612000Y-9895000I50000J0D01*
G01*
X17612000Y-10149000D02*
G75*
G02*
X17512000Y-10149000I-50000J0D01*
G01*
X17512000Y-10149000D02*
G75*
G02*
X17612000Y-10149000I50000J0D01*
G01*
X17612000Y-10657000D02*
G75*
G02*
X17512000Y-10657000I-50000J0D01*
G01*
X17512000Y-10657000D02*
G75*
G02*
X17612000Y-10657000I50000J0D01*
G01*
X17612000Y-10911000D02*
G75*
G02*
X17512000Y-10911000I-50000J0D01*
G01*
X17512000Y-10911000D02*
G75*
G02*
X17612000Y-10911000I50000J0D01*
G01*
X17612000Y-11165000D02*
G75*
G02*
X17512000Y-11165000I-50000J0D01*
G01*
X17512000Y-11165000D02*
G75*
G02*
X17612000Y-11165000I50000J0D01*
G01*
X17612000Y-11419000D02*
G75*
G02*
X17512000Y-11419000I-50000J0D01*
G01*
X17512000Y-11419000D02*
G75*
G02*
X17612000Y-11419000I50000J0D01*
G01*
X17612000Y-11673000D02*
G75*
G02*
X17512000Y-11673000I-50000J0D01*
G01*
X17512000Y-11673000D02*
G75*
G02*
X17612000Y-11673000I50000J0D01*
G01*
X17612000Y-11927000D02*
G75*
G02*
X17512000Y-11927000I-50000J0D01*
G01*
X17512000Y-11927000D02*
G75*
G02*
X17612000Y-11927000I50000J0D01*
G01*
X17612000Y-12422000D02*
G75*
G02*
X17512000Y-12422000I-50000J0D01*
G01*
X17512000Y-12422000D02*
G75*
G02*
X17612000Y-12422000I50000J0D01*
G01*
X17612000Y-12676000D02*
G75*
G02*
X17512000Y-12676000I-50000J0D01*
G01*
X17512000Y-12676000D02*
G75*
G02*
X17612000Y-12676000I50000J0D01*
G01*
X17612000Y-12930000D02*
G75*
G02*
X17512000Y-12930000I-50000J0D01*
G01*
X17512000Y-12930000D02*
G75*
G02*
X17612000Y-12930000I50000J0D01*
G01*
X17612000Y-13184000D02*
G75*
G02*
X17512000Y-13184000I-50000J0D01*
G01*
X17512000Y-13184000D02*
G75*
G02*
X17612000Y-13184000I50000J0D01*
G01*
D11*
X11577277Y-13831984D02*
X11577277Y-13631984D01*
X11577277Y-13631984D02*
X11624896Y-13631984D01*
X11624896Y-13631984D02*
X11653467Y-13641508D01*
X11653467Y-13641508D02*
X11672515Y-13660555D01*
X11672515Y-13660555D02*
X11682039Y-13679603D01*
X11682039Y-13679603D02*
X11691562Y-13717698D01*
X11691562Y-13717698D02*
X11691562Y-13746269D01*
X11691562Y-13746269D02*
X11682039Y-13784365D01*
X11682039Y-13784365D02*
X11672515Y-13803412D01*
X11672515Y-13803412D02*
X11653467Y-13822460D01*
X11653467Y-13822460D02*
X11624896Y-13831984D01*
X11624896Y-13831984D02*
X11577277Y-13831984D01*
X11777277Y-13831984D02*
X11777277Y-13698650D01*
X11777277Y-13736746D02*
X11786801Y-13717698D01*
X11786801Y-13717698D02*
X11796324Y-13708174D01*
X11796324Y-13708174D02*
X11815372Y-13698650D01*
X11815372Y-13698650D02*
X11834420Y-13698650D01*
X11901086Y-13831984D02*
X11901086Y-13698650D01*
X11901086Y-13631984D02*
X11891562Y-13641508D01*
X11891562Y-13641508D02*
X11901086Y-13651031D01*
X11901086Y-13651031D02*
X11910610Y-13641508D01*
X11910610Y-13641508D02*
X11901086Y-13631984D01*
X11901086Y-13631984D02*
X11901086Y-13651031D01*
X12024896Y-13831984D02*
X12005848Y-13822460D01*
X12005848Y-13822460D02*
X11996324Y-13803412D01*
X11996324Y-13803412D02*
X11996324Y-13631984D01*
X12129658Y-13831984D02*
X12110610Y-13822460D01*
X12110610Y-13822460D02*
X12101086Y-13803412D01*
X12101086Y-13803412D02*
X12101086Y-13631984D01*
X12358229Y-13831984D02*
X12358229Y-13631984D01*
X12358229Y-13631984D02*
X12424896Y-13774841D01*
X12424896Y-13774841D02*
X12491562Y-13631984D01*
X12491562Y-13631984D02*
X12491562Y-13831984D01*
X12672515Y-13831984D02*
X12672515Y-13727222D01*
X12672515Y-13727222D02*
X12662991Y-13708174D01*
X12662991Y-13708174D02*
X12643943Y-13698650D01*
X12643943Y-13698650D02*
X12605848Y-13698650D01*
X12605848Y-13698650D02*
X12586801Y-13708174D01*
X12672515Y-13822460D02*
X12653467Y-13831984D01*
X12653467Y-13831984D02*
X12605848Y-13831984D01*
X12605848Y-13831984D02*
X12586801Y-13822460D01*
X12586801Y-13822460D02*
X12577277Y-13803412D01*
X12577277Y-13803412D02*
X12577277Y-13784365D01*
X12577277Y-13784365D02*
X12586801Y-13765317D01*
X12586801Y-13765317D02*
X12605848Y-13755793D01*
X12605848Y-13755793D02*
X12653467Y-13755793D01*
X12653467Y-13755793D02*
X12672515Y-13746269D01*
X12767753Y-13698650D02*
X12767753Y-13898650D01*
X12767753Y-13708174D02*
X12786801Y-13698650D01*
X12786801Y-13698650D02*
X12824896Y-13698650D01*
X12824896Y-13698650D02*
X12843943Y-13708174D01*
X12843943Y-13708174D02*
X12853467Y-13717698D01*
X12853467Y-13717698D02*
X12862991Y-13736746D01*
X12862991Y-13736746D02*
X12862991Y-13793888D01*
X12862991Y-13793888D02*
X12853467Y-13812936D01*
X12853467Y-13812936D02*
X12843943Y-13822460D01*
X12843943Y-13822460D02*
X12824896Y-13831984D01*
X12824896Y-13831984D02*
X12786801Y-13831984D01*
X12786801Y-13831984D02*
X12767753Y-13822460D01*
X12948705Y-13812936D02*
X12958229Y-13822460D01*
X12958229Y-13822460D02*
X12948705Y-13831984D01*
X12948705Y-13831984D02*
X12939182Y-13822460D01*
X12939182Y-13822460D02*
X12948705Y-13812936D01*
X12948705Y-13812936D02*
X12948705Y-13831984D01*
X12948705Y-13708174D02*
X12958229Y-13717698D01*
X12958229Y-13717698D02*
X12948705Y-13727222D01*
X12948705Y-13727222D02*
X12939182Y-13717698D01*
X12939182Y-13717698D02*
X12948705Y-13708174D01*
X12948705Y-13708174D02*
X12948705Y-13727222D01*
D12*
X11246500Y-14125500D02*
X11316500Y-14195500D01*
X11316500Y-14125500D02*
X11246500Y-14195500D01*
D11*
X11615372Y-14051984D02*
X11634420Y-14051984D01*
X11634420Y-14051984D02*
X11653467Y-14061508D01*
X11653467Y-14061508D02*
X11662991Y-14071031D01*
X11662991Y-14071031D02*
X11672515Y-14090079D01*
X11672515Y-14090079D02*
X11682039Y-14128174D01*
X11682039Y-14128174D02*
X11682039Y-14175793D01*
X11682039Y-14175793D02*
X11672515Y-14213888D01*
X11672515Y-14213888D02*
X11662991Y-14232936D01*
X11662991Y-14232936D02*
X11653467Y-14242460D01*
X11653467Y-14242460D02*
X11634420Y-14251984D01*
X11634420Y-14251984D02*
X11615372Y-14251984D01*
X11615372Y-14251984D02*
X11596324Y-14242460D01*
X11596324Y-14242460D02*
X11586801Y-14232936D01*
X11586801Y-14232936D02*
X11577277Y-14213888D01*
X11577277Y-14213888D02*
X11567753Y-14175793D01*
X11567753Y-14175793D02*
X11567753Y-14128174D01*
X11567753Y-14128174D02*
X11577277Y-14090079D01*
X11577277Y-14090079D02*
X11586801Y-14071031D01*
X11586801Y-14071031D02*
X11596324Y-14061508D01*
X11596324Y-14061508D02*
X11615372Y-14051984D01*
X11767753Y-14232936D02*
X11777277Y-14242460D01*
X11777277Y-14242460D02*
X11767753Y-14251984D01*
X11767753Y-14251984D02*
X11758229Y-14242460D01*
X11758229Y-14242460D02*
X11767753Y-14232936D01*
X11767753Y-14232936D02*
X11767753Y-14251984D01*
X11843943Y-14051984D02*
X11977277Y-14051984D01*
X11977277Y-14051984D02*
X11891562Y-14251984D01*
X12091562Y-14051984D02*
X12110610Y-14051984D01*
X12110610Y-14051984D02*
X12129658Y-14061508D01*
X12129658Y-14061508D02*
X12139182Y-14071031D01*
X12139182Y-14071031D02*
X12148705Y-14090079D01*
X12148705Y-14090079D02*
X12158229Y-14128174D01*
X12158229Y-14128174D02*
X12158229Y-14175793D01*
X12158229Y-14175793D02*
X12148705Y-14213888D01*
X12148705Y-14213888D02*
X12139182Y-14232936D01*
X12139182Y-14232936D02*
X12129658Y-14242460D01*
X12129658Y-14242460D02*
X12110610Y-14251984D01*
X12110610Y-14251984D02*
X12091562Y-14251984D01*
X12091562Y-14251984D02*
X12072515Y-14242460D01*
X12072515Y-14242460D02*
X12062991Y-14232936D01*
X12062991Y-14232936D02*
X12053467Y-14213888D01*
X12053467Y-14213888D02*
X12043943Y-14175793D01*
X12043943Y-14175793D02*
X12043943Y-14128174D01*
X12043943Y-14128174D02*
X12053467Y-14090079D01*
X12053467Y-14090079D02*
X12062991Y-14071031D01*
X12062991Y-14071031D02*
X12072515Y-14061508D01*
X12072515Y-14061508D02*
X12091562Y-14051984D01*
X12282039Y-14051984D02*
X12301086Y-14051984D01*
X12301086Y-14051984D02*
X12320134Y-14061508D01*
X12320134Y-14061508D02*
X12329658Y-14071031D01*
X12329658Y-14071031D02*
X12339182Y-14090079D01*
X12339182Y-14090079D02*
X12348705Y-14128174D01*
X12348705Y-14128174D02*
X12348705Y-14175793D01*
X12348705Y-14175793D02*
X12339182Y-14213888D01*
X12339182Y-14213888D02*
X12329658Y-14232936D01*
X12329658Y-14232936D02*
X12320134Y-14242460D01*
X12320134Y-14242460D02*
X12301086Y-14251984D01*
X12301086Y-14251984D02*
X12282039Y-14251984D01*
X12282039Y-14251984D02*
X12262991Y-14242460D01*
X12262991Y-14242460D02*
X12253467Y-14232936D01*
X12253467Y-14232936D02*
X12243943Y-14213888D01*
X12243943Y-14213888D02*
X12234420Y-14175793D01*
X12234420Y-14175793D02*
X12234420Y-14128174D01*
X12234420Y-14128174D02*
X12243943Y-14090079D01*
X12243943Y-14090079D02*
X12253467Y-14071031D01*
X12253467Y-14071031D02*
X12262991Y-14061508D01*
X12262991Y-14061508D02*
X12282039Y-14051984D01*
X12434420Y-14251984D02*
X12434420Y-14118650D01*
X12434420Y-14137698D02*
X12443943Y-14128174D01*
X12443943Y-14128174D02*
X12462991Y-14118650D01*
X12462991Y-14118650D02*
X12491563Y-14118650D01*
X12491563Y-14118650D02*
X12510610Y-14128174D01*
X12510610Y-14128174D02*
X12520134Y-14147222D01*
X12520134Y-14147222D02*
X12520134Y-14251984D01*
X12520134Y-14147222D02*
X12529658Y-14128174D01*
X12529658Y-14128174D02*
X12548705Y-14118650D01*
X12548705Y-14118650D02*
X12577277Y-14118650D01*
X12577277Y-14118650D02*
X12596324Y-14128174D01*
X12596324Y-14128174D02*
X12605848Y-14147222D01*
X12605848Y-14147222D02*
X12605848Y-14251984D01*
X12701086Y-14251984D02*
X12701086Y-14118650D01*
X12701086Y-14137698D02*
X12710610Y-14128174D01*
X12710610Y-14128174D02*
X12729658Y-14118650D01*
X12729658Y-14118650D02*
X12758229Y-14118650D01*
X12758229Y-14118650D02*
X12777277Y-14128174D01*
X12777277Y-14128174D02*
X12786801Y-14147222D01*
X12786801Y-14147222D02*
X12786801Y-14251984D01*
X12786801Y-14147222D02*
X12796324Y-14128174D01*
X12796324Y-14128174D02*
X12815372Y-14118650D01*
X12815372Y-14118650D02*
X12843943Y-14118650D01*
X12843943Y-14118650D02*
X12862991Y-14128174D01*
X12862991Y-14128174D02*
X12872515Y-14147222D01*
X12872515Y-14147222D02*
X12872515Y-14251984D01*
X13262991Y-14042460D02*
X13091563Y-14299603D01*
X13520134Y-14051984D02*
X13539182Y-14051984D01*
X13539182Y-14051984D02*
X13558229Y-14061508D01*
X13558229Y-14061508D02*
X13567753Y-14071031D01*
X13567753Y-14071031D02*
X13577277Y-14090079D01*
X13577277Y-14090079D02*
X13586801Y-14128174D01*
X13586801Y-14128174D02*
X13586801Y-14175793D01*
X13586801Y-14175793D02*
X13577277Y-14213888D01*
X13577277Y-14213888D02*
X13567753Y-14232936D01*
X13567753Y-14232936D02*
X13558229Y-14242460D01*
X13558229Y-14242460D02*
X13539182Y-14251984D01*
X13539182Y-14251984D02*
X13520134Y-14251984D01*
X13520134Y-14251984D02*
X13501086Y-14242460D01*
X13501086Y-14242460D02*
X13491563Y-14232936D01*
X13491563Y-14232936D02*
X13482039Y-14213888D01*
X13482039Y-14213888D02*
X13472515Y-14175793D01*
X13472515Y-14175793D02*
X13472515Y-14128174D01*
X13472515Y-14128174D02*
X13482039Y-14090079D01*
X13482039Y-14090079D02*
X13491563Y-14071031D01*
X13491563Y-14071031D02*
X13501086Y-14061508D01*
X13501086Y-14061508D02*
X13520134Y-14051984D01*
X13672515Y-14232936D02*
X13682039Y-14242460D01*
X13682039Y-14242460D02*
X13672515Y-14251984D01*
X13672515Y-14251984D02*
X13662991Y-14242460D01*
X13662991Y-14242460D02*
X13672515Y-14232936D01*
X13672515Y-14232936D02*
X13672515Y-14251984D01*
X13805848Y-14051984D02*
X13824896Y-14051984D01*
X13824896Y-14051984D02*
X13843944Y-14061508D01*
X13843944Y-14061508D02*
X13853467Y-14071031D01*
X13853467Y-14071031D02*
X13862991Y-14090079D01*
X13862991Y-14090079D02*
X13872515Y-14128174D01*
X13872515Y-14128174D02*
X13872515Y-14175793D01*
X13872515Y-14175793D02*
X13862991Y-14213888D01*
X13862991Y-14213888D02*
X13853467Y-14232936D01*
X13853467Y-14232936D02*
X13843944Y-14242460D01*
X13843944Y-14242460D02*
X13824896Y-14251984D01*
X13824896Y-14251984D02*
X13805848Y-14251984D01*
X13805848Y-14251984D02*
X13786801Y-14242460D01*
X13786801Y-14242460D02*
X13777277Y-14232936D01*
X13777277Y-14232936D02*
X13767753Y-14213888D01*
X13767753Y-14213888D02*
X13758229Y-14175793D01*
X13758229Y-14175793D02*
X13758229Y-14128174D01*
X13758229Y-14128174D02*
X13767753Y-14090079D01*
X13767753Y-14090079D02*
X13777277Y-14071031D01*
X13777277Y-14071031D02*
X13786801Y-14061508D01*
X13786801Y-14061508D02*
X13805848Y-14051984D01*
X13948706Y-14071031D02*
X13958229Y-14061508D01*
X13958229Y-14061508D02*
X13977277Y-14051984D01*
X13977277Y-14051984D02*
X14024896Y-14051984D01*
X14024896Y-14051984D02*
X14043944Y-14061508D01*
X14043944Y-14061508D02*
X14053467Y-14071031D01*
X14053467Y-14071031D02*
X14062991Y-14090079D01*
X14062991Y-14090079D02*
X14062991Y-14109127D01*
X14062991Y-14109127D02*
X14053467Y-14137698D01*
X14053467Y-14137698D02*
X13939182Y-14251984D01*
X13939182Y-14251984D02*
X14062991Y-14251984D01*
X14129658Y-14051984D02*
X14262991Y-14051984D01*
X14262991Y-14051984D02*
X14177277Y-14251984D01*
X14424896Y-14051984D02*
X14386801Y-14051984D01*
X14386801Y-14051984D02*
X14367753Y-14061508D01*
X14367753Y-14061508D02*
X14358229Y-14071031D01*
X14358229Y-14071031D02*
X14339182Y-14099603D01*
X14339182Y-14099603D02*
X14329658Y-14137698D01*
X14329658Y-14137698D02*
X14329658Y-14213888D01*
X14329658Y-14213888D02*
X14339182Y-14232936D01*
X14339182Y-14232936D02*
X14348706Y-14242460D01*
X14348706Y-14242460D02*
X14367753Y-14251984D01*
X14367753Y-14251984D02*
X14405848Y-14251984D01*
X14405848Y-14251984D02*
X14424896Y-14242460D01*
X14424896Y-14242460D02*
X14434420Y-14232936D01*
X14434420Y-14232936D02*
X14443944Y-14213888D01*
X14443944Y-14213888D02*
X14443944Y-14166269D01*
X14443944Y-14166269D02*
X14434420Y-14147222D01*
X14434420Y-14147222D02*
X14424896Y-14137698D01*
X14424896Y-14137698D02*
X14405848Y-14128174D01*
X14405848Y-14128174D02*
X14367753Y-14128174D01*
X14367753Y-14128174D02*
X14348706Y-14137698D01*
X14348706Y-14137698D02*
X14339182Y-14147222D01*
X14339182Y-14147222D02*
X14329658Y-14166269D01*
X14520134Y-14051984D02*
X14520134Y-14090079D01*
X14596325Y-14051984D02*
X14596325Y-14090079D01*
X14891563Y-14328174D02*
X14882039Y-14318650D01*
X14882039Y-14318650D02*
X14862991Y-14290079D01*
X14862991Y-14290079D02*
X14853468Y-14271031D01*
X14853468Y-14271031D02*
X14843944Y-14242460D01*
X14843944Y-14242460D02*
X14834420Y-14194841D01*
X14834420Y-14194841D02*
X14834420Y-14156746D01*
X14834420Y-14156746D02*
X14843944Y-14109127D01*
X14843944Y-14109127D02*
X14853468Y-14080555D01*
X14853468Y-14080555D02*
X14862991Y-14061508D01*
X14862991Y-14061508D02*
X14882039Y-14032936D01*
X14882039Y-14032936D02*
X14891563Y-14023412D01*
X15072515Y-14251984D02*
X14958229Y-14251984D01*
X15015372Y-14251984D02*
X15015372Y-14051984D01*
X15015372Y-14051984D02*
X14996325Y-14080555D01*
X14996325Y-14080555D02*
X14977277Y-14099603D01*
X14977277Y-14099603D02*
X14958229Y-14109127D01*
X15310610Y-14251984D02*
X15310610Y-14051984D01*
X15396325Y-14251984D02*
X15396325Y-14147222D01*
X15396325Y-14147222D02*
X15386801Y-14128174D01*
X15386801Y-14128174D02*
X15367753Y-14118650D01*
X15367753Y-14118650D02*
X15339182Y-14118650D01*
X15339182Y-14118650D02*
X15320134Y-14128174D01*
X15320134Y-14128174D02*
X15310610Y-14137698D01*
X15520134Y-14251984D02*
X15501087Y-14242460D01*
X15501087Y-14242460D02*
X15491563Y-14232936D01*
X15491563Y-14232936D02*
X15482039Y-14213888D01*
X15482039Y-14213888D02*
X15482039Y-14156746D01*
X15482039Y-14156746D02*
X15491563Y-14137698D01*
X15491563Y-14137698D02*
X15501087Y-14128174D01*
X15501087Y-14128174D02*
X15520134Y-14118650D01*
X15520134Y-14118650D02*
X15548706Y-14118650D01*
X15548706Y-14118650D02*
X15567753Y-14128174D01*
X15567753Y-14128174D02*
X15577277Y-14137698D01*
X15577277Y-14137698D02*
X15586801Y-14156746D01*
X15586801Y-14156746D02*
X15586801Y-14213888D01*
X15586801Y-14213888D02*
X15577277Y-14232936D01*
X15577277Y-14232936D02*
X15567753Y-14242460D01*
X15567753Y-14242460D02*
X15548706Y-14251984D01*
X15548706Y-14251984D02*
X15520134Y-14251984D01*
X15701087Y-14251984D02*
X15682039Y-14242460D01*
X15682039Y-14242460D02*
X15672515Y-14223412D01*
X15672515Y-14223412D02*
X15672515Y-14051984D01*
X15853468Y-14242460D02*
X15834420Y-14251984D01*
X15834420Y-14251984D02*
X15796325Y-14251984D01*
X15796325Y-14251984D02*
X15777277Y-14242460D01*
X15777277Y-14242460D02*
X15767753Y-14223412D01*
X15767753Y-14223412D02*
X15767753Y-14147222D01*
X15767753Y-14147222D02*
X15777277Y-14128174D01*
X15777277Y-14128174D02*
X15796325Y-14118650D01*
X15796325Y-14118650D02*
X15834420Y-14118650D01*
X15834420Y-14118650D02*
X15853468Y-14128174D01*
X15853468Y-14128174D02*
X15862991Y-14147222D01*
X15862991Y-14147222D02*
X15862991Y-14166269D01*
X15862991Y-14166269D02*
X15767753Y-14185317D01*
X15929658Y-14328174D02*
X15939182Y-14318650D01*
X15939182Y-14318650D02*
X15958230Y-14290079D01*
X15958230Y-14290079D02*
X15967753Y-14271031D01*
X15967753Y-14271031D02*
X15977277Y-14242460D01*
X15977277Y-14242460D02*
X15986801Y-14194841D01*
X15986801Y-14194841D02*
X15986801Y-14156746D01*
X15986801Y-14156746D02*
X15977277Y-14109127D01*
X15977277Y-14109127D02*
X15967753Y-14080555D01*
X15967753Y-14080555D02*
X15958230Y-14061508D01*
X15958230Y-14061508D02*
X15939182Y-14032936D01*
X15939182Y-14032936D02*
X15929658Y-14023412D01*
D12*
X11316500Y-14424500D02*
G75*
G02*
X11216500Y-14424500I-50000J0D01*
G01*
X11216500Y-14424500D02*
G75*
G02*
X11316500Y-14424500I50000J0D01*
G01*
D11*
X11682039Y-14515984D02*
X11567753Y-14515984D01*
X11624896Y-14515984D02*
X11624896Y-14315984D01*
X11624896Y-14315984D02*
X11605848Y-14344555D01*
X11605848Y-14344555D02*
X11586801Y-14363603D01*
X11586801Y-14363603D02*
X11567753Y-14373127D01*
X11767753Y-14496936D02*
X11777277Y-14506460D01*
X11777277Y-14506460D02*
X11767753Y-14515984D01*
X11767753Y-14515984D02*
X11758229Y-14506460D01*
X11758229Y-14506460D02*
X11767753Y-14496936D01*
X11767753Y-14496936D02*
X11767753Y-14515984D01*
X11901086Y-14315984D02*
X11920134Y-14315984D01*
X11920134Y-14315984D02*
X11939182Y-14325508D01*
X11939182Y-14325508D02*
X11948705Y-14335031D01*
X11948705Y-14335031D02*
X11958229Y-14354079D01*
X11958229Y-14354079D02*
X11967753Y-14392174D01*
X11967753Y-14392174D02*
X11967753Y-14439793D01*
X11967753Y-14439793D02*
X11958229Y-14477888D01*
X11958229Y-14477888D02*
X11948705Y-14496936D01*
X11948705Y-14496936D02*
X11939182Y-14506460D01*
X11939182Y-14506460D02*
X11920134Y-14515984D01*
X11920134Y-14515984D02*
X11901086Y-14515984D01*
X11901086Y-14515984D02*
X11882039Y-14506460D01*
X11882039Y-14506460D02*
X11872515Y-14496936D01*
X11872515Y-14496936D02*
X11862991Y-14477888D01*
X11862991Y-14477888D02*
X11853467Y-14439793D01*
X11853467Y-14439793D02*
X11853467Y-14392174D01*
X11853467Y-14392174D02*
X11862991Y-14354079D01*
X11862991Y-14354079D02*
X11872515Y-14335031D01*
X11872515Y-14335031D02*
X11882039Y-14325508D01*
X11882039Y-14325508D02*
X11901086Y-14315984D01*
X12091562Y-14315984D02*
X12110610Y-14315984D01*
X12110610Y-14315984D02*
X12129658Y-14325508D01*
X12129658Y-14325508D02*
X12139182Y-14335031D01*
X12139182Y-14335031D02*
X12148705Y-14354079D01*
X12148705Y-14354079D02*
X12158229Y-14392174D01*
X12158229Y-14392174D02*
X12158229Y-14439793D01*
X12158229Y-14439793D02*
X12148705Y-14477888D01*
X12148705Y-14477888D02*
X12139182Y-14496936D01*
X12139182Y-14496936D02*
X12129658Y-14506460D01*
X12129658Y-14506460D02*
X12110610Y-14515984D01*
X12110610Y-14515984D02*
X12091562Y-14515984D01*
X12091562Y-14515984D02*
X12072515Y-14506460D01*
X12072515Y-14506460D02*
X12062991Y-14496936D01*
X12062991Y-14496936D02*
X12053467Y-14477888D01*
X12053467Y-14477888D02*
X12043943Y-14439793D01*
X12043943Y-14439793D02*
X12043943Y-14392174D01*
X12043943Y-14392174D02*
X12053467Y-14354079D01*
X12053467Y-14354079D02*
X12062991Y-14335031D01*
X12062991Y-14335031D02*
X12072515Y-14325508D01*
X12072515Y-14325508D02*
X12091562Y-14315984D01*
X12282039Y-14315984D02*
X12301086Y-14315984D01*
X12301086Y-14315984D02*
X12320134Y-14325508D01*
X12320134Y-14325508D02*
X12329658Y-14335031D01*
X12329658Y-14335031D02*
X12339182Y-14354079D01*
X12339182Y-14354079D02*
X12348705Y-14392174D01*
X12348705Y-14392174D02*
X12348705Y-14439793D01*
X12348705Y-14439793D02*
X12339182Y-14477888D01*
X12339182Y-14477888D02*
X12329658Y-14496936D01*
X12329658Y-14496936D02*
X12320134Y-14506460D01*
X12320134Y-14506460D02*
X12301086Y-14515984D01*
X12301086Y-14515984D02*
X12282039Y-14515984D01*
X12282039Y-14515984D02*
X12262991Y-14506460D01*
X12262991Y-14506460D02*
X12253467Y-14496936D01*
X12253467Y-14496936D02*
X12243943Y-14477888D01*
X12243943Y-14477888D02*
X12234420Y-14439793D01*
X12234420Y-14439793D02*
X12234420Y-14392174D01*
X12234420Y-14392174D02*
X12243943Y-14354079D01*
X12243943Y-14354079D02*
X12253467Y-14335031D01*
X12253467Y-14335031D02*
X12262991Y-14325508D01*
X12262991Y-14325508D02*
X12282039Y-14315984D01*
X12434420Y-14515984D02*
X12434420Y-14382650D01*
X12434420Y-14401698D02*
X12443943Y-14392174D01*
X12443943Y-14392174D02*
X12462991Y-14382650D01*
X12462991Y-14382650D02*
X12491563Y-14382650D01*
X12491563Y-14382650D02*
X12510610Y-14392174D01*
X12510610Y-14392174D02*
X12520134Y-14411222D01*
X12520134Y-14411222D02*
X12520134Y-14515984D01*
X12520134Y-14411222D02*
X12529658Y-14392174D01*
X12529658Y-14392174D02*
X12548705Y-14382650D01*
X12548705Y-14382650D02*
X12577277Y-14382650D01*
X12577277Y-14382650D02*
X12596324Y-14392174D01*
X12596324Y-14392174D02*
X12605848Y-14411222D01*
X12605848Y-14411222D02*
X12605848Y-14515984D01*
X12701086Y-14515984D02*
X12701086Y-14382650D01*
X12701086Y-14401698D02*
X12710610Y-14392174D01*
X12710610Y-14392174D02*
X12729658Y-14382650D01*
X12729658Y-14382650D02*
X12758229Y-14382650D01*
X12758229Y-14382650D02*
X12777277Y-14392174D01*
X12777277Y-14392174D02*
X12786801Y-14411222D01*
X12786801Y-14411222D02*
X12786801Y-14515984D01*
X12786801Y-14411222D02*
X12796324Y-14392174D01*
X12796324Y-14392174D02*
X12815372Y-14382650D01*
X12815372Y-14382650D02*
X12843943Y-14382650D01*
X12843943Y-14382650D02*
X12862991Y-14392174D01*
X12862991Y-14392174D02*
X12872515Y-14411222D01*
X12872515Y-14411222D02*
X12872515Y-14515984D01*
X13262991Y-14306460D02*
X13091563Y-14563603D01*
X13520134Y-14315984D02*
X13539182Y-14315984D01*
X13539182Y-14315984D02*
X13558229Y-14325508D01*
X13558229Y-14325508D02*
X13567753Y-14335031D01*
X13567753Y-14335031D02*
X13577277Y-14354079D01*
X13577277Y-14354079D02*
X13586801Y-14392174D01*
X13586801Y-14392174D02*
X13586801Y-14439793D01*
X13586801Y-14439793D02*
X13577277Y-14477888D01*
X13577277Y-14477888D02*
X13567753Y-14496936D01*
X13567753Y-14496936D02*
X13558229Y-14506460D01*
X13558229Y-14506460D02*
X13539182Y-14515984D01*
X13539182Y-14515984D02*
X13520134Y-14515984D01*
X13520134Y-14515984D02*
X13501086Y-14506460D01*
X13501086Y-14506460D02*
X13491563Y-14496936D01*
X13491563Y-14496936D02*
X13482039Y-14477888D01*
X13482039Y-14477888D02*
X13472515Y-14439793D01*
X13472515Y-14439793D02*
X13472515Y-14392174D01*
X13472515Y-14392174D02*
X13482039Y-14354079D01*
X13482039Y-14354079D02*
X13491563Y-14335031D01*
X13491563Y-14335031D02*
X13501086Y-14325508D01*
X13501086Y-14325508D02*
X13520134Y-14315984D01*
X13672515Y-14496936D02*
X13682039Y-14506460D01*
X13682039Y-14506460D02*
X13672515Y-14515984D01*
X13672515Y-14515984D02*
X13662991Y-14506460D01*
X13662991Y-14506460D02*
X13672515Y-14496936D01*
X13672515Y-14496936D02*
X13672515Y-14515984D01*
X13805848Y-14315984D02*
X13824896Y-14315984D01*
X13824896Y-14315984D02*
X13843944Y-14325508D01*
X13843944Y-14325508D02*
X13853467Y-14335031D01*
X13853467Y-14335031D02*
X13862991Y-14354079D01*
X13862991Y-14354079D02*
X13872515Y-14392174D01*
X13872515Y-14392174D02*
X13872515Y-14439793D01*
X13872515Y-14439793D02*
X13862991Y-14477888D01*
X13862991Y-14477888D02*
X13853467Y-14496936D01*
X13853467Y-14496936D02*
X13843944Y-14506460D01*
X13843944Y-14506460D02*
X13824896Y-14515984D01*
X13824896Y-14515984D02*
X13805848Y-14515984D01*
X13805848Y-14515984D02*
X13786801Y-14506460D01*
X13786801Y-14506460D02*
X13777277Y-14496936D01*
X13777277Y-14496936D02*
X13767753Y-14477888D01*
X13767753Y-14477888D02*
X13758229Y-14439793D01*
X13758229Y-14439793D02*
X13758229Y-14392174D01*
X13758229Y-14392174D02*
X13767753Y-14354079D01*
X13767753Y-14354079D02*
X13777277Y-14335031D01*
X13777277Y-14335031D02*
X13786801Y-14325508D01*
X13786801Y-14325508D02*
X13805848Y-14315984D01*
X13939182Y-14315984D02*
X14062991Y-14315984D01*
X14062991Y-14315984D02*
X13996325Y-14392174D01*
X13996325Y-14392174D02*
X14024896Y-14392174D01*
X14024896Y-14392174D02*
X14043944Y-14401698D01*
X14043944Y-14401698D02*
X14053467Y-14411222D01*
X14053467Y-14411222D02*
X14062991Y-14430269D01*
X14062991Y-14430269D02*
X14062991Y-14477888D01*
X14062991Y-14477888D02*
X14053467Y-14496936D01*
X14053467Y-14496936D02*
X14043944Y-14506460D01*
X14043944Y-14506460D02*
X14024896Y-14515984D01*
X14024896Y-14515984D02*
X13967753Y-14515984D01*
X13967753Y-14515984D02*
X13948706Y-14506460D01*
X13948706Y-14506460D02*
X13939182Y-14496936D01*
X14158229Y-14515984D02*
X14196325Y-14515984D01*
X14196325Y-14515984D02*
X14215372Y-14506460D01*
X14215372Y-14506460D02*
X14224896Y-14496936D01*
X14224896Y-14496936D02*
X14243944Y-14468365D01*
X14243944Y-14468365D02*
X14253467Y-14430269D01*
X14253467Y-14430269D02*
X14253467Y-14354079D01*
X14253467Y-14354079D02*
X14243944Y-14335031D01*
X14243944Y-14335031D02*
X14234420Y-14325508D01*
X14234420Y-14325508D02*
X14215372Y-14315984D01*
X14215372Y-14315984D02*
X14177277Y-14315984D01*
X14177277Y-14315984D02*
X14158229Y-14325508D01*
X14158229Y-14325508D02*
X14148706Y-14335031D01*
X14148706Y-14335031D02*
X14139182Y-14354079D01*
X14139182Y-14354079D02*
X14139182Y-14401698D01*
X14139182Y-14401698D02*
X14148706Y-14420746D01*
X14148706Y-14420746D02*
X14158229Y-14430269D01*
X14158229Y-14430269D02*
X14177277Y-14439793D01*
X14177277Y-14439793D02*
X14215372Y-14439793D01*
X14215372Y-14439793D02*
X14234420Y-14430269D01*
X14234420Y-14430269D02*
X14243944Y-14420746D01*
X14243944Y-14420746D02*
X14253467Y-14401698D01*
X14424896Y-14382650D02*
X14424896Y-14515984D01*
X14377277Y-14306460D02*
X14329658Y-14449317D01*
X14329658Y-14449317D02*
X14453467Y-14449317D01*
X14520134Y-14315984D02*
X14520134Y-14354079D01*
X14596325Y-14315984D02*
X14596325Y-14354079D01*
X14891563Y-14592174D02*
X14882039Y-14582650D01*
X14882039Y-14582650D02*
X14862991Y-14554079D01*
X14862991Y-14554079D02*
X14853468Y-14535031D01*
X14853468Y-14535031D02*
X14843944Y-14506460D01*
X14843944Y-14506460D02*
X14834420Y-14458841D01*
X14834420Y-14458841D02*
X14834420Y-14420746D01*
X14834420Y-14420746D02*
X14843944Y-14373127D01*
X14843944Y-14373127D02*
X14853468Y-14344555D01*
X14853468Y-14344555D02*
X14862991Y-14325508D01*
X14862991Y-14325508D02*
X14882039Y-14296936D01*
X14882039Y-14296936D02*
X14891563Y-14287412D01*
X15053468Y-14382650D02*
X15053468Y-14515984D01*
X15005848Y-14306460D02*
X14958229Y-14449317D01*
X14958229Y-14449317D02*
X15082039Y-14449317D01*
X15262991Y-14515984D02*
X15148706Y-14515984D01*
X15205848Y-14515984D02*
X15205848Y-14315984D01*
X15205848Y-14315984D02*
X15186801Y-14344555D01*
X15186801Y-14344555D02*
X15167753Y-14363603D01*
X15167753Y-14363603D02*
X15148706Y-14373127D01*
X15377277Y-14401698D02*
X15358229Y-14392174D01*
X15358229Y-14392174D02*
X15348706Y-14382650D01*
X15348706Y-14382650D02*
X15339182Y-14363603D01*
X15339182Y-14363603D02*
X15339182Y-14354079D01*
X15339182Y-14354079D02*
X15348706Y-14335031D01*
X15348706Y-14335031D02*
X15358229Y-14325508D01*
X15358229Y-14325508D02*
X15377277Y-14315984D01*
X15377277Y-14315984D02*
X15415372Y-14315984D01*
X15415372Y-14315984D02*
X15434420Y-14325508D01*
X15434420Y-14325508D02*
X15443944Y-14335031D01*
X15443944Y-14335031D02*
X15453468Y-14354079D01*
X15453468Y-14354079D02*
X15453468Y-14363603D01*
X15453468Y-14363603D02*
X15443944Y-14382650D01*
X15443944Y-14382650D02*
X15434420Y-14392174D01*
X15434420Y-14392174D02*
X15415372Y-14401698D01*
X15415372Y-14401698D02*
X15377277Y-14401698D01*
X15377277Y-14401698D02*
X15358229Y-14411222D01*
X15358229Y-14411222D02*
X15348706Y-14420746D01*
X15348706Y-14420746D02*
X15339182Y-14439793D01*
X15339182Y-14439793D02*
X15339182Y-14477888D01*
X15339182Y-14477888D02*
X15348706Y-14496936D01*
X15348706Y-14496936D02*
X15358229Y-14506460D01*
X15358229Y-14506460D02*
X15377277Y-14515984D01*
X15377277Y-14515984D02*
X15415372Y-14515984D01*
X15415372Y-14515984D02*
X15434420Y-14506460D01*
X15434420Y-14506460D02*
X15443944Y-14496936D01*
X15443944Y-14496936D02*
X15453468Y-14477888D01*
X15453468Y-14477888D02*
X15453468Y-14439793D01*
X15453468Y-14439793D02*
X15443944Y-14420746D01*
X15443944Y-14420746D02*
X15434420Y-14411222D01*
X15434420Y-14411222D02*
X15415372Y-14401698D01*
X15691563Y-14515984D02*
X15691563Y-14315984D01*
X15777277Y-14515984D02*
X15777277Y-14411222D01*
X15777277Y-14411222D02*
X15767753Y-14392174D01*
X15767753Y-14392174D02*
X15748706Y-14382650D01*
X15748706Y-14382650D02*
X15720134Y-14382650D01*
X15720134Y-14382650D02*
X15701087Y-14392174D01*
X15701087Y-14392174D02*
X15691563Y-14401698D01*
X15901087Y-14515984D02*
X15882039Y-14506460D01*
X15882039Y-14506460D02*
X15872515Y-14496936D01*
X15872515Y-14496936D02*
X15862991Y-14477888D01*
X15862991Y-14477888D02*
X15862991Y-14420746D01*
X15862991Y-14420746D02*
X15872515Y-14401698D01*
X15872515Y-14401698D02*
X15882039Y-14392174D01*
X15882039Y-14392174D02*
X15901087Y-14382650D01*
X15901087Y-14382650D02*
X15929658Y-14382650D01*
X15929658Y-14382650D02*
X15948706Y-14392174D01*
X15948706Y-14392174D02*
X15958230Y-14401698D01*
X15958230Y-14401698D02*
X15967753Y-14420746D01*
X15967753Y-14420746D02*
X15967753Y-14477888D01*
X15967753Y-14477888D02*
X15958230Y-14496936D01*
X15958230Y-14496936D02*
X15948706Y-14506460D01*
X15948706Y-14506460D02*
X15929658Y-14515984D01*
X15929658Y-14515984D02*
X15901087Y-14515984D01*
X16082039Y-14515984D02*
X16062991Y-14506460D01*
X16062991Y-14506460D02*
X16053468Y-14487412D01*
X16053468Y-14487412D02*
X16053468Y-14315984D01*
X16234420Y-14506460D02*
X16215372Y-14515984D01*
X16215372Y-14515984D02*
X16177277Y-14515984D01*
X16177277Y-14515984D02*
X16158230Y-14506460D01*
X16158230Y-14506460D02*
X16148706Y-14487412D01*
X16148706Y-14487412D02*
X16148706Y-14411222D01*
X16148706Y-14411222D02*
X16158230Y-14392174D01*
X16158230Y-14392174D02*
X16177277Y-14382650D01*
X16177277Y-14382650D02*
X16215372Y-14382650D01*
X16215372Y-14382650D02*
X16234420Y-14392174D01*
X16234420Y-14392174D02*
X16243944Y-14411222D01*
X16243944Y-14411222D02*
X16243944Y-14430269D01*
X16243944Y-14430269D02*
X16148706Y-14449317D01*
X16320134Y-14506460D02*
X16339182Y-14515984D01*
X16339182Y-14515984D02*
X16377277Y-14515984D01*
X16377277Y-14515984D02*
X16396325Y-14506460D01*
X16396325Y-14506460D02*
X16405849Y-14487412D01*
X16405849Y-14487412D02*
X16405849Y-14477888D01*
X16405849Y-14477888D02*
X16396325Y-14458841D01*
X16396325Y-14458841D02*
X16377277Y-14449317D01*
X16377277Y-14449317D02*
X16348706Y-14449317D01*
X16348706Y-14449317D02*
X16329658Y-14439793D01*
X16329658Y-14439793D02*
X16320134Y-14420746D01*
X16320134Y-14420746D02*
X16320134Y-14411222D01*
X16320134Y-14411222D02*
X16329658Y-14392174D01*
X16329658Y-14392174D02*
X16348706Y-14382650D01*
X16348706Y-14382650D02*
X16377277Y-14382650D01*
X16377277Y-14382650D02*
X16396325Y-14392174D01*
X16472515Y-14592174D02*
X16482039Y-14582650D01*
X16482039Y-14582650D02*
X16501087Y-14554079D01*
X16501087Y-14554079D02*
X16510611Y-14535031D01*
X16510611Y-14535031D02*
X16520134Y-14506460D01*
X16520134Y-14506460D02*
X16529658Y-14458841D01*
X16529658Y-14458841D02*
X16529658Y-14420746D01*
X16529658Y-14420746D02*
X16520134Y-14373127D01*
X16520134Y-14373127D02*
X16510611Y-14344555D01*
X16510611Y-14344555D02*
X16501087Y-14325508D01*
X16501087Y-14325508D02*
X16482039Y-14296936D01*
X16482039Y-14296936D02*
X16472515Y-14287412D01*
M02*
