G04 #@! TF.GenerationSoftware,KiCad,Pcbnew,8.0.8*
G04 #@! TF.CreationDate,2025-02-19T14:03:04-05:00*
G04 #@! TF.ProjectId,plot_gerbers,706c6f74-5f67-4657-9262-6572732e6b69,rev?*
G04 #@! TF.SameCoordinates,Original*
G04 #@! TF.FileFunction,Legend,Top*
G04 #@! TF.FilePolarity,Positive*
%FSLAX46Y46*%
G04 Gerber Fmt 4.6, Leading zero omitted, Abs format (unit mm)*
G04 Created by KiCad (PCBNEW 8.0.8) date 2025-02-19 14:03:04*
%MOMM*%
%LPD*%
G01*
G04 APERTURE LIST*
%ADD10C,0.100000*%
%ADD11C,0.150000*%
%ADD12C,0.120000*%
%ADD13C,1.700000*%
%ADD14O,1.700000X1.700000*%
%ADD15R,1.500000X1.500000*%
%ADD16R,1.700000X1.700000*%
G04 APERTURE END LIST*
D10*
X117895864Y-90586115D02*
X118895864Y-90586115D01*
X117943483Y-90586115D02*
X117895864Y-90490877D01*
X117895864Y-90490877D02*
X117895864Y-90300401D01*
X117895864Y-90300401D02*
X117943483Y-90205163D01*
X117943483Y-90205163D02*
X117991102Y-90157544D01*
X117991102Y-90157544D02*
X118086340Y-90109925D01*
X118086340Y-90109925D02*
X118372054Y-90109925D01*
X118372054Y-90109925D02*
X118467292Y-90157544D01*
X118467292Y-90157544D02*
X118514912Y-90205163D01*
X118514912Y-90205163D02*
X118562531Y-90300401D01*
X118562531Y-90300401D02*
X118562531Y-90490877D01*
X118562531Y-90490877D02*
X118514912Y-90586115D01*
X118514912Y-89252782D02*
X118562531Y-89348020D01*
X118562531Y-89348020D02*
X118562531Y-89538496D01*
X118562531Y-89538496D02*
X118514912Y-89633734D01*
X118514912Y-89633734D02*
X118467292Y-89681353D01*
X118467292Y-89681353D02*
X118372054Y-89728972D01*
X118372054Y-89728972D02*
X118086340Y-89728972D01*
X118086340Y-89728972D02*
X117991102Y-89681353D01*
X117991102Y-89681353D02*
X117943483Y-89633734D01*
X117943483Y-89633734D02*
X117895864Y-89538496D01*
X117895864Y-89538496D02*
X117895864Y-89348020D01*
X117895864Y-89348020D02*
X117943483Y-89252782D01*
X118562531Y-88824210D02*
X117562531Y-88824210D01*
X117943483Y-88824210D02*
X117895864Y-88728972D01*
X117895864Y-88728972D02*
X117895864Y-88538496D01*
X117895864Y-88538496D02*
X117943483Y-88443258D01*
X117943483Y-88443258D02*
X117991102Y-88395639D01*
X117991102Y-88395639D02*
X118086340Y-88348020D01*
X118086340Y-88348020D02*
X118372054Y-88348020D01*
X118372054Y-88348020D02*
X118467292Y-88395639D01*
X118467292Y-88395639D02*
X118514912Y-88443258D01*
X118514912Y-88443258D02*
X118562531Y-88538496D01*
X118562531Y-88538496D02*
X118562531Y-88728972D01*
X118562531Y-88728972D02*
X118514912Y-88824210D01*
X117562531Y-87443258D02*
X117562531Y-87919448D01*
X117562531Y-87919448D02*
X118038721Y-87967067D01*
X118038721Y-87967067D02*
X117991102Y-87919448D01*
X117991102Y-87919448D02*
X117943483Y-87824210D01*
X117943483Y-87824210D02*
X117943483Y-87586115D01*
X117943483Y-87586115D02*
X117991102Y-87490877D01*
X117991102Y-87490877D02*
X118038721Y-87443258D01*
X118038721Y-87443258D02*
X118133959Y-87395639D01*
X118133959Y-87395639D02*
X118372054Y-87395639D01*
X118372054Y-87395639D02*
X118467292Y-87443258D01*
X118467292Y-87443258D02*
X118514912Y-87490877D01*
X118514912Y-87490877D02*
X118562531Y-87586115D01*
X118562531Y-87586115D02*
X118562531Y-87824210D01*
X118562531Y-87824210D02*
X118514912Y-87919448D01*
X118514912Y-87919448D02*
X118467292Y-87967067D01*
X118038721Y-85871829D02*
X118086340Y-85728972D01*
X118086340Y-85728972D02*
X118133959Y-85681353D01*
X118133959Y-85681353D02*
X118229197Y-85633734D01*
X118229197Y-85633734D02*
X118372054Y-85633734D01*
X118372054Y-85633734D02*
X118467292Y-85681353D01*
X118467292Y-85681353D02*
X118514912Y-85728972D01*
X118514912Y-85728972D02*
X118562531Y-85824210D01*
X118562531Y-85824210D02*
X118562531Y-86205162D01*
X118562531Y-86205162D02*
X117562531Y-86205162D01*
X117562531Y-86205162D02*
X117562531Y-85871829D01*
X117562531Y-85871829D02*
X117610150Y-85776591D01*
X117610150Y-85776591D02*
X117657769Y-85728972D01*
X117657769Y-85728972D02*
X117753007Y-85681353D01*
X117753007Y-85681353D02*
X117848245Y-85681353D01*
X117848245Y-85681353D02*
X117943483Y-85728972D01*
X117943483Y-85728972D02*
X117991102Y-85776591D01*
X117991102Y-85776591D02*
X118038721Y-85871829D01*
X118038721Y-85871829D02*
X118038721Y-86205162D01*
X118467292Y-84633734D02*
X118514912Y-84681353D01*
X118514912Y-84681353D02*
X118562531Y-84824210D01*
X118562531Y-84824210D02*
X118562531Y-84919448D01*
X118562531Y-84919448D02*
X118514912Y-85062305D01*
X118514912Y-85062305D02*
X118419673Y-85157543D01*
X118419673Y-85157543D02*
X118324435Y-85205162D01*
X118324435Y-85205162D02*
X118133959Y-85252781D01*
X118133959Y-85252781D02*
X117991102Y-85252781D01*
X117991102Y-85252781D02*
X117800626Y-85205162D01*
X117800626Y-85205162D02*
X117705388Y-85157543D01*
X117705388Y-85157543D02*
X117610150Y-85062305D01*
X117610150Y-85062305D02*
X117562531Y-84919448D01*
X117562531Y-84919448D02*
X117562531Y-84824210D01*
X117562531Y-84824210D02*
X117610150Y-84681353D01*
X117610150Y-84681353D02*
X117657769Y-84633734D01*
X117562531Y-83538495D02*
X117562531Y-82871829D01*
X117562531Y-82871829D02*
X118562531Y-83300400D01*
X118562531Y-81967067D02*
X118562531Y-82538495D01*
X118562531Y-82252781D02*
X117562531Y-82252781D01*
X117562531Y-82252781D02*
X117705388Y-82348019D01*
X117705388Y-82348019D02*
X117800626Y-82443257D01*
X117800626Y-82443257D02*
X117848245Y-82538495D01*
X118514912Y-81490876D02*
X118562531Y-81490876D01*
X118562531Y-81490876D02*
X118657769Y-81538495D01*
X118657769Y-81538495D02*
X118705388Y-81586114D01*
X117562531Y-80633734D02*
X117562531Y-80824210D01*
X117562531Y-80824210D02*
X117610150Y-80919448D01*
X117610150Y-80919448D02*
X117657769Y-80967067D01*
X117657769Y-80967067D02*
X117800626Y-81062305D01*
X117800626Y-81062305D02*
X117991102Y-81109924D01*
X117991102Y-81109924D02*
X118372054Y-81109924D01*
X118372054Y-81109924D02*
X118467292Y-81062305D01*
X118467292Y-81062305D02*
X118514912Y-81014686D01*
X118514912Y-81014686D02*
X118562531Y-80919448D01*
X118562531Y-80919448D02*
X118562531Y-80728972D01*
X118562531Y-80728972D02*
X118514912Y-80633734D01*
X118514912Y-80633734D02*
X118467292Y-80586115D01*
X118467292Y-80586115D02*
X118372054Y-80538496D01*
X118372054Y-80538496D02*
X118133959Y-80538496D01*
X118133959Y-80538496D02*
X118038721Y-80586115D01*
X118038721Y-80586115D02*
X117991102Y-80633734D01*
X117991102Y-80633734D02*
X117943483Y-80728972D01*
X117943483Y-80728972D02*
X117943483Y-80919448D01*
X117943483Y-80919448D02*
X117991102Y-81014686D01*
X117991102Y-81014686D02*
X118038721Y-81062305D01*
X118038721Y-81062305D02*
X118133959Y-81109924D01*
X117562531Y-79348019D02*
X118372054Y-79348019D01*
X118372054Y-79348019D02*
X118467292Y-79300400D01*
X118467292Y-79300400D02*
X118514912Y-79252781D01*
X118514912Y-79252781D02*
X118562531Y-79157543D01*
X118562531Y-79157543D02*
X118562531Y-78967067D01*
X118562531Y-78967067D02*
X118514912Y-78871829D01*
X118514912Y-78871829D02*
X118467292Y-78824210D01*
X118467292Y-78824210D02*
X118372054Y-78776591D01*
X118372054Y-78776591D02*
X117562531Y-78776591D01*
X117562531Y-78443257D02*
X117562531Y-77871829D01*
X118562531Y-78157543D02*
X117562531Y-78157543D01*
X118181578Y-77538495D02*
X118181578Y-76776591D01*
X118562531Y-75776591D02*
X118562531Y-76348019D01*
X118562531Y-76062305D02*
X117562531Y-76062305D01*
X117562531Y-76062305D02*
X117705388Y-76157543D01*
X117705388Y-76157543D02*
X117800626Y-76252781D01*
X117800626Y-76252781D02*
X117848245Y-76348019D01*
X118562531Y-74824210D02*
X118562531Y-75395638D01*
X118562531Y-75109924D02*
X117562531Y-75109924D01*
X117562531Y-75109924D02*
X117705388Y-75205162D01*
X117705388Y-75205162D02*
X117800626Y-75300400D01*
X117800626Y-75300400D02*
X117848245Y-75395638D01*
X120172475Y-90062306D02*
X120172475Y-90633734D01*
X120172475Y-90348020D02*
X119172475Y-90348020D01*
X119172475Y-90348020D02*
X119315332Y-90443258D01*
X119315332Y-90443258D02*
X119410570Y-90538496D01*
X119410570Y-90538496D02*
X119458189Y-90633734D01*
X119601046Y-89490877D02*
X119553427Y-89586115D01*
X119553427Y-89586115D02*
X119505808Y-89633734D01*
X119505808Y-89633734D02*
X119410570Y-89681353D01*
X119410570Y-89681353D02*
X119362951Y-89681353D01*
X119362951Y-89681353D02*
X119267713Y-89633734D01*
X119267713Y-89633734D02*
X119220094Y-89586115D01*
X119220094Y-89586115D02*
X119172475Y-89490877D01*
X119172475Y-89490877D02*
X119172475Y-89300401D01*
X119172475Y-89300401D02*
X119220094Y-89205163D01*
X119220094Y-89205163D02*
X119267713Y-89157544D01*
X119267713Y-89157544D02*
X119362951Y-89109925D01*
X119362951Y-89109925D02*
X119410570Y-89109925D01*
X119410570Y-89109925D02*
X119505808Y-89157544D01*
X119505808Y-89157544D02*
X119553427Y-89205163D01*
X119553427Y-89205163D02*
X119601046Y-89300401D01*
X119601046Y-89300401D02*
X119601046Y-89490877D01*
X119601046Y-89490877D02*
X119648665Y-89586115D01*
X119648665Y-89586115D02*
X119696284Y-89633734D01*
X119696284Y-89633734D02*
X119791522Y-89681353D01*
X119791522Y-89681353D02*
X119981998Y-89681353D01*
X119981998Y-89681353D02*
X120077236Y-89633734D01*
X120077236Y-89633734D02*
X120124856Y-89586115D01*
X120124856Y-89586115D02*
X120172475Y-89490877D01*
X120172475Y-89490877D02*
X120172475Y-89300401D01*
X120172475Y-89300401D02*
X120124856Y-89205163D01*
X120124856Y-89205163D02*
X120077236Y-89157544D01*
X120077236Y-89157544D02*
X119981998Y-89109925D01*
X119981998Y-89109925D02*
X119791522Y-89109925D01*
X119791522Y-89109925D02*
X119696284Y-89157544D01*
X119696284Y-89157544D02*
X119648665Y-89205163D01*
X119648665Y-89205163D02*
X119601046Y-89300401D01*
X120077236Y-88681353D02*
X120124856Y-88633734D01*
X120124856Y-88633734D02*
X120172475Y-88681353D01*
X120172475Y-88681353D02*
X120124856Y-88728972D01*
X120124856Y-88728972D02*
X120077236Y-88681353D01*
X120077236Y-88681353D02*
X120172475Y-88681353D01*
X119172475Y-88300401D02*
X119172475Y-87633735D01*
X119172475Y-87633735D02*
X120172475Y-88062306D01*
X120172475Y-87252782D02*
X119505808Y-87252782D01*
X119601046Y-87252782D02*
X119553427Y-87205163D01*
X119553427Y-87205163D02*
X119505808Y-87109925D01*
X119505808Y-87109925D02*
X119505808Y-86967068D01*
X119505808Y-86967068D02*
X119553427Y-86871830D01*
X119553427Y-86871830D02*
X119648665Y-86824211D01*
X119648665Y-86824211D02*
X120172475Y-86824211D01*
X119648665Y-86824211D02*
X119553427Y-86776592D01*
X119553427Y-86776592D02*
X119505808Y-86681354D01*
X119505808Y-86681354D02*
X119505808Y-86538497D01*
X119505808Y-86538497D02*
X119553427Y-86443258D01*
X119553427Y-86443258D02*
X119648665Y-86395639D01*
X119648665Y-86395639D02*
X120172475Y-86395639D01*
X120172475Y-85919449D02*
X119505808Y-85919449D01*
X119601046Y-85919449D02*
X119553427Y-85871830D01*
X119553427Y-85871830D02*
X119505808Y-85776592D01*
X119505808Y-85776592D02*
X119505808Y-85633735D01*
X119505808Y-85633735D02*
X119553427Y-85538497D01*
X119553427Y-85538497D02*
X119648665Y-85490878D01*
X119648665Y-85490878D02*
X120172475Y-85490878D01*
X119648665Y-85490878D02*
X119553427Y-85443259D01*
X119553427Y-85443259D02*
X119505808Y-85348021D01*
X119505808Y-85348021D02*
X119505808Y-85205164D01*
X119505808Y-85205164D02*
X119553427Y-85109925D01*
X119553427Y-85109925D02*
X119648665Y-85062306D01*
X119648665Y-85062306D02*
X120172475Y-85062306D01*
X120124856Y-83395640D02*
X120172475Y-83490878D01*
X120172475Y-83490878D02*
X120172475Y-83681354D01*
X120172475Y-83681354D02*
X120124856Y-83776592D01*
X120124856Y-83776592D02*
X120077236Y-83824211D01*
X120077236Y-83824211D02*
X119981998Y-83871830D01*
X119981998Y-83871830D02*
X119696284Y-83871830D01*
X119696284Y-83871830D02*
X119601046Y-83824211D01*
X119601046Y-83824211D02*
X119553427Y-83776592D01*
X119553427Y-83776592D02*
X119505808Y-83681354D01*
X119505808Y-83681354D02*
X119505808Y-83490878D01*
X119505808Y-83490878D02*
X119553427Y-83395640D01*
X120172475Y-82824211D02*
X120124856Y-82919449D01*
X120124856Y-82919449D02*
X120029617Y-82967068D01*
X120029617Y-82967068D02*
X119172475Y-82967068D01*
X120124856Y-82062306D02*
X120172475Y-82157544D01*
X120172475Y-82157544D02*
X120172475Y-82348020D01*
X120172475Y-82348020D02*
X120124856Y-82443258D01*
X120124856Y-82443258D02*
X120029617Y-82490877D01*
X120029617Y-82490877D02*
X119648665Y-82490877D01*
X119648665Y-82490877D02*
X119553427Y-82443258D01*
X119553427Y-82443258D02*
X119505808Y-82348020D01*
X119505808Y-82348020D02*
X119505808Y-82157544D01*
X119505808Y-82157544D02*
X119553427Y-82062306D01*
X119553427Y-82062306D02*
X119648665Y-82014687D01*
X119648665Y-82014687D02*
X119743903Y-82014687D01*
X119743903Y-82014687D02*
X119839141Y-82490877D01*
X120172475Y-81157544D02*
X119648665Y-81157544D01*
X119648665Y-81157544D02*
X119553427Y-81205163D01*
X119553427Y-81205163D02*
X119505808Y-81300401D01*
X119505808Y-81300401D02*
X119505808Y-81490877D01*
X119505808Y-81490877D02*
X119553427Y-81586115D01*
X120124856Y-81157544D02*
X120172475Y-81252782D01*
X120172475Y-81252782D02*
X120172475Y-81490877D01*
X120172475Y-81490877D02*
X120124856Y-81586115D01*
X120124856Y-81586115D02*
X120029617Y-81633734D01*
X120029617Y-81633734D02*
X119934379Y-81633734D01*
X119934379Y-81633734D02*
X119839141Y-81586115D01*
X119839141Y-81586115D02*
X119791522Y-81490877D01*
X119791522Y-81490877D02*
X119791522Y-81252782D01*
X119791522Y-81252782D02*
X119743903Y-81157544D01*
X120172475Y-80681353D02*
X119505808Y-80681353D01*
X119696284Y-80681353D02*
X119601046Y-80633734D01*
X119601046Y-80633734D02*
X119553427Y-80586115D01*
X119553427Y-80586115D02*
X119505808Y-80490877D01*
X119505808Y-80490877D02*
X119505808Y-80395639D01*
X120172475Y-79633734D02*
X119648665Y-79633734D01*
X119648665Y-79633734D02*
X119553427Y-79681353D01*
X119553427Y-79681353D02*
X119505808Y-79776591D01*
X119505808Y-79776591D02*
X119505808Y-79967067D01*
X119505808Y-79967067D02*
X119553427Y-80062305D01*
X120124856Y-79633734D02*
X120172475Y-79728972D01*
X120172475Y-79728972D02*
X120172475Y-79967067D01*
X120172475Y-79967067D02*
X120124856Y-80062305D01*
X120124856Y-80062305D02*
X120029617Y-80109924D01*
X120029617Y-80109924D02*
X119934379Y-80109924D01*
X119934379Y-80109924D02*
X119839141Y-80062305D01*
X119839141Y-80062305D02*
X119791522Y-79967067D01*
X119791522Y-79967067D02*
X119791522Y-79728972D01*
X119791522Y-79728972D02*
X119743903Y-79633734D01*
X119505808Y-79157543D02*
X120172475Y-79157543D01*
X119601046Y-79157543D02*
X119553427Y-79109924D01*
X119553427Y-79109924D02*
X119505808Y-79014686D01*
X119505808Y-79014686D02*
X119505808Y-78871829D01*
X119505808Y-78871829D02*
X119553427Y-78776591D01*
X119553427Y-78776591D02*
X119648665Y-78728972D01*
X119648665Y-78728972D02*
X120172475Y-78728972D01*
X120124856Y-77824210D02*
X120172475Y-77919448D01*
X120172475Y-77919448D02*
X120172475Y-78109924D01*
X120172475Y-78109924D02*
X120124856Y-78205162D01*
X120124856Y-78205162D02*
X120077236Y-78252781D01*
X120077236Y-78252781D02*
X119981998Y-78300400D01*
X119981998Y-78300400D02*
X119696284Y-78300400D01*
X119696284Y-78300400D02*
X119601046Y-78252781D01*
X119601046Y-78252781D02*
X119553427Y-78205162D01*
X119553427Y-78205162D02*
X119505808Y-78109924D01*
X119505808Y-78109924D02*
X119505808Y-77919448D01*
X119505808Y-77919448D02*
X119553427Y-77824210D01*
X120124856Y-77014686D02*
X120172475Y-77109924D01*
X120172475Y-77109924D02*
X120172475Y-77300400D01*
X120172475Y-77300400D02*
X120124856Y-77395638D01*
X120124856Y-77395638D02*
X120029617Y-77443257D01*
X120029617Y-77443257D02*
X119648665Y-77443257D01*
X119648665Y-77443257D02*
X119553427Y-77395638D01*
X119553427Y-77395638D02*
X119505808Y-77300400D01*
X119505808Y-77300400D02*
X119505808Y-77109924D01*
X119505808Y-77109924D02*
X119553427Y-77014686D01*
X119553427Y-77014686D02*
X119648665Y-76967067D01*
X119648665Y-76967067D02*
X119743903Y-76967067D01*
X119743903Y-76967067D02*
X119839141Y-77443257D01*
X121782419Y-90586115D02*
X121115752Y-90586115D01*
X121306228Y-90586115D02*
X121210990Y-90538496D01*
X121210990Y-90538496D02*
X121163371Y-90490877D01*
X121163371Y-90490877D02*
X121115752Y-90395639D01*
X121115752Y-90395639D02*
X121115752Y-90300401D01*
X121734800Y-89586115D02*
X121782419Y-89681353D01*
X121782419Y-89681353D02*
X121782419Y-89871829D01*
X121782419Y-89871829D02*
X121734800Y-89967067D01*
X121734800Y-89967067D02*
X121639561Y-90014686D01*
X121639561Y-90014686D02*
X121258609Y-90014686D01*
X121258609Y-90014686D02*
X121163371Y-89967067D01*
X121163371Y-89967067D02*
X121115752Y-89871829D01*
X121115752Y-89871829D02*
X121115752Y-89681353D01*
X121115752Y-89681353D02*
X121163371Y-89586115D01*
X121163371Y-89586115D02*
X121258609Y-89538496D01*
X121258609Y-89538496D02*
X121353847Y-89538496D01*
X121353847Y-89538496D02*
X121449085Y-90014686D01*
X121115752Y-89205162D02*
X121782419Y-88967067D01*
X121782419Y-88967067D02*
X121115752Y-88728972D01*
X120782419Y-88157543D02*
X120782419Y-88062305D01*
X120782419Y-88062305D02*
X120830038Y-87967067D01*
X120830038Y-87967067D02*
X120877657Y-87919448D01*
X120877657Y-87919448D02*
X120972895Y-87871829D01*
X120972895Y-87871829D02*
X121163371Y-87824210D01*
X121163371Y-87824210D02*
X121401466Y-87824210D01*
X121401466Y-87824210D02*
X121591942Y-87871829D01*
X121591942Y-87871829D02*
X121687180Y-87919448D01*
X121687180Y-87919448D02*
X121734800Y-87967067D01*
X121734800Y-87967067D02*
X121782419Y-88062305D01*
X121782419Y-88062305D02*
X121782419Y-88157543D01*
X121782419Y-88157543D02*
X121734800Y-88252781D01*
X121734800Y-88252781D02*
X121687180Y-88300400D01*
X121687180Y-88300400D02*
X121591942Y-88348019D01*
X121591942Y-88348019D02*
X121401466Y-88395638D01*
X121401466Y-88395638D02*
X121163371Y-88395638D01*
X121163371Y-88395638D02*
X120972895Y-88348019D01*
X120972895Y-88348019D02*
X120877657Y-88300400D01*
X120877657Y-88300400D02*
X120830038Y-88252781D01*
X120830038Y-88252781D02*
X120782419Y-88157543D01*
X121782419Y-86871829D02*
X121782419Y-87443257D01*
X121782419Y-87157543D02*
X120782419Y-87157543D01*
X120782419Y-87157543D02*
X120925276Y-87252781D01*
X120925276Y-87252781D02*
X121020514Y-87348019D01*
X121020514Y-87348019D02*
X121068133Y-87443257D01*
X121877657Y-86681353D02*
X121877657Y-85919448D01*
X121115752Y-85824209D02*
X121115752Y-85443257D01*
X121782419Y-85681352D02*
X120925276Y-85681352D01*
X120925276Y-85681352D02*
X120830038Y-85633733D01*
X120830038Y-85633733D02*
X120782419Y-85538495D01*
X120782419Y-85538495D02*
X120782419Y-85443257D01*
X121734800Y-84728971D02*
X121782419Y-84824209D01*
X121782419Y-84824209D02*
X121782419Y-85014685D01*
X121782419Y-85014685D02*
X121734800Y-85109923D01*
X121734800Y-85109923D02*
X121639561Y-85157542D01*
X121639561Y-85157542D02*
X121258609Y-85157542D01*
X121258609Y-85157542D02*
X121163371Y-85109923D01*
X121163371Y-85109923D02*
X121115752Y-85014685D01*
X121115752Y-85014685D02*
X121115752Y-84824209D01*
X121115752Y-84824209D02*
X121163371Y-84728971D01*
X121163371Y-84728971D02*
X121258609Y-84681352D01*
X121258609Y-84681352D02*
X121353847Y-84681352D01*
X121353847Y-84681352D02*
X121449085Y-85157542D01*
X121782419Y-84252780D02*
X120782419Y-84252780D01*
X121163371Y-84252780D02*
X121115752Y-84157542D01*
X121115752Y-84157542D02*
X121115752Y-83967066D01*
X121115752Y-83967066D02*
X121163371Y-83871828D01*
X121163371Y-83871828D02*
X121210990Y-83824209D01*
X121210990Y-83824209D02*
X121306228Y-83776590D01*
X121306228Y-83776590D02*
X121591942Y-83776590D01*
X121591942Y-83776590D02*
X121687180Y-83824209D01*
X121687180Y-83824209D02*
X121734800Y-83871828D01*
X121734800Y-83871828D02*
X121782419Y-83967066D01*
X121782419Y-83967066D02*
X121782419Y-84157542D01*
X121782419Y-84157542D02*
X121734800Y-84252780D01*
X120877657Y-83395637D02*
X120830038Y-83348018D01*
X120830038Y-83348018D02*
X120782419Y-83252780D01*
X120782419Y-83252780D02*
X120782419Y-83014685D01*
X120782419Y-83014685D02*
X120830038Y-82919447D01*
X120830038Y-82919447D02*
X120877657Y-82871828D01*
X120877657Y-82871828D02*
X120972895Y-82824209D01*
X120972895Y-82824209D02*
X121068133Y-82824209D01*
X121068133Y-82824209D02*
X121210990Y-82871828D01*
X121210990Y-82871828D02*
X121782419Y-83443256D01*
X121782419Y-83443256D02*
X121782419Y-82824209D01*
X120782419Y-81919447D02*
X120782419Y-82395637D01*
X120782419Y-82395637D02*
X121258609Y-82443256D01*
X121258609Y-82443256D02*
X121210990Y-82395637D01*
X121210990Y-82395637D02*
X121163371Y-82300399D01*
X121163371Y-82300399D02*
X121163371Y-82062304D01*
X121163371Y-82062304D02*
X121210990Y-81967066D01*
X121210990Y-81967066D02*
X121258609Y-81919447D01*
X121258609Y-81919447D02*
X121353847Y-81871828D01*
X121353847Y-81871828D02*
X121591942Y-81871828D01*
X121591942Y-81871828D02*
X121687180Y-81919447D01*
X121687180Y-81919447D02*
X121734800Y-81967066D01*
X121734800Y-81967066D02*
X121782419Y-82062304D01*
X121782419Y-82062304D02*
X121782419Y-82300399D01*
X121782419Y-82300399D02*
X121734800Y-82395637D01*
X121734800Y-82395637D02*
X121687180Y-82443256D01*
D11*
X129279523Y-121398152D02*
X129279523Y-122207676D01*
X129279523Y-122207676D02*
X129231904Y-122302914D01*
X129231904Y-122302914D02*
X129184285Y-122350533D01*
X129184285Y-122350533D02*
X129089047Y-122398152D01*
X129089047Y-122398152D02*
X128946190Y-122398152D01*
X128946190Y-122398152D02*
X128850952Y-122350533D01*
X129279523Y-122017200D02*
X129184285Y-122064819D01*
X129184285Y-122064819D02*
X128993809Y-122064819D01*
X128993809Y-122064819D02*
X128898571Y-122017200D01*
X128898571Y-122017200D02*
X128850952Y-121969580D01*
X128850952Y-121969580D02*
X128803333Y-121874342D01*
X128803333Y-121874342D02*
X128803333Y-121588628D01*
X128803333Y-121588628D02*
X128850952Y-121493390D01*
X128850952Y-121493390D02*
X128898571Y-121445771D01*
X128898571Y-121445771D02*
X128993809Y-121398152D01*
X128993809Y-121398152D02*
X129184285Y-121398152D01*
X129184285Y-121398152D02*
X129279523Y-121445771D01*
X129755714Y-121398152D02*
X129755714Y-122064819D01*
X129755714Y-121493390D02*
X129803333Y-121445771D01*
X129803333Y-121445771D02*
X129898571Y-121398152D01*
X129898571Y-121398152D02*
X130041428Y-121398152D01*
X130041428Y-121398152D02*
X130136666Y-121445771D01*
X130136666Y-121445771D02*
X130184285Y-121541009D01*
X130184285Y-121541009D02*
X130184285Y-122064819D01*
X131089047Y-122064819D02*
X131089047Y-121064819D01*
X131089047Y-122017200D02*
X130993809Y-122064819D01*
X130993809Y-122064819D02*
X130803333Y-122064819D01*
X130803333Y-122064819D02*
X130708095Y-122017200D01*
X130708095Y-122017200D02*
X130660476Y-121969580D01*
X130660476Y-121969580D02*
X130612857Y-121874342D01*
X130612857Y-121874342D02*
X130612857Y-121588628D01*
X130612857Y-121588628D02*
X130660476Y-121493390D01*
X130660476Y-121493390D02*
X130708095Y-121445771D01*
X130708095Y-121445771D02*
X130803333Y-121398152D01*
X130803333Y-121398152D02*
X130993809Y-121398152D01*
X130993809Y-121398152D02*
X131089047Y-121445771D01*
D12*
X178160000Y-104030000D02*
X124820000Y-104030000D01*
X126460000Y-120840000D02*
X128360000Y-120840000D01*
X126460000Y-122740000D02*
X126460000Y-120840000D01*
X128360000Y-120840000D02*
X128360000Y-122740000D01*
X128360000Y-122740000D02*
X126460000Y-122740000D01*
X117040000Y-92550000D02*
X118370000Y-92550000D01*
X117040000Y-93880000D02*
X117040000Y-92550000D01*
X117040000Y-95150000D02*
X117040000Y-115530000D01*
X117040000Y-95150000D02*
X119640000Y-95150000D01*
X117040000Y-115530000D02*
X122240000Y-115530000D01*
X119640000Y-92550000D02*
X122240000Y-92550000D01*
X119640000Y-95150000D02*
X119640000Y-92550000D01*
X122240000Y-92550000D02*
X122240000Y-115530000D01*
%LPC*%
D13*
X175620000Y-88790000D03*
X175620000Y-91330000D03*
X175620000Y-93870000D03*
X175620000Y-96410000D03*
X175620000Y-98950000D03*
X175620000Y-101490000D03*
D14*
X173080000Y-88790000D03*
X173080000Y-91330000D03*
X173080000Y-93870000D03*
X173080000Y-96410000D03*
X173080000Y-98950000D03*
X173080000Y-101490000D03*
X170540000Y-88790000D03*
X170540000Y-91330000D03*
X170540000Y-93870000D03*
X170540000Y-96410000D03*
X170540000Y-98950000D03*
X170540000Y-101490000D03*
X168000000Y-88790000D03*
X168000000Y-91330000D03*
X168000000Y-93870000D03*
X168000000Y-96410000D03*
X168000000Y-98950000D03*
X168000000Y-101490000D03*
X165460000Y-88790000D03*
X165460000Y-91330000D03*
X165460000Y-93870000D03*
X165460000Y-96410000D03*
X165460000Y-98950000D03*
X165460000Y-101490000D03*
X162920000Y-88790000D03*
X162920000Y-91330000D03*
X162920000Y-93870000D03*
X162920000Y-96410000D03*
X162920000Y-98950000D03*
X162920000Y-101490000D03*
X160380000Y-88790000D03*
X160380000Y-91330000D03*
X160380000Y-93870000D03*
X160380000Y-96410000D03*
X160380000Y-98950000D03*
X160380000Y-101490000D03*
X157840000Y-88790000D03*
X157840000Y-91330000D03*
X157840000Y-93870000D03*
X157840000Y-96410000D03*
X157840000Y-98950000D03*
X157840000Y-101490000D03*
X155300000Y-88790000D03*
X155300000Y-91330000D03*
X155300000Y-93870000D03*
X155300000Y-96410000D03*
X155300000Y-98950000D03*
X155300000Y-101490000D03*
X152760000Y-88790000D03*
X152760000Y-91330000D03*
X152760000Y-93870000D03*
X152760000Y-96410000D03*
X152760000Y-98950000D03*
X152760000Y-101490000D03*
X150220000Y-88790000D03*
X150220000Y-91330000D03*
X150220000Y-93870000D03*
X150220000Y-96410000D03*
X150220000Y-98950000D03*
X150220000Y-101490000D03*
X147680000Y-88790000D03*
X147680000Y-91330000D03*
X147680000Y-93870000D03*
X147680000Y-96410000D03*
X147680000Y-98950000D03*
X147680000Y-101490000D03*
X145140000Y-88790000D03*
X145140000Y-91330000D03*
X145140000Y-93870000D03*
X145140000Y-96410000D03*
X145140000Y-98950000D03*
X145140000Y-101490000D03*
X142600000Y-88790000D03*
X142600000Y-91330000D03*
X142600000Y-93870000D03*
X142600000Y-96410000D03*
X142600000Y-98950000D03*
X142600000Y-101490000D03*
X140060000Y-88790000D03*
X140060000Y-91330000D03*
X140060000Y-93870000D03*
X140060000Y-96410000D03*
X140060000Y-98950000D03*
X140060000Y-101490000D03*
X137520000Y-88790000D03*
X137520000Y-91330000D03*
X137520000Y-93870000D03*
X137520000Y-96410000D03*
X137520000Y-98950000D03*
X137520000Y-101490000D03*
X134980000Y-88790000D03*
X134980000Y-91330000D03*
X134980000Y-93870000D03*
X134980000Y-96410000D03*
X134980000Y-98950000D03*
X134980000Y-101490000D03*
X132440000Y-88790000D03*
X132440000Y-91330000D03*
X132440000Y-93870000D03*
X132440000Y-96410000D03*
X132440000Y-98950000D03*
X132440000Y-101490000D03*
X129900000Y-88790000D03*
X129900000Y-91330000D03*
X129900000Y-93870000D03*
X129900000Y-96410000D03*
X129900000Y-98950000D03*
X129900000Y-101490000D03*
X127360000Y-88790000D03*
X127360000Y-91330000D03*
X127360000Y-93870000D03*
X127360000Y-96410000D03*
X127360000Y-98950000D03*
X127360000Y-101490000D03*
D13*
X175620000Y-106570000D03*
X175620000Y-109110000D03*
X175620000Y-111650000D03*
X175620000Y-114190000D03*
X175620000Y-116730000D03*
X175620000Y-119270000D03*
D14*
X173080000Y-106570000D03*
X173080000Y-109110000D03*
X173080000Y-111650000D03*
X173080000Y-114190000D03*
X173080000Y-116730000D03*
X173080000Y-119270000D03*
X170540000Y-106570000D03*
X170540000Y-109110000D03*
X170540000Y-111650000D03*
X170540000Y-114190000D03*
X170540000Y-116730000D03*
X170540000Y-119270000D03*
X168000000Y-106570000D03*
X168000000Y-109110000D03*
X168000000Y-111650000D03*
X168000000Y-114190000D03*
X168000000Y-116730000D03*
X168000000Y-119270000D03*
X165460000Y-106570000D03*
X165460000Y-109110000D03*
X165460000Y-111650000D03*
X165460000Y-114190000D03*
X165460000Y-116730000D03*
X165460000Y-119270000D03*
X162920000Y-106570000D03*
X162920000Y-109110000D03*
X162920000Y-111650000D03*
X162920000Y-114190000D03*
X162920000Y-116730000D03*
X162920000Y-119270000D03*
X160380000Y-106570000D03*
X160380000Y-109110000D03*
X160380000Y-111650000D03*
X160380000Y-114190000D03*
X160380000Y-116730000D03*
X160380000Y-119270000D03*
X157840000Y-106570000D03*
X157840000Y-109110000D03*
X157840000Y-111650000D03*
X157840000Y-114190000D03*
X157840000Y-116730000D03*
X157840000Y-119270000D03*
X155300000Y-106570000D03*
X155300000Y-109110000D03*
X155300000Y-111650000D03*
X155300000Y-114190000D03*
X155300000Y-116730000D03*
X155300000Y-119270000D03*
X152760000Y-106570000D03*
X152760000Y-109110000D03*
X152760000Y-111650000D03*
X152760000Y-114190000D03*
X152760000Y-116730000D03*
X152760000Y-119270000D03*
X150220000Y-106570000D03*
X150220000Y-109110000D03*
X150220000Y-111650000D03*
X150220000Y-114190000D03*
X150220000Y-116730000D03*
X150220000Y-119270000D03*
X147680000Y-106570000D03*
X147680000Y-109110000D03*
X147680000Y-111650000D03*
X147680000Y-114190000D03*
X147680000Y-116730000D03*
X147680000Y-119270000D03*
X145140000Y-106570000D03*
X145140000Y-109110000D03*
X145140000Y-111650000D03*
X145140000Y-114190000D03*
X145140000Y-116730000D03*
X145140000Y-119270000D03*
X142600000Y-106570000D03*
X142600000Y-109110000D03*
X142600000Y-111650000D03*
X142600000Y-114190000D03*
X142600000Y-116730000D03*
X142600000Y-119270000D03*
X140060000Y-106570000D03*
X140060000Y-109110000D03*
X140060000Y-111650000D03*
X140060000Y-114190000D03*
X140060000Y-116730000D03*
X140060000Y-119270000D03*
X137520000Y-106570000D03*
X137520000Y-109110000D03*
X137520000Y-111650000D03*
X137520000Y-114190000D03*
X137520000Y-116730000D03*
X137520000Y-119270000D03*
X134980000Y-106570000D03*
X134980000Y-109110000D03*
X134980000Y-111650000D03*
X134980000Y-114190000D03*
X134980000Y-116730000D03*
X134980000Y-119270000D03*
X132440000Y-106570000D03*
X132440000Y-109110000D03*
X132440000Y-111650000D03*
X132440000Y-114190000D03*
X132440000Y-116730000D03*
X132440000Y-119270000D03*
X129900000Y-106570000D03*
X129900000Y-109110000D03*
X129900000Y-111650000D03*
X129900000Y-114190000D03*
X129900000Y-116730000D03*
X129900000Y-119270000D03*
X127360000Y-106570000D03*
X127360000Y-109110000D03*
X127360000Y-111650000D03*
X127360000Y-114190000D03*
X127360000Y-116730000D03*
X127360000Y-119270000D03*
D15*
X127410000Y-121790000D03*
D13*
X127360000Y-131840000D03*
X127360000Y-129300000D03*
X127360000Y-126760000D03*
X127360000Y-124220000D03*
D14*
X129900000Y-131840000D03*
X129900000Y-129300000D03*
X129900000Y-126760000D03*
X129900000Y-124220000D03*
X132440000Y-131840000D03*
X132440000Y-129300000D03*
X132440000Y-126760000D03*
X132440000Y-124220000D03*
X134980000Y-131840000D03*
X134980000Y-129300000D03*
X134980000Y-126760000D03*
X134980000Y-124220000D03*
X137520000Y-131840000D03*
X137520000Y-129300000D03*
X137520000Y-126760000D03*
X137520000Y-124220000D03*
X140060000Y-131840000D03*
X140060000Y-129300000D03*
X140060000Y-126760000D03*
X140060000Y-124220000D03*
X142600000Y-131840000D03*
X142600000Y-129300000D03*
X142600000Y-126760000D03*
X142600000Y-124220000D03*
X145140000Y-131840000D03*
X145140000Y-129300000D03*
X145140000Y-126760000D03*
X145140000Y-124220000D03*
X147680000Y-131840000D03*
X147680000Y-129300000D03*
X147680000Y-126760000D03*
X147680000Y-124220000D03*
X150220000Y-131840000D03*
X150220000Y-129300000D03*
X150220000Y-126760000D03*
X150220000Y-124220000D03*
X152760000Y-131840000D03*
X152760000Y-129300000D03*
X152760000Y-126760000D03*
X152760000Y-124220000D03*
X155300000Y-131840000D03*
X155300000Y-129300000D03*
X155300000Y-126760000D03*
X155300000Y-124220000D03*
X157840000Y-131840000D03*
X157840000Y-129300000D03*
X157840000Y-126760000D03*
X157840000Y-124220000D03*
X160380000Y-131840000D03*
X160380000Y-129300000D03*
X160380000Y-126760000D03*
X160380000Y-124220000D03*
X162920000Y-131840000D03*
X162920000Y-129300000D03*
X162920000Y-126760000D03*
X162920000Y-124220000D03*
X165460000Y-131840000D03*
X165460000Y-129300000D03*
X165460000Y-126760000D03*
X165460000Y-124220000D03*
X168000000Y-131840000D03*
X168000000Y-129300000D03*
X168000000Y-126760000D03*
X168000000Y-124220000D03*
X170540000Y-131840000D03*
X170540000Y-129300000D03*
X170540000Y-126760000D03*
X170540000Y-124220000D03*
X173080000Y-131840000D03*
X173080000Y-129300000D03*
X173080000Y-126760000D03*
X173080000Y-124220000D03*
X175620000Y-131840000D03*
X175620000Y-129300000D03*
X175620000Y-126760000D03*
X175620000Y-124220000D03*
D13*
X127360000Y-83840000D03*
X127360000Y-81300000D03*
X127360000Y-78760000D03*
X127360000Y-76220000D03*
D14*
X129900000Y-83840000D03*
X129900000Y-81300000D03*
X129900000Y-78760000D03*
X129900000Y-76220000D03*
X132440000Y-83840000D03*
X132440000Y-81300000D03*
X132440000Y-78760000D03*
X132440000Y-76220000D03*
X134980000Y-83840000D03*
X134980000Y-81300000D03*
X134980000Y-78760000D03*
X134980000Y-76220000D03*
X137520000Y-83840000D03*
X137520000Y-81300000D03*
X137520000Y-78760000D03*
X137520000Y-76220000D03*
X140060000Y-83840000D03*
X140060000Y-81300000D03*
X140060000Y-78760000D03*
X140060000Y-76220000D03*
X142600000Y-83840000D03*
X142600000Y-81300000D03*
X142600000Y-78760000D03*
X142600000Y-76220000D03*
X145140000Y-83840000D03*
X145140000Y-81300000D03*
X145140000Y-78760000D03*
X145140000Y-76220000D03*
X147680000Y-83840000D03*
X147680000Y-81300000D03*
X147680000Y-78760000D03*
X147680000Y-76220000D03*
X150220000Y-83840000D03*
X150220000Y-81300000D03*
X150220000Y-78760000D03*
X150220000Y-76220000D03*
X152760000Y-83840000D03*
X152760000Y-81300000D03*
X152760000Y-78760000D03*
X152760000Y-76220000D03*
X155300000Y-83840000D03*
X155300000Y-81300000D03*
X155300000Y-78760000D03*
X155300000Y-76220000D03*
X157840000Y-83840000D03*
X157840000Y-81300000D03*
X157840000Y-78760000D03*
X157840000Y-76220000D03*
X160380000Y-83840000D03*
X160380000Y-81300000D03*
X160380000Y-78760000D03*
X160380000Y-76220000D03*
X162920000Y-83840000D03*
X162920000Y-81300000D03*
X162920000Y-78760000D03*
X162920000Y-76220000D03*
X165460000Y-83840000D03*
X165460000Y-81300000D03*
X165460000Y-78760000D03*
X165460000Y-76220000D03*
X168000000Y-83840000D03*
X168000000Y-81300000D03*
X168000000Y-78760000D03*
X168000000Y-76220000D03*
X170540000Y-83840000D03*
X170540000Y-81300000D03*
X170540000Y-78760000D03*
X170540000Y-76220000D03*
X173080000Y-83840000D03*
X173080000Y-81300000D03*
X173080000Y-78760000D03*
X173080000Y-76220000D03*
X175620000Y-83840000D03*
X175620000Y-81300000D03*
X175620000Y-78760000D03*
X175620000Y-76220000D03*
D16*
X118370000Y-93880000D03*
D14*
X120910000Y-93880000D03*
X118370000Y-96420000D03*
X120910000Y-96420000D03*
X118370000Y-98960000D03*
X120910000Y-98960000D03*
X118370000Y-101500000D03*
X120910000Y-101500000D03*
X118370000Y-104040000D03*
X120910000Y-104040000D03*
X118370000Y-106580000D03*
X120910000Y-106580000D03*
X118370000Y-109120000D03*
X120910000Y-109120000D03*
X118370000Y-111660000D03*
X120910000Y-111660000D03*
X118370000Y-114200000D03*
X120910000Y-114200000D03*
%LPD*%
M02*
