G04 #@! TF.GenerationSoftware,KiCad,Pcbnew,8.0.8*
G04 #@! TF.CreationDate,2025-02-19T14:35:13-05:00*
G04 #@! TF.ProjectId,afe_230v_16a,6166655f-3233-4307-965f-3136612e6b69,rev?*
G04 #@! TF.SameCoordinates,Original*
G04 #@! TF.FileFunction,Copper,L2,Bot*
G04 #@! TF.FilePolarity,Positive*
%FSLAX46Y46*%
G04 Gerber Fmt 4.6, Leading zero omitted, Abs format (unit mm)*
G04 Created by KiCad (PCBNEW 8.0.8) date 2025-02-19 14:35:13*
%MOMM*%
%LPD*%
G01*
G04 APERTURE LIST*
G04 #@! TA.AperFunction,ComponentPad*
%ADD10R,1.800000X1.800000*%
G04 #@! TD*
G04 #@! TA.AperFunction,ComponentPad*
%ADD11C,1.800000*%
G04 #@! TD*
G04 #@! TA.AperFunction,ComponentPad*
%ADD12R,1.700000X1.700000*%
G04 #@! TD*
G04 #@! TA.AperFunction,ComponentPad*
%ADD13O,1.700000X1.700000*%
G04 #@! TD*
G04 #@! TA.AperFunction,ViaPad*
%ADD14C,0.600000*%
G04 #@! TD*
G04 #@! TA.AperFunction,Conductor*
%ADD15C,0.400000*%
G04 #@! TD*
G04 #@! TA.AperFunction,Conductor*
%ADD16C,0.500000*%
G04 #@! TD*
G04 APERTURE END LIST*
D10*
X207970000Y-112110000D03*
D11*
X210510000Y-112110000D03*
X213050000Y-112110000D03*
X215590000Y-112110000D03*
X218130000Y-112110000D03*
X220670000Y-112110000D03*
X223210000Y-112110000D03*
X225750000Y-112110000D03*
X228290000Y-112110000D03*
X230830000Y-112110000D03*
X233370000Y-112110000D03*
X235910000Y-112110000D03*
X238450000Y-112110000D03*
X240990000Y-112110000D03*
X243530000Y-112110000D03*
X246070000Y-112110000D03*
X248610000Y-112110000D03*
X251150000Y-112110000D03*
X253690000Y-112110000D03*
X256230000Y-112110000D03*
X256230000Y-96870000D03*
X253690000Y-96870000D03*
X251150000Y-96870000D03*
X248610000Y-96870000D03*
X246070000Y-96870000D03*
X243530000Y-96870000D03*
X240990000Y-96870000D03*
X238450000Y-96870000D03*
X235910000Y-96870000D03*
X233370000Y-96870000D03*
X230830000Y-96870000D03*
X228290000Y-96870000D03*
X225750000Y-96870000D03*
X223210000Y-96870000D03*
X220670000Y-96870000D03*
X218130000Y-96870000D03*
X215590000Y-96870000D03*
X213050000Y-96870000D03*
X210510000Y-96870000D03*
D10*
X207970000Y-96870000D03*
X252420000Y-108300000D03*
D11*
X252420000Y-105760000D03*
X252420000Y-103220000D03*
X252420000Y-100680000D03*
D12*
X200330000Y-89160000D03*
D13*
X202870000Y-89160000D03*
X200330000Y-91700000D03*
X202870000Y-91700000D03*
X200330000Y-94240000D03*
X202870000Y-94240000D03*
X200330000Y-96780000D03*
X202870000Y-96780000D03*
X200330000Y-99320000D03*
X202870000Y-99320000D03*
X200330000Y-101860000D03*
X202870000Y-101860000D03*
X200330000Y-104400000D03*
X202870000Y-104400000D03*
X200330000Y-106940000D03*
X202870000Y-106940000D03*
X200330000Y-109480000D03*
X202870000Y-109480000D03*
D12*
X242550000Y-88850000D03*
D13*
X242550000Y-86310000D03*
X245090000Y-88850000D03*
X245090000Y-86310000D03*
X247630000Y-88850000D03*
X247630000Y-86310000D03*
X250170000Y-88850000D03*
X250170000Y-86310000D03*
X252710000Y-88850000D03*
X252710000Y-86310000D03*
X255250000Y-88850000D03*
X255250000Y-86310000D03*
D14*
X235556294Y-117820000D03*
X215464126Y-117910000D03*
X245602378Y-117790000D03*
X222947263Y-80970000D03*
X258160000Y-117790000D03*
X210389658Y-81060000D03*
X197490000Y-108310000D03*
X245550952Y-80940000D03*
X197490000Y-105777852D03*
X258108574Y-80940000D03*
X255597036Y-80940000D03*
X212952605Y-117910000D03*
X261580000Y-100780000D03*
X230533252Y-117820000D03*
X215412700Y-81060000D03*
X240527910Y-80940000D03*
X250573994Y-80940000D03*
X217975647Y-117910000D03*
X225510210Y-117820000D03*
X207878137Y-81060000D03*
X227970305Y-80970000D03*
X261580000Y-105844284D03*
X238067815Y-117820000D03*
X212901179Y-81060000D03*
X238016389Y-80970000D03*
X255648462Y-117790000D03*
X197490000Y-95649284D03*
X197490000Y-100713568D03*
X222998689Y-117820000D03*
X207929563Y-117910000D03*
X197490000Y-103245710D03*
X228021731Y-117820000D03*
X261580000Y-90651432D03*
X261580000Y-103312142D03*
X202906521Y-117910000D03*
X240579336Y-117790000D03*
X217924221Y-81060000D03*
X261580000Y-108376432D03*
X197490000Y-93117142D03*
X261580000Y-93183574D03*
X233044773Y-117820000D03*
X210441084Y-117910000D03*
X220487168Y-117820000D03*
X197490000Y-90585000D03*
X243039431Y-80940000D03*
X225458784Y-80970000D03*
X243090857Y-117790000D03*
X261580000Y-95715716D03*
X200343574Y-81060000D03*
X226700000Y-91700000D03*
X230481826Y-80970000D03*
X232993347Y-80970000D03*
X205418042Y-117910000D03*
X261580000Y-98247858D03*
X250625420Y-117790000D03*
X197490000Y-98181426D03*
X253136941Y-117790000D03*
X248113899Y-117790000D03*
X200395000Y-117910000D03*
X235504868Y-80970000D03*
X248062473Y-80940000D03*
X220435742Y-80970000D03*
X231030000Y-86510000D03*
X202855095Y-81060000D03*
X253085515Y-80940000D03*
X205366616Y-81060000D03*
D15*
X250000000Y-93770000D02*
X246340000Y-90110000D01*
D16*
X213050000Y-96870000D02*
X224480000Y-108300000D01*
D15*
X246340000Y-90110000D02*
X246340000Y-87560000D01*
X233910000Y-94800000D02*
X226720000Y-94800000D01*
D16*
X252420000Y-108300000D02*
X256230000Y-112110000D01*
X248740000Y-109700000D02*
X220800000Y-109700000D01*
D15*
X246340000Y-87560000D02*
X245090000Y-86310000D01*
X258550000Y-102170000D02*
X252420000Y-108300000D01*
D16*
X224480000Y-108300000D02*
X252420000Y-108300000D01*
D15*
X242110000Y-94800000D02*
X233910000Y-94800000D01*
D16*
X220800000Y-109700000D02*
X207970000Y-96870000D01*
X251150000Y-112110000D02*
X248740000Y-109700000D01*
D15*
X258550000Y-95820000D02*
X258550000Y-102170000D01*
X226700000Y-94780000D02*
X226720000Y-94800000D01*
X210040000Y-94800000D02*
X207970000Y-96870000D01*
X245090000Y-86310000D02*
X243800000Y-87600000D01*
D16*
X253690000Y-112110000D02*
X250580000Y-109000000D01*
X250580000Y-109000000D02*
X222640000Y-109000000D01*
D15*
X232120000Y-87600000D02*
X231030000Y-86510000D01*
X243800000Y-87600000D02*
X232120000Y-87600000D01*
X256500000Y-93770000D02*
X256500000Y-90100000D01*
X256500000Y-93770000D02*
X250000000Y-93770000D01*
X256500000Y-93770000D02*
X258550000Y-95820000D01*
X256500000Y-90100000D02*
X255250000Y-88850000D01*
X245090000Y-88850000D02*
X245090000Y-91820000D01*
X226720000Y-94800000D02*
X210040000Y-94800000D01*
X245090000Y-91820000D02*
X242110000Y-94800000D01*
X226700000Y-91700000D02*
X226700000Y-94780000D01*
D16*
X222640000Y-109000000D02*
X210510000Y-96870000D01*
G04 #@! TA.AperFunction,Conductor*
G36*
X211661186Y-97667634D02*
G01*
X211745484Y-97538606D01*
X211830151Y-97345584D01*
X211875107Y-97292098D01*
X211941842Y-97271408D01*
X212009170Y-97290082D01*
X212054707Y-97340122D01*
X212110327Y-97451821D01*
X212233237Y-97614581D01*
X212383958Y-97751980D01*
X212383960Y-97751982D01*
X212394158Y-97758296D01*
X212557363Y-97859348D01*
X212747544Y-97933024D01*
X212948024Y-97970500D01*
X212948026Y-97970500D01*
X213151974Y-97970500D01*
X213151976Y-97970500D01*
X213352456Y-97933024D01*
X213366101Y-97927737D01*
X213435720Y-97921872D01*
X213497462Y-97954579D01*
X213498578Y-97955681D01*
X224203386Y-108660489D01*
X224306113Y-108719799D01*
X224330321Y-108726284D01*
X224330324Y-108726286D01*
X224330325Y-108726286D01*
X224357580Y-108733589D01*
X224420691Y-108750500D01*
X251195500Y-108750500D01*
X251262539Y-108770185D01*
X251308294Y-108822989D01*
X251319500Y-108874500D01*
X251319500Y-109219752D01*
X251331131Y-109278229D01*
X251331132Y-109278230D01*
X251375447Y-109344552D01*
X251441769Y-109388867D01*
X251441770Y-109388868D01*
X251500247Y-109400499D01*
X251500250Y-109400500D01*
X251500252Y-109400500D01*
X252832035Y-109400500D01*
X252899074Y-109420185D01*
X252919716Y-109436819D01*
X253996688Y-110513791D01*
X254030173Y-110575114D01*
X254025189Y-110644806D01*
X253983317Y-110700739D01*
X253917853Y-110725156D01*
X253888599Y-110723781D01*
X253806008Y-110710000D01*
X253573993Y-110710000D01*
X253345139Y-110748188D01*
X253125706Y-110823520D01*
X253125697Y-110823523D01*
X252921650Y-110933949D01*
X252891200Y-110957647D01*
X253560591Y-111627037D01*
X253497007Y-111644075D01*
X253382993Y-111709901D01*
X253289901Y-111802993D01*
X253224075Y-111917007D01*
X253207037Y-111980590D01*
X252538812Y-111312365D01*
X252454516Y-111441391D01*
X252454514Y-111441395D01*
X252369848Y-111634415D01*
X252324892Y-111687901D01*
X252258156Y-111708591D01*
X252190828Y-111689916D01*
X252145292Y-111639877D01*
X252105765Y-111560497D01*
X252089673Y-111528179D01*
X252024134Y-111441391D01*
X251966762Y-111365418D01*
X251816041Y-111228019D01*
X251816039Y-111228017D01*
X251642642Y-111120655D01*
X251642635Y-111120651D01*
X251500135Y-111065447D01*
X251452456Y-111046976D01*
X251251976Y-111009500D01*
X251048024Y-111009500D01*
X250985793Y-111021133D01*
X250847542Y-111046976D01*
X250847536Y-111046978D01*
X250833892Y-111052264D01*
X250764269Y-111058124D01*
X250702530Y-111025412D01*
X250701421Y-111024317D01*
X249016616Y-109339513D01*
X249016614Y-109339511D01*
X248965250Y-109309856D01*
X248913888Y-109280201D01*
X248901780Y-109276957D01*
X248889673Y-109273713D01*
X248889670Y-109273712D01*
X248851478Y-109263478D01*
X248799309Y-109249500D01*
X248799308Y-109249500D01*
X221037965Y-109249500D01*
X220970926Y-109229815D01*
X220950284Y-109213181D01*
X210203311Y-98466208D01*
X210169826Y-98404885D01*
X210174810Y-98335193D01*
X210216682Y-98279260D01*
X210282146Y-98254843D01*
X210311401Y-98256218D01*
X210393993Y-98270000D01*
X210626007Y-98270000D01*
X210854860Y-98231811D01*
X211074293Y-98156479D01*
X211074301Y-98156476D01*
X211278355Y-98046047D01*
X211308797Y-98022351D01*
X211308798Y-98022351D01*
X210639409Y-97352962D01*
X210702993Y-97335925D01*
X210817007Y-97270099D01*
X210910099Y-97177007D01*
X210975925Y-97062993D01*
X210992962Y-96999409D01*
X211661186Y-97667634D01*
G37*
G04 #@! TD.AperFunction*
G04 #@! TA.AperFunction,Conductor*
G36*
X245870013Y-89662607D02*
G01*
X245921573Y-89709760D01*
X245939500Y-89773982D01*
X245939500Y-90057273D01*
X245939500Y-90162727D01*
X245949184Y-90198868D01*
X245966793Y-90264589D01*
X245993156Y-90310250D01*
X246019520Y-90355913D01*
X246019521Y-90355914D01*
X246019522Y-90355915D01*
X249675179Y-94011571D01*
X249675189Y-94011582D01*
X249679519Y-94015912D01*
X249679520Y-94015913D01*
X249754087Y-94090480D01*
X249845413Y-94143207D01*
X249947273Y-94170501D01*
X249947275Y-94170501D01*
X250060323Y-94170501D01*
X250060339Y-94170500D01*
X256282745Y-94170500D01*
X256349784Y-94190185D01*
X256370426Y-94206819D01*
X258113181Y-95949574D01*
X258146666Y-96010897D01*
X258149500Y-96037255D01*
X258149500Y-101952745D01*
X258129815Y-102019784D01*
X258113181Y-102040426D01*
X252990426Y-107163181D01*
X252929103Y-107196666D01*
X252902745Y-107199500D01*
X251500247Y-107199500D01*
X251441770Y-107211131D01*
X251441769Y-107211132D01*
X251375447Y-107255447D01*
X251331132Y-107321769D01*
X251331131Y-107321770D01*
X251319500Y-107380247D01*
X251319500Y-107725500D01*
X251299815Y-107792539D01*
X251247011Y-107838294D01*
X251195500Y-107849500D01*
X224717965Y-107849500D01*
X224650926Y-107829815D01*
X224630284Y-107813181D01*
X222577102Y-105759999D01*
X251314785Y-105759999D01*
X251314785Y-105760000D01*
X251333602Y-105963082D01*
X251389417Y-106159247D01*
X251389422Y-106159260D01*
X251480327Y-106341821D01*
X251603237Y-106504581D01*
X251753958Y-106641980D01*
X251753960Y-106641982D01*
X251853141Y-106703392D01*
X251927363Y-106749348D01*
X252117544Y-106823024D01*
X252318024Y-106860500D01*
X252318026Y-106860500D01*
X252521974Y-106860500D01*
X252521976Y-106860500D01*
X252722456Y-106823024D01*
X252912637Y-106749348D01*
X253086041Y-106641981D01*
X253236764Y-106504579D01*
X253359673Y-106341821D01*
X253450582Y-106159250D01*
X253506397Y-105963083D01*
X253525215Y-105760000D01*
X253506397Y-105556917D01*
X253450582Y-105360750D01*
X253359673Y-105178179D01*
X253236764Y-105015421D01*
X253236762Y-105015418D01*
X253086041Y-104878019D01*
X253086039Y-104878017D01*
X252912642Y-104770655D01*
X252912635Y-104770651D01*
X252817546Y-104733814D01*
X252722456Y-104696976D01*
X252521976Y-104659500D01*
X252318024Y-104659500D01*
X252117544Y-104696976D01*
X252117541Y-104696976D01*
X252117541Y-104696977D01*
X251927364Y-104770651D01*
X251927357Y-104770655D01*
X251753960Y-104878017D01*
X251753958Y-104878019D01*
X251603237Y-105015418D01*
X251480327Y-105178178D01*
X251389422Y-105360739D01*
X251389417Y-105360752D01*
X251333602Y-105556917D01*
X251314785Y-105759999D01*
X222577102Y-105759999D01*
X217497097Y-100679994D01*
X251015202Y-100679994D01*
X251015202Y-100680005D01*
X251034361Y-100911218D01*
X251091317Y-101136135D01*
X251184516Y-101348609D01*
X251268811Y-101477633D01*
X251937037Y-100809408D01*
X251954075Y-100872993D01*
X252019901Y-100987007D01*
X252112993Y-101080099D01*
X252227007Y-101145925D01*
X252290590Y-101162962D01*
X251621201Y-101832351D01*
X251651649Y-101856050D01*
X251855697Y-101966476D01*
X251855706Y-101966479D01*
X251934081Y-101993386D01*
X251991096Y-102033771D01*
X252017227Y-102098571D01*
X252004176Y-102167211D01*
X251956087Y-102217899D01*
X251938615Y-102226292D01*
X251927373Y-102230647D01*
X251927357Y-102230655D01*
X251753960Y-102338017D01*
X251753958Y-102338019D01*
X251603237Y-102475418D01*
X251480327Y-102638178D01*
X251389422Y-102820739D01*
X251389417Y-102820752D01*
X251333602Y-103016917D01*
X251314785Y-103219999D01*
X251314785Y-103220000D01*
X251333602Y-103423082D01*
X251389417Y-103619247D01*
X251389422Y-103619260D01*
X251480327Y-103801821D01*
X251603237Y-103964581D01*
X251753958Y-104101980D01*
X251753960Y-104101982D01*
X251853141Y-104163392D01*
X251927363Y-104209348D01*
X252117544Y-104283024D01*
X252318024Y-104320500D01*
X252318026Y-104320500D01*
X252521974Y-104320500D01*
X252521976Y-104320500D01*
X252722456Y-104283024D01*
X252912637Y-104209348D01*
X253086041Y-104101981D01*
X253236764Y-103964579D01*
X253359673Y-103801821D01*
X253450582Y-103619250D01*
X253506397Y-103423083D01*
X253525215Y-103220000D01*
X253506397Y-103016917D01*
X253450582Y-102820750D01*
X253359673Y-102638179D01*
X253236764Y-102475421D01*
X253236762Y-102475418D01*
X253086041Y-102338019D01*
X253086039Y-102338017D01*
X252912642Y-102230655D01*
X252912641Y-102230654D01*
X252912637Y-102230652D01*
X252912632Y-102230650D01*
X252912626Y-102230647D01*
X252901387Y-102226293D01*
X252845985Y-102183720D01*
X252822395Y-102117954D01*
X252838106Y-102049873D01*
X252888130Y-102001094D01*
X252905919Y-101993386D01*
X252984290Y-101966481D01*
X252984301Y-101966476D01*
X253188355Y-101856047D01*
X253218797Y-101832351D01*
X253218798Y-101832350D01*
X252549410Y-101162962D01*
X252612993Y-101145925D01*
X252727007Y-101080099D01*
X252820099Y-100987007D01*
X252885925Y-100872993D01*
X252902962Y-100809409D01*
X253571186Y-101477634D01*
X253655484Y-101348606D01*
X253748682Y-101136135D01*
X253805638Y-100911218D01*
X253824798Y-100680005D01*
X253824798Y-100679994D01*
X253805638Y-100448781D01*
X253748682Y-100223864D01*
X253655483Y-100011390D01*
X253571186Y-99882364D01*
X252902962Y-100550589D01*
X252885925Y-100487007D01*
X252820099Y-100372993D01*
X252727007Y-100279901D01*
X252612993Y-100214075D01*
X252549409Y-100197037D01*
X253218797Y-99527647D01*
X253218797Y-99527645D01*
X253188360Y-99503955D01*
X253188354Y-99503951D01*
X252984302Y-99393523D01*
X252984293Y-99393520D01*
X252764860Y-99318188D01*
X252536007Y-99280000D01*
X252303993Y-99280000D01*
X252075139Y-99318188D01*
X251855706Y-99393520D01*
X251855697Y-99393523D01*
X251651650Y-99503949D01*
X251621200Y-99527647D01*
X252290591Y-100197037D01*
X252227007Y-100214075D01*
X252112993Y-100279901D01*
X252019901Y-100372993D01*
X251954075Y-100487007D01*
X251937037Y-100550590D01*
X251268812Y-99882365D01*
X251184516Y-100011391D01*
X251184514Y-100011395D01*
X251091317Y-100223864D01*
X251034361Y-100448781D01*
X251015202Y-100679994D01*
X217497097Y-100679994D01*
X214703661Y-97886558D01*
X214670176Y-97825235D01*
X214673726Y-97775586D01*
X214642856Y-97782438D01*
X214577290Y-97758296D01*
X214563502Y-97746399D01*
X214133387Y-97316284D01*
X214099902Y-97254961D01*
X214101802Y-97194668D01*
X214104850Y-97183956D01*
X214136397Y-97073083D01*
X214155215Y-96870000D01*
X214155215Y-96869999D01*
X214484785Y-96869999D01*
X214484785Y-96870000D01*
X214503602Y-97073082D01*
X214559417Y-97269247D01*
X214559422Y-97269260D01*
X214650327Y-97451821D01*
X214750137Y-97583991D01*
X214774829Y-97649353D01*
X214768183Y-97680531D01*
X214782496Y-97675193D01*
X214850769Y-97690045D01*
X214874880Y-97707240D01*
X214923958Y-97751980D01*
X214923960Y-97751982D01*
X214934158Y-97758296D01*
X215097363Y-97859348D01*
X215287544Y-97933024D01*
X215488024Y-97970500D01*
X215488026Y-97970500D01*
X215691974Y-97970500D01*
X215691976Y-97970500D01*
X215892456Y-97933024D01*
X216082637Y-97859348D01*
X216256041Y-97751981D01*
X216406764Y-97614579D01*
X216529673Y-97451821D01*
X216620582Y-97269250D01*
X216676397Y-97073083D01*
X216695215Y-96870000D01*
X216695215Y-96869999D01*
X217024785Y-96869999D01*
X217024785Y-96870000D01*
X217043602Y-97073082D01*
X217099417Y-97269247D01*
X217099422Y-97269260D01*
X217190327Y-97451821D01*
X217313237Y-97614581D01*
X217463958Y-97751980D01*
X217463960Y-97751982D01*
X217474158Y-97758296D01*
X217637363Y-97859348D01*
X217827544Y-97933024D01*
X218028024Y-97970500D01*
X218028026Y-97970500D01*
X218231974Y-97970500D01*
X218231976Y-97970500D01*
X218432456Y-97933024D01*
X218622637Y-97859348D01*
X218796041Y-97751981D01*
X218946764Y-97614579D01*
X219069673Y-97451821D01*
X219160582Y-97269250D01*
X219216397Y-97073083D01*
X219235215Y-96870000D01*
X219235215Y-96869999D01*
X219564785Y-96869999D01*
X219564785Y-96870000D01*
X219583602Y-97073082D01*
X219639417Y-97269247D01*
X219639422Y-97269260D01*
X219730327Y-97451821D01*
X219853237Y-97614581D01*
X220003958Y-97751980D01*
X220003960Y-97751982D01*
X220014158Y-97758296D01*
X220177363Y-97859348D01*
X220367544Y-97933024D01*
X220568024Y-97970500D01*
X220568026Y-97970500D01*
X220771974Y-97970500D01*
X220771976Y-97970500D01*
X220972456Y-97933024D01*
X221162637Y-97859348D01*
X221336041Y-97751981D01*
X221486764Y-97614579D01*
X221609673Y-97451821D01*
X221700582Y-97269250D01*
X221756397Y-97073083D01*
X221775215Y-96870000D01*
X221775215Y-96869999D01*
X222104785Y-96869999D01*
X222104785Y-96870000D01*
X222123602Y-97073082D01*
X222179417Y-97269247D01*
X222179422Y-97269260D01*
X222270327Y-97451821D01*
X222393237Y-97614581D01*
X222543958Y-97751980D01*
X222543960Y-97751982D01*
X222554158Y-97758296D01*
X222717363Y-97859348D01*
X222907544Y-97933024D01*
X223108024Y-97970500D01*
X223108026Y-97970500D01*
X223311974Y-97970500D01*
X223311976Y-97970500D01*
X223512456Y-97933024D01*
X223702637Y-97859348D01*
X223876041Y-97751981D01*
X224026764Y-97614579D01*
X224149673Y-97451821D01*
X224240582Y-97269250D01*
X224296397Y-97073083D01*
X224315215Y-96870000D01*
X224315215Y-96869999D01*
X224644785Y-96869999D01*
X224644785Y-96870000D01*
X224663602Y-97073082D01*
X224719417Y-97269247D01*
X224719422Y-97269260D01*
X224810327Y-97451821D01*
X224933237Y-97614581D01*
X225083958Y-97751980D01*
X225083960Y-97751982D01*
X225094158Y-97758296D01*
X225257363Y-97859348D01*
X225447544Y-97933024D01*
X225648024Y-97970500D01*
X225648026Y-97970500D01*
X225851974Y-97970500D01*
X225851976Y-97970500D01*
X226052456Y-97933024D01*
X226242637Y-97859348D01*
X226416041Y-97751981D01*
X226566764Y-97614579D01*
X226689673Y-97451821D01*
X226780582Y-97269250D01*
X226836397Y-97073083D01*
X226855215Y-96870000D01*
X226855215Y-96869999D01*
X227184785Y-96869999D01*
X227184785Y-96870000D01*
X227203602Y-97073082D01*
X227259417Y-97269247D01*
X227259422Y-97269260D01*
X227350327Y-97451821D01*
X227473237Y-97614581D01*
X227623958Y-97751980D01*
X227623960Y-97751982D01*
X227634158Y-97758296D01*
X227797363Y-97859348D01*
X227987544Y-97933024D01*
X228188024Y-97970500D01*
X228188026Y-97970500D01*
X228391974Y-97970500D01*
X228391976Y-97970500D01*
X228592456Y-97933024D01*
X228782637Y-97859348D01*
X228956041Y-97751981D01*
X229106764Y-97614579D01*
X229229673Y-97451821D01*
X229320582Y-97269250D01*
X229376397Y-97073083D01*
X229395215Y-96870000D01*
X229395215Y-96869999D01*
X229724785Y-96869999D01*
X229724785Y-96870000D01*
X229743602Y-97073082D01*
X229799417Y-97269247D01*
X229799422Y-97269260D01*
X229890327Y-97451821D01*
X230013237Y-97614581D01*
X230163958Y-97751980D01*
X230163960Y-97751982D01*
X230174158Y-97758296D01*
X230337363Y-97859348D01*
X230527544Y-97933024D01*
X230728024Y-97970500D01*
X230728026Y-97970500D01*
X230931974Y-97970500D01*
X230931976Y-97970500D01*
X231132456Y-97933024D01*
X231322637Y-97859348D01*
X231496041Y-97751981D01*
X231646764Y-97614579D01*
X231769673Y-97451821D01*
X231860582Y-97269250D01*
X231916397Y-97073083D01*
X231935215Y-96870000D01*
X231935215Y-96869999D01*
X232264785Y-96869999D01*
X232264785Y-96870000D01*
X232283602Y-97073082D01*
X232339417Y-97269247D01*
X232339422Y-97269260D01*
X232430327Y-97451821D01*
X232553237Y-97614581D01*
X232703958Y-97751980D01*
X232703960Y-97751982D01*
X232714158Y-97758296D01*
X232877363Y-97859348D01*
X233067544Y-97933024D01*
X233268024Y-97970500D01*
X233268026Y-97970500D01*
X233471974Y-97970500D01*
X233471976Y-97970500D01*
X233672456Y-97933024D01*
X233862637Y-97859348D01*
X234036041Y-97751981D01*
X234186764Y-97614579D01*
X234309673Y-97451821D01*
X234400582Y-97269250D01*
X234456397Y-97073083D01*
X234475215Y-96870000D01*
X234475215Y-96869999D01*
X234804785Y-96869999D01*
X234804785Y-96870000D01*
X234823602Y-97073082D01*
X234879417Y-97269247D01*
X234879422Y-97269260D01*
X234970327Y-97451821D01*
X235093237Y-97614581D01*
X235243958Y-97751980D01*
X235243960Y-97751982D01*
X235254158Y-97758296D01*
X235417363Y-97859348D01*
X235607544Y-97933024D01*
X235808024Y-97970500D01*
X235808026Y-97970500D01*
X236011974Y-97970500D01*
X236011976Y-97970500D01*
X236212456Y-97933024D01*
X236402637Y-97859348D01*
X236576041Y-97751981D01*
X236726764Y-97614579D01*
X236849673Y-97451821D01*
X236940582Y-97269250D01*
X236996397Y-97073083D01*
X237015215Y-96870000D01*
X237015215Y-96869999D01*
X237344785Y-96869999D01*
X237344785Y-96870000D01*
X237363602Y-97073082D01*
X237419417Y-97269247D01*
X237419422Y-97269260D01*
X237510327Y-97451821D01*
X237633237Y-97614581D01*
X237783958Y-97751980D01*
X237783960Y-97751982D01*
X237794158Y-97758296D01*
X237957363Y-97859348D01*
X238147544Y-97933024D01*
X238348024Y-97970500D01*
X238348026Y-97970500D01*
X238551974Y-97970500D01*
X238551976Y-97970500D01*
X238752456Y-97933024D01*
X238942637Y-97859348D01*
X239116041Y-97751981D01*
X239266764Y-97614579D01*
X239389673Y-97451821D01*
X239480582Y-97269250D01*
X239536397Y-97073083D01*
X239555215Y-96870000D01*
X239555215Y-96869999D01*
X239884785Y-96869999D01*
X239884785Y-96870000D01*
X239903602Y-97073082D01*
X239959417Y-97269247D01*
X239959422Y-97269260D01*
X240050327Y-97451821D01*
X240173237Y-97614581D01*
X240323958Y-97751980D01*
X240323960Y-97751982D01*
X240334158Y-97758296D01*
X240497363Y-97859348D01*
X240687544Y-97933024D01*
X240888024Y-97970500D01*
X240888026Y-97970500D01*
X241091974Y-97970500D01*
X241091976Y-97970500D01*
X241292456Y-97933024D01*
X241482637Y-97859348D01*
X241656041Y-97751981D01*
X241806764Y-97614579D01*
X241929673Y-97451821D01*
X242020582Y-97269250D01*
X242076397Y-97073083D01*
X242095215Y-96870000D01*
X242095215Y-96869999D01*
X242424785Y-96869999D01*
X242424785Y-96870000D01*
X242443602Y-97073082D01*
X242499417Y-97269247D01*
X242499422Y-97269260D01*
X242590327Y-97451821D01*
X242713237Y-97614581D01*
X242863958Y-97751980D01*
X242863960Y-97751982D01*
X242874158Y-97758296D01*
X243037363Y-97859348D01*
X243227544Y-97933024D01*
X243428024Y-97970500D01*
X243428026Y-97970500D01*
X243631974Y-97970500D01*
X243631976Y-97970500D01*
X243832456Y-97933024D01*
X244022637Y-97859348D01*
X244196041Y-97751981D01*
X244346764Y-97614579D01*
X244469673Y-97451821D01*
X244560582Y-97269250D01*
X244616397Y-97073083D01*
X244635215Y-96870000D01*
X244635215Y-96869999D01*
X244964785Y-96869999D01*
X244964785Y-96870000D01*
X244983602Y-97073082D01*
X245039417Y-97269247D01*
X245039422Y-97269260D01*
X245130327Y-97451821D01*
X245253237Y-97614581D01*
X245403958Y-97751980D01*
X245403960Y-97751982D01*
X245414158Y-97758296D01*
X245577363Y-97859348D01*
X245767544Y-97933024D01*
X245968024Y-97970500D01*
X245968026Y-97970500D01*
X246171974Y-97970500D01*
X246171976Y-97970500D01*
X246372456Y-97933024D01*
X246562637Y-97859348D01*
X246736041Y-97751981D01*
X246886764Y-97614579D01*
X247009673Y-97451821D01*
X247100582Y-97269250D01*
X247156397Y-97073083D01*
X247175215Y-96870000D01*
X247175215Y-96869999D01*
X247504785Y-96869999D01*
X247504785Y-96870000D01*
X247523602Y-97073082D01*
X247579417Y-97269247D01*
X247579422Y-97269260D01*
X247670327Y-97451821D01*
X247793237Y-97614581D01*
X247943958Y-97751980D01*
X247943960Y-97751982D01*
X247954158Y-97758296D01*
X248117363Y-97859348D01*
X248307544Y-97933024D01*
X248508024Y-97970500D01*
X248508026Y-97970500D01*
X248711974Y-97970500D01*
X248711976Y-97970500D01*
X248912456Y-97933024D01*
X249102637Y-97859348D01*
X249276041Y-97751981D01*
X249426764Y-97614579D01*
X249549673Y-97451821D01*
X249640582Y-97269250D01*
X249696397Y-97073083D01*
X249715215Y-96870000D01*
X249715215Y-96869999D01*
X250044785Y-96869999D01*
X250044785Y-96870000D01*
X250063602Y-97073082D01*
X250119417Y-97269247D01*
X250119422Y-97269260D01*
X250210327Y-97451821D01*
X250333237Y-97614581D01*
X250483958Y-97751980D01*
X250483960Y-97751982D01*
X250494158Y-97758296D01*
X250657363Y-97859348D01*
X250847544Y-97933024D01*
X251048024Y-97970500D01*
X251048026Y-97970500D01*
X251251974Y-97970500D01*
X251251976Y-97970500D01*
X251452456Y-97933024D01*
X251642637Y-97859348D01*
X251816041Y-97751981D01*
X251966764Y-97614579D01*
X252089673Y-97451821D01*
X252180582Y-97269250D01*
X252236397Y-97073083D01*
X252255215Y-96870000D01*
X252255215Y-96869999D01*
X252584785Y-96869999D01*
X252584785Y-96870000D01*
X252603602Y-97073082D01*
X252659417Y-97269247D01*
X252659422Y-97269260D01*
X252750327Y-97451821D01*
X252873237Y-97614581D01*
X253023958Y-97751980D01*
X253023960Y-97751982D01*
X253034158Y-97758296D01*
X253197363Y-97859348D01*
X253387544Y-97933024D01*
X253588024Y-97970500D01*
X253588026Y-97970500D01*
X253791974Y-97970500D01*
X253791976Y-97970500D01*
X253992456Y-97933024D01*
X254182637Y-97859348D01*
X254356041Y-97751981D01*
X254506764Y-97614579D01*
X254629673Y-97451821D01*
X254720582Y-97269250D01*
X254776397Y-97073083D01*
X254795215Y-96870000D01*
X254795215Y-96869999D01*
X255124785Y-96869999D01*
X255124785Y-96870000D01*
X255143602Y-97073082D01*
X255199417Y-97269247D01*
X255199422Y-97269260D01*
X255290327Y-97451821D01*
X255413237Y-97614581D01*
X255563958Y-97751980D01*
X255563960Y-97751982D01*
X255574158Y-97758296D01*
X255737363Y-97859348D01*
X255927544Y-97933024D01*
X256128024Y-97970500D01*
X256128026Y-97970500D01*
X256331974Y-97970500D01*
X256331976Y-97970500D01*
X256532456Y-97933024D01*
X256722637Y-97859348D01*
X256896041Y-97751981D01*
X257046764Y-97614579D01*
X257169673Y-97451821D01*
X257260582Y-97269250D01*
X257316397Y-97073083D01*
X257335215Y-96870000D01*
X257329115Y-96804174D01*
X257316397Y-96666917D01*
X257298934Y-96605541D01*
X257260582Y-96470750D01*
X257260159Y-96469901D01*
X257210415Y-96370000D01*
X257169673Y-96288179D01*
X257046764Y-96125421D01*
X257046762Y-96125418D01*
X256896041Y-95988019D01*
X256896039Y-95988017D01*
X256722642Y-95880655D01*
X256722635Y-95880651D01*
X256580135Y-95825447D01*
X256532456Y-95806976D01*
X256331976Y-95769500D01*
X256128024Y-95769500D01*
X255927544Y-95806976D01*
X255927541Y-95806976D01*
X255927541Y-95806977D01*
X255737364Y-95880651D01*
X255737357Y-95880655D01*
X255563960Y-95988017D01*
X255563958Y-95988019D01*
X255413237Y-96125418D01*
X255290327Y-96288178D01*
X255199422Y-96470739D01*
X255199417Y-96470752D01*
X255143602Y-96666917D01*
X255124785Y-96869999D01*
X254795215Y-96869999D01*
X254789115Y-96804174D01*
X254776397Y-96666917D01*
X254758934Y-96605541D01*
X254720582Y-96470750D01*
X254720159Y-96469901D01*
X254670415Y-96370000D01*
X254629673Y-96288179D01*
X254506764Y-96125421D01*
X254506762Y-96125418D01*
X254356041Y-95988019D01*
X254356039Y-95988017D01*
X254182642Y-95880655D01*
X254182635Y-95880651D01*
X254040135Y-95825447D01*
X253992456Y-95806976D01*
X253791976Y-95769500D01*
X253588024Y-95769500D01*
X253387544Y-95806976D01*
X253387541Y-95806976D01*
X253387541Y-95806977D01*
X253197364Y-95880651D01*
X253197357Y-95880655D01*
X253023960Y-95988017D01*
X253023958Y-95988019D01*
X252873237Y-96125418D01*
X252750327Y-96288178D01*
X252659422Y-96470739D01*
X252659417Y-96470752D01*
X252603602Y-96666917D01*
X252584785Y-96869999D01*
X252255215Y-96869999D01*
X252249115Y-96804174D01*
X252236397Y-96666917D01*
X252218934Y-96605541D01*
X252180582Y-96470750D01*
X252180159Y-96469901D01*
X252130415Y-96370000D01*
X252089673Y-96288179D01*
X251966764Y-96125421D01*
X251966762Y-96125418D01*
X251816041Y-95988019D01*
X251816039Y-95988017D01*
X251642642Y-95880655D01*
X251642635Y-95880651D01*
X251500135Y-95825447D01*
X251452456Y-95806976D01*
X251251976Y-95769500D01*
X251048024Y-95769500D01*
X250847544Y-95806976D01*
X250847541Y-95806976D01*
X250847541Y-95806977D01*
X250657364Y-95880651D01*
X250657357Y-95880655D01*
X250483960Y-95988017D01*
X250483958Y-95988019D01*
X250333237Y-96125418D01*
X250210327Y-96288178D01*
X250119422Y-96470739D01*
X250119417Y-96470752D01*
X250063602Y-96666917D01*
X250044785Y-96869999D01*
X249715215Y-96869999D01*
X249709115Y-96804174D01*
X249696397Y-96666917D01*
X249678934Y-96605541D01*
X249640582Y-96470750D01*
X249640159Y-96469901D01*
X249590415Y-96370000D01*
X249549673Y-96288179D01*
X249426764Y-96125421D01*
X249426762Y-96125418D01*
X249276041Y-95988019D01*
X249276039Y-95988017D01*
X249102642Y-95880655D01*
X249102635Y-95880651D01*
X248960135Y-95825447D01*
X248912456Y-95806976D01*
X248711976Y-95769500D01*
X248508024Y-95769500D01*
X248307544Y-95806976D01*
X248307541Y-95806976D01*
X248307541Y-95806977D01*
X248117364Y-95880651D01*
X248117357Y-95880655D01*
X247943960Y-95988017D01*
X247943958Y-95988019D01*
X247793237Y-96125418D01*
X247670327Y-96288178D01*
X247579422Y-96470739D01*
X247579417Y-96470752D01*
X247523602Y-96666917D01*
X247504785Y-96869999D01*
X247175215Y-96869999D01*
X247169115Y-96804174D01*
X247156397Y-96666917D01*
X247138934Y-96605541D01*
X247100582Y-96470750D01*
X247100159Y-96469901D01*
X247050415Y-96370000D01*
X247009673Y-96288179D01*
X246886764Y-96125421D01*
X246886762Y-96125418D01*
X246736041Y-95988019D01*
X246736039Y-95988017D01*
X246562642Y-95880655D01*
X246562635Y-95880651D01*
X246420135Y-95825447D01*
X246372456Y-95806976D01*
X246171976Y-95769500D01*
X245968024Y-95769500D01*
X245767544Y-95806976D01*
X245767541Y-95806976D01*
X245767541Y-95806977D01*
X245577364Y-95880651D01*
X245577357Y-95880655D01*
X245403960Y-95988017D01*
X245403958Y-95988019D01*
X245253237Y-96125418D01*
X245130327Y-96288178D01*
X245039422Y-96470739D01*
X245039417Y-96470752D01*
X244983602Y-96666917D01*
X244964785Y-96869999D01*
X244635215Y-96869999D01*
X244629115Y-96804174D01*
X244616397Y-96666917D01*
X244598934Y-96605541D01*
X244560582Y-96470750D01*
X244560159Y-96469901D01*
X244510415Y-96370000D01*
X244469673Y-96288179D01*
X244346764Y-96125421D01*
X244346762Y-96125418D01*
X244196041Y-95988019D01*
X244196039Y-95988017D01*
X244022642Y-95880655D01*
X244022635Y-95880651D01*
X243880135Y-95825447D01*
X243832456Y-95806976D01*
X243631976Y-95769500D01*
X243428024Y-95769500D01*
X243227544Y-95806976D01*
X243227541Y-95806976D01*
X243227541Y-95806977D01*
X243037364Y-95880651D01*
X243037357Y-95880655D01*
X242863960Y-95988017D01*
X242863958Y-95988019D01*
X242713237Y-96125418D01*
X242590327Y-96288178D01*
X242499422Y-96470739D01*
X242499417Y-96470752D01*
X242443602Y-96666917D01*
X242424785Y-96869999D01*
X242095215Y-96869999D01*
X242089115Y-96804174D01*
X242076397Y-96666917D01*
X242058934Y-96605541D01*
X242020582Y-96470750D01*
X242020159Y-96469901D01*
X241970415Y-96370000D01*
X241929673Y-96288179D01*
X241806764Y-96125421D01*
X241806762Y-96125418D01*
X241656041Y-95988019D01*
X241656039Y-95988017D01*
X241482642Y-95880655D01*
X241482635Y-95880651D01*
X241340135Y-95825447D01*
X241292456Y-95806976D01*
X241091976Y-95769500D01*
X240888024Y-95769500D01*
X240687544Y-95806976D01*
X240687541Y-95806976D01*
X240687541Y-95806977D01*
X240497364Y-95880651D01*
X240497357Y-95880655D01*
X240323960Y-95988017D01*
X240323958Y-95988019D01*
X240173237Y-96125418D01*
X240050327Y-96288178D01*
X239959422Y-96470739D01*
X239959417Y-96470752D01*
X239903602Y-96666917D01*
X239884785Y-96869999D01*
X239555215Y-96869999D01*
X239549115Y-96804174D01*
X239536397Y-96666917D01*
X239518934Y-96605541D01*
X239480582Y-96470750D01*
X239480159Y-96469901D01*
X239430415Y-96370000D01*
X239389673Y-96288179D01*
X239266764Y-96125421D01*
X239266762Y-96125418D01*
X239116041Y-95988019D01*
X239116039Y-95988017D01*
X238942642Y-95880655D01*
X238942635Y-95880651D01*
X238800135Y-95825447D01*
X238752456Y-95806976D01*
X238551976Y-95769500D01*
X238348024Y-95769500D01*
X238147544Y-95806976D01*
X238147541Y-95806976D01*
X238147541Y-95806977D01*
X237957364Y-95880651D01*
X237957357Y-95880655D01*
X237783960Y-95988017D01*
X237783958Y-95988019D01*
X237633237Y-96125418D01*
X237510327Y-96288178D01*
X237419422Y-96470739D01*
X237419417Y-96470752D01*
X237363602Y-96666917D01*
X237344785Y-96869999D01*
X237015215Y-96869999D01*
X237009115Y-96804174D01*
X236996397Y-96666917D01*
X236978934Y-96605541D01*
X236940582Y-96470750D01*
X236940159Y-96469901D01*
X236890415Y-96370000D01*
X236849673Y-96288179D01*
X236726764Y-96125421D01*
X236726762Y-96125418D01*
X236576041Y-95988019D01*
X236576039Y-95988017D01*
X236402642Y-95880655D01*
X236402635Y-95880651D01*
X236260135Y-95825447D01*
X236212456Y-95806976D01*
X236011976Y-95769500D01*
X235808024Y-95769500D01*
X235607544Y-95806976D01*
X235607541Y-95806976D01*
X235607541Y-95806977D01*
X235417364Y-95880651D01*
X235417357Y-95880655D01*
X235243960Y-95988017D01*
X235243958Y-95988019D01*
X235093237Y-96125418D01*
X234970327Y-96288178D01*
X234879422Y-96470739D01*
X234879417Y-96470752D01*
X234823602Y-96666917D01*
X234804785Y-96869999D01*
X234475215Y-96869999D01*
X234469115Y-96804174D01*
X234456397Y-96666917D01*
X234438934Y-96605541D01*
X234400582Y-96470750D01*
X234400159Y-96469901D01*
X234350415Y-96370000D01*
X234309673Y-96288179D01*
X234186764Y-96125421D01*
X234186762Y-96125418D01*
X234036041Y-95988019D01*
X234036039Y-95988017D01*
X233862642Y-95880655D01*
X233862635Y-95880651D01*
X233720135Y-95825447D01*
X233672456Y-95806976D01*
X233471976Y-95769500D01*
X233268024Y-95769500D01*
X233067544Y-95806976D01*
X233067541Y-95806976D01*
X233067541Y-95806977D01*
X232877364Y-95880651D01*
X232877357Y-95880655D01*
X232703960Y-95988017D01*
X232703958Y-95988019D01*
X232553237Y-96125418D01*
X232430327Y-96288178D01*
X232339422Y-96470739D01*
X232339417Y-96470752D01*
X232283602Y-96666917D01*
X232264785Y-96869999D01*
X231935215Y-96869999D01*
X231929115Y-96804174D01*
X231916397Y-96666917D01*
X231898934Y-96605541D01*
X231860582Y-96470750D01*
X231860159Y-96469901D01*
X231810415Y-96370000D01*
X231769673Y-96288179D01*
X231646764Y-96125421D01*
X231646762Y-96125418D01*
X231496041Y-95988019D01*
X231496039Y-95988017D01*
X231322642Y-95880655D01*
X231322635Y-95880651D01*
X231180135Y-95825447D01*
X231132456Y-95806976D01*
X230931976Y-95769500D01*
X230728024Y-95769500D01*
X230527544Y-95806976D01*
X230527541Y-95806976D01*
X230527541Y-95806977D01*
X230337364Y-95880651D01*
X230337357Y-95880655D01*
X230163960Y-95988017D01*
X230163958Y-95988019D01*
X230013237Y-96125418D01*
X229890327Y-96288178D01*
X229799422Y-96470739D01*
X229799417Y-96470752D01*
X229743602Y-96666917D01*
X229724785Y-96869999D01*
X229395215Y-96869999D01*
X229389115Y-96804174D01*
X229376397Y-96666917D01*
X229358934Y-96605541D01*
X229320582Y-96470750D01*
X229320159Y-96469901D01*
X229270415Y-96370000D01*
X229229673Y-96288179D01*
X229106764Y-96125421D01*
X229106762Y-96125418D01*
X228956041Y-95988019D01*
X228956039Y-95988017D01*
X228782642Y-95880655D01*
X228782635Y-95880651D01*
X228640135Y-95825447D01*
X228592456Y-95806976D01*
X228391976Y-95769500D01*
X228188024Y-95769500D01*
X227987544Y-95806976D01*
X227987541Y-95806976D01*
X227987541Y-95806977D01*
X227797364Y-95880651D01*
X227797357Y-95880655D01*
X227623960Y-95988017D01*
X227623958Y-95988019D01*
X227473237Y-96125418D01*
X227350327Y-96288178D01*
X227259422Y-96470739D01*
X227259417Y-96470752D01*
X227203602Y-96666917D01*
X227184785Y-96869999D01*
X226855215Y-96869999D01*
X226849115Y-96804174D01*
X226836397Y-96666917D01*
X226818934Y-96605541D01*
X226780582Y-96470750D01*
X226780159Y-96469901D01*
X226730415Y-96370000D01*
X226689673Y-96288179D01*
X226566764Y-96125421D01*
X226566762Y-96125418D01*
X226416041Y-95988019D01*
X226416039Y-95988017D01*
X226242642Y-95880655D01*
X226242635Y-95880651D01*
X226100135Y-95825447D01*
X226052456Y-95806976D01*
X225851976Y-95769500D01*
X225648024Y-95769500D01*
X225447544Y-95806976D01*
X225447541Y-95806976D01*
X225447541Y-95806977D01*
X225257364Y-95880651D01*
X225257357Y-95880655D01*
X225083960Y-95988017D01*
X225083958Y-95988019D01*
X224933237Y-96125418D01*
X224810327Y-96288178D01*
X224719422Y-96470739D01*
X224719417Y-96470752D01*
X224663602Y-96666917D01*
X224644785Y-96869999D01*
X224315215Y-96869999D01*
X224309115Y-96804174D01*
X224296397Y-96666917D01*
X224278934Y-96605541D01*
X224240582Y-96470750D01*
X224240159Y-96469901D01*
X224190415Y-96370000D01*
X224149673Y-96288179D01*
X224026764Y-96125421D01*
X224026762Y-96125418D01*
X223876041Y-95988019D01*
X223876039Y-95988017D01*
X223702642Y-95880655D01*
X223702635Y-95880651D01*
X223560135Y-95825447D01*
X223512456Y-95806976D01*
X223311976Y-95769500D01*
X223108024Y-95769500D01*
X222907544Y-95806976D01*
X222907541Y-95806976D01*
X222907541Y-95806977D01*
X222717364Y-95880651D01*
X222717357Y-95880655D01*
X222543960Y-95988017D01*
X222543958Y-95988019D01*
X222393237Y-96125418D01*
X222270327Y-96288178D01*
X222179422Y-96470739D01*
X222179417Y-96470752D01*
X222123602Y-96666917D01*
X222104785Y-96869999D01*
X221775215Y-96869999D01*
X221769115Y-96804174D01*
X221756397Y-96666917D01*
X221738934Y-96605541D01*
X221700582Y-96470750D01*
X221700159Y-96469901D01*
X221650415Y-96370000D01*
X221609673Y-96288179D01*
X221486764Y-96125421D01*
X221486762Y-96125418D01*
X221336041Y-95988019D01*
X221336039Y-95988017D01*
X221162642Y-95880655D01*
X221162635Y-95880651D01*
X221020135Y-95825447D01*
X220972456Y-95806976D01*
X220771976Y-95769500D01*
X220568024Y-95769500D01*
X220367544Y-95806976D01*
X220367541Y-95806976D01*
X220367541Y-95806977D01*
X220177364Y-95880651D01*
X220177357Y-95880655D01*
X220003960Y-95988017D01*
X220003958Y-95988019D01*
X219853237Y-96125418D01*
X219730327Y-96288178D01*
X219639422Y-96470739D01*
X219639417Y-96470752D01*
X219583602Y-96666917D01*
X219564785Y-96869999D01*
X219235215Y-96869999D01*
X219229115Y-96804174D01*
X219216397Y-96666917D01*
X219198934Y-96605541D01*
X219160582Y-96470750D01*
X219160159Y-96469901D01*
X219110415Y-96370000D01*
X219069673Y-96288179D01*
X218946764Y-96125421D01*
X218946762Y-96125418D01*
X218796041Y-95988019D01*
X218796039Y-95988017D01*
X218622642Y-95880655D01*
X218622635Y-95880651D01*
X218480135Y-95825447D01*
X218432456Y-95806976D01*
X218231976Y-95769500D01*
X218028024Y-95769500D01*
X217827544Y-95806976D01*
X217827541Y-95806976D01*
X217827541Y-95806977D01*
X217637364Y-95880651D01*
X217637357Y-95880655D01*
X217463960Y-95988017D01*
X217463958Y-95988019D01*
X217313237Y-96125418D01*
X217190327Y-96288178D01*
X217099422Y-96470739D01*
X217099417Y-96470752D01*
X217043602Y-96666917D01*
X217024785Y-96869999D01*
X216695215Y-96869999D01*
X216689115Y-96804174D01*
X216676397Y-96666917D01*
X216658934Y-96605541D01*
X216620582Y-96470750D01*
X216620159Y-96469901D01*
X216570415Y-96370000D01*
X216529673Y-96288179D01*
X216406764Y-96125421D01*
X216406762Y-96125418D01*
X216256041Y-95988019D01*
X216256039Y-95988017D01*
X216082642Y-95880655D01*
X216082635Y-95880651D01*
X215940135Y-95825447D01*
X215892456Y-95806976D01*
X215691976Y-95769500D01*
X215488024Y-95769500D01*
X215287544Y-95806976D01*
X215287541Y-95806976D01*
X215287541Y-95806977D01*
X215097364Y-95880651D01*
X215097357Y-95880655D01*
X214923960Y-95988017D01*
X214923958Y-95988019D01*
X214773237Y-96125418D01*
X214650327Y-96288178D01*
X214559422Y-96470739D01*
X214559417Y-96470752D01*
X214503602Y-96666917D01*
X214484785Y-96869999D01*
X214155215Y-96869999D01*
X214149115Y-96804174D01*
X214136397Y-96666917D01*
X214118934Y-96605541D01*
X214080582Y-96470750D01*
X214080159Y-96469901D01*
X214030415Y-96370000D01*
X213989673Y-96288179D01*
X213866764Y-96125421D01*
X213866762Y-96125418D01*
X213716041Y-95988019D01*
X213716039Y-95988017D01*
X213542642Y-95880655D01*
X213542635Y-95880651D01*
X213400135Y-95825447D01*
X213352456Y-95806976D01*
X213151976Y-95769500D01*
X212948024Y-95769500D01*
X212747544Y-95806976D01*
X212747541Y-95806976D01*
X212747541Y-95806977D01*
X212557364Y-95880651D01*
X212557357Y-95880655D01*
X212383960Y-95988017D01*
X212383958Y-95988019D01*
X212233237Y-96125418D01*
X212110327Y-96288178D01*
X212054707Y-96399877D01*
X212007204Y-96451114D01*
X211939540Y-96468535D01*
X211873200Y-96446609D01*
X211830151Y-96394415D01*
X211745483Y-96201390D01*
X211661186Y-96072364D01*
X210992962Y-96740589D01*
X210975925Y-96677007D01*
X210910099Y-96562993D01*
X210817007Y-96469901D01*
X210702993Y-96404075D01*
X210639407Y-96387036D01*
X211308797Y-95717647D01*
X211308797Y-95717645D01*
X211278360Y-95693955D01*
X211278354Y-95693951D01*
X211074302Y-95583523D01*
X211074293Y-95583520D01*
X210854860Y-95508188D01*
X210626007Y-95470000D01*
X210393993Y-95470000D01*
X210226528Y-95497944D01*
X210157163Y-95489562D01*
X210103341Y-95445009D01*
X210082151Y-95378430D01*
X210100319Y-95310964D01*
X210118435Y-95287957D01*
X210169575Y-95236818D01*
X210230898Y-95203334D01*
X210257255Y-95200500D01*
X242162725Y-95200500D01*
X242162727Y-95200500D01*
X242264588Y-95173207D01*
X242355913Y-95120480D01*
X245410480Y-92065913D01*
X245459601Y-91980833D01*
X245463206Y-91974588D01*
X245463207Y-91974587D01*
X245490500Y-91872727D01*
X245490500Y-89901400D01*
X245510185Y-89834361D01*
X245556046Y-89792042D01*
X245676450Y-89727685D01*
X245736835Y-89678129D01*
X245801145Y-89650816D01*
X245870013Y-89662607D01*
G37*
G04 #@! TD.AperFunction*
G04 #@! TA.AperFunction,Conductor*
G36*
X262142539Y-79930185D02*
G01*
X262188294Y-79982989D01*
X262199500Y-80034500D01*
X262199500Y-80641844D01*
X262179815Y-80708883D01*
X262127011Y-80754638D01*
X262110441Y-80760819D01*
X262104229Y-80762643D01*
X262104218Y-80762647D01*
X261882955Y-80863693D01*
X261882950Y-80863696D01*
X261678325Y-80995201D01*
X261494492Y-81154492D01*
X261335201Y-81338325D01*
X261203696Y-81542950D01*
X261203693Y-81542955D01*
X261102647Y-81764218D01*
X261034118Y-81997603D01*
X261034117Y-81997609D01*
X260999500Y-82238378D01*
X260999500Y-82294108D01*
X260999500Y-82360000D01*
X260999500Y-82481622D01*
X261001634Y-82496466D01*
X261034116Y-82722386D01*
X261034118Y-82722396D01*
X261102647Y-82955781D01*
X261203693Y-83177044D01*
X261203696Y-83177049D01*
X261335201Y-83381674D01*
X261494492Y-83565507D01*
X261678325Y-83724798D01*
X261882955Y-83856306D01*
X262104218Y-83957353D01*
X262337609Y-84025883D01*
X262578378Y-84060500D01*
X262634108Y-84060500D01*
X263325500Y-84060500D01*
X263392539Y-84080185D01*
X263438294Y-84132989D01*
X263449500Y-84184500D01*
X263449500Y-84435500D01*
X263429815Y-84502539D01*
X263377011Y-84548294D01*
X263325500Y-84559500D01*
X262765892Y-84559500D01*
X262700000Y-84559500D01*
X262578378Y-84559500D01*
X262517506Y-84568251D01*
X262337613Y-84594116D01*
X262337603Y-84594118D01*
X262104218Y-84662647D01*
X261882955Y-84763693D01*
X261882950Y-84763696D01*
X261678325Y-84895201D01*
X261494492Y-85054492D01*
X261335201Y-85238325D01*
X261203696Y-85442950D01*
X261203693Y-85442955D01*
X261102647Y-85664218D01*
X261034118Y-85897603D01*
X261034117Y-85897609D01*
X260999500Y-86138378D01*
X260999500Y-86194108D01*
X260999500Y-86260000D01*
X260999500Y-86381622D01*
X261001634Y-86396466D01*
X261034116Y-86622386D01*
X261034118Y-86622396D01*
X261042945Y-86652456D01*
X261102647Y-86855782D01*
X261121221Y-86896453D01*
X261203693Y-87077044D01*
X261203696Y-87077049D01*
X261335201Y-87281674D01*
X261494492Y-87465507D01*
X261678325Y-87624798D01*
X261835631Y-87725893D01*
X261882955Y-87756306D01*
X262104218Y-87857353D01*
X262104225Y-87857355D01*
X262110423Y-87859175D01*
X262169205Y-87896943D01*
X262198236Y-87960496D01*
X262199500Y-87978155D01*
X262199500Y-110641844D01*
X262179815Y-110708883D01*
X262127011Y-110754638D01*
X262110441Y-110760819D01*
X262104229Y-110762643D01*
X262104218Y-110762647D01*
X261882955Y-110863693D01*
X261882950Y-110863696D01*
X261678325Y-110995201D01*
X261494492Y-111154492D01*
X261335201Y-111338325D01*
X261203696Y-111542950D01*
X261203693Y-111542955D01*
X261102647Y-111764218D01*
X261034118Y-111997603D01*
X261034117Y-111997609D01*
X260999500Y-112238378D01*
X260999500Y-112294108D01*
X260999500Y-112360000D01*
X260999500Y-112481622D01*
X261006757Y-112532098D01*
X261034116Y-112722386D01*
X261034118Y-112722396D01*
X261044590Y-112758059D01*
X261102647Y-112955782D01*
X261119179Y-112991982D01*
X261203693Y-113177044D01*
X261203696Y-113177049D01*
X261335201Y-113381674D01*
X261494492Y-113565507D01*
X261678325Y-113724798D01*
X261882955Y-113856306D01*
X262104218Y-113957353D01*
X262337609Y-114025883D01*
X262578378Y-114060500D01*
X262634108Y-114060500D01*
X263325500Y-114060500D01*
X263392539Y-114080185D01*
X263438294Y-114132989D01*
X263449500Y-114184500D01*
X263449500Y-114435500D01*
X263429815Y-114502539D01*
X263377011Y-114548294D01*
X263325500Y-114559500D01*
X262765892Y-114559500D01*
X262700000Y-114559500D01*
X262578378Y-114559500D01*
X262517506Y-114568251D01*
X262337613Y-114594116D01*
X262337603Y-114594118D01*
X262104218Y-114662647D01*
X261882955Y-114763693D01*
X261882950Y-114763696D01*
X261678325Y-114895201D01*
X261494492Y-115054492D01*
X261335201Y-115238325D01*
X261203696Y-115442950D01*
X261203693Y-115442955D01*
X261102647Y-115664218D01*
X261034118Y-115897603D01*
X261034117Y-115897609D01*
X260999500Y-116138378D01*
X260999500Y-116194108D01*
X260999500Y-116260000D01*
X260999500Y-116381622D01*
X261001634Y-116396466D01*
X261034116Y-116622386D01*
X261034118Y-116622396D01*
X261102647Y-116855781D01*
X261203693Y-117077044D01*
X261203696Y-117077049D01*
X261335201Y-117281674D01*
X261494492Y-117465507D01*
X261678325Y-117624798D01*
X261882955Y-117756306D01*
X262104218Y-117857353D01*
X262104225Y-117857355D01*
X262110423Y-117859175D01*
X262169205Y-117896943D01*
X262198236Y-117960496D01*
X262199500Y-117978155D01*
X262199500Y-118585500D01*
X262179815Y-118652539D01*
X262127011Y-118698294D01*
X262075500Y-118709500D01*
X197024500Y-118709500D01*
X196957461Y-118689815D01*
X196911706Y-118637011D01*
X196900500Y-118585500D01*
X196900500Y-117978155D01*
X196920185Y-117911116D01*
X196972989Y-117865361D01*
X196989577Y-117859175D01*
X196990592Y-117858876D01*
X196995782Y-117857353D01*
X197217045Y-117756306D01*
X197421675Y-117624798D01*
X197605507Y-117465507D01*
X197764798Y-117281675D01*
X197896306Y-117077045D01*
X197997353Y-116855782D01*
X198065883Y-116622391D01*
X198100500Y-116381622D01*
X198100500Y-116260000D01*
X198100500Y-116194108D01*
X198100500Y-116138378D01*
X198065883Y-115897609D01*
X197997353Y-115664218D01*
X197896306Y-115442955D01*
X197847694Y-115367314D01*
X197764798Y-115238325D01*
X197605507Y-115054492D01*
X197421674Y-114895201D01*
X197217049Y-114763696D01*
X197217044Y-114763693D01*
X197096828Y-114708792D01*
X196995782Y-114662647D01*
X196905821Y-114636232D01*
X196762396Y-114594118D01*
X196762386Y-114594116D01*
X196643365Y-114577003D01*
X196521622Y-114559500D01*
X196521620Y-114559500D01*
X195774500Y-114559500D01*
X195707461Y-114539815D01*
X195661706Y-114487011D01*
X195650500Y-114435500D01*
X195650500Y-114184500D01*
X195670185Y-114117461D01*
X195722989Y-114071706D01*
X195774500Y-114060500D01*
X196521619Y-114060500D01*
X196521622Y-114060500D01*
X196762391Y-114025883D01*
X196995782Y-113957353D01*
X197217045Y-113856306D01*
X197421675Y-113724798D01*
X197605507Y-113565507D01*
X197764798Y-113381675D01*
X197896306Y-113177045D01*
X197997353Y-112955782D01*
X198065883Y-112722391D01*
X198100500Y-112481622D01*
X198100500Y-112360000D01*
X198100500Y-112294108D01*
X198100500Y-112238378D01*
X198065883Y-111997609D01*
X197997353Y-111764218D01*
X197896306Y-111542955D01*
X197886809Y-111528178D01*
X197764798Y-111338325D01*
X197636489Y-111190247D01*
X206869500Y-111190247D01*
X206869500Y-113029752D01*
X206881131Y-113088229D01*
X206881132Y-113088230D01*
X206925447Y-113154552D01*
X206991769Y-113198867D01*
X206991770Y-113198868D01*
X207050247Y-113210499D01*
X207050250Y-113210500D01*
X207050252Y-113210500D01*
X208889750Y-113210500D01*
X208889751Y-113210499D01*
X208904568Y-113207552D01*
X208948229Y-113198868D01*
X208948229Y-113198867D01*
X208948231Y-113198867D01*
X209014552Y-113154552D01*
X209058867Y-113088231D01*
X209058867Y-113088229D01*
X209058868Y-113088229D01*
X209070499Y-113029752D01*
X209070500Y-113029750D01*
X209070500Y-112109999D01*
X209404785Y-112109999D01*
X209404785Y-112110000D01*
X209423602Y-112313082D01*
X209479417Y-112509247D01*
X209479422Y-112509260D01*
X209570327Y-112691821D01*
X209693237Y-112854581D01*
X209843958Y-112991980D01*
X209843960Y-112991982D01*
X209872734Y-113009798D01*
X210017363Y-113099348D01*
X210207544Y-113173024D01*
X210408024Y-113210500D01*
X210408026Y-113210500D01*
X210611974Y-113210500D01*
X210611976Y-113210500D01*
X210812456Y-113173024D01*
X211002637Y-113099348D01*
X211176041Y-112991981D01*
X211326764Y-112854579D01*
X211449673Y-112691821D01*
X211540582Y-112509250D01*
X211596397Y-112313083D01*
X211615215Y-112110000D01*
X211615215Y-112109999D01*
X211944785Y-112109999D01*
X211944785Y-112110000D01*
X211963602Y-112313082D01*
X212019417Y-112509247D01*
X212019422Y-112509260D01*
X212110327Y-112691821D01*
X212233237Y-112854581D01*
X212383958Y-112991980D01*
X212383960Y-112991982D01*
X212412734Y-113009798D01*
X212557363Y-113099348D01*
X212747544Y-113173024D01*
X212948024Y-113210500D01*
X212948026Y-113210500D01*
X213151974Y-113210500D01*
X213151976Y-113210500D01*
X213352456Y-113173024D01*
X213542637Y-113099348D01*
X213716041Y-112991981D01*
X213866764Y-112854579D01*
X213989673Y-112691821D01*
X214080582Y-112509250D01*
X214136397Y-112313083D01*
X214155215Y-112110000D01*
X214155215Y-112109999D01*
X214484785Y-112109999D01*
X214484785Y-112110000D01*
X214503602Y-112313082D01*
X214559417Y-112509247D01*
X214559422Y-112509260D01*
X214650327Y-112691821D01*
X214773237Y-112854581D01*
X214923958Y-112991980D01*
X214923960Y-112991982D01*
X214952734Y-113009798D01*
X215097363Y-113099348D01*
X215287544Y-113173024D01*
X215488024Y-113210500D01*
X215488026Y-113210500D01*
X215691974Y-113210500D01*
X215691976Y-113210500D01*
X215892456Y-113173024D01*
X216082637Y-113099348D01*
X216256041Y-112991981D01*
X216406764Y-112854579D01*
X216529673Y-112691821D01*
X216620582Y-112509250D01*
X216676397Y-112313083D01*
X216695215Y-112110000D01*
X216695215Y-112109999D01*
X217024785Y-112109999D01*
X217024785Y-112110000D01*
X217043602Y-112313082D01*
X217099417Y-112509247D01*
X217099422Y-112509260D01*
X217190327Y-112691821D01*
X217313237Y-112854581D01*
X217463958Y-112991980D01*
X217463960Y-112991982D01*
X217492734Y-113009798D01*
X217637363Y-113099348D01*
X217827544Y-113173024D01*
X218028024Y-113210500D01*
X218028026Y-113210500D01*
X218231974Y-113210500D01*
X218231976Y-113210500D01*
X218432456Y-113173024D01*
X218622637Y-113099348D01*
X218796041Y-112991981D01*
X218946764Y-112854579D01*
X219069673Y-112691821D01*
X219160582Y-112509250D01*
X219216397Y-112313083D01*
X219235215Y-112110000D01*
X219235215Y-112109999D01*
X219564785Y-112109999D01*
X219564785Y-112110000D01*
X219583602Y-112313082D01*
X219639417Y-112509247D01*
X219639422Y-112509260D01*
X219730327Y-112691821D01*
X219853237Y-112854581D01*
X220003958Y-112991980D01*
X220003960Y-112991982D01*
X220032734Y-113009798D01*
X220177363Y-113099348D01*
X220367544Y-113173024D01*
X220568024Y-113210500D01*
X220568026Y-113210500D01*
X220771974Y-113210500D01*
X220771976Y-113210500D01*
X220972456Y-113173024D01*
X221162637Y-113099348D01*
X221336041Y-112991981D01*
X221486764Y-112854579D01*
X221609673Y-112691821D01*
X221700582Y-112509250D01*
X221756397Y-112313083D01*
X221775215Y-112110000D01*
X221775215Y-112109999D01*
X222104785Y-112109999D01*
X222104785Y-112110000D01*
X222123602Y-112313082D01*
X222179417Y-112509247D01*
X222179422Y-112509260D01*
X222270327Y-112691821D01*
X222393237Y-112854581D01*
X222543958Y-112991980D01*
X222543960Y-112991982D01*
X222572734Y-113009798D01*
X222717363Y-113099348D01*
X222907544Y-113173024D01*
X223108024Y-113210500D01*
X223108026Y-113210500D01*
X223311974Y-113210500D01*
X223311976Y-113210500D01*
X223512456Y-113173024D01*
X223702637Y-113099348D01*
X223876041Y-112991981D01*
X224026764Y-112854579D01*
X224149673Y-112691821D01*
X224240582Y-112509250D01*
X224296397Y-112313083D01*
X224315215Y-112110000D01*
X224315215Y-112109999D01*
X224644785Y-112109999D01*
X224644785Y-112110000D01*
X224663602Y-112313082D01*
X224719417Y-112509247D01*
X224719422Y-112509260D01*
X224810327Y-112691821D01*
X224933237Y-112854581D01*
X225083958Y-112991980D01*
X225083960Y-112991982D01*
X225112734Y-113009798D01*
X225257363Y-113099348D01*
X225447544Y-113173024D01*
X225648024Y-113210500D01*
X225648026Y-113210500D01*
X225851974Y-113210500D01*
X225851976Y-113210500D01*
X226052456Y-113173024D01*
X226242637Y-113099348D01*
X226416041Y-112991981D01*
X226566764Y-112854579D01*
X226689673Y-112691821D01*
X226780582Y-112509250D01*
X226836397Y-112313083D01*
X226855215Y-112110000D01*
X226855215Y-112109999D01*
X227184785Y-112109999D01*
X227184785Y-112110000D01*
X227203602Y-112313082D01*
X227259417Y-112509247D01*
X227259422Y-112509260D01*
X227350327Y-112691821D01*
X227473237Y-112854581D01*
X227623958Y-112991980D01*
X227623960Y-112991982D01*
X227652734Y-113009798D01*
X227797363Y-113099348D01*
X227987544Y-113173024D01*
X228188024Y-113210500D01*
X228188026Y-113210500D01*
X228391974Y-113210500D01*
X228391976Y-113210500D01*
X228592456Y-113173024D01*
X228782637Y-113099348D01*
X228956041Y-112991981D01*
X229106764Y-112854579D01*
X229229673Y-112691821D01*
X229320582Y-112509250D01*
X229376397Y-112313083D01*
X229395215Y-112110000D01*
X229395215Y-112109999D01*
X229724785Y-112109999D01*
X229724785Y-112110000D01*
X229743602Y-112313082D01*
X229799417Y-112509247D01*
X229799422Y-112509260D01*
X229890327Y-112691821D01*
X230013237Y-112854581D01*
X230163958Y-112991980D01*
X230163960Y-112991982D01*
X230192734Y-113009798D01*
X230337363Y-113099348D01*
X230527544Y-113173024D01*
X230728024Y-113210500D01*
X230728026Y-113210500D01*
X230931974Y-113210500D01*
X230931976Y-113210500D01*
X231132456Y-113173024D01*
X231322637Y-113099348D01*
X231496041Y-112991981D01*
X231646764Y-112854579D01*
X231769673Y-112691821D01*
X231860582Y-112509250D01*
X231916397Y-112313083D01*
X231935215Y-112110000D01*
X231935215Y-112109999D01*
X232264785Y-112109999D01*
X232264785Y-112110000D01*
X232283602Y-112313082D01*
X232339417Y-112509247D01*
X232339422Y-112509260D01*
X232430327Y-112691821D01*
X232553237Y-112854581D01*
X232703958Y-112991980D01*
X232703960Y-112991982D01*
X232732734Y-113009798D01*
X232877363Y-113099348D01*
X233067544Y-113173024D01*
X233268024Y-113210500D01*
X233268026Y-113210500D01*
X233471974Y-113210500D01*
X233471976Y-113210500D01*
X233672456Y-113173024D01*
X233862637Y-113099348D01*
X234036041Y-112991981D01*
X234186764Y-112854579D01*
X234309673Y-112691821D01*
X234400582Y-112509250D01*
X234456397Y-112313083D01*
X234475215Y-112110000D01*
X234475215Y-112109999D01*
X234804785Y-112109999D01*
X234804785Y-112110000D01*
X234823602Y-112313082D01*
X234879417Y-112509247D01*
X234879422Y-112509260D01*
X234970327Y-112691821D01*
X235093237Y-112854581D01*
X235243958Y-112991980D01*
X235243960Y-112991982D01*
X235272734Y-113009798D01*
X235417363Y-113099348D01*
X235607544Y-113173024D01*
X235808024Y-113210500D01*
X235808026Y-113210500D01*
X236011974Y-113210500D01*
X236011976Y-113210500D01*
X236212456Y-113173024D01*
X236402637Y-113099348D01*
X236576041Y-112991981D01*
X236726764Y-112854579D01*
X236849673Y-112691821D01*
X236940582Y-112509250D01*
X236996397Y-112313083D01*
X237015215Y-112110000D01*
X237015215Y-112109999D01*
X237344785Y-112109999D01*
X237344785Y-112110000D01*
X237363602Y-112313082D01*
X237419417Y-112509247D01*
X237419422Y-112509260D01*
X237510327Y-112691821D01*
X237633237Y-112854581D01*
X237783958Y-112991980D01*
X237783960Y-112991982D01*
X237812734Y-113009798D01*
X237957363Y-113099348D01*
X238147544Y-113173024D01*
X238348024Y-113210500D01*
X238348026Y-113210500D01*
X238551974Y-113210500D01*
X238551976Y-113210500D01*
X238752456Y-113173024D01*
X238942637Y-113099348D01*
X239116041Y-112991981D01*
X239266764Y-112854579D01*
X239389673Y-112691821D01*
X239480582Y-112509250D01*
X239536397Y-112313083D01*
X239555215Y-112110000D01*
X239555215Y-112109999D01*
X239884785Y-112109999D01*
X239884785Y-112110000D01*
X239903602Y-112313082D01*
X239959417Y-112509247D01*
X239959422Y-112509260D01*
X240050327Y-112691821D01*
X240173237Y-112854581D01*
X240323958Y-112991980D01*
X240323960Y-112991982D01*
X240352734Y-113009798D01*
X240497363Y-113099348D01*
X240687544Y-113173024D01*
X240888024Y-113210500D01*
X240888026Y-113210500D01*
X241091974Y-113210500D01*
X241091976Y-113210500D01*
X241292456Y-113173024D01*
X241482637Y-113099348D01*
X241656041Y-112991981D01*
X241806764Y-112854579D01*
X241929673Y-112691821D01*
X242020582Y-112509250D01*
X242076397Y-112313083D01*
X242095215Y-112110000D01*
X242095215Y-112109999D01*
X242424785Y-112109999D01*
X242424785Y-112110000D01*
X242443602Y-112313082D01*
X242499417Y-112509247D01*
X242499422Y-112509260D01*
X242590327Y-112691821D01*
X242713237Y-112854581D01*
X242863958Y-112991980D01*
X242863960Y-112991982D01*
X242892734Y-113009798D01*
X243037363Y-113099348D01*
X243227544Y-113173024D01*
X243428024Y-113210500D01*
X243428026Y-113210500D01*
X243631974Y-113210500D01*
X243631976Y-113210500D01*
X243832456Y-113173024D01*
X244022637Y-113099348D01*
X244196041Y-112991981D01*
X244346764Y-112854579D01*
X244469673Y-112691821D01*
X244560582Y-112509250D01*
X244616397Y-112313083D01*
X244635215Y-112110000D01*
X244635215Y-112109999D01*
X244964785Y-112109999D01*
X244964785Y-112110000D01*
X244983602Y-112313082D01*
X245039417Y-112509247D01*
X245039422Y-112509260D01*
X245130327Y-112691821D01*
X245253237Y-112854581D01*
X245403958Y-112991980D01*
X245403960Y-112991982D01*
X245432734Y-113009798D01*
X245577363Y-113099348D01*
X245767544Y-113173024D01*
X245968024Y-113210500D01*
X245968026Y-113210500D01*
X246171974Y-113210500D01*
X246171976Y-113210500D01*
X246372456Y-113173024D01*
X246562637Y-113099348D01*
X246736041Y-112991981D01*
X246886764Y-112854579D01*
X247009673Y-112691821D01*
X247100582Y-112509250D01*
X247156397Y-112313083D01*
X247175215Y-112110000D01*
X247175215Y-112109999D01*
X247504785Y-112109999D01*
X247504785Y-112110000D01*
X247523602Y-112313082D01*
X247579417Y-112509247D01*
X247579422Y-112509260D01*
X247670327Y-112691821D01*
X247793237Y-112854581D01*
X247943958Y-112991980D01*
X247943960Y-112991982D01*
X247972734Y-113009798D01*
X248117363Y-113099348D01*
X248307544Y-113173024D01*
X248508024Y-113210500D01*
X248508026Y-113210500D01*
X248711974Y-113210500D01*
X248711976Y-113210500D01*
X248912456Y-113173024D01*
X249102637Y-113099348D01*
X249276041Y-112991981D01*
X249426764Y-112854579D01*
X249549673Y-112691821D01*
X249640582Y-112509250D01*
X249696397Y-112313083D01*
X249715215Y-112110000D01*
X249709115Y-112044174D01*
X249696397Y-111906917D01*
X249696396Y-111906914D01*
X249640582Y-111710750D01*
X249640159Y-111709901D01*
X249565765Y-111560497D01*
X249549673Y-111528179D01*
X249449863Y-111396009D01*
X249425172Y-111330650D01*
X249431820Y-111299457D01*
X249417496Y-111304800D01*
X249349223Y-111289948D01*
X249325112Y-111272753D01*
X249276041Y-111228019D01*
X249276039Y-111228017D01*
X249102642Y-111120655D01*
X249102635Y-111120651D01*
X248960135Y-111065447D01*
X248912456Y-111046976D01*
X248711976Y-111009500D01*
X248508024Y-111009500D01*
X248307544Y-111046976D01*
X248307541Y-111046976D01*
X248307541Y-111046977D01*
X248117364Y-111120651D01*
X248117357Y-111120655D01*
X247943960Y-111228017D01*
X247943958Y-111228019D01*
X247793237Y-111365418D01*
X247670327Y-111528178D01*
X247579422Y-111710739D01*
X247579417Y-111710752D01*
X247523602Y-111906917D01*
X247504785Y-112109999D01*
X247175215Y-112109999D01*
X247169115Y-112044174D01*
X247156397Y-111906917D01*
X247156396Y-111906914D01*
X247100582Y-111710750D01*
X247100159Y-111709901D01*
X247025765Y-111560497D01*
X247009673Y-111528179D01*
X246944134Y-111441391D01*
X246886762Y-111365418D01*
X246736041Y-111228019D01*
X246736039Y-111228017D01*
X246562642Y-111120655D01*
X246562635Y-111120651D01*
X246420135Y-111065447D01*
X246372456Y-111046976D01*
X246171976Y-111009500D01*
X245968024Y-111009500D01*
X245767544Y-111046976D01*
X245767541Y-111046976D01*
X245767541Y-111046977D01*
X245577364Y-111120651D01*
X245577357Y-111120655D01*
X245403960Y-111228017D01*
X245403958Y-111228019D01*
X245253237Y-111365418D01*
X245130327Y-111528178D01*
X245039422Y-111710739D01*
X245039417Y-111710752D01*
X244983602Y-111906917D01*
X244964785Y-112109999D01*
X244635215Y-112109999D01*
X244629115Y-112044174D01*
X244616397Y-111906917D01*
X244616396Y-111906914D01*
X244560582Y-111710750D01*
X244560159Y-111709901D01*
X244485765Y-111560497D01*
X244469673Y-111528179D01*
X244404134Y-111441391D01*
X244346762Y-111365418D01*
X244196041Y-111228019D01*
X244196039Y-111228017D01*
X244022642Y-111120655D01*
X244022635Y-111120651D01*
X243880135Y-111065447D01*
X243832456Y-111046976D01*
X243631976Y-111009500D01*
X243428024Y-111009500D01*
X243227544Y-111046976D01*
X243227541Y-111046976D01*
X243227541Y-111046977D01*
X243037364Y-111120651D01*
X243037357Y-111120655D01*
X242863960Y-111228017D01*
X242863958Y-111228019D01*
X242713237Y-111365418D01*
X242590327Y-111528178D01*
X242499422Y-111710739D01*
X242499417Y-111710752D01*
X242443602Y-111906917D01*
X242424785Y-112109999D01*
X242095215Y-112109999D01*
X242089115Y-112044174D01*
X242076397Y-111906917D01*
X242076396Y-111906914D01*
X242020582Y-111710750D01*
X242020159Y-111709901D01*
X241945765Y-111560497D01*
X241929673Y-111528179D01*
X241864134Y-111441391D01*
X241806762Y-111365418D01*
X241656041Y-111228019D01*
X241656039Y-111228017D01*
X241482642Y-111120655D01*
X241482635Y-111120651D01*
X241340135Y-111065447D01*
X241292456Y-111046976D01*
X241091976Y-111009500D01*
X240888024Y-111009500D01*
X240687544Y-111046976D01*
X240687541Y-111046976D01*
X240687541Y-111046977D01*
X240497364Y-111120651D01*
X240497357Y-111120655D01*
X240323960Y-111228017D01*
X240323958Y-111228019D01*
X240173237Y-111365418D01*
X240050327Y-111528178D01*
X239959422Y-111710739D01*
X239959417Y-111710752D01*
X239903602Y-111906917D01*
X239884785Y-112109999D01*
X239555215Y-112109999D01*
X239549115Y-112044174D01*
X239536397Y-111906917D01*
X239536396Y-111906914D01*
X239480582Y-111710750D01*
X239480159Y-111709901D01*
X239405765Y-111560497D01*
X239389673Y-111528179D01*
X239324134Y-111441391D01*
X239266762Y-111365418D01*
X239116041Y-111228019D01*
X239116039Y-111228017D01*
X238942642Y-111120655D01*
X238942635Y-111120651D01*
X238800135Y-111065447D01*
X238752456Y-111046976D01*
X238551976Y-111009500D01*
X238348024Y-111009500D01*
X238147544Y-111046976D01*
X238147541Y-111046976D01*
X238147541Y-111046977D01*
X237957364Y-111120651D01*
X237957357Y-111120655D01*
X237783960Y-111228017D01*
X237783958Y-111228019D01*
X237633237Y-111365418D01*
X237510327Y-111528178D01*
X237419422Y-111710739D01*
X237419417Y-111710752D01*
X237363602Y-111906917D01*
X237344785Y-112109999D01*
X237015215Y-112109999D01*
X237009115Y-112044174D01*
X236996397Y-111906917D01*
X236996396Y-111906914D01*
X236940582Y-111710750D01*
X236940159Y-111709901D01*
X236865765Y-111560497D01*
X236849673Y-111528179D01*
X236784134Y-111441391D01*
X236726762Y-111365418D01*
X236576041Y-111228019D01*
X236576039Y-111228017D01*
X236402642Y-111120655D01*
X236402635Y-111120651D01*
X236260135Y-111065447D01*
X236212456Y-111046976D01*
X236011976Y-111009500D01*
X235808024Y-111009500D01*
X235607544Y-111046976D01*
X235607541Y-111046976D01*
X235607541Y-111046977D01*
X235417364Y-111120651D01*
X235417357Y-111120655D01*
X235243960Y-111228017D01*
X235243958Y-111228019D01*
X235093237Y-111365418D01*
X234970327Y-111528178D01*
X234879422Y-111710739D01*
X234879417Y-111710752D01*
X234823602Y-111906917D01*
X234804785Y-112109999D01*
X234475215Y-112109999D01*
X234469115Y-112044174D01*
X234456397Y-111906917D01*
X234456396Y-111906914D01*
X234400582Y-111710750D01*
X234400159Y-111709901D01*
X234325765Y-111560497D01*
X234309673Y-111528179D01*
X234244134Y-111441391D01*
X234186762Y-111365418D01*
X234036041Y-111228019D01*
X234036039Y-111228017D01*
X233862642Y-111120655D01*
X233862635Y-111120651D01*
X233720135Y-111065447D01*
X233672456Y-111046976D01*
X233471976Y-111009500D01*
X233268024Y-111009500D01*
X233067544Y-111046976D01*
X233067541Y-111046976D01*
X233067541Y-111046977D01*
X232877364Y-111120651D01*
X232877357Y-111120655D01*
X232703960Y-111228017D01*
X232703958Y-111228019D01*
X232553237Y-111365418D01*
X232430327Y-111528178D01*
X232339422Y-111710739D01*
X232339417Y-111710752D01*
X232283602Y-111906917D01*
X232264785Y-112109999D01*
X231935215Y-112109999D01*
X231929115Y-112044174D01*
X231916397Y-111906917D01*
X231916396Y-111906914D01*
X231860582Y-111710750D01*
X231860159Y-111709901D01*
X231785765Y-111560497D01*
X231769673Y-111528179D01*
X231704134Y-111441391D01*
X231646762Y-111365418D01*
X231496041Y-111228019D01*
X231496039Y-111228017D01*
X231322642Y-111120655D01*
X231322635Y-111120651D01*
X231180135Y-111065447D01*
X231132456Y-111046976D01*
X230931976Y-111009500D01*
X230728024Y-111009500D01*
X230527544Y-111046976D01*
X230527541Y-111046976D01*
X230527541Y-111046977D01*
X230337364Y-111120651D01*
X230337357Y-111120655D01*
X230163960Y-111228017D01*
X230163958Y-111228019D01*
X230013237Y-111365418D01*
X229890327Y-111528178D01*
X229799422Y-111710739D01*
X229799417Y-111710752D01*
X229743602Y-111906917D01*
X229724785Y-112109999D01*
X229395215Y-112109999D01*
X229389115Y-112044174D01*
X229376397Y-111906917D01*
X229376396Y-111906914D01*
X229320582Y-111710750D01*
X229320159Y-111709901D01*
X229245765Y-111560497D01*
X229229673Y-111528179D01*
X229164134Y-111441391D01*
X229106762Y-111365418D01*
X228956041Y-111228019D01*
X228956039Y-111228017D01*
X228782642Y-111120655D01*
X228782635Y-111120651D01*
X228640135Y-111065447D01*
X228592456Y-111046976D01*
X228391976Y-111009500D01*
X228188024Y-111009500D01*
X227987544Y-111046976D01*
X227987541Y-111046976D01*
X227987541Y-111046977D01*
X227797364Y-111120651D01*
X227797357Y-111120655D01*
X227623960Y-111228017D01*
X227623958Y-111228019D01*
X227473237Y-111365418D01*
X227350327Y-111528178D01*
X227259422Y-111710739D01*
X227259417Y-111710752D01*
X227203602Y-111906917D01*
X227184785Y-112109999D01*
X226855215Y-112109999D01*
X226849115Y-112044174D01*
X226836397Y-111906917D01*
X226836396Y-111906914D01*
X226780582Y-111710750D01*
X226780159Y-111709901D01*
X226705765Y-111560497D01*
X226689673Y-111528179D01*
X226624134Y-111441391D01*
X226566762Y-111365418D01*
X226416041Y-111228019D01*
X226416039Y-111228017D01*
X226242642Y-111120655D01*
X226242635Y-111120651D01*
X226100135Y-111065447D01*
X226052456Y-111046976D01*
X225851976Y-111009500D01*
X225648024Y-111009500D01*
X225447544Y-111046976D01*
X225447541Y-111046976D01*
X225447541Y-111046977D01*
X225257364Y-111120651D01*
X225257357Y-111120655D01*
X225083960Y-111228017D01*
X225083958Y-111228019D01*
X224933237Y-111365418D01*
X224810327Y-111528178D01*
X224719422Y-111710739D01*
X224719417Y-111710752D01*
X224663602Y-111906917D01*
X224644785Y-112109999D01*
X224315215Y-112109999D01*
X224309115Y-112044174D01*
X224296397Y-111906917D01*
X224296396Y-111906914D01*
X224240582Y-111710750D01*
X224240159Y-111709901D01*
X224165765Y-111560497D01*
X224149673Y-111528179D01*
X224084134Y-111441391D01*
X224026762Y-111365418D01*
X223876041Y-111228019D01*
X223876039Y-111228017D01*
X223702642Y-111120655D01*
X223702635Y-111120651D01*
X223560135Y-111065447D01*
X223512456Y-111046976D01*
X223311976Y-111009500D01*
X223108024Y-111009500D01*
X222907544Y-111046976D01*
X222907541Y-111046976D01*
X222907541Y-111046977D01*
X222717364Y-111120651D01*
X222717357Y-111120655D01*
X222543960Y-111228017D01*
X222543958Y-111228019D01*
X222393237Y-111365418D01*
X222270327Y-111528178D01*
X222179422Y-111710739D01*
X222179417Y-111710752D01*
X222123602Y-111906917D01*
X222104785Y-112109999D01*
X221775215Y-112109999D01*
X221769115Y-112044174D01*
X221756397Y-111906917D01*
X221756396Y-111906914D01*
X221700582Y-111710750D01*
X221700159Y-111709901D01*
X221625765Y-111560497D01*
X221609673Y-111528179D01*
X221544134Y-111441391D01*
X221486762Y-111365418D01*
X221336041Y-111228019D01*
X221336039Y-111228017D01*
X221162642Y-111120655D01*
X221162635Y-111120651D01*
X221020135Y-111065447D01*
X220972456Y-111046976D01*
X220771976Y-111009500D01*
X220568024Y-111009500D01*
X220367544Y-111046976D01*
X220367541Y-111046976D01*
X220367541Y-111046977D01*
X220177364Y-111120651D01*
X220177357Y-111120655D01*
X220003960Y-111228017D01*
X220003958Y-111228019D01*
X219853237Y-111365418D01*
X219730327Y-111528178D01*
X219639422Y-111710739D01*
X219639417Y-111710752D01*
X219583602Y-111906917D01*
X219564785Y-112109999D01*
X219235215Y-112109999D01*
X219229115Y-112044174D01*
X219216397Y-111906917D01*
X219216396Y-111906914D01*
X219160582Y-111710750D01*
X219160159Y-111709901D01*
X219085765Y-111560497D01*
X219069673Y-111528179D01*
X219004134Y-111441391D01*
X218946762Y-111365418D01*
X218796041Y-111228019D01*
X218796039Y-111228017D01*
X218622642Y-111120655D01*
X218622635Y-111120651D01*
X218480135Y-111065447D01*
X218432456Y-111046976D01*
X218231976Y-111009500D01*
X218028024Y-111009500D01*
X217827544Y-111046976D01*
X217827541Y-111046976D01*
X217827541Y-111046977D01*
X217637364Y-111120651D01*
X217637357Y-111120655D01*
X217463960Y-111228017D01*
X217463958Y-111228019D01*
X217313237Y-111365418D01*
X217190327Y-111528178D01*
X217099422Y-111710739D01*
X217099417Y-111710752D01*
X217043602Y-111906917D01*
X217024785Y-112109999D01*
X216695215Y-112109999D01*
X216689115Y-112044174D01*
X216676397Y-111906917D01*
X216676396Y-111906914D01*
X216620582Y-111710750D01*
X216620159Y-111709901D01*
X216545765Y-111560497D01*
X216529673Y-111528179D01*
X216464134Y-111441391D01*
X216406762Y-111365418D01*
X216256041Y-111228019D01*
X216256039Y-111228017D01*
X216082642Y-111120655D01*
X216082635Y-111120651D01*
X215940135Y-111065447D01*
X215892456Y-111046976D01*
X215691976Y-111009500D01*
X215488024Y-111009500D01*
X215287544Y-111046976D01*
X215287541Y-111046976D01*
X215287541Y-111046977D01*
X215097364Y-111120651D01*
X215097357Y-111120655D01*
X214923960Y-111228017D01*
X214923958Y-111228019D01*
X214773237Y-111365418D01*
X214650327Y-111528178D01*
X214559422Y-111710739D01*
X214559417Y-111710752D01*
X214503602Y-111906917D01*
X214484785Y-112109999D01*
X214155215Y-112109999D01*
X214149115Y-112044174D01*
X214136397Y-111906917D01*
X214136396Y-111906914D01*
X214080582Y-111710750D01*
X214080159Y-111709901D01*
X214005765Y-111560497D01*
X213989673Y-111528179D01*
X213924134Y-111441391D01*
X213866762Y-111365418D01*
X213716041Y-111228019D01*
X213716039Y-111228017D01*
X213542642Y-111120655D01*
X213542635Y-111120651D01*
X213400135Y-111065447D01*
X213352456Y-111046976D01*
X213151976Y-111009500D01*
X212948024Y-111009500D01*
X212747544Y-111046976D01*
X212747541Y-111046976D01*
X212747541Y-111046977D01*
X212557364Y-111120651D01*
X212557357Y-111120655D01*
X212383960Y-111228017D01*
X212383958Y-111228019D01*
X212233237Y-111365418D01*
X212110327Y-111528178D01*
X212019422Y-111710739D01*
X212019417Y-111710752D01*
X211963602Y-111906917D01*
X211944785Y-112109999D01*
X211615215Y-112109999D01*
X211609115Y-112044174D01*
X211596397Y-111906917D01*
X211596396Y-111906914D01*
X211540582Y-111710750D01*
X211540159Y-111709901D01*
X211465765Y-111560497D01*
X211449673Y-111528179D01*
X211384134Y-111441391D01*
X211326762Y-111365418D01*
X211176041Y-111228019D01*
X211176039Y-111228017D01*
X211002642Y-111120655D01*
X211002635Y-111120651D01*
X210860135Y-111065447D01*
X210812456Y-111046976D01*
X210611976Y-111009500D01*
X210408024Y-111009500D01*
X210207544Y-111046976D01*
X210207541Y-111046976D01*
X210207541Y-111046977D01*
X210017364Y-111120651D01*
X210017357Y-111120655D01*
X209843960Y-111228017D01*
X209843958Y-111228019D01*
X209693237Y-111365418D01*
X209570327Y-111528178D01*
X209479422Y-111710739D01*
X209479417Y-111710752D01*
X209423602Y-111906917D01*
X209404785Y-112109999D01*
X209070500Y-112109999D01*
X209070500Y-111190249D01*
X209070499Y-111190247D01*
X209058868Y-111131770D01*
X209058867Y-111131769D01*
X209014552Y-111065447D01*
X208948230Y-111021132D01*
X208948229Y-111021131D01*
X208889752Y-111009500D01*
X208889748Y-111009500D01*
X207050252Y-111009500D01*
X207050247Y-111009500D01*
X206991770Y-111021131D01*
X206991769Y-111021132D01*
X206925447Y-111065447D01*
X206881132Y-111131769D01*
X206881131Y-111131770D01*
X206869500Y-111190247D01*
X197636489Y-111190247D01*
X197605507Y-111154492D01*
X197421674Y-110995201D01*
X197217049Y-110863696D01*
X197217044Y-110863693D01*
X197096828Y-110808792D01*
X196995782Y-110762647D01*
X196995776Y-110762645D01*
X196995770Y-110762643D01*
X196989559Y-110760819D01*
X196930783Y-110723042D01*
X196901761Y-110659484D01*
X196900500Y-110641844D01*
X196900500Y-109480000D01*
X199274417Y-109480000D01*
X199294699Y-109685932D01*
X199294700Y-109685934D01*
X199354768Y-109883954D01*
X199452315Y-110066450D01*
X199452317Y-110066452D01*
X199583589Y-110226410D01*
X199680209Y-110305702D01*
X199743550Y-110357685D01*
X199926046Y-110455232D01*
X200124066Y-110515300D01*
X200124065Y-110515300D01*
X200142529Y-110517118D01*
X200330000Y-110535583D01*
X200535934Y-110515300D01*
X200733954Y-110455232D01*
X200916450Y-110357685D01*
X201076410Y-110226410D01*
X201207685Y-110066450D01*
X201305232Y-109883954D01*
X201365300Y-109685934D01*
X201385583Y-109480000D01*
X201814417Y-109480000D01*
X201834699Y-109685932D01*
X201834700Y-109685934D01*
X201894768Y-109883954D01*
X201992315Y-110066450D01*
X201992317Y-110066452D01*
X202123589Y-110226410D01*
X202220209Y-110305702D01*
X202283550Y-110357685D01*
X202466046Y-110455232D01*
X202664066Y-110515300D01*
X202664065Y-110515300D01*
X202682529Y-110517118D01*
X202870000Y-110535583D01*
X203075934Y-110515300D01*
X203273954Y-110455232D01*
X203456450Y-110357685D01*
X203616410Y-110226410D01*
X203747685Y-110066450D01*
X203845232Y-109883954D01*
X203905300Y-109685934D01*
X203925583Y-109480000D01*
X203905300Y-109274066D01*
X203845232Y-109076046D01*
X203747685Y-108893550D01*
X203646443Y-108770185D01*
X203616410Y-108733589D01*
X203456452Y-108602317D01*
X203456453Y-108602317D01*
X203456450Y-108602315D01*
X203273954Y-108504768D01*
X203075934Y-108444700D01*
X203075932Y-108444699D01*
X203075934Y-108444699D01*
X202870000Y-108424417D01*
X202664067Y-108444699D01*
X202466043Y-108504769D01*
X202355898Y-108563643D01*
X202283550Y-108602315D01*
X202283548Y-108602316D01*
X202283547Y-108602317D01*
X202123589Y-108733589D01*
X201992317Y-108893547D01*
X201894769Y-109076043D01*
X201834699Y-109274067D01*
X201814417Y-109480000D01*
X201385583Y-109480000D01*
X201365300Y-109274066D01*
X201305232Y-109076046D01*
X201207685Y-108893550D01*
X201106443Y-108770185D01*
X201076410Y-108733589D01*
X200916452Y-108602317D01*
X200916453Y-108602317D01*
X200916450Y-108602315D01*
X200733954Y-108504768D01*
X200535934Y-108444700D01*
X200535932Y-108444699D01*
X200535934Y-108444699D01*
X200330000Y-108424417D01*
X200124067Y-108444699D01*
X199926043Y-108504769D01*
X199815898Y-108563643D01*
X199743550Y-108602315D01*
X199743548Y-108602316D01*
X199743547Y-108602317D01*
X199583589Y-108733589D01*
X199452317Y-108893547D01*
X199354769Y-109076043D01*
X199294699Y-109274067D01*
X199274417Y-109480000D01*
X196900500Y-109480000D01*
X196900500Y-106940000D01*
X199274417Y-106940000D01*
X199294699Y-107145932D01*
X199310089Y-107196666D01*
X199354768Y-107343954D01*
X199452315Y-107526450D01*
X199452317Y-107526452D01*
X199583589Y-107686410D01*
X199661338Y-107750216D01*
X199743550Y-107817685D01*
X199926046Y-107915232D01*
X200124066Y-107975300D01*
X200124065Y-107975300D01*
X200142529Y-107977118D01*
X200330000Y-107995583D01*
X200535934Y-107975300D01*
X200733954Y-107915232D01*
X200916450Y-107817685D01*
X201076410Y-107686410D01*
X201207685Y-107526450D01*
X201305232Y-107343954D01*
X201365300Y-107145934D01*
X201385583Y-106940000D01*
X201814417Y-106940000D01*
X201834699Y-107145932D01*
X201850089Y-107196666D01*
X201894768Y-107343954D01*
X201992315Y-107526450D01*
X201992317Y-107526452D01*
X202123589Y-107686410D01*
X202201338Y-107750216D01*
X202283550Y-107817685D01*
X202466046Y-107915232D01*
X202664066Y-107975300D01*
X202664065Y-107975300D01*
X202682529Y-107977118D01*
X202870000Y-107995583D01*
X203075934Y-107975300D01*
X203273954Y-107915232D01*
X203456450Y-107817685D01*
X203616410Y-107686410D01*
X203747685Y-107526450D01*
X203845232Y-107343954D01*
X203905300Y-107145934D01*
X203925583Y-106940000D01*
X203905300Y-106734066D01*
X203845232Y-106536046D01*
X203747685Y-106353550D01*
X203695702Y-106290209D01*
X203616410Y-106193589D01*
X203456452Y-106062317D01*
X203456453Y-106062317D01*
X203456450Y-106062315D01*
X203273954Y-105964768D01*
X203075934Y-105904700D01*
X203075932Y-105904699D01*
X203075934Y-105904699D01*
X202870000Y-105884417D01*
X202664067Y-105904699D01*
X202466043Y-105964769D01*
X202355898Y-106023643D01*
X202283550Y-106062315D01*
X202283548Y-106062316D01*
X202283547Y-106062317D01*
X202123589Y-106193589D01*
X201992317Y-106353547D01*
X201894769Y-106536043D01*
X201834699Y-106734067D01*
X201814417Y-106940000D01*
X201385583Y-106940000D01*
X201365300Y-106734066D01*
X201305232Y-106536046D01*
X201207685Y-106353550D01*
X201155702Y-106290209D01*
X201076410Y-106193589D01*
X200916452Y-106062317D01*
X200916453Y-106062317D01*
X200916450Y-106062315D01*
X200733954Y-105964768D01*
X200535934Y-105904700D01*
X200535932Y-105904699D01*
X200535934Y-105904699D01*
X200330000Y-105884417D01*
X200124067Y-105904699D01*
X199926043Y-105964769D01*
X199815898Y-106023643D01*
X199743550Y-106062315D01*
X199743548Y-106062316D01*
X199743547Y-106062317D01*
X199583589Y-106193589D01*
X199452317Y-106353547D01*
X199354769Y-106536043D01*
X199294699Y-106734067D01*
X199274417Y-106940000D01*
X196900500Y-106940000D01*
X196900500Y-104400000D01*
X199274417Y-104400000D01*
X199294699Y-104605932D01*
X199294700Y-104605934D01*
X199354768Y-104803954D01*
X199452315Y-104986450D01*
X199452317Y-104986452D01*
X199583589Y-105146410D01*
X199680209Y-105225702D01*
X199743550Y-105277685D01*
X199926046Y-105375232D01*
X200124066Y-105435300D01*
X200124065Y-105435300D01*
X200142529Y-105437118D01*
X200330000Y-105455583D01*
X200535934Y-105435300D01*
X200733954Y-105375232D01*
X200916450Y-105277685D01*
X201076410Y-105146410D01*
X201207685Y-104986450D01*
X201305232Y-104803954D01*
X201365300Y-104605934D01*
X201385583Y-104400000D01*
X201814417Y-104400000D01*
X201834699Y-104605932D01*
X201834700Y-104605934D01*
X201894768Y-104803954D01*
X201992315Y-104986450D01*
X201992317Y-104986452D01*
X202123589Y-105146410D01*
X202220209Y-105225702D01*
X202283550Y-105277685D01*
X202466046Y-105375232D01*
X202664066Y-105435300D01*
X202664065Y-105435300D01*
X202682529Y-105437118D01*
X202870000Y-105455583D01*
X203075934Y-105435300D01*
X203273954Y-105375232D01*
X203456450Y-105277685D01*
X203616410Y-105146410D01*
X203747685Y-104986450D01*
X203845232Y-104803954D01*
X203905300Y-104605934D01*
X203925583Y-104400000D01*
X203905300Y-104194066D01*
X203845232Y-103996046D01*
X203747685Y-103813550D01*
X203695702Y-103750209D01*
X203616410Y-103653589D01*
X203456452Y-103522317D01*
X203456453Y-103522317D01*
X203456450Y-103522315D01*
X203273954Y-103424768D01*
X203075934Y-103364700D01*
X203075932Y-103364699D01*
X203075934Y-103364699D01*
X202870000Y-103344417D01*
X202664067Y-103364699D01*
X202466043Y-103424769D01*
X202355898Y-103483643D01*
X202283550Y-103522315D01*
X202283548Y-103522316D01*
X202283547Y-103522317D01*
X202123589Y-103653589D01*
X201992317Y-103813547D01*
X201894769Y-103996043D01*
X201834699Y-104194067D01*
X201814417Y-104400000D01*
X201385583Y-104400000D01*
X201365300Y-104194066D01*
X201305232Y-103996046D01*
X201207685Y-103813550D01*
X201155702Y-103750209D01*
X201076410Y-103653589D01*
X200916452Y-103522317D01*
X200916453Y-103522317D01*
X200916450Y-103522315D01*
X200733954Y-103424768D01*
X200535934Y-103364700D01*
X200535932Y-103364699D01*
X200535934Y-103364699D01*
X200330000Y-103344417D01*
X200124067Y-103364699D01*
X199926043Y-103424769D01*
X199815898Y-103483643D01*
X199743550Y-103522315D01*
X199743548Y-103522316D01*
X199743547Y-103522317D01*
X199583589Y-103653589D01*
X199452317Y-103813547D01*
X199354769Y-103996043D01*
X199294699Y-104194067D01*
X199274417Y-104400000D01*
X196900500Y-104400000D01*
X196900500Y-101860000D01*
X199274417Y-101860000D01*
X199294699Y-102065932D01*
X199294700Y-102065934D01*
X199354768Y-102263954D01*
X199452315Y-102446450D01*
X199452317Y-102446452D01*
X199583589Y-102606410D01*
X199680209Y-102685702D01*
X199743550Y-102737685D01*
X199926046Y-102835232D01*
X200124066Y-102895300D01*
X200124065Y-102895300D01*
X200142529Y-102897118D01*
X200330000Y-102915583D01*
X200535934Y-102895300D01*
X200733954Y-102835232D01*
X200916450Y-102737685D01*
X201076410Y-102606410D01*
X201207685Y-102446450D01*
X201305232Y-102263954D01*
X201365300Y-102065934D01*
X201385583Y-101860000D01*
X201814417Y-101860000D01*
X201834699Y-102065932D01*
X201834700Y-102065934D01*
X201894768Y-102263954D01*
X201992315Y-102446450D01*
X201992317Y-102446452D01*
X202123589Y-102606410D01*
X202220209Y-102685702D01*
X202283550Y-102737685D01*
X202466046Y-102835232D01*
X202664066Y-102895300D01*
X202664065Y-102895300D01*
X202682529Y-102897118D01*
X202870000Y-102915583D01*
X203075934Y-102895300D01*
X203273954Y-102835232D01*
X203456450Y-102737685D01*
X203616410Y-102606410D01*
X203747685Y-102446450D01*
X203845232Y-102263954D01*
X203905300Y-102065934D01*
X203925583Y-101860000D01*
X203905300Y-101654066D01*
X203845232Y-101456046D01*
X203747685Y-101273550D01*
X203670911Y-101180000D01*
X203616410Y-101113589D01*
X203456452Y-100982317D01*
X203456453Y-100982317D01*
X203456450Y-100982315D01*
X203273954Y-100884768D01*
X203075934Y-100824700D01*
X203075932Y-100824699D01*
X203075934Y-100824699D01*
X202870000Y-100804417D01*
X202664067Y-100824699D01*
X202466043Y-100884769D01*
X202355898Y-100943643D01*
X202283550Y-100982315D01*
X202283548Y-100982316D01*
X202283547Y-100982317D01*
X202123589Y-101113589D01*
X201992317Y-101273547D01*
X201894769Y-101456043D01*
X201834699Y-101654067D01*
X201814417Y-101860000D01*
X201385583Y-101860000D01*
X201365300Y-101654066D01*
X201305232Y-101456046D01*
X201207685Y-101273550D01*
X201130911Y-101180000D01*
X201076410Y-101113589D01*
X200916452Y-100982317D01*
X200916453Y-100982317D01*
X200916450Y-100982315D01*
X200733954Y-100884768D01*
X200535934Y-100824700D01*
X200535932Y-100824699D01*
X200535934Y-100824699D01*
X200330000Y-100804417D01*
X200124067Y-100824699D01*
X199926043Y-100884769D01*
X199815898Y-100943643D01*
X199743550Y-100982315D01*
X199743548Y-100982316D01*
X199743547Y-100982317D01*
X199583589Y-101113589D01*
X199452317Y-101273547D01*
X199354769Y-101456043D01*
X199294699Y-101654067D01*
X199274417Y-101860000D01*
X196900500Y-101860000D01*
X196900500Y-99934500D01*
X196920185Y-99867461D01*
X196972989Y-99821706D01*
X197024500Y-99810500D01*
X199326706Y-99810500D01*
X199393745Y-99830185D01*
X199436062Y-99876044D01*
X199452315Y-99906450D01*
X199452316Y-99906451D01*
X199452317Y-99906452D01*
X199583589Y-100066410D01*
X199680209Y-100145702D01*
X199743550Y-100197685D01*
X199926046Y-100295232D01*
X200124066Y-100355300D01*
X200124065Y-100355300D01*
X200142529Y-100357118D01*
X200330000Y-100375583D01*
X200535934Y-100355300D01*
X200733954Y-100295232D01*
X200916450Y-100197685D01*
X201076410Y-100066410D01*
X201207685Y-99906450D01*
X201223937Y-99876044D01*
X201272899Y-99826202D01*
X201333294Y-99810500D01*
X201670890Y-99810500D01*
X201670892Y-99810500D01*
X201798186Y-99776392D01*
X201798187Y-99776391D01*
X201806037Y-99774288D01*
X201806509Y-99776053D01*
X201865838Y-99769671D01*
X201928319Y-99800942D01*
X201953186Y-99833247D01*
X201992315Y-99906451D01*
X202123589Y-100066410D01*
X202220209Y-100145702D01*
X202283550Y-100197685D01*
X202466046Y-100295232D01*
X202664066Y-100355300D01*
X202664065Y-100355300D01*
X202682529Y-100357118D01*
X202870000Y-100375583D01*
X203075934Y-100355300D01*
X203273954Y-100295232D01*
X203456450Y-100197685D01*
X203616410Y-100066410D01*
X203747685Y-99906450D01*
X203845232Y-99723954D01*
X203905300Y-99525934D01*
X203925583Y-99320000D01*
X203905300Y-99114066D01*
X203845232Y-98916046D01*
X203747685Y-98733550D01*
X203695702Y-98670209D01*
X203616410Y-98573589D01*
X203456452Y-98442317D01*
X203456453Y-98442317D01*
X203456450Y-98442315D01*
X203273954Y-98344768D01*
X203075934Y-98284700D01*
X203075932Y-98284699D01*
X203075934Y-98284699D01*
X202870000Y-98264417D01*
X202664067Y-98284699D01*
X202466043Y-98344769D01*
X202355898Y-98403643D01*
X202283550Y-98442315D01*
X202283548Y-98442316D01*
X202283547Y-98442317D01*
X202123589Y-98573589D01*
X201992317Y-98733547D01*
X201961940Y-98790377D01*
X201912977Y-98840221D01*
X201844839Y-98855681D01*
X201805131Y-98846485D01*
X201798188Y-98843609D01*
X201798186Y-98843608D01*
X201670892Y-98809500D01*
X201670891Y-98809500D01*
X201322604Y-98809500D01*
X201255565Y-98789815D01*
X201213246Y-98743954D01*
X201207684Y-98733548D01*
X201076410Y-98573589D01*
X200916452Y-98442317D01*
X200916453Y-98442317D01*
X200916450Y-98442315D01*
X200733954Y-98344768D01*
X200535934Y-98284700D01*
X200535932Y-98284699D01*
X200535934Y-98284699D01*
X200330000Y-98264417D01*
X200124067Y-98284699D01*
X199926043Y-98344769D01*
X199815898Y-98403643D01*
X199743550Y-98442315D01*
X199743548Y-98442316D01*
X199743547Y-98442317D01*
X199583589Y-98573589D01*
X199452315Y-98733548D01*
X199446754Y-98743954D01*
X199397791Y-98793798D01*
X199337396Y-98809500D01*
X197024500Y-98809500D01*
X196957461Y-98789815D01*
X196911706Y-98737011D01*
X196900500Y-98685500D01*
X196900500Y-96780000D01*
X199274417Y-96780000D01*
X199294699Y-96985932D01*
X199324734Y-97084944D01*
X199354768Y-97183954D01*
X199452315Y-97366450D01*
X199486969Y-97408677D01*
X199583589Y-97526410D01*
X199653753Y-97583991D01*
X199743550Y-97657685D01*
X199926046Y-97755232D01*
X200124066Y-97815300D01*
X200124065Y-97815300D01*
X200142529Y-97817118D01*
X200330000Y-97835583D01*
X200535934Y-97815300D01*
X200733954Y-97755232D01*
X200916450Y-97657685D01*
X201076410Y-97526410D01*
X201207685Y-97366450D01*
X201305232Y-97183954D01*
X201365300Y-96985934D01*
X201385583Y-96780000D01*
X201814417Y-96780000D01*
X201834699Y-96985932D01*
X201864734Y-97084944D01*
X201894768Y-97183954D01*
X201992315Y-97366450D01*
X202026969Y-97408677D01*
X202123589Y-97526410D01*
X202193753Y-97583991D01*
X202283550Y-97657685D01*
X202466046Y-97755232D01*
X202664066Y-97815300D01*
X202664065Y-97815300D01*
X202682529Y-97817118D01*
X202870000Y-97835583D01*
X203075934Y-97815300D01*
X203273954Y-97755232D01*
X203456450Y-97657685D01*
X203616410Y-97526410D01*
X203747685Y-97366450D01*
X203845232Y-97183954D01*
X203905300Y-96985934D01*
X203925583Y-96780000D01*
X203905300Y-96574066D01*
X203845232Y-96376046D01*
X203747685Y-96193550D01*
X203648231Y-96072364D01*
X203616410Y-96033589D01*
X203514856Y-95950247D01*
X206869500Y-95950247D01*
X206869500Y-97789752D01*
X206881131Y-97848229D01*
X206881132Y-97848230D01*
X206925447Y-97914552D01*
X206991769Y-97958867D01*
X206991770Y-97958868D01*
X207050247Y-97970499D01*
X207050250Y-97970500D01*
X207050252Y-97970500D01*
X208382035Y-97970500D01*
X208449074Y-97990185D01*
X208469716Y-98006819D01*
X220523386Y-110060489D01*
X220626113Y-110119799D01*
X220650321Y-110126284D01*
X220650324Y-110126286D01*
X220650325Y-110126286D01*
X220680447Y-110134357D01*
X220740691Y-110150500D01*
X248502035Y-110150500D01*
X248569074Y-110170185D01*
X248589716Y-110186819D01*
X249496331Y-111093435D01*
X249529816Y-111154758D01*
X249526264Y-111204417D01*
X249557144Y-111197564D01*
X249622711Y-111221705D01*
X249636499Y-111233603D01*
X250066612Y-111663716D01*
X250100097Y-111725039D01*
X250098197Y-111785331D01*
X250063603Y-111906914D01*
X250063602Y-111906917D01*
X250044785Y-112109999D01*
X250044785Y-112110000D01*
X250063602Y-112313082D01*
X250119417Y-112509247D01*
X250119422Y-112509260D01*
X250210327Y-112691821D01*
X250333237Y-112854581D01*
X250483958Y-112991980D01*
X250483960Y-112991982D01*
X250512734Y-113009798D01*
X250657363Y-113099348D01*
X250847544Y-113173024D01*
X251048024Y-113210500D01*
X251048026Y-113210500D01*
X251251974Y-113210500D01*
X251251976Y-113210500D01*
X251452456Y-113173024D01*
X251642637Y-113099348D01*
X251816041Y-112991981D01*
X251966764Y-112854579D01*
X252089673Y-112691821D01*
X252130984Y-112608854D01*
X252145292Y-112580123D01*
X252192794Y-112528886D01*
X252260457Y-112511464D01*
X252326798Y-112533389D01*
X252369848Y-112585584D01*
X252454516Y-112778609D01*
X252538811Y-112907633D01*
X253207037Y-112239408D01*
X253224075Y-112302993D01*
X253289901Y-112417007D01*
X253382993Y-112510099D01*
X253497007Y-112575925D01*
X253560590Y-112592962D01*
X252891201Y-113262351D01*
X252921649Y-113286050D01*
X253125697Y-113396476D01*
X253125706Y-113396479D01*
X253345139Y-113471811D01*
X253573993Y-113510000D01*
X253806007Y-113510000D01*
X254034860Y-113471811D01*
X254254293Y-113396479D01*
X254254301Y-113396476D01*
X254458355Y-113286047D01*
X254488797Y-113262351D01*
X254488798Y-113262350D01*
X253819410Y-112592962D01*
X253882993Y-112575925D01*
X253997007Y-112510099D01*
X254090099Y-112417007D01*
X254155925Y-112302993D01*
X254172962Y-112239409D01*
X254841186Y-112907634D01*
X254925484Y-112778606D01*
X255010151Y-112585584D01*
X255055107Y-112532098D01*
X255121842Y-112511408D01*
X255189170Y-112530082D01*
X255234707Y-112580122D01*
X255290327Y-112691821D01*
X255413237Y-112854581D01*
X255563958Y-112991980D01*
X255563960Y-112991982D01*
X255592734Y-113009798D01*
X255737363Y-113099348D01*
X255927544Y-113173024D01*
X256128024Y-113210500D01*
X256128026Y-113210500D01*
X256331974Y-113210500D01*
X256331976Y-113210500D01*
X256532456Y-113173024D01*
X256722637Y-113099348D01*
X256896041Y-112991981D01*
X257046764Y-112854579D01*
X257169673Y-112691821D01*
X257260582Y-112509250D01*
X257316397Y-112313083D01*
X257335215Y-112110000D01*
X257329115Y-112044174D01*
X257316397Y-111906917D01*
X257316396Y-111906914D01*
X257260582Y-111710750D01*
X257260159Y-111709901D01*
X257185765Y-111560497D01*
X257169673Y-111528179D01*
X257104134Y-111441391D01*
X257046762Y-111365418D01*
X256896041Y-111228019D01*
X256896039Y-111228017D01*
X256722642Y-111120655D01*
X256722635Y-111120651D01*
X256580135Y-111065447D01*
X256532456Y-111046976D01*
X256331976Y-111009500D01*
X256128024Y-111009500D01*
X256065793Y-111021133D01*
X255927542Y-111046976D01*
X255927536Y-111046978D01*
X255913892Y-111052264D01*
X255844269Y-111058124D01*
X255782530Y-111025412D01*
X255781421Y-111024317D01*
X253556819Y-108799715D01*
X253523334Y-108738392D01*
X253520500Y-108712034D01*
X253520500Y-107817255D01*
X253540185Y-107750216D01*
X253556819Y-107729574D01*
X256139983Y-105146410D01*
X258870480Y-102415913D01*
X258923207Y-102324588D01*
X258950500Y-102222727D01*
X258950500Y-102117273D01*
X258950500Y-95767273D01*
X258923207Y-95665413D01*
X258923207Y-95665412D01*
X258870480Y-95574087D01*
X256936819Y-93640426D01*
X256903334Y-93579103D01*
X256900500Y-93552745D01*
X256900500Y-90047275D01*
X256900500Y-90047273D01*
X256873207Y-89945413D01*
X256873207Y-89945412D01*
X256820480Y-89854087D01*
X256276649Y-89310256D01*
X256243164Y-89248933D01*
X256245669Y-89186580D01*
X256254640Y-89157007D01*
X256285300Y-89055934D01*
X256305583Y-88850000D01*
X256285300Y-88644066D01*
X256225232Y-88446046D01*
X256127685Y-88263550D01*
X256075702Y-88200209D01*
X255996410Y-88103589D01*
X255870794Y-88000500D01*
X255836450Y-87972315D01*
X255653954Y-87874768D01*
X255455934Y-87814700D01*
X255455932Y-87814699D01*
X255455934Y-87814699D01*
X255250000Y-87794417D01*
X255044067Y-87814699D01*
X254846043Y-87874769D01*
X254750167Y-87926017D01*
X254663550Y-87972315D01*
X254663548Y-87972316D01*
X254663547Y-87972317D01*
X254503589Y-88103589D01*
X254372317Y-88263547D01*
X254372315Y-88263550D01*
X254333643Y-88335898D01*
X254274769Y-88446043D01*
X254214699Y-88644067D01*
X254194417Y-88850000D01*
X254214699Y-89055932D01*
X254214700Y-89055934D01*
X254274768Y-89253954D01*
X254372315Y-89436450D01*
X254372317Y-89436452D01*
X254503589Y-89596410D01*
X254563165Y-89645302D01*
X254663550Y-89727685D01*
X254846046Y-89825232D01*
X255044066Y-89885300D01*
X255044065Y-89885300D01*
X255062529Y-89887118D01*
X255250000Y-89905583D01*
X255455934Y-89885300D01*
X255586581Y-89845668D01*
X255656447Y-89845046D01*
X255710256Y-89876649D01*
X256063181Y-90229574D01*
X256096666Y-90290897D01*
X256099500Y-90317255D01*
X256099500Y-93245500D01*
X256079815Y-93312539D01*
X256027011Y-93358294D01*
X255975500Y-93369500D01*
X250217254Y-93369500D01*
X250150215Y-93349815D01*
X250129573Y-93333181D01*
X246776819Y-89980426D01*
X246743334Y-89919103D01*
X246740500Y-89892745D01*
X246740500Y-89741155D01*
X246760185Y-89674116D01*
X246812989Y-89628361D01*
X246882147Y-89618417D01*
X246943165Y-89645302D01*
X246983165Y-89678129D01*
X247043550Y-89727685D01*
X247226046Y-89825232D01*
X247424066Y-89885300D01*
X247424065Y-89885300D01*
X247442529Y-89887118D01*
X247630000Y-89905583D01*
X247835934Y-89885300D01*
X248033954Y-89825232D01*
X248216450Y-89727685D01*
X248376410Y-89596410D01*
X248507685Y-89436450D01*
X248605232Y-89253954D01*
X248665300Y-89055934D01*
X248685583Y-88850000D01*
X249114417Y-88850000D01*
X249134699Y-89055932D01*
X249134700Y-89055934D01*
X249194768Y-89253954D01*
X249292315Y-89436450D01*
X249292317Y-89436452D01*
X249423589Y-89596410D01*
X249483165Y-89645302D01*
X249583550Y-89727685D01*
X249766046Y-89825232D01*
X249964066Y-89885300D01*
X249964065Y-89885300D01*
X249982529Y-89887118D01*
X250170000Y-89905583D01*
X250375934Y-89885300D01*
X250573954Y-89825232D01*
X250756450Y-89727685D01*
X250916410Y-89596410D01*
X251047685Y-89436450D01*
X251145232Y-89253954D01*
X251205300Y-89055934D01*
X251225583Y-88850000D01*
X251654417Y-88850000D01*
X251674699Y-89055932D01*
X251674700Y-89055934D01*
X251734768Y-89253954D01*
X251832315Y-89436450D01*
X251832317Y-89436452D01*
X251963589Y-89596410D01*
X252023165Y-89645302D01*
X252123550Y-89727685D01*
X252306046Y-89825232D01*
X252504066Y-89885300D01*
X252504065Y-89885300D01*
X252522529Y-89887118D01*
X252710000Y-89905583D01*
X252915934Y-89885300D01*
X253113954Y-89825232D01*
X253296450Y-89727685D01*
X253456410Y-89596410D01*
X253587685Y-89436450D01*
X253685232Y-89253954D01*
X253745300Y-89055934D01*
X253765583Y-88850000D01*
X253745300Y-88644066D01*
X253685232Y-88446046D01*
X253587685Y-88263550D01*
X253535702Y-88200209D01*
X253456410Y-88103589D01*
X253330794Y-88000500D01*
X253296450Y-87972315D01*
X253113954Y-87874768D01*
X252915934Y-87814700D01*
X252915932Y-87814699D01*
X252915934Y-87814699D01*
X252710000Y-87794417D01*
X252504067Y-87814699D01*
X252306043Y-87874769D01*
X252210167Y-87926017D01*
X252123550Y-87972315D01*
X252123548Y-87972316D01*
X252123547Y-87972317D01*
X251963589Y-88103589D01*
X251832317Y-88263547D01*
X251832315Y-88263550D01*
X251793643Y-88335898D01*
X251734769Y-88446043D01*
X251674699Y-88644067D01*
X251654417Y-88850000D01*
X251225583Y-88850000D01*
X251205300Y-88644066D01*
X251145232Y-88446046D01*
X251047685Y-88263550D01*
X250995702Y-88200209D01*
X250916410Y-88103589D01*
X250790794Y-88000500D01*
X250756450Y-87972315D01*
X250573954Y-87874768D01*
X250375934Y-87814700D01*
X250375932Y-87814699D01*
X250375934Y-87814699D01*
X250170000Y-87794417D01*
X249964067Y-87814699D01*
X249766043Y-87874769D01*
X249670167Y-87926017D01*
X249583550Y-87972315D01*
X249583548Y-87972316D01*
X249583547Y-87972317D01*
X249423589Y-88103589D01*
X249292317Y-88263547D01*
X249292315Y-88263550D01*
X249253643Y-88335898D01*
X249194769Y-88446043D01*
X249134699Y-88644067D01*
X249114417Y-88850000D01*
X248685583Y-88850000D01*
X248665300Y-88644066D01*
X248605232Y-88446046D01*
X248507685Y-88263550D01*
X248455702Y-88200209D01*
X248376410Y-88103589D01*
X248250794Y-88000500D01*
X248216450Y-87972315D01*
X248033954Y-87874768D01*
X247835934Y-87814700D01*
X247835932Y-87814699D01*
X247835934Y-87814699D01*
X247630000Y-87794417D01*
X247424067Y-87814699D01*
X247226043Y-87874769D01*
X247043546Y-87972317D01*
X246943164Y-88054698D01*
X246878854Y-88082010D01*
X246809986Y-88070218D01*
X246758427Y-88023066D01*
X246740500Y-87958844D01*
X246740500Y-87507275D01*
X246740500Y-87507273D01*
X246713207Y-87405413D01*
X246713207Y-87405412D01*
X246660480Y-87314087D01*
X246116648Y-86770255D01*
X246083164Y-86708933D01*
X246085669Y-86646580D01*
X246125300Y-86515934D01*
X246145583Y-86310000D01*
X246574417Y-86310000D01*
X246594699Y-86515932D01*
X246598265Y-86527687D01*
X246654768Y-86713954D01*
X246752315Y-86896450D01*
X246786969Y-86938677D01*
X246883589Y-87056410D01*
X246969618Y-87127011D01*
X247043550Y-87187685D01*
X247226046Y-87285232D01*
X247424066Y-87345300D01*
X247424065Y-87345300D01*
X247442529Y-87347118D01*
X247630000Y-87365583D01*
X247835934Y-87345300D01*
X248033954Y-87285232D01*
X248216450Y-87187685D01*
X248376410Y-87056410D01*
X248507685Y-86896450D01*
X248605232Y-86713954D01*
X248665300Y-86515934D01*
X248685583Y-86310000D01*
X249114417Y-86310000D01*
X249134699Y-86515932D01*
X249138265Y-86527687D01*
X249194768Y-86713954D01*
X249292315Y-86896450D01*
X249326969Y-86938677D01*
X249423589Y-87056410D01*
X249509618Y-87127011D01*
X249583550Y-87187685D01*
X249766046Y-87285232D01*
X249964066Y-87345300D01*
X249964065Y-87345300D01*
X249982529Y-87347118D01*
X250170000Y-87365583D01*
X250375934Y-87345300D01*
X250573954Y-87285232D01*
X250756450Y-87187685D01*
X250916410Y-87056410D01*
X251047685Y-86896450D01*
X251145232Y-86713954D01*
X251205300Y-86515934D01*
X251225583Y-86310000D01*
X251654417Y-86310000D01*
X251674699Y-86515932D01*
X251678265Y-86527687D01*
X251734768Y-86713954D01*
X251832315Y-86896450D01*
X251866969Y-86938677D01*
X251963589Y-87056410D01*
X252049618Y-87127011D01*
X252123550Y-87187685D01*
X252306046Y-87285232D01*
X252504066Y-87345300D01*
X252504065Y-87345300D01*
X252522529Y-87347118D01*
X252710000Y-87365583D01*
X252915934Y-87345300D01*
X253113954Y-87285232D01*
X253296450Y-87187685D01*
X253456410Y-87056410D01*
X253587685Y-86896450D01*
X253685232Y-86713954D01*
X253745300Y-86515934D01*
X253765583Y-86310000D01*
X254194417Y-86310000D01*
X254214699Y-86515932D01*
X254218265Y-86527687D01*
X254274768Y-86713954D01*
X254372315Y-86896450D01*
X254406969Y-86938677D01*
X254503589Y-87056410D01*
X254589618Y-87127011D01*
X254663550Y-87187685D01*
X254846046Y-87285232D01*
X255044066Y-87345300D01*
X255044065Y-87345300D01*
X255062529Y-87347118D01*
X255250000Y-87365583D01*
X255455934Y-87345300D01*
X255653954Y-87285232D01*
X255836450Y-87187685D01*
X255996410Y-87056410D01*
X256127685Y-86896450D01*
X256225232Y-86713954D01*
X256285300Y-86515934D01*
X256305583Y-86310000D01*
X256285300Y-86104066D01*
X256225232Y-85906046D01*
X256127685Y-85723550D01*
X256053364Y-85632989D01*
X255996410Y-85563589D01*
X255870794Y-85460500D01*
X255836450Y-85432315D01*
X255653954Y-85334768D01*
X255455934Y-85274700D01*
X255455932Y-85274699D01*
X255455934Y-85274699D01*
X255250000Y-85254417D01*
X255044067Y-85274699D01*
X254846043Y-85334769D01*
X254735898Y-85393643D01*
X254663550Y-85432315D01*
X254663548Y-85432316D01*
X254663547Y-85432317D01*
X254503589Y-85563589D01*
X254372317Y-85723547D01*
X254274769Y-85906043D01*
X254214699Y-86104067D01*
X254194417Y-86310000D01*
X253765583Y-86310000D01*
X253745300Y-86104066D01*
X253685232Y-85906046D01*
X253587685Y-85723550D01*
X253513364Y-85632989D01*
X253456410Y-85563589D01*
X253330794Y-85460500D01*
X253296450Y-85432315D01*
X253113954Y-85334768D01*
X252915934Y-85274700D01*
X252915932Y-85274699D01*
X252915934Y-85274699D01*
X252710000Y-85254417D01*
X252504067Y-85274699D01*
X252306043Y-85334769D01*
X252195898Y-85393643D01*
X252123550Y-85432315D01*
X252123548Y-85432316D01*
X252123547Y-85432317D01*
X251963589Y-85563589D01*
X251832317Y-85723547D01*
X251734769Y-85906043D01*
X251674699Y-86104067D01*
X251654417Y-86310000D01*
X251225583Y-86310000D01*
X251205300Y-86104066D01*
X251145232Y-85906046D01*
X251047685Y-85723550D01*
X250973364Y-85632989D01*
X250916410Y-85563589D01*
X250790794Y-85460500D01*
X250756450Y-85432315D01*
X250573954Y-85334768D01*
X250375934Y-85274700D01*
X250375932Y-85274699D01*
X250375934Y-85274699D01*
X250170000Y-85254417D01*
X249964067Y-85274699D01*
X249766043Y-85334769D01*
X249655898Y-85393643D01*
X249583550Y-85432315D01*
X249583548Y-85432316D01*
X249583547Y-85432317D01*
X249423589Y-85563589D01*
X249292317Y-85723547D01*
X249194769Y-85906043D01*
X249134699Y-86104067D01*
X249114417Y-86310000D01*
X248685583Y-86310000D01*
X248665300Y-86104066D01*
X248605232Y-85906046D01*
X248507685Y-85723550D01*
X248433364Y-85632989D01*
X248376410Y-85563589D01*
X248250794Y-85460500D01*
X248216450Y-85432315D01*
X248033954Y-85334768D01*
X247835934Y-85274700D01*
X247835932Y-85274699D01*
X247835934Y-85274699D01*
X247630000Y-85254417D01*
X247424067Y-85274699D01*
X247226043Y-85334769D01*
X247115898Y-85393643D01*
X247043550Y-85432315D01*
X247043548Y-85432316D01*
X247043547Y-85432317D01*
X246883589Y-85563589D01*
X246752317Y-85723547D01*
X246654769Y-85906043D01*
X246594699Y-86104067D01*
X246574417Y-86310000D01*
X246145583Y-86310000D01*
X246125300Y-86104066D01*
X246065232Y-85906046D01*
X245967685Y-85723550D01*
X245893364Y-85632989D01*
X245836410Y-85563589D01*
X245710794Y-85460500D01*
X245676450Y-85432315D01*
X245493954Y-85334768D01*
X245295934Y-85274700D01*
X245295932Y-85274699D01*
X245295934Y-85274699D01*
X245090000Y-85254417D01*
X244884067Y-85274699D01*
X244686043Y-85334769D01*
X244575898Y-85393643D01*
X244503550Y-85432315D01*
X244503548Y-85432316D01*
X244503547Y-85432317D01*
X244343589Y-85563589D01*
X244212317Y-85723547D01*
X244114769Y-85906043D01*
X244054699Y-86104067D01*
X244034417Y-86310000D01*
X244054699Y-86515932D01*
X244094330Y-86646579D01*
X244094953Y-86716446D01*
X244063350Y-86770255D01*
X243670426Y-87163181D01*
X243609103Y-87196666D01*
X243582745Y-87199500D01*
X243441155Y-87199500D01*
X243374116Y-87179815D01*
X243328361Y-87127011D01*
X243318417Y-87057853D01*
X243345302Y-86996835D01*
X243389881Y-86942514D01*
X243427685Y-86896450D01*
X243525232Y-86713954D01*
X243585300Y-86515934D01*
X243605583Y-86310000D01*
X243585300Y-86104066D01*
X243525232Y-85906046D01*
X243427685Y-85723550D01*
X243353364Y-85632989D01*
X243296410Y-85563589D01*
X243170794Y-85460500D01*
X243136450Y-85432315D01*
X242953954Y-85334768D01*
X242755934Y-85274700D01*
X242755932Y-85274699D01*
X242755934Y-85274699D01*
X242550000Y-85254417D01*
X242344067Y-85274699D01*
X242146043Y-85334769D01*
X242035898Y-85393643D01*
X241963550Y-85432315D01*
X241963548Y-85432316D01*
X241963547Y-85432317D01*
X241803589Y-85563589D01*
X241672317Y-85723547D01*
X241574769Y-85906043D01*
X241514699Y-86104067D01*
X241494417Y-86310000D01*
X241514699Y-86515932D01*
X241518265Y-86527687D01*
X241574768Y-86713954D01*
X241650577Y-86855782D01*
X241672317Y-86896453D01*
X241754698Y-86996835D01*
X241782011Y-87061145D01*
X241770220Y-87130013D01*
X241723067Y-87181573D01*
X241658845Y-87199500D01*
X232337254Y-87199500D01*
X232270215Y-87179815D01*
X232249573Y-87163181D01*
X231554629Y-86468236D01*
X231521144Y-86406913D01*
X231519572Y-86398198D01*
X231519323Y-86396466D01*
X231515165Y-86367543D01*
X231455377Y-86236627D01*
X231361128Y-86127857D01*
X231240053Y-86050047D01*
X231240051Y-86050046D01*
X231240049Y-86050045D01*
X231240050Y-86050045D01*
X231101963Y-86009500D01*
X231101961Y-86009500D01*
X230958039Y-86009500D01*
X230958036Y-86009500D01*
X230819949Y-86050045D01*
X230698873Y-86127856D01*
X230604623Y-86236626D01*
X230604622Y-86236628D01*
X230544834Y-86367543D01*
X230524353Y-86510000D01*
X230544834Y-86652456D01*
X230604622Y-86783371D01*
X230604623Y-86783373D01*
X230698872Y-86892143D01*
X230819947Y-86969953D01*
X230819950Y-86969954D01*
X230819949Y-86969954D01*
X230936262Y-87004106D01*
X230989009Y-87035402D01*
X231795179Y-87841571D01*
X231795189Y-87841582D01*
X231874088Y-87920481D01*
X231882455Y-87925311D01*
X231896128Y-87933205D01*
X231896130Y-87933207D01*
X231896131Y-87933207D01*
X231965412Y-87973207D01*
X232067273Y-88000500D01*
X232067275Y-88000500D01*
X241076000Y-88000500D01*
X241143039Y-88020185D01*
X241188794Y-88072989D01*
X241200000Y-88124500D01*
X241200000Y-88600000D01*
X242116988Y-88600000D01*
X242084075Y-88657007D01*
X242050000Y-88784174D01*
X242050000Y-88915826D01*
X242084075Y-89042993D01*
X242116988Y-89100000D01*
X241200000Y-89100000D01*
X241200000Y-89747844D01*
X241206401Y-89807372D01*
X241206403Y-89807379D01*
X241256645Y-89942086D01*
X241256649Y-89942093D01*
X241342809Y-90057187D01*
X241342812Y-90057190D01*
X241457906Y-90143350D01*
X241457913Y-90143354D01*
X241592620Y-90193596D01*
X241592627Y-90193598D01*
X241652155Y-90199999D01*
X241652172Y-90200000D01*
X242300000Y-90200000D01*
X242300000Y-89283012D01*
X242357007Y-89315925D01*
X242484174Y-89350000D01*
X242615826Y-89350000D01*
X242742993Y-89315925D01*
X242800000Y-89283012D01*
X242800000Y-90200000D01*
X243447828Y-90200000D01*
X243447844Y-90199999D01*
X243507372Y-90193598D01*
X243507379Y-90193596D01*
X243642086Y-90143354D01*
X243642093Y-90143350D01*
X243757187Y-90057190D01*
X243757190Y-90057187D01*
X243843350Y-89942093D01*
X243843354Y-89942086D01*
X243893596Y-89807379D01*
X243893598Y-89807372D01*
X243899999Y-89747844D01*
X243900000Y-89747827D01*
X243900000Y-89347186D01*
X243919685Y-89280147D01*
X243972489Y-89234392D01*
X244041647Y-89224448D01*
X244105203Y-89253473D01*
X244133356Y-89288729D01*
X244212315Y-89436450D01*
X244212317Y-89436452D01*
X244343589Y-89596410D01*
X244503548Y-89727684D01*
X244503550Y-89727685D01*
X244623953Y-89792042D01*
X244673798Y-89841004D01*
X244689500Y-89901400D01*
X244689500Y-91602745D01*
X244669815Y-91669784D01*
X244653181Y-91690426D01*
X241980426Y-94363181D01*
X241919103Y-94396666D01*
X241892745Y-94399500D01*
X227224500Y-94399500D01*
X227157461Y-94379815D01*
X227111706Y-94327011D01*
X227100500Y-94275500D01*
X227100500Y-92048332D01*
X227120185Y-91981293D01*
X227120901Y-91980336D01*
X227125368Y-91973382D01*
X227125377Y-91973373D01*
X227185165Y-91842457D01*
X227205647Y-91700000D01*
X227185165Y-91557543D01*
X227125377Y-91426627D01*
X227031128Y-91317857D01*
X226910053Y-91240047D01*
X226910051Y-91240046D01*
X226910049Y-91240045D01*
X226910050Y-91240045D01*
X226771963Y-91199500D01*
X226771961Y-91199500D01*
X226628039Y-91199500D01*
X226628036Y-91199500D01*
X226489949Y-91240045D01*
X226368873Y-91317856D01*
X226274623Y-91426626D01*
X226274622Y-91426628D01*
X226214834Y-91557543D01*
X226194353Y-91700000D01*
X226214834Y-91842456D01*
X226228659Y-91872727D01*
X226274623Y-91973373D01*
X226274627Y-91973378D01*
X226279418Y-91980833D01*
X226276364Y-91982795D01*
X226298235Y-92030663D01*
X226299500Y-92048332D01*
X226299500Y-94275500D01*
X226279815Y-94342539D01*
X226227011Y-94388294D01*
X226175500Y-94399500D01*
X209987273Y-94399500D01*
X209885410Y-94426793D01*
X209794087Y-94479520D01*
X209794084Y-94479522D01*
X208540426Y-95733181D01*
X208479103Y-95766666D01*
X208452745Y-95769500D01*
X207050247Y-95769500D01*
X206991770Y-95781131D01*
X206991769Y-95781132D01*
X206925447Y-95825447D01*
X206881132Y-95891769D01*
X206881131Y-95891770D01*
X206869500Y-95950247D01*
X203514856Y-95950247D01*
X203456452Y-95902317D01*
X203456453Y-95902317D01*
X203456450Y-95902315D01*
X203273954Y-95804768D01*
X203075934Y-95744700D01*
X203075932Y-95744699D01*
X203075934Y-95744699D01*
X202870000Y-95724417D01*
X202664067Y-95744699D01*
X202466043Y-95804769D01*
X202355898Y-95863643D01*
X202283550Y-95902315D01*
X202283548Y-95902316D01*
X202283547Y-95902317D01*
X202123589Y-96033589D01*
X201992317Y-96193547D01*
X201992315Y-96193550D01*
X201953643Y-96265898D01*
X201894769Y-96376043D01*
X201834699Y-96574067D01*
X201814417Y-96780000D01*
X201385583Y-96780000D01*
X201365300Y-96574066D01*
X201305232Y-96376046D01*
X201207685Y-96193550D01*
X201108231Y-96072364D01*
X201076410Y-96033589D01*
X200916452Y-95902317D01*
X200916453Y-95902317D01*
X200916450Y-95902315D01*
X200733954Y-95804768D01*
X200535934Y-95744700D01*
X200535932Y-95744699D01*
X200535934Y-95744699D01*
X200330000Y-95724417D01*
X200124067Y-95744699D01*
X199926043Y-95804769D01*
X199815898Y-95863643D01*
X199743550Y-95902315D01*
X199743548Y-95902316D01*
X199743547Y-95902317D01*
X199583589Y-96033589D01*
X199452317Y-96193547D01*
X199452315Y-96193550D01*
X199413643Y-96265898D01*
X199354769Y-96376043D01*
X199294699Y-96574067D01*
X199274417Y-96780000D01*
X196900500Y-96780000D01*
X196900500Y-94240000D01*
X199274417Y-94240000D01*
X199294699Y-94445932D01*
X199324734Y-94544944D01*
X199354768Y-94643954D01*
X199452315Y-94826450D01*
X199452317Y-94826452D01*
X199583589Y-94986410D01*
X199680209Y-95065702D01*
X199743550Y-95117685D01*
X199926046Y-95215232D01*
X200124066Y-95275300D01*
X200124065Y-95275300D01*
X200142529Y-95277118D01*
X200330000Y-95295583D01*
X200535934Y-95275300D01*
X200733954Y-95215232D01*
X200916450Y-95117685D01*
X201076410Y-94986410D01*
X201207685Y-94826450D01*
X201305232Y-94643954D01*
X201365300Y-94445934D01*
X201385583Y-94240000D01*
X201814417Y-94240000D01*
X201834699Y-94445932D01*
X201864734Y-94544944D01*
X201894768Y-94643954D01*
X201992315Y-94826450D01*
X201992317Y-94826452D01*
X202123589Y-94986410D01*
X202220209Y-95065702D01*
X202283550Y-95117685D01*
X202466046Y-95215232D01*
X202664066Y-95275300D01*
X202664065Y-95275300D01*
X202682529Y-95277118D01*
X202870000Y-95295583D01*
X203075934Y-95275300D01*
X203273954Y-95215232D01*
X203456450Y-95117685D01*
X203616410Y-94986410D01*
X203747685Y-94826450D01*
X203845232Y-94643954D01*
X203905300Y-94445934D01*
X203925583Y-94240000D01*
X203905300Y-94034066D01*
X203845232Y-93836046D01*
X203747685Y-93653550D01*
X203664957Y-93552745D01*
X203616410Y-93493589D01*
X203456452Y-93362317D01*
X203456453Y-93362317D01*
X203456450Y-93362315D01*
X203273954Y-93264768D01*
X203075934Y-93204700D01*
X203075932Y-93204699D01*
X203075934Y-93204699D01*
X202870000Y-93184417D01*
X202664067Y-93204699D01*
X202466043Y-93264769D01*
X202355898Y-93323643D01*
X202283550Y-93362315D01*
X202283548Y-93362316D01*
X202283547Y-93362317D01*
X202123589Y-93493589D01*
X201992317Y-93653547D01*
X201894769Y-93836043D01*
X201834699Y-94034067D01*
X201814417Y-94240000D01*
X201385583Y-94240000D01*
X201365300Y-94034066D01*
X201305232Y-93836046D01*
X201207685Y-93653550D01*
X201124957Y-93552745D01*
X201076410Y-93493589D01*
X200916452Y-93362317D01*
X200916453Y-93362317D01*
X200916450Y-93362315D01*
X200733954Y-93264768D01*
X200535934Y-93204700D01*
X200535932Y-93204699D01*
X200535934Y-93204699D01*
X200330000Y-93184417D01*
X200124067Y-93204699D01*
X199926043Y-93264769D01*
X199815898Y-93323643D01*
X199743550Y-93362315D01*
X199743548Y-93362316D01*
X199743547Y-93362317D01*
X199583589Y-93493589D01*
X199452317Y-93653547D01*
X199354769Y-93836043D01*
X199294699Y-94034067D01*
X199274417Y-94240000D01*
X196900500Y-94240000D01*
X196900500Y-91700000D01*
X199274417Y-91700000D01*
X199294699Y-91905932D01*
X199294700Y-91905934D01*
X199354768Y-92103954D01*
X199452315Y-92286450D01*
X199452317Y-92286452D01*
X199583589Y-92446410D01*
X199680209Y-92525702D01*
X199743550Y-92577685D01*
X199926046Y-92675232D01*
X200124066Y-92735300D01*
X200124065Y-92735300D01*
X200142529Y-92737118D01*
X200330000Y-92755583D01*
X200535934Y-92735300D01*
X200733954Y-92675232D01*
X200916450Y-92577685D01*
X201076410Y-92446410D01*
X201207685Y-92286450D01*
X201305232Y-92103954D01*
X201365300Y-91905934D01*
X201385583Y-91700000D01*
X201814417Y-91700000D01*
X201834699Y-91905932D01*
X201834700Y-91905934D01*
X201894768Y-92103954D01*
X201992315Y-92286450D01*
X201992317Y-92286452D01*
X202123589Y-92446410D01*
X202220209Y-92525702D01*
X202283550Y-92577685D01*
X202466046Y-92675232D01*
X202664066Y-92735300D01*
X202664065Y-92735300D01*
X202682529Y-92737118D01*
X202870000Y-92755583D01*
X203075934Y-92735300D01*
X203273954Y-92675232D01*
X203456450Y-92577685D01*
X203616410Y-92446410D01*
X203747685Y-92286450D01*
X203845232Y-92103954D01*
X203905300Y-91905934D01*
X203925583Y-91700000D01*
X203905300Y-91494066D01*
X203845232Y-91296046D01*
X203747685Y-91113550D01*
X203695702Y-91050209D01*
X203616410Y-90953589D01*
X203456452Y-90822317D01*
X203456453Y-90822317D01*
X203456450Y-90822315D01*
X203273954Y-90724768D01*
X203075934Y-90664700D01*
X203075932Y-90664699D01*
X203075934Y-90664699D01*
X202870000Y-90644417D01*
X202664067Y-90664699D01*
X202466043Y-90724769D01*
X202355898Y-90783643D01*
X202283550Y-90822315D01*
X202283548Y-90822316D01*
X202283547Y-90822317D01*
X202123589Y-90953589D01*
X201992317Y-91113547D01*
X201894769Y-91296043D01*
X201834699Y-91494067D01*
X201814417Y-91700000D01*
X201385583Y-91700000D01*
X201365300Y-91494066D01*
X201305232Y-91296046D01*
X201207685Y-91113550D01*
X201155702Y-91050209D01*
X201076410Y-90953589D01*
X200916452Y-90822317D01*
X200916453Y-90822317D01*
X200916450Y-90822315D01*
X200733954Y-90724768D01*
X200535934Y-90664700D01*
X200535932Y-90664699D01*
X200535934Y-90664699D01*
X200330000Y-90644417D01*
X200124067Y-90664699D01*
X199926043Y-90724769D01*
X199815898Y-90783643D01*
X199743550Y-90822315D01*
X199743548Y-90822316D01*
X199743547Y-90822317D01*
X199583589Y-90953589D01*
X199452317Y-91113547D01*
X199354769Y-91296043D01*
X199294699Y-91494067D01*
X199274417Y-91700000D01*
X196900500Y-91700000D01*
X196900500Y-88290247D01*
X199279500Y-88290247D01*
X199279500Y-90029752D01*
X199291131Y-90088229D01*
X199291132Y-90088230D01*
X199335447Y-90154552D01*
X199401769Y-90198867D01*
X199401770Y-90198868D01*
X199460247Y-90210499D01*
X199460250Y-90210500D01*
X199460252Y-90210500D01*
X201199750Y-90210500D01*
X201199751Y-90210499D01*
X201214568Y-90207552D01*
X201258229Y-90198868D01*
X201258229Y-90198867D01*
X201258231Y-90198867D01*
X201324552Y-90154552D01*
X201368867Y-90088231D01*
X201368867Y-90088229D01*
X201368868Y-90088229D01*
X201380499Y-90029752D01*
X201380500Y-90029750D01*
X201380500Y-89160000D01*
X201814417Y-89160000D01*
X201834699Y-89365932D01*
X201856091Y-89436452D01*
X201894768Y-89563954D01*
X201992315Y-89746450D01*
X201992317Y-89746452D01*
X202123589Y-89906410D01*
X202213779Y-89980426D01*
X202283550Y-90037685D01*
X202466046Y-90135232D01*
X202664066Y-90195300D01*
X202664065Y-90195300D01*
X202682529Y-90197118D01*
X202870000Y-90215583D01*
X203075934Y-90195300D01*
X203273954Y-90135232D01*
X203456450Y-90037685D01*
X203616410Y-89906410D01*
X203747685Y-89746450D01*
X203845232Y-89563954D01*
X203905300Y-89365934D01*
X203925583Y-89160000D01*
X203905300Y-88954066D01*
X203845232Y-88756046D01*
X203747685Y-88573550D01*
X203668097Y-88476571D01*
X203616410Y-88413589D01*
X203466121Y-88290252D01*
X203456450Y-88282315D01*
X203273954Y-88184768D01*
X203075934Y-88124700D01*
X203075932Y-88124699D01*
X203075934Y-88124699D01*
X202870000Y-88104417D01*
X202664067Y-88124699D01*
X202466043Y-88184769D01*
X202382909Y-88229206D01*
X202283550Y-88282315D01*
X202283548Y-88282316D01*
X202283547Y-88282317D01*
X202123589Y-88413589D01*
X201992317Y-88573547D01*
X201894769Y-88756043D01*
X201834699Y-88954067D01*
X201814417Y-89160000D01*
X201380500Y-89160000D01*
X201380500Y-88290249D01*
X201380499Y-88290247D01*
X201368868Y-88231770D01*
X201368867Y-88231769D01*
X201324552Y-88165447D01*
X201258230Y-88121132D01*
X201258229Y-88121131D01*
X201199752Y-88109500D01*
X201199748Y-88109500D01*
X199460252Y-88109500D01*
X199460247Y-88109500D01*
X199401770Y-88121131D01*
X199401769Y-88121132D01*
X199335447Y-88165447D01*
X199291132Y-88231769D01*
X199291131Y-88231770D01*
X199279500Y-88290247D01*
X196900500Y-88290247D01*
X196900500Y-87978155D01*
X196920185Y-87911116D01*
X196972989Y-87865361D01*
X196989577Y-87859175D01*
X196990592Y-87858876D01*
X196995782Y-87857353D01*
X197217045Y-87756306D01*
X197421675Y-87624798D01*
X197605507Y-87465507D01*
X197764798Y-87281675D01*
X197896306Y-87077045D01*
X197997353Y-86855782D01*
X198065883Y-86622391D01*
X198100500Y-86381622D01*
X198100500Y-86260000D01*
X198100500Y-86194108D01*
X198100500Y-86138378D01*
X198065883Y-85897609D01*
X197997353Y-85664218D01*
X197896306Y-85442955D01*
X197889469Y-85432317D01*
X197764798Y-85238325D01*
X197605507Y-85054492D01*
X197421674Y-84895201D01*
X197217049Y-84763696D01*
X197217044Y-84763693D01*
X197096828Y-84708792D01*
X196995782Y-84662647D01*
X196905821Y-84636232D01*
X196762396Y-84594118D01*
X196762386Y-84594116D01*
X196643365Y-84577003D01*
X196521622Y-84559500D01*
X196521620Y-84559500D01*
X195774500Y-84559500D01*
X195707461Y-84539815D01*
X195661706Y-84487011D01*
X195650500Y-84435500D01*
X195650500Y-84184500D01*
X195670185Y-84117461D01*
X195722989Y-84071706D01*
X195774500Y-84060500D01*
X196521619Y-84060500D01*
X196521622Y-84060500D01*
X196762391Y-84025883D01*
X196995782Y-83957353D01*
X197217045Y-83856306D01*
X197421675Y-83724798D01*
X197605507Y-83565507D01*
X197764798Y-83381675D01*
X197896306Y-83177045D01*
X197997353Y-82955782D01*
X198065883Y-82722391D01*
X198100500Y-82481622D01*
X198100500Y-82360000D01*
X198100500Y-82294108D01*
X198100500Y-82238378D01*
X198065883Y-81997609D01*
X197997353Y-81764218D01*
X197896306Y-81542955D01*
X197847694Y-81467314D01*
X197764798Y-81338325D01*
X197605507Y-81154492D01*
X197421674Y-80995201D01*
X197217049Y-80863696D01*
X197217044Y-80863693D01*
X197096828Y-80808792D01*
X196995782Y-80762647D01*
X196995776Y-80762645D01*
X196995770Y-80762643D01*
X196989559Y-80760819D01*
X196930783Y-80723042D01*
X196901761Y-80659484D01*
X196900500Y-80641844D01*
X196900500Y-80034500D01*
X196920185Y-79967461D01*
X196972989Y-79921706D01*
X197024500Y-79910500D01*
X262075500Y-79910500D01*
X262142539Y-79930185D01*
G37*
G04 #@! TD.AperFunction*
M02*
