%TF.GenerationSoftware,KiCad,Pcbnew,8.0.8*%
%TF.CreationDate,2025-02-19T14:35:15-05:00*%
%TF.ProjectId,afe_230v_16a,6166655f-3233-4307-965f-3136612e6b69,rev?*%
%TF.SameCoordinates,Original*%
%TF.FileFunction,Drillmap*%
%TF.FilePolarity,Positive*%
%FSLAX45Y45*%
G04 Gerber Fmt 4.5, Leading zero omitted, Abs format (unit mm)*
G04 Created by KiCad (PCBNEW 8.0.8) date 2025-02-19 14:35:15*
%MOMM*%
%LPD*%
G01*
G04 APERTURE LIST*
%ADD10C,0.050000*%
%ADD11C,0.200000*%
G04 APERTURE END LIST*
D10*
X26270000Y-11356000D02*
G75*
G02*
X26150000Y-11236000I0J120000D01*
G01*
X26150000Y-8626000D02*
G75*
G02*
X26270000Y-8506000I120000J0D01*
G01*
X19515000Y-11506000D02*
X19515000Y-11356000D01*
X19760000Y-11626000D02*
G75*
G02*
X19640000Y-11746000I-120000J0D01*
G01*
X26270000Y-8116000D02*
X26270000Y-7941000D01*
X26270000Y-11356000D02*
X26395000Y-11356000D01*
X26395000Y-8356000D02*
X26395000Y-8506000D01*
X26395000Y-11356000D02*
X26395000Y-11506000D01*
X26150000Y-8236000D02*
G75*
G02*
X26270000Y-8116000I120000J0D01*
G01*
X26270000Y-11506000D02*
X26395000Y-11506000D01*
X19515000Y-8506000D02*
X19515000Y-8356000D01*
X26270000Y-11746000D02*
X26270000Y-11921000D01*
X26270000Y-11746000D02*
G75*
G02*
X26150000Y-11626000I0J120000D01*
G01*
X26270000Y-8356000D02*
X26395000Y-8356000D01*
X26150000Y-11626000D02*
G75*
G02*
X26270000Y-11506000I120000J0D01*
G01*
X26270000Y-8746000D02*
G75*
G02*
X26150000Y-8626000I0J120000D01*
G01*
X19640000Y-8506000D02*
X19515000Y-8506000D01*
X19640000Y-8356000D02*
X19515000Y-8356000D01*
X19640000Y-11506000D02*
G75*
G02*
X19760000Y-11626000I0J-120000D01*
G01*
X19640000Y-8116000D02*
G75*
G02*
X19760000Y-8236000I0J-120000D01*
G01*
X19640000Y-8116000D02*
X19640000Y-7941000D01*
X19640000Y-11746000D02*
X19640000Y-11921000D01*
X19760000Y-8236000D02*
G75*
G02*
X19640000Y-8356000I-120000J0D01*
G01*
X19640000Y-11116000D02*
X19640000Y-8746000D01*
X19760000Y-8626000D02*
G75*
G02*
X19640000Y-8746000I-120000J0D01*
G01*
X19760000Y-11236000D02*
G75*
G02*
X19640000Y-11356000I-120000J0D01*
G01*
X26270000Y-8506000D02*
X26395000Y-8506000D01*
X26150000Y-11236000D02*
G75*
G02*
X26270000Y-11116000I120000J0D01*
G01*
X19640000Y-8506000D02*
G75*
G02*
X19760000Y-8626000I0J-120000D01*
G01*
X26270000Y-8356000D02*
G75*
G02*
X26150000Y-8236000I0J120000D01*
G01*
X26270000Y-7941000D02*
X19640000Y-7941000D01*
X19640000Y-11116000D02*
G75*
G02*
X19760000Y-11236000I0J-120000D01*
G01*
X26270000Y-8746000D02*
X26270000Y-11116000D01*
X19640000Y-9931000D02*
X20160500Y-9931000D01*
X19640000Y-11921000D02*
X26270000Y-11921000D01*
X19640000Y-11506000D02*
X19515000Y-11506000D01*
X19640000Y-11356000D02*
X19515000Y-11356000D01*
D11*
X19773277Y-12234984D02*
X19773277Y-12034984D01*
X19773277Y-12034984D02*
X19820896Y-12034984D01*
X19820896Y-12034984D02*
X19849467Y-12044508D01*
X19849467Y-12044508D02*
X19868515Y-12063555D01*
X19868515Y-12063555D02*
X19878039Y-12082603D01*
X19878039Y-12082603D02*
X19887563Y-12120698D01*
X19887563Y-12120698D02*
X19887563Y-12149269D01*
X19887563Y-12149269D02*
X19878039Y-12187365D01*
X19878039Y-12187365D02*
X19868515Y-12206412D01*
X19868515Y-12206412D02*
X19849467Y-12225460D01*
X19849467Y-12225460D02*
X19820896Y-12234984D01*
X19820896Y-12234984D02*
X19773277Y-12234984D01*
X19973277Y-12234984D02*
X19973277Y-12101650D01*
X19973277Y-12139746D02*
X19982801Y-12120698D01*
X19982801Y-12120698D02*
X19992324Y-12111174D01*
X19992324Y-12111174D02*
X20011372Y-12101650D01*
X20011372Y-12101650D02*
X20030420Y-12101650D01*
X20097086Y-12234984D02*
X20097086Y-12101650D01*
X20097086Y-12034984D02*
X20087563Y-12044508D01*
X20087563Y-12044508D02*
X20097086Y-12054031D01*
X20097086Y-12054031D02*
X20106610Y-12044508D01*
X20106610Y-12044508D02*
X20097086Y-12034984D01*
X20097086Y-12034984D02*
X20097086Y-12054031D01*
X20220896Y-12234984D02*
X20201848Y-12225460D01*
X20201848Y-12225460D02*
X20192324Y-12206412D01*
X20192324Y-12206412D02*
X20192324Y-12034984D01*
X20325658Y-12234984D02*
X20306610Y-12225460D01*
X20306610Y-12225460D02*
X20297086Y-12206412D01*
X20297086Y-12206412D02*
X20297086Y-12034984D01*
X20554229Y-12234984D02*
X20554229Y-12034984D01*
X20554229Y-12034984D02*
X20620896Y-12177841D01*
X20620896Y-12177841D02*
X20687563Y-12034984D01*
X20687563Y-12034984D02*
X20687563Y-12234984D01*
X20868515Y-12234984D02*
X20868515Y-12130222D01*
X20868515Y-12130222D02*
X20858991Y-12111174D01*
X20858991Y-12111174D02*
X20839944Y-12101650D01*
X20839944Y-12101650D02*
X20801848Y-12101650D01*
X20801848Y-12101650D02*
X20782801Y-12111174D01*
X20868515Y-12225460D02*
X20849467Y-12234984D01*
X20849467Y-12234984D02*
X20801848Y-12234984D01*
X20801848Y-12234984D02*
X20782801Y-12225460D01*
X20782801Y-12225460D02*
X20773277Y-12206412D01*
X20773277Y-12206412D02*
X20773277Y-12187365D01*
X20773277Y-12187365D02*
X20782801Y-12168317D01*
X20782801Y-12168317D02*
X20801848Y-12158793D01*
X20801848Y-12158793D02*
X20849467Y-12158793D01*
X20849467Y-12158793D02*
X20868515Y-12149269D01*
X20963753Y-12101650D02*
X20963753Y-12301650D01*
X20963753Y-12111174D02*
X20982801Y-12101650D01*
X20982801Y-12101650D02*
X21020896Y-12101650D01*
X21020896Y-12101650D02*
X21039944Y-12111174D01*
X21039944Y-12111174D02*
X21049467Y-12120698D01*
X21049467Y-12120698D02*
X21058991Y-12139746D01*
X21058991Y-12139746D02*
X21058991Y-12196888D01*
X21058991Y-12196888D02*
X21049467Y-12215936D01*
X21049467Y-12215936D02*
X21039944Y-12225460D01*
X21039944Y-12225460D02*
X21020896Y-12234984D01*
X21020896Y-12234984D02*
X20982801Y-12234984D01*
X20982801Y-12234984D02*
X20963753Y-12225460D01*
X21144705Y-12215936D02*
X21154229Y-12225460D01*
X21154229Y-12225460D02*
X21144705Y-12234984D01*
X21144705Y-12234984D02*
X21135182Y-12225460D01*
X21135182Y-12225460D02*
X21144705Y-12215936D01*
X21144705Y-12215936D02*
X21144705Y-12234984D01*
X21144705Y-12111174D02*
X21154229Y-12120698D01*
X21154229Y-12120698D02*
X21144705Y-12130222D01*
X21144705Y-12130222D02*
X21135182Y-12120698D01*
X21135182Y-12120698D02*
X21144705Y-12111174D01*
X21144705Y-12111174D02*
X21144705Y-12130222D01*
M02*
