%TF.GenerationSoftware,KiCad,Pcbnew,8.0.8*%
%TF.CreationDate,2025-02-19T14:35:15-05:00*%
%TF.ProjectId,afe_230v_16a,6166655f-3233-4307-965f-3136612e6b69,rev?*%
%TF.SameCoordinates,Original*%
%TF.FileFunction,Drillmap*%
%TF.FilePolarity,Positive*%
%FSLAX45Y45*%
G04 Gerber Fmt 4.5, Leading zero omitted, Abs format (unit mm)*
G04 Created by KiCad (PCBNEW 8.0.8) date 2025-02-19 14:35:15*
%MOMM*%
%LPD*%
G01*
G04 APERTURE LIST*
%ADD10C,0.050000*%
%ADD11C,0.200000*%
%ADD12C,0.100000*%
G04 APERTURE END LIST*
D10*
X26270000Y-11356000D02*
G75*
G02*
X26150000Y-11236000I0J120000D01*
G01*
X26150000Y-8626000D02*
G75*
G02*
X26270000Y-8506000I120000J0D01*
G01*
X19515000Y-11506000D02*
X19515000Y-11356000D01*
X19760000Y-11626000D02*
G75*
G02*
X19640000Y-11746000I-120000J0D01*
G01*
X26270000Y-8116000D02*
X26270000Y-7941000D01*
X26270000Y-11356000D02*
X26395000Y-11356000D01*
X26395000Y-8356000D02*
X26395000Y-8506000D01*
X26395000Y-11356000D02*
X26395000Y-11506000D01*
X26150000Y-8236000D02*
G75*
G02*
X26270000Y-8116000I120000J0D01*
G01*
X26270000Y-11506000D02*
X26395000Y-11506000D01*
X19515000Y-8506000D02*
X19515000Y-8356000D01*
X26270000Y-11746000D02*
X26270000Y-11921000D01*
X26270000Y-11746000D02*
G75*
G02*
X26150000Y-11626000I0J120000D01*
G01*
X26270000Y-8356000D02*
X26395000Y-8356000D01*
X26150000Y-11626000D02*
G75*
G02*
X26270000Y-11506000I120000J0D01*
G01*
X26270000Y-8746000D02*
G75*
G02*
X26150000Y-8626000I0J120000D01*
G01*
X19640000Y-8506000D02*
X19515000Y-8506000D01*
X19640000Y-8356000D02*
X19515000Y-8356000D01*
X19640000Y-11506000D02*
G75*
G02*
X19760000Y-11626000I0J-120000D01*
G01*
X19640000Y-8116000D02*
G75*
G02*
X19760000Y-8236000I0J-120000D01*
G01*
X19640000Y-8116000D02*
X19640000Y-7941000D01*
X19640000Y-11746000D02*
X19640000Y-11921000D01*
X19760000Y-8236000D02*
G75*
G02*
X19640000Y-8356000I-120000J0D01*
G01*
X19640000Y-11116000D02*
X19640000Y-8746000D01*
X19760000Y-8626000D02*
G75*
G02*
X19640000Y-8746000I-120000J0D01*
G01*
X19760000Y-11236000D02*
G75*
G02*
X19640000Y-11356000I-120000J0D01*
G01*
X26270000Y-8506000D02*
X26395000Y-8506000D01*
X26150000Y-11236000D02*
G75*
G02*
X26270000Y-11116000I120000J0D01*
G01*
X19640000Y-8506000D02*
G75*
G02*
X19760000Y-8626000I0J-120000D01*
G01*
X26270000Y-8356000D02*
G75*
G02*
X26150000Y-8236000I0J120000D01*
G01*
X26270000Y-7941000D02*
X19640000Y-7941000D01*
X19640000Y-11116000D02*
G75*
G02*
X19760000Y-11236000I0J-120000D01*
G01*
X26270000Y-8746000D02*
X26270000Y-11116000D01*
X19640000Y-9931000D02*
X20160500Y-9931000D01*
X19640000Y-11921000D02*
X26270000Y-11921000D01*
X19640000Y-11506000D02*
X19515000Y-11506000D01*
X19640000Y-11356000D02*
X19515000Y-11356000D01*
D11*
D12*
X19734000Y-9043500D02*
X19764000Y-9073500D01*
X19764000Y-9043500D02*
X19734000Y-9073500D01*
X19734000Y-9296714D02*
X19764000Y-9326714D01*
X19764000Y-9296714D02*
X19734000Y-9326714D01*
X19734000Y-9549928D02*
X19764000Y-9579928D01*
X19764000Y-9549928D02*
X19734000Y-9579928D01*
X19734000Y-9803143D02*
X19764000Y-9833143D01*
X19764000Y-9803143D02*
X19734000Y-9833143D01*
X19734000Y-10056357D02*
X19764000Y-10086357D01*
X19764000Y-10056357D02*
X19734000Y-10086357D01*
X19734000Y-10309571D02*
X19764000Y-10339571D01*
X19764000Y-10309571D02*
X19734000Y-10339571D01*
X19734000Y-10562785D02*
X19764000Y-10592785D01*
X19764000Y-10562785D02*
X19734000Y-10592785D01*
X19734000Y-10816000D02*
X19764000Y-10846000D01*
X19764000Y-10816000D02*
X19734000Y-10846000D01*
X20019357Y-8091000D02*
X20049357Y-8121000D01*
X20049357Y-8091000D02*
X20019357Y-8121000D01*
X20024500Y-11776000D02*
X20054500Y-11806000D01*
X20054500Y-11776000D02*
X20024500Y-11806000D01*
X20270510Y-8091000D02*
X20300510Y-8121000D01*
X20300510Y-8091000D02*
X20270510Y-8121000D01*
X20275652Y-11776000D02*
X20305652Y-11806000D01*
X20305652Y-11776000D02*
X20275652Y-11806000D01*
X20521662Y-8091000D02*
X20551662Y-8121000D01*
X20551662Y-8091000D02*
X20521662Y-8121000D01*
X20526804Y-11776000D02*
X20556804Y-11806000D01*
X20556804Y-11776000D02*
X20526804Y-11806000D01*
X20772814Y-8091000D02*
X20802814Y-8121000D01*
X20802814Y-8091000D02*
X20772814Y-8121000D01*
X20777956Y-11776000D02*
X20807956Y-11806000D01*
X20807956Y-11776000D02*
X20777956Y-11806000D01*
X21023966Y-8091000D02*
X21053966Y-8121000D01*
X21053966Y-8091000D02*
X21023966Y-8121000D01*
X21029108Y-11776000D02*
X21059108Y-11806000D01*
X21059108Y-11776000D02*
X21029108Y-11806000D01*
X21275118Y-8091000D02*
X21305118Y-8121000D01*
X21305118Y-8091000D02*
X21275118Y-8121000D01*
X21280261Y-11776000D02*
X21310261Y-11806000D01*
X21310261Y-11776000D02*
X21280261Y-11806000D01*
X21526270Y-8091000D02*
X21556270Y-8121000D01*
X21556270Y-8091000D02*
X21526270Y-8121000D01*
X21531413Y-11776000D02*
X21561413Y-11806000D01*
X21561413Y-11776000D02*
X21531413Y-11806000D01*
X21777422Y-8091000D02*
X21807422Y-8121000D01*
X21807422Y-8091000D02*
X21777422Y-8121000D01*
X21782565Y-11776000D02*
X21812565Y-11806000D01*
X21812565Y-11776000D02*
X21782565Y-11806000D01*
X22028574Y-8082000D02*
X22058574Y-8112000D01*
X22058574Y-8082000D02*
X22028574Y-8112000D01*
X22033717Y-11767000D02*
X22063717Y-11797000D01*
X22063717Y-11767000D02*
X22033717Y-11797000D01*
X22279726Y-8082000D02*
X22309726Y-8112000D01*
X22309726Y-8082000D02*
X22279726Y-8112000D01*
X22284869Y-11767000D02*
X22314869Y-11797000D01*
X22314869Y-11767000D02*
X22284869Y-11797000D01*
X22530878Y-8082000D02*
X22560878Y-8112000D01*
X22560878Y-8082000D02*
X22530878Y-8112000D01*
X22536021Y-11767000D02*
X22566021Y-11797000D01*
X22566021Y-11767000D02*
X22536021Y-11797000D01*
X22655000Y-9155000D02*
X22685000Y-9185000D01*
X22685000Y-9155000D02*
X22655000Y-9185000D01*
X22782030Y-8082000D02*
X22812030Y-8112000D01*
X22812030Y-8082000D02*
X22782030Y-8112000D01*
X22787173Y-11767000D02*
X22817173Y-11797000D01*
X22817173Y-11767000D02*
X22787173Y-11797000D01*
X23033183Y-8082000D02*
X23063183Y-8112000D01*
X23063183Y-8082000D02*
X23033183Y-8112000D01*
X23038325Y-11767000D02*
X23068325Y-11797000D01*
X23068325Y-11767000D02*
X23038325Y-11797000D01*
X23088000Y-8636000D02*
X23118000Y-8666000D01*
X23118000Y-8636000D02*
X23088000Y-8666000D01*
X23284335Y-8082000D02*
X23314335Y-8112000D01*
X23314335Y-8082000D02*
X23284335Y-8112000D01*
X23289477Y-11767000D02*
X23319477Y-11797000D01*
X23319477Y-11767000D02*
X23289477Y-11797000D01*
X23535487Y-8082000D02*
X23565487Y-8112000D01*
X23565487Y-8082000D02*
X23535487Y-8112000D01*
X23540629Y-11767000D02*
X23570629Y-11797000D01*
X23570629Y-11767000D02*
X23540629Y-11797000D01*
X23786639Y-8082000D02*
X23816639Y-8112000D01*
X23816639Y-8082000D02*
X23786639Y-8112000D01*
X23791781Y-11767000D02*
X23821781Y-11797000D01*
X23821781Y-11767000D02*
X23791781Y-11797000D01*
X24037791Y-8079000D02*
X24067791Y-8109000D01*
X24067791Y-8079000D02*
X24037791Y-8109000D01*
X24042934Y-11764000D02*
X24072934Y-11794000D01*
X24072934Y-11764000D02*
X24042934Y-11794000D01*
X24288943Y-8079000D02*
X24318943Y-8109000D01*
X24318943Y-8079000D02*
X24288943Y-8109000D01*
X24294086Y-11764000D02*
X24324086Y-11794000D01*
X24324086Y-11764000D02*
X24294086Y-11794000D01*
X24540095Y-8079000D02*
X24570095Y-8109000D01*
X24570095Y-8079000D02*
X24540095Y-8109000D01*
X24545238Y-11764000D02*
X24575238Y-11794000D01*
X24575238Y-11764000D02*
X24545238Y-11794000D01*
X24791247Y-8079000D02*
X24821247Y-8109000D01*
X24821247Y-8079000D02*
X24791247Y-8109000D01*
X24796390Y-11764000D02*
X24826390Y-11794000D01*
X24826390Y-11764000D02*
X24796390Y-11794000D01*
X25042399Y-8079000D02*
X25072399Y-8109000D01*
X25072399Y-8079000D02*
X25042399Y-8109000D01*
X25047542Y-11764000D02*
X25077542Y-11794000D01*
X25077542Y-11764000D02*
X25047542Y-11794000D01*
X25293551Y-8079000D02*
X25323551Y-8109000D01*
X25323551Y-8079000D02*
X25293551Y-8109000D01*
X25298694Y-11764000D02*
X25328694Y-11794000D01*
X25328694Y-11764000D02*
X25298694Y-11794000D01*
X25544704Y-8079000D02*
X25574704Y-8109000D01*
X25574704Y-8079000D02*
X25544704Y-8109000D01*
X25549846Y-11764000D02*
X25579846Y-11794000D01*
X25579846Y-11764000D02*
X25549846Y-11794000D01*
X25795857Y-8079000D02*
X25825857Y-8109000D01*
X25825857Y-8079000D02*
X25795857Y-8109000D01*
X25801000Y-11764000D02*
X25831000Y-11794000D01*
X25831000Y-11764000D02*
X25801000Y-11794000D01*
X26143000Y-9050143D02*
X26173000Y-9080143D01*
X26173000Y-9050143D02*
X26143000Y-9080143D01*
X26143000Y-9303357D02*
X26173000Y-9333357D01*
X26173000Y-9303357D02*
X26143000Y-9333357D01*
X26143000Y-9556572D02*
X26173000Y-9586572D01*
X26173000Y-9556572D02*
X26143000Y-9586572D01*
X26143000Y-9809786D02*
X26173000Y-9839786D01*
X26173000Y-9809786D02*
X26143000Y-9839786D01*
X26143000Y-10063000D02*
X26173000Y-10093000D01*
X26173000Y-10063000D02*
X26143000Y-10093000D01*
X26143000Y-10316214D02*
X26173000Y-10346214D01*
X26173000Y-10316214D02*
X26143000Y-10346214D01*
X26143000Y-10569428D02*
X26173000Y-10599428D01*
X26173000Y-10569428D02*
X26143000Y-10599428D01*
X26143000Y-10822643D02*
X26173000Y-10852643D01*
X26173000Y-10822643D02*
X26143000Y-10852643D01*
X20083000Y-8916000D02*
G75*
G02*
X19983000Y-8916000I-50000J0D01*
G01*
X19983000Y-8916000D02*
G75*
G02*
X20083000Y-8916000I50000J0D01*
G01*
X20083000Y-9170000D02*
G75*
G02*
X19983000Y-9170000I-50000J0D01*
G01*
X19983000Y-9170000D02*
G75*
G02*
X20083000Y-9170000I50000J0D01*
G01*
X20083000Y-9424000D02*
G75*
G02*
X19983000Y-9424000I-50000J0D01*
G01*
X19983000Y-9424000D02*
G75*
G02*
X20083000Y-9424000I50000J0D01*
G01*
X20083000Y-9678000D02*
G75*
G02*
X19983000Y-9678000I-50000J0D01*
G01*
X19983000Y-9678000D02*
G75*
G02*
X20083000Y-9678000I50000J0D01*
G01*
X20083000Y-9932000D02*
G75*
G02*
X19983000Y-9932000I-50000J0D01*
G01*
X19983000Y-9932000D02*
G75*
G02*
X20083000Y-9932000I50000J0D01*
G01*
X20083000Y-10186000D02*
G75*
G02*
X19983000Y-10186000I-50000J0D01*
G01*
X19983000Y-10186000D02*
G75*
G02*
X20083000Y-10186000I50000J0D01*
G01*
X20083000Y-10440000D02*
G75*
G02*
X19983000Y-10440000I-50000J0D01*
G01*
X19983000Y-10440000D02*
G75*
G02*
X20083000Y-10440000I50000J0D01*
G01*
X20083000Y-10694000D02*
G75*
G02*
X19983000Y-10694000I-50000J0D01*
G01*
X19983000Y-10694000D02*
G75*
G02*
X20083000Y-10694000I50000J0D01*
G01*
X20083000Y-10948000D02*
G75*
G02*
X19983000Y-10948000I-50000J0D01*
G01*
X19983000Y-10948000D02*
G75*
G02*
X20083000Y-10948000I50000J0D01*
G01*
X20337000Y-8916000D02*
G75*
G02*
X20237000Y-8916000I-50000J0D01*
G01*
X20237000Y-8916000D02*
G75*
G02*
X20337000Y-8916000I50000J0D01*
G01*
X20337000Y-9170000D02*
G75*
G02*
X20237000Y-9170000I-50000J0D01*
G01*
X20237000Y-9170000D02*
G75*
G02*
X20337000Y-9170000I50000J0D01*
G01*
X20337000Y-9424000D02*
G75*
G02*
X20237000Y-9424000I-50000J0D01*
G01*
X20237000Y-9424000D02*
G75*
G02*
X20337000Y-9424000I50000J0D01*
G01*
X20337000Y-9678000D02*
G75*
G02*
X20237000Y-9678000I-50000J0D01*
G01*
X20237000Y-9678000D02*
G75*
G02*
X20337000Y-9678000I50000J0D01*
G01*
X20337000Y-9932000D02*
G75*
G02*
X20237000Y-9932000I-50000J0D01*
G01*
X20237000Y-9932000D02*
G75*
G02*
X20337000Y-9932000I50000J0D01*
G01*
X20337000Y-10186000D02*
G75*
G02*
X20237000Y-10186000I-50000J0D01*
G01*
X20237000Y-10186000D02*
G75*
G02*
X20337000Y-10186000I50000J0D01*
G01*
X20337000Y-10440000D02*
G75*
G02*
X20237000Y-10440000I-50000J0D01*
G01*
X20237000Y-10440000D02*
G75*
G02*
X20337000Y-10440000I50000J0D01*
G01*
X20337000Y-10694000D02*
G75*
G02*
X20237000Y-10694000I-50000J0D01*
G01*
X20237000Y-10694000D02*
G75*
G02*
X20337000Y-10694000I50000J0D01*
G01*
X20337000Y-10948000D02*
G75*
G02*
X20237000Y-10948000I-50000J0D01*
G01*
X20237000Y-10948000D02*
G75*
G02*
X20337000Y-10948000I50000J0D01*
G01*
X20847000Y-9687000D02*
G75*
G02*
X20747000Y-9687000I-50000J0D01*
G01*
X20747000Y-9687000D02*
G75*
G02*
X20847000Y-9687000I50000J0D01*
G01*
X20847000Y-11211000D02*
G75*
G02*
X20747000Y-11211000I-50000J0D01*
G01*
X20747000Y-11211000D02*
G75*
G02*
X20847000Y-11211000I50000J0D01*
G01*
X21101000Y-9687000D02*
G75*
G02*
X21001000Y-9687000I-50000J0D01*
G01*
X21001000Y-9687000D02*
G75*
G02*
X21101000Y-9687000I50000J0D01*
G01*
X21101000Y-11211000D02*
G75*
G02*
X21001000Y-11211000I-50000J0D01*
G01*
X21001000Y-11211000D02*
G75*
G02*
X21101000Y-11211000I50000J0D01*
G01*
X21355000Y-9687000D02*
G75*
G02*
X21255000Y-9687000I-50000J0D01*
G01*
X21255000Y-9687000D02*
G75*
G02*
X21355000Y-9687000I50000J0D01*
G01*
X21355000Y-11211000D02*
G75*
G02*
X21255000Y-11211000I-50000J0D01*
G01*
X21255000Y-11211000D02*
G75*
G02*
X21355000Y-11211000I50000J0D01*
G01*
X21609000Y-9687000D02*
G75*
G02*
X21509000Y-9687000I-50000J0D01*
G01*
X21509000Y-9687000D02*
G75*
G02*
X21609000Y-9687000I50000J0D01*
G01*
X21609000Y-11211000D02*
G75*
G02*
X21509000Y-11211000I-50000J0D01*
G01*
X21509000Y-11211000D02*
G75*
G02*
X21609000Y-11211000I50000J0D01*
G01*
X21863000Y-9687000D02*
G75*
G02*
X21763000Y-9687000I-50000J0D01*
G01*
X21763000Y-9687000D02*
G75*
G02*
X21863000Y-9687000I50000J0D01*
G01*
X21863000Y-11211000D02*
G75*
G02*
X21763000Y-11211000I-50000J0D01*
G01*
X21763000Y-11211000D02*
G75*
G02*
X21863000Y-11211000I50000J0D01*
G01*
X22117000Y-9687000D02*
G75*
G02*
X22017000Y-9687000I-50000J0D01*
G01*
X22017000Y-9687000D02*
G75*
G02*
X22117000Y-9687000I50000J0D01*
G01*
X22117000Y-11211000D02*
G75*
G02*
X22017000Y-11211000I-50000J0D01*
G01*
X22017000Y-11211000D02*
G75*
G02*
X22117000Y-11211000I50000J0D01*
G01*
X22371000Y-9687000D02*
G75*
G02*
X22271000Y-9687000I-50000J0D01*
G01*
X22271000Y-9687000D02*
G75*
G02*
X22371000Y-9687000I50000J0D01*
G01*
X22371000Y-11211000D02*
G75*
G02*
X22271000Y-11211000I-50000J0D01*
G01*
X22271000Y-11211000D02*
G75*
G02*
X22371000Y-11211000I50000J0D01*
G01*
X22625000Y-9687000D02*
G75*
G02*
X22525000Y-9687000I-50000J0D01*
G01*
X22525000Y-9687000D02*
G75*
G02*
X22625000Y-9687000I50000J0D01*
G01*
X22625000Y-11211000D02*
G75*
G02*
X22525000Y-11211000I-50000J0D01*
G01*
X22525000Y-11211000D02*
G75*
G02*
X22625000Y-11211000I50000J0D01*
G01*
X22879000Y-9687000D02*
G75*
G02*
X22779000Y-9687000I-50000J0D01*
G01*
X22779000Y-9687000D02*
G75*
G02*
X22879000Y-9687000I50000J0D01*
G01*
X22879000Y-11211000D02*
G75*
G02*
X22779000Y-11211000I-50000J0D01*
G01*
X22779000Y-11211000D02*
G75*
G02*
X22879000Y-11211000I50000J0D01*
G01*
X23133000Y-9687000D02*
G75*
G02*
X23033000Y-9687000I-50000J0D01*
G01*
X23033000Y-9687000D02*
G75*
G02*
X23133000Y-9687000I50000J0D01*
G01*
X23133000Y-11211000D02*
G75*
G02*
X23033000Y-11211000I-50000J0D01*
G01*
X23033000Y-11211000D02*
G75*
G02*
X23133000Y-11211000I50000J0D01*
G01*
X23387000Y-9687000D02*
G75*
G02*
X23287000Y-9687000I-50000J0D01*
G01*
X23287000Y-9687000D02*
G75*
G02*
X23387000Y-9687000I50000J0D01*
G01*
X23387000Y-11211000D02*
G75*
G02*
X23287000Y-11211000I-50000J0D01*
G01*
X23287000Y-11211000D02*
G75*
G02*
X23387000Y-11211000I50000J0D01*
G01*
X23641000Y-9687000D02*
G75*
G02*
X23541000Y-9687000I-50000J0D01*
G01*
X23541000Y-9687000D02*
G75*
G02*
X23641000Y-9687000I50000J0D01*
G01*
X23641000Y-11211000D02*
G75*
G02*
X23541000Y-11211000I-50000J0D01*
G01*
X23541000Y-11211000D02*
G75*
G02*
X23641000Y-11211000I50000J0D01*
G01*
X23895000Y-9687000D02*
G75*
G02*
X23795000Y-9687000I-50000J0D01*
G01*
X23795000Y-9687000D02*
G75*
G02*
X23895000Y-9687000I50000J0D01*
G01*
X23895000Y-11211000D02*
G75*
G02*
X23795000Y-11211000I-50000J0D01*
G01*
X23795000Y-11211000D02*
G75*
G02*
X23895000Y-11211000I50000J0D01*
G01*
X24149000Y-9687000D02*
G75*
G02*
X24049000Y-9687000I-50000J0D01*
G01*
X24049000Y-9687000D02*
G75*
G02*
X24149000Y-9687000I50000J0D01*
G01*
X24149000Y-11211000D02*
G75*
G02*
X24049000Y-11211000I-50000J0D01*
G01*
X24049000Y-11211000D02*
G75*
G02*
X24149000Y-11211000I50000J0D01*
G01*
X24305000Y-8631000D02*
G75*
G02*
X24205000Y-8631000I-50000J0D01*
G01*
X24205000Y-8631000D02*
G75*
G02*
X24305000Y-8631000I50000J0D01*
G01*
X24305000Y-8885000D02*
G75*
G02*
X24205000Y-8885000I-50000J0D01*
G01*
X24205000Y-8885000D02*
G75*
G02*
X24305000Y-8885000I50000J0D01*
G01*
X24403000Y-9687000D02*
G75*
G02*
X24303000Y-9687000I-50000J0D01*
G01*
X24303000Y-9687000D02*
G75*
G02*
X24403000Y-9687000I50000J0D01*
G01*
X24403000Y-11211000D02*
G75*
G02*
X24303000Y-11211000I-50000J0D01*
G01*
X24303000Y-11211000D02*
G75*
G02*
X24403000Y-11211000I50000J0D01*
G01*
X24559000Y-8631000D02*
G75*
G02*
X24459000Y-8631000I-50000J0D01*
G01*
X24459000Y-8631000D02*
G75*
G02*
X24559000Y-8631000I50000J0D01*
G01*
X24559000Y-8885000D02*
G75*
G02*
X24459000Y-8885000I-50000J0D01*
G01*
X24459000Y-8885000D02*
G75*
G02*
X24559000Y-8885000I50000J0D01*
G01*
X24657000Y-9687000D02*
G75*
G02*
X24557000Y-9687000I-50000J0D01*
G01*
X24557000Y-9687000D02*
G75*
G02*
X24657000Y-9687000I50000J0D01*
G01*
X24657000Y-11211000D02*
G75*
G02*
X24557000Y-11211000I-50000J0D01*
G01*
X24557000Y-11211000D02*
G75*
G02*
X24657000Y-11211000I50000J0D01*
G01*
X24813000Y-8631000D02*
G75*
G02*
X24713000Y-8631000I-50000J0D01*
G01*
X24713000Y-8631000D02*
G75*
G02*
X24813000Y-8631000I50000J0D01*
G01*
X24813000Y-8885000D02*
G75*
G02*
X24713000Y-8885000I-50000J0D01*
G01*
X24713000Y-8885000D02*
G75*
G02*
X24813000Y-8885000I50000J0D01*
G01*
X24911000Y-9687000D02*
G75*
G02*
X24811000Y-9687000I-50000J0D01*
G01*
X24811000Y-9687000D02*
G75*
G02*
X24911000Y-9687000I50000J0D01*
G01*
X24911000Y-11211000D02*
G75*
G02*
X24811000Y-11211000I-50000J0D01*
G01*
X24811000Y-11211000D02*
G75*
G02*
X24911000Y-11211000I50000J0D01*
G01*
X25067000Y-8631000D02*
G75*
G02*
X24967000Y-8631000I-50000J0D01*
G01*
X24967000Y-8631000D02*
G75*
G02*
X25067000Y-8631000I50000J0D01*
G01*
X25067000Y-8885000D02*
G75*
G02*
X24967000Y-8885000I-50000J0D01*
G01*
X24967000Y-8885000D02*
G75*
G02*
X25067000Y-8885000I50000J0D01*
G01*
X25165000Y-9687000D02*
G75*
G02*
X25065000Y-9687000I-50000J0D01*
G01*
X25065000Y-9687000D02*
G75*
G02*
X25165000Y-9687000I50000J0D01*
G01*
X25165000Y-11211000D02*
G75*
G02*
X25065000Y-11211000I-50000J0D01*
G01*
X25065000Y-11211000D02*
G75*
G02*
X25165000Y-11211000I50000J0D01*
G01*
X25292000Y-10068000D02*
G75*
G02*
X25192000Y-10068000I-50000J0D01*
G01*
X25192000Y-10068000D02*
G75*
G02*
X25292000Y-10068000I50000J0D01*
G01*
X25292000Y-10322000D02*
G75*
G02*
X25192000Y-10322000I-50000J0D01*
G01*
X25192000Y-10322000D02*
G75*
G02*
X25292000Y-10322000I50000J0D01*
G01*
X25292000Y-10576000D02*
G75*
G02*
X25192000Y-10576000I-50000J0D01*
G01*
X25192000Y-10576000D02*
G75*
G02*
X25292000Y-10576000I50000J0D01*
G01*
X25292000Y-10830000D02*
G75*
G02*
X25192000Y-10830000I-50000J0D01*
G01*
X25192000Y-10830000D02*
G75*
G02*
X25292000Y-10830000I50000J0D01*
G01*
X25321000Y-8631000D02*
G75*
G02*
X25221000Y-8631000I-50000J0D01*
G01*
X25221000Y-8631000D02*
G75*
G02*
X25321000Y-8631000I50000J0D01*
G01*
X25321000Y-8885000D02*
G75*
G02*
X25221000Y-8885000I-50000J0D01*
G01*
X25221000Y-8885000D02*
G75*
G02*
X25321000Y-8885000I50000J0D01*
G01*
X25419000Y-9687000D02*
G75*
G02*
X25319000Y-9687000I-50000J0D01*
G01*
X25319000Y-9687000D02*
G75*
G02*
X25419000Y-9687000I50000J0D01*
G01*
X25419000Y-11211000D02*
G75*
G02*
X25319000Y-11211000I-50000J0D01*
G01*
X25319000Y-11211000D02*
G75*
G02*
X25419000Y-11211000I50000J0D01*
G01*
X25575000Y-8631000D02*
G75*
G02*
X25475000Y-8631000I-50000J0D01*
G01*
X25475000Y-8631000D02*
G75*
G02*
X25575000Y-8631000I50000J0D01*
G01*
X25575000Y-8885000D02*
G75*
G02*
X25475000Y-8885000I-50000J0D01*
G01*
X25475000Y-8885000D02*
G75*
G02*
X25575000Y-8885000I50000J0D01*
G01*
X25673000Y-9687000D02*
G75*
G02*
X25573000Y-9687000I-50000J0D01*
G01*
X25573000Y-9687000D02*
G75*
G02*
X25673000Y-9687000I50000J0D01*
G01*
X25673000Y-11211000D02*
G75*
G02*
X25573000Y-11211000I-50000J0D01*
G01*
X25573000Y-11211000D02*
G75*
G02*
X25673000Y-11211000I50000J0D01*
G01*
D11*
X19773277Y-12234984D02*
X19773277Y-12034984D01*
X19773277Y-12034984D02*
X19820896Y-12034984D01*
X19820896Y-12034984D02*
X19849467Y-12044508D01*
X19849467Y-12044508D02*
X19868515Y-12063555D01*
X19868515Y-12063555D02*
X19878039Y-12082603D01*
X19878039Y-12082603D02*
X19887563Y-12120698D01*
X19887563Y-12120698D02*
X19887563Y-12149269D01*
X19887563Y-12149269D02*
X19878039Y-12187365D01*
X19878039Y-12187365D02*
X19868515Y-12206412D01*
X19868515Y-12206412D02*
X19849467Y-12225460D01*
X19849467Y-12225460D02*
X19820896Y-12234984D01*
X19820896Y-12234984D02*
X19773277Y-12234984D01*
X19973277Y-12234984D02*
X19973277Y-12101650D01*
X19973277Y-12139746D02*
X19982801Y-12120698D01*
X19982801Y-12120698D02*
X19992324Y-12111174D01*
X19992324Y-12111174D02*
X20011372Y-12101650D01*
X20011372Y-12101650D02*
X20030420Y-12101650D01*
X20097086Y-12234984D02*
X20097086Y-12101650D01*
X20097086Y-12034984D02*
X20087563Y-12044508D01*
X20087563Y-12044508D02*
X20097086Y-12054031D01*
X20097086Y-12054031D02*
X20106610Y-12044508D01*
X20106610Y-12044508D02*
X20097086Y-12034984D01*
X20097086Y-12034984D02*
X20097086Y-12054031D01*
X20220896Y-12234984D02*
X20201848Y-12225460D01*
X20201848Y-12225460D02*
X20192324Y-12206412D01*
X20192324Y-12206412D02*
X20192324Y-12034984D01*
X20325658Y-12234984D02*
X20306610Y-12225460D01*
X20306610Y-12225460D02*
X20297086Y-12206412D01*
X20297086Y-12206412D02*
X20297086Y-12034984D01*
X20554229Y-12234984D02*
X20554229Y-12034984D01*
X20554229Y-12034984D02*
X20620896Y-12177841D01*
X20620896Y-12177841D02*
X20687563Y-12034984D01*
X20687563Y-12034984D02*
X20687563Y-12234984D01*
X20868515Y-12234984D02*
X20868515Y-12130222D01*
X20868515Y-12130222D02*
X20858991Y-12111174D01*
X20858991Y-12111174D02*
X20839944Y-12101650D01*
X20839944Y-12101650D02*
X20801848Y-12101650D01*
X20801848Y-12101650D02*
X20782801Y-12111174D01*
X20868515Y-12225460D02*
X20849467Y-12234984D01*
X20849467Y-12234984D02*
X20801848Y-12234984D01*
X20801848Y-12234984D02*
X20782801Y-12225460D01*
X20782801Y-12225460D02*
X20773277Y-12206412D01*
X20773277Y-12206412D02*
X20773277Y-12187365D01*
X20773277Y-12187365D02*
X20782801Y-12168317D01*
X20782801Y-12168317D02*
X20801848Y-12158793D01*
X20801848Y-12158793D02*
X20849467Y-12158793D01*
X20849467Y-12158793D02*
X20868515Y-12149269D01*
X20963753Y-12101650D02*
X20963753Y-12301650D01*
X20963753Y-12111174D02*
X20982801Y-12101650D01*
X20982801Y-12101650D02*
X21020896Y-12101650D01*
X21020896Y-12101650D02*
X21039944Y-12111174D01*
X21039944Y-12111174D02*
X21049467Y-12120698D01*
X21049467Y-12120698D02*
X21058991Y-12139746D01*
X21058991Y-12139746D02*
X21058991Y-12196888D01*
X21058991Y-12196888D02*
X21049467Y-12215936D01*
X21049467Y-12215936D02*
X21039944Y-12225460D01*
X21039944Y-12225460D02*
X21020896Y-12234984D01*
X21020896Y-12234984D02*
X20982801Y-12234984D01*
X20982801Y-12234984D02*
X20963753Y-12225460D01*
X21144705Y-12215936D02*
X21154229Y-12225460D01*
X21154229Y-12225460D02*
X21144705Y-12234984D01*
X21144705Y-12234984D02*
X21135182Y-12225460D01*
X21135182Y-12225460D02*
X21144705Y-12215936D01*
X21144705Y-12215936D02*
X21144705Y-12234984D01*
X21144705Y-12111174D02*
X21154229Y-12120698D01*
X21154229Y-12120698D02*
X21144705Y-12130222D01*
X21144705Y-12130222D02*
X21135182Y-12120698D01*
X21135182Y-12120698D02*
X21144705Y-12111174D01*
X21144705Y-12111174D02*
X21144705Y-12130222D01*
D12*
X19482500Y-12548500D02*
X19512500Y-12578500D01*
X19512500Y-12548500D02*
X19482500Y-12578500D01*
D11*
X19811372Y-12454984D02*
X19830420Y-12454984D01*
X19830420Y-12454984D02*
X19849467Y-12464508D01*
X19849467Y-12464508D02*
X19858991Y-12474031D01*
X19858991Y-12474031D02*
X19868515Y-12493079D01*
X19868515Y-12493079D02*
X19878039Y-12531174D01*
X19878039Y-12531174D02*
X19878039Y-12578793D01*
X19878039Y-12578793D02*
X19868515Y-12616888D01*
X19868515Y-12616888D02*
X19858991Y-12635936D01*
X19858991Y-12635936D02*
X19849467Y-12645460D01*
X19849467Y-12645460D02*
X19830420Y-12654984D01*
X19830420Y-12654984D02*
X19811372Y-12654984D01*
X19811372Y-12654984D02*
X19792324Y-12645460D01*
X19792324Y-12645460D02*
X19782801Y-12635936D01*
X19782801Y-12635936D02*
X19773277Y-12616888D01*
X19773277Y-12616888D02*
X19763753Y-12578793D01*
X19763753Y-12578793D02*
X19763753Y-12531174D01*
X19763753Y-12531174D02*
X19773277Y-12493079D01*
X19773277Y-12493079D02*
X19782801Y-12474031D01*
X19782801Y-12474031D02*
X19792324Y-12464508D01*
X19792324Y-12464508D02*
X19811372Y-12454984D01*
X19963753Y-12635936D02*
X19973277Y-12645460D01*
X19973277Y-12645460D02*
X19963753Y-12654984D01*
X19963753Y-12654984D02*
X19954229Y-12645460D01*
X19954229Y-12645460D02*
X19963753Y-12635936D01*
X19963753Y-12635936D02*
X19963753Y-12654984D01*
X20039944Y-12454984D02*
X20163753Y-12454984D01*
X20163753Y-12454984D02*
X20097086Y-12531174D01*
X20097086Y-12531174D02*
X20125658Y-12531174D01*
X20125658Y-12531174D02*
X20144705Y-12540698D01*
X20144705Y-12540698D02*
X20154229Y-12550222D01*
X20154229Y-12550222D02*
X20163753Y-12569269D01*
X20163753Y-12569269D02*
X20163753Y-12616888D01*
X20163753Y-12616888D02*
X20154229Y-12635936D01*
X20154229Y-12635936D02*
X20144705Y-12645460D01*
X20144705Y-12645460D02*
X20125658Y-12654984D01*
X20125658Y-12654984D02*
X20068515Y-12654984D01*
X20068515Y-12654984D02*
X20049467Y-12645460D01*
X20049467Y-12645460D02*
X20039944Y-12635936D01*
X20287563Y-12454984D02*
X20306610Y-12454984D01*
X20306610Y-12454984D02*
X20325658Y-12464508D01*
X20325658Y-12464508D02*
X20335182Y-12474031D01*
X20335182Y-12474031D02*
X20344705Y-12493079D01*
X20344705Y-12493079D02*
X20354229Y-12531174D01*
X20354229Y-12531174D02*
X20354229Y-12578793D01*
X20354229Y-12578793D02*
X20344705Y-12616888D01*
X20344705Y-12616888D02*
X20335182Y-12635936D01*
X20335182Y-12635936D02*
X20325658Y-12645460D01*
X20325658Y-12645460D02*
X20306610Y-12654984D01*
X20306610Y-12654984D02*
X20287563Y-12654984D01*
X20287563Y-12654984D02*
X20268515Y-12645460D01*
X20268515Y-12645460D02*
X20258991Y-12635936D01*
X20258991Y-12635936D02*
X20249467Y-12616888D01*
X20249467Y-12616888D02*
X20239944Y-12578793D01*
X20239944Y-12578793D02*
X20239944Y-12531174D01*
X20239944Y-12531174D02*
X20249467Y-12493079D01*
X20249467Y-12493079D02*
X20258991Y-12474031D01*
X20258991Y-12474031D02*
X20268515Y-12464508D01*
X20268515Y-12464508D02*
X20287563Y-12454984D01*
X20478039Y-12454984D02*
X20497086Y-12454984D01*
X20497086Y-12454984D02*
X20516134Y-12464508D01*
X20516134Y-12464508D02*
X20525658Y-12474031D01*
X20525658Y-12474031D02*
X20535182Y-12493079D01*
X20535182Y-12493079D02*
X20544705Y-12531174D01*
X20544705Y-12531174D02*
X20544705Y-12578793D01*
X20544705Y-12578793D02*
X20535182Y-12616888D01*
X20535182Y-12616888D02*
X20525658Y-12635936D01*
X20525658Y-12635936D02*
X20516134Y-12645460D01*
X20516134Y-12645460D02*
X20497086Y-12654984D01*
X20497086Y-12654984D02*
X20478039Y-12654984D01*
X20478039Y-12654984D02*
X20458991Y-12645460D01*
X20458991Y-12645460D02*
X20449467Y-12635936D01*
X20449467Y-12635936D02*
X20439944Y-12616888D01*
X20439944Y-12616888D02*
X20430420Y-12578793D01*
X20430420Y-12578793D02*
X20430420Y-12531174D01*
X20430420Y-12531174D02*
X20439944Y-12493079D01*
X20439944Y-12493079D02*
X20449467Y-12474031D01*
X20449467Y-12474031D02*
X20458991Y-12464508D01*
X20458991Y-12464508D02*
X20478039Y-12454984D01*
X20630420Y-12654984D02*
X20630420Y-12521650D01*
X20630420Y-12540698D02*
X20639944Y-12531174D01*
X20639944Y-12531174D02*
X20658991Y-12521650D01*
X20658991Y-12521650D02*
X20687563Y-12521650D01*
X20687563Y-12521650D02*
X20706610Y-12531174D01*
X20706610Y-12531174D02*
X20716134Y-12550222D01*
X20716134Y-12550222D02*
X20716134Y-12654984D01*
X20716134Y-12550222D02*
X20725658Y-12531174D01*
X20725658Y-12531174D02*
X20744705Y-12521650D01*
X20744705Y-12521650D02*
X20773277Y-12521650D01*
X20773277Y-12521650D02*
X20792325Y-12531174D01*
X20792325Y-12531174D02*
X20801848Y-12550222D01*
X20801848Y-12550222D02*
X20801848Y-12654984D01*
X20897086Y-12654984D02*
X20897086Y-12521650D01*
X20897086Y-12540698D02*
X20906610Y-12531174D01*
X20906610Y-12531174D02*
X20925658Y-12521650D01*
X20925658Y-12521650D02*
X20954229Y-12521650D01*
X20954229Y-12521650D02*
X20973277Y-12531174D01*
X20973277Y-12531174D02*
X20982801Y-12550222D01*
X20982801Y-12550222D02*
X20982801Y-12654984D01*
X20982801Y-12550222D02*
X20992325Y-12531174D01*
X20992325Y-12531174D02*
X21011372Y-12521650D01*
X21011372Y-12521650D02*
X21039944Y-12521650D01*
X21039944Y-12521650D02*
X21058991Y-12531174D01*
X21058991Y-12531174D02*
X21068515Y-12550222D01*
X21068515Y-12550222D02*
X21068515Y-12654984D01*
X21458991Y-12445460D02*
X21287563Y-12702603D01*
X21716134Y-12454984D02*
X21735182Y-12454984D01*
X21735182Y-12454984D02*
X21754229Y-12464508D01*
X21754229Y-12464508D02*
X21763753Y-12474031D01*
X21763753Y-12474031D02*
X21773277Y-12493079D01*
X21773277Y-12493079D02*
X21782801Y-12531174D01*
X21782801Y-12531174D02*
X21782801Y-12578793D01*
X21782801Y-12578793D02*
X21773277Y-12616888D01*
X21773277Y-12616888D02*
X21763753Y-12635936D01*
X21763753Y-12635936D02*
X21754229Y-12645460D01*
X21754229Y-12645460D02*
X21735182Y-12654984D01*
X21735182Y-12654984D02*
X21716134Y-12654984D01*
X21716134Y-12654984D02*
X21697087Y-12645460D01*
X21697087Y-12645460D02*
X21687563Y-12635936D01*
X21687563Y-12635936D02*
X21678039Y-12616888D01*
X21678039Y-12616888D02*
X21668515Y-12578793D01*
X21668515Y-12578793D02*
X21668515Y-12531174D01*
X21668515Y-12531174D02*
X21678039Y-12493079D01*
X21678039Y-12493079D02*
X21687563Y-12474031D01*
X21687563Y-12474031D02*
X21697087Y-12464508D01*
X21697087Y-12464508D02*
X21716134Y-12454984D01*
X21868515Y-12635936D02*
X21878039Y-12645460D01*
X21878039Y-12645460D02*
X21868515Y-12654984D01*
X21868515Y-12654984D02*
X21858991Y-12645460D01*
X21858991Y-12645460D02*
X21868515Y-12635936D01*
X21868515Y-12635936D02*
X21868515Y-12654984D01*
X22001848Y-12454984D02*
X22020896Y-12454984D01*
X22020896Y-12454984D02*
X22039944Y-12464508D01*
X22039944Y-12464508D02*
X22049468Y-12474031D01*
X22049468Y-12474031D02*
X22058991Y-12493079D01*
X22058991Y-12493079D02*
X22068515Y-12531174D01*
X22068515Y-12531174D02*
X22068515Y-12578793D01*
X22068515Y-12578793D02*
X22058991Y-12616888D01*
X22058991Y-12616888D02*
X22049468Y-12635936D01*
X22049468Y-12635936D02*
X22039944Y-12645460D01*
X22039944Y-12645460D02*
X22020896Y-12654984D01*
X22020896Y-12654984D02*
X22001848Y-12654984D01*
X22001848Y-12654984D02*
X21982801Y-12645460D01*
X21982801Y-12645460D02*
X21973277Y-12635936D01*
X21973277Y-12635936D02*
X21963753Y-12616888D01*
X21963753Y-12616888D02*
X21954229Y-12578793D01*
X21954229Y-12578793D02*
X21954229Y-12531174D01*
X21954229Y-12531174D02*
X21963753Y-12493079D01*
X21963753Y-12493079D02*
X21973277Y-12474031D01*
X21973277Y-12474031D02*
X21982801Y-12464508D01*
X21982801Y-12464508D02*
X22001848Y-12454984D01*
X22258991Y-12654984D02*
X22144706Y-12654984D01*
X22201848Y-12654984D02*
X22201848Y-12454984D01*
X22201848Y-12454984D02*
X22182801Y-12483555D01*
X22182801Y-12483555D02*
X22163753Y-12502603D01*
X22163753Y-12502603D02*
X22144706Y-12512127D01*
X22449467Y-12654984D02*
X22335182Y-12654984D01*
X22392325Y-12654984D02*
X22392325Y-12454984D01*
X22392325Y-12454984D02*
X22373277Y-12483555D01*
X22373277Y-12483555D02*
X22354229Y-12502603D01*
X22354229Y-12502603D02*
X22335182Y-12512127D01*
X22563753Y-12540698D02*
X22544706Y-12531174D01*
X22544706Y-12531174D02*
X22535182Y-12521650D01*
X22535182Y-12521650D02*
X22525658Y-12502603D01*
X22525658Y-12502603D02*
X22525658Y-12493079D01*
X22525658Y-12493079D02*
X22535182Y-12474031D01*
X22535182Y-12474031D02*
X22544706Y-12464508D01*
X22544706Y-12464508D02*
X22563753Y-12454984D01*
X22563753Y-12454984D02*
X22601848Y-12454984D01*
X22601848Y-12454984D02*
X22620896Y-12464508D01*
X22620896Y-12464508D02*
X22630420Y-12474031D01*
X22630420Y-12474031D02*
X22639944Y-12493079D01*
X22639944Y-12493079D02*
X22639944Y-12502603D01*
X22639944Y-12502603D02*
X22630420Y-12521650D01*
X22630420Y-12521650D02*
X22620896Y-12531174D01*
X22620896Y-12531174D02*
X22601848Y-12540698D01*
X22601848Y-12540698D02*
X22563753Y-12540698D01*
X22563753Y-12540698D02*
X22544706Y-12550222D01*
X22544706Y-12550222D02*
X22535182Y-12559746D01*
X22535182Y-12559746D02*
X22525658Y-12578793D01*
X22525658Y-12578793D02*
X22525658Y-12616888D01*
X22525658Y-12616888D02*
X22535182Y-12635936D01*
X22535182Y-12635936D02*
X22544706Y-12645460D01*
X22544706Y-12645460D02*
X22563753Y-12654984D01*
X22563753Y-12654984D02*
X22601848Y-12654984D01*
X22601848Y-12654984D02*
X22620896Y-12645460D01*
X22620896Y-12645460D02*
X22630420Y-12635936D01*
X22630420Y-12635936D02*
X22639944Y-12616888D01*
X22639944Y-12616888D02*
X22639944Y-12578793D01*
X22639944Y-12578793D02*
X22630420Y-12559746D01*
X22630420Y-12559746D02*
X22620896Y-12550222D01*
X22620896Y-12550222D02*
X22601848Y-12540698D01*
X22716134Y-12454984D02*
X22716134Y-12493079D01*
X22792325Y-12454984D02*
X22792325Y-12493079D01*
X23087563Y-12731174D02*
X23078039Y-12721650D01*
X23078039Y-12721650D02*
X23058991Y-12693079D01*
X23058991Y-12693079D02*
X23049468Y-12674031D01*
X23049468Y-12674031D02*
X23039944Y-12645460D01*
X23039944Y-12645460D02*
X23030420Y-12597841D01*
X23030420Y-12597841D02*
X23030420Y-12559746D01*
X23030420Y-12559746D02*
X23039944Y-12512127D01*
X23039944Y-12512127D02*
X23049468Y-12483555D01*
X23049468Y-12483555D02*
X23058991Y-12464508D01*
X23058991Y-12464508D02*
X23078039Y-12435936D01*
X23078039Y-12435936D02*
X23087563Y-12426412D01*
X23249468Y-12454984D02*
X23211372Y-12454984D01*
X23211372Y-12454984D02*
X23192325Y-12464508D01*
X23192325Y-12464508D02*
X23182801Y-12474031D01*
X23182801Y-12474031D02*
X23163753Y-12502603D01*
X23163753Y-12502603D02*
X23154229Y-12540698D01*
X23154229Y-12540698D02*
X23154229Y-12616888D01*
X23154229Y-12616888D02*
X23163753Y-12635936D01*
X23163753Y-12635936D02*
X23173277Y-12645460D01*
X23173277Y-12645460D02*
X23192325Y-12654984D01*
X23192325Y-12654984D02*
X23230420Y-12654984D01*
X23230420Y-12654984D02*
X23249468Y-12645460D01*
X23249468Y-12645460D02*
X23258991Y-12635936D01*
X23258991Y-12635936D02*
X23268515Y-12616888D01*
X23268515Y-12616888D02*
X23268515Y-12569269D01*
X23268515Y-12569269D02*
X23258991Y-12550222D01*
X23258991Y-12550222D02*
X23249468Y-12540698D01*
X23249468Y-12540698D02*
X23230420Y-12531174D01*
X23230420Y-12531174D02*
X23192325Y-12531174D01*
X23192325Y-12531174D02*
X23173277Y-12540698D01*
X23173277Y-12540698D02*
X23163753Y-12550222D01*
X23163753Y-12550222D02*
X23154229Y-12569269D01*
X23439944Y-12454984D02*
X23401848Y-12454984D01*
X23401848Y-12454984D02*
X23382801Y-12464508D01*
X23382801Y-12464508D02*
X23373277Y-12474031D01*
X23373277Y-12474031D02*
X23354229Y-12502603D01*
X23354229Y-12502603D02*
X23344706Y-12540698D01*
X23344706Y-12540698D02*
X23344706Y-12616888D01*
X23344706Y-12616888D02*
X23354229Y-12635936D01*
X23354229Y-12635936D02*
X23363753Y-12645460D01*
X23363753Y-12645460D02*
X23382801Y-12654984D01*
X23382801Y-12654984D02*
X23420896Y-12654984D01*
X23420896Y-12654984D02*
X23439944Y-12645460D01*
X23439944Y-12645460D02*
X23449468Y-12635936D01*
X23449468Y-12635936D02*
X23458991Y-12616888D01*
X23458991Y-12616888D02*
X23458991Y-12569269D01*
X23458991Y-12569269D02*
X23449468Y-12550222D01*
X23449468Y-12550222D02*
X23439944Y-12540698D01*
X23439944Y-12540698D02*
X23420896Y-12531174D01*
X23420896Y-12531174D02*
X23382801Y-12531174D01*
X23382801Y-12531174D02*
X23363753Y-12540698D01*
X23363753Y-12540698D02*
X23354229Y-12550222D01*
X23354229Y-12550222D02*
X23344706Y-12569269D01*
X23697087Y-12654984D02*
X23697087Y-12454984D01*
X23782801Y-12654984D02*
X23782801Y-12550222D01*
X23782801Y-12550222D02*
X23773277Y-12531174D01*
X23773277Y-12531174D02*
X23754230Y-12521650D01*
X23754230Y-12521650D02*
X23725658Y-12521650D01*
X23725658Y-12521650D02*
X23706610Y-12531174D01*
X23706610Y-12531174D02*
X23697087Y-12540698D01*
X23906610Y-12654984D02*
X23887563Y-12645460D01*
X23887563Y-12645460D02*
X23878039Y-12635936D01*
X23878039Y-12635936D02*
X23868515Y-12616888D01*
X23868515Y-12616888D02*
X23868515Y-12559746D01*
X23868515Y-12559746D02*
X23878039Y-12540698D01*
X23878039Y-12540698D02*
X23887563Y-12531174D01*
X23887563Y-12531174D02*
X23906610Y-12521650D01*
X23906610Y-12521650D02*
X23935182Y-12521650D01*
X23935182Y-12521650D02*
X23954230Y-12531174D01*
X23954230Y-12531174D02*
X23963753Y-12540698D01*
X23963753Y-12540698D02*
X23973277Y-12559746D01*
X23973277Y-12559746D02*
X23973277Y-12616888D01*
X23973277Y-12616888D02*
X23963753Y-12635936D01*
X23963753Y-12635936D02*
X23954230Y-12645460D01*
X23954230Y-12645460D02*
X23935182Y-12654984D01*
X23935182Y-12654984D02*
X23906610Y-12654984D01*
X24087563Y-12654984D02*
X24068515Y-12645460D01*
X24068515Y-12645460D02*
X24058991Y-12626412D01*
X24058991Y-12626412D02*
X24058991Y-12454984D01*
X24239944Y-12645460D02*
X24220896Y-12654984D01*
X24220896Y-12654984D02*
X24182801Y-12654984D01*
X24182801Y-12654984D02*
X24163753Y-12645460D01*
X24163753Y-12645460D02*
X24154230Y-12626412D01*
X24154230Y-12626412D02*
X24154230Y-12550222D01*
X24154230Y-12550222D02*
X24163753Y-12531174D01*
X24163753Y-12531174D02*
X24182801Y-12521650D01*
X24182801Y-12521650D02*
X24220896Y-12521650D01*
X24220896Y-12521650D02*
X24239944Y-12531174D01*
X24239944Y-12531174D02*
X24249468Y-12550222D01*
X24249468Y-12550222D02*
X24249468Y-12569269D01*
X24249468Y-12569269D02*
X24154230Y-12588317D01*
X24325658Y-12645460D02*
X24344706Y-12654984D01*
X24344706Y-12654984D02*
X24382801Y-12654984D01*
X24382801Y-12654984D02*
X24401849Y-12645460D01*
X24401849Y-12645460D02*
X24411372Y-12626412D01*
X24411372Y-12626412D02*
X24411372Y-12616888D01*
X24411372Y-12616888D02*
X24401849Y-12597841D01*
X24401849Y-12597841D02*
X24382801Y-12588317D01*
X24382801Y-12588317D02*
X24354230Y-12588317D01*
X24354230Y-12588317D02*
X24335182Y-12578793D01*
X24335182Y-12578793D02*
X24325658Y-12559746D01*
X24325658Y-12559746D02*
X24325658Y-12550222D01*
X24325658Y-12550222D02*
X24335182Y-12531174D01*
X24335182Y-12531174D02*
X24354230Y-12521650D01*
X24354230Y-12521650D02*
X24382801Y-12521650D01*
X24382801Y-12521650D02*
X24401849Y-12531174D01*
X24478039Y-12731174D02*
X24487563Y-12721650D01*
X24487563Y-12721650D02*
X24506611Y-12693079D01*
X24506611Y-12693079D02*
X24516134Y-12674031D01*
X24516134Y-12674031D02*
X24525658Y-12645460D01*
X24525658Y-12645460D02*
X24535182Y-12597841D01*
X24535182Y-12597841D02*
X24535182Y-12559746D01*
X24535182Y-12559746D02*
X24525658Y-12512127D01*
X24525658Y-12512127D02*
X24516134Y-12483555D01*
X24516134Y-12483555D02*
X24506611Y-12464508D01*
X24506611Y-12464508D02*
X24487563Y-12435936D01*
X24487563Y-12435936D02*
X24478039Y-12426412D01*
D12*
X19512500Y-12827500D02*
G75*
G02*
X19412500Y-12827500I-50000J0D01*
G01*
X19412500Y-12827500D02*
G75*
G02*
X19512500Y-12827500I50000J0D01*
G01*
D11*
X19878039Y-12918984D02*
X19763753Y-12918984D01*
X19820896Y-12918984D02*
X19820896Y-12718984D01*
X19820896Y-12718984D02*
X19801848Y-12747555D01*
X19801848Y-12747555D02*
X19782801Y-12766603D01*
X19782801Y-12766603D02*
X19763753Y-12776127D01*
X19963753Y-12899936D02*
X19973277Y-12909460D01*
X19973277Y-12909460D02*
X19963753Y-12918984D01*
X19963753Y-12918984D02*
X19954229Y-12909460D01*
X19954229Y-12909460D02*
X19963753Y-12899936D01*
X19963753Y-12899936D02*
X19963753Y-12918984D01*
X20097086Y-12718984D02*
X20116134Y-12718984D01*
X20116134Y-12718984D02*
X20135182Y-12728508D01*
X20135182Y-12728508D02*
X20144705Y-12738031D01*
X20144705Y-12738031D02*
X20154229Y-12757079D01*
X20154229Y-12757079D02*
X20163753Y-12795174D01*
X20163753Y-12795174D02*
X20163753Y-12842793D01*
X20163753Y-12842793D02*
X20154229Y-12880888D01*
X20154229Y-12880888D02*
X20144705Y-12899936D01*
X20144705Y-12899936D02*
X20135182Y-12909460D01*
X20135182Y-12909460D02*
X20116134Y-12918984D01*
X20116134Y-12918984D02*
X20097086Y-12918984D01*
X20097086Y-12918984D02*
X20078039Y-12909460D01*
X20078039Y-12909460D02*
X20068515Y-12899936D01*
X20068515Y-12899936D02*
X20058991Y-12880888D01*
X20058991Y-12880888D02*
X20049467Y-12842793D01*
X20049467Y-12842793D02*
X20049467Y-12795174D01*
X20049467Y-12795174D02*
X20058991Y-12757079D01*
X20058991Y-12757079D02*
X20068515Y-12738031D01*
X20068515Y-12738031D02*
X20078039Y-12728508D01*
X20078039Y-12728508D02*
X20097086Y-12718984D01*
X20287563Y-12718984D02*
X20306610Y-12718984D01*
X20306610Y-12718984D02*
X20325658Y-12728508D01*
X20325658Y-12728508D02*
X20335182Y-12738031D01*
X20335182Y-12738031D02*
X20344705Y-12757079D01*
X20344705Y-12757079D02*
X20354229Y-12795174D01*
X20354229Y-12795174D02*
X20354229Y-12842793D01*
X20354229Y-12842793D02*
X20344705Y-12880888D01*
X20344705Y-12880888D02*
X20335182Y-12899936D01*
X20335182Y-12899936D02*
X20325658Y-12909460D01*
X20325658Y-12909460D02*
X20306610Y-12918984D01*
X20306610Y-12918984D02*
X20287563Y-12918984D01*
X20287563Y-12918984D02*
X20268515Y-12909460D01*
X20268515Y-12909460D02*
X20258991Y-12899936D01*
X20258991Y-12899936D02*
X20249467Y-12880888D01*
X20249467Y-12880888D02*
X20239944Y-12842793D01*
X20239944Y-12842793D02*
X20239944Y-12795174D01*
X20239944Y-12795174D02*
X20249467Y-12757079D01*
X20249467Y-12757079D02*
X20258991Y-12738031D01*
X20258991Y-12738031D02*
X20268515Y-12728508D01*
X20268515Y-12728508D02*
X20287563Y-12718984D01*
X20478039Y-12718984D02*
X20497086Y-12718984D01*
X20497086Y-12718984D02*
X20516134Y-12728508D01*
X20516134Y-12728508D02*
X20525658Y-12738031D01*
X20525658Y-12738031D02*
X20535182Y-12757079D01*
X20535182Y-12757079D02*
X20544705Y-12795174D01*
X20544705Y-12795174D02*
X20544705Y-12842793D01*
X20544705Y-12842793D02*
X20535182Y-12880888D01*
X20535182Y-12880888D02*
X20525658Y-12899936D01*
X20525658Y-12899936D02*
X20516134Y-12909460D01*
X20516134Y-12909460D02*
X20497086Y-12918984D01*
X20497086Y-12918984D02*
X20478039Y-12918984D01*
X20478039Y-12918984D02*
X20458991Y-12909460D01*
X20458991Y-12909460D02*
X20449467Y-12899936D01*
X20449467Y-12899936D02*
X20439944Y-12880888D01*
X20439944Y-12880888D02*
X20430420Y-12842793D01*
X20430420Y-12842793D02*
X20430420Y-12795174D01*
X20430420Y-12795174D02*
X20439944Y-12757079D01*
X20439944Y-12757079D02*
X20449467Y-12738031D01*
X20449467Y-12738031D02*
X20458991Y-12728508D01*
X20458991Y-12728508D02*
X20478039Y-12718984D01*
X20630420Y-12918984D02*
X20630420Y-12785650D01*
X20630420Y-12804698D02*
X20639944Y-12795174D01*
X20639944Y-12795174D02*
X20658991Y-12785650D01*
X20658991Y-12785650D02*
X20687563Y-12785650D01*
X20687563Y-12785650D02*
X20706610Y-12795174D01*
X20706610Y-12795174D02*
X20716134Y-12814222D01*
X20716134Y-12814222D02*
X20716134Y-12918984D01*
X20716134Y-12814222D02*
X20725658Y-12795174D01*
X20725658Y-12795174D02*
X20744705Y-12785650D01*
X20744705Y-12785650D02*
X20773277Y-12785650D01*
X20773277Y-12785650D02*
X20792325Y-12795174D01*
X20792325Y-12795174D02*
X20801848Y-12814222D01*
X20801848Y-12814222D02*
X20801848Y-12918984D01*
X20897086Y-12918984D02*
X20897086Y-12785650D01*
X20897086Y-12804698D02*
X20906610Y-12795174D01*
X20906610Y-12795174D02*
X20925658Y-12785650D01*
X20925658Y-12785650D02*
X20954229Y-12785650D01*
X20954229Y-12785650D02*
X20973277Y-12795174D01*
X20973277Y-12795174D02*
X20982801Y-12814222D01*
X20982801Y-12814222D02*
X20982801Y-12918984D01*
X20982801Y-12814222D02*
X20992325Y-12795174D01*
X20992325Y-12795174D02*
X21011372Y-12785650D01*
X21011372Y-12785650D02*
X21039944Y-12785650D01*
X21039944Y-12785650D02*
X21058991Y-12795174D01*
X21058991Y-12795174D02*
X21068515Y-12814222D01*
X21068515Y-12814222D02*
X21068515Y-12918984D01*
X21458991Y-12709460D02*
X21287563Y-12966603D01*
X21716134Y-12718984D02*
X21735182Y-12718984D01*
X21735182Y-12718984D02*
X21754229Y-12728508D01*
X21754229Y-12728508D02*
X21763753Y-12738031D01*
X21763753Y-12738031D02*
X21773277Y-12757079D01*
X21773277Y-12757079D02*
X21782801Y-12795174D01*
X21782801Y-12795174D02*
X21782801Y-12842793D01*
X21782801Y-12842793D02*
X21773277Y-12880888D01*
X21773277Y-12880888D02*
X21763753Y-12899936D01*
X21763753Y-12899936D02*
X21754229Y-12909460D01*
X21754229Y-12909460D02*
X21735182Y-12918984D01*
X21735182Y-12918984D02*
X21716134Y-12918984D01*
X21716134Y-12918984D02*
X21697087Y-12909460D01*
X21697087Y-12909460D02*
X21687563Y-12899936D01*
X21687563Y-12899936D02*
X21678039Y-12880888D01*
X21678039Y-12880888D02*
X21668515Y-12842793D01*
X21668515Y-12842793D02*
X21668515Y-12795174D01*
X21668515Y-12795174D02*
X21678039Y-12757079D01*
X21678039Y-12757079D02*
X21687563Y-12738031D01*
X21687563Y-12738031D02*
X21697087Y-12728508D01*
X21697087Y-12728508D02*
X21716134Y-12718984D01*
X21868515Y-12899936D02*
X21878039Y-12909460D01*
X21878039Y-12909460D02*
X21868515Y-12918984D01*
X21868515Y-12918984D02*
X21858991Y-12909460D01*
X21858991Y-12909460D02*
X21868515Y-12899936D01*
X21868515Y-12899936D02*
X21868515Y-12918984D01*
X22001848Y-12718984D02*
X22020896Y-12718984D01*
X22020896Y-12718984D02*
X22039944Y-12728508D01*
X22039944Y-12728508D02*
X22049468Y-12738031D01*
X22049468Y-12738031D02*
X22058991Y-12757079D01*
X22058991Y-12757079D02*
X22068515Y-12795174D01*
X22068515Y-12795174D02*
X22068515Y-12842793D01*
X22068515Y-12842793D02*
X22058991Y-12880888D01*
X22058991Y-12880888D02*
X22049468Y-12899936D01*
X22049468Y-12899936D02*
X22039944Y-12909460D01*
X22039944Y-12909460D02*
X22020896Y-12918984D01*
X22020896Y-12918984D02*
X22001848Y-12918984D01*
X22001848Y-12918984D02*
X21982801Y-12909460D01*
X21982801Y-12909460D02*
X21973277Y-12899936D01*
X21973277Y-12899936D02*
X21963753Y-12880888D01*
X21963753Y-12880888D02*
X21954229Y-12842793D01*
X21954229Y-12842793D02*
X21954229Y-12795174D01*
X21954229Y-12795174D02*
X21963753Y-12757079D01*
X21963753Y-12757079D02*
X21973277Y-12738031D01*
X21973277Y-12738031D02*
X21982801Y-12728508D01*
X21982801Y-12728508D02*
X22001848Y-12718984D01*
X22135182Y-12718984D02*
X22258991Y-12718984D01*
X22258991Y-12718984D02*
X22192325Y-12795174D01*
X22192325Y-12795174D02*
X22220896Y-12795174D01*
X22220896Y-12795174D02*
X22239944Y-12804698D01*
X22239944Y-12804698D02*
X22249468Y-12814222D01*
X22249468Y-12814222D02*
X22258991Y-12833269D01*
X22258991Y-12833269D02*
X22258991Y-12880888D01*
X22258991Y-12880888D02*
X22249468Y-12899936D01*
X22249468Y-12899936D02*
X22239944Y-12909460D01*
X22239944Y-12909460D02*
X22220896Y-12918984D01*
X22220896Y-12918984D02*
X22163753Y-12918984D01*
X22163753Y-12918984D02*
X22144706Y-12909460D01*
X22144706Y-12909460D02*
X22135182Y-12899936D01*
X22354229Y-12918984D02*
X22392325Y-12918984D01*
X22392325Y-12918984D02*
X22411372Y-12909460D01*
X22411372Y-12909460D02*
X22420896Y-12899936D01*
X22420896Y-12899936D02*
X22439944Y-12871365D01*
X22439944Y-12871365D02*
X22449467Y-12833269D01*
X22449467Y-12833269D02*
X22449467Y-12757079D01*
X22449467Y-12757079D02*
X22439944Y-12738031D01*
X22439944Y-12738031D02*
X22430420Y-12728508D01*
X22430420Y-12728508D02*
X22411372Y-12718984D01*
X22411372Y-12718984D02*
X22373277Y-12718984D01*
X22373277Y-12718984D02*
X22354229Y-12728508D01*
X22354229Y-12728508D02*
X22344706Y-12738031D01*
X22344706Y-12738031D02*
X22335182Y-12757079D01*
X22335182Y-12757079D02*
X22335182Y-12804698D01*
X22335182Y-12804698D02*
X22344706Y-12823746D01*
X22344706Y-12823746D02*
X22354229Y-12833269D01*
X22354229Y-12833269D02*
X22373277Y-12842793D01*
X22373277Y-12842793D02*
X22411372Y-12842793D01*
X22411372Y-12842793D02*
X22430420Y-12833269D01*
X22430420Y-12833269D02*
X22439944Y-12823746D01*
X22439944Y-12823746D02*
X22449467Y-12804698D01*
X22620896Y-12785650D02*
X22620896Y-12918984D01*
X22573277Y-12709460D02*
X22525658Y-12852317D01*
X22525658Y-12852317D02*
X22649467Y-12852317D01*
X22716134Y-12718984D02*
X22716134Y-12757079D01*
X22792325Y-12718984D02*
X22792325Y-12757079D01*
X23087563Y-12995174D02*
X23078039Y-12985650D01*
X23078039Y-12985650D02*
X23058991Y-12957079D01*
X23058991Y-12957079D02*
X23049468Y-12938031D01*
X23049468Y-12938031D02*
X23039944Y-12909460D01*
X23039944Y-12909460D02*
X23030420Y-12861841D01*
X23030420Y-12861841D02*
X23030420Y-12823746D01*
X23030420Y-12823746D02*
X23039944Y-12776127D01*
X23039944Y-12776127D02*
X23049468Y-12747555D01*
X23049468Y-12747555D02*
X23058991Y-12728508D01*
X23058991Y-12728508D02*
X23078039Y-12699936D01*
X23078039Y-12699936D02*
X23087563Y-12690412D01*
X23144706Y-12718984D02*
X23278039Y-12718984D01*
X23278039Y-12718984D02*
X23192325Y-12918984D01*
X23439944Y-12785650D02*
X23439944Y-12918984D01*
X23392325Y-12709460D02*
X23344706Y-12852317D01*
X23344706Y-12852317D02*
X23468515Y-12852317D01*
X23697087Y-12918984D02*
X23697087Y-12718984D01*
X23782801Y-12918984D02*
X23782801Y-12814222D01*
X23782801Y-12814222D02*
X23773277Y-12795174D01*
X23773277Y-12795174D02*
X23754230Y-12785650D01*
X23754230Y-12785650D02*
X23725658Y-12785650D01*
X23725658Y-12785650D02*
X23706610Y-12795174D01*
X23706610Y-12795174D02*
X23697087Y-12804698D01*
X23906610Y-12918984D02*
X23887563Y-12909460D01*
X23887563Y-12909460D02*
X23878039Y-12899936D01*
X23878039Y-12899936D02*
X23868515Y-12880888D01*
X23868515Y-12880888D02*
X23868515Y-12823746D01*
X23868515Y-12823746D02*
X23878039Y-12804698D01*
X23878039Y-12804698D02*
X23887563Y-12795174D01*
X23887563Y-12795174D02*
X23906610Y-12785650D01*
X23906610Y-12785650D02*
X23935182Y-12785650D01*
X23935182Y-12785650D02*
X23954230Y-12795174D01*
X23954230Y-12795174D02*
X23963753Y-12804698D01*
X23963753Y-12804698D02*
X23973277Y-12823746D01*
X23973277Y-12823746D02*
X23973277Y-12880888D01*
X23973277Y-12880888D02*
X23963753Y-12899936D01*
X23963753Y-12899936D02*
X23954230Y-12909460D01*
X23954230Y-12909460D02*
X23935182Y-12918984D01*
X23935182Y-12918984D02*
X23906610Y-12918984D01*
X24087563Y-12918984D02*
X24068515Y-12909460D01*
X24068515Y-12909460D02*
X24058991Y-12890412D01*
X24058991Y-12890412D02*
X24058991Y-12718984D01*
X24239944Y-12909460D02*
X24220896Y-12918984D01*
X24220896Y-12918984D02*
X24182801Y-12918984D01*
X24182801Y-12918984D02*
X24163753Y-12909460D01*
X24163753Y-12909460D02*
X24154230Y-12890412D01*
X24154230Y-12890412D02*
X24154230Y-12814222D01*
X24154230Y-12814222D02*
X24163753Y-12795174D01*
X24163753Y-12795174D02*
X24182801Y-12785650D01*
X24182801Y-12785650D02*
X24220896Y-12785650D01*
X24220896Y-12785650D02*
X24239944Y-12795174D01*
X24239944Y-12795174D02*
X24249468Y-12814222D01*
X24249468Y-12814222D02*
X24249468Y-12833269D01*
X24249468Y-12833269D02*
X24154230Y-12852317D01*
X24325658Y-12909460D02*
X24344706Y-12918984D01*
X24344706Y-12918984D02*
X24382801Y-12918984D01*
X24382801Y-12918984D02*
X24401849Y-12909460D01*
X24401849Y-12909460D02*
X24411372Y-12890412D01*
X24411372Y-12890412D02*
X24411372Y-12880888D01*
X24411372Y-12880888D02*
X24401849Y-12861841D01*
X24401849Y-12861841D02*
X24382801Y-12852317D01*
X24382801Y-12852317D02*
X24354230Y-12852317D01*
X24354230Y-12852317D02*
X24335182Y-12842793D01*
X24335182Y-12842793D02*
X24325658Y-12823746D01*
X24325658Y-12823746D02*
X24325658Y-12814222D01*
X24325658Y-12814222D02*
X24335182Y-12795174D01*
X24335182Y-12795174D02*
X24354230Y-12785650D01*
X24354230Y-12785650D02*
X24382801Y-12785650D01*
X24382801Y-12785650D02*
X24401849Y-12795174D01*
X24478039Y-12995174D02*
X24487563Y-12985650D01*
X24487563Y-12985650D02*
X24506611Y-12957079D01*
X24506611Y-12957079D02*
X24516134Y-12938031D01*
X24516134Y-12938031D02*
X24525658Y-12909460D01*
X24525658Y-12909460D02*
X24535182Y-12861841D01*
X24535182Y-12861841D02*
X24535182Y-12823746D01*
X24535182Y-12823746D02*
X24525658Y-12776127D01*
X24525658Y-12776127D02*
X24516134Y-12747555D01*
X24516134Y-12747555D02*
X24506611Y-12728508D01*
X24506611Y-12728508D02*
X24487563Y-12699936D01*
X24487563Y-12699936D02*
X24478039Y-12690412D01*
M02*
