M48
; DRILL file {KiCad 8.0.8} date 2025-02-19T14:35:16-0500
; FORMAT={-:-/ absolute / metric / decimal}
; #@! TF.CreationDate,2025-02-19T14:35:16-05:00
; #@! TF.GenerationSoftware,Kicad,Pcbnew,8.0.8
; #@! TF.FileFunction,Plated,1,2,PTH
FMAT,2
METRIC
; #@! TA.AperFunction,Plated,PTH,ViaDrill
T1C0.300
; #@! TA.AperFunction,Plated,PTH,ComponentDrill
T2C1.000
%
G90
G05
T1
X197.49Y-90.585
X197.49Y-93.117
X197.49Y-95.649
X197.49Y-98.181
X197.49Y-100.714
X197.49Y-103.246
X197.49Y-105.778
X197.49Y-108.31
X200.344Y-81.06
X200.395Y-117.91
X202.855Y-81.06
X202.907Y-117.91
X205.367Y-81.06
X205.418Y-117.91
X207.878Y-81.06
X207.93Y-117.91
X210.39Y-81.06
X210.441Y-117.91
X212.901Y-81.06
X212.953Y-117.91
X215.413Y-81.06
X215.464Y-117.91
X217.924Y-81.06
X217.976Y-117.91
X220.436Y-80.97
X220.487Y-117.82
X222.947Y-80.97
X222.999Y-117.82
X225.459Y-80.97
X225.51Y-117.82
X226.7Y-91.7
X227.97Y-80.97
X228.022Y-117.82
X230.482Y-80.97
X230.533Y-117.82
X231.03Y-86.51
X232.993Y-80.97
X233.045Y-117.82
X235.505Y-80.97
X235.556Y-117.82
X238.016Y-80.97
X238.068Y-117.82
X240.528Y-80.94
X240.579Y-117.79
X243.039Y-80.94
X243.091Y-117.79
X245.551Y-80.94
X245.602Y-117.79
X248.062Y-80.94
X248.114Y-117.79
X250.574Y-80.94
X250.625Y-117.79
X253.086Y-80.94
X253.137Y-117.79
X255.597Y-80.94
X255.648Y-117.79
X258.109Y-80.94
X258.16Y-117.79
X261.58Y-90.651
X261.58Y-93.184
X261.58Y-95.716
X261.58Y-98.248
X261.58Y-100.78
X261.58Y-103.312
X261.58Y-105.844
X261.58Y-108.376
T2
X200.33Y-89.16
X200.33Y-91.7
X200.33Y-94.24
X200.33Y-96.78
X200.33Y-99.32
X200.33Y-101.86
X200.33Y-104.4
X200.33Y-106.94
X200.33Y-109.48
X202.87Y-89.16
X202.87Y-91.7
X202.87Y-94.24
X202.87Y-96.78
X202.87Y-99.32
X202.87Y-101.86
X202.87Y-104.4
X202.87Y-106.94
X202.87Y-109.48
X207.97Y-96.87
X207.97Y-112.11
X210.51Y-96.87
X210.51Y-112.11
X213.05Y-96.87
X213.05Y-112.11
X215.59Y-96.87
X215.59Y-112.11
X218.13Y-96.87
X218.13Y-112.11
X220.67Y-96.87
X220.67Y-112.11
X223.21Y-96.87
X223.21Y-112.11
X225.75Y-96.87
X225.75Y-112.11
X228.29Y-96.87
X228.29Y-112.11
X230.83Y-96.87
X230.83Y-112.11
X233.37Y-96.87
X233.37Y-112.11
X235.91Y-96.87
X235.91Y-112.11
X238.45Y-96.87
X238.45Y-112.11
X240.99Y-96.87
X240.99Y-112.11
X242.55Y-86.31
X242.55Y-88.85
X243.53Y-96.87
X243.53Y-112.11
X245.09Y-86.31
X245.09Y-88.85
X246.07Y-96.87
X246.07Y-112.11
X247.63Y-86.31
X247.63Y-88.85
X248.61Y-96.87
X248.61Y-112.11
X250.17Y-86.31
X250.17Y-88.85
X251.15Y-96.87
X251.15Y-112.11
X252.42Y-100.68
X252.42Y-103.22
X252.42Y-105.76
X252.42Y-108.3
X252.71Y-86.31
X252.71Y-88.85
X253.69Y-96.87
X253.69Y-112.11
X255.25Y-86.31
X255.25Y-88.85
X256.23Y-96.87
X256.23Y-112.11
M30
