G04 #@! TF.GenerationSoftware,KiCad,Pcbnew,8.0.8*
G04 #@! TF.CreationDate,2025-02-19T14:35:13-05:00*
G04 #@! TF.ProjectId,afe_230v_16a,6166655f-3233-4307-965f-3136612e6b69,rev?*
G04 #@! TF.SameCoordinates,Original*
G04 #@! TF.FileFunction,Legend,Bot*
G04 #@! TF.FilePolarity,Positive*
%FSLAX46Y46*%
G04 Gerber Fmt 4.6, Leading zero omitted, Abs format (unit mm)*
G04 Created by KiCad (PCBNEW 8.0.8) date 2025-02-19 14:35:13*
%MOMM*%
%LPD*%
G01*
G04 APERTURE LIST*
%ADD10C,0.300000*%
%ADD11R,1.800000X1.800000*%
%ADD12C,1.800000*%
%ADD13R,1.700000X1.700000*%
%ADD14O,1.700000X1.700000*%
G04 APERTURE END LIST*
D10*
X245553082Y-115260828D02*
X245553082Y-116332257D01*
X245553082Y-116332257D02*
X245481653Y-116546542D01*
X245481653Y-116546542D02*
X245338796Y-116689400D01*
X245338796Y-116689400D02*
X245124510Y-116760828D01*
X245124510Y-116760828D02*
X244981653Y-116760828D01*
X246981653Y-116760828D02*
X246267367Y-116760828D01*
X246267367Y-116760828D02*
X246267367Y-115260828D01*
X248338796Y-116617971D02*
X248267368Y-116689400D01*
X248267368Y-116689400D02*
X248053082Y-116760828D01*
X248053082Y-116760828D02*
X247910225Y-116760828D01*
X247910225Y-116760828D02*
X247695939Y-116689400D01*
X247695939Y-116689400D02*
X247553082Y-116546542D01*
X247553082Y-116546542D02*
X247481653Y-116403685D01*
X247481653Y-116403685D02*
X247410225Y-116117971D01*
X247410225Y-116117971D02*
X247410225Y-115903685D01*
X247410225Y-115903685D02*
X247481653Y-115617971D01*
X247481653Y-115617971D02*
X247553082Y-115475114D01*
X247553082Y-115475114D02*
X247695939Y-115332257D01*
X247695939Y-115332257D02*
X247910225Y-115260828D01*
X247910225Y-115260828D02*
X248053082Y-115260828D01*
X248053082Y-115260828D02*
X248267368Y-115332257D01*
X248267368Y-115332257D02*
X248338796Y-115403685D01*
X249410225Y-115260828D02*
X249410225Y-116332257D01*
X249410225Y-116332257D02*
X249338796Y-116546542D01*
X249338796Y-116546542D02*
X249195939Y-116689400D01*
X249195939Y-116689400D02*
X248981653Y-116760828D01*
X248981653Y-116760828D02*
X248838796Y-116760828D01*
X250838796Y-116760828D02*
X250124510Y-116760828D01*
X250124510Y-116760828D02*
X250124510Y-115260828D01*
X252195939Y-116617971D02*
X252124511Y-116689400D01*
X252124511Y-116689400D02*
X251910225Y-116760828D01*
X251910225Y-116760828D02*
X251767368Y-116760828D01*
X251767368Y-116760828D02*
X251553082Y-116689400D01*
X251553082Y-116689400D02*
X251410225Y-116546542D01*
X251410225Y-116546542D02*
X251338796Y-116403685D01*
X251338796Y-116403685D02*
X251267368Y-116117971D01*
X251267368Y-116117971D02*
X251267368Y-115903685D01*
X251267368Y-115903685D02*
X251338796Y-115617971D01*
X251338796Y-115617971D02*
X251410225Y-115475114D01*
X251410225Y-115475114D02*
X251553082Y-115332257D01*
X251553082Y-115332257D02*
X251767368Y-115260828D01*
X251767368Y-115260828D02*
X251910225Y-115260828D01*
X251910225Y-115260828D02*
X252124511Y-115332257D01*
X252124511Y-115332257D02*
X252195939Y-115403685D01*
X253267368Y-115260828D02*
X253267368Y-116332257D01*
X253267368Y-116332257D02*
X253195939Y-116546542D01*
X253195939Y-116546542D02*
X253053082Y-116689400D01*
X253053082Y-116689400D02*
X252838796Y-116760828D01*
X252838796Y-116760828D02*
X252695939Y-116760828D01*
X254695939Y-116760828D02*
X253981653Y-116760828D01*
X253981653Y-116760828D02*
X253981653Y-115260828D01*
X256053082Y-116617971D02*
X255981654Y-116689400D01*
X255981654Y-116689400D02*
X255767368Y-116760828D01*
X255767368Y-116760828D02*
X255624511Y-116760828D01*
X255624511Y-116760828D02*
X255410225Y-116689400D01*
X255410225Y-116689400D02*
X255267368Y-116546542D01*
X255267368Y-116546542D02*
X255195939Y-116403685D01*
X255195939Y-116403685D02*
X255124511Y-116117971D01*
X255124511Y-116117971D02*
X255124511Y-115903685D01*
X255124511Y-115903685D02*
X255195939Y-115617971D01*
X255195939Y-115617971D02*
X255267368Y-115475114D01*
X255267368Y-115475114D02*
X255410225Y-115332257D01*
X255410225Y-115332257D02*
X255624511Y-115260828D01*
X255624511Y-115260828D02*
X255767368Y-115260828D01*
X255767368Y-115260828D02*
X255981654Y-115332257D01*
X255981654Y-115332257D02*
X256053082Y-115403685D01*
X257124511Y-115260828D02*
X257124511Y-116332257D01*
X257124511Y-116332257D02*
X257053082Y-116546542D01*
X257053082Y-116546542D02*
X256910225Y-116689400D01*
X256910225Y-116689400D02*
X256695939Y-116760828D01*
X256695939Y-116760828D02*
X256553082Y-116760828D01*
X258553082Y-116760828D02*
X257838796Y-116760828D01*
X257838796Y-116760828D02*
X257838796Y-115260828D01*
X259910225Y-116617971D02*
X259838797Y-116689400D01*
X259838797Y-116689400D02*
X259624511Y-116760828D01*
X259624511Y-116760828D02*
X259481654Y-116760828D01*
X259481654Y-116760828D02*
X259267368Y-116689400D01*
X259267368Y-116689400D02*
X259124511Y-116546542D01*
X259124511Y-116546542D02*
X259053082Y-116403685D01*
X259053082Y-116403685D02*
X258981654Y-116117971D01*
X258981654Y-116117971D02*
X258981654Y-115903685D01*
X258981654Y-115903685D02*
X259053082Y-115617971D01*
X259053082Y-115617971D02*
X259124511Y-115475114D01*
X259124511Y-115475114D02*
X259267368Y-115332257D01*
X259267368Y-115332257D02*
X259481654Y-115260828D01*
X259481654Y-115260828D02*
X259624511Y-115260828D01*
X259624511Y-115260828D02*
X259838797Y-115332257D01*
X259838797Y-115332257D02*
X259910225Y-115403685D01*
%LPC*%
D11*
X207970000Y-112110000D03*
D12*
X210510000Y-112110000D03*
X213050000Y-112110000D03*
X215590000Y-112110000D03*
X218130000Y-112110000D03*
X220670000Y-112110000D03*
X223210000Y-112110000D03*
X225750000Y-112110000D03*
X228290000Y-112110000D03*
X230830000Y-112110000D03*
X233370000Y-112110000D03*
X235910000Y-112110000D03*
X238450000Y-112110000D03*
X240990000Y-112110000D03*
X243530000Y-112110000D03*
X246070000Y-112110000D03*
X248610000Y-112110000D03*
X251150000Y-112110000D03*
X253690000Y-112110000D03*
X256230000Y-112110000D03*
X256230000Y-96870000D03*
X253690000Y-96870000D03*
X251150000Y-96870000D03*
X248610000Y-96870000D03*
X246070000Y-96870000D03*
X243530000Y-96870000D03*
X240990000Y-96870000D03*
X238450000Y-96870000D03*
X235910000Y-96870000D03*
X233370000Y-96870000D03*
X230830000Y-96870000D03*
X228290000Y-96870000D03*
X225750000Y-96870000D03*
X223210000Y-96870000D03*
X220670000Y-96870000D03*
X218130000Y-96870000D03*
X215590000Y-96870000D03*
X213050000Y-96870000D03*
X210510000Y-96870000D03*
D11*
X207970000Y-96870000D03*
X252420000Y-108300000D03*
D12*
X252420000Y-105760000D03*
X252420000Y-103220000D03*
X252420000Y-100680000D03*
D13*
X200330000Y-89160000D03*
D14*
X202870000Y-89160000D03*
X200330000Y-91700000D03*
X202870000Y-91700000D03*
X200330000Y-94240000D03*
X202870000Y-94240000D03*
X200330000Y-96780000D03*
X202870000Y-96780000D03*
X200330000Y-99320000D03*
X202870000Y-99320000D03*
X200330000Y-101860000D03*
X202870000Y-101860000D03*
X200330000Y-104400000D03*
X202870000Y-104400000D03*
X200330000Y-106940000D03*
X202870000Y-106940000D03*
X200330000Y-109480000D03*
X202870000Y-109480000D03*
D13*
X242550000Y-88850000D03*
D14*
X242550000Y-86310000D03*
X245090000Y-88850000D03*
X245090000Y-86310000D03*
X247630000Y-88850000D03*
X247630000Y-86310000D03*
X250170000Y-88850000D03*
X250170000Y-86310000D03*
X252710000Y-88850000D03*
X252710000Y-86310000D03*
X255250000Y-88850000D03*
X255250000Y-86310000D03*
%LPD*%
M02*
