G04 #@! TF.GenerationSoftware,KiCad,Pcbnew,8.0.8*
G04 #@! TF.CreationDate,2025-02-19T14:08:19-05:00*
G04 #@! TF.ProjectId,plot_gerbers,706c6f74-5f67-4657-9262-6572732e6b69,rev?*
G04 #@! TF.SameCoordinates,Original*
G04 #@! TF.FileFunction,Soldermask,Bot*
G04 #@! TF.FilePolarity,Negative*
%FSLAX46Y46*%
G04 Gerber Fmt 4.6, Leading zero omitted, Abs format (unit mm)*
G04 Created by KiCad (PCBNEW 8.0.8) date 2025-02-19 14:08:19*
%MOMM*%
%LPD*%
G01*
G04 APERTURE LIST*
%ADD10C,1.700000*%
%ADD11O,1.700000X1.700000*%
%ADD12R,1.700000X1.700000*%
%ADD13R,1.500000X1.500000*%
G04 APERTURE END LIST*
D10*
X132379972Y-89925028D03*
X132379972Y-87385028D03*
X132379972Y-84845028D03*
X132379972Y-82305028D03*
D11*
X134919972Y-89925028D03*
X134919972Y-87385028D03*
X134919972Y-84845028D03*
X134919972Y-82305028D03*
X137459972Y-89925028D03*
X137459972Y-87385028D03*
X137459972Y-84845028D03*
X137459972Y-82305028D03*
X139999972Y-89925028D03*
X139999972Y-87385028D03*
X139999972Y-84845028D03*
X139999972Y-82305028D03*
X142539972Y-89925028D03*
X142539972Y-87385028D03*
X142539972Y-84845028D03*
X142539972Y-82305028D03*
X145079972Y-89925028D03*
X145079972Y-87385028D03*
X145079972Y-84845028D03*
X145079972Y-82305028D03*
X147619972Y-89925028D03*
X147619972Y-87385028D03*
X147619972Y-84845028D03*
X147619972Y-82305028D03*
X150159972Y-89925028D03*
X150159972Y-87385028D03*
X150159972Y-84845028D03*
X150159972Y-82305028D03*
X152699972Y-89925028D03*
X152699972Y-87385028D03*
X152699972Y-84845028D03*
X152699972Y-82305028D03*
X155239972Y-89925028D03*
X155239972Y-87385028D03*
X155239972Y-84845028D03*
X155239972Y-82305028D03*
X157779972Y-89925028D03*
X157779972Y-87385028D03*
X157779972Y-84845028D03*
X157779972Y-82305028D03*
X160319972Y-89925028D03*
X160319972Y-87385028D03*
X160319972Y-84845028D03*
X160319972Y-82305028D03*
X162859972Y-89925028D03*
X162859972Y-87385028D03*
X162859972Y-84845028D03*
X162859972Y-82305028D03*
X165399972Y-89925028D03*
X165399972Y-87385028D03*
X165399972Y-84845028D03*
X165399972Y-82305028D03*
X167939972Y-89925028D03*
X167939972Y-87385028D03*
X167939972Y-84845028D03*
X167939972Y-82305028D03*
X170479972Y-89925028D03*
X170479972Y-87385028D03*
X170479972Y-84845028D03*
X170479972Y-82305028D03*
X173019972Y-89925028D03*
X173019972Y-87385028D03*
X173019972Y-84845028D03*
X173019972Y-82305028D03*
X175559972Y-89925028D03*
X175559972Y-87385028D03*
X175559972Y-84845028D03*
X175559972Y-82305028D03*
X178099972Y-89925028D03*
X178099972Y-87385028D03*
X178099972Y-84845028D03*
X178099972Y-82305028D03*
X180639972Y-89925028D03*
X180639972Y-87385028D03*
X180639972Y-84845028D03*
X180639972Y-82305028D03*
D12*
X124469972Y-97790028D03*
D11*
X127009972Y-97790028D03*
X124469972Y-100330028D03*
X127009972Y-100330028D03*
X124469972Y-102870028D03*
X127009972Y-102870028D03*
X124469972Y-105410028D03*
X127009972Y-105410028D03*
X124469972Y-107950028D03*
X127009972Y-107950028D03*
X124469972Y-110490028D03*
X127009972Y-110490028D03*
X124469972Y-113030028D03*
X127009972Y-113030028D03*
X124469972Y-115570028D03*
X127009972Y-115570028D03*
X124469972Y-118110028D03*
X127009972Y-118110028D03*
D13*
X127019972Y-133210028D03*
D10*
X180669972Y-102760028D03*
X180669972Y-105300028D03*
X180669972Y-107840028D03*
X180669972Y-110380028D03*
X180669972Y-112920028D03*
X180669972Y-115460028D03*
D11*
X178129972Y-102760028D03*
X178129972Y-105300028D03*
X178129972Y-107840028D03*
X178129972Y-110380028D03*
X178129972Y-112920028D03*
X178129972Y-115460028D03*
X175589972Y-102760028D03*
X175589972Y-105300028D03*
X175589972Y-107840028D03*
X175589972Y-110380028D03*
X175589972Y-112920028D03*
X175589972Y-115460028D03*
X173049972Y-102760028D03*
X173049972Y-105300028D03*
X173049972Y-107840028D03*
X173049972Y-110380028D03*
X173049972Y-112920028D03*
X173049972Y-115460028D03*
X170509972Y-102760028D03*
X170509972Y-105300028D03*
X170509972Y-107840028D03*
X170509972Y-110380028D03*
X170509972Y-112920028D03*
X170509972Y-115460028D03*
X167969972Y-102760028D03*
X167969972Y-105300028D03*
X167969972Y-107840028D03*
X167969972Y-110380028D03*
X167969972Y-112920028D03*
X167969972Y-115460028D03*
X165429972Y-102760028D03*
X165429972Y-105300028D03*
X165429972Y-107840028D03*
X165429972Y-110380028D03*
X165429972Y-112920028D03*
X165429972Y-115460028D03*
X162889972Y-102760028D03*
X162889972Y-105300028D03*
X162889972Y-107840028D03*
X162889972Y-110380028D03*
X162889972Y-112920028D03*
X162889972Y-115460028D03*
X160349972Y-102760028D03*
X160349972Y-105300028D03*
X160349972Y-107840028D03*
X160349972Y-110380028D03*
X160349972Y-112920028D03*
X160349972Y-115460028D03*
X157809972Y-102760028D03*
X157809972Y-105300028D03*
X157809972Y-107840028D03*
X157809972Y-110380028D03*
X157809972Y-112920028D03*
X157809972Y-115460028D03*
X155269972Y-102760028D03*
X155269972Y-105300028D03*
X155269972Y-107840028D03*
X155269972Y-110380028D03*
X155269972Y-112920028D03*
X155269972Y-115460028D03*
X152729972Y-102760028D03*
X152729972Y-105300028D03*
X152729972Y-107840028D03*
X152729972Y-110380028D03*
X152729972Y-112920028D03*
X152729972Y-115460028D03*
X150189972Y-102760028D03*
X150189972Y-105300028D03*
X150189972Y-107840028D03*
X150189972Y-110380028D03*
X150189972Y-112920028D03*
X150189972Y-115460028D03*
X147649972Y-102760028D03*
X147649972Y-105300028D03*
X147649972Y-107840028D03*
X147649972Y-110380028D03*
X147649972Y-112920028D03*
X147649972Y-115460028D03*
X145109972Y-102760028D03*
X145109972Y-105300028D03*
X145109972Y-107840028D03*
X145109972Y-110380028D03*
X145109972Y-112920028D03*
X145109972Y-115460028D03*
X142569972Y-102760028D03*
X142569972Y-105300028D03*
X142569972Y-107840028D03*
X142569972Y-110380028D03*
X142569972Y-112920028D03*
X142569972Y-115460028D03*
X140029972Y-102760028D03*
X140029972Y-105300028D03*
X140029972Y-107840028D03*
X140029972Y-110380028D03*
X140029972Y-112920028D03*
X140029972Y-115460028D03*
X137489972Y-102760028D03*
X137489972Y-105300028D03*
X137489972Y-107840028D03*
X137489972Y-110380028D03*
X137489972Y-112920028D03*
X137489972Y-115460028D03*
X134949972Y-102760028D03*
X134949972Y-105300028D03*
X134949972Y-107840028D03*
X134949972Y-110380028D03*
X134949972Y-112920028D03*
X134949972Y-115460028D03*
X132409972Y-102760028D03*
X132409972Y-105300028D03*
X132409972Y-107840028D03*
X132409972Y-110380028D03*
X132409972Y-112920028D03*
X132409972Y-115460028D03*
D10*
X180669972Y-120540028D03*
X180669972Y-123080028D03*
X180669972Y-125620028D03*
X180669972Y-128160028D03*
X180669972Y-130700028D03*
X180669972Y-133240028D03*
D11*
X178129972Y-120540028D03*
X178129972Y-123080028D03*
X178129972Y-125620028D03*
X178129972Y-128160028D03*
X178129972Y-130700028D03*
X178129972Y-133240028D03*
X175589972Y-120540028D03*
X175589972Y-123080028D03*
X175589972Y-125620028D03*
X175589972Y-128160028D03*
X175589972Y-130700028D03*
X175589972Y-133240028D03*
X173049972Y-120540028D03*
X173049972Y-123080028D03*
X173049972Y-125620028D03*
X173049972Y-128160028D03*
X173049972Y-130700028D03*
X173049972Y-133240028D03*
X170509972Y-120540028D03*
X170509972Y-123080028D03*
X170509972Y-125620028D03*
X170509972Y-128160028D03*
X170509972Y-130700028D03*
X170509972Y-133240028D03*
X167969972Y-120540028D03*
X167969972Y-123080028D03*
X167969972Y-125620028D03*
X167969972Y-128160028D03*
X167969972Y-130700028D03*
X167969972Y-133240028D03*
X165429972Y-120540028D03*
X165429972Y-123080028D03*
X165429972Y-125620028D03*
X165429972Y-128160028D03*
X165429972Y-130700028D03*
X165429972Y-133240028D03*
X162889972Y-120540028D03*
X162889972Y-123080028D03*
X162889972Y-125620028D03*
X162889972Y-128160028D03*
X162889972Y-130700028D03*
X162889972Y-133240028D03*
X160349972Y-120540028D03*
X160349972Y-123080028D03*
X160349972Y-125620028D03*
X160349972Y-128160028D03*
X160349972Y-130700028D03*
X160349972Y-133240028D03*
X157809972Y-120540028D03*
X157809972Y-123080028D03*
X157809972Y-125620028D03*
X157809972Y-128160028D03*
X157809972Y-130700028D03*
X157809972Y-133240028D03*
X155269972Y-120540028D03*
X155269972Y-123080028D03*
X155269972Y-125620028D03*
X155269972Y-128160028D03*
X155269972Y-130700028D03*
X155269972Y-133240028D03*
X152729972Y-120540028D03*
X152729972Y-123080028D03*
X152729972Y-125620028D03*
X152729972Y-128160028D03*
X152729972Y-130700028D03*
X152729972Y-133240028D03*
X150189972Y-120540028D03*
X150189972Y-123080028D03*
X150189972Y-125620028D03*
X150189972Y-128160028D03*
X150189972Y-130700028D03*
X150189972Y-133240028D03*
X147649972Y-120540028D03*
X147649972Y-123080028D03*
X147649972Y-125620028D03*
X147649972Y-128160028D03*
X147649972Y-130700028D03*
X147649972Y-133240028D03*
X145109972Y-120540028D03*
X145109972Y-123080028D03*
X145109972Y-125620028D03*
X145109972Y-128160028D03*
X145109972Y-130700028D03*
X145109972Y-133240028D03*
X142569972Y-120540028D03*
X142569972Y-123080028D03*
X142569972Y-125620028D03*
X142569972Y-128160028D03*
X142569972Y-130700028D03*
X142569972Y-133240028D03*
X140029972Y-120540028D03*
X140029972Y-123080028D03*
X140029972Y-125620028D03*
X140029972Y-128160028D03*
X140029972Y-130700028D03*
X140029972Y-133240028D03*
X137489972Y-120540028D03*
X137489972Y-123080028D03*
X137489972Y-125620028D03*
X137489972Y-128160028D03*
X137489972Y-130700028D03*
X137489972Y-133240028D03*
X134949972Y-120540028D03*
X134949972Y-123080028D03*
X134949972Y-125620028D03*
X134949972Y-128160028D03*
X134949972Y-130700028D03*
X134949972Y-133240028D03*
X132409972Y-120540028D03*
X132409972Y-123080028D03*
X132409972Y-125620028D03*
X132409972Y-128160028D03*
X132409972Y-130700028D03*
X132409972Y-133240028D03*
X132429972Y-94860028D03*
X132429972Y-97400028D03*
X134969972Y-94860028D03*
X134969972Y-97400028D03*
X137509972Y-94860028D03*
X137509972Y-97400028D03*
X140049972Y-94860028D03*
X140049972Y-97400028D03*
X142589972Y-94860028D03*
X142589972Y-97400028D03*
X145129972Y-94860028D03*
X145129972Y-97400028D03*
X147669972Y-94860028D03*
X147669972Y-97400028D03*
X150209972Y-94860028D03*
X150209972Y-97400028D03*
X152749972Y-94860028D03*
X152749972Y-97400028D03*
X155289972Y-94860028D03*
X155289972Y-97400028D03*
X157829972Y-94860028D03*
X157829972Y-97400028D03*
X160369972Y-94860028D03*
X160369972Y-97400028D03*
M02*
