M48
; DRILL file {KiCad 8.0.8} date 2025-02-19T14:08:22-0500
; FORMAT={-:-/ absolute / metric / decimal}
; #@! TF.CreationDate,2025-02-19T14:08:22-05:00
; #@! TF.GenerationSoftware,Kicad,Pcbnew,8.0.8
; #@! TF.FileFunction,Plated,1,2,PTH
FMAT,2
METRIC
; #@! TA.AperFunction,Plated,PTH,ComponentDrill
T1C0.700
; #@! TA.AperFunction,Plated,PTH,ComponentDrill
T2C1.000
%
G90
G05
T1
X127.02Y-133.21
T2
X124.47Y-97.79
X124.47Y-100.33
X124.47Y-102.87
X124.47Y-105.41
X124.47Y-107.95
X124.47Y-110.49
X124.47Y-113.03
X124.47Y-115.57
X124.47Y-118.11
X127.01Y-97.79
X127.01Y-100.33
X127.01Y-102.87
X127.01Y-105.41
X127.01Y-107.95
X127.01Y-110.49
X127.01Y-113.03
X127.01Y-115.57
X127.01Y-118.11
X132.38Y-82.305
X132.38Y-84.845
X132.38Y-87.385
X132.38Y-89.925
X132.41Y-102.76
X132.41Y-105.3
X132.41Y-107.84
X132.41Y-110.38
X132.41Y-112.92
X132.41Y-115.46
X132.41Y-120.54
X132.41Y-123.08
X132.41Y-125.62
X132.41Y-128.16
X132.41Y-130.7
X132.41Y-133.24
X132.43Y-94.86
X132.43Y-97.4
X134.92Y-82.305
X134.92Y-84.845
X134.92Y-87.385
X134.92Y-89.925
X134.95Y-102.76
X134.95Y-105.3
X134.95Y-107.84
X134.95Y-110.38
X134.95Y-112.92
X134.95Y-115.46
X134.95Y-120.54
X134.95Y-123.08
X134.95Y-125.62
X134.95Y-128.16
X134.95Y-130.7
X134.95Y-133.24
X134.97Y-94.86
X134.97Y-97.4
X137.46Y-82.305
X137.46Y-84.845
X137.46Y-87.385
X137.46Y-89.925
X137.49Y-102.76
X137.49Y-105.3
X137.49Y-107.84
X137.49Y-110.38
X137.49Y-112.92
X137.49Y-115.46
X137.49Y-120.54
X137.49Y-123.08
X137.49Y-125.62
X137.49Y-128.16
X137.49Y-130.7
X137.49Y-133.24
X137.51Y-94.86
X137.51Y-97.4
X140.0Y-82.305
X140.0Y-84.845
X140.0Y-87.385
X140.0Y-89.925
X140.03Y-102.76
X140.03Y-105.3
X140.03Y-107.84
X140.03Y-110.38
X140.03Y-112.92
X140.03Y-115.46
X140.03Y-120.54
X140.03Y-123.08
X140.03Y-125.62
X140.03Y-128.16
X140.03Y-130.7
X140.03Y-133.24
X140.05Y-94.86
X140.05Y-97.4
X142.54Y-82.305
X142.54Y-84.845
X142.54Y-87.385
X142.54Y-89.925
X142.57Y-102.76
X142.57Y-105.3
X142.57Y-107.84
X142.57Y-110.38
X142.57Y-112.92
X142.57Y-115.46
X142.57Y-120.54
X142.57Y-123.08
X142.57Y-125.62
X142.57Y-128.16
X142.57Y-130.7
X142.57Y-133.24
X142.59Y-94.86
X142.59Y-97.4
X145.08Y-82.305
X145.08Y-84.845
X145.08Y-87.385
X145.08Y-89.925
X145.11Y-102.76
X145.11Y-105.3
X145.11Y-107.84
X145.11Y-110.38
X145.11Y-112.92
X145.11Y-115.46
X145.11Y-120.54
X145.11Y-123.08
X145.11Y-125.62
X145.11Y-128.16
X145.11Y-130.7
X145.11Y-133.24
X145.13Y-94.86
X145.13Y-97.4
X147.62Y-82.305
X147.62Y-84.845
X147.62Y-87.385
X147.62Y-89.925
X147.65Y-102.76
X147.65Y-105.3
X147.65Y-107.84
X147.65Y-110.38
X147.65Y-112.92
X147.65Y-115.46
X147.65Y-120.54
X147.65Y-123.08
X147.65Y-125.62
X147.65Y-128.16
X147.65Y-130.7
X147.65Y-133.24
X147.67Y-94.86
X147.67Y-97.4
X150.16Y-82.305
X150.16Y-84.845
X150.16Y-87.385
X150.16Y-89.925
X150.19Y-102.76
X150.19Y-105.3
X150.19Y-107.84
X150.19Y-110.38
X150.19Y-112.92
X150.19Y-115.46
X150.19Y-120.54
X150.19Y-123.08
X150.19Y-125.62
X150.19Y-128.16
X150.19Y-130.7
X150.19Y-133.24
X150.21Y-94.86
X150.21Y-97.4
X152.7Y-82.305
X152.7Y-84.845
X152.7Y-87.385
X152.7Y-89.925
X152.73Y-102.76
X152.73Y-105.3
X152.73Y-107.84
X152.73Y-110.38
X152.73Y-112.92
X152.73Y-115.46
X152.73Y-120.54
X152.73Y-123.08
X152.73Y-125.62
X152.73Y-128.16
X152.73Y-130.7
X152.73Y-133.24
X152.75Y-94.86
X152.75Y-97.4
X155.24Y-82.305
X155.24Y-84.845
X155.24Y-87.385
X155.24Y-89.925
X155.27Y-102.76
X155.27Y-105.3
X155.27Y-107.84
X155.27Y-110.38
X155.27Y-112.92
X155.27Y-115.46
X155.27Y-120.54
X155.27Y-123.08
X155.27Y-125.62
X155.27Y-128.16
X155.27Y-130.7
X155.27Y-133.24
X155.29Y-94.86
X155.29Y-97.4
X157.78Y-82.305
X157.78Y-84.845
X157.78Y-87.385
X157.78Y-89.925
X157.81Y-102.76
X157.81Y-105.3
X157.81Y-107.84
X157.81Y-110.38
X157.81Y-112.92
X157.81Y-115.46
X157.81Y-120.54
X157.81Y-123.08
X157.81Y-125.62
X157.81Y-128.16
X157.81Y-130.7
X157.81Y-133.24
X157.83Y-94.86
X157.83Y-97.4
X160.32Y-82.305
X160.32Y-84.845
X160.32Y-87.385
X160.32Y-89.925
X160.35Y-102.76
X160.35Y-105.3
X160.35Y-107.84
X160.35Y-110.38
X160.35Y-112.92
X160.35Y-115.46
X160.35Y-120.54
X160.35Y-123.08
X160.35Y-125.62
X160.35Y-128.16
X160.35Y-130.7
X160.35Y-133.24
X160.37Y-94.86
X160.37Y-97.4
X162.86Y-82.305
X162.86Y-84.845
X162.86Y-87.385
X162.86Y-89.925
X162.89Y-102.76
X162.89Y-105.3
X162.89Y-107.84
X162.89Y-110.38
X162.89Y-112.92
X162.89Y-115.46
X162.89Y-120.54
X162.89Y-123.08
X162.89Y-125.62
X162.89Y-128.16
X162.89Y-130.7
X162.89Y-133.24
X165.4Y-82.305
X165.4Y-84.845
X165.4Y-87.385
X165.4Y-89.925
X165.43Y-102.76
X165.43Y-105.3
X165.43Y-107.84
X165.43Y-110.38
X165.43Y-112.92
X165.43Y-115.46
X165.43Y-120.54
X165.43Y-123.08
X165.43Y-125.62
X165.43Y-128.16
X165.43Y-130.7
X165.43Y-133.24
X167.94Y-82.305
X167.94Y-84.845
X167.94Y-87.385
X167.94Y-89.925
X167.97Y-102.76
X167.97Y-105.3
X167.97Y-107.84
X167.97Y-110.38
X167.97Y-112.92
X167.97Y-115.46
X167.97Y-120.54
X167.97Y-123.08
X167.97Y-125.62
X167.97Y-128.16
X167.97Y-130.7
X167.97Y-133.24
X170.48Y-82.305
X170.48Y-84.845
X170.48Y-87.385
X170.48Y-89.925
X170.51Y-102.76
X170.51Y-105.3
X170.51Y-107.84
X170.51Y-110.38
X170.51Y-112.92
X170.51Y-115.46
X170.51Y-120.54
X170.51Y-123.08
X170.51Y-125.62
X170.51Y-128.16
X170.51Y-130.7
X170.51Y-133.24
X173.02Y-82.305
X173.02Y-84.845
X173.02Y-87.385
X173.02Y-89.925
X173.05Y-102.76
X173.05Y-105.3
X173.05Y-107.84
X173.05Y-110.38
X173.05Y-112.92
X173.05Y-115.46
X173.05Y-120.54
X173.05Y-123.08
X173.05Y-125.62
X173.05Y-128.16
X173.05Y-130.7
X173.05Y-133.24
X175.56Y-82.305
X175.56Y-84.845
X175.56Y-87.385
X175.56Y-89.925
X175.59Y-102.76
X175.59Y-105.3
X175.59Y-107.84
X175.59Y-110.38
X175.59Y-112.92
X175.59Y-115.46
X175.59Y-120.54
X175.59Y-123.08
X175.59Y-125.62
X175.59Y-128.16
X175.59Y-130.7
X175.59Y-133.24
X178.1Y-82.305
X178.1Y-84.845
X178.1Y-87.385
X178.1Y-89.925
X178.13Y-102.76
X178.13Y-105.3
X178.13Y-107.84
X178.13Y-110.38
X178.13Y-112.92
X178.13Y-115.46
X178.13Y-120.54
X178.13Y-123.08
X178.13Y-125.62
X178.13Y-128.16
X178.13Y-130.7
X178.13Y-133.24
X180.64Y-82.305
X180.64Y-84.845
X180.64Y-87.385
X180.64Y-89.925
X180.67Y-102.76
X180.67Y-105.3
X180.67Y-107.84
X180.67Y-110.38
X180.67Y-112.92
X180.67Y-115.46
X180.67Y-120.54
X180.67Y-123.08
X180.67Y-125.62
X180.67Y-128.16
X180.67Y-130.7
X180.67Y-133.24
M30
