G04 #@! TF.GenerationSoftware,KiCad,Pcbnew,8.0.8*
G04 #@! TF.CreationDate,2025-02-19T14:08:20-05:00*
G04 #@! TF.ProjectId,plot_gerbers,706c6f74-5f67-4657-9262-6572732e6b69,rev?*
G04 #@! TF.SameCoordinates,Original*
G04 #@! TF.FileFunction,Profile,NP*
%FSLAX46Y46*%
G04 Gerber Fmt 4.6, Leading zero omitted, Abs format (unit mm)*
G04 Created by KiCad (PCBNEW 8.0.8) date 2025-02-19 14:08:20*
%MOMM*%
%LPD*%
G01*
G04 APERTURE LIST*
G04 #@! TA.AperFunction,Profile*
%ADD10C,0.050000*%
G04 #@! TD*
G04 APERTURE END LIST*
D10*
X165723500Y-92380028D02*
X180269972Y-92380028D01*
X120539972Y-76790028D02*
X186839972Y-76790028D01*
X121739972Y-92790028D02*
G75*
G02*
X120539972Y-93990028I-1200065J65D01*
G01*
X186839972Y-117990028D02*
X186839972Y-97890028D01*
X186839972Y-121890028D02*
X188089972Y-121890028D01*
X120539972Y-120390028D02*
X119289972Y-120390028D01*
X121739972Y-119190028D02*
G75*
G02*
X120539972Y-120390028I-1200065J65D01*
G01*
X186839972Y-120390028D02*
G75*
G02*
X185639972Y-119190028I28J1200028D01*
G01*
X120539972Y-76790028D02*
X120539972Y-91590028D01*
X186839972Y-120390028D02*
X188089972Y-120390028D01*
X120539972Y-139090028D02*
X120539972Y-124290028D01*
X186839972Y-139090028D02*
X186839972Y-124290028D01*
X181469972Y-98820028D02*
G75*
G02*
X180269972Y-100020028I-1200000J0D01*
G01*
X186839972Y-93990028D02*
G75*
G02*
X185639972Y-92790028I28J1200028D01*
G01*
X185639972Y-96690028D02*
G75*
G02*
X186839972Y-95490028I1199932J68D01*
G01*
X121739972Y-123090028D02*
G75*
G02*
X120539972Y-124290028I-1200065J65D01*
G01*
X119289972Y-95490028D02*
X119289972Y-93990028D01*
X185639972Y-119190028D02*
G75*
G02*
X186839972Y-117990028I1199932J68D01*
G01*
X186839972Y-139090028D02*
X120539972Y-139090028D01*
X119289972Y-121890028D02*
X119289972Y-120390028D01*
X185639972Y-92790028D02*
G75*
G02*
X186839972Y-91590028I1199932J68D01*
G01*
X120539972Y-93990028D02*
X119289972Y-93990028D01*
X186839972Y-95490028D02*
X188089972Y-95490028D01*
X165723500Y-100020028D02*
X180269972Y-100020028D01*
X120539972Y-95490028D02*
X119289972Y-95490028D01*
X186839972Y-93990028D02*
X188089972Y-93990028D01*
X121739972Y-96690028D02*
G75*
G02*
X120539972Y-97890028I-1200065J65D01*
G01*
X188089972Y-93990028D02*
X188089972Y-95490028D01*
X164523500Y-93580028D02*
X164523500Y-98820028D01*
X120539972Y-97890028D02*
X120539972Y-117990028D01*
X120539972Y-121890028D02*
G75*
G02*
X121739972Y-123090028I27J-1199973D01*
G01*
X120539972Y-91590028D02*
G75*
G02*
X121739972Y-92790028I27J-1199973D01*
G01*
X120539972Y-121890028D02*
X119289972Y-121890028D01*
X185639972Y-123090028D02*
G75*
G02*
X186839972Y-121890028I1199932J68D01*
G01*
X120539972Y-95490028D02*
G75*
G02*
X121739972Y-96690028I27J-1199973D01*
G01*
X186839972Y-76790028D02*
X186839972Y-91590028D01*
X180269972Y-92380028D02*
G75*
G02*
X181469972Y-93580028I0J-1200000D01*
G01*
X120539972Y-117990028D02*
G75*
G02*
X121739972Y-119190028I27J-1199973D01*
G01*
X186839972Y-97890028D02*
G75*
G02*
X185639972Y-96690028I28J1200028D01*
G01*
X165723500Y-100020028D02*
G75*
G02*
X164523500Y-98820028I0J1200000D01*
G01*
X188089972Y-120390028D02*
X188089972Y-121890028D01*
X181469972Y-98820028D02*
X181469972Y-93580028D01*
X164523500Y-93580028D02*
G75*
G02*
X165723500Y-92380028I1200000J0D01*
G01*
X186839972Y-124290028D02*
G75*
G02*
X185639972Y-123090028I28J1200028D01*
G01*
M02*
